<svg id="Layer_1" xmlns="http://www.w3.org/2000/svg" viewBox="0 0 321.2 426.2"><style>.st0{fill:#33220b}</style><path class="st0" d="M321.1 367v-.3c-.3-.5-.5-1-.3-1.5.2-.4.1-.8 0-1.2-.1-.4-.2-.9.4-1.2v-.4c-.6-.2-.7-.5-.2-.9 0-.3.1-.6.1-.8-.2-.5-.2-1-.5-1.5-.1-.2-.1-.5.3-.6v-.6c-.7-.5-.7-1.2-.4-1.8 0-.3-.1-.6-.1-.8-.6-.6-.6-.8 0-1.4 0-.4.1-.9.1-1.3-.2-.2-.3-.4-.3-.6.1-.7.4-1.4-.2-2.1-.1-.1.2-.3.5-.2v-.4c-.3-.5-.2-.6.6-.7 0-.1.1-.1.1-.2-.3-.8-.5-1.5-.8-2.3 0-.1-.1-.2 0-.2.6-1.9-.6-3.7-.5-5.6 0-.4-.3-.6-.4-.9-.2-.4-.6-.8-.5-1.3 0-.1-.1-.3-.1-.4-.8-.1-1.2.3-1.1.9.4 2.2.4 4.4.4 6.7 0 .7.3 1.3.4 2 .1.3.2.6-.1 1-.5-.9-1.9-1.4-1.8-2.6 0-.3-.2-.7-.5-.9-.8-.6-1.1-1.3-1.2-2.1-.2-.8-.6-1.6-1.3-2.2-.2-.2-.5-.4-.4-.6.4-.7-.2-1-.7-1.4-.2-.2-.6-.4-.6-.6-.5-1.5-1.8-2.7-2.7-4.1-.4-.6-.5-1.2.3-1.7.1 0 .1-.1.2-.2.2-.2.4-.5 0-.7-.3-.2-.5.1-.7.3-.1.1-.2.1-.5.3.1-.9-.5-1.4-1.2-1.9-.6-.4-1-.9-1.3-1.5-.6-1-.6-2.1 0-3.1.1-.2.2-.4.1-.5-.7-1-.9-2.1-2.1-3.1-.4.7-.3 1.3-.2 1.9-.9-.8-1.9-1.6-2.5-2.6-.1-.2-.2-.5.1-.5.9-.1.5-.5.4-.8-.2-.5-.5-1.1-.7-1.6-.1-.3-.4-.5-.7-.7-.6-.2-.9-.7-1-1.2-.3-.9-.6-1.9-.9-2.8.4-.1.6.1.6.3.5 1 1.7 1.7 2.4 2.7.2.4.7.6 1.2.5.7-.1 1.1.2 1.5.5 1.1 1.1 2.7 1.8 3.9 2.8.3-.3.7-.6.8-.9-.1 0-.1-.1-.2-.1-.4-.2-.8-.4-1.3-.6-.2-.1-.6-.3-.5-.5.3-.6-.3-1-.6-1.4-.9-1.2-2.1-2.3-2.7-3.7-.1 0-.1-.1-.2-.1-.8-.3-1.3-.8-1.6-1.5-.3-.7-1-1.4-1.3-2.1-.1-.2-.3-.5-.2-.7.6-.9.8-1.9 1.8-2.7.3-.3.5-.5.5-.9 0-.8.3-1.6.7-2.3.3-.5.3-.8-.5-1-.2 0-.4-.1-.3-.3l.1-.1c1.7.1 2.2-.2 2.3-1.5.1-.4.3-.7.5-1.1.6-.8.9-1.6 1-2.5.2-1.1.2-2.2.9-3.3.6-.9.6-1.9.6-2.9v-1.7c0-.2 0-.5.1-.7 1-1 .5-2.2.8-3.3 0-.2 0-.4.1-.5 1.4-.8.5-1.8.4-2.7 0-.1-.2-.3-.1-.4.5-1 0-1.9-.5-2.8-.4-.8-.2-1.5.1-2.3.1-.4.5-.7.9-.5.8.4 1.4.1 2 0h.6c-.2-.4-.2-.8.4-1 .5-.2.3-.4.2-.7-.2-.7-.9-1.2-1-1.8-.1-.6-.5-.9-1.2-.9-.8 0-1.5-.3-1.8-.8-.5-1-1.2-2-.8-3.1.2-.4.2-.9-.1-1.2-.7-.9-1-1.9-1.4-2.8-.3-.7-.5-1.4-.2-2.1.2-.4.1-.7-.2-.9-.2-.2-.4-.4-.5-.6-.3-.6-.1-1 .7-1.6.6-.5 1.1-.2 1.6 0 .3.1.6.3.9.4.4.2.9.4 1.4.4.2 0 .4 0 .5-.2.1-.1 0-.3-.1-.4-.3-.2-.6-.3-.8-.5-.9-.6-2.1-1-2.8-1.6-.7-.6-.7-1.7-1.2-2.5-.4-.6-.9-1.1.3-1.6.1 0 .2-.2.2-.3 0-.5.3-.7 1-.8.6-.1.7-.3.6-.8-.2-.7-.3-1.3-1.1-1.7-.3-.1-.4-.4-.5-.7-.6-.7-1-1.4-1.7-2.1-1.2-1.1-1.1-1.3.3-2.3-1.1-.6-1.8-1.4-1.8-2.4 0-.3-.2-.5-.5-.7-.9-.4-1.3-1-1.8-1.6-.8-.9-1.9-1.5-2.7-2.3-.8-.8-1.4-1.7-2.2-2.5-1.3-1.2-2.2-2.7-2.3-4.4 0-.3-.2-.4-.5-.5-.7 0-.9-.3-.8-.8 0-.1-.1-.2-.1-.3-1.3-1.5-2.6-2.9-3.8-4.4.3.1.7.1.8-.3.1-.3-.2-.4-.5-.5-.3-.1-.6-.2-1-.3-.3-.1-.6-.3-.7-.6-.1-.5-.4-.9-.7-1.3-.2-.3-.2-.7.4-.8.3-.1.6-.2.7-.5.3-.8-.6-1.4-.7-2.2-1.3-.6-1.6-1.8-2.5-2.7-.6-.6-.6-1.4-1.1-2-.3.1-.4.2-.4.4s.2.5-.2.6c-.4.1-.6-.2-.8-.4-.7-.8-1.1-1.8-1.3-2.7-.1-.3-.1-.7.3-.9.6-.4.5-.8 0-1.2-.2-.1-.4-.3-.4-.5-.2-.6-.8-1-1.4-1.4-.6-.3-.2-1.1-.8-1.6-.9-.8-1.2-1.8-1.3-2.8-.1-.7-.3-1.3-1-1.8-.6-.4-.8-1.1-1.5-1.5-.3-.2-.2-.4-.1-.6.4-.7.1-1.4-.5-2-1-1.2-1.3-2.6-2.2-3.8-.1-.1-.1-.4-.1-.5.2-1.6-1.1-2.7-2.5-3.7.8-.7 1-1.5.5-2.3-.4-.6-.7-1.1-.2-1.8.3-.3 0-.6-.2-.8-1-1.3-.8-2.8-.8-4.2 0-1.1-.5-2-1.2-2.8-.3-.4-.7-.7-.7-1.2 0-.2-.1-.3-.6-.3-1 .1-1.6-.2-1.7-1-.1-.6-.1-1.1-.2-1.7-.3-1.5-.7-2.9-.2-4.4.1-.2.1-.5 0-.7-.5-1.4-.9-2.7-1.3-4.1-.4-1.2-.1-2.3-.8-3.5 1.5.2 1.6.3 1.7 1.1.1.4 0 .8.1 1.2 0 .3-.1.7.5.7.5 0 .8-.3.9-.6.1-.2.1-.5 0-.7-.2-.8-.1-1.6-.9-2.2-.3-.2-.3-.6-.3-1 0-1.5-1.3-2.8-1.1-4.3 0-.1-.1-.3-.2-.4-.3-.9-.6-1.9-.3-2.9.1-.5 0-1-.2-1.5-.5-1-.8-2-1-3-.1-.5.1-.7.7-.8.7-.1 1.4-.2 2-.5.4-.2.6-.4.3-.8-.9-1.5-1.1-3-1.1-4.6 0-1.3.1-2.6-.4-3.9-.5-1.3-1.5-2.5-1.4-3.8 0-.1-.1-.2-.2-.3-.4-.5-.5-1-.4-1.5 0-.3.1-.7-.2-1-.5-.7-.4-1.4-.4-2.2-.1-1.5-.5-2.8-1.2-4.2-.7-1.5-2-2.8-2-4.4 0-.2-.1-.4-.3-.5-.4-.4-.6-.8-.7-1.2-.5-1.7-1.3-3.3-1.4-5 0-.6-.1-1.2-.7-1.7-.3-.3-.4-.7-.1-1 .4-.5.3-.9-.2-1.3-.3-.2-.4-.5-.3-.8.3-1.1-.7-2.1-.8-3.2 0-.1-.2-.2-.3-.3-.5-.4-.7-.8-.3-1.3.2-.3 0-.6-.2-.8-.3-.4-.8-.8-1.2-1.1-.7-.5-.7-1 0-1.4.8-.6.7-1.1-.3-1.4-.5-.2-.9-.4-1-.7-.7-1.6-1.7-3.2-1.9-4.9-.2-1.8-1-3.6-.6-5.4 0-.2 0-.5-.2-.6-.7-1-.8-2.1-1-3.1-.1-.9-.4-1.8-.9-2.7-.6-1-.9-2.1-.1-3.2.4-.5.1-1-.3-1.5-1.5-1.9-1.7-4.1-2.7-6.1-.1-.1 0-.2-.1-.3 0-.4-.1-.7-.4-1.1-.6-.7-.4-1.3.3-1.8.2-.2.5-.3.4-.5-.4-.8-.3-1.7-1.2-2.4-1.1-.9-1.6-2-2.1-3.2-.1-.2-.2-.4-.1-.7.2-1.1-.3-2-1.1-2.8-.4-.4-.7-.8-.3-1.3.2-.2.2-.5-.1-.7-1-.8-1.4-1.7-1.2-2.7.1-.8-.4-1.1-1.5-1.2-.5 0-1.1 0-1.5-.4-.9-.8-1.6-1.7-2.1-2.7-.6-1.1-.6-2.3-1.3-3.4-.1-.2-.1-.4.1-.5.2-.1.5-.1.7-.1.4.1.7.3.9.6.2.2.3.4.8.3-.2-.5-.2-1.1-.7-1.5-.7-.7-1.2-1.4-1.4-2.3-.1-.3-.5-.6-.1-.8.4-.2.8.1 1.2.3.3.1.5.4.6.6.2.5.6.8 1 1.1.4.3.9.6 1.1 1.1.2.4.5.6 1.1.7-.1-.9-.3-1.7-.9-2.4-.9-1.1-1.7-2.2-2.8-3.2-1.1-1-2.4-1.9-3.5-2.9-.6-.6-1.4-1-1.3-1.8 0-.2-.2-.4-.5-.5-.4-.1-.4.2-.5.4-.3.5-.8.4-1.2.2-.5-.3-.4-.6.1-.9.8-.5.8-.7.1-1.4-.4-.4-.7-.7-.7-1.2 0-.6-.4-.9-1.1-1-.8-.2-1.2-.6-1.3-1.3 0-.4-.2-.8-.2-1.2v-.6c-1 .3-2.1-.1-2.8-.1-3.2-3.1-6.8-5.6-10.7-7.7-6.4-1-12.7-3-17.9-5.9l-.2.2c-.9 1.3-3.9-.9-4.6-3.4-.5-.4-1-.8-1.4-1.2-.3-.2-.7-.3-1-.5-1.6-.4-3.1-1-4.3-2-.3.1-.7.1-1.2-.1-1.2-.4-2.3-.5-3.4-.2-.7.2-1.4 0-1.9-.4-.6-.4-1.1-.7-1.6.1-.1.2-.5.2-.8.3-2.1.1-4.2-.3-6.1-.9-.6-.2-1.1-.3-1.6 0-.6.3-1.2.2-1.5-.3-.7-1-1.8-1.1-3-.9-.7.1-1.3.1-2 .1-1.4-.1-2.9.1-4.2-.4-.2-.1-.4 0-.6 0-1.5.1-3 .2-4.5.1-1.3-.1-2.7 0-4-.2-1.2-.1-2.5 0-3.4-.8-.3-.2-.7-.1-.9.1-.5.3-1.2.4-1.8.3-2-.2-3.7.4-5.4.9-.5.1-.9.3-1.3.5-.2.1-.3.2-.2.4.1.2.3.2.5.2.5-.1 1-.2 1.6-.3.8-.1 1.2.6 1.9.5.7-.1 1.3-.5 2.1-.4h.1c1.4-.1 2.6.4 4 .7-1.6.3-3.2.1-4.6.8-.1.1-.4 0-.6 0-2.2-.1-4.3.3-6.4.5-2.8.3-5.6.8-8.4 1.2-2.4.3-4.9.4-7.3.8-1.2.2-2.3.7-3.5.9-3.4.6-6.8 1.2-10.1 2-1 .2-1.7.8-2.6 1-1.9.4-3.7.8-5.3 1.5-1.1.4-2.4.6-3.3 1.1-1 .6-2.1.9-3 1.5-.8.4-.8.4 0 .9-.2.3-.6.3-.9.4-1.4.6-2.9 1-3.8 2.2-.4.5-1.1.7-1.8.9-1.5.3-2.5 1.3-4.1 1.5-.2 0-.3.2-.4.3-.3.5-.8.7-1.3 1-1.5.9-2.6 2.1-3.8 3.2-.1.1-.2.2-.2.3-.1.2-.2.5.1.6.2.1.5 0 .7-.1.5-.4.9-.8 1.5-1.1 1.6-1 2.6-2.4 4.7-3 1.4-1.3 3.6-1.8 5.4-2.7.5-.2 1-.3 1.5-.4.1-.3.2-.8.9-.7.4 0 1.3 1.2 1.1 1.4-.5.7-.8 1.5-1.7 1.9-.6.3-1 .6-1.4 1-.5.5-1.1 1-1.7 1.3-.2.1-.5.1-.7 0-.2-.1-.1-.3 0-.4.2-.2.5-.4.1-.7-.3-.2-.7-.1-1 0-.3.1-.5.3-.8.5-1.4.8-2.4 2-3.8 2.8-1.5.9-2.7 2.1-4.1 3.2-.7.5-.9 1.3-1.6 1.9-1.5 1.3-3 2.6-4.1 4.2-.6.8-1.4 1.4-2.6 1.7-.2.1-.5.1-.6.3-.5 1.2-2 2-2.8 3.1-.2.2-.4.4-.7.5-.2.1-.5.1-.7 0-.2-.2-.1-.3 0-.5.3-.4.7-.7.7-1.1 0-.2.2-.6-.3-.7-.3-.1-.5.2-.6.4-.2.6-.7 1-1.2 1.4-.5.4-.9.9-1.1 1.4-.2.4-.5.9-1.2 1 .5-1.6.5-1.6.1-2.2-1.7 1-2.3 2.4-3 3.8-.7 1.4-1.1 2.9-1.9 4.3-.8 1.3-1.9 2.5-2.6 3.8-.3.6-.7 1.2-.5 1.9.3.9.1 1.7-.8 2.3-.4.3-.6.6-.6 1 0 .9 0 1.9.2 2.8.1.5.1 1-.1 1.5-.1.2-.3.4-.2.6.4.8 0 1.5-.2 2.2-.5 1.7-1.9 3.2-1.7 5v.1c-.8 1-.8 2.1-1.3 3.2-.5.9-.9 1.8-.8 2.8 0 .2-.1.5-.3.7-1 1.7-1 3.5-.8 5.2.2 1.3.1 2.6-.7 3.8-.3.5-.4 1.1-.2 1.6.1.4.1.7-.3 1-1 .9-1.3 2.1-1.5 3.2 0 .3.1.5-.1.8-1 1-1.3 2.1-1.7 3.3-.3.9-.4 1.8.1 2.7.2.4.4.8-.1 1.1-.6.4-.7.9-.7 1.4 0 .3 0 .5-.3.7-.8.7-.7 1.4-.3 2.2.3.5.3.9-.3 1.3-.2.2-.5.3-.3.6.4.6.1 1.1-.4 1.5-.2.2-.3.4-.2.6.6 1.3-.5 2.4-1 3.5-.3.7-.8 1.4-1.3 2.1-.8 1.1-.6 1.5.5 2.2-1.6.1-1.2.9-1.1 1.6.1.6.2 1.1.5 1.6.2.3.2.6.2 1 0 .6-.9.8-1 1.3 0 .5.7 1 .4 1.6-.1.3-.1.6-.2.9-.2.7-.5 1.4-.6 2.1-.2 1.3-.4 2.6-1.4 3.7-.1.2-.1.4-.1.6 0 .8-.1 1.6.1 2.3.2.5.2 1.1-.1 1.5-.3.5-.2.8 0 1.3.2.4.4.8.5 1.2.3 1.2.7 2.4.3 3.5-.5 1.6-.7 3.2-.8 4.9 0 .6.3 1.1.1 1.7-.4 1.2.3 2.5-.6 3.7-.2.3 0 .6.1.9.6 1.4.5 2.8.4 4.2-.1 2.3-.4 4.7.1 7v.7c-.3.9-.2 1.7 0 2.6.2.9.3 1.7.1 2.6-.2 1.2.1 2.5-.1 3.7-.1.8-.2 1.5.2 2.2.4.7.3 1.6 0 2.2-.6 1.1-.4 2.2-.3 3.3.1 1.3.2 2.6-.3 3.9-.1.3-.1.6 0 .9.3.7.2 1.4.1 2.1-.1.9-.2 1.7-.2 2.6 0 .6-.1 1.2-.3 1.8-.2.8-.3 1.5-.4 2.3-.1 2.5-.7 5-1.1 7.4-.2 1.1-1.1 2.3-.4 3.5.1.1 0 .3 0 .4-.2.7-.2 1.4-.5 2.1-.5.9-.8 1.8-1.2 2.8-.4 1-.8 2.1-1 3.1-.1.4-.3.8 0 1.2.7 1.1.3 2.2-.4 3.2-.5.7-.6 1.5-.2 2.2.6 1.2.3 2.4-.3 3.5-.6 1.3-1.5 2.5-1.2 4 .1.4 0 .8-.3 1.1-.8.8-1 1.8-1.6 2.6-.3.5-.4 1-.3 1.5.1 1.3.6 2.6-.2 3.8-.2.4-.3.9-.2 1.3.2 1.3-.2 2.4-.9 3.6-.3.5-.5 1-.1 1.5.2.4.2.7 0 1.1-.2.5-.3 1-.2 1.5.1.2.1.5-.1.7-1.1 1.2-.9 2.5-.9 3.9-.1 1.8.1 3.7-.8 5.5-1 2-1 4.2-1.4 6.2-.4 1.9-.6 3.8-1 5.8-.2.8-.6 1.6-.6 2.4-.1 1.7-.8 3.4-1.8 4.9-.3.5-.4.9-.1 1.4 1 1.4.8 2.9 0 4.3-.3.5-.5 1.1-.5 1.7 0 .6-.1 1.2-.3 1.8-.6 1.7-1 3.5-1.4 5.2-.3 1.3-1.1 2.7-.5 4.1.1.2 0 .4-.1.5-.4.8-.5 1.7-.9 2.6-.4.8-.2 1.8-.7 2.6-.1.1 0 .4 0 .6.2 1.6-.7 3.1-.3 4.7v.1c-.5.9-.3 1.9-.2 2.9.1.4-.1.8-.1 1.1-.1.9-.6 1.8-.2 2.7.3.9.3 1.8.7 2.7-.7.8-.2 1.9-.6 2.7-.9 1.9-.3 3.9-.9 5.8-.1.4.1.8.2 1.2.1.4.4.9.4 1.3 0 1.3-.6 2.6.4 3.8.1.1.1.3 0 .4-.4 1.3.8 2.3 1 3.4 0 .3.4.4.8.4.5 0 .4-.3.4-.6 0-1.2-.1-2.4-.4-3.6-.1-.4 0-.7.5-.8.4-.1.8.1 1 .3.6.6 1.2 1.3 1 2.1-.2.6.1 1.1.5 1.7.9 1.5 2 2.9 1.8 4.7 0 .4.2.7.4 1 .3.4.8.4 1 0 .5-.7.4-1.4-.1-2.1-.4-.5-1-1-.8-1.6.3-1.3 0-2.4-.7-3.6-.2-.4-.3-.9-.1-1.3.2-.5.2-1.1 0-1.5-.9-1.6-.5-3.2-.4-4.9 0-1.4.2-2.7-.8-3.9-.3-.3-.3-.7-.2-1.1.1-.5 0-1 .1-1.4.2-.9-.1-1.9 1.1-2.5.4-.2.1-.5-.1-.8-.4-.7.1-1.4 0-2.1 1-.8.6-1.8.7-2.7.1-.5-.1-1-.6-1.4-.6-.4-.5-.8 0-1.1.3-.2.7-.5.2-.8-.1-.1-.1-.2 0-.3.6-.4.3-.8.2-1.2-.2-.6-.1-1.2.2-1.8.5-.9 1.2-1.9.4-3-.3-.4.1-.6.5-.8.9-.5 1-1.3.8-1.9-.5-1.2-.3-2.3.5-3.4.7-1 .6-1.1 2.2-1 .1 0 .1-.1.2-.1.1.2-.1.1-.2.1.2.2.4.4.8.4.9 0 1.4.5 2 1 .8.7 1.1 1.5 1.7 2.2 1.1 1.3.9 3-.4 4.1-.3.3-.7.7-1.2.5-.5-.2-.6-.7-.8-1-.1-.2.1-.3.2-.4.2-.2 0-.3-.2-.4-.5-.2-1-.2-1.4 0-.7.5-1.3.3-2-.1-.5-.3-1-.1-1.1.2-.2.4.4.4.7.5 1.7.4 2.1 1.4.9 2.5.9.1 1.1.6.9 1.2-.4 1.1-.1 2.2-.3 3.3-.1.3 0 .6-.2.9-.6.7-.3 1.2.5 1.7.6.4.8.8.4 1.4-.4.7-.3 1.5-.2 2.2.1.4.3.8 1 1.1.4-.7.8-1.4.7-2.2 0-.8 0-1.7.7-2.5.5-.5 1.1-.6 1.5 0 .3.5.8.9 1.4 1.3.3.2.4.4 0 .7-.9.7-.8.7-.3 1.6.4.7.8 1.4.4 2.2-.4.7-.2 1.1.4 1.6 1.1.9 1.6 1.9.8 3 0 .1-.1.2-.1.2.5.9-.2 1.7-.5 2.5-.1.3 0 .5.2.7 1 1 1.8 2 1 3.3-.1.2-.1.4-.1.5 0 .4.3.7.8.6 1.2-.1 1.5.4 1.8 1.1.5 1.5 1.1 3 1.2 4.5 0 .2.1.4.2.5.7 1.2.4 2.5 1.1 3.7.1.1 0 .2 0 .3-.1.7-.3.8-1.1.5-.3-.1-.7-.2-1 0-.3.2-.4.5-.2.7.6.7.1 1.2-.4 1.7-.1.1-.4.3-.5.4-.3.3-.1 1.3.4 1.5.7.3.8-.2 1-.5.3-.4.8-.4 1.2 0 .5.6.4 1.2.4 1.8 0 .2-.2.3-.4.3-1.3.1-1.1.8-1.1 1.4-.1.9 0 1.8.6 2.6.2.3.2.6.3.9.1.3.1.5-.4.6-.5.1-.5.5-.2.7.5.4.5.8.4 1.2l-.3 2.1c-.2.9-.1 1.6.6 2.3.4.3.3.5-.2.8-1.1.6-1.2 1.1-.7 2 .1.2.2.4-.1.6-.3.2-.5.1-.8 0-.7-.3-1.4-.6-1.8-1.1-.2-.2-.3-.5-.7-.5-1.2 0-1.3-.7-1.5-1.3-.1-.3-.2-.7-.4-1-.3-.4-.4-.8-.1-1.3.1-.2.3-.4 0-.6-.7-.6-.9-1.4-1.7-2-1-.7-1.4-1.6-1.5-2.6-.1-1-.9-1.9-1.4-2.8-.1-.2-.5-.5-.8-.6-.6-.3-1.1-.2-1.2.4-.1.8 0 1.6.7 2.2 1.1.9 1.6 2 2.2 3.2.3.6 1.2 1.2.6 2-.1.1.1.3.3.3.8.2.8.7.8 1.2v1.3c0 .3 0 .6.2.7 1.6 1 2.2 2.6 3.7 3.7.2.2.4.4.3.6-.5.9.2 1.8-.1 2.8-.2.5 0 .9.6 1.2l1.5.6c.3-.4 0-.6-.2-.9-.2-.3-.3-.6-.2-1 0-.3.3-.5.6-.3.7.4 1.6.8 1.7 1.6.1.3.1.5.3.7.9.8 1.3 1.7 1.5 2.7.1.4.8.8 0 1.1-.7.2-.6-.4-.9-.7-.3-.3-.6-.6-1.1-.3-.4.2-.4.6-.2.9.3.4.8.6.9 1 .1.5.5.8 1 1.1.8.5.8.5 0 1.2-.2.2-.2.3-.2.5-.1.2-.2.5-.5.5-1.1.1-1.9.9-3.2.6-.5-.1-1.1 0-1.2.6-.1.5.4.7.9.9.7.2 1.4.4 2.1.5.7.2 1.1.5 1.5 1 .9 1.4 1.3 2.7.4 4.2-.2.4 0 .6.6.5.7-.1 1.3-.4 1.9-.5 1.7-.3 3.3.2 4.9.5.2 0 .4.2.5.4.5.5 1.1.9 1.9.9.5 0 .9.3 1.1.7.1.2.3.5.5.7.5.7.6.7-.1 1.3.2.3.6.3.8.5l.9.6c.4.4.8.5 1.5.4 1-.2 2.3.4 2.6 1.1.2.6.4 1.3.5 1.9-1.1.1-2 .2-2.7-.6-.1-.1-.4-.1-.6 0-.3.1-.3.3-.3.5.1.2.1.4.3.5.7.7.5 1.6.5 2.4 0 .5-.4.7-.8.6-1-.1-2 .1-2.9-.1-.6-.1-1.3-.1-1.9.1-1.2.4-2.1 0-2.9-.6-.7-.5-1.4-1.1-2-1.6-.3-.2-.5-.4-.9-.6-.6-.3-.9 0-1.3.3s-.5.5-.3.9c.4.6 1.1 1 1.9 1.2.5.2 1.2.3 1.5.7.5.6 1.1.9 1.9.9.7 0 1.1.5 1.3.9.2.3 0 .5-.4.5-.7 0-1.5-.1-2.1-.3-1.2-.5-2.5-1-3.8-1.6-.3-.1-.6-.3-1 0-.3.2-.2.5-.1.7.2.4.5.8 1 1.1l4.5 2.1c.6.3.9.6.8 1.1-.1.4-1.4 1.1-2 1.1-.9 0-1.3-.1-1.6-1-.2-.6-.6-.9-1.4-.9-.6 0-1.1-.2-1.5.3-.2.3-.7.3-1.1.3-1.7 0-3.2-.4-4.2-1.5-.3-.3-.5-.6-.8-.8-.4-.3-.8-.5-1.3-.1-.4.3-.4.6-.1.9.9.8 1.2 2 2.4 2.7.5.3.7.6-.2.8-.5.1-.2.5.1.6.8.5 1.6 1 2.6 1.2.6.1 1.2.2 1.6.6.6.7 1.5 1 2.5 1.1.2 0 .5.1.6.3.3.1.7.2 1 .3 1.1.1 1.8.5 2.2 1.2.2.1.3.2.5.3.7.2 1 .6 1.1 1.1.3 1 .5 1 1.8 1 .5 0 1 0 1.2.4.1.2.2.4-.1.6-.7.6-.8 2-.2 2.6.2.2.5.5.8.3.8-.3 1.2.1 1.7.4.6.3 1.1.8 1.7 1 .4.2.7.5.4.7-.4.4-.5.8-.1 1.3.2.2-.3.4-.5.3-1-.6-2.1-.5-3.2-.7-.7-.1-1.1-.4-1.5-.8-.2-.2-.3-.5-.8-.7-.6.6-.4 1.3-.7 2-.1.3.4.5.8.5 1.3.2 2.6.5 3.9.4.9-.1 1.9 0 2.8.3 1.1.3 2.2.3 3.3.1 1.7-.3 3.4-.4 5 .2.7.3 1.5.1 2.1-.2 1.3-.6 2.7-.7 4.1-.8 1.6-.1 3.2-.4 4.7-1 1.3-.5 2.7-1.2 4.3-.8.4.1.8 0 1.3-.2 1.2-.5 2.2-.3 3.2.4.8.6 1.2.6 2 .1.7-.5 1.5-.5 2.3-.5.8 0 1.1.3 1 .9-.2.9.1 1 1.2.8.3-.1.6-.1.8-.2.5-.1.9 0 1.1.3.3.5.6.9.7 1.5 0 .5.4.6 1 .6 1.2-.1 2.4-.1 2.6-1.3 0-.2.3-.4.6-.4 1-.1 2 .1 2.9.1.2 0 .3.2.3.3 0 .5.2.9-.1 1.4-.4.6-.3 1.3-.5 2 0 .1 0 .3.1.4 1.2 1 1 2.4 1.9 3.5.1.1.2.3.3.4.3.4.7.3 1.1.1.5-.3.4-.8.8-1.2 0-.2.1-.5.1-.7-.8-.7-.8-.9-.1-1.3.8-.5 1.1-1 .6-1.7-.2-.3 0-.6.1-.9.3-.9.5-1.9 1.5-2.6.5-.3.6-.8.7-1.2.1-.4.5-.5 1-.4.5.1.6.3.5.7-.1.1-.2.3-.1.4.3.8 0 1.1-1 1.4-.9.3-1 .7-.5 1.3l.3.3c1 1.1 1.8 1.2 2.9.2.4-.3.8-.5 1.4-.6 1.4-.2 1.8-.9 1.3-1.9-.2-.3-.3-.7-.4-1.1-.1-.6.2-.9 1.1-1 .5-.1.8-.2.8-.6 0-.6.5-.8 1.2-1.1.8-.3 1.6-.5 2.5-.5 1 0 1.1.1.7.8-.1.1-.2.3-.3.4-.3.6 0 1.3.7 1.5.5.1 1.3-.3 1.5-.8.1-.3-.2-.7.4-.8.7-.2 1.2-.7 2-.5.6.2 1-.1 1.4-.4.9-.6 1.9-.9 3.1-.8.2-.1.4-.2.7-.2 0-1 .4-1.4 2-1.6.3-.2.7-.4 1-.6.2-.9 1.1-1.2 2.1-1.5-.1-.9.7-1.3 1.5-1.6.7-.3 1.1-.7 1.6-1.1.6-.5 1.3-1 2-1.4 1-.7 1.8-1.4 2-2.5.1-.6.7-1.2 1.1-1.8.8-1 1.5-2 2.1-3 .1-.2.2-.4.2-.5-.1-1.2.9-2.2 1.5-3.2.1-.1.3-.1.4-.1l.3-.6c-.9-.6-.8-1.4-.8-2.1 0-.6.2-1.3.6-1.7.7-.7.6-1.5.4-2.2-.2-1.1-.1-2.1.5-3.1.2-.4.3-.8.2-1.2-.7-1.5-.4-3.1-.6-4.6-.1-.7-.4-1.3-.4-2 0-.2-.2-.3-.5-.3-.3.1-.5.3-.4.4.9 1.2-.2 2.2-.5 3.3-.3 1-.5 2-.7 3.1-.1.4-.1.9-.2 1.3-.1.6-.7 1.2-.4 1.9.1.1-.1.4-.2.5-.9.6-.7 1.3-.5 2 .1.4.2.7-.5.8-.5 0-.6.3-.9.5-.4.5-.5 1-.8 1.6.9 0 1.5-.2 2.3-.3.7-.1 1.1.2 1 .8-.1.5-.5.8-1.1 1-.8.2-1.2.7-1.3 1.4-.1.5-.3 1-.3 1.5-.1.8-.4 1.4-1.2 1.9-.2.1-.4.3-.5.4-.1 1-1.1 1.7-1.8 2.5-.3.3-.5.6-.1.9.5.4.2.7-.1 1-.4.3-.8.7-1.2 1-.7.4-1.3.8-1.4 1.6-.1.6-.9 1-1.9 1.1-.7 0-1.5 0-2.2.3-.6.2-.9-.1-1-.5-.1-.5.1-.9.2-1.3.2-.4-.2-.5-.7-.5-.5.1-1.1.2-1.3.5-.6.9-1.7 1.5-1.6 2.7 0 .3 0 .7-.1 1-.1.3-.2.5-.6.6-.2 0-.4 0-.5-.1-.1-.1-.1-.2 0-.3.5-.6 1-1.1-.2-1.7-.4-.2.1-.6.4-.7 1-.5 1.3-1.1.8-1.9-.2-.2 0-.4.2-.6.9-.8 1.3-1.7 1.3-2.8 0-.9 1.1-1.5 1.3-2.3.1-.4.7-.1 1-.1 1.3.1 2-.5 1.9-1.5-.2-1.1 1-1.9 2.4-1.5.5.1.9.2 1.3-.2.5-.5.3-.9-.6-1.1h-.3c-.3 0-.5-.1-.6-.3-.2-.9-2-1-1.7-2 .2-.6-.1-1-.7-1.4-.5-.4-.7-.9-.7-1.4.1-.3 0-.7-.1-1-.3-.7-.4-1.3.3-2 .5-.6-.1-1-1.6-1 .7.9 0 1.8.1 2.7.1.8-.1 1.6.2 2.4.2.5 0 .7-.8.5-1.7-.4-2.1-.1-1.9 1.2 0 .3.3.5.1.8-.4.5-.1 1 .2 1.5.4.6.3 1.2-.2 1.7-.6.6-.8 1.5-2 1.7-.1 0-.3.1-.3.2-.4.9-1.4 1.3-2.2 1.9-.4.4-.8.7-1.6.8-.6 0-.7.4-1 .7-.6.7-.9.7-1.8.3-.4-.2-.8-.3-1.2-.4-.7-.2-1.2-.4-1.5-1-.5-.7-.6-.7.4-1 .4-.1.6-.3.3-.6-.3-.4-.3-.7.2-1.1.5-.3.5-.8.1-1.2-.3-.3-.2-.5-.1-.8.3-1.3 1.7-2.1 2.3-3.3.4-.8 1.2-1.5.6-2.5-.2-.4.2-.8.3-1.2.2-1.2 0-2.4.8-3.5.3-.4 0-.6-.6-.7h-1.2c-1.5-.1-2.1-1-1.1-1.9.6-.6.8-1.1.2-1.8-.4-.5-.1-1.2.1-1.7.1-.3.4-.3.7-.2.7.2 1.3.6 1.3 1.2.1.8.7 1.4 1 2.1.1.2.4.4.9.5.4-.5.3-1.1 0-1.6-.4-.7-.4-.7.8-1 0-.8.7-1.4.8-2.1.1-.3.6-.2 1-.2.5-.4 1.1-.8.5-1.4-.2-.2-.1-.4-.1-.7.1-.7-.1-1.2-.7-1.8-.6-.5-1-1.1-.4-1.8.2-.2.2-.6.2-.9-.3-1 .1-2.1-.5-3.1-.2-.3 0-.6.2-.9.5-.6.6-1.2.4-1.9-.1-.5 0-1 0-1.6-.2-.4-.1-.9-.1-1.3-.7-1-.8-2-.2-3 .2-.4.3-.7-.1-1-.6-.5-.4-1.1-.2-1.6.1-.3.2-.8.7-.9.6-.1.5.4.8.7.2.2.4.4.8.5.5.1.5-.3.6-.5.2-.3.5-.3.8-.1.5.4 1 .5 1.7.6.6.1.8.4.7.8-.1.4-.4.5-.9.5-.7 0-1.5.1-2-.6-.3.7.1 1.1.5 1.3 1.4 1 1.5 2.2 1.6 3.5 0 .7.2 1.2.9 1.6.5.2.5.6.4 1-.2.5 0 .9.5 1.3.4.3.6.7.3 1-.6.6-.2 1.3-.2 1.9 0 .1.2.3.2.4-.7 1.7.7 3.4.2 5.2-.1.3-.1.6-.4.9-.4.4-.9.7-1.7.4.2 1 .3 1 1.3.9.6 0 .8.2 1 .5.2.3 0 .5-.3.7-.4.3-.7 0-1-.2-.2-.1-.5-.2-.7 0-.3.1-.1.3 0 .5.5.6 1 1.3 1.7 1.8.2.1.4.3.6.2.3-.1.4-.2.3-.4-.1-.9.6-1.7.2-2.6.7-1.3-.1-2.7.7-4 .1-.2 0-.5 0-.8-.1-.5-.1-1 .2-1.5.3-.6.3-1.3 0-2-.5-.9-.4-1.2.8-1.9-.1-.1-.1-.3-.2-.4-.5-.1-.6-.4-.7-.7-.1-.8-.3-1.6-.2-2.4 0-.1-.1-.2-.1-.4-.5-.3-.6-.7-.3-1.2v-.1c.6-1.2-.1-2.4.1-3.5.2-.8.1-1.7.1-2.5-.3-.3-.4-.7-.4-1.1-.1-.7-.4-1.3-1.4-1.6-2.4-.8-3.2-2.3-3.4-4.1-.1-1-.7-1.9-.7-3 0-.3-.2-.5-.6-.6-.8-.2-.8-.7-.9-1.3-.3-1.5.3-2.9.2-4.3 0-.2.1-.4.3-.5.2-.3.5-.3.8 0 .4.3.6.7.5 1.1-.1.3-.1.5-.1.8 0 .2.1.5.4.5.3 0 .4-.2.5-.3.3-.5.5-1 .3-1.6-.4-1.3-.6-2.5-.2-3.8 1.7.4 1.7.4 1.6-.8 0-.2-.1-.4 0-.6.1-.3.1-.6.5-.7.5-.1.5.3.7.5.1.2.3.3.5.4 1 0 1.2.6 1.6 1.2.4.6.6 1.1.1 1.7-.5.7-.3 1.3.3 1.9.5.5.6 1 .6 1.5-.1.4 0 .8.1 1.1.1.4.2.6-.3.9-.4.2-.3.4-.2.7.5.7.7 1.5 1.5 2 .8.6 1.4 1.3 2.2 1.8.8.4.9 1.2 1.2 1.8.5 1.1 1.5 2.1 1.3 3.3 0 .1.1.3.2.4.8.6.6 1.4.8 2.1.1.4 0 .8-.3 1-.8.6-.6 1.3-.3 2 .3.6.5 1.2.3 1.9s-.2 1.5.2 2.2c.2.4.4.8-.1 1.1v.4c.9.8 1.4 1.7 1.4 2.7 0 .6 0 1.1.1 1.7 0 .4.2.6.8.6 1.2 0 1.1.1 1.1 1 0 1.5-.2 3 .5 4.4 0 .1.1.2.1.3.2.5.6.5 1.2.5s.6-.4.6-.7c-.2-.9-.3-1.8-.7-2.6-.3-.7-.3-1.4-.2-2.2 0-1.2.3-2.5-.3-3.8-.2-.4-.2-.9.1-1.2 1.1-1 .3-1.9-.2-2.8-.3-.5-.4-.9-.5-1.4-.1-.3-.1-.6.4-.8.6-.2.5-.6.1-.8-.9-.6-1-1.3-1.4-2.1-.5-1-1.3-1.9-1.3-3 0-.3-.4-.6.1-1 .3-.2.3-.5 0-.7-.4-.3-.5-.7-.6-1.1-.1-.6-.4-1.1-1.3-1.2-.4-.1-.6-.4-.7-.7-.4-.9-.8-1.8-.7-2.7.1-.7.1-1.5-.4-2.2-.2-.2-.2-.5-.1-.8.1-.5.1-.9-.2-1.3-.3-.4-.1-.7-.1-1.1 0-.4.1-.9-.4-1.3-.3-.2-.3-.4-.2-.7.2-.7-.1-1.3-.5-1.9-.4-.8-.7-1.6-.9-2.5-.1-.8-.5-1.6-.3-2.4.1-.3-.2-.7-.5-.9-.9-.8-1.2-1.9-1.7-2.8-.2-.3-.3-.6.1-.8.4-.3.7 0 1 .2.7.5 1.5.9 1.1 1.8-.2.4.2.7.5 1 1.2 1 1.5 2.1 1.2 3.4-.1.6 1.1 1.6 1.8 1.6.5 0 .6-.3.7-.6.1-.8-.4-1.5-.6-2.3-.1-.5-.3-.9-.2-1.4.1-.4-.1-.8-.6-1.1-.3-.1-.4-.4-.2-.6.5-.3.6-.6.4-1-.1-.2.3-.4.6-.3.4.2.7.4 1 .7.3.3.6.7.8 1.1.1.3.3.5.7.4.5-.1.2-.4.2-.7 0-.7 0-1.3-.1-2-.1-.8-.5-1.6-.9-2.5-.1-.2-.5-.3-.7-.3-.8-.2-1.2-.5-1.3-1.2 0-.5-.4-1-.6-1.5-.1-.2-.3-.5-.3-.7 0-2.3-1.9-4-3.5-5.7-.6-.6-1-1.2-1.2-2-.2-1.1-1-2-.9-3.1 0-.3-.2-.6.1-.8.8-.5.4-1.1.1-1.6-.2-.5-.1-1-.2-1.5-.1-.6.4-1 1.2-.9 1.2.2 2.6.3 2.9 1.6 0 .1.2.3.3.4.1.1.3.1.4.1.1 0 .2-.2.2-.3 0-.5-.4-.9-.7-1.2-.9-.8-1.7-1.7-2.2-2.7-.1-.1-.2-.3-.3-.4-1.6-.6-1.1-1.8-1.5-2.7v-.3c1.1-.9.3-1.8.1-2.7v-.1c-.5-1.2-.3-1.5 1.4-2-.8-.6-.8-1.3-.8-2 0-.3 0-.5-.2-.8-.6-.9-.4-1.8.1-2.7.1-.1.2-.3.1-.4-.5-.8-.4-1.7-.9-2.4-.4-.6-.5-1.2-.6-1.9-.3-1.9-.4-3.9-.5-5.8 0-1.1-.7-2.1-.5-3.2.1-.4.1-.9.1-1.3.1-.6 0-1.3-.5-1.8-.9-1.1-1.4-2.3-1.8-3.5-.2-.6-.4-1.2.6-1.6.4-.2.1-.5 0-.7-.3-.6-.8-1.2-1.1-1.8-.3-.8-.8-1.5-.7-2.4.1-.3-.2-.7-.5-1-.8-1-1-2.1-1.4-3.1-.1-.3-.2-.7-.4-.9-1.1-.8-1.2-2-2-2.8-1-1.1-1.5-2.3-2.4-3.4-.3-.4-.5-.7-.5-1.2 0-.8-.3-1.5-.9-2.1-.6-.7-1.4-1.4-1.7-2.2-.1-.2-.4-.4-.6-.5-2-.9-2.9-2.5-3.9-4-.2-.3-.2-.5.4-.4.2 0 .4 0 .4-.2s-.1-.3-.3-.4c-2.1-.4-2.6-1.8-3.7-2.9-.6-.6-1.2-1.3-1.7-1.9-.1-.1-.2-.3-.1-.4.2-.2.5 0 .6.1.4.3.8.7 1.2 1 .2.1.4.2.6.1.3-.1.2-.4 0-.5-1.2-.8-1.2-2-1.5-3.1-.2-.7-.8-1.3-1.4-1.8-.6-.5-1.1-1-.8-1.8.1-.3-.1-.6-.4-.8-.4-.2-.7-.4-.9-.7-.7-.8-.7-1 .5-1.4.5-.2.5-.4.5-.7.1-.6-.1-1.4.8-1.8.3-.1-.2-.5.1-.8 1 .1 2 .4 3 0 .4-.1.8 0 1 .3.6.8 1.6 1.2 2.6 1.6.5.2 1.1.4 1.5.7.8.5 1.6.8 2.7.7.8-.1 1.4.3 1.8.8 1 .9 1.2 1 2.4.2.2-.1.5-.2.8-.2.9.2 2.3 1.4 2.3 2.1.1.7-.5 1.1-1.4 1.3.1.4.5.7 1 .7 1 .1 1.9.1 2.9.3.3.1.4-.2.4-.4-.1-.7 0-.8.8-.7 1.1.1 1.7-.1 2.1-.8.4-.6.9-.7 1.7-.3.2.1.4.3.7.5.6.4.8.4 1.2-.2.7-1 1.2-1.1 2.3-.3.8.6 1.6.6 2.5.6.3 0 .6 0 .8-.2.1 0 .2-.1.3-.1.9-.5 2 .1 2.9-.2.9-.2 1.7-.7 2.6-.2.4.2.8.1 1.1-.2.5-.5 1.1-.7 1.8-.8.2 0 .4-.1.5-.2.5-.6 1.4-.7 2.2-.9 1-.2 1.2-.1 1.5.7.3.8.6 1.1 1.7 1.1.7 0 1.4.2 2.2.1.6-.1 1.2.1 1.5.3.6.4 1.1.2 1.7.1l.1-.1c0-.4.4-.4.7-.4 1.8.1 3.6-.1 5.2-.6 1.1-.3 2.1-.5 3.1.1.4.2.9.1 1.3.1.9-.1 1.6.1 2.3.5.6-.5 1.2-.7 2.1-.7.6 0 1.1-.3 1.6-.5s.9-.3 1.2.2c.2.4.6.5 1.1.3.4-.1.7-.2 1.1 0 .9.5 1.8.3 2.6 0 .3-.1.5-.5.9-.2.3.2.1.5-.1.7-.1.1-.1.2 0 .4.4.2 1 0 1.5 0 .9.1.9-.1.9-.8 0-.4-.3-.8-.6-1.1-.3-.4-.3-.7.4-.7.8 0 1.3-.3 1.8-.7 1-.8 2.2-1.3 3.6-1.7.1 0 .2-.1.3-.1 1.5.6 2.7-.6 4.1-.4.5 0 .7-.2.9-.6.4-1 1.1-1.8 2.5-2.1.2 0 .4-.1.5-.2.6-.7 1.4-.9 2.5-1 .3 0 .7-.1.8-.3.6-.9 1.9-1.4 2.5-2.2.9-1.2 2.8-1.5 4.3-.8 1.3.6 2 .4 2-.8 0-.7.3-1.4-.7-1.9-.2-.1-.3-.4-.3-.6.1-.9.2-1.7.3-2.6 0-.5.1-1-.1-1.4-.4-.7-.4-1.4-.5-2.1 0-.2-.1-.5.3-.5.3 0 .6.1.7.3.2.3.3.5.5.9.8-.5 1.8-.2 2.8-.3.4-.1.8.3.9.7.2.9.3 1.8-.5 2.6-.4.4-.9.9.3 1.1.3.1.3.4.3.6 0 .6-.1 1.1-.2 1.7-.1.4 0 .7.7.8.5 0 .8 0 .8-.4-.1-.7.5-1.2.9-1.7.2-.2.5-.4.9-.2.4.1.4.4.3.7-.5 1.7-.5 3.6-1.4 5.2.2 1-.4 1.9.1 2.9.2.3.2.7.1 1.1-.2.6-.2 1.2.3 1.7.1.1.2.3.1.4-.5.7-.1 1.2.3 1.8.2.3.2.7.2 1 0 .7 0 1.5.2 2.2.2.6-.2 1.1-.7 1.5-.6.5-.5.6.3.8.6.1.7.3.8.8.3 1.1-.1 2.2-.1 3.3 0 .2-.1.4-.3.5-.4.3-.5.6 0 1 .2.2.3.4.2.6-.1.8-.1 1.7-.4 2.5-.6 1.6-.5 3.2-.4 4.9.1.9-.1 1.7-.2 2.6 0 .2-.2.4-.5.5-.4 0-.5-.2-.6-.4-.1-.2-.1-.4-.3-.6-.1-.1-.3-.2-.5-.1s-.3.2-.3.4c0 .1.1.3.2.4.6 1.2 1.1 2.5 1.5 3.7 0 .1 0 .2.1.2 1 1 .5 2 .1 3-.1.3-.3.6-.2.9.2.9.2 1.8 0 2.8 0 .1.1.2.2.3h.3c.3-.1.4-.6.9-.4.5.2.6.6.5 1-.1.3-.1.7-.4 1-.7.7-.9 1.5-.8 2.3 0 .3-.1.7-.3 1-.2.3-.4.7-.2 1 .6.7.2 1.5.1 2.2-.2.9-.3 1.7-.1 2.6.3 1.5.2 3.1-.5 4.5-.6 1.3-.7 2.6-.7 4 0 .2 0 .4.4.5.9-.9 1.9-1.8 2.2-3 .2-.8.3-1.5 1-2.2.2-.2.4-.5.3-.8-.3-1.7.9-2.9 2.3-4.1 1.3-1 2.6-2.1 4.5-2.8.4.9.2 1.8-.2 2.6s-.5 1.6-.3 2.5c.2 1-.1 1.9-.4 2.9-.6 1.7-1.4 3.4-1.9 5.1-.3.8-.7 1.6-1 2.5-.4 1.3-.7 2.7-1.4 4l-1.8 3.3c-.2.3-.3.6-.6.7-.7.4-1 1-1.1 1.6 0 .4-.2.7-.7.9-.6.2-.8.7-1 1.1-.4 1-.9 2.1-1.6 3 0 .1-.1.1-.1.2.1 1.2-.8 2.2-1 3.3-.3 1.8-.9 3.7-2 5.3-.3.5-.1 1.1-.4 1.6v.3c-.1 1.6.3 3.1-.3 4.7-.4 1.2-.4 2.5.1 3.7.1.3.2.7.2 1 0 .4 0 .8.6 1.1.4.2.4.6.5.9.2 1 .5 1.9.6 2.9 0 .3.1.5.2.8.3.8.5 1.5.1 2.3-.5 1.1.4 2 1.1 3 .5-.4.5-.8.6-1.2.1-.7.1-1.3.3-2 .1-.4 0-.7-.3-1.1-.2-.2-.4-.5-.3-.8 0-.1.1-.3.2-.4.4-.3 2.1 0 2.3.4.4 1.1 1 2.1 1 3.2 0 .8.3 1.6.6 2.4.3.8.3 1.5-.5 2.1-.4.3-.3.6-.2.9.3.6.3 1.1-.1 1.7-.5.7 0 1.5 1.2 1.9.8.2 1.1.7 1.4 1.2.3.6.3 1.1-.4 1.5-.9.6-1.2 1.3-.8 2.2.3.6 0 1.1-.4 1.6s-.4 1 .1 1.5c.3.3.7.4 1.2.2.5-.1.5-.4.4-.7-.3-1-.2-1.9.4-3.1.3.6.7 1 .7 1.3.1 1.6.6 3.1.5 4.6 0 .8 0 1.5.4 2.2.4.9.6 1.9.7 2.8.1 1 .5 2 .7 3.1.1.3.1.6.1.9h.1c.3 0 .5.2.5.3.4 1.2.9 2.4.3 3.7v.5c.5 1 .3 1.9 0 2.8-.4 1.1-.1 2.2 0 3.3 0 .4.3.8.9.7.6-.1.6-.5.5-.9 0-.1-.1-.2-.1-.3-.1-.3-.1-.7.4-.9.4-.1 1 .4.9.8-.1.6 0 1.3-.2 1.9-.3.7-.2 1.5 0 2.2.4 1.1.5 2.1-.1 3.2-.3.7-.3 1.5.1 2.2.2.4.1.7-.1 1.1-.5 1.5-1.2 3.1-.5 4.7.3.7.2 1.6.9 2.2.1.1 0 .4 0 .7 0 .4-.1.8 0 1.1.5 1.1.1 2.1 0 3.2-.1.7-.1 1.4.3 2.1.3.5.3 1.1.3 1.6 0 1 .5 1.9.7 2.8.2 1.3.8 2.6 1 3.9.2 1 .7 1.9 1.5 2.7 1.3 1.2 2.6 2.4 3.2 4 0 .1.1.2.1.2 1.7 1 2.1 2.6 3 3.9 1 1.3 2.1 2.5 3.2 3.6.5.5 1.1 1.1 1.4 1.7.7 1.3 2.2 2 3.6 2.7.4.2.8.3 1.1.7.5.6 1.2.9 2 1.2 2.1.7 4.1 1.5 5.9 2.6.8.5 1.8.8 2.8.8.7 0 1.2.2 1.6.7.3.1.6.1.9.2.6 0 1.3 0 1.8.3.9.4 1.9.5 2.9.7 2 .4 4.1.8 5.5 2.1.5.5 1.3.9 1.9 1.4.4.3.8.7.6 1.2.2 0 .4.1.5.1.9 0 1.6.4 2.2.8.8.5 1.6.8 2.7.8.8 0 1.4.3 2.1.5 1.3.3 2.6.4 3.9.7 3.2 0 6.3.1 9.5.1.8-.3 1.7-.2 2.5-.2 2.5.2 4.6-.4 6.7-1.2 1.2-.4 2.4-.6 3.6-.9.6-.1 1.1-.2 1.5.4.4.5 1 .4 1.5.1 1.1-.5 2.3-.9 3.3-1.6.9-.6 1.8-1.2 3.2-1.2.5 0 1-.4 1.5-.7.7-.4 1.2-1 2.2-1 .1-.1.1-.1.1-.2-.1-.2 0-.3.1-.4 1.3-.9 2.6-1.9 3.9-2.8.4-.3.7-.5 1-.8.8-.9.9-.9 1.9-.1.5-.1.7-.5 1.2-.6 0-.3 0-.6.3-.8v-.2c.9-1.3.9-2.6.9-4 0-.6.2-1.2.7-1.7v-.4c0-.1-.2-.3-.1-.4 1.3-1.7 1.2-3.6 1.5-5.5.2-1.3.1-2.7.1-4v-.6c-.5-1.5-.9-2.9-1.4-4.4-.1-.2 0-.4.1-.6-.5-.9-.7-1.8-.3-2.8-.4-1.1.8-1.8 1.2-2.7 1.5-.1 1.1-1 1.2-1.6 0-.3.1-.7.3-1 .6-.8.5-1.6.2-2.5-.3-.8-.5-1.5.3-2.2.3-.2.1-.5.1-.8-.1-1-.2-1.9.1-2.9.2-.6 0-1.3 0-1.9 0-.4-.1-.8.5-1.1v-.9c-.4-.4-.4-.9 0-1.3 0-.4 0-.8.1-1.1-.2-.2-.2-.3.1-.4 0-.1.1-.3.1-.4.9-2.1 1-2.7 1.3-3.4m-291-8.2c.1-.2.2-.4.4-.4.3-.1.4.1.6.3.7.6.9 1.1.9 1.7-.1.3.1.6-.4.7-.5.1-.8-.2-1-.5-.2-.6-.8-1.1-.5-1.8m-6.2.6c-.2-.2-.3-.4-.4-.6-.2-.3-.1-.5.3-.6 1.1-.3 1.8-.8 1.7-1.8-.1-.3.4-.4.7-.3.5.2.9.4.7.9-.4.7 0 1.1.6 1.5 1 .6 1.1 1.3 1 2.2-.1 1 .2 1.2 1.4 1.5.3.1.6 0 .8.2.2.3.6.6.5.9-.2.5-.8 0-1.2.3.2.4.4.8.3 1.3 0 .3-.1.5-.5.6-.4.1-.7 0-.9-.2-.1-.1-.3-.3-.3-.4 0-1-.8-1.6-1.6-2.3-1.3-1.1-2-2.3-3.1-3.2m11.3 15.4c-.2.2-.5.1-.8 0-.6-.1-1.1-.4-1.5-.7-.6-.5-1.2-.7-2.1-.7-1 0-1.7-.3-2-1.2-.2-.6-.6-1.1-.9-1.6-.2-.3-.4-.5-.4-.8-.1-.7.3-1 1.2-1 .2 0 .4.1.6.1.5.1.8 0 .7-.5 0-.2-.3-.6.1-.7.4-.2.7.1 1 .3.9.5 1 1.1.9 1.9-.1.3-.2.7-.1 1 .1.4.5.6.9.6.7.1 1.2.4 1.5.8.4.5.2.8-.6.8-.2 0-.4-.1-.7.1.7.3 1.3.5 1.8 1 .3.2.6.4.4.6m15.3-4.1c-.1.4-.3.7-.7 1-.8.6-1.2 1.2-.4 1.9.2.2.3.5-.2.6-.7.1-.7.4-.4.8.7.9.8 2 1.3 3.1-.7-.2-1.2-.3-.9-.8.4-.5 0-.7-.5-.9-2.1-.9-3.2-2.3-3.4-4.1-.1-.6-.3-1.2-.9-1.6-.2-.2-.4-.4-.5-.6-.5-1.8-1.7-3.4-2.3-5.2-.1-.3 0-.6.5-.6.7 0 .7-.2.6-.6 0-.1-.1-.1-.1-.2-.1-.3-.6-.6-.2-.9.6-.3 1.1.1 1.4.3.6.5 1.3 1 2.1 1.4.4.2.7.5.4 1-.4.4-.1.8.2 1.1.6.6 1.3 1.2.7 2.1-.3.4.5.8 1.1.6.4-.1.7-.5 1.2-.2.8.6 1.2 1.1 1 1.8m5.1-280.6h-.1c-.4-.3-.6-.8-1.3-.5-.7.3-.4.7-.1 1 .2.2.2.4 0 .6-.4.6-.2 1.3-.1 2 .3 1.4.2 2.7 0 4.1-.1.5-.1 1-.8 1.3-.2.1-.3.2-.2.4.4.8-.1 1.6-.1 2.4 0 .3 0 .7.2 1 .5.8.1 1.6-.1 2.4 0 .1-.1.3-.3.4-.3.1-.4-.1-.6-.3-1.2-.9-1.3-2-1.3-3.2 0-.5 0-1-.3-1.5-.2-.4-.3-.8-.2-1.2.3-1.4-.1-3 .9-4.3.1-.2 0-.4-.1-.5-.3-.9-.3-1.9-.1-2.8.4-1.6.3-3.3 1.1-4.8.1-.2.2-.5 0-.8-.8-.7 0-1.3.1-2 0-.1.2-.3.4-.3.3 0 .4.2.4.4 0 .1.1.2 0 .3-.4 1.3.3 2.5.3 3.8 0 .5.3.8 1 .9 1.4.4 1.4.4 1.3 1.2m59 264.3h-.1s-.1 0-.1-.1c0 0 .1-.1.2.1 0-.1 0-.1 0 0m-7.2-8.9c.1-.1.2-.2.4-.1.8.2 1.2.1 1.1-.6-.1-.4.4-.6.9-.3.2.1.4.2.5.4.5.9 1 1.9 1.4 2.8.1.1.1.3 0 .4-.4.4-.5.8-.3 1.2.1.2-.1.4-.4.5-.3.1-.5 0-.6-.2-.3-.4-.6-.6-1.1-.9-.6-.3-.1-.8-.1-1.1v-.7c0-.5-.1-.8-.9-.8-.3 0-.5 0-.7-.2-.2-.1-.3-.3-.2-.4m99.4-42.7c-.8.5-1.1 1.1-.8 1.9.5 1.4.3 2.7-.1 4.1-.3.9-.4 1.8-.4 2.8 0 1-.3 2.1-.5 3.1 0 .2-.1.3-.3.3-.3 0-.5-.1-.5-.3-.3-.7-.7-1.4-.1-2.1.3-.4.3-.8.2-1.2-.4-1.6.1-3.3-.7-4.8-.1-.1 0-.3.1-.4 1-.9.6-2 .6-3 0-.4 0-.8.3-1.2 1-1.1.6-2.4 1-3.6.1-.3-.3-.4-.5-.6-.5-.5-.5-.9.2-1.3.9-.5 1.5-1 1.4-1.9-.1-.5.3-.6.8-.8.8-.2 1.5-.5 1.1-1.3-.1-.3.2-.4.6-.3.4.1.7.2 1.1.3.4.1.7.1.6.5-.1.3-.3.5-.7.5-.2 0-.5-.1-.8.1.2.6 0 1-.8 1.4-.6.3-.6.6-.2 1 .9.9.8 1.7 0 2.6-.3.3-.5.7-.5 1.2.1.8-.2 1.6-.6 2.4 0 .1-.2.4-.5.6m2.3 10c-.7 1.2-1 2.5-.8 3.9 0 .2-.1.4-.2.5-.1.1-.3.2-.5.2-.1 0-.2-.1-.3-.2-.1-.3-.1-.5-.1-.8.1-1 .2-2.1.4-3.1 0-.3.1-.6-.1-.9-.2-.3.3-1.4.7-1.7.3-.2.5 0 .7.2.1.2.3.9.3 1.3 0 .1 0 .4-.1.6m1.1-7.2c-.4 1.1-.3 2.1-.7 3.2-.2.3-.2.9-.8.8-.6-.1-.6-.7-.3-1 .3-.4.1-.7.1-1.1 0-1.6.9-3 1.2-4.6 0-.2.2-.4.5-.4.4 0 .6.2.7.4.1.2.1.4.1.7 0 .6-.6 1.3-.8 2m1.2-15.1c-.3.3-.8.5-1.2.8-1.2-.9-.6-1.8-.2-2.7.2-.4.7-.6 1.3-.6.6 0 .7.5.8.8 0 .6-.1 1.2-.7 1.7M256 151.9c.3.5.5.9.5 1.5-.6-.3-.6-.7-.7-1-2.3-6.6-5-13.1-6.5-20 1.4.9 1.9 1.9 2.2 3 .3 1.3.7 2.6 1.8 3.8.2.2.2.3.2.5-.5 1.7.4 3.4.8 5 .2 1.1.7 2.2.7 3.4-.2 1.3.3 2.6 1 3.8m-7.4 246.6c-.1-.3.1-.4.4-.4.3 0 .4-.1.5-.4 0-.3-.1-.5.4-.7.5-.1 1-.3 1.5-.3.3 0 .4.1.4.3.1 1.3-1.9 2.7-3.8 2.5.3-.4.9-.5.6-1M231.1 67c.3-.1.5 0 .6.2.4.6 1 .9 1.7 1.2.5.3.7.8.9 1.3.3 1.2.7 2.4 1.4 3.5.5 1 .6 2.1.9 3.1.1.3 0 .6.2.8 1.4 1.8 1.4 3.9 2.3 5.9.6 1.3 1.5 2.5 1.8 3.9.2 1 .8 1.8 1.3 2.7 1.1 2.1 1.9 4.3 2.6 6.5.2.6.5 1.1.9 1.5.7.8.9 1.7 1.4 2.6.6 1.1 1.1 2.3 1.4 3.5.3 1.3.6 2.6 1.4 3.8.5.7.3 1.5.6 2.2.5 1.2 1.3 2.3 1.6 3.6.8 3.2 2.2 6.3 3.3 9.4.1.4.2.7-.2 1.1-1-.8-1.1-1.8-1.4-2.7-.7-2-1.3-3.9-2.6-5.8-.6-.9-.4-1.8-.9-2.7-.1-.2 0-.5-.2-.6-1.5-1.3-1.3-3-2-4.5-.6-1.3-1-2.6-1.4-4-.3-.9-.8-1.7-1.3-2.5-.8-1.4-1.1-3-2-4.4-1.3-2-2-4.1-2.6-6.2-.2-.8-.7-1.5-1-2.3-1.2-2.9-2.2-5.8-3.3-8.7-.1-.3-.2-.6-.4-.8-.9-1.4-1.3-2.9-2-4.3-.5-1.1-1.1-2.2-1.7-3.2-.6-1.1-1-2.2-1.5-3.3-.3-.5-.1-.7.2-.8m9.2 83.3s0 .1 0 0c0 .1 0 .3-.1.4-.1.2-.1.4-.5.4-.1 0-.2-.1-.2-.1-.1-.2 0-.4.3-.6.1 0 .3 0 .5-.1-.1 0-.1 0 0 0-.1-.4-.4-.7-.9-.9-1.1-.5-1.2-.8-.7-1.6.1-.2.3-.3.2-.5-.7-1.5.4-3.1-.8-4.6 0-.1-.1-.2-.1-.2.5-.6.9-1.2 0-1.8 0 0 .1-.3.2-.3.5-.1.9-.4 1.2-.7.3-.2.7-.1.8.2.2.6.6 1.1.6 1.7v1.8c-.1.8-.1 1.5.4 2.2.1.1.1.3.2.4 0 .3-.1.6-.6.7-.5 0-.5-.3-.5-.6 0-.1 0-.3-.2-.3-.6 1.4-.3 2.4 1 3.2.1.1.2.1.3.2.3.2.4.5.3.8-.2.3-.6.2-.9.2-.3.2-.4.1-.5.1m-.8-20.1c.1.3.2.6-.1.9-.5.4-.3.9-.1 1.4.5 1.2.4 2.3.1 3.5-.7-1.2-.8-2.4-1-3.7-.2-1.1-.4-2.3-.6-3.4-.1-.3-.3-.6-.6-.9-.4-.4-.3-.7 0-1.1.2-.3.5-.5.9-.4.4.1.7.2.8.6.1.3.2.7.2 1 .2.6.1 1.4.4 2.1m-5.3 18c0 .2-.2.3-.5.3-.5 0-.9-.2-.9-.6 0-.2.2-.2.4-.2.4.1 1 .1 1 .5M215.5 55c.4-.1.8-.1 1.1.1.5.3.9.7 1.1 1.2.6 1.4 1.8 2.6 2.8 3.8.1.2.3.3.5.4.3.2.6.3.9.1.2-.2 0-.4-.2-.6-.2-.1-.5-.3-.4-.4.3-.7.3-1.4-.1-2.1-.1-.2.2-.3.5-.2.5.2 1 .4 1.3.7.2.2.3.4.4.6.5 1.4 1.3 2.7 2.3 3.9.2.3.4.6.2.8-.4.4 0 .9-.2 1.2-.5.1-.7-.1-.9-.4-.4-.6-.8-1.1-1.1-1.7-.1-.2-.2-.4-.4-.6-.4-.2-.8-.4-1.2-.2-.5.2-.3.6 0 .9.8.6 1.1 1.5 1.4 2.3.2.5.3.9.8 1.3.3.3.6.4 1 .3.5-.2 1-.1 1.3.3 0 .1.1.2.2.2 2 .1 1.9 1.5 2.5 2.5.2.4.3.9.4 1.3.1.3.3.5 0 .7-.7.5-.4 1-.2 1.6.4 1.1.6 2.3 1.4 3.3.4.5.1 1.2.6 1.8h-.4c-.9-1.3-1.9-2.4-2.5-3.8-.3-.8-.9-1.5-1.3-2.2-.4-.8-.8-1.6-1-2.4 0-.1-.1-.3-.2-.4-.1-.1-.2-.3-.4-.2-.2 0-.3.2-.3.3v.2c.7 1.5.4 3.2 1 4.7.1.4.1.7-.1 1.1-.5.8-.3 1.7-.4 2.5-.1.4.2.8.5 1.2.2.2.3.5.2.7-.1.2-.2.4-.6.5-.3.1-.7 0-.7-.3-.1-.7-.8-1.2-1.1-1.8-.2-.5-.5-1.1-.1-1.6.3-.5.2-1-.1-1.5-.4-.6-.6-1.3-.7-1.9-.2-.8-.5-1.7-1.1-2.4-.4-.6-.6-1.3-.6-2-.1-.9-.4-1.9-.4-2.9 0-.4-.2-.7-.6-1-1.1-.6-2-1.4-1.7-2.5.1-.4-.3-.5-.6-.7-.5-.2-.9-.5-.4-1 .4-.4 0-.8-.2-1.2-.5-.9-1.3-1.7-1.9-2.5-.3-.4-.5-.8-.5-1.3-.2-.3-.1-.5.2-.7m-16.2-13.4c.4 0 .5.2.5.5 0 .1-.1.2-.3.2-.3 0-.5-.2-.5-.5 0-.1.1-.2.3-.2m-55.2-25.7c.3-.1.7-.1.9-.1 1 .1 1.9.3 2.5.9.5.6 1 1.1 1.9 1.3.3.1.5.3.6.5.1.2-.1.4-.4.3-.4 0-.6-.2-.9-.4-.4-.2-.7-.4-1.2-.3-1.4.1-2.6-.3-3.7-.8-.5-.2-.9-.5-.8-1 .1-.3.7-.3 1.1-.4m-7.5-.7s.1.1 0 0c.1.1 0 .1 0 .1s-.1 0 0-.1c-.1 0 0 0 0 0m-6.5 1.1c.1-.3.5-.3.7-.2 1.1.2 2.1-.3 3.2-.3 1.5-.1 2.6.2 3.6 1 .8.6 1.6 1.1 2.6 1.4.9.3 1.9.6 2.7 1.4-1.5-.1-2.6-.7-3.9-.9-.6-.1-1.1-.1-1.5.2-.8.5-1.7.4-2.4 0-1.4-.8-3-1.4-4.5-2.1-.3-.2-.6-.3-.5-.5m-8.7 1.7c1 .1 2 .3 2.9.2 1.6-.2 3 .7 4.5.6.3 0 .6.1.6.4 0 .2-.3.4-.6.4-.3.1-.7.1-1-.1-.8-.3-1.7-.3-2.6-.3-1.8 0-3.6-.4-5.4-.7.5-.5 1-.6 1.6-.5M68.8 191.2c-.5.1-.8-.1-1.1-.4-1.1-.7-1.6-1.5-1.1-2.7.1-.1.1-.3 0-.4-1.2-1.3-1-2.9-2.2-4.2-.2-.2-.4-.4-.6-.7-.1-.1-.2-.3 0-.4.2-.1.4 0 .5.1 1.7.8 2.8 1.9 3 3.4.1.6.5 1.1.8 1.7.5.9 1 1.8.9 3 0 .1.4.4-.2.6m8.1 220c-.6-.1-1 0-1.5.2-.4.1-.9.1-1.3-.1-.7-.2-1.2-.8-1.1-1.2.3-.6 1-.5 1.6-.5.2 0 .4 0 .7.1.3 0 .8-.1 1.2-.1.8 0 1.2.3 1.3.9.1.5-.2.8-.9.7M83 165.5c-.6.2-1 .5-1.4.9-.6.5-1 1-1 1.8 0 .6-.4.7-1.2.4-.8-.3-1-.9-1.8-1.3 1-.3 1.3-.8 1.6-1.3.4-.5.6-.9.1-1.4-.4-.6-1-.5-1.6-.5-.1 0-.2-.1-.3-.1.1-.5.7-.7 1.1-1.1.3-.3.7-.3 1.1-.1.5.2 1.1.3 1.6.6.3.2.5.4.9.3 1.1-.1 1.2.6 1.6 1.1.1.3-.3.6-.7.7m7.8 56.6c-.2 0-.4-.1-.5-.2-.3-.3-.4-.7-.4-1.1 0-.1.1-.2.2-.4.2-.2.4-.2.5 0 .2.4.3.8.5 1.2 0 .2 0 .4-.3.5m10.4-25.8c-.1 0-.2 0-.2-.1-.1-.1 0-.2.2-.2.1 0 .2.1.2.1 0 .1-.1.2-.2.2m6.5 6c-.4.4-.7.8-1.1 1.2-.1.1-.4.2-.3.3.1.9-.8 1.4-1.5 1.9-.4.3-.3.7-.2 1.2.1.3 0 .5-.5.5-.6 0-.8-.3-.5-.8.7-1.3 1-2.6 1.6-3.9.2-.5.7-.8 1.1-1.1.2-.2.5-.2.8-.2.7 0 1 .4.6.9m49.6 1.8c0 .2-.2.3-.3.5-.8 1-1.3 2.2-2.5 2.9-.4.2-.6.7-.8 1.1-.5.9-1.4 1.4-2.6 1.5h-.1c-.1 0-.1.1-.2.1v-.1s.1 0 .1-.1h.1c.6-.9-.3-1.5-.7-2.1-.2-.3-.6-.2-.9 0-1.4.5-1.7.4-1.7-.9 0-.1 0-.2-.1-.3 0-.2 0-.4.2-.5.3-.1.6 0 .8.2.3.2.5.4.8.5.2.2.5.2.8 0 .2-.2.1-.3 0-.5-.5-.5-.9-1.1-1.9-1.5 1.1-.3 1.7 0 2.3.3.8.3 1 .3 1.3-.3.2-.3.2-.6.4-1 .2-.3.5-.5.9-.4.4.1.4.4.3.7-.1.4-.2.7-.3 1.1 0 .1 0 .2.1.3.2.1.4.1.5 0 .5-.3.7-.7.9-1.1.2-.6 1.2-1.1 2-1 .5 0 .6.3.6.6m20.7-1.8c-.2 0-.4 0-.6.1h-.1c.3-.4.4-.8.4-1.3.1-1 .1-1 1.6-1.3-.2.5-.3.9-.2 1.4.5.9.3 1.1-1.1 1.1m23.4-24.8c-1.2 0-2-.7-2.9-1.2-.3-.2-.6-.3-1-.7.8 0 1.3.1 1.9-.1.6-.2 1.1-.3 1-.9 0-.2 0-.3.2-.3.3 0 .4.2.5.4v.3c-.2.5.1.9.5 1.3.2.2.3.4.4.6.2.4-.1.6-.6.6M215 335.7c-.2.1 0 .2.1.4.7 1 .3 1.9-.1 2.8 0 .1-.2.1-.5.2-.2-.6-.6-1-.9-1.5-.7-.8-.7-1.8-.8-2.7 0-.3.2-.8.8-.9.6-.1 1.1 0 1.4.4.2.5 1.2.9 0 1.3m2.1-188c-.5.1-.9.2-1.4.2-.4 0-.7-.2-.5-.5.1-.3.3-.6.4-.8.2-.4.6-.7 1.3-.6.6.1.8.5.9.9-.1.4-.2.7-.7.8m.9-71.6c-.5-.2-.9-.5-1.2-.8-.2-.2-.5-.4-.9-.2-.3.2-.2.4-.1.6.4.7.3 1.3-.1 1.9-.2.4-.3.8-.2 1.2.1 1-.5 1.8-1 2.6-.2.4-.6.6-.3 1.2.2.3-.5.7-.6 1.2-.2.6-.7.4-1.3.3-.5-.1-.6.2-.6.5 0 .4 0 .7-.1 1.1-.2 1.1-1.4 1.7-2.7 1.4-.7-.2-1.4-.5-2.2-.7-.6-.2-.6-.7-.8-1-.1-.2-.3-.5-.8-.4-.3.1-.4.3-.3.6.2.8.2 1.6-.2 2.3-.1.2 0 .4.1.7.1.2.2.5.2.6-.4.9.2 1.7.7 2.5l.1.1c.2 1.8 1.8 3.1 2.8 4.6.1.2.2.4.2.5-.2.9.4 1.6.6 2.4.1.2.2.4.3.5 1.2.8 1.4 2 2 3 .5.8.7 1.5.7 2.3 0 .1 0 .2.1.3 1.5 1.4 1.4 3.2 1.8 4.8.1.4-.2.8-.2 1.3.1 1.4.7 2.9.6 4.3 0 .2.1.4.3.5.9.5.6 1 .1 1.5-.2.2-.4.5-.4.8-.1.7-.1 1.5-1 2 .1 1-1 1.8-.4 2.9.4.7.4 1.6-.5 2.3-.2.2-.3.4-.3.6 0 1.2-.2 2.4-.7 3.5-.2.5 0 1.2-.1 1.8-.1.7-.7 1.2-.6 1.9.3 1.6-.3 3.1-.6 4.7-.1.5-.2 1.1.5 1.5.2.1.4.2.3.5-1.4.2-2.4 1.4-2.6 2.5-.2 1.1-.3 2.2-.3 3.3 0 .5.1.9.8 1.2.7.3 1.1.8 1.1 1.5-.5 0-.9-.1-1.2-.5-.3-.4-.7-.3-1.1-.1-.6.3-1 .6-1.2 1.4-.2 1.2-.3 2.4-1.3 3.5-.4.4-.8.9-.7 1.5.1.5-.1.6-.8.5-1.4-.2-1.4-.2-1 .8.1.4.2.7.5 1 .9.9.1 2.4-.6 3-.3.3-.7.2-1.1.2-1.1.1-1.4.5-1.1 1.3.1.2.3.4 0 .6-.3.2-.6 0-.9-.1-.5-.1-.5-.5-.7-.8-.1-.2-.4-.3-.7-.3-.4.1-.3.3-.2.5.3.6-.1.6-.7.5-.4-.1-.8-.2-1.3 0 .4.4.8.6 1.3.7 1.7.3 1.8.5 1.3 1.8v.2c.4.3.9-.1 1.3.1.2.1.3.2.3.3 0 .2-.1.4-.4.4-.5.1-1 0-1.4-.1-1.3-.4-1.4-.4-1.9.7-.6-.3-1.2-.6-1.9-.9-.5-.2-.7-.6-.7-1 0-.8-.6-1.1-1.5-1.3-.5-.1-1-.2-1.1-.8-.2-.7-1.2-.9-2-.5-.5.2-.8.1-1.3 0-1-.1-1.1 0-1 .7 0 .3.2.7.2 1 0 .7-1.1 1.2-1.9.7-.6-.4-1.1-.8-2-.6-.5.1-1.5-.8-1.5-1.2.1-.5-.2-.8-.6-1.1-.7-.5-1.2-1.2-1.4-1.9-.1-.4-.3-.8-.6-1.1-.4-.5-.9-.7-1.7-.8-.4 0-.9 0-1.3-.1-.9-.3-1.6-.7-2.7-.5-.5.1-1.3-.4-2-.6-.3-.1-.6-.1-.8-.2l-.1.1c.1 1.3 1.2 2.5 2.6 2.9.9.3 1.5.7 2.2 1.2 1 .8 1.7 1.7 2.5 2.6.2.2.3.4.1.6-.2.2-.6.1-.8 0-.3-.2-.6-.4-.9-.5-.5-.3-1.1-.4-1.7-.2-.4.1-.4.4-.3.7.1.3.3.3.7.3 1-.2 1.7-.1 1.9.6.3.9.7 1.7 1.4 2.4.2.3.2.6 0 1-.5.8-.3 1.3.8 1.7.9.3 1.6.7 2.4 1 1.1.5 1.3 1.2.6 2.2-.5-.4-.3-.9-.6-1.3-.2-.2-.4-.5-.8-.5s-.4.3-.5.5c0 .1-.1.2-.2.3-1 .5-.9.9-.1 1.5.3.2.1.4-.2.5-.7.2-.9.6-.6 1.2.1.1.1.3.1.4-.6.8 0 1.3.8 1.8.7.5 1.2 1.2 2 1.6.4.2.7.4 1-.2.3-.5 1.2-.2 1.7-.5.1-.1.4-.1.6-.1.3 0 .6 0 .7-.3 0-.2-.2-.4-.5-.5-.5-.3-1-.4-1.4-.8.2-.3.6-.2.8-.1.8.4 1.5.8 2 1.4.8 1 1.8 1.8 2.8 2.7.1.1.4.3.3.5-.4.2-.7 0-.9-.1-.7-.6-1.8-.8-2.5-1.4-.6-.4-1.4-.3-2.2-.4-.1.8 0 1.4.5 2.1.2.2.4.5.8.4.4 0 .8-.2.8-.5 0-.2.1-.5.5-.4.5.1.7.4.9.7.1.3-.1.4-.4.5-1 .5-1 .7-.1 1.3.6.3 1 .8 1.8 1-.1.1-.2.2-.3.2-1.7-.1-1.7-.1-1.1 1.1v.4c-.8-.2-1.2-.6-1.7-.9-.3-.2-.6-.4-1-.1-.2.1-.3.4-.7.3-.4-.1-.8-.3-1.1-.5-.4-.3-.1-.6.1-.8.3-.3.7-.5.5-1-.3-.5-.8-.9-1.4-1.3-.2-.1-.4-.1-.5.1-.3.3-.7.4-1 .6-.3.2-.6.4-1 .2-.4-.1-.8-.2-1 .2-.2.3-.2.7.1.9.6.4.7.8.6 1.4 1.5.1 2.2.9 3.2 1.7-1.2 0-2.6-.8-3.2-1.7-.5-.1-.6-.5-.9-.7-.2-.2-.5-.2-.8-.1-.3.2-.2.4-.1.6.3.4.6.7 1.1.9.4.2.9.3 1.1.8-1-.1-1.8-.2-2.6-.6-.2-.1-.5-.3-.8-.1-.3.2-.1.4.2.6.4.2.5.4.2.7-.3.3.1.5.3.7.6.7.6.9-.5.9-.6 0-.8.3-.7.6.1.5.2.9.1 1.4-.1.3.3.4.5.6.5.4.4.7-.1.9-.5.2-.9.2-1.2-.2-.1-.1-.2-.3-.3-.4-.4-.6-1.4-.6-1.7-1.2-.3-.5.4-1 .2-1.6-.1-.4-.3-.6-.7-.8-.7-.4-1.5-.8-2.4-.8-.2 0-.5 0-.6.2-.1.2.1.4.3.5.4.3.8.5 1.2.8.4.3.5.5.2.9-.3.3-.6.4-1.1.3h-.1c-.4-.2-.9-.5-1.3 0s-.1.8.4 1.1c.2.1.4.2.4.4-1.1.3-2.2.1-2.7-.6-.3-.4-.5-.8-.7-1.2-.1-.2-.2-.5-.6-.6-.4.2-.1.4 0 .5.2.3.2.6-.2.8-.4.3-.4.6-.2 1 .3.4.1.6-.6.6h-.7c-.6.3.5.8-.2 1-.5.2-.8.4-1.2.6-.5.2-.9 0-1.3-.2l-1.2-.9c-.2-.1-.5-.3-.6 0-.5.7-1.1.3-1.7.1-.6-.2-1.1-.3-1.4.3.4 0 .7.2.9.5.2.2.3.4 0 .6-.3.2-.5 0-.7-.1-.3-.2-.4-.5-.4-.8-.4.1-.8.1-1 .4-.1.1-.4.2-.5.2-.9-.4-1.9-.2-2.8-.1-.3 0-.6-.3-.8-.5-1.1-1.2-2.6-2.1-3.9-3.2-1.4-1.1-3-2.1-4.2-3.3-.3-.3-.8-.5-1.3-.5-.4 0-.7.1-.8.4 0 .3.1.6.5.7.2.1.5 0 .7 0 1.1.1 1.3.6.6 1.3-.5.5-.4.7.3 1 .4.1.9.1 1.2.4.2.1.3.3.2.5-.1.2-.4.2-.6.1-.4-.1-.8-.5-1.2-.2-.4.3.1.7.4.9.9.8 1 1.6.2 2.4-.1.1-.2.3 0 .4.2.1.4.1.5-.1l.3-.3c.2-.2.5-.3.8-.1.3.2.5.4.3.7-.1.2-.4.4-.5.7-.2.3-.1.5.2.7.3.2.6.1.9-.1.8-.4 1.6-.7 2.4-1 .6-.2.6-.4.4-.8-.2-.4-.4-.7-.8-1-.3-.2-.5-.5-.7-.7-.1-.2-.3-.4 0-.6.2-.1.5 0 .7.1.5.2.9.5 1.4.7.7.3 1 .6.6 1.2-.1.1-.2.3-.1.3.6.7.4 1.5.9 2.2.5.7.8 1.3 0 1.9-.3.3 0 .9-.7 1-.5.1-.9-.2-1.4-.4-.4-.1-.6 0-.7.2-.2 1-.8 1.8-1.7 2.5-.1 0-.1.1-.1.2.5 1.2-.9 1.9-1.2 3 0 .1-.1.2-.2.3-.4.5-1.1.7-1.6.6-.5-.2-.8-.7-.3-1.3.7-.8.6-1.7.7-2.6 0-.4 0-.9.3-1.3s0-.7-.3-1c-.4-.4-.7-.4-.9.1-.2.7-1.1 1-1.7 1.6-.2-.6-.5-1-1.1-1.2-.3-.1-.4-.4-.4-.6.3-1.1-.1-2.1.2-3.2.1-.2.1-.5.4-.6.9-.3.8-.9.7-1.4-.2-1-.5-2-.2-3 .1-.3 0-.7.2-1 .2-.5 0-1-.6-1.1-1.2-.2-2.2-.8-3.5-.9h-.7c-.1.5.3.9.5 1.4.2.3.5.6.5.9 0 .2.3.5-.2.7-.4.1-.6-.1-.8-.4-.2-.4-.5-.8-.6-1.2-.3-1-1.3-1.7-2-2.5-.3-.4-.8-.3-1.3-.1-1.5.7-1.8 1.7-1.7 3 0 .4.2.8-.2 1.2-.4.3-.2.6.3.7 1 .3 1.2.8.9 1.5-.2.4-.1.7.1 1.1.2.4.1.8-.3 1-.7.4-1.3.7-2.1 1-.5.1-.7.1-.6.6.2.8-.7 1.8-1.7 2.1-.6.1-1.1.3-1.7.4-.5.1-1 .1-1.3-.2-.4-.3-.3-.6 0-.9.1-.2.3-.4.2-.6-.2-.2-.4-.1-.6-.2-1.2-.1-1.2-.1-1.1-1 0-.2.1-.4 0-.5-.3-.5-.1-.9.6-1 .7-.2.8-.7 1.3-1.1-.6-.1-1.1-.2-1.6-.3-.6-.1-.9-.3-1-.8 0-.6-.3-.7-1.1-.5-1.5.4-2.2 1.4-3 2.4-.4.5-.6 1.1-1.4 1.3-.3.1-.5.4-.6.6-1 1.3-2 1.5-3.6.6-.5-.3-.9-.9-1.6-.1-.3.3-.7 0-1-.2-.5-.2-1.1-.6-1.8-.5-.3 0-.7 0-.9.3-.2.3 0 .5.3.7l.9.6c.6.5.6 1-.2 1.4-.1.1-.2.1-.4.2-.9.3-1.4.7-1.2 1.6.1.6-.2.7-.8.4-1.1-.4-1.5-1.5-.8-2.2.2-.2.5-.4.4-.6-.6-.9 0-1.8-.3-2.6-.3-1-.6-1.1-1.7-.5-.2.1-.3.1-.5.2-.5-.1-.3-.4-.4-.5-.2-.4-.4-1-.9-1.1-1.7-.4-1.8-1.8-3-2.5-.3-.2-.3-.6 0-.9.3-.3.4-.6.4-.9 0-.3-.2-.5-.5-.3-.5.3-.7 0-1-.1-.7-.2-1-.1-1.2.5-.2.7-.9.4-1.4.5-.5.1-.6-.3-.6-.6v-.9c0-.6.3-.9 1-1.1 1-.3.9-.3.4-1.1-.3-.4-.6-.8-1.2-1-.4-.1-.7-.4-.9-.7-.1-.2-.3-.4-.1-.5 1.3-1 .9-2.2 1-3.4.1-1-.1-1.9-.8-2.8-.1-.1-.3-.3-.2-.4.5-1-.4-1.6-1-2.3-.3-.4-.4-.8-.2-1.3.6-1.5.6-3 .4-4.5-.1-.4.1-.6.2-1 .4-.9 1.5-1.4 2.2-2.2.2-.3.7-.3 1.1-.2.4.1.7.2 1.1.3.5.1 1-.1.8-.5-.5-.7.1-1.4 0-2.1 0-.6.4-.8 1.1-.5.3.1.6.3.8.5.4.3.8.7 1.2 1 .2.2.4.5.8.4.3-.1.3-.4.2-.6-.2-.3.1-.5.4-.6.6-.3.8-.7.3-1.1-.6-.5-1.1-1-1.5-1.6-.1-.2-.4-.3-.6-.5-.5-.2-.7-.1-.8.3-.3 1.1-.5 1.2-1.8.7-1.2-.5-2-.4-3.1.2-.1 0-.1.1-.2.1-.4.2-.7.6-1.1.4-.5-.2-.3-.7-.2-1 .4-1.2.1-1.9-1.2-2.6-.7-.4-1.2-.3-1.4.3-.2.6-.5.9-1.3 1.1-.3.1-.7.2-.7.5-.1.9-1.2 1.1-1.8 1.7-.2.2-.5.3-.8.3-2.2.2-4.5.5-6.1-1.3-.5-.6-1.3-1.1-1.4-1.8-.1-1-.7-1.9-.9-2.9 0-.1-.1-.3-.1-.4-.2-.5-.5-.7-1.2-.6-.4 0-.8.1-1.2 0-.4 0-.7-.2-.6-.6.3-1.4.3-2.7-.6-3.9-.2-.3-.1-.6.1-1 .4-.7.4-1.4 0-2.1-.2-.3-.3-.6-.2-.9.1-.9-.2-1.7-1-2.5-.7-.7-1-1.6-1.1-2.5-.2-1.2-1.1-2.3-1.3-3.5 0-.4-.5-.6-1-.8-.4-.1-.7-.3-.7-.6 0-.4.3-.6.8-.7.7-.1.7-.4.5-.8-.1-.2-.2-.4-.4-.6-.6-.6-.7-1.3-.5-2 .1-.5.1-1-.5-1.3-.4-.3-.5-.7-.4-1 .2-.6-.1-1.1-.6-1.6-.8-.8-1.1-1.7-.6-2.6.3-.7.4-1.4 0-2.1-.2-.4-.3-.8 0-1.2.7-.7.4-1.5.1-2.2-.3-.8-.6-1.7-.6-2.5-.1-.9-.1-1.9-.7-2.7-.1-.2-.1-.4-.1-.5.3-1.5.6-2.9.9-4.4.1-.3.2-.6 0-.9-.6-.8-.2-1.5.5-2.2.4-.4.5-.8.3-1.4-.3-1.1-.2-2.2.3-3.3.1-.2.2-.4.2-.6-.1-1.9.8-3.7.7-5.5 0-.9.1-1.8.4-2.7.3-.9.8-1.7 1.1-2.5.3-1.2.6-2.3.9-3.5 0-.2-.2-.4-.2-.6-.4-1-.5-2.1-.5-3.2 0-.7.4-1.5.5-2.3.2-1 0-2.1-.1-3.1-.1-.4-.6-.7-.8-1 .9-.8.9-1.7.6-2.6-.1-.2-.3-.4-.2-.5.5-.9 0-1.7-.1-2.5-.1-.6-.1-1.3.3-1.9.2-.4.3-.8.3-1.2 0-.6.2-1.1.9-1.5.4-.2.5-.5.4-.8-.2-1 .3-1.8.6-2.7.4-1 .7-2.1.6-3.2 0-.7.5-1.3 1-1.8.7-.8.7-1.6.9-2.4.1-.5.3-1 .6-1.5.4-.6.5-1.2.2-1.8-.4-.7-.1-1.3.1-2 .6-1.6 2.1-2.5 3.6-3.5.5-.3.7-.6.5-1.1-.2-.5-.2-.9-.4-1.4-.4-.9.3-1.7 1.6-1.9.7-.1 1.4-.3 2-.6.3-.2.6-.3.9-.3 1-.1 1.5-.6 1.8-1.3.1-.4.4-.5.8-.7 1.1-.4 2.3-1 2.5-2.1.1-.6.6-1 1-1.4.5-.4.8-.9.8-1.5-.1-1 .5-1.6 1.7-2.1.8-.4 2-.5 2.5-1.3.3-.4 1.1-.3 1.7-.2 1.1.2 1.9-.1 2.6-.7l.2-.2c1.5-1.3 3.2-2.3 5.7-2.2 1.2.1 2.2-.2 3.2-.8.7-.4 1.6-.6 2.5-.7.8-.1 1.5-.2 2.2-.6.5-.2 1.1-.4.7-1-.1-.2.1-.3.4-.3.2 0 .4.1.5.2.5.3.9.8 1.5.6 1-.2 2.2-.3 3-.9.4-.3.7-.3 1.1-.2.6.2 1 .2 1.6-.2.9-.5 2-.4 3.1-.2.3.1.6.2.9.4 1.3.6 1.4.6 2.3-.4.3-.4.6-.6 1.1-.3.4.2.9.3 1.4.2.9-.1 1.8 0 2.6.4 1.3.6 2.8.5 4.2.5.9 0 1.8-.1 2.6.3.6.2 1.2.1 1.5-.3.4-.5.8-.5 1.3-.2.1.1.4.2.5.2 1.2-.1 2.4.1 3.5.6.5.2 1-.1 1.4-.4.5-.3 1-.5 1.7-.2.4.2 1 .1 1.4.2.3 0 .6 0 .9.1 1.5.9 3.3.9 5 1.3.1 0 .2.1.3.1 1.8-.8 3 .7 4.6.7.5 0 .9.4 1.3.7.4.3.8.4 1.2-.1.1-.1.3-.3.4-.3 1.3.1 2.6-.4 3.9.2 2 1 3.9 2 5.1 3.6.4.5 1 .8 2 .8-.5-.7-.8-1.4-1.5-1.9-.4-.3-.6-.8-.1-1.1.4-.2 1-.3 1.4.2.3.4.7.4 1.1.2.5-.2 1.1-.2 1.5.2.9.9 2.3 1.1 3.6 1.4.9.2 1.6.5 2.3.9.7.4 1.3 1.1 2.4.9-.1.5-.4.6-.8.6h-1c-.2 0-.4.1-.5.2-.1.2 0 .3.2.4l.6.3c2.2.6 2.3 2 2.5 3.4.2 1.3.9 2.4 2.3 3.2 1.2.8 2.4 1.7 3 2.8.4.6.9 1.1 1.8 1.4.4-.4 0-.6-.1-.9 0-.3 0-.5.3-.7.3-.2.7-.1 1 0 .4.1.7.4.8.7.1.2.1.4.2.7.1.3.4.6.9.6.4 0 .8-.1 1-.4.4-.6 1-1.1.2-1.8-.4-.3-.3-.8-.5-1.2-.1-.3 0-.5.4-.6.4 0 .9.1.9.4 0 .7.2 1.2.7 1.8.1.1.1.3 0 .4-.9.7-.4 1.3.4 1.7-.1.2-.2.3-.4.2-.5-.1-.9-.2-1.1.3-.2.4.1.7.6.8 1.4.4 1.5 1.5 2.3 2.3.2.2 0 .4-.2.6-.5.4-.3.7 0 1.1.2.1.3.3.4.5.9.7 1.5 1.4 1.5 2.5 0 .4.2.8.7 1 1 .4 1.3 1.1 1.6 1.8.1.1.1.3.2.4.2.3.2 1 .9.8.5-.1-.1-.6-.1-.9.1-.7-.3-1.4-.5-2.1 0-.1-.1-.3.1-.4.2-.1.5-.1.7 0 .2.1.4.3.6.5.2.2.5.4.9.3.4-.1.4-.4.4-.7 0-.3-.4-.5-.3-.9 1.5.3 1.9.7 2 1.8v.1c1.2.6 1 2.1 2.7 2.3.2 0 .4 0 .6.1.4.1.8.3.6.6-.2.3-.6.4-1 .1-.2-.2-.5-.3-.8-.1-.3.2-.1.5 0 .7.2.6.9 1.1 1.1 1.7.2.8 1.2 1.6.5 2.5.6 1.1.5 2.3 1.7 3.2.4.3.4.6.3 1.1-.2.7 0 1.6.6 2.2.6.5 1 1 1.2 1.6.1.2.3.4.4.5 0 .2-.2.3-.4.3-.6 0-.7.3-.4.6.2.3.6.5.8.8.1.2.2.4 0 .5-1 .7-1.3.7-1.6.6m-37.7 87c-1-.2-1.4-.7-1.5-1.2-.1-.6-.6-1-1.1-1.4-.6-.5-1.2-1.1-2-1.8 1.8 0 3.8 2 4.6 4.4m36.9 207.3c-2.1-1.4-1.6-3.1-1.2-4.8 0-.2.2-.4.2-.6.1-.2 0-.5.4-.5.3 0 .5.2.7.4.3.3.5.8.5 1.2 0 1.2.6 2.3 1 3.5-.6.1-1.1.4-1.6.8m4.7-176.8c-.2.1-.4.2-.7.1-.2-.1-.1-.3 0-.4.2-.9.5-1.8.5-2.7.1-1.3.5-2.6.4-3.9-.1-.7.3-1 1.1-1.1.3 0 .5 0 .5.2 0 .1 0 .1-.1.2-.5 1.1-.1 2.3 0 3.4.3 1.5.2 3.1-1.7 4.2m3.8 201.8c-.1-1.1-.1-2.1-.2-3.5.9 2.2 2.2 4 2.2 6.2-1-.7-1.9-1.6-2-2.7m3.2-10.6c0 .1-.1.2-.2.3-.2.2-.1.8-.7.7-.7-.1-.3-.5-.3-.8 0-.3-.2-.5-.3-.7-.1-.3.1-.4.4-.4.8 0 1.3.4 1.1.9m3-240.3c0 .4.2.7.3 1.1.1.3.3.6.1.9-.7 1.2-.7 2.6-1 3.9-.2.7-.1 1.4-.6 2-.2.2-.1.4-.1.7.4 2 .4 4.1 0 6.1-.2 1 .2 1.9 0 2.9-.1.5-.1 1-.4 1.5-.2.3-.3.6-.2 1 .4 1.6-.4 3.1-.7 4.6-.2.8-.3 1.3.7 1.7.1.1.2.1.3.2.1.1.2.3.1.4-.1.2-.4.2-.6.1-.2-.1-.3-.3-.7-.2 0 .5.5.5.8.7.7.4.8 1 .2 1.3-.9.5-1.1 1.3-1.2 2.1-.1.5-.4.8-.6 1.3-.1.3-.2.6.2.7.5.1.5-.2.7-.4.3-.4 0-1 .5-1.4.5.1.4.4.3.7-.2.6-.3 1.2.1 1.8.2.2.1.4-.2.6-.3.2-.5.1-.8-.1-.6-.4-.9-.3-1.1.3-.1.5-.5.9-.5 1.4 0 .6.1 1.3.7 1.8s.7 1.1 0 1.8c-.4-.6-1.1-.8-1.7-1.2-.6-.4-1.2-.5-1.8-.1-.5.3-.7 0-.8-.3-.1-.5-.4-.9-.8-1.3s-.1-.7 0-1.1c.2-.7.7-1.4-.2-2.1-.1-.1-.1-.3 0-.4.7-.3.7-1 1.5-1.3.9-.4.8-.8 0-1.3s-.9-.7-.5-1.4c.5-.9.9-1.7 1.3-2.6.2-.7.2-1.3-.5-1.9-.4-.3-1.1-.8.2-1 .3 0 .2-.3.2-.5-.1-.6.1-1.2-.3-1.7-.3-.4-.2-1 .2-1.4.4-.5.8-1 .5-1.7-.1-.2.1-.4.2-.5l.3-.9c.1-.5-.3-1 .2-1.6.3-.4 0-1.1 0-1.6-.1-2.9.1-5.7.1-8.6 0-.6-.1-1.2-.2-1.8-.1-.5-.3-1 .1-1.5.1-.1.1-.4 0-.5-.4-1.2-.3-2.5-.2-3.8 0-.3 0-.6-.1-.9-.1-.6-.2-1.2.3-1.7.3-.3.4-.7 0-1-.4-.3-.4-.7-.4-1.1.1-1.5-.4-3-.5-4.6 0-.2-.1-.4 0-.5.6-.8.3-1.7.1-2.5-.2-.6-.1-1.3-.1-1.9 0-1.2.4-2.3-.5-3.5-.2-.3-.1-.7-.1-1-.1-.8 0-1.6-.8-2.2-.2-.2-.1-.4-.1-.6.1-.8.1-1.6.2-2.5 0-.3.1-.5-.2-.7-.7-.6-.7-1.3-.7-2 0-.8-.1-1.6 0-2.5.2-1.3-.3-2.7-.1-4 .1-.5-.3-.8-.9-1-.7-.3-1-.8-1-1.4 0-.3 0-.6.4-.8.7-.2.8-.7.8-1.2v-.4c0-1.3.1-1.4 1.7-.8.4.2.9.4 1.4.3 1.2-.3 1.9.3 2.8.8.2.1.3.3.3.5 0 .8.2 1.5.7 2.1.2.3 0 .5-.4.6-1.1.4-1.5 1.1-1.6 2 0 .4-.3.6-.6.9-.9.9-.6 1.8.7 2.4.3.1.3.5.8.5.8-.7 0-1.6.2-2.3 2.1.5 2.8 1.2 2.8 2.7 0 .4 0 .7.1 1.1.2.5.2 1 0 1.4-.4 1-.4 2 .2 3 .3.5.1 1.2.7 1.7.2.2.1.3-.1.5-1.1 1.1-1.1 2.3-.7 3.6.3 1 1 1.9.8 2.9-.2 1.1-.1 2.3-.2 3.4 0 .9-.1 2 1.4 2.6.4.1.2.5-.1.6-.8.3-.7 1.2-1.8 1.4-.3 0-.1.3 0 .5.6.7.6 1.5.3 2.4-.3.8-.3 1.7-.1 2.6.1.6.2 1.1 1 1.4.5.2.6.5-.1.7-.6.1-.7.6-.6 1.1m.8 6.1c-.1-.2-.1-.4-.1-.6 0-.3.3-.5.8-.5s.9.1.9.6v.4c-.1.4.2 1-.6 1.1-.8 0-.8-.6-1-1m12.5 246.9c-.7.1-1 .5-1.6.8-.7.3-1.3.5-1.8-.1-.3-.3-.6-.4-1-.1-.5.3-.1.5 0 .8.1.2.2.5.5.7.5.3.9.6.5 1.2-.2.2.1.6.5.5.8 0 .7.3.5.6-.4.8-1.1 1.4-2.3 1.7.8-.9.1-1.6-.4-2.3-.3-.5-.7-.6-1.1-.2-.7.7-1.6 1-2.8 1.1-.3 0-.5.2-.7.3-.5.3-1 .2-1.5.1.1-1.4 1.9-1.6 2.8-2.4.2-.1.5 0 .7 0 .6.1 1-.2 1.5-.4.3-.2.4-.4.3-.7-.1-.3-.5-.4-.8-.3-.8.1-1.1-.1-1.2-.7-.1-.3-.1-.9-.8-.8-.5.1-.7.5-.8.9-.1.3 0 .5-.1.8-.1.7-.6 1.1-1.5 1-.6 0-1 0-1.5.3-.4.2-.9.2-1-.3-.1-.7-.4-1.4-.5-2.2-.1-.8.1-1.4 1-2.1.9-.7 1.5-1.9.5-3-.3-.3-.1-.5.3-.6.7-.3 1.1-.7 1.4-1.3.2-.4.6-.6.9-.9.2-.2.4-.3.6-.2.3.1.5.3.4.5 0 .2-.1.5-.2.6-.9.5-.5 1.1 0 1.6.7.7.9 1.3.5 2.1-.1.2-.1.4-.1.5 0 .3 0 .6.5.7.6.1.5-.3.6-.6.1-.4.2-.9.2-1.3 0-1.1.4-1.5 1.8-1.9.1 0 .3 0 .4-.1 1-.6 1.8-.6 2.4.4.2.4.7.2 1.1.1.4-.1.6-.3.5-.6-.1-.3.1-.6.1-.9.2-.5.5-.6 1-.2l1.8 1.5c.2.2.5.4.3.7-.2.2-.5.1-.8.1-.1 0-.3 0-.5.1.4.8 1.1 1.4 1.8 2 .6.4.6.8 0 1.1-.9.6-1.5 1.3-2.4 1.4m2.4 9.6c-.4.1-.6-.3-.6-.6 0-.2.2-.3.4-.5.6-.4 2.2-1.9 2.5-2.4.1-.2.2-.4.2-.6-.1-.8.7-1.3 1.4-1.4 1.2-.2 2-.7 2.9-1.3.5.3.6.8 1.1 1 1 .6 1.1.9.5 2-.5-.2-.9-.6-1.6-.4-.7.2-.9.7-1.2 1.1-.2.4-.5.7-1 .9-.9.2-1 1-1.6 1.4-.9.7-2 .5-3 .8m8.8.9c-.6.3-.8.8-1 1.3-.4.9-.7 1-1.9.9-.6 0-1 .1-1.5.4-1.2.7-1.3.6-2.2-.3-.2-.2-.4-.3-.5-.5-.2-.5-.6-.9-1.2-1.3.7-.5 1.1-.3 1.6-.1.5.2 1.1.2 1.3-.2.5-1 1.7-.9 2.7-1 .8-.1 1.6 0 2.3 0 .3 0 .6.1.7.3.1.3-.1.4-.3.5m.8-28.2c-.3 0-.5-.1-.6-.3l-.1-.1c-.1-.7-.5-1.3-.8-1.9-.1-.1 0-.3 0-.4.1 0 .2-.1.3-.1.3.5.8.9 1.2 1.4.2.3.4.6.4.9 0 .2-.1.4-.4.5m28.7 14.8c0 .1 0 .2-.2.3-.4.2-.4.8-1.2.4-1-.5-1.1-.4-.9-1.2 0-.2 0-.4.1-.5 1 0 1.6.5 2.2 1m-4.5-13.7c.9.8 1.2 1.5 1.4 2.2.2.6.4 1.2.8 1.8.4.5.4 1.1.4 1.6 0 .3-.1.5-.5.6-.4.1-.7-.1-.8-.3-.6-1-1.5-1.9-1-3 .1-.2.1-.3 0-.4-.6-.7-.4-1.5-.3-2.5m-11.9 11.3c1.1-.6 1.3-.6 2.1.3.1.1.2.2.4.2 1.9.4 2.5 2.2 1.1 3.2-.3.2-.4.4-.6.6-.2.3-1.4.6-1.7.5-.1 0-.2-.1-.2-.1-.7-1-2-1.8-1.9-3-.1-.6 0-1.2.8-1.7m-8.9 13.9c.2-.1.5-.2.8-.3 1.1-.4 1.4-.2 1.4.6 0 .6-.4.8-1 .9-.6.1-1.3-.1-1.4-.5-.2-.3-.1-.5.2-.7m7.2 4.9c-.2.4-.8.5-1.2.6-1.6.6-3.1 1.2-4.8 1.6-.2.1-.5.1-.6.1-2-.1-2.3-.3-1.6-1.6.1-.3.4-.5.5-.8.1-.3.4-.5.9-.4.8.2 1.1-.2 1.4-.6.6-.7 1.1-1.3 2.4-1.3.5 0 .8-.3.8-.7 0-1 1-1.5 1.6-2.3.1-.2.4-.2.7-.1.5.3 1 .3 1.6.4 1.4.1 3 2.2 2.7 3.2-.2.5-.5.8-1.1 1-.5.2-1 .3-1.3-.1-.4-.5-1.1-.5-1.7-.6-.7-.1-.9.1-.8.6.2.3.8.6.5 1m.2 2.4c.4-.8 1.7-1.1 2.5-.7.4.2.5.4 0 .6-.7.2-1.5.4-2.1.5-.4 0-.5-.2-.4-.4m6.1 10.6c-.1.3-.4.3-.6.3-1.4-.2-2.7-.4-4-.6-.3-.1-.7-.2-.7-.5s.4-.4.7-.5c.5-.1 1-.2 1.6 0 .8.3 1.7.6 2.6.8.3.1.5.3.4.5m1-12.5c-.7.3-1.5.6-2.2.9-.3.1-.7.1-.9-.2-.2-.2-.2-.6.1-.7 1-.6 2-1.4 3.4-1.5.4 0 .6.1.6.4-.1.4-.4.8-1 1.1m4.5-10.2c-.3.5-.7.9-.3 1.5v.3c-.8-.2-1.5-.4-2.3-.5-.3 0-.6-.2-.9-.4-.4-.3-.4-.7.2-.9.3-.2.7-.2 1.1-.3.3 0 .7 0 1-.3-.5-.4-1.1-.3-1.6-.3-.4 0-.9.1-1.3-.2-.4-.3-.5-.9-1-1.2v-.2c1-.4.8-1.4 1.8-1.8.6-.2.9-.6 1.1-1.1.2-.6.7-.6 1.2-.3s.9.4 1.4 0c.4-.3.8-.2 1.2 0 1.3.5 1.9 1.5 2.7 2.3.1 0 .1.2 0 .2-.6 1-.9 2.1-2.2 2.8-.2.1-.5.2-.8.2-.4-.1-.9-.3-1.3.2m6.1 2.5c-.1.4-.1.8-.7 1v.4c.2.1.2.3.1.4-.7.9-2.2 1.5-3.5 1.3-.9-.1-1-.4-.5-1 .2-.2.3-.4.6-.5.6-.3.7-.7.6-1.2-.1-.3-.2-.7.4-.8.1-.1.2-.2.3-.4-.1-.1 0-.2.1-.2.5-.2 1-.2 1.5.1 1.1.1 1.3.2 1.1.9m2.9-4.7c-.3.5-.1.9-.2 1.4 0 .4-.3.9-.4 1.3-.2.5-.4.8-1.2.7-.8-.1-1.2-.5-1.1-1.1.1-.6.6-1.2.8-1.8.3-.8.9-1.4 1.1-2.3 1.1.5 1.5 1.1 1 1.8m-2.2-10.7c-.1-.1 0-.3.2-.4.2-.1.4 0 .5.1.5.4.5.8 0 1.3-.5-.3-.5-.7-.7-1m15.4 27.8c-1.1.4-1.1 1.6-2.4 1.8-.5.1-.8.5-1.2.8-.1.1-.4.2-.5.1-.3-.1-.2-.3-.1-.5.6-1 1.6-1.7 2.4-2.6.2-.2.7-.3 1.1-.4.5-.1.8.2.9.6-.1.1-.1.2-.2.2m10.1-11.1c-.6.9-.7 1.9-1.8 2.6-.9.5-1.3 1.3-1.8 2.1-.3.4-.5.8-.7 1.2-.2.5-.7.7-1.3.8.4-.5-.8-.9-.4-1.3.3-.4.8-.7.9-1.1.2-1 1.3-1.5 2.3-1.8.7-.2.9-.5.8-.9-.2-1.1.9-1.4 1.7-1.9.1-.1.3 0 .4 0-.1.1 0 .2-.1.3m.5-3.3l-.6 1.5c-.1.2-.2.4-.5.2-.2-.1-.2-.3-.1-.5s.2-.3.4-.5c.4-.3.6-.7.1-1.3.7.2.8.4.7.6m2.8-27c-.4.9-.6 1.8-1.5 2.5-.6.5-.9 1.3-.9 2.1 0 .4-.1.7-.1 1.1 0 .3 0 .7-.5.8-.6.2-.7-.3-.9-.5-.1-.1-.2-.3-.4-.3-.7-.2-1.1-.6-.9-1.2.1-.3-.1-.6-.4-.8-.6-.5-.6-1.1-.3-1.7.3-.6.6-1.2.5-1.8 0-.4.1-.7.6-.8v-.4c-.2-.3.2-.8-.4-1-.5-.1-1 .2-1.4.5-.3.3-.5.6-1.1.4-.6-.2-.8-.5-.8-.9v-.9c0-.1-.1-.3-.1-.4-1.2-.6-2-1.5-2.4-2.6-.4-.9-.8-1.8-1.9-2.5-.9-.5-1.2-1.3-1.6-2.1-.3-.6-.6-1.3-1.2-1.8-.2-.2-.3-.5-.3-.7.1-.4-.2-.5-.7-.6-.8 0-1.3-.3-1.5-.9-.1 0-.2-.1-.2-.1-.9-.1-1.2-.5-1.1-1.1l-.2-.2c-1-.6-1.9-1.3-1.4-2.4-.3-.2-.5-.4-.4-.7-.5-.4-1.1-.8-1.6-1.3-.1-.1-.4-.2-.4-.3.1-.9-.8-1.2-1.5-1.6-.7-.4-1.1-1-1.7-1.5-.1-.1-.2-.2-.2-.3.7-1.1-.6-1.9-.6-3 .1-.7-.6-1.4-.3-2.3.1-.3-.3-.4-.5-.7-.4-.5-.5-.9.1-1.4.6-.5 1.2-1.1 1.7-1.7.6-.7.4-1.2.1-1.8-.3-.5-.5-.9-.3-1.5.1-.3 0-.7 0-1-.1-.6 0-1.2.3-1.7s.7-1.1-.1-1.6c-.3-.2-.1-.5 0-.7.1-.4.3-.7.4-1.1.7-1.9 1.8-2.3 4.4-1.8.1-1.1-.7-2.1-.9-3.2 0-.3-.2-.5-.3-.8-.1-.4.1-.7.5-1 .4-.2.7-.1 1.1.1.5.2 1 .5 1.4.8.8.7 1.7 1.5 2.5 2.2.4.3.4.6.5 1 .1.5.2 1 .7 1.3 1.7 1.1 2.3 2.7 2.9 4.2.4 1 1.6 1.6 1.9 2.6l.1.1c1.8.2 1.4 1.4 1.7 2.3.3 1 .7 1.7 1.8 2.4.9.5 1.7 1.3 1.4 2.4-.1.2-.1.5.1.6.7.9 1.1 1.8 1.6 2.8.5.7.8 1.4.6 2.2-.2.7.2 1.5.5 2.2.5 1.2 1 2.3 1.2 3.6.1.7.3 1.3.2 2-.1.5.2 1 .4 1.5 1 2.1.7 4-1 5.8-.5.5-.8.9-.4 1.5.3.5-.1.9-.3 1.4-.1.2-.1.5.2.6.4.1.5-.2.6-.3.1-.2.1-.4.5-.4.5.1.7.6 1.3.6.3 0 .2.4.2.6-.1.4-.2.9-.2 1.3-.1.6 0 1.2.6 1.8.7.5.6 1.4.3 2.1"/><path class="st0" d="M223.9 99.1c-.9 5.5-.3 11.1 1.7 16.4.4 1 1.3 2.2 2.6 1.9.6-.1 1-.6 1.3-1.1 2.6-4.4-.4-9.6-3.5-13.9-.7 13 6.7 26.4 1.2 38.6a57.1 57.1 0 0 1 0-21.8c-.1 1.1-.3 2.2-.4 3.3-1-2.2-2-4.5-3-6.7-.3 7.3-.1 14.7.5 22 6.3-5.7 9.7-13.2 9.5-20.7-2.1 3.1-3.7 6.4-4.7 9.8.4-9.1-.3-18.2-2.1-27.1-1.6 4.7-.9 9.6-.3 14.4 2.2 17.3 2.7 34.7 1.2 52.1-.6 7.9-1.7 16-6.5 22.9-.3-2.4-.1-4.8.7-7.1-1.5 3.6-2 7.4-1.5 11.1 3.8-7.1 6.9-14.5 9.1-22-.9 4.3-1.9 8.7-2.8 13-1.8-6.6-1.7-13.5.2-20-4.8 5.3-7.4 11.9-7.5 18.5 4.4-12.1 6.2-24.7 5.1-37.3-.1-1.6-.6-3.5-2.5-4.1l-7.2 7.8c3 1.2 6.3-1.1 8.3-3.3 3.7-4.2 6.7-8.7 8.9-13.5.3 6.6 1.3 13.1 2.9 19.6-.9-2.8-.9-5.7.2-8.5 1.2-3 3.5-5.7 4.8-8.7 1.2-3 1.1-6.8-2-8.8-.4 8.9.5 17.9 2.4 26.7M227.8 381.6l-2 15.1c-.3 2.1 1.5 4.1 3.7 5.2s4.9 1.6 7.5 2c.8.1 1.7.3 2.5 0 1.3-.4 1.7-1.7 1.8-2.8.3-2 .3-4.4-1.7-5.7-2-1.3-5.9.3-4.9 2.1 1.7.8 4.1.3 5.1-1s.2-3.3-1.5-4c-1.8 1.9-2.6 4.4-2.3 6.8 4.5-2.4 4.4-8.5-.1-10.8-3.5 1.9-5.7 5.3-5.6 8.8 4.1-.3 7.8-3 8.4-6.2-3 2.1-4.9 5.2-5.1 8.3 1.8-.8 2.7-2.7 2.1-4.2-2.4.8-3.9 3.1-3.3 5.1 2.9-1.6 5.2-4.1 6.3-6.8-2.5.3-4.9 1.4-6.5 2.9l.6-2.1c2.2 2.3 7.4 2.3 9.5 0l1.8 1.7c1.5-.5.1-2.7-1.6-2.5-1.7.2-2.7 1.5-3.5 2.7 4-.4 7.6-2.6 9.2-5.5-1.5.4-2.8 1.3-3.6 2.4 1.6-1.2 2.7-2.9 2.9-4.7-3.8 1.8-6.5 4.9-7.2 8.3 1.8-.5 3.5-1.2 5-2.2-2.9 2.7-5.4 5.7-7.2 8.9 1.7-.1 3.3-1 3.8-2.3-1.5-.1-3.1-.2-4.6-.3-1 .7.6 1.9 1.9 1.9 1.3 0 2.9-.4 3.8.4 3.9 3.1 8.7 5.4 14 6.5-.4 1.5-3.2 2-4.8 1.1-1.6-1-2-2.7-1.7-4.3.3-1.6 1.1-3 1.6-4.5.9-2.8.4-5.8-1.3-8.4-2.8 2.1-4.5 5.2-4.5 8.3 1.9-1.9 3-4.2 3.2-6.6-1.6 4-2 8.3-1.4 12.4 2.3-1.8 4-4.1 4.9-6.6.1 2.4-.2 4.9-.8 7.3 1.2-2.8 2.1-5.7 2.5-8.7l-1.5 8.4 1.5-2.1c0 1.9.7 3.9 1.9 5.5 1.7-1.1 3.1-2.5 3.9-4.1.8 1 1.2 2.3 1 3.5 1.1-1.9 1.7-4 1.7-6-.7 3.7-1.9 7.3-3.6 10.8-.6-3.7-.6-7.5.2-11.1-.1 2.8 0 5.6.3 8.4l4.5-6.3c-.1 1.7-.3 3.5-.4 5.2.3-.8.6-1.7.9-2.5-.4 2.2-.5 4.4-.4 6.6l2.5-5.9c.2.8.4 1.6.7 2.4.2-3.3.4-6.6.5-9.8-.4 1.6-.8 3.2-1.3 4.8-3.1-11.4-7.1-22.7-12.2-33.7-.6 2-.6 4.1 0 6 .7-.8 2.2.3 2.7 1.2l8.2 17.3c2.7-3.3 4.2-7.2 4.2-11.1-3.2 6.4-5.7 13-7.6 19.7 1.2-5 2.7-10 4.6-14.9l1.8 11.7c1.1-4.5 2.3-9 3.4-13.5-.3 7.3-.5 14.6-.8 22 1.2-4.5 2.5-8.9 3.7-13.4-1.5 3.8-2.1 7.7-2 11.7l6.9-16.5c-1.3 3.6-2.6 7.3-4 10.9l.3-15.3c-.3 1.9-.7 3.7-1 5.6 1-3.9 2-7.9 2.9-11.8.5 3 .6 6 .3 9 1.3-3.3 2.5-6.5 3.8-9.8.6 3.3.8 6.6.4 9.9.5-3.3 1.1-6.5 1.6-9.8-1.5 4.7-3.2 9.2-5.3 13.7.2-3.8.9-7.6 1.9-11.2.1 2.4-.2 4.9-.7 7.3-.1 4.5-.1 9-.2 13.4 1.2-3.6 2-7.3 2.5-10.9-.3 2.2-.6 4.5-1 6.7.2-1.7.5-3.3.7-5-.7 3.6-1.4 7.3-2.2 10.9.9-2.7 2.1-5.4 3.6-8 .4 1.1.8 2.1 1.3 3.2.9-1.8 1.7-3.7 2.6-5.5-.5 2.8-1.1 5.5-1.6 8.3.1-2.4-.2-4.9-1.1-7.2-1.6 2.5-3.1 5-4.7 7.6-.2-4.6.4-9.1 1.9-13.5.2 1.4.4 2.7.6 4.1 1.8-3.2 3.6-6.4 5.4-9.5 1.3 2.2 1.3 4.9.2 7.1l.1-3.7c-2.3 4.9-4.5 9.8-6.5 14.8-.2.6-.4 1.2 0 1.7s1.7.4 1.6-.2M96.8 393.4c5.7-.6 10.5-4.3 11.4-8.8 1.6 1.9.2 4.5-1.7 6.2-2 1.7-4.5 3-5.8 5-.2.4-.4.8-.3 1.3.3 1.1 2.3 1.2 3.7.9 4.1-1.1 7-4.2 8.4-7.4 1.4-3.3 1.5-6.8 1.6-10.2l.3-13.5c.1-2.2.1-4.4-.5-6.6-1.6-5.2-7.1-9.7-6.2-15 3.3 2.7 4.1 6.8 3.6 10.6-.4 3.8-1.9 7.4-2.4 11.1-.5 4.6.5 9.2.4 13.9 0 4.6-1.4 9.6-5.6 12.7.6-5.4 1.3-10.9 1.9-16.3.2-1.3-.1-3-1.7-3.3-1.2-.2-2.2.7-2.8 1.5-1.3 1.8-2 3.8-2 5.9 0 1.1.9 2.6 2.2 2.3.6-.1 1-.6 1.3-1.1 2.1-3.2 3.3-6.6 3.7-10.2.2-2.3.1-4.6.9-6.8 1.3-3.8 4.9-6.7 7.8-9.9.8-.9 1.6-2 1.2-3.1-.4-1.1-2.7-1.5-3.1-.4M109.9 364.7c-.8 3.1-.8 6.3-.1 9.4M12.2 343.4c-.7-1.8.7-3.6 2.3-4.9 1.6-1.3 3.6-2.4 4.8-4 2.3-3.2.8-7.7 3.8-10.5M21.1 355.8c-1.8-3-3.4-6.2-3.8-9.5-.4-3.3.8-6.9 3.9-9.1 1.8-1.3 4.4-2.5 4-4.4-1.9 6.5-2.7 13.2-2.4 19.9-.4-1.3 0-2.6.2-3.9.1-1.3-.2-2.8-1.7-3.5-1.6-.7-4.3-.1-5.1-1.4-.5-.8 0-1.7.5-2.5l8.7-12.6"/><path class="st0" d="M26.6 340c-2.7.4-5.2 1.2-7.7 2.2-1.8.7-3.7 1.7-4.2 3.3-.5 1.6 1.7 3.4 3.4 2.6M12.6 345.1c-.1.5.5.9 1 .8M39.9 354.7c-.1.7.3 1.3 1 1.7M40.3 357.5c2.4 3.9 4.2 8 5.2 12.2.6 2.5 1 5.1 2.4 7.5.2.4.5.9 1 1.1 1.5.9 3.7-.2 4.5-1.5 1.2-2 .6-4.5-.8-6.4-1.4-1.9-3.6-3.4-5.8-4.9-.3-.2-.8-.5-1.2-.3-.7.2-.5 1-.3 1.5 1.3 2.4 2.9 4.7 4.8 6.9-.2-2.7-.6-5.4-1.2-8.1"/></svg>