<?xml version="1.0" encoding="utf-8"?>
<!-- Generator: Adobe Illustrator 19.2.1, SVG Export Plug-In . SVG Version: 6.00 Build 0)  -->
<svg version="1.1" id="Hair_Silhouette" xmlns="http://www.w3.org/2000/svg" xmlns:xlink="http://www.w3.org/1999/xlink" x="0px"
	 y="0px" viewBox="0 0 960 560" style="enable-background:new 0 0 960 560;" xml:space="preserve">
<style type="text/css">
	.st0{fill:#FFFFFF;}
</style>
<g id="Sillhouette">
	<path id="Face_1_" class="st0" d="M640.5,433.9c0-0.1,0-0.2,0-0.3c-0.3-0.5-0.5-1-0.3-1.5c0.2-0.4,0.1-0.8,0-1.2
		c-0.1-0.4-0.2-0.9,0.4-1.2c0-0.1,0-0.3,0-0.4c-0.6-0.2-0.7-0.5-0.2-0.9c0-0.3,0.1-0.6,0.1-0.8c-0.2-0.5-0.2-1-0.5-1.5
		c-0.1-0.2-0.1-0.5,0.3-0.6c0-0.2,0-0.4,0-0.6c-0.7-0.5-0.7-1.2-0.4-1.8c0-0.3-0.1-0.6-0.1-0.8c-0.6-0.6-0.6-0.8,0-1.4
		c0-0.4,0.1-0.9,0.1-1.3c-0.2-0.2-0.3-0.4-0.3-0.6c0.1-0.7,0.4-1.4-0.2-2.1c-0.1-0.1,0.2-0.3,0.5-0.2c0-0.1,0-0.3,0-0.4
		c-0.3-0.5-0.2-0.6,0.6-0.7c0-0.1,0.1-0.1,0.1-0.2c-0.3-0.8-0.5-1.5-0.8-2.3c0-0.1-0.1-0.2,0-0.2c0.6-1.9-0.6-3.7-0.5-5.6
		c0-0.4-0.3-0.6-0.4-0.9c-0.2-0.4-0.6-0.8-0.5-1.3c0-0.1-0.1-0.3-0.1-0.4c-0.8-0.1-1.2,0.3-1.1,0.9c0.4,2.2,0.4,4.4,0.4,6.7
		c0,0.7,0.3,1.3,0.4,2c0.1,0.3,0.2,0.6-0.1,1c-0.5-0.9-1.9-1.4-1.8-2.6c0-0.3-0.2-0.7-0.5-0.9c-0.8-0.6-1.1-1.3-1.2-2.1
		c-0.2-0.8-0.6-1.6-1.3-2.2c-0.2-0.2-0.5-0.4-0.4-0.6c0.4-0.7-0.2-1-0.7-1.4c-0.2-0.2-0.6-0.4-0.6-0.6c-0.5-1.5-1.8-2.7-2.7-4.1
		c-0.4-0.6-0.5-1.2,0.3-1.7c0.1,0,0.1-0.1,0.2-0.2c0.2-0.2,0.4-0.5,0-0.7c-0.3-0.2-0.5,0.1-0.7,0.3c-0.1,0.1-0.2,0.1-0.5,0.3
		c0.1-0.9-0.5-1.4-1.2-1.9c-0.6-0.4-1-0.9-1.3-1.5c-0.6-1-0.6-2.1,0-3.1c0.1-0.2,0.2-0.4,0.1-0.5c-0.7-1-0.9-2.1-2.1-3.1
		c-0.4,0.7-0.3,1.3-0.2,1.9c-0.9-0.8-1.9-1.6-2.5-2.6c-0.1-0.2-0.2-0.5,0.1-0.5c0.9-0.1,0.5-0.5,0.4-0.8c-0.2-0.5-0.5-1.1-0.7-1.6
		c-0.1-0.3-0.4-0.5-0.7-0.7c-0.6-0.2-0.9-0.7-1-1.2c-0.3-0.9-0.6-1.9-0.9-2.8c0.4-0.1,0.6,0.1,0.6,0.3c0.5,1,1.7,1.7,2.4,2.7
		c0.2,0.4,0.7,0.6,1.2,0.5c0.7-0.1,1.1,0.2,1.5,0.5c1.1,1.1,2.7,1.8,3.9,2.8c0.3-0.3,0.7-0.6,0.8-0.9c-0.1,0-0.1-0.1-0.2-0.1
		c-0.4-0.2-0.8-0.4-1.3-0.6c-0.2-0.1-0.6-0.3-0.5-0.5c0.3-0.6-0.3-1-0.6-1.4c-0.9-1.2-2.1-2.3-2.7-3.7c-0.1,0-0.1-0.1-0.2-0.1
		c-0.8-0.3-1.3-0.8-1.6-1.5c-0.3-0.7-1-1.4-1.3-2.1c-0.1-0.2-0.3-0.5-0.2-0.7c0.6-0.9,0.8-1.9,1.8-2.7c0.3-0.3,0.5-0.6,0.5-0.9
		c0-0.8,0.3-1.6,0.7-2.3c0.3-0.5,0.3-0.8-0.5-1c-0.2,0-0.4-0.1-0.3-0.3c0,0,0.1-0.1,0.1-0.1c1.7,0.1,2.2-0.2,2.3-1.5
		c0.1-0.4,0.3-0.7,0.5-1.1c0.6-0.8,0.9-1.6,1-2.5c0.2-1.1,0.2-2.2,0.9-3.3c0.6-0.9,0.6-1.9,0.6-2.9c0-0.6,0-1.1,0-1.7
		c0-0.2,0-0.5,0.1-0.7c1-1,0.5-2.2,0.8-3.3c0-0.2,0-0.4,0.1-0.5c1.4-0.8,0.5-1.8,0.4-2.7c0-0.1-0.2-0.3-0.1-0.4c0.5-1,0-1.9-0.5-2.8
		c-0.4-0.8-0.2-1.5,0.1-2.3c0.1-0.4,0.5-0.7,0.9-0.5c0.8,0.4,1.4,0.1,2,0c0.2,0,0.4,0,0.6,0l0,0c-0.2-0.4-0.2-0.8,0.4-1
		c0.5-0.2,0.3-0.4,0.2-0.7c-0.2-0.7-0.9-1.2-1-1.8c-0.1-0.6-0.5-0.9-1.2-0.9c-0.8,0-1.5-0.3-1.8-0.8c-0.5-1-1.2-2-0.8-3.1
		c0.2-0.4,0.2-0.9-0.1-1.2c-0.7-0.9-1-1.9-1.4-2.8c-0.3-0.7-0.5-1.4-0.2-2.1c0.2-0.4,0.1-0.7-0.2-0.9c-0.2-0.2-0.4-0.4-0.5-0.6
		c-0.3-0.6-0.1-1,0.7-1.6c0.6-0.5,1.1-0.2,1.6,0c0.3,0.1,0.6,0.3,0.9,0.4c0.4,0.2,0.9,0.4,1.4,0.4c0.2,0,0.4,0,0.5-0.2
		c0.1-0.1,0-0.3-0.1-0.4c-0.3-0.2-0.6-0.3-0.8-0.5c-0.9-0.6-2.1-1-2.8-1.6c-0.7-0.6-0.7-1.7-1.2-2.5c-0.4-0.6-0.9-1.1,0.3-1.6
		c0.1,0,0.2-0.2,0.2-0.3c0-0.5,0.3-0.7,1-0.8c0.6-0.1,0.7-0.3,0.6-0.8c-0.2-0.7-0.3-1.3-1.1-1.7c-0.3-0.1-0.4-0.4-0.5-0.7
		c-0.6-0.7-1-1.4-1.7-2.1c-1.2-1.1-1.1-1.3,0.3-2.3c-1.1-0.6-1.8-1.4-1.8-2.4c0-0.3-0.2-0.5-0.5-0.7c-0.9-0.4-1.3-1-1.8-1.6
		c-0.8-0.9-1.9-1.5-2.7-2.3c-0.8-0.8-1.4-1.7-2.2-2.5c-1.3-1.2-2.2-2.7-2.3-4.4c0-0.3-0.2-0.4-0.5-0.5c-0.7,0-0.9-0.3-0.8-0.8
		c0-0.1-0.1-0.2-0.1-0.3c-1.3-1.5-2.5-2.9-3.8-4.4c0.3,0.1,0.7,0.1,0.8-0.3c0.1-0.3-0.2-0.4-0.5-0.5c-0.3-0.1-0.6-0.2-1-0.3
		c-0.3-0.1-0.6-0.3-0.7-0.6c-0.1-0.5-0.4-0.9-0.7-1.3c-0.2-0.3-0.2-0.7,0.4-0.8c0.3-0.1,0.6-0.2,0.7-0.5c0.3-0.8-0.6-1.4-0.7-2.2
		c-1.3-0.6-1.6-1.8-2.5-2.7c-0.6-0.6-0.6-1.4-1.1-2c-0.3,0.1-0.4,0.2-0.4,0.4c0,0.2,0.2,0.5-0.2,0.6c-0.4,0.1-0.6-0.2-0.8-0.4
		c-0.7-0.8-1.1-1.8-1.3-2.7c-0.1-0.3-0.1-0.7,0.3-0.9c0.6-0.4,0.5-0.8,0-1.2c-0.2-0.1-0.4-0.3-0.4-0.5c-0.2-0.6-0.8-1-1.4-1.4
		c-0.6-0.3-0.2-1.1-0.8-1.6c-0.9-0.8-1.2-1.8-1.3-2.8c-0.1-0.7-0.3-1.3-1-1.8c-0.6-0.4-0.8-1.1-1.5-1.5c-0.3-0.2-0.2-0.4-0.1-0.6
		c0.4-0.7,0.1-1.4-0.5-2c-1-1.2-1.3-2.6-2.2-3.8c-0.1-0.1-0.1-0.4-0.1-0.5c0.2-1.6-1.1-2.7-2.5-3.7c0.8-0.7,1-1.5,0.5-2.3
		c-0.4-0.6-0.7-1.1-0.2-1.8c0.3-0.3,0-0.6-0.2-0.8c-1-1.3-0.8-2.8-0.8-4.2c0-1.1-0.5-2-1.2-2.8c-0.3-0.4-0.7-0.7-0.7-1.2
		c0-0.2-0.1-0.3-0.6-0.3c-1,0.1-1.6-0.2-1.7-1c-0.1-0.6-0.1-1.1-0.2-1.7c-0.3-1.5-0.7-2.9-0.2-4.4c0.1-0.2,0.1-0.5,0-0.7
		c-0.5-1.4-0.9-2.7-1.3-4.1c-0.4-1.2-0.1-2.3-0.8-3.5c1.5,0.2,1.6,0.3,1.7,1.1c0.1,0.4,0,0.8,0.1,1.2c0,0.3-0.1,0.7,0.5,0.7
		c0.5,0,0.8-0.3,0.9-0.6c0.1-0.2,0.1-0.5,0-0.7c-0.2-0.8-0.1-1.6-0.9-2.2c-0.3-0.2-0.3-0.6-0.3-1c0-1.5-1.3-2.8-1.1-4.3
		c0-0.1-0.1-0.3-0.2-0.4c-0.3-0.9-0.6-1.9-0.3-2.9c0.1-0.5,0-1-0.2-1.5c-0.5-1-0.8-2-1-3c-0.1-0.5,0.1-0.7,0.7-0.8
		c0.7-0.1,1.4-0.2,2-0.5c0.4-0.2,0.6-0.4,0.3-0.8c-0.9-1.5-1.1-3-1.1-4.6c0-1.3,0.1-2.6-0.4-3.9c-0.5-1.3-1.5-2.5-1.4-3.8
		c0-0.1-0.1-0.2-0.2-0.3c-0.4-0.5-0.5-1-0.4-1.5c0-0.3,0.1-0.7-0.2-1c-0.5-0.7-0.4-1.4-0.4-2.2c-0.1-1.5-0.5-2.8-1.2-4.2
		c-0.7-1.5-2-2.8-2-4.4c0-0.2-0.1-0.4-0.3-0.5c-0.4-0.4-0.6-0.8-0.7-1.2c-0.5-1.7-1.3-3.3-1.4-5c0-0.6-0.1-1.2-0.7-1.7
		c-0.3-0.3-0.4-0.7-0.1-1c0.4-0.5,0.3-0.9-0.2-1.3c-0.3-0.2-0.4-0.5-0.3-0.8c0.3-1.1-0.7-2.1-0.8-3.2c0-0.1-0.2-0.2-0.3-0.3
		c-0.5-0.4-0.7-0.8-0.3-1.3c0.2-0.3,0-0.6-0.2-0.8c-0.3-0.4-0.8-0.8-1.2-1.1c-0.7-0.5-0.7-0.9,0-1.4c0.8-0.6,0.7-1.1-0.3-1.4
		c-0.5-0.2-0.9-0.4-1-0.7c-0.7-1.6-1.7-3.2-1.9-4.9c-0.2-1.8-1-3.6-0.6-5.4c0-0.2,0-0.5-0.2-0.6c-0.7-1-0.8-2.1-1-3.1
		c-0.1-0.9-0.4-1.8-0.9-2.7c-0.6-1-0.9-2.1-0.1-3.2c0.4-0.5,0.1-1-0.3-1.5c-1.5-1.9-1.7-4.1-2.7-6.1c-0.1-0.1,0-0.2-0.1-0.3
		c0-0.4-0.1-0.7-0.4-1.1c-0.6-0.7-0.4-1.3,0.3-1.8c0.2-0.2,0.5-0.3,0.4-0.5c-0.4-0.8-0.3-1.7-1.2-2.4c-1.1-0.9-1.6-2-2.1-3.2
		c-0.1-0.2-0.2-0.4-0.1-0.7c0.2-1.1-0.3-2-1.1-2.8c-0.4-0.4-0.7-0.8-0.3-1.3c0.2-0.2,0.2-0.5-0.1-0.7c-1-0.8-1.4-1.7-1.2-2.7
		c0.1-0.8-0.4-1.1-1.5-1.2c-0.5,0-1.1,0-1.5-0.4c-0.9-0.8-1.6-1.7-2.1-2.7c-0.6-1.1-0.6-2.3-1.3-3.4c-0.1-0.2-0.1-0.4,0.1-0.5
		c0.2-0.1,0.5-0.1,0.7-0.1c0.4,0.1,0.7,0.3,0.9,0.6c0.2,0.2,0.3,0.4,0.8,0.3c-0.2-0.5-0.2-1.1-0.7-1.5c-0.7-0.7-1.2-1.4-1.4-2.3
		c-0.1-0.3-0.5-0.6-0.1-0.8c0.4-0.2,0.8,0.1,1.2,0.3c0.3,0.1,0.5,0.4,0.6,0.6c0.2,0.5,0.6,0.8,1,1.1c0.4,0.3,0.9,0.6,1.1,1.1
		c0.2,0.4,0.5,0.6,1.1,0.7c-0.1-0.9-0.3-1.7-0.9-2.4c-0.9-1.1-1.7-2.2-2.8-3.2c-1.1-1-2.4-1.9-3.5-2.9c-0.6-0.6-1.4-1-1.3-1.8
		c0-0.2-0.2-0.4-0.5-0.5c-0.4-0.1-0.4,0.2-0.5,0.4c-0.3,0.5-0.8,0.5-1.2,0.2c-0.5-0.3-0.4-0.6,0.1-0.9c0.8-0.5,0.8-0.7,0.1-1.4
		c-0.4-0.4-0.7-0.7-0.7-1.2c0-0.6-0.4-0.9-1.1-1c-0.8-0.2-1.2-0.6-1.3-1.3c0-0.4-0.2-0.8-0.2-1.2c0-0.2,0-0.4,0-0.6
		c-1,0.3-2.1-0.1-2.8-0.1c-3.2-3.1-6.8-5.6-10.7-7.7c-6.4-1-12.7-3-17.9-5.9c-0.1,0.1-0.1,0.1-0.2,0.2c-0.9,1.3-3.9-0.9-4.6-3.4
		c-0.5-0.4-1-0.8-1.4-1.2c-0.3-0.2-0.7-0.3-1-0.5c-1.6-0.4-3.1-1-4.3-2c-0.3,0.1-0.7,0.1-1.2-0.1c-1.2-0.4-2.3-0.5-3.4-0.2
		c-0.7,0.2-1.4,0-1.9-0.4c-0.6-0.4-1.1-0.7-1.6,0.1c-0.1,0.2-0.5,0.2-0.8,0.3c-2.1,0.1-4.2-0.3-6.1-0.9c-0.6-0.2-1.1-0.3-1.6,0
		c-0.6,0.3-1.2,0.2-1.5-0.3c-0.7-1-1.8-1.1-3-0.9c-0.7,0.1-1.3,0.1-2,0.1c-1.4-0.1-2.9,0.1-4.2-0.4c-0.2-0.1-0.4,0-0.6,0
		c-1.5,0.1-3,0.2-4.6,0.1c-1.3-0.1-2.7,0-4-0.2c-1.2-0.1-2.5,0-3.4-0.8c-0.3-0.2-0.7-0.1-0.9,0.1c-0.5,0.3-1.2,0.4-1.8,0.3
		c-2-0.2-3.7,0.4-5.4,0.9c-0.5,0.1-0.9,0.3-1.3,0.5c-0.2,0.1-0.3,0.2-0.2,0.4c0.1,0.2,0.3,0.2,0.5,0.2c0.5-0.1,1-0.2,1.6-0.3
		c0.8-0.1,1.2,0.6,1.9,0.5c0.7-0.1,1.3-0.5,2.1-0.4c0,0,0.1,0,0.1,0c1.4-0.1,2.6,0.4,4,0.7c-1.6,0.3-3.2,0.1-4.6,0.8
		c-0.1,0.1-0.4,0-0.6,0c-2.2-0.1-4.3,0.3-6.4,0.5c-2.8,0.3-5.6,0.8-8.4,1.2c-2.4,0.3-4.9,0.4-7.3,0.8c-1.2,0.2-2.3,0.7-3.5,0.9
		c-3.4,0.6-6.8,1.2-10.1,2c-1,0.2-1.7,0.8-2.6,1c-1.9,0.4-3.7,0.8-5.3,1.5c-1.1,0.4-2.4,0.6-3.3,1.1c-1,0.6-2.1,0.9-3,1.5
		c-0.8,0.4-0.8,0.4,0,0.9c-0.2,0.3-0.6,0.3-0.9,0.4c-1.4,0.6-2.9,1-3.8,2.2c-0.4,0.5-1.1,0.7-1.8,0.9c-1.5,0.3-2.5,1.3-4.1,1.5
		c-0.2,0-0.3,0.2-0.4,0.3c-0.3,0.5-0.8,0.7-1.3,1c-1.5,0.9-2.6,2.1-3.8,3.3c-0.1,0.1-0.2,0.2-0.2,0.3c-0.1,0.2-0.2,0.5,0.1,0.6
		c0.2,0.1,0.5,0,0.7-0.1c0.5-0.4,0.9-0.8,1.5-1.1c1.6-1,2.6-2.4,4.7-3c1.4-1.3,3.6-1.8,5.4-2.7c0.5-0.2,1-0.3,1.5-0.4
		c0.1-0.3,0.2-0.8,0.9-0.7c0.4,0,1.3,1.2,1.1,1.4c-0.5,0.7-0.8,1.5-1.7,1.9c-0.6,0.3-1,0.6-1.4,1c-0.5,0.5-1.1,1-1.7,1.3
		c-0.2,0.1-0.5,0.1-0.7,0c-0.2-0.1-0.1-0.3,0-0.4c0.2-0.2,0.5-0.4,0.1-0.7c-0.3-0.2-0.7-0.1-1,0c-0.3,0.1-0.5,0.3-0.8,0.5
		c-1.4,0.8-2.4,2-3.8,2.8c-1.5,0.9-2.7,2.1-4.1,3.2c-0.7,0.5-0.9,1.3-1.6,1.9c-1.5,1.3-3,2.6-4.1,4.2c-0.6,0.8-1.4,1.4-2.6,1.7
		c-0.2,0.1-0.5,0.1-0.6,0.3c-0.5,1.2-2,2-2.8,3.1c-0.2,0.2-0.4,0.4-0.7,0.5c-0.2,0.1-0.5,0.1-0.7,0c-0.2-0.2-0.1-0.3,0-0.5
		c0.3-0.4,0.7-0.7,0.7-1.1c0-0.2,0.2-0.6-0.3-0.7c-0.3-0.1-0.5,0.2-0.6,0.4c-0.2,0.6-0.7,1-1.2,1.4c-0.5,0.4-0.9,0.9-1.1,1.4
		c-0.2,0.4-0.5,0.9-1.2,1c0.5-1.6,0.5-1.6,0.1-2.2c-1.7,1-2.3,2.4-3,3.8c-0.7,1.4-1.1,2.9-1.9,4.3c-0.8,1.3-1.9,2.5-2.6,3.8
		c-0.3,0.6-0.7,1.2-0.5,1.9c0.3,0.9,0.1,1.7-0.8,2.3c-0.4,0.3-0.6,0.6-0.6,1c0,0.9,0,1.9,0.2,2.8c0.1,0.5,0.1,1-0.1,1.5
		c-0.1,0.2-0.3,0.4-0.2,0.6c0.4,0.8,0,1.5-0.2,2.2c-0.5,1.7-1.9,3.2-1.7,5c0,0,0,0.1,0,0.1c-0.8,1-0.8,2.1-1.3,3.2
		c-0.5,0.9-0.9,1.8-0.8,2.8c0,0.2-0.1,0.5-0.3,0.7c-1,1.7-1,3.5-0.8,5.3c0.2,1.3,0.1,2.6-0.7,3.8c-0.3,0.5-0.4,1.1-0.2,1.6
		c0.1,0.4,0.1,0.7-0.3,1c-1,0.9-1.3,2.1-1.5,3.2c0,0.3,0.1,0.5-0.1,0.8c-1,1-1.3,2.1-1.7,3.3c-0.3,0.9-0.4,1.8,0.1,2.7
		c0.2,0.4,0.4,0.8-0.1,1.1c-0.6,0.4-0.7,0.9-0.7,1.4c0,0.3,0,0.5-0.3,0.7c-0.8,0.7-0.7,1.4-0.3,2.2c0.3,0.5,0.3,0.9-0.3,1.3
		c-0.2,0.2-0.5,0.3-0.3,0.6c0.4,0.6,0.1,1.1-0.4,1.5c-0.2,0.2-0.3,0.4-0.2,0.6c0.6,1.3-0.5,2.4-1,3.5c-0.3,0.7-0.8,1.4-1.3,2.1
		c-0.8,1.1-0.6,1.5,0.5,2.2c-1.6,0.1-1.2,0.9-1.1,1.6c0.1,0.6,0.2,1.1,0.5,1.6c0.2,0.3,0.2,0.6,0.2,1c0,0.6-0.9,0.8-0.9,1.3
		c0,0.5,0.7,1,0.4,1.6c-0.1,0.3-0.1,0.6-0.2,0.9c-0.2,0.7-0.5,1.4-0.6,2.1c-0.2,1.3-0.4,2.6-1.4,3.7c-0.1,0.2-0.1,0.4-0.1,0.6
		c0,0.8-0.1,1.6,0.1,2.3c0.2,0.5,0.2,1.1-0.1,1.5c-0.3,0.5-0.2,0.8,0,1.3c0.2,0.4,0.4,0.8,0.5,1.2c0.3,1.2,0.7,2.4,0.3,3.5
		c-0.5,1.6-0.7,3.2-0.8,4.9c0,0.6,0.3,1.1,0.1,1.7c-0.4,1.2,0.3,2.5-0.6,3.7c-0.2,0.3,0,0.6,0.1,0.9c0.6,1.4,0.5,2.8,0.4,4.2
		c-0.1,2.3-0.4,4.7,0.1,7c0,0.2,0,0.5,0,0.7c-0.3,0.9-0.2,1.7,0,2.5c0.2,0.9,0.3,1.7,0.1,2.6c-0.2,1.2,0.1,2.5-0.1,3.7
		c-0.1,0.8-0.2,1.5,0.2,2.2c0.4,0.7,0.3,1.6,0,2.2c-0.6,1.1-0.4,2.2-0.3,3.3c0.1,1.3,0.2,2.6-0.3,3.9c-0.1,0.3-0.1,0.6,0,0.9
		c0.3,0.7,0.2,1.4,0.1,2.1c-0.1,0.9-0.2,1.7-0.2,2.6c0,0.6-0.1,1.2-0.3,1.8c-0.2,0.8-0.3,1.5-0.4,2.3c-0.1,2.5-0.7,5-1.1,7.4
		c-0.2,1.1-1.1,2.3-0.4,3.5c0.1,0.1,0,0.3,0,0.4c-0.2,0.7-0.2,1.4-0.5,2.1c-0.5,0.9-0.8,1.8-1.2,2.8c-0.4,1-0.8,2.1-1,3.1
		c-0.1,0.4-0.3,0.8,0,1.2c0.7,1.1,0.3,2.2-0.4,3.2c-0.5,0.7-0.6,1.5-0.2,2.2c0.6,1.2,0.3,2.4-0.3,3.5c-0.6,1.3-1.5,2.5-1.2,4
		c0.1,0.4,0,0.8-0.3,1.1c-0.8,0.8-1,1.8-1.6,2.6c-0.3,0.5-0.4,1-0.3,1.5c0.1,1.3,0.6,2.6-0.2,3.8c-0.2,0.4-0.3,0.9-0.2,1.3
		c0.2,1.3-0.2,2.4-0.9,3.6c-0.3,0.5-0.5,1-0.1,1.5c0.2,0.4,0.2,0.7,0,1.1c-0.2,0.5-0.3,1-0.2,1.5c0.1,0.2,0.1,0.5-0.1,0.7
		c-1.1,1.2-0.9,2.5-0.9,3.9c-0.1,1.8,0.1,3.7-0.8,5.5c-1,2-1,4.2-1.4,6.2c-0.4,1.9-0.6,3.8-1,5.8c-0.2,0.8-0.6,1.6-0.6,2.4
		c-0.1,1.7-0.8,3.4-1.8,4.9c-0.3,0.5-0.4,0.9-0.1,1.4c1,1.4,0.8,2.9,0,4.3c-0.3,0.5-0.5,1.1-0.5,1.7c0,0.6-0.1,1.2-0.3,1.8
		c-0.6,1.7-1,3.5-1.4,5.2c-0.3,1.3-1.1,2.7-0.5,4.1c0.1,0.2,0,0.4-0.1,0.5c-0.4,0.8-0.5,1.7-0.9,2.6c-0.4,0.8-0.2,1.8-0.7,2.6
		c-0.1,0.1,0,0.4,0,0.6c0.2,1.6-0.7,3.1-0.3,4.7c0,0,0,0.1,0,0.1c-0.5,0.9-0.3,1.9-0.2,2.9c0.1,0.4-0.1,0.8-0.1,1.1
		c-0.1,0.9-0.6,1.8-0.2,2.7c0.3,0.9,0.3,1.8,0.7,2.7c-0.7,0.8-0.2,1.9-0.6,2.7c-0.9,1.9-0.3,3.9-0.9,5.8c-0.1,0.4,0.1,0.8,0.2,1.2
		c0.1,0.4,0.4,0.9,0.4,1.3c0,1.3-0.6,2.5,0.4,3.8c0.1,0.1,0.1,0.3,0,0.4c-0.4,1.3,0.8,2.3,1,3.4c0,0.3,0.4,0.4,0.8,0.4
		c0.5,0,0.4-0.3,0.4-0.6c0-1.2-0.1-2.4-0.4-3.6c-0.1-0.4,0-0.7,0.5-0.8c0.4-0.1,0.8,0.1,1,0.3c0.6,0.6,1.2,1.3,1,2.1
		c-0.2,0.6,0.1,1.1,0.5,1.7c0.9,1.5,2,2.9,1.8,4.7c0,0.4,0.2,0.7,0.4,1c0.3,0.4,0.8,0.4,1,0c0.5-0.7,0.4-1.4-0.1-2.1
		c-0.4-0.5-1-1-0.8-1.6c0.3-1.3,0-2.4-0.7-3.6c-0.2-0.4-0.3-0.9-0.1-1.3c0.2-0.5,0.2-1.1,0-1.5c-0.9-1.6-0.5-3.2-0.4-4.9
		c0-1.4,0.2-2.7-0.8-3.9c-0.3-0.3-0.3-0.7-0.2-1.1c0.1-0.5,0-1,0.1-1.4c0.2-0.9-0.1-1.9,1.1-2.5c0.4-0.2,0.1-0.5-0.1-0.8
		c-0.4-0.7,0.1-1.4,0-2.1c1-0.8,0.6-1.8,0.7-2.7c0.1-0.5-0.1-1-0.6-1.4c-0.6-0.4-0.5-0.8,0-1.1c0.3-0.2,0.7-0.5,0.2-0.8
		c-0.1-0.1-0.1-0.2,0-0.3c0.6-0.4,0.3-0.8,0.2-1.2c-0.2-0.6-0.1-1.2,0.2-1.8c0.5-0.9,1.2-1.9,0.4-3c-0.3-0.4,0.1-0.6,0.5-0.8
		c0.9-0.5,1-1.3,0.8-1.9c-0.5-1.2-0.3-2.3,0.5-3.4c0.7-1,0.6-1.1,2.2-1c0.1,0,0.1-0.1,0.2-0.1c0.1,0.2-0.1,0.1-0.2,0.1
		c0.2,0.2,0.4,0.4,0.8,0.4c0.9,0,1.4,0.5,2,1c0.8,0.7,1.1,1.5,1.7,2.2c1.1,1.3,0.9,3-0.4,4.1c-0.3,0.3-0.7,0.7-1.2,0.5
		c-0.5-0.2-0.6-0.7-0.8-1c-0.1-0.2,0.1-0.3,0.2-0.4c0.2-0.2,0-0.3-0.2-0.4c-0.5-0.2-1-0.2-1.4,0c-0.7,0.5-1.3,0.3-2-0.1
		c-0.5-0.3-1-0.1-1.1,0.2c-0.2,0.4,0.4,0.4,0.7,0.5c1.7,0.4,2.1,1.4,0.9,2.5c0.9,0.2,1.1,0.6,0.9,1.2c-0.4,1.1-0.1,2.2-0.3,3.3
		c-0.1,0.3,0,0.6-0.2,0.9c-0.6,0.7-0.3,1.2,0.5,1.7c0.6,0.4,0.8,0.8,0.4,1.4c-0.4,0.7-0.3,1.5-0.2,2.2c0.1,0.4,0.3,0.8,1,1.1
		c0.4-0.7,0.8-1.4,0.7-2.2c0-0.8,0-1.7,0.7-2.5c0.5-0.5,1.1-0.6,1.5,0c0.3,0.5,0.8,0.9,1.4,1.3c0.3,0.2,0.4,0.4,0,0.7
		c-0.9,0.7-0.8,0.7-0.3,1.6c0.4,0.7,0.8,1.4,0.4,2.2c-0.4,0.7-0.2,1.1,0.4,1.6c1.1,0.9,1.6,1.9,0.8,3c0,0.1-0.1,0.2-0.1,0.2
		c0.6,0.9-0.2,1.7-0.5,2.5c-0.1,0.3,0,0.5,0.2,0.7c1,1,1.8,2,1,3.3c-0.1,0.2-0.1,0.4-0.1,0.5c0,0.4,0.3,0.7,0.8,0.6
		c1.2-0.1,1.5,0.4,1.8,1.1c0.5,1.5,1.1,3,1.2,4.5c0,0.2,0.1,0.4,0.2,0.5c0.7,1.2,0.4,2.5,1.1,3.7c0.1,0.1,0,0.2,0,0.3
		c-0.1,0.7-0.3,0.8-1.1,0.5c-0.3-0.1-0.7-0.2-1,0c-0.3,0.2-0.4,0.5-0.2,0.7c0.6,0.7,0.1,1.2-0.4,1.7c-0.2,0.1-0.4,0.3-0.5,0.4
		c-0.3,0.3-0.1,1.3,0.4,1.5c0.7,0.3,0.8-0.2,1-0.5c0.3-0.4,0.8-0.4,1.2,0c0.5,0.6,0.4,1.2,0.4,1.8c0,0.2-0.2,0.3-0.4,0.3
		c-1.3,0.1-1.1,0.8-1.1,1.4c-0.1,0.9,0,1.8,0.6,2.6c0.2,0.3,0.2,0.6,0.3,0.9c0.1,0.3,0.1,0.5-0.4,0.6c-0.5,0.1-0.5,0.5-0.2,0.7
		c0.5,0.4,0.5,0.8,0.4,1.2c-0.1,0.7-0.2,1.4-0.3,2.1c-0.2,0.9-0.1,1.6,0.6,2.3c0.4,0.3,0.3,0.5-0.2,0.8c-1.1,0.6-1.2,1.1-0.7,2
		c0.1,0.2,0.2,0.4-0.1,0.6c-0.3,0.2-0.5,0.1-0.8,0c-0.7-0.3-1.4-0.6-1.8-1.1c-0.2-0.2-0.3-0.5-0.7-0.5c-1.2,0-1.3-0.7-1.5-1.3
		c-0.1-0.3-0.2-0.7-0.4-1c-0.3-0.4-0.4-0.8-0.1-1.3c0.1-0.2,0.3-0.4,0-0.6c-0.7-0.6-0.9-1.4-1.7-2c-1-0.7-1.4-1.6-1.5-2.6
		c-0.1-1-0.9-1.9-1.4-2.8c-0.1-0.2-0.5-0.5-0.8-0.6c-0.6-0.3-1.1-0.2-1.2,0.4c-0.1,0.8,0,1.6,0.7,2.2c1.1,0.9,1.6,2,2.2,3.2
		c0.3,0.6,1.2,1.2,0.6,2c-0.1,0.1,0.1,0.3,0.3,0.3c0.8,0.2,0.8,0.7,0.8,1.2c0,0.4,0,0.9,0,1.3c0,0.3,0,0.6,0.2,0.7
		c1.6,1,2.2,2.6,3.7,3.7c0.2,0.2,0.4,0.4,0.3,0.6c-0.5,0.9,0.2,1.8-0.2,2.8c-0.2,0.5,0,0.9,0.6,1.2c0.5,0.2,1,0.4,1.5,0.6
		c0.3-0.4,0-0.6-0.2-0.9c-0.2-0.3-0.3-0.6-0.2-1c0-0.3,0.3-0.5,0.6-0.3c0.7,0.4,1.6,0.8,1.7,1.6c0.1,0.3,0.1,0.5,0.3,0.7
		c0.9,0.8,1.3,1.7,1.5,2.7c0.1,0.4,0.8,0.8,0,1.1c-0.7,0.2-0.6-0.4-0.9-0.7c-0.3-0.3-0.6-0.6-1.1-0.3c-0.4,0.2-0.4,0.6-0.2,0.9
		c0.3,0.4,0.8,0.6,0.9,1c0.1,0.5,0.5,0.8,1,1.1c0.8,0.5,0.8,0.5,0,1.2c-0.2,0.2-0.2,0.3-0.2,0.5c-0.1,0.2-0.2,0.5-0.5,0.5
		c-1.1,0.1-1.9,0.9-3.2,0.6c-0.5-0.1-1.1,0-1.2,0.6c-0.1,0.5,0.4,0.7,0.9,0.9c0.7,0.2,1.4,0.4,2.1,0.5c0.7,0.2,1.1,0.5,1.5,1
		c0.9,1.4,1.3,2.7,0.4,4.2c-0.2,0.4,0,0.6,0.6,0.5c0.7-0.1,1.3-0.4,1.9-0.5c1.7-0.3,3.3,0.2,4.9,0.5c0.2,0,0.4,0.2,0.5,0.4
		c0.5,0.5,1.1,0.9,1.9,0.9c0.5,0,0.9,0.3,1.1,0.7c0.1,0.2,0.3,0.5,0.5,0.7c0.5,0.7,0.6,0.7-0.1,1.3c0.2,0.3,0.6,0.3,0.8,0.5
		c0.3,0.2,0.6,0.4,0.9,0.6c0.4,0.4,0.8,0.5,1.5,0.4c1-0.2,2.3,0.4,2.6,1.1c0.2,0.6,0.4,1.3,0.5,1.9c-1.1,0.1-2,0.2-2.7-0.6
		c-0.1-0.1-0.4-0.1-0.6,0c-0.3,0.1-0.3,0.3-0.3,0.5c0,0.2,0.1,0.4,0.3,0.5c0.7,0.7,0.5,1.5,0.5,2.4c0,0.5-0.4,0.7-0.8,0.6
		c-1-0.1-2,0.1-2.9-0.1c-0.6-0.1-1.3-0.1-1.9,0.1c-1.2,0.4-2.1,0-2.9-0.6c-0.7-0.5-1.4-1.1-2-1.6c-0.3-0.2-0.5-0.4-0.9-0.6
		c-0.6-0.3-0.9,0-1.3,0.3c-0.4,0.3-0.5,0.5-0.3,0.9c0.4,0.6,1.1,1,1.9,1.2c0.5,0.2,1.2,0.3,1.5,0.7c0.5,0.6,1.1,0.8,1.9,0.9
		c0.7,0,1.1,0.5,1.3,0.9c0.2,0.3,0,0.5-0.4,0.5c-0.7,0-1.5-0.1-2.1-0.3c-1.2-0.5-2.5-1-3.8-1.6c-0.3-0.1-0.6-0.3-1,0
		c-0.3,0.2-0.2,0.5-0.1,0.7c0.2,0.4,0.5,0.8,1,1.1c1.5,0.7,3,1.4,4.5,2.1c0.6,0.3,0.9,0.6,0.8,1.1c-0.1,0.4-1.4,1.1-2,1.1
		c-0.9,0-1.3-0.1-1.6-1c-0.2-0.6-0.6-0.9-1.4-0.9c-0.6,0-1.1-0.2-1.5,0.3c-0.2,0.3-0.7,0.3-1.1,0.3c-1.7,0-3.2-0.4-4.2-1.5
		c-0.3-0.3-0.5-0.6-0.8-0.8c-0.4-0.3-0.8-0.5-1.3-0.1c-0.4,0.3-0.4,0.6-0.1,0.9c0.9,0.8,1.2,2,2.4,2.7c0.5,0.3,0.7,0.6-0.2,0.8
		c-0.5,0.1-0.2,0.5,0.1,0.6c0.8,0.5,1.6,1,2.6,1.2c0.6,0.1,1.2,0.2,1.6,0.6c0.6,0.7,1.5,1,2.5,1.1c0.2,0,0.5,0.1,0.6,0.3
		c0.3,0.1,0.7,0.2,1,0.3c1.1,0.1,1.8,0.5,2.2,1.2c0.2,0.1,0.3,0.2,0.5,0.3c0.7,0.2,1,0.6,1.1,1.1c0.3,1,0.5,1,1.8,1
		c0.5,0,1,0,1.2,0.4c0.1,0.2,0.2,0.4-0.1,0.6c-0.7,0.6-0.8,2-0.2,2.6c0.2,0.2,0.5,0.5,0.8,0.3c0.8-0.3,1.2,0.1,1.7,0.4
		c0.6,0.3,1.1,0.8,1.7,1c0.4,0.2,0.7,0.5,0.4,0.7c-0.4,0.4-0.5,0.8-0.1,1.3c0.2,0.2-0.3,0.4-0.5,0.3c-1-0.6-2.1-0.5-3.2-0.7
		c-0.7-0.1-1.1-0.4-1.5-0.8c-0.2-0.2-0.3-0.5-0.8-0.7c-0.6,0.6-0.4,1.3-0.7,2c-0.1,0.3,0.4,0.5,0.8,0.5c1.3,0.2,2.6,0.5,3.9,0.4
		c0.9-0.1,1.9,0,2.8,0.3c1.1,0.3,2.2,0.3,3.3,0.1c1.7-0.3,3.4-0.4,5,0.2c0.7,0.3,1.5,0.1,2.1-0.2c1.3-0.6,2.7-0.7,4.1-0.8
		c1.6-0.1,3.2-0.4,4.7-1c1.3-0.5,2.7-1.2,4.3-0.8c0.4,0.1,0.8,0,1.3-0.2c1.2-0.5,2.2-0.3,3.2,0.4c0.8,0.6,1.2,0.6,2,0.1
		c0.7-0.5,1.5-0.5,2.3-0.5c0.8,0,1.1,0.3,1,0.9c-0.2,0.9,0.1,1,1.2,0.8c0.3-0.1,0.6-0.1,0.8-0.2c0.5-0.1,0.9,0,1.1,0.3
		c0.3,0.5,0.6,0.9,0.7,1.5c0,0.5,0.4,0.6,1,0.6c1.2-0.1,2.4-0.1,2.6-1.3c0-0.2,0.3-0.4,0.6-0.4c1-0.1,2,0.1,2.9,0.1
		c0.2,0,0.3,0.2,0.3,0.3c0,0.5,0.2,0.9-0.1,1.4c-0.4,0.6-0.3,1.3-0.5,2c0,0.1,0,0.3,0.1,0.4c1.2,1,1,2.4,1.9,3.5
		c0.1,0.1,0.2,0.3,0.3,0.4c0.3,0.4,0.7,0.3,1.1,0.1c0.5-0.3,0.4-0.8,0.8-1.2c0-0.2,0.1-0.5,0.1-0.7c-0.8-0.7-0.8-0.9-0.1-1.3
		c0.8-0.5,1.1-1,0.6-1.7c-0.2-0.3,0-0.6,0.1-0.9c0.3-0.9,0.5-1.9,1.5-2.6c0.5-0.3,0.6-0.8,0.7-1.2c0.1-0.4,0.5-0.5,1-0.4
		c0.5,0.1,0.6,0.3,0.5,0.7c-0.1,0.1-0.2,0.3-0.1,0.4c0.3,0.8,0,1.1-1,1.4c-0.9,0.3-1,0.7-0.5,1.3c0.1,0.1,0.2,0.2,0.3,0.3
		c1,1.1,1.8,1.2,2.9,0.2c0.4-0.3,0.8-0.5,1.4-0.6c1.4-0.2,1.8-0.9,1.3-1.9c-0.2-0.3-0.3-0.7-0.4-1.1c-0.1-0.6,0.2-0.9,1.1-1
		c0.5-0.1,0.8-0.2,0.8-0.6c0-0.6,0.5-0.8,1.2-1.1c0.8-0.3,1.6-0.5,2.5-0.5c1,0,1.1,0.1,0.7,0.8c-0.1,0.1-0.2,0.3-0.3,0.4
		c-0.3,0.6,0,1.3,0.7,1.5c0.5,0.1,1.3-0.3,1.5-0.8c0.1-0.3-0.2-0.7,0.4-0.8c0.7-0.2,1.2-0.7,2-0.5c0.6,0.2,1-0.1,1.4-0.4
		c0.9-0.6,1.9-0.9,3.1-0.8c0.2-0.1,0.4-0.2,0.7-0.2c0-1,0.4-1.4,2-1.6c0.3-0.2,0.7-0.4,1-0.6c0.2-0.9,1.1-1.2,2.1-1.5l0,0
		c-0.1-0.9,0.7-1.3,1.5-1.6c0.7-0.3,1.1-0.7,1.6-1.1c0.6-0.5,1.3-1,2-1.4c1-0.7,1.8-1.4,2-2.5c0.1-0.6,0.7-1.2,1.1-1.8
		c0.8-1,1.5-2,2.1-3c0.1-0.2,0.2-0.4,0.2-0.5c-0.1-1.2,0.9-2.2,1.5-3.2c0-0.1,0.3-0.1,0.4-0.1c0.1-0.2,0.2-0.4,0.3-0.6
		c-0.9-0.6-0.8-1.4-0.8-2.1c0-0.6,0.2-1.3,0.6-1.7c0.7-0.7,0.6-1.5,0.4-2.2c-0.2-1.1-0.1-2.1,0.5-3.1c0.2-0.4,0.3-0.8,0.2-1.2
		c-0.7-1.5-0.4-3.1-0.6-4.6c-0.1-0.7-0.4-1.3-0.4-2c0-0.2-0.2-0.3-0.5-0.3c-0.3,0.1-0.5,0.3-0.4,0.4c0.9,1.2-0.2,2.2-0.5,3.3
		c-0.3,1-0.5,2-0.7,3.1c-0.1,0.4-0.1,0.9-0.2,1.3c-0.1,0.6-0.7,1.2-0.4,1.9c0.1,0.1-0.1,0.4-0.2,0.5c-0.9,0.6-0.7,1.3-0.5,2
		c0.1,0.4,0.2,0.7-0.5,0.8c-0.5,0-0.6,0.3-0.9,0.5c-0.4,0.5-0.5,1-0.8,1.6c0.9,0,1.5-0.2,2.3-0.3c0.7-0.1,1.1,0.2,1,0.8
		c-0.1,0.5-0.5,0.8-1.1,1c-0.8,0.2-1.2,0.7-1.3,1.4c-0.1,0.5-0.3,1-0.3,1.5c-0.1,0.8-0.4,1.4-1.2,1.9c-0.2,0.1-0.4,0.3-0.5,0.4
		c-0.1,1-1.1,1.7-1.8,2.5c-0.3,0.3-0.5,0.6-0.1,0.9c0.5,0.4,0.2,0.7-0.1,1c-0.4,0.3-0.8,0.7-1.2,1c-0.7,0.4-1.3,0.8-1.4,1.6
		c-0.1,0.6-0.9,1-1.9,1.1c-0.7,0-1.5,0-2.2,0.3c-0.6,0.2-0.9-0.1-1-0.5c-0.1-0.5,0.1-0.9,0.2-1.3c0.2-0.4-0.2-0.5-0.7-0.5
		c-0.5,0.1-1.1,0.2-1.3,0.5c-0.6,0.9-1.7,1.5-1.6,2.7c0,0.3,0,0.7-0.1,1c0,0.3-0.2,0.5-0.6,0.6c-0.2,0-0.4,0-0.5-0.1
		c-0.1-0.1-0.1-0.2,0-0.3c0.5-0.6,1-1.1-0.2-1.7c-0.4-0.2,0.1-0.6,0.4-0.7c1-0.5,1.3-1.1,0.8-1.9c-0.2-0.2,0-0.4,0.2-0.6
		c0.9-0.8,1.3-1.7,1.3-2.8c0-0.9,1.1-1.5,1.3-2.3c0.1-0.4,0.7-0.1,1-0.1c1.3,0.1,2-0.5,1.9-1.5c-0.2-1.1,1-1.9,2.4-1.5
		c0.5,0.1,0.9,0.2,1.3-0.2c0.5-0.5,0.3-0.9-0.6-1.1c-0.1,0-0.2,0-0.3,0c-0.3,0-0.5-0.1-0.6-0.3c-0.2-0.9-2-1-1.7-2
		c0.2-0.6-0.1-1-0.7-1.4c-0.5-0.4-0.7-0.9-0.7-1.4c0.1-0.3,0-0.7-0.1-1c-0.3-0.7-0.4-1.3,0.3-2c0.5-0.6-0.1-1-1.6-1
		c0.7,0.9,0,1.8,0.1,2.7c0.1,0.8-0.1,1.6,0.2,2.4c0.2,0.5-0.1,0.7-0.8,0.5c-1.7-0.4-2.1-0.1-1.9,1.2c0,0.3,0.3,0.5,0.1,0.8
		c-0.4,0.5-0.1,1,0.2,1.5c0.4,0.6,0.3,1.2-0.2,1.7c-0.6,0.6-0.8,1.5-2,1.7c-0.1,0-0.3,0.1-0.3,0.2c-0.4,0.9-1.4,1.3-2.2,1.9
		c-0.4,0.4-0.8,0.7-1.6,0.8c-0.6,0-0.7,0.4-1,0.7c-0.6,0.7-0.9,0.7-1.8,0.3c-0.4-0.2-0.8-0.3-1.2-0.4c-0.7-0.2-1.2-0.4-1.5-1
		c-0.5-0.7-0.6-0.7,0.4-1c0.4-0.1,0.6-0.3,0.3-0.6c-0.3-0.4-0.3-0.7,0.2-1.1c0.5-0.3,0.5-0.8,0.1-1.2c-0.3-0.3-0.2-0.5-0.1-0.8
		c0.3-1.3,1.7-2.1,2.3-3.3c0.4-0.8,1.2-1.5,0.6-2.5c-0.2-0.4,0.2-0.8,0.3-1.2c0.2-1.2,0-2.4,0.8-3.5c0.3-0.4,0-0.6-0.6-0.7
		c-0.4,0-0.8,0-1.2,0c-1.5-0.1-2.1-1-1.1-1.9c0.6-0.6,0.8-1.1,0.2-1.8c-0.4-0.5-0.1-1.2,0.1-1.7c0.1-0.3,0.4-0.3,0.7-0.2
		c0.7,0.2,1.3,0.6,1.3,1.2c0.1,0.8,0.7,1.4,1,2.1c0.1,0.2,0.4,0.4,0.9,0.5c0.4-0.5,0.3-1.1,0-1.6c-0.4-0.7-0.4-0.7,0.8-1
		c0-0.8,0.7-1.4,0.8-2.1c0.1-0.3,0.6-0.2,1-0.2c0.5-0.4,1.1-0.8,0.5-1.4c-0.2-0.2-0.1-0.4-0.1-0.7c0.1-0.7-0.1-1.2-0.7-1.8
		c-0.6-0.5-1-1.1-0.4-1.8c0.2-0.2,0.2-0.6,0.2-0.9c-0.3-1,0.1-2.1-0.5-3.1c-0.2-0.3,0-0.6,0.2-0.9c0.5-0.6,0.6-1.2,0.4-1.9
		c-0.1-0.5,0-1,0-1.6c-0.2-0.4-0.1-0.9-0.1-1.3c-0.7-1-0.8-2-0.2-3c0.2-0.4,0.3-0.7-0.1-1c-0.6-0.5-0.4-1.1-0.2-1.6
		c0.1-0.3,0.2-0.8,0.7-0.9c0.6-0.1,0.5,0.4,0.8,0.7c0.2,0.2,0.4,0.4,0.8,0.5c0.5,0.1,0.5-0.3,0.6-0.5c0.2-0.3,0.5-0.3,0.8-0.1
		c0.5,0.4,1,0.5,1.7,0.6c0.6,0.1,0.8,0.4,0.7,0.8c-0.1,0.4-0.4,0.5-0.9,0.5c-0.7,0-1.5,0.1-2-0.6c-0.3,0.7,0.1,1.1,0.5,1.3
		c1.4,1,1.5,2.2,1.6,3.5c0,0.7,0.2,1.2,0.9,1.6c0.5,0.2,0.5,0.6,0.4,1c-0.2,0.5,0,0.9,0.5,1.3c0.4,0.3,0.6,0.7,0.3,1
		c-0.6,0.6-0.2,1.3-0.2,1.9c0,0.1,0.2,0.3,0.2,0.4c-0.7,1.7,0.7,3.4,0.2,5.2c-0.1,0.3-0.1,0.6-0.4,0.9c-0.4,0.4-0.9,0.7-1.7,0.4
		c0.2,1,0.3,1,1.3,0.9c0.6,0,0.8,0.2,1,0.5c0.2,0.3,0,0.5-0.3,0.7c-0.4,0.3-0.7,0-1-0.2c-0.2-0.1-0.5-0.2-0.7,0
		c-0.3,0.1-0.1,0.3,0,0.5c0.5,0.6,1,1.3,1.7,1.8c0.2,0.1,0.4,0.3,0.6,0.2c0.3-0.1,0.4-0.2,0.3-0.4c-0.1-0.9,0.6-1.7,0.2-2.6
		c0.7-1.3-0.1-2.7,0.7-4c0.1-0.2,0-0.5,0-0.8c-0.1-0.5-0.1-1,0.2-1.5c0.3-0.6,0.3-1.3,0-2c-0.5-0.9-0.4-1.2,0.8-1.9
		c-0.1-0.1-0.1-0.3-0.2-0.4c-0.5-0.1-0.6-0.4-0.7-0.7c-0.1-0.8-0.3-1.6-0.2-2.4c0-0.1-0.1-0.2-0.1-0.4c-0.5-0.3-0.6-0.7-0.3-1.2
		c0,0,0-0.1,0-0.1c0.6-1.2-0.1-2.4,0.1-3.5c0.2-0.8,0.1-1.7,0.1-2.5c-0.3-0.3-0.4-0.7-0.4-1.1c-0.1-0.7-0.4-1.3-1.4-1.6
		c-2.4-0.8-3.2-2.3-3.4-4.1c-0.1-1-0.7-1.9-0.7-3c0-0.3-0.2-0.5-0.6-0.6c-0.8-0.2-0.8-0.7-0.9-1.3c-0.3-1.5,0.3-2.9,0.2-4.3
		c0-0.2,0.1-0.4,0.3-0.5c0.2-0.3,0.5-0.3,0.8,0c0.4,0.3,0.6,0.7,0.5,1.1c-0.1,0.3-0.1,0.5-0.1,0.8c0,0.2,0.1,0.5,0.4,0.5
		c0.3,0,0.4-0.2,0.5-0.3c0.3-0.5,0.5-1,0.3-1.6c-0.4-1.3-0.6-2.5-0.2-3.8c1.7,0.4,1.7,0.4,1.6-0.8c0-0.2-0.1-0.4,0-0.6
		c0.1-0.3,0.1-0.6,0.5-0.7c0.5-0.1,0.5,0.3,0.7,0.5c0.1,0.2,0.3,0.3,0.5,0.4c1,0,1.2,0.6,1.6,1.2c0.4,0.6,0.6,1.1,0.1,1.7
		c-0.5,0.7-0.3,1.3,0.3,1.9c0.5,0.5,0.6,1,0.6,1.5c-0.1,0.4,0,0.8,0.1,1.1c0.1,0.4,0.2,0.6-0.3,0.9c-0.4,0.2-0.3,0.4-0.2,0.7
		c0.5,0.7,0.7,1.5,1.5,2c0.8,0.6,1.4,1.3,2.2,1.8c0.8,0.4,0.9,1.2,1.2,1.8c0.5,1.1,1.5,2.1,1.3,3.3c0,0.1,0.1,0.3,0.2,0.4
		c0.8,0.6,0.6,1.4,0.8,2.1c0.1,0.4,0,0.8-0.3,1c-0.8,0.6-0.6,1.3-0.3,2c0.3,0.6,0.5,1.2,0.3,1.9c-0.2,0.7-0.2,1.5,0.2,2.2
		c0.2,0.4,0.4,0.8-0.1,1.1c0,0.1,0,0.3,0,0.4c0.9,0.8,1.4,1.7,1.4,2.7c0,0.6,0,1.1,0.1,1.7c0,0.4,0.2,0.6,0.8,0.6
		c1.2,0,1.1,0.1,1.1,1c0,1.5-0.2,3,0.5,4.4c0.1,0.1,0.1,0.2,0.1,0.3c0.2,0.5,0.6,0.5,1.2,0.5c0.6,0,0.6-0.4,0.6-0.7
		c-0.2-0.9-0.3-1.8-0.7-2.6c-0.3-0.7-0.3-1.4-0.2-2.2c0-1.2,0.3-2.5-0.3-3.8c-0.2-0.4-0.2-0.9,0.1-1.2c1.1-1,0.3-1.9-0.2-2.8
		c-0.3-0.5-0.4-0.9-0.5-1.4c-0.1-0.3-0.1-0.6,0.4-0.8c0.6-0.2,0.5-0.6,0.1-0.8c-0.9-0.6-1-1.3-1.4-2.1c-0.5-1-1.3-1.9-1.3-3
		c0-0.3-0.4-0.6,0.1-1c0.3-0.2,0.3-0.5,0-0.7c-0.4-0.3-0.5-0.7-0.6-1.1c-0.1-0.6-0.4-1.1-1.3-1.2c-0.4-0.1-0.6-0.4-0.7-0.7
		c-0.4-0.9-0.8-1.8-0.7-2.7c0.1-0.7,0.1-1.5-0.4-2.2c-0.2-0.2-0.2-0.5-0.1-0.8c0.1-0.5,0.1-0.9-0.2-1.3c-0.3-0.4-0.1-0.7-0.1-1.1
		c0-0.4,0.1-0.9-0.4-1.3c-0.3-0.2-0.3-0.4-0.2-0.7c0.2-0.7-0.1-1.3-0.5-1.9c-0.4-0.8-0.7-1.6-0.8-2.5c-0.1-0.8-0.5-1.6-0.3-2.4
		c0.1-0.3-0.2-0.7-0.5-0.9c-0.9-0.8-1.2-1.9-1.7-2.8c-0.2-0.3-0.3-0.6,0.1-0.8c0.4-0.3,0.7,0,1,0.2c0.7,0.5,1.5,0.9,1.1,1.8
		c-0.2,0.4,0.2,0.7,0.5,1c1.2,1,1.5,2.1,1.2,3.4c-0.1,0.6,1.1,1.6,1.8,1.6c0.5,0,0.6-0.3,0.7-0.6c0.1-0.8-0.4-1.5-0.6-2.3
		c-0.1-0.5-0.3-0.9-0.2-1.4c0.1-0.4-0.1-0.8-0.6-1.1c-0.3-0.1-0.4-0.4-0.2-0.6c0.5-0.3,0.6-0.6,0.4-1c-0.1-0.2,0.3-0.4,0.6-0.3
		c0.4,0.2,0.7,0.4,1,0.7c0.3,0.3,0.6,0.7,0.8,1.1c0.1,0.3,0.3,0.5,0.7,0.4c0.5-0.1,0.2-0.4,0.2-0.7c0-0.7,0-1.3-0.1-2
		c-0.1-0.8-0.5-1.6-0.9-2.5c-0.1-0.2-0.5-0.3-0.7-0.3c-0.8-0.2-1.2-0.5-1.3-1.2c0-0.5-0.4-1-0.6-1.5c-0.1-0.2-0.3-0.5-0.3-0.7
		c0-2.3-1.9-4-3.5-5.7c-0.6-0.6-1-1.3-1.2-2c-0.2-1.1-1-2-0.9-3.1c0-0.3-0.2-0.6,0.1-0.8c0.8-0.5,0.4-1.1,0.1-1.6
		c-0.2-0.5-0.1-1-0.2-1.5c-0.1-0.6,0.4-1,1.2-0.9c1.2,0.2,2.6,0.3,2.9,1.6c0,0.1,0.2,0.3,0.3,0.4c0.1,0.1,0.3,0.1,0.4,0.1
		c0.1,0,0.2-0.2,0.2-0.3c0-0.5-0.4-0.9-0.7-1.2c-0.9-0.8-1.7-1.7-2.2-2.7c-0.1-0.1-0.2-0.3-0.3-0.4c-1.6-0.6-1.1-1.8-1.5-2.7
		c0-0.1,0-0.3,0-0.3c1.1-0.9,0.3-1.8,0.1-2.7c0,0,0-0.1-0.1-0.1c-0.5-1.2-0.3-1.5,1.4-2c-0.8-0.6-0.8-1.3-0.8-2c0-0.3,0-0.5-0.2-0.8
		c-0.6-0.9-0.4-1.8,0.1-2.7c0.1-0.1,0.2-0.3,0.1-0.4c-0.5-0.8-0.4-1.7-0.9-2.4c-0.4-0.6-0.5-1.2-0.6-1.9c-0.3-1.9-0.4-3.9-0.5-5.8
		c0-1.1-0.7-2.1-0.5-3.2c0.1-0.4,0.1-0.9,0.1-1.3c0.1-0.6,0-1.3-0.5-1.8c-0.9-1.1-1.4-2.3-1.8-3.5c-0.2-0.6-0.4-1.2,0.6-1.6
		c0.4-0.2,0.1-0.5,0-0.7c-0.3-0.6-0.8-1.2-1.1-1.8c-0.3-0.8-0.8-1.5-0.7-2.4c0.1-0.3-0.2-0.7-0.5-1c-0.8-1-1-2.1-1.4-3.1
		c-0.1-0.3-0.2-0.7-0.4-0.9c-1.1-0.8-1.2-2-2-2.8c-1-1.1-1.5-2.3-2.4-3.4c-0.3-0.4-0.5-0.7-0.5-1.2c0-0.8-0.3-1.5-0.9-2.1
		c-0.6-0.7-1.4-1.4-1.7-2.2c-0.1-0.2-0.4-0.4-0.6-0.5c-2-0.9-2.9-2.5-3.9-4c-0.2-0.3-0.2-0.5,0.4-0.4c0.2,0,0.4,0,0.4-0.2
		c0-0.2-0.1-0.3-0.3-0.4c-2.1-0.3-2.6-1.8-3.7-2.9c-0.6-0.6-1.2-1.3-1.7-1.9c-0.1-0.1-0.2-0.3-0.1-0.4c0.2-0.2,0.5,0,0.6,0.1
		c0.4,0.3,0.8,0.7,1.2,1c0.2,0.1,0.4,0.2,0.6,0.1c0.3-0.1,0.2-0.4,0-0.5c-1.2-0.8-1.2-2-1.5-3.1c-0.2-0.7-0.8-1.3-1.4-1.8
		c-0.6-0.5-1.1-1-0.8-1.8c0.1-0.3-0.1-0.6-0.4-0.8c-0.4-0.2-0.7-0.4-0.9-0.7c-0.7-0.8-0.7-1,0.5-1.4c0.5-0.2,0.5-0.4,0.5-0.7
		c0.1-0.6-0.1-1.4,0.8-1.8c0.3-0.1-0.2-0.5,0.1-0.8c1,0.2,2,0.4,3,0c0.4-0.1,0.8,0,1,0.3c0.6,0.8,1.6,1.2,2.6,1.6
		c0.5,0.2,1.1,0.4,1.5,0.7c0.8,0.5,1.6,0.8,2.7,0.7c0.8-0.1,1.4,0.3,1.8,0.8c1,0.9,1.2,1,2.4,0.2c0.2-0.1,0.5-0.2,0.8-0.2
		c0.9,0.2,2.3,1.4,2.3,2.1c0.1,0.7-0.5,1.1-1.4,1.3c0.1,0.4,0.5,0.7,1,0.7c1,0.1,1.9,0.1,2.9,0.3c0.3,0.1,0.4-0.2,0.4-0.4
		c-0.1-0.7,0-0.8,0.8-0.7c1.1,0.1,1.7-0.1,2.1-0.8c0.4-0.6,0.9-0.7,1.7-0.3c0.2,0.1,0.4,0.3,0.7,0.5c0.6,0.4,0.8,0.4,1.2-0.2
		c0.7-1,1.2-1.1,2.3-0.3c0.8,0.6,1.6,0.6,2.5,0.6c0.3,0,0.6,0,0.8-0.2c0.1,0,0.2-0.1,0.3-0.1c0.9-0.5,2,0.1,2.9-0.2
		c0.9-0.2,1.7-0.7,2.6-0.2c0.4,0.2,0.8,0.1,1.1-0.2c0.5-0.5,1.1-0.7,1.8-0.8c0.2,0,0.4-0.1,0.5-0.2c0.5-0.6,1.4-0.7,2.2-0.9
		c1-0.2,1.2-0.1,1.5,0.7c0.3,0.8,0.6,1.1,1.7,1.1c0.7,0,1.4,0.2,2.2,0.2c0.6-0.1,1.1,0.1,1.5,0.3c0.6,0.4,1.1,0.2,1.7,0.1l0.1-0.1
		c0-0.4,0.4-0.4,0.7-0.4c1.8,0.1,3.6-0.1,5.2-0.6c1.1-0.3,2.1-0.5,3.1,0.1c0.4,0.2,0.9,0.1,1.3,0.1c0.9-0.1,1.6,0.1,2.3,0.5
		c0.6-0.5,1.2-0.7,2.1-0.7c0.6,0,1.1-0.3,1.6-0.5c0.5-0.2,0.9-0.3,1.2,0.2c0.2,0.4,0.6,0.5,1.1,0.3c0.4-0.1,0.7-0.2,1.1,0
		c0.9,0.5,1.8,0.3,2.6,0c0.3-0.1,0.5-0.5,0.9-0.2c0.3,0.2,0.1,0.5-0.1,0.7c-0.1,0.1-0.1,0.2,0,0.4c0.4,0.2,1,0,1.5,0
		c0.9,0.1,0.9-0.1,0.9-0.8c0-0.4-0.3-0.8-0.6-1.1c-0.3-0.4-0.3-0.7,0.4-0.7c0.8,0,1.3-0.3,1.8-0.7c1-0.8,2.2-1.3,3.6-1.7
		c0.1,0,0.2-0.1,0.3-0.1c1.5,0.6,2.7-0.6,4.1-0.4c0.5,0,0.7-0.2,0.9-0.6c0.4-1,1.1-1.8,2.5-2.1c0.2,0,0.4-0.1,0.5-0.2
		c0.6-0.7,1.4-0.9,2.5-1c0.3,0,0.7-0.1,0.8-0.3c0.6-0.9,1.9-1.4,2.5-2.2c0.9-1.2,2.8-1.5,4.3-0.8c1.3,0.6,2,0.4,2-0.8
		c0-0.7,0.3-1.4-0.7-1.9c-0.2-0.1-0.3-0.4-0.3-0.6c0.1-0.9,0.2-1.7,0.3-2.6c0-0.5,0.1-1-0.1-1.4c-0.4-0.7-0.4-1.4-0.5-2.1
		c0-0.2-0.1-0.5,0.3-0.5c0.3,0,0.6,0.1,0.7,0.3c0.2,0.3,0.3,0.5,0.5,0.9c0.8-0.5,1.8-0.2,2.8-0.3c0.4-0.1,0.8,0.3,0.9,0.7
		c0.2,0.9,0.3,1.8-0.5,2.6c-0.4,0.4-0.9,0.9,0.3,1.1c0.3,0.1,0.3,0.4,0.3,0.6c0,0.6-0.1,1.1-0.2,1.7c-0.1,0.4,0,0.7,0.7,0.8
		c0.5,0,0.8,0,0.7-0.4c-0.1-0.7,0.5-1.2,0.9-1.7c0.2-0.2,0.5-0.4,0.9-0.2c0.4,0.1,0.4,0.4,0.3,0.7c-0.5,1.7-0.5,3.6-1.4,5.2
		c0.2,1-0.4,1.9,0.1,2.9c0.2,0.3,0.2,0.7,0.1,1.1c-0.2,0.6-0.2,1.2,0.3,1.7c0.1,0.1,0.2,0.3,0.1,0.4c-0.5,0.7-0.1,1.2,0.3,1.8
		c0.2,0.3,0.2,0.7,0.2,1c0,0.7,0,1.5,0.2,2.2c0.2,0.6-0.2,1.1-0.7,1.5c-0.6,0.5-0.5,0.6,0.3,0.8c0.6,0.1,0.7,0.3,0.8,0.8
		c0.3,1.1-0.1,2.2-0.1,3.3c0,0.2-0.1,0.4-0.3,0.5c-0.4,0.3-0.5,0.6,0,1c0.2,0.2,0.3,0.4,0.2,0.6c-0.1,0.8-0.1,1.7-0.4,2.5
		c-0.6,1.6-0.5,3.2-0.4,4.9c0.1,0.9-0.1,1.7-0.2,2.6c0,0.2-0.2,0.4-0.5,0.5c-0.4,0-0.5-0.2-0.6-0.4c-0.1-0.2-0.1-0.4-0.3-0.6
		c-0.1-0.1-0.3-0.2-0.5-0.1c-0.2,0.1-0.3,0.2-0.3,0.4c0,0.1,0.1,0.3,0.2,0.4c0.6,1.2,1.1,2.5,1.5,3.7c0,0.1,0,0.2,0.1,0.2
		c1,1,0.5,2,0.1,3c-0.1,0.3-0.3,0.6-0.2,0.9c0.2,0.9,0.2,1.8,0,2.8c0,0.1,0.1,0.2,0.2,0.3c0.1,0,0.2,0,0.3,0
		c0.3-0.1,0.4-0.6,0.9-0.4c0.5,0.2,0.6,0.6,0.5,1c-0.1,0.3-0.1,0.7-0.4,1c-0.7,0.7-0.9,1.5-0.8,2.3c0,0.3-0.1,0.7-0.3,1
		c-0.2,0.3-0.4,0.7-0.2,1c0.6,0.7,0.2,1.5,0.1,2.2c-0.2,0.9-0.3,1.7-0.1,2.6c0.3,1.5,0.2,3.1-0.5,4.5c-0.6,1.3-0.7,2.6-0.7,4
		c0,0.2,0,0.4,0.4,0.5c0.9-0.9,1.9-1.8,2.2-3c0.2-0.8,0.3-1.5,1-2.2c0.2-0.2,0.4-0.5,0.3-0.8c-0.3-1.7,0.9-2.9,2.3-4.1
		c1.3-1,2.6-2.1,4.5-2.8c0.4,0.9,0.2,1.8-0.2,2.6c-0.4,0.8-0.5,1.6-0.3,2.5c0.2,1-0.1,1.9-0.4,2.9c-0.6,1.7-1.4,3.4-1.9,5.1
		c-0.3,0.8-0.7,1.6-1,2.5c-0.4,1.3-0.7,2.7-1.4,4c-0.6,1.1-1.2,2.2-1.8,3.3c-0.2,0.3-0.3,0.6-0.6,0.7c-0.7,0.4-1,1-1.1,1.6
		c0,0.4-0.2,0.7-0.7,0.9c-0.6,0.2-0.8,0.7-1,1.1c-0.4,1-0.9,2.1-1.6,3c0,0.1-0.1,0.1-0.1,0.2c0.1,1.2-0.8,2.2-1,3.3
		c-0.3,1.8-0.9,3.7-2,5.3c-0.3,0.5-0.1,1.1-0.4,1.6c0,0.1,0,0.2,0,0.3c-0.1,1.6,0.3,3.1-0.3,4.7c-0.4,1.2-0.4,2.5,0.1,3.7
		c0.1,0.3,0.2,0.7,0.2,1c0,0.4,0,0.8,0.6,1.1c0.4,0.2,0.4,0.6,0.5,0.9c0.2,1,0.5,1.9,0.6,2.9c0,0.3,0.1,0.5,0.2,0.8
		c0.3,0.8,0.5,1.5,0.1,2.3c-0.5,1.1,0.4,2,1.1,3c0.5-0.4,0.5-0.8,0.6-1.2c0.1-0.7,0.1-1.3,0.3-2c0.1-0.4,0-0.7-0.3-1.1
		c-0.2-0.2-0.4-0.5-0.3-0.8c0-0.1,0.1-0.3,0.2-0.4c0.4-0.3,2.1,0,2.3,0.4c0.4,1.1,1,2.1,1,3.2c0,0.8,0.3,1.6,0.6,2.4
		c0.3,0.8,0.3,1.5-0.5,2.1c-0.4,0.3-0.3,0.6-0.2,0.9c0.3,0.6,0.3,1.1-0.1,1.7c-0.5,0.7,0,1.5,1.2,1.9c0.8,0.2,1.1,0.7,1.4,1.2
		c0.3,0.6,0.3,1.1-0.4,1.5c-0.9,0.6-1.2,1.3-0.8,2.2c0.3,0.6,0,1.1-0.4,1.6c-0.4,0.5-0.4,1,0.1,1.5c0.3,0.3,0.7,0.4,1.2,0.2
		c0.5-0.1,0.5-0.4,0.4-0.7c-0.3-1-0.2-1.9,0.4-3.1c0.3,0.6,0.7,1,0.7,1.3c0.1,1.6,0.6,3.1,0.5,4.6c-0.1,0.8,0,1.5,0.4,2.2
		c0.4,0.9,0.6,1.9,0.7,2.8c0.1,1,0.5,2,0.7,3.1c0.1,0.3,0.1,0.6,0.1,0.9l0.1,0c0.3,0,0.5,0.2,0.5,0.3c0.4,1.2,0.9,2.4,0.3,3.7
		c0,0.2,0,0.3,0,0.5c0.5,1,0.3,1.9,0,2.8c-0.4,1.1-0.1,2.2,0,3.3c0,0.4,0.3,0.8,0.9,0.7c0.6-0.1,0.6-0.5,0.5-0.9
		c0-0.1-0.1-0.2-0.1-0.3c-0.1-0.3-0.1-0.7,0.4-0.9c0.4-0.1,1,0.4,0.9,0.8c-0.1,0.6,0,1.3-0.2,1.9c-0.3,0.7-0.2,1.5,0,2.2
		c0.4,1.1,0.5,2.1-0.1,3.2c-0.3,0.7-0.3,1.5,0.1,2.2c0.2,0.4,0.1,0.7-0.1,1.1c-0.5,1.5-1.2,3.1-0.5,4.7c0.3,0.7,0.2,1.6,0.9,2.2
		c0.1,0.1,0,0.4,0,0.7c0,0.4-0.1,0.8,0,1.1c0.5,1.1,0.1,2.1,0,3.2c-0.1,0.7-0.1,1.4,0.3,2.1c0.3,0.5,0.3,1.1,0.3,1.6
		c0,1,0.5,1.9,0.7,2.8c0.2,1.3,0.8,2.6,1.1,3.9c0.2,1,0.7,1.9,1.5,2.7c1.3,1.2,2.6,2.4,3.2,4c0,0.1,0.1,0.2,0.1,0.2
		c1.7,1,2.1,2.6,3,3.9c0.9,1.3,2.1,2.5,3.2,3.6c0.5,0.5,1.1,1.1,1.4,1.7c0.7,1.3,2.2,2,3.6,2.7c0.4,0.2,0.8,0.3,1.1,0.7
		c0.5,0.6,1.2,0.9,2,1.2c2.1,0.7,4.1,1.5,5.9,2.6c0.8,0.5,1.8,0.8,2.8,0.8c0.7,0,1.2,0.2,1.6,0.7c0.3,0.1,0.6,0.1,0.9,0.2
		c0.6,0,1.3,0,1.8,0.3c0.9,0.4,1.9,0.5,2.9,0.7c2,0.4,4.1,0.8,5.5,2.1c0.5,0.5,1.3,0.9,1.9,1.4c0.4,0.3,0.8,0.7,0.6,1.2
		c0.2,0,0.4,0.1,0.5,0.1c0.9,0,1.6,0.4,2.2,0.8c0.8,0.5,1.6,0.8,2.7,0.8c0.8,0,1.4,0.3,2.1,0.5c1.3,0.3,2.6,0.4,3.9,0.7
		c3.2,0,6.3,0.1,9.5,0.1c0.8-0.3,1.7-0.2,2.5-0.2c2.5,0.2,4.6-0.4,6.7-1.2c1.2-0.4,2.4-0.6,3.6-0.9c0.6-0.1,1.1-0.2,1.5,0.4
		c0.4,0.5,1,0.4,1.6,0.1c1.1-0.5,2.3-0.9,3.3-1.6c0.9-0.6,1.8-1.2,3.2-1.2c0.5,0,1-0.4,1.5-0.7c0.7-0.4,1.2-1,2.2-1
		c0.1-0.1,0.1-0.1,0.1-0.2c-0.1-0.2,0-0.3,0.1-0.4c1.3-0.9,2.6-1.9,3.9-2.8c0.4-0.3,0.7-0.5,1-0.8c0.8-0.9,0.9-0.9,1.9-0.1
		c0.5-0.1,0.7-0.5,1.2-0.6c0-0.3,0-0.6,0.3-0.8c0-0.1,0-0.2,0-0.2c0.9-1.3,0.9-2.6,0.9-4c0-0.6,0.2-1.2,0.6-1.7c0-0.1,0-0.3,0-0.4
		c0-0.1-0.2-0.3-0.1-0.4c1.3-1.7,1.2-3.6,1.5-5.5c0.2-1.3,0.1-2.7,0.1-4c0-0.2,0-0.4,0-0.6c-0.5-1.5-0.9-2.9-1.4-4.4
		c-0.1-0.2,0-0.4,0.1-0.6c-0.5-0.9-0.7-1.8-0.3-2.8c-0.4-1.1,0.8-1.8,1.2-2.7c1.5-0.1,1.1-1,1.2-1.6c0-0.3,0.1-0.7,0.3-1
		c0.6-0.8,0.5-1.6,0.2-2.5c-0.3-0.8-0.5-1.5,0.3-2.2c0.3-0.2,0.1-0.5,0.1-0.8c-0.1-1-0.2-1.9,0.1-2.9c0.2-0.6,0-1.3,0-1.9
		c0-0.4-0.1-0.8,0.5-1.1c0-0.3,0-0.6,0-0.9c-0.4-0.4-0.4-0.9,0-1.3c0-0.4,0-0.8,0.1-1.1c-0.2-0.2-0.2-0.3,0.1-0.4
		c0-0.1,0.1-0.3,0.1-0.4C640.1,435.2,640.2,434.6,640.5,433.9z M349.5,425.7c0.1-0.2,0.2-0.4,0.4-0.4c0.3-0.1,0.4,0.1,0.6,0.3
		c0.7,0.6,0.9,1.1,0.9,1.7c-0.1,0.3,0.1,0.6-0.4,0.7c-0.5,0.1-0.8-0.2-1-0.5C349.8,426.9,349.3,426.4,349.5,425.7z M343.3,426.3
		c-0.2-0.2-0.3-0.4-0.4-0.6c-0.2-0.3-0.1-0.5,0.3-0.6c1.1-0.3,1.8-0.8,1.7-1.8c-0.1-0.3,0.4-0.4,0.7-0.3c0.5,0.2,0.9,0.4,0.7,0.9
		c-0.4,0.7,0,1.1,0.6,1.5c1,0.6,1.1,1.3,1,2.2c-0.1,1,0.2,1.2,1.4,1.5c0.3,0.1,0.6,0,0.8,0.2c0.2,0.3,0.6,0.6,0.5,0.9
		c-0.2,0.5-0.8,0-1.2,0.3c0.2,0.4,0.4,0.8,0.3,1.3c0,0.3-0.1,0.5-0.5,0.6c-0.4,0.1-0.7,0-0.9-0.2c-0.1-0.1-0.3-0.3-0.3-0.4
		c0-1-0.8-1.6-1.6-2.3C345.2,428.4,344.4,427.2,343.3,426.3z M354.6,441.7c-0.2,0.2-0.5,0.1-0.8,0c-0.6-0.1-1.1-0.4-1.5-0.7
		c-0.6-0.5-1.2-0.7-2.1-0.7c-1,0-1.7-0.3-2-1.2c-0.2-0.6-0.6-1.1-0.9-1.6c-0.2-0.3-0.4-0.5-0.4-0.8c-0.1-0.7,0.3-1,1.2-1
		c0.2,0,0.4,0.1,0.6,0.1c0.5,0.1,0.8,0,0.7-0.5c0-0.2-0.3-0.6,0.1-0.7c0.4-0.2,0.7,0.1,1,0.3c0.9,0.5,1,1.1,0.9,1.9
		c-0.1,0.3-0.2,0.7-0.1,1c0.1,0.4,0.5,0.6,0.9,0.6c0.7,0.1,1.2,0.4,1.5,0.8c0.4,0.5,0.2,0.8-0.6,0.8c-0.2,0-0.4-0.1-0.7,0.1
		c0.7,0.3,1.3,0.5,1.8,1C354.5,441.3,354.8,441.5,354.6,441.7z M369.9,437.5c-0.1,0.4-0.3,0.7-0.7,1c-0.8,0.6-1.2,1.2-0.4,1.9
		c0.2,0.2,0.3,0.5-0.2,0.6c-0.7,0.1-0.7,0.4-0.4,0.8c0.7,0.9,0.8,2,1.3,3.1c-0.7-0.2-1.2-0.3-0.9-0.8c0.4-0.5,0-0.7-0.5-0.9
		c-2.1-0.9-3.2-2.3-3.4-4.1c-0.1-0.6-0.3-1.2-0.9-1.6c-0.2-0.2-0.4-0.4-0.5-0.6c-0.5-1.8-1.7-3.4-2.3-5.2c-0.1-0.3,0-0.6,0.5-0.6
		c0.7,0,0.7-0.2,0.6-0.6c0-0.1-0.1-0.1-0.1-0.2c-0.1-0.3-0.6-0.6-0.2-0.9c0.6-0.3,1.1,0.1,1.4,0.3c0.6,0.5,1.3,1,2.1,1.4
		c0.4,0.2,0.7,0.5,0.4,1c-0.4,0.4-0.1,0.8,0.2,1.1c0.6,0.6,1.3,1.2,0.7,2.1c-0.3,0.4,0.5,0.8,1.1,0.6c0.4-0.1,0.7-0.5,1.2-0.2
		C369.7,436.4,370.1,436.9,369.9,437.5z M375,157c0,0-0.1,0-0.1,0c-0.4-0.3-0.6-0.8-1.3-0.5c-0.7,0.3-0.4,0.7-0.1,1
		c0.2,0.2,0.2,0.4,0,0.6c-0.4,0.6-0.2,1.3-0.1,2c0.3,1.4,0.2,2.7,0,4.1c-0.1,0.5-0.1,1-0.8,1.3c-0.2,0.1-0.3,0.2-0.2,0.4
		c0.4,0.8-0.1,1.6-0.1,2.4c0,0.3,0,0.7,0.2,1c0.5,0.8,0.1,1.6-0.1,2.4c0,0.1-0.1,0.3-0.3,0.4c-0.3,0.1-0.4-0.1-0.6-0.3
		c-1.2-0.9-1.3-2-1.3-3.2c0-0.5,0-1-0.3-1.5c-0.2-0.4-0.3-0.8-0.2-1.2c0.3-1.4-0.1-3,0.9-4.3c0.1-0.2,0-0.4-0.1-0.5
		c-0.3-0.9-0.3-1.9-0.1-2.8c0.4-1.6,0.3-3.3,1.1-4.8c0.1-0.2,0.2-0.5,0-0.8c-0.8-0.7,0-1.3,0.1-2c0-0.1,0.2-0.3,0.4-0.3
		c0.3,0,0.4,0.2,0.4,0.4c0,0.1,0.1,0.2,0,0.3c-0.4,1.3,0.3,2.5,0.3,3.8c0,0.5,0.3,0.8,1,0.9C375.1,156.1,375.1,156.2,375,157z
		 M434,421.3c0,0-0.1,0-0.1,0c0,0-0.1,0-0.1-0.1C433.8,421.1,433.9,421.1,434,421.3C434,421.2,434,421.2,434,421.3z M426.8,412.4
		c0.1-0.1,0.2-0.2,0.4-0.1c0.8,0.2,1.2,0.1,1.1-0.6c-0.1-0.4,0.4-0.6,0.9-0.3c0.2,0.1,0.4,0.2,0.5,0.4c0.5,0.9,1,1.9,1.4,2.8
		c0.1,0.1,0.1,0.3,0,0.4c-0.4,0.4-0.5,0.8-0.3,1.2c0.1,0.2-0.1,0.4-0.4,0.5c-0.3,0.1-0.5,0-0.6-0.2c-0.3-0.4-0.6-0.6-1.1-0.9
		c-0.6-0.3-0.1-0.8-0.1-1.1c0-0.2,0-0.4,0-0.7c0-0.5-0.1-0.8-0.9-0.8c-0.3,0-0.5,0-0.7-0.2C426.8,412.7,426.8,412.5,426.8,412.4z
		 M526.2,369.7c-0.8,0.5-1.1,1.1-0.8,1.9c0.5,1.4,0.3,2.7-0.1,4.1c-0.3,0.9-0.4,1.8-0.4,2.8c0,1-0.3,2.1-0.5,3.1
		c0,0.2-0.1,0.3-0.3,0.3c-0.3,0-0.5-0.1-0.5-0.3c-0.3-0.7-0.7-1.4-0.1-2.1c0.3-0.4,0.3-0.8,0.2-1.2c-0.4-1.6,0.1-3.3-0.7-4.8
		c-0.1-0.1,0-0.3,0.1-0.4c1-0.9,0.6-2,0.6-3c0-0.4,0-0.8,0.3-1.2c1-1.1,0.6-2.4,1-3.6c0.1-0.3-0.3-0.4-0.5-0.6
		c-0.5-0.5-0.5-0.9,0.2-1.3c0.9-0.5,1.5-1,1.4-1.9c-0.1-0.5,0.3-0.6,0.8-0.8c0.8-0.2,1.5-0.5,1.1-1.3c-0.1-0.3,0.2-0.4,0.6-0.3
		c0.4,0.1,0.7,0.2,1.1,0.3c0.4,0.1,0.7,0.2,0.6,0.5c-0.1,0.3-0.3,0.5-0.7,0.5c-0.2,0-0.5-0.1-0.8,0.1c0.2,0.6,0,1-0.8,1.4
		c-0.6,0.3-0.6,0.6-0.2,1c0.9,0.9,0.8,1.7,0,2.6c-0.3,0.3-0.5,0.7-0.5,1.2c0.1,0.8-0.2,1.6-0.6,2.4
		C526.7,369.2,526.6,369.5,526.2,369.7z M528.5,379.7c-0.7,1.2-1,2.5-0.8,3.9c0,0.2-0.1,0.4-0.2,0.5c-0.1,0.1-0.3,0.2-0.5,0.2
		c-0.1,0-0.2-0.1-0.3-0.2c-0.1-0.3-0.1-0.5-0.1-0.8c0.1-1,0.2-2.1,0.4-3.1c0-0.3,0.1-0.6-0.1-0.9c-0.2-0.3,0.3-1.4,0.7-1.7
		c0.3-0.2,0.5,0,0.7,0.2c0.1,0.2,0.3,0.9,0.3,1.3C528.6,379.2,528.6,379.5,528.5,379.7z M529.6,372.5c-0.4,1.1-0.3,2.1-0.7,3.2
		c-0.2,0.3-0.2,0.9-0.8,0.8c-0.6-0.1-0.6-0.7-0.3-1c0.3-0.4,0.1-0.7,0.1-1.1c0-1.6,0.9-3,1.2-4.6c0-0.2,0.2-0.4,0.5-0.4
		c0.4,0,0.6,0.2,0.7,0.4c0.1,0.2,0.1,0.4,0.1,0.7C530.4,371.1,529.8,371.8,529.6,372.5z M530.9,357.4c-0.3,0.3-0.8,0.5-1.2,0.8
		c-1.2-0.9-0.6-1.8-0.2-2.7c0.2-0.4,0.7-0.6,1.3-0.6c0.6,0,0.7,0.5,0.8,0.8C531.6,356.3,531.4,356.9,530.9,357.4z M575.4,218.8
		c0.3,0.5,0.5,0.9,0.5,1.5c-0.6-0.3-0.6-0.7-0.7-1c-2.3-6.6-5-13.1-6.5-20c1.4,0.9,1.9,1.9,2.2,3c0.3,1.3,0.7,2.6,1.8,3.7
		c0.2,0.2,0.2,0.3,0.2,0.5c-0.5,1.7,0.4,3.4,0.8,5c0.2,1.1,0.7,2.2,0.7,3.4C574.2,216.3,574.8,217.6,575.4,218.8z M568,465.4
		c-0.1-0.3,0.1-0.4,0.4-0.4c0.3,0,0.4-0.1,0.5-0.4c0-0.3-0.1-0.5,0.4-0.7c0.5-0.1,1-0.3,1.5-0.3c0.3,0,0.4,0.1,0.4,0.3
		c0.1,1.3-1.9,2.7-3.8,2.5C567.7,466,568.3,465.8,568,465.4z M550.5,133.9c0.3-0.1,0.5,0,0.6,0.2c0.4,0.6,1,0.9,1.7,1.2
		c0.5,0.3,0.7,0.8,0.9,1.3c0.3,1.2,0.7,2.4,1.4,3.5c0.5,1,0.6,2.1,0.9,3.1c0.1,0.3,0,0.6,0.2,0.8c1.4,1.8,1.4,3.9,2.3,5.9
		c0.6,1.3,1.5,2.5,1.8,3.9c0.2,1,0.8,1.8,1.3,2.7c1.1,2.1,1.9,4.3,2.6,6.5c0.2,0.6,0.5,1,0.9,1.5c0.7,0.8,0.9,1.7,1.4,2.6
		c0.6,1.1,1.1,2.3,1.4,3.5c0.3,1.3,0.6,2.6,1.4,3.8c0.5,0.7,0.3,1.5,0.6,2.2c0.4,1.2,1.3,2.3,1.6,3.6c0.8,3.2,2.2,6.3,3.3,9.4
		c0.1,0.4,0.2,0.7-0.2,1.1c-1-0.8-1.1-1.8-1.4-2.7c-0.7-2-1.3-3.9-2.6-5.8c-0.6-0.9-0.4-1.8-0.9-2.7c-0.1-0.2,0-0.5-0.2-0.6
		c-1.5-1.3-1.3-3-2-4.5c-0.6-1.3-1-2.6-1.4-4c-0.3-0.9-0.8-1.7-1.3-2.5c-0.8-1.4-1.1-3-2-4.4c-1.3-2-2-4.1-2.6-6.2
		c-0.2-0.8-0.7-1.5-1-2.3c-1.2-2.9-2.2-5.8-3.3-8.7c-0.1-0.3-0.2-0.6-0.4-0.8c-0.9-1.4-1.3-2.9-2-4.3c-0.5-1.1-1.1-2.2-1.7-3.2
		c-0.6-1.1-1-2.2-1.5-3.3C550,134.2,550.2,134,550.5,133.9z M559.7,217.2C559.7,217.2,559.7,217.2,559.7,217.2c0,0.1,0,0.3-0.1,0.4
		c-0.1,0.2-0.1,0.4-0.5,0.4c-0.1,0-0.2-0.1-0.2-0.1c-0.1-0.2,0-0.4,0.3-0.6C559.3,217.3,559.5,217.3,559.7,217.2
		C559.7,217.2,559.7,217.2,559.7,217.2C559.7,217.2,559.7,217.2,559.7,217.2c-0.1-0.4-0.4-0.7-0.9-0.9c-1.1-0.5-1.2-0.8-0.7-1.6
		c0.1-0.2,0.3-0.3,0.2-0.5c-0.7-1.5,0.4-3.1-0.8-4.6c0-0.1-0.1-0.2-0.1-0.2c0.5-0.6,0.9-1.2,0-1.8c0,0,0.1-0.3,0.2-0.3
		c0.6-0.1,0.9-0.4,1.2-0.7c0.3-0.2,0.7-0.1,0.8,0.2c0.2,0.6,0.6,1.1,0.6,1.7c0,0.6,0,1.2,0,1.8c-0.1,0.8-0.1,1.5,0.4,2.2
		c0.1,0.1,0.1,0.3,0.2,0.4c0,0.3-0.1,0.6-0.6,0.7c-0.5,0-0.5-0.3-0.5-0.6c0-0.1,0-0.3-0.2-0.3c-0.6,1.4-0.3,2.4,1,3.2
		c0.1,0.1,0.2,0.1,0.3,0.2c0.3,0.2,0.4,0.5,0.3,0.8c-0.2,0.3-0.6,0.2-0.9,0.2C560,217.2,559.8,217.2,559.7,217.2
		C559.7,217.2,559.7,217.2,559.7,217.2z M559,197.1c0.1,0.3,0.2,0.6-0.1,0.9c-0.5,0.4-0.3,0.9-0.1,1.4c0.5,1.2,0.4,2.3,0.1,3.5
		c-0.7-1.2-0.8-2.4-1-3.7c-0.2-1.1-0.4-2.3-0.6-3.4c-0.1-0.3-0.3-0.6-0.6-0.9c-0.4-0.4-0.3-0.7,0-1.1c0.2-0.3,0.5-0.5,0.9-0.4
		c0.4,0.1,0.7,0.2,0.8,0.6c0.1,0.3,0.2,0.7,0.2,1C558.7,195.6,558.7,196.3,559,197.1z M553.6,215.1c0,0.2-0.2,0.3-0.5,0.3
		c-0.5,0-0.9-0.2-0.9-0.6c0-0.2,0.2-0.2,0.4-0.2C553.1,214.7,553.6,214.7,553.6,215.1z M535,121.9c0.4-0.1,0.8-0.1,1.1,0.1
		c0.5,0.3,0.9,0.7,1.1,1.2c0.6,1.4,1.8,2.6,2.8,3.8c0.1,0.2,0.3,0.3,0.5,0.4c0.3,0.2,0.6,0.3,0.9,0.1c0.2-0.2,0-0.4-0.2-0.6
		c-0.2-0.1-0.5-0.3-0.4-0.4c0.3-0.7,0.3-1.4-0.1-2.1c-0.1-0.2,0.2-0.3,0.5-0.2c0.5,0.2,1,0.4,1.3,0.7c0.2,0.2,0.3,0.4,0.4,0.6
		c0.5,1.4,1.3,2.7,2.3,3.9c0.2,0.3,0.4,0.6,0.1,0.8c-0.4,0.4,0,0.9-0.2,1.2c-0.5,0.1-0.7-0.1-0.9-0.4c-0.4-0.6-0.8-1.1-1.1-1.7
		c-0.1-0.2-0.2-0.4-0.4-0.6c-0.4-0.2-0.8-0.4-1.2-0.2c-0.5,0.2-0.3,0.6,0,0.9c0.8,0.6,1.1,1.5,1.4,2.3c0.2,0.5,0.3,0.9,0.7,1.3
		c0.3,0.3,0.6,0.4,1,0.3c0.5-0.2,1-0.1,1.3,0.3c0,0.1,0.1,0.2,0.2,0.2c2,0.1,1.9,1.5,2.4,2.5c0.2,0.4,0.3,0.9,0.4,1.3
		c0.1,0.3,0.3,0.5,0,0.7c-0.7,0.5-0.4,1-0.2,1.6c0.4,1.1,0.6,2.3,1.4,3.3c0.4,0.5,0.1,1.2,0.6,1.8c-0.2,0-0.4,0-0.4,0
		c-0.9-1.3-1.9-2.4-2.5-3.8c-0.3-0.8-0.9-1.5-1.3-2.2c-0.4-0.8-0.8-1.6-1-2.4c0-0.1-0.1-0.3-0.2-0.4c-0.1-0.1-0.2-0.3-0.4-0.2
		c-0.2,0-0.3,0.2-0.3,0.3c0,0.1,0,0.2,0,0.2c0.7,1.5,0.4,3.2,1,4.7c0.1,0.4,0.1,0.7-0.1,1.1c-0.5,0.8-0.3,1.7-0.4,2.5
		c-0.1,0.4,0.2,0.8,0.5,1.2c0.2,0.2,0.3,0.5,0.2,0.7c-0.1,0.2-0.2,0.4-0.6,0.5c-0.3,0.1-0.7,0-0.7-0.3c-0.1-0.7-0.8-1.2-1.1-1.8
		c-0.2-0.5-0.5-1.1-0.1-1.6c0.3-0.5,0.2-1-0.1-1.5c-0.4-0.6-0.6-1.3-0.7-1.9c-0.2-0.8-0.5-1.7-1.1-2.4c-0.4-0.6-0.6-1.3-0.6-2
		c-0.1-0.9-0.4-1.9-0.4-2.9c0-0.4-0.2-0.7-0.6-1c-1.1-0.6-2-1.4-1.7-2.5c0.1-0.4-0.3-0.5-0.6-0.7c-0.5-0.2-0.9-0.5-0.4-1
		c0.4-0.4,0-0.8-0.2-1.2c-0.5-0.9-1.3-1.7-1.9-2.5c-0.3-0.4-0.5-0.8-0.5-1.3C534.6,122.3,534.6,122.1,535,121.9z M518.7,108.5
		c0.4,0,0.5,0.2,0.5,0.5c0,0.1-0.1,0.2-0.3,0.2c-0.3,0-0.5-0.2-0.5-0.5C518.4,108.6,518.6,108.5,518.7,108.5z M463.5,82.8
		c0.3-0.1,0.7-0.1,0.9-0.1c1,0.1,1.9,0.3,2.5,0.9c0.5,0.6,1,1.1,1.9,1.3c0.3,0.1,0.5,0.3,0.6,0.5c0.1,0.2-0.1,0.4-0.4,0.3
		c-0.4,0-0.6-0.2-0.9-0.4c-0.4-0.2-0.7-0.4-1.2-0.3c-1.4,0.1-2.6-0.3-3.7-0.8c-0.5-0.2-0.9-0.5-0.8-1
		C462.5,82.9,463.1,82.9,463.5,82.8z M456,82.1C456,82.1,456.1,82.1,456,82.1c0.1,0.1,0,0.1,0,0.1C456,82.2,455.9,82.2,456,82.1
		C455.9,82.1,456,82.1,456,82.1z M449.5,83.2c0.1-0.3,0.5-0.3,0.7-0.2c1.1,0.2,2.1-0.3,3.2-0.3c1.5-0.1,2.6,0.2,3.6,1
		c0.8,0.6,1.6,1.1,2.6,1.4c0.9,0.3,1.9,0.6,2.7,1.4c-1.5-0.1-2.6-0.7-3.9-0.9c-0.6-0.1-1.1-0.1-1.5,0.2c-0.8,0.5-1.7,0.4-2.4,0
		c-1.4-0.8-3-1.4-4.5-2.1C449.7,83.5,449.4,83.4,449.5,83.2z M440.9,84.9c1,0.1,2,0.3,2.9,0.2c1.6-0.2,3,0.7,4.5,0.6
		c0.3,0,0.6,0.1,0.6,0.4c0,0.2-0.3,0.4-0.6,0.4c-0.3,0.1-0.7,0.1-1-0.1c-0.8-0.3-1.7-0.3-2.6-0.3c-1.8,0-3.6-0.4-5.4-0.7
		C439.7,84.9,440.3,84.8,440.9,84.9z M388.2,258.1c-0.5,0.1-0.8-0.1-1.1-0.4c-1.1-0.7-1.6-1.5-1.1-2.7c0.1-0.1,0.1-0.3,0-0.4
		c-1.2-1.3-1-2.9-2.2-4.2c-0.2-0.2-0.4-0.4-0.6-0.7c-0.1-0.1-0.2-0.3,0-0.4c0.2-0.1,0.4,0,0.5,0.1c1.7,0.8,2.8,1.9,3,3.4
		c0.1,0.6,0.5,1.1,0.8,1.7c0.5,0.9,1,1.8,0.9,3C388.4,257.6,388.8,257.9,388.2,258.1z M396.3,478.1c-0.6-0.1-1,0-1.5,0.2
		c-0.4,0.1-0.9,0.1-1.3-0.1c-0.7-0.2-1.2-0.8-1.1-1.2c0.3-0.6,1-0.5,1.6-0.5c0.2,0,0.4,0,0.7,0.1c0.3,0,0.8-0.1,1.2-0.1
		c0.8,0,1.2,0.3,1.3,0.9C397.3,477.9,397,478.2,396.3,478.1z M402.4,232.4c-0.6,0.2-1,0.5-1.4,0.9c-0.6,0.5-1,1-1,1.8
		c0,0.6-0.4,0.7-1.2,0.4c-0.8-0.3-1-0.9-1.8-1.3c1-0.3,1.3-0.8,1.6-1.3c0.4-0.5,0.6-0.9,0.1-1.4c-0.4-0.6-1-0.5-1.6-0.5
		c-0.1,0-0.2-0.1-0.3-0.1c0.1-0.5,0.7-0.7,1.1-1.1c0.3-0.3,0.7-0.3,1.1-0.1c0.5,0.2,1.1,0.3,1.6,0.6c0.3,0.2,0.5,0.4,0.9,0.3
		c1.1-0.1,1.2,0.6,1.6,1.1C403.2,232,402.8,232.2,402.4,232.4z M410.2,289c-0.2,0-0.4-0.1-0.5-0.2c-0.3-0.3-0.4-0.7-0.4-1.1
		c0-0.1,0.1-0.2,0.2-0.4c0.2-0.2,0.4-0.2,0.5,0c0.2,0.4,0.3,0.8,0.5,1.2C410.5,288.7,410.6,288.9,410.2,289z M420.6,263.2
		c-0.1,0-0.2,0-0.2-0.1c-0.1-0.1,0-0.2,0.2-0.2c0.1,0,0.2,0.1,0.2,0.1C420.8,263,420.7,263.1,420.6,263.2z M427.1,269.2
		c-0.4,0.4-0.7,0.8-1.1,1.2c-0.1,0.1-0.4,0.2-0.3,0.3c0.1,0.9-0.8,1.4-1.5,1.9c-0.4,0.3-0.3,0.7-0.2,1.2c0.1,0.3,0,0.5-0.5,0.5
		c-0.6,0-0.8-0.3-0.5-0.8c0.7-1.3,1-2.6,1.6-3.9c0.2-0.5,0.7-0.8,1.1-1.1c0.2-0.2,0.5-0.2,0.8-0.2
		C427.2,268.2,427.5,268.7,427.1,269.2z M476.7,270.9c0,0.2-0.2,0.3-0.3,0.5c-0.8,1-1.3,2.2-2.5,2.9c-0.4,0.2-0.6,0.7-0.8,1.1
		c-0.5,0.9-1.4,1.4-2.6,1.5c0,0,0,0,0,0c0,0,0,0-0.1,0c-0.1,0-0.1,0.1-0.2,0.1c0,0,0-0.1,0-0.1c0,0,0.1,0,0.1-0.1c0,0,0,0,0.1,0
		c0,0,0,0,0,0c0.6-0.9-0.3-1.5-0.7-2.1c-0.2-0.3-0.6-0.2-0.9,0c-1.4,0.5-1.7,0.4-1.7-0.8c0-0.1,0-0.2-0.1-0.3c0-0.2,0-0.4,0.2-0.5
		c0.3-0.1,0.6,0,0.8,0.2c0.3,0.2,0.5,0.4,0.8,0.5c0.2,0.2,0.5,0.2,0.8,0c0.2-0.2,0.1-0.3,0-0.5c-0.5-0.5-0.9-1.1-1.9-1.5
		c1.1-0.3,1.7,0,2.3,0.3c0.8,0.3,1,0.3,1.3-0.3c0.2-0.3,0.2-0.7,0.4-1c0.2-0.3,0.5-0.5,0.9-0.4c0.4,0.1,0.4,0.4,0.3,0.7
		c-0.1,0.4-0.2,0.7-0.3,1.1c0,0.1,0,0.2,0.1,0.3c0.2,0.1,0.4,0.1,0.5,0c0.5-0.3,0.7-0.7,0.9-1.1c0.2-0.6,1.2-1.1,2-1
		C476.6,270.4,476.8,270.7,476.7,270.9z M497.4,269.1c-0.2,0-0.4,0-0.6,0.1l-0.1,0l0,0c0.3-0.4,0.4-0.8,0.4-1.3c0.1-1,0.1-1,1.6-1.3
		c-0.2,0.5-0.3,0.9-0.2,1.4C499.1,269,498.8,269.2,497.4,269.1z M520.8,244.4c-1.2,0-2-0.7-2.9-1.2c-0.3-0.2-0.6-0.3-1-0.7
		c0.8,0,1.3,0.1,1.9-0.1c0.6-0.2,1.1-0.3,1-0.9c0-0.2,0-0.3,0.2-0.3c0.3,0,0.4,0.2,0.5,0.4c0,0.1,0,0.2,0,0.3
		c-0.2,0.5,0.1,0.9,0.5,1.3c0.2,0.2,0.3,0.4,0.4,0.6C521.6,244.2,521.4,244.4,520.8,244.4z M534.4,402.6c-0.2,0.1,0,0.2,0.1,0.4
		c0.7,1,0.3,1.9-0.1,2.8c0,0.1-0.2,0.1-0.5,0.2c-0.2-0.6-0.6-1-0.9-1.5c-0.7-0.8-0.7-1.8-0.8-2.7c0-0.3,0.2-0.8,0.8-0.9
		c0.6-0.1,1.1,0,1.4,0.4C534.6,401.8,535.6,402.1,534.4,402.6z M536.5,214.5c-0.5,0.1-0.9,0.2-1.4,0.2c-0.4,0-0.7-0.2-0.5-0.5
		c0.1-0.3,0.3-0.6,0.4-0.8c0.2-0.4,0.6-0.7,1.3-0.6c0.6,0.1,0.8,0.5,0.9,0.9C537.1,214.2,537,214.4,536.5,214.5z M537.5,143
		c-0.5-0.2-0.9-0.5-1.2-0.8c-0.2-0.2-0.5-0.4-0.9-0.2c-0.3,0.2-0.2,0.4-0.1,0.6c0.4,0.7,0.3,1.3-0.1,1.9c-0.2,0.4-0.3,0.8-0.2,1.2
		c0.1,1-0.5,1.8-1,2.6c-0.2,0.4-0.6,0.6-0.3,1.2c0.2,0.3-0.5,0.7-0.6,1.2c-0.2,0.6-0.7,0.4-1.3,0.3c-0.5-0.1-0.6,0.2-0.6,0.5
		c0,0.4,0,0.7-0.1,1.1c-0.2,1.1-1.4,1.7-2.7,1.4c-0.7-0.2-1.4-0.5-2.1-0.7c-0.6-0.2-0.6-0.7-0.8-1c-0.1-0.2-0.3-0.5-0.8-0.4
		c-0.3,0.1-0.4,0.3-0.3,0.6c0.2,0.8,0.2,1.6-0.2,2.3c-0.1,0.2,0,0.4,0.1,0.7c0.1,0.2,0.2,0.5,0.2,0.6c-0.4,0.9,0.2,1.7,0.7,2.5
		c0,0,0.1,0.1,0.1,0.1c0.2,1.8,1.8,3.1,2.8,4.6c0.1,0.2,0.2,0.4,0.2,0.5c-0.2,0.9,0.4,1.6,0.6,2.4c0.1,0.2,0.2,0.4,0.3,0.5
		c1.2,0.8,1.4,2,2,3c0.5,0.8,0.7,1.5,0.7,2.3c0,0.1,0,0.2,0.1,0.3c1.5,1.4,1.4,3.2,1.8,4.8c0.1,0.4-0.2,0.8-0.2,1.3
		c0.1,1.4,0.7,2.9,0.6,4.3c0,0.2,0.1,0.4,0.3,0.5c0.9,0.5,0.6,1,0.1,1.5c-0.2,0.2-0.4,0.5-0.4,0.8c-0.1,0.7-0.1,1.5-1,2
		c0.1,1-1,1.8-0.4,2.9c0.4,0.7,0.4,1.6-0.5,2.3c-0.2,0.2-0.3,0.4-0.3,0.6c0,1.2-0.2,2.4-0.7,3.5c-0.2,0.5,0,1.2-0.1,1.8
		c-0.1,0.7-0.7,1.2-0.6,1.9c0.3,1.6-0.3,3.1-0.6,4.7c-0.1,0.5-0.2,1.1,0.5,1.5c0.2,0.1,0.4,0.2,0.4,0.5c-1.4,0.2-2.4,1.4-2.6,2.5
		c-0.2,1.1-0.3,2.2-0.3,3.3c0,0.5,0.1,0.9,0.8,1.2c0.7,0.3,1.1,0.8,1.1,1.5c0,0,0,0,0,0l0,0c0,0,0,0,0,0c-0.5,0-0.9-0.1-1.2-0.5
		c-0.3-0.4-0.7-0.3-1.1-0.1c-0.6,0.3-1,0.7-1.2,1.4c-0.2,1.2-0.3,2.4-1.3,3.5c-0.4,0.4-0.8,0.9-0.7,1.5c0.1,0.5-0.1,0.6-0.8,0.5
		c-1.4-0.2-1.4-0.2-1,0.8c0.1,0.4,0.2,0.7,0.5,1c0.9,0.9,0.1,2.4-0.6,3c-0.3,0.3-0.7,0.2-1.1,0.2c-1.1,0.1-1.4,0.5-1.1,1.3
		c0.1,0.2,0.3,0.4,0,0.6c-0.3,0.2-0.6,0-0.9-0.1c-0.5-0.1-0.5-0.5-0.7-0.8c-0.1-0.2-0.4-0.3-0.7-0.3c-0.4,0.1-0.3,0.3-0.2,0.5
		c0.3,0.6-0.1,0.6-0.7,0.5c-0.4-0.1-0.8-0.2-1.3,0c0.4,0.4,0.8,0.6,1.3,0.7c1.7,0.3,1.8,0.5,1.3,1.8c0,0.1,0,0.1,0,0.2
		c0.4,0.3,0.9-0.1,1.3,0.1c0.2,0.1,0.3,0.2,0.3,0.3c0,0.2-0.1,0.4-0.4,0.4c-0.5,0.1-1,0-1.4-0.1c-1.3-0.4-1.4-0.4-1.9,0.7
		c-0.6-0.3-1.2-0.6-1.9-0.9c-0.5-0.2-0.7-0.6-0.7-1c0-0.8-0.6-1.1-1.5-1.3c-0.5-0.1-1-0.2-1.1-0.8c-0.2-0.7-1.2-0.9-2-0.5
		c-0.5,0.2-0.8,0.1-1.3,0c-1-0.1-1.1,0-1,0.7c0,0.3,0.2,0.7,0.2,1c0,0.7-1.1,1.2-1.9,0.7c-0.6-0.4-1.1-0.8-2-0.6
		c-0.5,0.1-1.5-0.8-1.5-1.2c0.1-0.5-0.2-0.8-0.6-1.1c-0.7-0.5-1.2-1.2-1.4-1.9c-0.1-0.4-0.3-0.8-0.6-1.1c-0.4-0.5-0.9-0.7-1.7-0.8
		c-0.4,0-0.9,0-1.3-0.1c-0.9-0.3-1.6-0.7-2.7-0.5c-0.5,0.1-1.3-0.4-2-0.6c-0.3-0.1-0.6-0.1-0.8-0.2c0,0-0.1,0.1-0.1,0.1
		c0.1,1.3,1.2,2.5,2.6,2.9c0.9,0.3,1.5,0.7,2.2,1.2c1,0.8,1.7,1.7,2.5,2.6c0.2,0.2,0.3,0.4,0.1,0.6c-0.2,0.2-0.6,0.1-0.8,0
		c-0.3-0.2-0.6-0.4-0.9-0.5c-0.5-0.3-1.1-0.4-1.7-0.2c-0.4,0.1-0.4,0.4-0.3,0.7c0.1,0.3,0.3,0.3,0.7,0.3c1-0.2,1.7-0.1,1.9,0.6
		c0.3,0.9,0.7,1.7,1.4,2.4c0.2,0.3,0.2,0.6,0,1c-0.5,0.8-0.3,1.3,0.8,1.7c0.8,0.3,1.6,0.7,2.4,1c1.1,0.5,1.3,1.2,0.6,2.2
		c-0.5-0.4-0.3-0.9-0.6-1.3c-0.2-0.2-0.4-0.5-0.8-0.5c-0.4,0-0.4,0.3-0.5,0.5c0,0.1-0.1,0.2-0.2,0.3c-1,0.5-0.9,0.9-0.1,1.5
		c0.3,0.2,0.1,0.4-0.2,0.5c-0.7,0.2-0.9,0.6-0.6,1.2c0.1,0.1,0.1,0.3,0.1,0.4c-0.6,0.8,0,1.3,0.8,1.8c0.7,0.5,1.2,1.2,2,1.6
		c0.4,0.2,0.7,0.4,1-0.2c0.3-0.5,1.2-0.2,1.7-0.5c0.1-0.1,0.4-0.1,0.6-0.1c0.3,0,0.6,0,0.7-0.3c0-0.2-0.2-0.4-0.5-0.5
		c-0.5-0.3-1-0.4-1.4-0.8c0.2-0.3,0.6-0.2,0.8-0.1c0.8,0.4,1.5,0.8,2,1.4c0.8,1,1.8,1.8,2.8,2.7c0.1,0.1,0.4,0.3,0.3,0.5
		c-0.4,0.2-0.7,0-0.9-0.1c-0.7-0.6-1.8-0.8-2.5-1.4c-0.6-0.4-1.4-0.3-2.2-0.4c-0.1,0.8,0,1.4,0.5,2.1c0.2,0.2,0.4,0.5,0.8,0.4
		c0.4,0,0.8-0.2,0.8-0.5c0-0.2,0.1-0.5,0.5-0.4c0.5,0.1,0.7,0.4,0.9,0.7c0.1,0.3-0.1,0.4-0.4,0.5c-1,0.5-1,0.7-0.1,1.3
		c0.6,0.3,1,0.8,1.8,1c-0.1,0.1-0.2,0.2-0.3,0.2c-1.7-0.1-1.7-0.1-1.1,1.1c0,0.1,0,0.2,0,0.4c-0.8-0.2-1.2-0.6-1.7-0.9
		c-0.3-0.2-0.6-0.4-1-0.1c-0.2,0.1-0.3,0.4-0.7,0.3c-0.4-0.1-0.8-0.3-1.1-0.5c-0.4-0.3-0.1-0.6,0.1-0.8c0.3-0.3,0.7-0.5,0.5-1
		c-0.3-0.5-0.8-0.9-1.4-1.3c-0.2-0.1-0.4-0.1-0.5,0.1c-0.3,0.3-0.7,0.4-1,0.6c-0.3,0.2-0.6,0.4-1,0.2c-0.4-0.1-0.8-0.2-1,0.2
		c-0.2,0.3-0.2,0.7,0.1,0.9c0.6,0.4,0.7,0.8,0.6,1.4c0,0,0,0,0,0c0,0,0,0,0,0c1.5,0.1,2.2,0.9,3.2,1.7c-1.2,0-2.6-0.8-3.2-1.7
		c0,0,0,0,0,0c0,0,0,0,0,0c-0.5-0.1-0.6-0.5-0.9-0.7c-0.2-0.2-0.5-0.2-0.8-0.1c-0.3,0.2-0.2,0.4-0.1,0.6c0.3,0.4,0.6,0.7,1.1,0.9
		c0.4,0.2,0.9,0.3,1.1,0.8c-1-0.1-1.8-0.2-2.6-0.6c-0.2-0.1-0.5-0.3-0.8-0.1c-0.3,0.2-0.1,0.4,0.2,0.6c0.4,0.2,0.5,0.4,0.2,0.7
		c-0.3,0.3,0.1,0.5,0.3,0.7c0.6,0.7,0.6,0.9-0.5,0.9c-0.6,0-0.8,0.3-0.7,0.6c0.1,0.5,0.2,0.9,0.1,1.4c-0.1,0.3,0.3,0.4,0.5,0.6
		c0.5,0.4,0.4,0.7-0.1,0.9c-0.5,0.2-0.9,0.2-1.2-0.2c-0.1-0.1-0.2-0.3-0.3-0.4c-0.4-0.6-1.4-0.6-1.7-1.2c-0.3-0.5,0.4-1,0.2-1.6
		c-0.1-0.3-0.3-0.6-0.7-0.8c-0.7-0.4-1.5-0.8-2.4-0.8c-0.2,0-0.5,0-0.6,0.2c-0.1,0.2,0.1,0.4,0.3,0.5c0.4,0.3,0.8,0.5,1.2,0.8
		c0.4,0.3,0.5,0.5,0.2,0.9c-0.3,0.3-0.6,0.4-1.1,0.3c0,0-0.1,0-0.1,0c-0.4-0.2-0.9-0.5-1.3,0c-0.4,0.5-0.1,0.8,0.4,1.1
		c0.2,0.1,0.4,0.2,0.4,0.4c-1.1,0.3-2.2,0.1-2.7-0.6c-0.3-0.4-0.5-0.8-0.7-1.2c-0.1-0.2-0.2-0.5-0.6-0.6c-0.4,0.2-0.1,0.4,0,0.5
		c0.2,0.3,0.2,0.6-0.2,0.8c-0.4,0.3-0.4,0.6-0.2,1c0.3,0.4,0.1,0.6-0.6,0.6c-0.2,0-0.5,0-0.7,0c-0.6,0.3,0.5,0.8-0.2,1
		c-0.5,0.2-0.8,0.4-1.2,0.6c-0.5,0.2-0.9,0-1.3-0.2c-0.4-0.3-0.8-0.6-1.2-0.9c-0.2-0.1-0.5-0.3-0.6,0c-0.5,0.7-1.1,0.3-1.7,0.1
		c-0.6-0.2-1.1-0.3-1.4,0.3c0.4,0,0.7,0.2,0.9,0.5c0.2,0.2,0.3,0.4,0,0.6c-0.3,0.2-0.5,0.1-0.7-0.1c-0.3-0.2-0.4-0.5-0.4-0.8
		c-0.4,0.1-0.8,0.1-1,0.4c-0.1,0.1-0.4,0.2-0.5,0.2c-0.9-0.4-1.9-0.2-2.8-0.1c-0.3,0-0.6-0.3-0.8-0.5c-1.1-1.2-2.6-2.1-3.9-3.2
		c-1.4-1.1-3-2.1-4.2-3.3c-0.3-0.3-0.8-0.5-1.3-0.5c-0.4,0-0.7,0-0.8,0.4c0,0.3,0.1,0.6,0.5,0.7c0.2,0.1,0.5,0,0.7,0
		c1.1,0.1,1.3,0.6,0.6,1.3c-0.5,0.5-0.4,0.7,0.3,1c0.4,0.1,0.9,0.1,1.2,0.4c0.2,0.1,0.3,0.3,0.2,0.5c-0.1,0.2-0.4,0.2-0.6,0.1
		c-0.4-0.1-0.8-0.5-1.2-0.2c-0.4,0.3,0.1,0.7,0.4,0.9c0.9,0.8,1,1.6,0.2,2.4c-0.1,0.1-0.2,0.3,0,0.4c0.2,0.1,0.4,0.1,0.5-0.1
		c0.1-0.1,0.2-0.2,0.3-0.3c0.2-0.2,0.5-0.3,0.8-0.1c0.3,0.2,0.5,0.4,0.3,0.7c-0.1,0.2-0.4,0.4-0.5,0.7c-0.2,0.3-0.1,0.5,0.2,0.7
		c0.3,0.2,0.6,0.1,0.9-0.1c0.8-0.4,1.6-0.7,2.4-1c0.6-0.2,0.6-0.4,0.4-0.8c-0.2-0.4-0.4-0.7-0.8-1c-0.3-0.2-0.5-0.5-0.7-0.7
		c-0.1-0.2-0.3-0.4,0-0.6c0.2-0.1,0.5,0,0.7,0.1c0.5,0.2,0.9,0.5,1.4,0.7c0.7,0.3,1,0.6,0.6,1.2c-0.1,0.1-0.2,0.3-0.1,0.3
		c0.6,0.7,0.5,1.5,0.9,2.2c0.5,0.7,0.8,1.3,0,1.9c-0.3,0.3,0,0.9-0.7,1c-0.5,0.1-0.9-0.2-1.4-0.4c-0.4-0.1-0.6,0-0.7,0.2
		c-0.2,1-0.8,1.8-1.7,2.5c-0.1,0-0.1,0.1-0.1,0.2c0.5,1.2-0.9,1.9-1.2,3c0,0.1-0.1,0.2-0.2,0.3c-0.4,0.5-1.1,0.7-1.6,0.6
		c-0.6-0.2-0.8-0.7-0.3-1.3c0.7-0.8,0.6-1.7,0.7-2.6c0-0.4,0-0.9,0.3-1.3c0.3-0.4,0-0.7-0.3-1c-0.4-0.4-0.7-0.4-0.9,0.1
		c-0.2,0.7-1.1,1-1.7,1.6c-0.2-0.6-0.5-1-1.1-1.2c-0.3-0.1-0.4-0.4-0.4-0.6c0.3-1.1-0.1-2.1,0.2-3.2c0.1-0.2,0.1-0.5,0.4-0.6
		c0.9-0.3,0.8-0.9,0.7-1.4c-0.2-1-0.5-2-0.2-3c0.1-0.3,0-0.7,0.2-1c0.2-0.5,0-1-0.6-1.1c-1.2-0.2-2.2-0.8-3.5-0.9
		c-0.2,0-0.5,0-0.7,0l0,0c-0.1,0.5,0.3,0.9,0.6,1.4c0.2,0.3,0.5,0.6,0.5,0.9c0,0.2,0.3,0.5-0.2,0.7c-0.4,0.1-0.6-0.1-0.8-0.4
		c-0.2-0.4-0.5-0.8-0.6-1.2c-0.3-1-1.3-1.7-2-2.5c-0.3-0.4-0.8-0.3-1.3-0.1c-1.5,0.7-1.8,1.7-1.7,3c0,0.4,0.2,0.8-0.2,1.2
		c-0.4,0.3-0.2,0.6,0.3,0.7c1,0.3,1.2,0.8,0.9,1.5c-0.2,0.4-0.1,0.7,0.1,1.1c0.3,0.4,0.1,0.8-0.3,1c-0.7,0.4-1.3,0.7-2.1,1
		c-0.5,0.1-0.7,0.1-0.6,0.6c0.2,0.8-0.7,1.8-1.7,2.1c-0.6,0.1-1.1,0.3-1.7,0.4c-0.5,0.1-1,0.1-1.3-0.2c-0.4-0.3-0.3-0.6,0-0.9
		c0.1-0.2,0.3-0.4,0.2-0.6c-0.2-0.2-0.4-0.1-0.6-0.2c-1.2-0.1-1.2-0.1-1.1-1c0-0.2,0.1-0.4,0-0.5c-0.3-0.5-0.1-0.9,0.6-1
		c0.7-0.2,0.8-0.7,1.3-1.1c-0.6-0.1-1.1-0.2-1.6-0.3c-0.6-0.1-0.9-0.3-1-0.8c0-0.6-0.3-0.7-1.1-0.5c-1.5,0.4-2.2,1.4-3,2.4
		c-0.4,0.5-0.6,1.1-1.4,1.3c-0.3,0.1-0.5,0.4-0.6,0.6c-1,1.3-2,1.5-3.6,0.6c-0.5-0.3-0.9-0.9-1.6-0.1c-0.3,0.3-0.7,0-1-0.2
		c-0.5-0.2-1.1-0.6-1.8-0.5c-0.3,0-0.7,0-0.9,0.3c-0.2,0.3,0,0.5,0.3,0.7c0.3,0.2,0.6,0.4,0.9,0.6c0.6,0.5,0.6,1-0.2,1.4
		c-0.1,0.1-0.2,0.1-0.4,0.2c-0.9,0.3-1.4,0.7-1.2,1.6c0.1,0.6-0.2,0.7-0.8,0.4c-1.1-0.4-1.5-1.5-0.8-2.2c0.2-0.2,0.5-0.4,0.4-0.6
		c-0.6-0.9,0-1.8-0.3-2.6c-0.3-1-0.6-1.1-1.7-0.5c-0.2,0.1-0.3,0.1-0.5,0.2c-0.5-0.1-0.3-0.4-0.4-0.5c-0.2-0.4-0.4-1-0.9-1.1
		c-1.7-0.4-1.8-1.8-3-2.5c-0.3-0.2-0.3-0.6,0-0.9c0.3-0.3,0.4-0.6,0.4-0.9c0-0.3-0.2-0.5-0.5-0.3c-0.5,0.3-0.7,0-1-0.1
		c-0.7-0.2-1-0.1-1.2,0.5c-0.2,0.7-0.9,0.4-1.4,0.5c-0.5,0.1-0.6-0.3-0.6-0.6c0-0.3,0-0.6,0-0.9c0-0.6,0.3-0.9,1-1.1
		c1-0.3,0.9-0.3,0.4-1.1c-0.3-0.4-0.6-0.8-1.2-1c-0.4-0.1-0.7-0.4-0.9-0.7c-0.1-0.2-0.3-0.4-0.1-0.5c1.3-1,0.9-2.2,1-3.4
		c0.1-1-0.1-1.9-0.8-2.8c-0.1-0.1-0.3-0.3-0.2-0.4c0.5-1-0.4-1.6-1-2.3c-0.3-0.4-0.4-0.8-0.2-1.3c0.6-1.5,0.6-3,0.4-4.5
		c0-0.4,0.1-0.6,0.2-1c0.4-0.9,1.5-1.4,2.2-2.2c0.2-0.3,0.7-0.3,1.1-0.2c0.4,0.1,0.7,0.2,1.1,0.3c0.5,0.1,1-0.1,0.8-0.5
		c-0.5-0.7,0.1-1.4,0-2.1c0-0.6,0.4-0.8,1.1-0.5c0.3,0.1,0.6,0.3,0.8,0.5c0.4,0.3,0.8,0.7,1.2,1c0.2,0.2,0.4,0.5,0.8,0.4
		c0.3-0.1,0.3-0.4,0.2-0.6c-0.2-0.3,0.1-0.5,0.4-0.6c0.6-0.3,0.8-0.7,0.3-1.1c-0.6-0.5-1.1-1-1.5-1.6c-0.1-0.2-0.4-0.3-0.6-0.5
		c-0.5-0.2-0.7-0.1-0.8,0.3c-0.3,1.1-0.5,1.2-1.8,0.7c-1.2-0.5-2-0.4-3.1,0.2c-0.1,0-0.1,0.1-0.2,0.1c-0.4,0.2-0.7,0.6-1.1,0.4
		c-0.5-0.2-0.3-0.7-0.2-1c0.4-1.2,0.1-1.9-1.2-2.6c-0.7-0.4-1.2-0.3-1.4,0.3c-0.2,0.6-0.5,0.9-1.3,1.1c-0.3,0.1-0.7,0.2-0.7,0.5
		c-0.1,0.9-1.2,1.1-1.8,1.7c-0.2,0.2-0.5,0.3-0.8,0.3c-2.2,0.2-4.5,0.5-6.1-1.3c-0.5-0.6-1.3-1.1-1.4-1.8c-0.1-1-0.7-1.9-0.9-2.9
		c0-0.1-0.1-0.3-0.1-0.4c-0.2-0.5-0.5-0.7-1.2-0.6c-0.4,0-0.8,0.1-1.2,0c-0.4,0-0.7-0.2-0.6-0.6c0.3-1.4,0.3-2.7-0.6-3.9
		c-0.2-0.3-0.1-0.7,0.1-1c0.4-0.7,0.4-1.4,0-2.1c-0.2-0.3-0.3-0.6-0.2-0.9c0.1-0.9-0.2-1.7-1-2.5c-0.7-0.7-1-1.6-1.1-2.5
		c-0.2-1.2-1.1-2.3-1.3-3.5c0-0.4-0.5-0.6-1-0.8c-0.4-0.1-0.7-0.3-0.7-0.6c0-0.4,0.3-0.6,0.8-0.7c0.7-0.1,0.7-0.4,0.5-0.8
		c-0.1-0.2-0.2-0.4-0.4-0.6c-0.6-0.6-0.7-1.3-0.5-2c0.1-0.5,0.1-1-0.5-1.3c-0.4-0.3-0.5-0.7-0.4-1c0.2-0.6-0.1-1.1-0.6-1.6
		c-0.8-0.8-1.1-1.7-0.6-2.6c0.3-0.7,0.4-1.4,0-2.1c-0.2-0.4-0.3-0.8,0-1.2c0.7-0.7,0.4-1.5,0.1-2.2c-0.3-0.8-0.6-1.7-0.6-2.5
		c-0.1-0.9-0.1-1.9-0.7-2.7c-0.1-0.2-0.1-0.4-0.1-0.5c0.3-1.5,0.6-2.9,0.9-4.4c0.1-0.3,0.2-0.6,0-0.9c-0.6-0.8-0.2-1.5,0.5-2.2
		c0.4-0.4,0.5-0.8,0.3-1.4c-0.3-1.1-0.2-2.2,0.3-3.3c0.1-0.2,0.2-0.4,0.2-0.6c-0.1-1.9,0.8-3.7,0.7-5.5c0-0.9,0.1-1.8,0.4-2.7
		c0.3-0.9,0.8-1.7,1.1-2.5c0.3-1.2,0.6-2.3,0.9-3.5c0-0.2-0.2-0.4-0.2-0.6c-0.4-1-0.5-2.1-0.5-3.2c0-0.7,0.4-1.5,0.5-2.3
		c0.2-1,0-2.1-0.1-3.1c-0.1-0.4-0.6-0.7-0.8-1c0.9-0.8,0.9-1.7,0.6-2.6c-0.1-0.2-0.3-0.4-0.2-0.5c0.5-0.9,0-1.7-0.1-2.5
		c-0.1-0.6-0.1-1.3,0.3-1.9c0.2-0.4,0.3-0.8,0.3-1.2c0-0.6,0.2-1.1,0.9-1.5c0.4-0.2,0.5-0.5,0.4-0.8c-0.2-1,0.3-1.8,0.6-2.7
		c0.4-1,0.7-2.1,0.6-3.2c0-0.7,0.5-1.3,1-1.8c0.7-0.8,0.7-1.6,0.9-2.4c0.1-0.5,0.3-1,0.6-1.5c0.4-0.6,0.5-1.2,0.2-1.8
		c-0.4-0.7-0.1-1.3,0.1-2c0.6-1.6,2.1-2.5,3.6-3.5c0.5-0.3,0.7-0.6,0.5-1.1c-0.2-0.5-0.2-0.9-0.4-1.4c-0.4-0.9,0.3-1.7,1.6-1.9
		c0.7-0.1,1.4-0.3,2-0.6c0.3-0.2,0.6-0.3,0.9-0.3c1-0.1,1.5-0.6,1.8-1.3c0.1-0.4,0.4-0.5,0.8-0.7c1.1-0.4,2.3-1,2.5-2.1
		c0.1-0.6,0.6-1,1-1.4c0.5-0.4,0.8-0.9,0.8-1.5c-0.1-1,0.5-1.6,1.7-2.1c0.8-0.4,2-0.5,2.5-1.3c0.3-0.4,1.1-0.3,1.7-0.2
		c1.1,0.2,1.9-0.1,2.6-0.7c0.1-0.1,0.1-0.1,0.2-0.2c1.5-1.3,3.2-2.3,5.7-2.2c1.2,0.1,2.2-0.2,3.2-0.8c0.7-0.4,1.6-0.6,2.5-0.7
		c0.8-0.1,1.5-0.2,2.2-0.6c0.5-0.2,1.1-0.4,0.7-1c-0.1-0.2,0.1-0.3,0.4-0.3c0.2,0,0.4,0.1,0.5,0.2c0.5,0.3,0.9,0.8,1.5,0.6
		c1-0.2,2.2-0.3,3-0.9c0.4-0.3,0.7-0.3,1.1-0.2c0.6,0.2,1,0.2,1.6-0.2c0.9-0.5,2-0.4,3.1-0.2c0.3,0.1,0.6,0.2,0.9,0.4
		c1.3,0.6,1.4,0.6,2.3-0.4c0.3-0.4,0.6-0.6,1.1-0.3c0.4,0.2,0.9,0.3,1.4,0.2c0.9-0.1,1.8,0,2.6,0.4c1.3,0.6,2.8,0.5,4.2,0.5
		c0.9,0,1.8-0.1,2.6,0.3c0.6,0.2,1.2,0.1,1.5-0.3c0.4-0.5,0.8-0.5,1.3-0.2c0.1,0.1,0.4,0.2,0.5,0.2c1.2-0.1,2.4,0.1,3.5,0.6
		c0.5,0.2,1-0.1,1.4-0.4c0.5-0.3,1-0.5,1.7-0.2c0.4,0.2,1,0.1,1.4,0.2c0.3,0,0.6,0,0.9,0.1c1.5,0.9,3.3,0.9,5,1.3
		c0.1,0,0.2,0.1,0.3,0.1c1.8-0.8,3,0.7,4.6,0.7c0.5,0,0.9,0.4,1.3,0.7c0.4,0.3,0.8,0.4,1.2-0.1c0.1-0.1,0.3-0.3,0.4-0.3
		c1.3,0.1,2.6-0.4,3.9,0.2c2,1,3.9,2,5.1,3.6c0.4,0.5,1,0.8,2,0.8c-0.5-0.7-0.8-1.4-1.5-1.9c-0.4-0.3-0.6-0.8-0.1-1.1
		c0.4-0.2,1-0.3,1.4,0.2c0.3,0.4,0.7,0.4,1.1,0.2c0.5-0.2,1.1-0.2,1.5,0.2c0.9,0.9,2.3,1.1,3.6,1.4c0.9,0.2,1.6,0.5,2.3,0.9
		c0.7,0.4,1.3,1.1,2.4,0.9c-0.1,0.5-0.4,0.6-0.8,0.6c-0.3,0-0.7,0-1,0c-0.2,0-0.4,0.1-0.5,0.2c-0.1,0.2,0,0.3,0.2,0.4
		c0.2,0.1,0.4,0.2,0.6,0.3c2.2,0.6,2.3,2,2.5,3.4c0.2,1.3,0.9,2.4,2.3,3.2c1.2,0.8,2.3,1.7,3,2.8c0.4,0.6,0.9,1.1,1.8,1.4
		c0.4-0.4,0-0.6-0.1-0.9c0-0.3,0-0.5,0.3-0.7c0.3-0.2,0.7-0.1,1,0c0.4,0.1,0.7,0.4,0.8,0.7c0.1,0.2,0.1,0.4,0.2,0.7
		c0.1,0.3,0.4,0.6,0.9,0.6c0.4,0,0.8-0.1,1-0.4c0.4-0.6,1-1.1,0.2-1.8c-0.4-0.3-0.3-0.8-0.5-1.2c-0.1-0.3,0-0.5,0.4-0.6
		c0.4,0,0.9,0.1,0.9,0.4c0,0.7,0.2,1.2,0.7,1.8c0.1,0.1,0.1,0.3,0,0.4c-0.9,0.7-0.4,1.3,0.4,1.7c-0.1,0.2-0.2,0.3-0.4,0.2
		c-0.5-0.1-0.9-0.2-1.1,0.3c-0.2,0.4,0.1,0.7,0.6,0.8c1.4,0.4,1.5,1.5,2.3,2.3c0.2,0.2,0,0.4-0.2,0.6c-0.5,0.4-0.3,0.7,0,1.1
		c0.2,0.1,0.3,0.3,0.4,0.5c0.9,0.7,1.5,1.4,1.5,2.5c0,0.4,0.2,0.8,0.7,1c1,0.4,1.3,1.1,1.6,1.8c0.1,0.1,0.1,0.3,0.2,0.4
		c0.2,0.3,0.3,1,0.9,0.8c0.5-0.1-0.1-0.6-0.1-0.9c0.1-0.7-0.3-1.4-0.5-2.1c0-0.1-0.1-0.3,0.1-0.4c0.2-0.1,0.5-0.1,0.7,0
		c0.2,0.1,0.4,0.3,0.6,0.5c0.2,0.2,0.5,0.4,0.9,0.3c0.4-0.1,0.4-0.4,0.4-0.7c0-0.3-0.4-0.5-0.3-0.9c1.5,0.3,1.9,0.7,2,1.8
		c0,0,0,0.1,0,0.1c1.2,0.6,1,2.1,2.7,2.3c0.2,0,0.4,0,0.6,0.1c0.4,0.1,0.8,0.3,0.6,0.6c-0.2,0.3-0.6,0.4-1,0.1
		c-0.2-0.2-0.5-0.3-0.8-0.1c-0.3,0.2-0.1,0.5,0,0.7c0.2,0.6,0.9,1.1,1.1,1.7c0.2,0.8,1.2,1.6,0.5,2.5c0.6,1.1,0.5,2.3,1.7,3.2
		c0.4,0.3,0.4,0.6,0.3,1.1c-0.2,0.7,0,1.6,0.6,2.2c0.6,0.5,1,1,1.2,1.6c0.1,0.2,0.3,0.4,0.4,0.5c0,0.2-0.2,0.3-0.4,0.3
		c-0.6,0-0.7,0.3-0.4,0.6c0.2,0.3,0.6,0.5,0.8,0.8c0.1,0.2,0.2,0.4,0,0.5C538,143.1,537.7,143.1,537.5,143z M499.7,230
		c-1-0.2-1.4-0.7-1.5-1.2c-0.1-0.6-0.6-1-1.1-1.4c-0.6-0.5-1.2-1.1-2-1.8C497,225.6,499,227.6,499.7,230z M536.7,437.3
		c-2.1-1.4-1.6-3.1-1.2-4.8c0.1-0.2,0.2-0.4,0.2-0.6c0.1-0.2,0-0.5,0.4-0.5c0.3,0,0.5,0.2,0.7,0.4c0.3,0.3,0.5,0.8,0.5,1.2
		c0,1.2,0.6,2.3,1,3.5C537.6,436.6,537.2,436.9,536.7,437.3z M541.4,260.5c-0.2,0.1-0.4,0.2-0.7,0.1c-0.2-0.1-0.1-0.3,0-0.4
		c0.2-0.9,0.5-1.8,0.5-2.7c0.1-1.3,0.5-2.6,0.4-3.9c-0.1-0.7,0.3-1,1.1-1.1c0.3-0.1,0.5,0,0.5,0.2c0,0.1,0,0.1-0.1,0.2
		c-0.5,1.1-0.1,2.3,0,3.4C543.3,257.8,543.2,259.4,541.4,260.5z M545.1,462.3c-0.1-1.1-0.1-2.1-0.2-3.5c0.9,2.2,2.2,4,2.2,6.2
		C546.1,464.2,545.2,463.4,545.1,462.3z M548.3,451.7c0,0.1-0.1,0.2-0.2,0.3c-0.2,0.2-0.1,0.8-0.7,0.7c-0.7-0.1-0.3-0.5-0.3-0.8
		c0-0.3-0.2-0.5-0.3-0.7c-0.1-0.3,0.1-0.4,0.4-0.4C548,450.8,548.5,451.2,548.3,451.7z M551.3,211.4c0,0.4,0.2,0.7,0.3,1.1
		c0.1,0.3,0.3,0.6,0.1,0.9c-0.7,1.2-0.7,2.6-1,3.9c-0.2,0.7-0.1,1.4-0.6,2c-0.2,0.2-0.1,0.4-0.1,0.7c0.4,2,0.4,4.1,0,6.1
		c-0.2,1,0.2,1.9,0,2.9c-0.1,0.5-0.1,1-0.4,1.5c-0.2,0.3-0.3,0.6-0.2,1c0.4,1.6-0.4,3.1-0.7,4.6c-0.2,0.8-0.3,1.3,0.7,1.7
		c0.1,0.1,0.2,0.1,0.3,0.2c0.1,0.1,0.2,0.3,0.1,0.4c-0.1,0.2-0.4,0.2-0.6,0.1c-0.2-0.1-0.4-0.3-0.7-0.2c0,0.5,0.5,0.5,0.8,0.7
		c0.7,0.4,0.8,1,0.2,1.3c-0.9,0.5-1.1,1.3-1.2,2.1c-0.1,0.5-0.4,0.8-0.6,1.3c-0.1,0.3-0.2,0.6,0.2,0.7c0.5,0.1,0.5-0.2,0.7-0.4
		c0.3-0.4,0-1,0.5-1.4c0.5,0.1,0.4,0.4,0.3,0.7c-0.2,0.6-0.3,1.2,0.1,1.8c0.2,0.2,0.1,0.4-0.2,0.6c-0.3,0.2-0.5,0.1-0.8-0.1
		c-0.6-0.4-0.9-0.3-1.1,0.3c-0.1,0.5-0.5,0.9-0.5,1.4c0,0.6,0.1,1.3,0.7,1.8c0.6,0.5,0.7,1.1,0,1.8c-0.4-0.6-1.1-0.8-1.7-1.2
		c-0.6-0.4-1.2-0.5-1.8-0.1c-0.5,0.3-0.7,0-0.8-0.3c-0.1-0.5-0.4-0.9-0.8-1.3c-0.4-0.4-0.1-0.7,0-1.1c0.2-0.7,0.7-1.4-0.2-2.1
		c-0.2-0.1-0.1-0.3,0-0.4c0.7-0.3,0.7-1,1.5-1.3c0.9-0.4,0.8-0.8,0-1.3c-0.8-0.5-0.9-0.7-0.5-1.4c0.5-0.9,0.9-1.7,1.3-2.6
		c0.2-0.7,0.2-1.3-0.5-1.9c-0.4-0.3-1.1-0.8,0.2-1c0.3,0,0.2-0.3,0.2-0.5c-0.1-0.6,0.1-1.2-0.3-1.7c-0.3-0.4-0.2-1,0.2-1.4
		c0.4-0.5,0.8-1,0.5-1.7c-0.1-0.2,0.1-0.4,0.2-0.5c0.1-0.3,0.2-0.6,0.3-0.9c0.1-0.5-0.3-1,0.2-1.6c0.3-0.4,0-1.1,0-1.6
		c-0.1-2.9,0.1-5.7,0.1-8.6c0-0.6-0.1-1.2-0.2-1.8c-0.1-0.5-0.3-1,0.1-1.5c0.1-0.1,0.1-0.4,0-0.5c-0.4-1.2-0.3-2.5-0.2-3.8
		c0-0.3,0-0.6-0.1-0.9c-0.1-0.6-0.2-1.2,0.3-1.7c0.3-0.3,0.4-0.7,0-1c-0.4-0.3-0.4-0.7-0.4-1.1c0.1-1.5-0.4-3-0.5-4.6
		c0-0.2-0.1-0.4,0-0.5c0.6-0.8,0.3-1.7,0.1-2.5c-0.2-0.6-0.1-1.3-0.1-1.9c0-1.2,0.4-2.3-0.5-3.5c-0.2-0.3-0.1-0.7-0.1-1
		c-0.1-0.8,0-1.6-0.8-2.2c-0.2-0.2-0.1-0.4-0.1-0.6c0.1-0.8,0.1-1.6,0.2-2.5c0-0.3,0.1-0.5-0.2-0.7c-0.7-0.6-0.7-1.3-0.7-2
		c0-0.8-0.1-1.6,0-2.5c0.2-1.3-0.3-2.7-0.1-4c0.1-0.5-0.3-0.8-0.9-1c-0.7-0.3-1-0.8-1-1.4c0-0.3,0-0.6,0.4-0.8
		c0.7-0.2,0.8-0.7,0.8-1.2c0-0.1,0-0.3,0-0.4c0-1.3,0.1-1.4,1.7-0.8c0.4,0.2,0.9,0.4,1.4,0.3c1.2-0.3,1.9,0.3,2.8,0.7
		c0.2,0.1,0.3,0.3,0.3,0.5c0,0.8,0.2,1.5,0.7,2.1c0.2,0.3,0,0.5-0.4,0.6c-1.1,0.4-1.5,1.1-1.6,2c-0.1,0.4-0.3,0.6-0.6,0.9
		c-0.9,0.9-0.6,1.8,0.7,2.4c0.3,0.1,0.3,0.5,0.8,0.5c0.8-0.7,0-1.6,0.2-2.3c2.1,0.5,2.8,1.2,2.8,2.7c0,0.4,0,0.7,0.1,1.1
		c0.2,0.5,0.2,0.9,0,1.4c-0.4,1-0.4,2,0.2,3c0.3,0.5,0.1,1.2,0.7,1.7c0.2,0.2,0.1,0.3-0.1,0.5c-1.1,1.1-1.1,2.3-0.7,3.6
		c0.3,1,1,1.9,0.8,2.9c-0.2,1.1-0.1,2.3-0.2,3.4c0,0.9-0.1,2,1.4,2.6c0.4,0.1,0.2,0.5-0.1,0.6c-0.8,0.3-0.7,1.2-1.8,1.4
		c-0.3,0-0.1,0.3,0,0.5c0.6,0.7,0.6,1.5,0.3,2.4c-0.3,0.8-0.3,1.7-0.1,2.6c0.1,0.6,0.2,1.1,1,1.4c0.5,0.2,0.6,0.5-0.1,0.7
		C551.3,210.4,551.2,210.9,551.3,211.4z M552.2,217.5c-0.1-0.2-0.1-0.4-0.1-0.6c0-0.3,0.3-0.5,0.8-0.5c0.5,0,0.9,0.1,0.9,0.6
		c0,0.1,0,0.3,0,0.4c-0.1,0.4,0.2,1-0.6,1.1C552.3,218.5,552.3,217.9,552.2,217.5z M564.6,464.4c-0.7,0.1-1,0.5-1.6,0.8
		c-0.7,0.3-1.3,0.5-1.8-0.1c-0.3-0.3-0.6-0.4-1-0.2c-0.5,0.3-0.1,0.5,0,0.8c0.1,0.2,0.2,0.5,0.5,0.7c0.5,0.3,0.9,0.6,0.5,1.2
		c-0.2,0.2,0.1,0.6,0.5,0.5c0.8,0,0.7,0.3,0.5,0.6c-0.4,0.8-1.1,1.4-2.3,1.7c0.8-0.9,0.1-1.6-0.4-2.3c-0.3-0.5-0.7-0.6-1.1-0.2
		c-0.7,0.7-1.6,1-2.8,1.1c-0.3,0-0.5,0.2-0.7,0.3c-0.5,0.3-1,0.2-1.5,0.1c0.1-1.4,1.9-1.6,2.8-2.4c0.2-0.1,0.5,0,0.7,0
		c0.6,0.1,1-0.2,1.5-0.4c0.3-0.2,0.4-0.4,0.3-0.7c-0.1-0.3-0.5-0.4-0.8-0.3c-0.8,0.1-1.1-0.1-1.2-0.7c-0.1-0.3-0.1-0.9-0.8-0.8
		c-0.5,0.1-0.7,0.5-0.8,0.9c-0.1,0.3,0,0.5-0.1,0.8c-0.1,0.7-0.6,1.1-1.5,1c-0.6,0-1,0-1.5,0.3c-0.4,0.2-0.9,0.2-1-0.3
		c-0.1-0.7-0.4-1.4-0.5-2.2c-0.1-0.8,0.1-1.4,1-2.1c0.9-0.7,1.5-1.9,0.5-3c-0.3-0.3-0.1-0.5,0.3-0.6c0.7-0.3,1.1-0.7,1.4-1.3
		c0.2-0.4,0.6-0.6,0.9-0.9c0.2-0.2,0.4-0.3,0.6-0.2c0.3,0.1,0.5,0.3,0.4,0.5c0,0.2-0.1,0.5-0.2,0.6c-0.9,0.5-0.5,1.1,0,1.6
		c0.7,0.7,0.9,1.3,0.4,2.1c-0.1,0.2-0.1,0.4-0.1,0.5c0,0.3,0,0.6,0.5,0.7c0.6,0.1,0.5-0.3,0.6-0.6c0.1-0.4,0.2-0.9,0.2-1.3
		c0-1.1,0.4-1.5,1.8-1.9c0.1,0,0.3,0,0.4-0.1c1-0.6,1.8-0.6,2.4,0.4c0.2,0.4,0.7,0.2,1.1,0.1c0.4-0.1,0.6-0.3,0.5-0.6
		c-0.1-0.3,0-0.6,0.1-0.9c0.2-0.5,0.5-0.6,1-0.2c0.6,0.5,1.2,1,1.8,1.5c0.2,0.2,0.5,0.4,0.3,0.7c-0.2,0.2-0.5,0.1-0.8,0.1
		c-0.1,0-0.3,0-0.5,0.1c0.4,0.8,1.1,1.4,1.8,2c0.6,0.4,0.6,0.8,0,1.1C566.1,463.6,565.6,464.3,564.6,464.4z M567,474
		c-0.4,0.1-0.6-0.3-0.6-0.6c0-0.2,0.2-0.3,0.4-0.5c0.6-0.4,2.2-1.9,2.5-2.4c0.1-0.2,0.2-0.4,0.2-0.6c-0.1-0.8,0.7-1.3,1.4-1.4
		c1.2-0.2,2-0.7,2.9-1.3c0.5,0.3,0.6,0.8,1.1,1c1,0.6,1.1,0.9,0.5,2c-0.5-0.2-0.9-0.6-1.6-0.4c-0.7,0.2-0.9,0.7-1.2,1.1
		c-0.2,0.4-0.5,0.7-1,0.9c-0.9,0.2-1,1-1.6,1.4C569.1,473.9,568,473.7,567,474z M575.8,474.9c-0.6,0.3-0.8,0.8-1,1.3
		c-0.4,0.9-0.7,1-1.9,0.9c-0.6,0-1,0.1-1.5,0.4c-1.2,0.7-1.3,0.6-2.2-0.3c-0.2-0.2-0.4-0.3-0.5-0.5c-0.2-0.5-0.6-0.9-1.2-1.3
		c0.7-0.5,1.1-0.3,1.6-0.1c0.5,0.2,1.1,0.2,1.3-0.2c0.5-1,1.7-0.9,2.7-1c0.8-0.1,1.6,0,2.3,0c0.3,0,0.6,0.1,0.7,0.3
		C576.2,474.7,576,474.8,575.8,474.9z M576.6,446.6c-0.3,0-0.5-0.1-0.6-0.3c0,0-0.1-0.1-0.1-0.1c-0.1-0.7-0.5-1.3-0.8-1.9
		c-0.1-0.1,0-0.3,0-0.4c0.1,0,0.2-0.1,0.3-0.1c0.3,0.5,0.8,0.9,1.2,1.4c0.2,0.3,0.4,0.6,0.4,0.9C577,446.4,576.9,446.6,576.6,446.6z
		 M605.4,461.5c0,0.2,0,0.2-0.2,0.3c-0.4,0.2-0.4,0.8-1.2,0.4c-1-0.5-1.1-0.4-0.9-1.2c0-0.2,0-0.4,0.1-0.5c0,0,0,0,0,0l0,0
		c0,0,0,0,0,0C604.1,460.5,604.7,461,605.4,461.5z M600.8,447.8c0.9,0.8,1.2,1.5,1.4,2.2c0.2,0.6,0.4,1.2,0.8,1.8
		c0.4,0.5,0.4,1.1,0.4,1.6c0,0.3-0.1,0.5-0.5,0.6c-0.4,0.1-0.7-0.1-0.8-0.3c-0.6-1-1.4-1.9-1-3c0.1-0.2,0.1-0.3,0-0.4
		C600.6,449.6,600.7,448.8,600.8,447.8z M588.9,459.1c1.1-0.6,1.3-0.6,2.1,0.3c0.1,0.1,0.2,0.2,0.4,0.2c1.9,0.4,2.5,2.2,1.1,3.2
		c-0.3,0.2-0.4,0.4-0.6,0.6c-0.2,0.3-1.4,0.6-1.7,0.5c-0.1,0-0.2-0.1-0.2-0.1c-0.7-1-2-1.8-1.9-3C588,460.2,588.1,459.5,588.9,459.1
		z M580,473c0.2-0.1,0.5-0.2,0.8-0.3c1.1-0.4,1.4-0.2,1.4,0.6c0,0.6-0.4,0.8-1,0.9c-0.6,0.1-1.3-0.1-1.4-0.5
		C579.7,473.4,579.7,473.1,580,473z M587.2,477.9c-0.2,0.4-0.8,0.5-1.2,0.6c-1.6,0.6-3.1,1.2-4.8,1.6c-0.2,0.1-0.5,0.1-0.6,0.1
		c-2-0.1-2.3-0.3-1.6-1.6c0.1-0.3,0.4-0.5,0.5-0.8c0.1-0.3,0.4-0.5,0.9-0.4c0.8,0.2,1.1-0.2,1.4-0.6c0.6-0.7,1.1-1.3,2.4-1.3
		c0.5,0,0.8-0.3,0.8-0.7c0-1,1-1.5,1.6-2.3c0.1-0.2,0.4-0.2,0.7-0.1c0.5,0.3,1,0.3,1.6,0.4c1.4,0.1,3,2.2,2.7,3.2
		c-0.2,0.5-0.5,0.8-1.1,1c-0.5,0.2-1,0.3-1.3-0.1c-0.4-0.5-1.1-0.5-1.7-0.6c-0.7-0.1-0.9,0.1-0.8,0.6
		C586.9,477.2,587.5,477.5,587.2,477.9z M587.4,480.3c0.4-0.8,1.7-1.1,2.5-0.7c0.4,0.2,0.5,0.4,0,0.6c-0.7,0.2-1.5,0.4-2.1,0.5
		C587.5,480.7,587.3,480.5,587.4,480.3z M593.6,490.9c-0.1,0.3-0.4,0.3-0.6,0.3c-1.4-0.2-2.7-0.4-4-0.6c-0.3-0.1-0.7-0.2-0.7-0.5
		c0-0.3,0.4-0.4,0.7-0.5c0.5-0.1,1-0.2,1.6,0c0.8,0.3,1.7,0.6,2.6,0.8C593.4,490.5,593.6,490.6,593.6,490.9z M594.5,478.4
		c-0.7,0.3-1.5,0.6-2.2,0.9c-0.3,0.1-0.7,0.1-0.9-0.2c-0.2-0.2-0.2-0.6,0.1-0.7c1-0.6,2-1.4,3.4-1.5c0.4,0,0.6,0.1,0.6,0.4
		C595.4,477.7,595.1,478.1,594.5,478.4z M599.1,468.2c-0.3,0.5-0.7,0.9-0.3,1.5c0,0,0,0.1,0,0.3c-0.8-0.2-1.5-0.4-2.3-0.5
		c-0.3,0-0.6-0.2-0.9-0.4c-0.4-0.3-0.4-0.7,0.2-0.9c0.3-0.2,0.7-0.2,1.1-0.3c0.3,0,0.7,0,1-0.3c-0.5-0.4-1.1-0.3-1.6-0.3
		c-0.4,0-0.9,0.1-1.3-0.2c-0.4-0.3-0.5-0.9-1-1.2c0,0,0-0.2,0-0.2c1-0.4,0.8-1.4,1.8-1.8c0.6-0.2,0.9-0.6,1.1-1.1
		c0.2-0.6,0.7-0.6,1.2-0.3c0.5,0.3,0.9,0.4,1.4,0c0.4-0.3,0.8-0.2,1.2,0c1.3,0.5,1.9,1.5,2.7,2.3c0.1,0,0.1,0.2,0,0.2
		c-0.6,1-0.9,2.1-2.2,2.8c-0.2,0.1-0.5,0.2-0.8,0.2C599.9,467.9,599.4,467.7,599.1,468.2z M605.2,470.6c-0.1,0.4-0.1,0.8-0.7,1
		c0,0.1,0,0.3,0,0.4c0.2,0.1,0.2,0.3,0.1,0.4c-0.7,0.9-2.2,1.5-3.5,1.3c-0.9-0.1-1-0.4-0.5-1c0.2-0.2,0.3-0.4,0.6-0.5
		c0.6-0.3,0.7-0.7,0.6-1.2c-0.1-0.3-0.2-0.7,0.4-0.8c0.1-0.1,0.2-0.2,0.3-0.4c-0.1-0.1,0-0.2,0.1-0.2c0.5-0.2,1-0.2,1.5,0.1
		C605.1,469.9,605.3,470,605.2,470.6z M608,466c-0.3,0.5-0.1,0.9-0.2,1.4c0,0.4-0.3,0.9-0.4,1.3c-0.2,0.5-0.4,0.8-1.2,0.7
		c-0.8-0.1-1.2-0.5-1.1-1.1c0.1-0.6,0.6-1.2,0.8-1.8c0.3-0.8,0.9-1.4,1.1-2.3C608.2,464.7,608.5,465.2,608,466z M605.8,455.2
		c-0.1-0.1,0-0.3,0.2-0.4c0.2-0.1,0.4,0,0.5,0.1c0.5,0.4,0.5,0.8,0,1.3C606.1,456,606,455.6,605.8,455.2z M621.2,483.1
		c-1.1,0.4-1.1,1.6-2.4,1.8c-0.5,0.1-0.8,0.5-1.2,0.8c-0.1,0.1-0.4,0.2-0.5,0.1c-0.3-0.1-0.2-0.3-0.1-0.5c0.6-1,1.6-1.7,2.4-2.6
		c0.2-0.2,0.7-0.3,1-0.4c0.5-0.1,0.8,0.2,0.9,0.6C621.3,483,621.3,483.1,621.2,483.1z M631.4,472c-0.6,0.9-0.7,1.9-1.8,2.6
		c-0.9,0.5-1.3,1.3-1.8,2.1c-0.3,0.4-0.5,0.8-0.7,1.2c-0.2,0.5-0.7,0.7-1.3,0.8c0.4-0.5-0.8-0.9-0.4-1.3c0.3-0.4,0.8-0.7,0.9-1.1
		c0.2-1,1.3-1.5,2.3-1.8c0.7-0.2,0.9-0.5,0.8-0.9c-0.2-1.1,0.9-1.4,1.7-1.9c0.1-0.1,0.3,0,0.4,0C631.3,471.7,631.4,471.9,631.4,472z
		 M631.8,468.7c-0.2,0.5-0.4,1-0.6,1.5c-0.1,0.2-0.2,0.4-0.5,0.2c-0.2-0.1-0.2-0.3-0.1-0.5c0.1-0.2,0.2-0.3,0.4-0.5
		c0.4-0.3,0.6-0.7,0.1-1.3C631.8,468.3,631.9,468.5,631.8,468.7z M634.6,441.7c-0.4,0.9-0.6,1.8-1.5,2.5c-0.6,0.5-0.9,1.3-0.9,2.1
		c0,0.4-0.1,0.7-0.1,1.1c0,0.3,0,0.7-0.5,0.8c-0.6,0.2-0.7-0.3-0.9-0.5c-0.1-0.1-0.2-0.3-0.4-0.3c-0.7-0.2-1.1-0.6-0.9-1.2
		c0.1-0.3-0.1-0.6-0.4-0.8c-0.6-0.5-0.6-1.1-0.3-1.7c0.3-0.6,0.6-1.2,0.5-1.8c0-0.4,0.2-0.7,0.6-0.8c0-0.1,0-0.3,0-0.4
		c-0.2-0.3,0.2-0.8-0.4-1c-0.5-0.1-1,0.2-1.4,0.5c-0.3,0.3-0.5,0.6-1.1,0.4c-0.6-0.2-0.8-0.5-0.8-0.9c0-0.3,0-0.6,0-0.9
		c0-0.1-0.1-0.3-0.1-0.4c-1.2-0.6-2-1.5-2.4-2.6c-0.4-0.9-0.8-1.8-1.9-2.5c-0.9-0.5-1.2-1.3-1.6-2.1c-0.3-0.6-0.6-1.3-1.2-1.8
		c-0.2-0.2-0.3-0.5-0.3-0.7c0.1-0.4-0.2-0.5-0.7-0.6c-0.8,0-1.3-0.3-1.5-0.9c-0.1,0-0.2-0.1-0.2-0.1c-0.9-0.1-1.2-0.5-1.1-1.1
		c-0.1-0.1-0.1-0.1-0.2-0.2c-1-0.6-1.9-1.3-1.4-2.4c-0.3-0.2-0.5-0.4-0.4-0.7c-0.5-0.4-1.1-0.8-1.6-1.3c-0.1-0.1-0.4-0.2-0.4-0.3
		c0.1-0.9-0.8-1.2-1.5-1.6c-0.7-0.4-1.1-1-1.7-1.5c-0.1-0.1-0.2-0.2-0.2-0.3c0.7-1.1-0.6-1.9-0.6-3c0.1-0.7-0.6-1.4-0.3-2.3
		c0.1-0.3-0.3-0.4-0.5-0.7c-0.4-0.5-0.5-0.9,0.1-1.4c0.6-0.5,1.2-1.1,1.7-1.7c0.6-0.7,0.4-1.2,0.1-1.8c-0.3-0.5-0.5-0.9-0.3-1.5
		c0.1-0.3,0-0.7,0-1c-0.1-0.6,0-1.2,0.3-1.7c0.3-0.5,0.7-1.1-0.1-1.6c-0.3-0.2-0.1-0.5,0-0.7c0.1-0.4,0.3-0.7,0.4-1.1
		c0.7-1.9,1.8-2.3,4.4-1.8c0.1-1.1-0.7-2.1-0.9-3.2c0-0.3-0.2-0.5-0.3-0.8c-0.1-0.4,0.1-0.7,0.5-1c0.4-0.2,0.7-0.1,1.1,0.1
		c0.5,0.2,1,0.5,1.4,0.8c0.8,0.7,1.7,1.5,2.5,2.2c0.4,0.3,0.4,0.6,0.5,1c0.1,0.5,0.2,1,0.7,1.3c1.7,1.1,2.3,2.7,2.9,4.2
		c0.4,1,1.6,1.6,1.9,2.6c0,0,0.1,0.1,0.1,0.1c1.8,0.2,1.4,1.4,1.7,2.3c0.3,1,0.7,1.7,1.8,2.4c0.9,0.5,1.7,1.3,1.4,2.4
		c-0.1,0.2-0.1,0.5,0.1,0.6c0.7,0.9,1.1,1.8,1.6,2.8c0.4,0.7,0.8,1.4,0.6,2.2c-0.2,0.7,0.2,1.5,0.5,2.2c0.5,1.2,1,2.3,1.2,3.6
		c0.1,0.7,0.3,1.3,0.2,2c-0.1,0.5,0.2,1,0.4,1.5c1,2.1,0.7,4-1,5.8c-0.5,0.5-0.8,0.9-0.4,1.5c0.3,0.5-0.1,0.9-0.3,1.4
		c-0.1,0.2-0.1,0.5,0.2,0.6c0.4,0.1,0.5-0.2,0.6-0.3c0.1-0.2,0.1-0.4,0.5-0.4c0.5,0.1,0.7,0.6,1.3,0.6c0.3,0,0.2,0.4,0.2,0.6
		c-0.1,0.4-0.2,0.9-0.2,1.3c-0.1,0.6,0,1.2,0.6,1.8C635.1,440.1,634.9,441,634.6,441.7z"/>
	<g>
		<path class="st0" d="M543.3,166c-0.9,5.5-0.3,11.1,1.7,16.4c0.4,1,1.3,2.2,2.6,1.9c0.6-0.1,1-0.6,1.3-1.1
			c2.6-4.4-0.4-9.6-3.5-13.9c-0.7,13,6.7,26.4,1.2,38.6c-1.4-7.2-1.4-14.6,0-21.8c-0.1,1.1-0.3,2.2-0.4,3.3c-1-2.2-2-4.5-3-6.7
			c-0.3,7.3-0.1,14.7,0.5,22c6.3-5.7,9.7-13.2,9.5-20.7c-2.1,3.1-3.7,6.4-4.7,9.8c0.4-9.1-0.3-18.2-2.1-27.1
			c-1.6,4.7-0.9,9.6-0.3,14.4c2.2,17.3,2.7,34.7,1.2,52.1c-0.6,7.9-1.7,16-6.5,22.9c-0.3-2.4-0.1-4.8,0.7-7.1
			c-1.5,3.6-2,7.4-1.5,11.1c3.8-7.1,6.9-14.5,9.1-22c-0.9,4.3-1.9,8.7-2.8,13c-1.8-6.6-1.7-13.5,0.2-20c-4.8,5.3-7.4,11.9-7.5,18.5
			c4.4-12.1,6.2-24.7,5.1-37.3c-0.1-1.6-0.6-3.5-2.5-4.1c-2.4,2.6-4.8,5.2-7.2,7.8c3,1.2,6.3-1.1,8.3-3.3c3.7-4.2,6.7-8.7,8.9-13.5
			c0.3,6.6,1.3,13.1,2.9,19.6c-0.9-2.8-0.9-5.7,0.2-8.5c1.2-3,3.5-5.7,4.8-8.7c1.2-3,1.1-6.8-2-8.8c-0.4,8.9,0.5,17.9,2.4,26.7"/>
	</g>
	<g>
		<path class="st0" d="M547.2,448.5c-0.7,5-1.3,10.1-2,15.1c-0.3,2.1,1.5,4.1,3.7,5.2c2.2,1.1,4.9,1.6,7.5,2c0.8,0.1,1.7,0.3,2.5,0
			c1.3-0.4,1.7-1.7,1.8-2.8c0.3-2,0.3-4.4-1.7-5.7c-2-1.3-5.9,0.3-4.9,2.1c1.7,0.8,4.1,0.3,5.1-1c1-1.3,0.2-3.3-1.5-4
			c-1.8,1.9-2.6,4.4-2.3,6.8c4.5-2.4,4.4-8.5-0.1-10.8c-3.5,1.9-5.7,5.3-5.6,8.8c4.1-0.3,7.8-3,8.4-6.2c-3,2.1-4.9,5.2-5.1,8.3
			c1.8-0.8,2.7-2.7,2.1-4.2c-2.4,0.8-3.9,3-3.3,5.1c2.9-1.6,5.2-4.1,6.3-6.8c-2.5,0.3-4.9,1.4-6.5,2.9c0.2-0.7,0.4-1.4,0.6-2.1
			c2.2,2.3,7.4,2.3,9.5,0c0.6,0.6,1.2,1.2,1.8,1.7c1.5-0.5,0.1-2.7-1.6-2.5c-1.7,0.2-2.7,1.5-3.5,2.7c4-0.4,7.6-2.6,9.2-5.5
			c-1.5,0.4-2.8,1.3-3.6,2.4c1.6-1.2,2.7-2.9,2.9-4.7c-3.8,1.8-6.5,4.9-7.2,8.3c1.8-0.5,3.5-1.2,5-2.2c-2.9,2.7-5.4,5.7-7.2,8.9
			c1.7-0.1,3.3-1,3.8-2.3c-1.5-0.1-3.1-0.2-4.6-0.3c-1,0.7,0.6,1.9,1.9,1.9c1.3,0,2.9-0.4,3.8,0.4c3.9,3.1,8.7,5.4,14,6.5
			c-0.4,1.5-3.2,2-4.8,1.1c-1.6-1-2-2.7-1.7-4.3c0.3-1.6,1.1-3,1.6-4.5c0.9-2.8,0.4-5.8-1.3-8.4c-2.8,2.1-4.5,5.2-4.5,8.3
			c1.9-1.9,3-4.2,3.2-6.6c-1.6,4-2,8.3-1.4,12.4c2.3-1.8,4-4.1,4.9-6.6c0.1,2.4-0.2,4.9-0.8,7.3c1.2-2.8,2.1-5.7,2.5-8.7
			c-0.5,2.8-1,5.6-1.5,8.4c0.5-0.7,1-1.4,1.5-2.1c0,1.9,0.7,3.9,1.9,5.5c1.7-1.1,3.1-2.5,3.9-4.1c0.8,1,1.2,2.3,1,3.5
			c1.1-1.9,1.7-4,1.7-6c-0.7,3.7-1.9,7.3-3.6,10.8c-0.6-3.7-0.6-7.5,0.2-11.1c-0.1,2.8,0,5.6,0.3,8.4c1.5-2.1,3-4.2,4.5-6.3
			c-0.1,1.7-0.3,3.5-0.4,5.2c0.3-0.8,0.6-1.7,0.9-2.5c-0.4,2.2-0.5,4.4-0.4,6.6c0.8-2,1.7-3.9,2.5-5.9c0.2,0.8,0.4,1.6,0.7,2.4
			c0.2-3.3,0.4-6.6,0.5-9.8c-0.4,1.6-0.8,3.2-1.3,4.8c-3.1-11.4-7.1-22.7-12.2-33.7c-0.6,2-0.6,4.1,0,6c0.7-0.8,2.2,0.3,2.7,1.2
			c2.7,5.8,5.5,11.6,8.2,17.3c2.7-3.3,4.2-7.2,4.2-11.1c-3.2,6.4-5.7,13-7.6,19.7c1.2-5,2.7-10,4.6-14.9c0.6,3.9,1.2,7.8,1.8,11.7
			c1.1-4.5,2.3-9,3.4-13.5c-0.3,7.3-0.5,14.6-0.8,22c1.2-4.5,2.5-8.9,3.7-13.4c-1.5,3.8-2.1,7.7-2,11.7c2.3-5.5,4.6-11,6.9-16.5
			c-1.3,3.6-2.6,7.3-4,10.9c0.1-5.1,0.2-10.2,0.3-15.3c-0.3,1.9-0.7,3.7-1,5.6c1-3.9,2-7.9,2.9-11.8c0.5,3,0.6,6,0.3,9
			c1.3-3.3,2.5-6.5,3.8-9.8c0.6,3.3,0.8,6.6,0.4,9.9c0.5-3.3,1.1-6.5,1.6-9.8c-1.5,4.7-3.2,9.2-5.3,13.7c0.2-3.8,0.9-7.6,1.9-11.3
			c0.1,2.4-0.2,4.9-0.7,7.3c0,0,0,0,0,0c-0.1,4.5-0.1,9-0.2,13.4c1.2-3.6,2-7.3,2.5-10.9c-0.3,2.2-0.6,4.5-1,6.7
			c0.2-1.7,0.5-3.3,0.7-5c-0.7,3.6-1.4,7.3-2.2,10.9c0.9-2.7,2.1-5.4,3.6-8c0.4,1.1,0.8,2.1,1.3,3.2c0.9-1.8,1.7-3.7,2.6-5.5
			c-0.5,2.8-1.1,5.5-1.6,8.3c0.1-2.4-0.2-4.9-1.1-7.2c-1.6,2.5-3.1,5-4.7,7.6c-0.2-4.6,0.4-9.1,1.9-13.5c0.2,1.4,0.4,2.7,0.6,4.1
			c1.8-3.2,3.6-6.4,5.4-9.5c1.3,2.2,1.3,4.9,0.2,7.1c0-1.2,0.1-2.4,0.1-3.7c-2.3,4.9-4.5,9.8-6.5,14.8c-0.2,0.6-0.4,1.2,0,1.7
			c0.4,0.5,1.7,0.4,1.6-0.2"/>
	</g>
	<g>
		<path class="st0" d="M416.2,460.3c5.7-0.6,10.5-4.3,11.4-8.8c1.6,1.9,0.2,4.5-1.7,6.2c-2,1.7-4.5,3-5.8,5
			c-0.2,0.4-0.4,0.8-0.3,1.3c0.3,1.1,2.3,1.3,3.7,0.9c4.1-1.1,7-4.2,8.3-7.4c1.4-3.3,1.5-6.8,1.6-10.2c0.1-4.5,0.2-9,0.3-13.5
			c0.1-2.2,0.1-4.4-0.5-6.6c-1.6-5.2-7.1-9.7-6.2-15c3.3,2.7,4.1,6.8,3.6,10.6s-1.9,7.4-2.4,11.1c-0.5,4.6,0.5,9.2,0.4,13.9
			c0,4.6-1.4,9.6-5.6,12.7c0.6-5.4,1.3-10.9,1.9-16.3c0.2-1.3-0.1-3-1.7-3.3c-1.2-0.2-2.2,0.7-2.8,1.5c-1.3,1.8-2,3.8-2,5.9
			c0,1.1,0.9,2.6,2.2,2.3c0.6-0.1,1-0.6,1.3-1.1c2.1-3.2,3.3-6.6,3.7-10.2c0.2-2.3,0.1-4.6,0.9-6.8c1.3-3.8,4.9-6.7,7.8-9.9
			c0.8-0.9,1.6-2,1.2-3.1c-0.4-1.1-2.7-1.5-3.1-0.4"/>
	</g>
	<g>
		<path class="st0" d="M429.3,431.6c-0.8,3.1-0.8,6.3-0.1,9.4"/>
	</g>
	<g>
		<path class="st0" d="M331.7,410.3c-0.7-1.8,0.7-3.6,2.3-4.9c1.6-1.3,3.6-2.4,4.8-4c2.3-3.2,0.8-7.7,3.8-10.5"/>
	</g>
	<g>
		<path class="st0" d="M340.5,422.7c-1.8-3-3.4-6.2-3.8-9.5c-0.4-3.3,0.8-6.9,3.9-9.1c1.8-1.3,4.4-2.5,4-4.4
			c-1.9,6.5-2.7,13.2-2.4,19.9c-0.4-1.3,0-2.6,0.2-3.9s-0.2-2.8-1.7-3.5c-1.6-0.7-4.3-0.1-5.1-1.4c-0.5-0.8,0-1.7,0.5-2.5
			c2.9-4.2,5.8-8.4,8.7-12.6"/>
	</g>
	<g>
		<path class="st0" d="M346,406.9c-2.7,0.4-5.2,1.2-7.7,2.2c-1.8,0.7-3.7,1.7-4.2,3.3c-0.5,1.6,1.7,3.4,3.4,2.6"/>
	</g>
	<g>
		<path class="st0" d="M332.1,412c-0.1,0.5,0.5,0.9,1,0.8"/>
	</g>
	<g>
		<path class="st0" d="M359.3,421.6c-0.1,0.7,0.3,1.3,1,1.7"/>
	</g>
	<g>
		<path class="st0" d="M359.7,424.4c2.4,3.9,4.2,8,5.2,12.2c0.6,2.5,1,5.1,2.4,7.5c0.2,0.4,0.5,0.9,1,1.1c1.5,0.9,3.7-0.2,4.5-1.5
			c1.2-2,0.6-4.5-0.8-6.4s-3.6-3.4-5.8-4.9c-0.3-0.2-0.8-0.5-1.2-0.3c-0.7,0.2-0.5,1-0.3,1.5c1.3,2.4,2.9,4.7,4.8,6.9
			c-0.2-2.7-0.6-5.4-1.2-8.1"/>
	</g>
</g>
</svg>
