<svg id="Text" xmlns="http://www.w3.org/2000/svg" viewBox="0 0 576 216.7"><style>.st0{fill:#6da2a3}</style><path d="M142.5 4.9l.9-2.1h.6l-.4 2.2v1h-1.2V4.9zm1.9 0l.9-2.1h.6l-.3 2.2v1h-1.2V4.9zM151.3 9.8h-3.6L147 12h-1.2l3.3-8.5h1l3.2 8.5h-1.2l-.8-2.2zm-3.2-1h2.9L149.6 5l-1.5 3.8zM159.7 9.1c0 .9-.2 1.7-.7 2.2s-1 .8-1.8.8c-.4 0-.8-.1-1.1-.2s-.6-.4-.8-.7l-.1.8h-.9V2.9h1.2v3.6c.2-.3.4-.5.7-.6s.6-.2 1-.2c.8 0 1.4.3 1.8.9s.7 1.4.7 2.5zm-1.2-.2c0-.7-.1-1.3-.4-1.8s-.7-.7-1.2-.7c-.4 0-.7.1-.9.3s-.4.4-.6.7v2.7c.1.3.3.6.6.7s.5.3.9.3c.5 0 .9-.2 1.2-.6s.4-.9.4-1.5v-.1zM164.8 10.3c0-.3-.1-.5-.3-.6s-.6-.3-1.1-.4c-.8-.2-1.3-.4-1.7-.7-.4-.3-.6-.7-.6-1.2s.2-1 .7-1.3c.4-.4 1-.5 1.7-.5s1.3.2 1.8.6.6.8.6 1.4h-1.1c0-.3-.1-.5-.3-.7s-.5-.3-.9-.3-.7.1-.9.3-.3.4-.3.7c0 .2.1.4.3.6.2.1.5.3 1.1.4.8.2 1.4.4 1.8.7s.6.7.6 1.2c0 .6-.2 1-.7 1.4s-1 .5-1.8.5-1.4-.2-1.9-.6-.7-.9-.7-1.4h1.1c0 .4.2.7.5.9.3.2.6.3 1 .3s.7-.1 1-.2.1-.8.1-1.1zM167.1 8.8c0-.9.3-1.7.8-2.3s1.2-.9 2.1-.9c.9 0 1.6.3 2.1.9s.8 1.4.8 2.3v.1c0 .9-.3 1.7-.8 2.3s-1.2.9-2.1.9-1.6-.3-2.1-.9-.8-1.4-.8-2.3v-.1zm1.1.1c0 .7.1 1.2.4 1.7.3.4.7.7 1.3.7.6 0 1-.2 1.3-.7.3-.4.4-1 .4-1.7v-.1c0-.7-.1-1.2-.4-1.7-.3-.4-.7-.7-1.3-.7-.6 0-1 .2-1.3.7-.3.4-.4 1-.4 1.7v.1zM175.4 12h-1.2V2.9h1.2V12zM181.2 11.1c-.2.3-.5.6-.8.8s-.7.3-1.1.3c-.7 0-1.2-.2-1.6-.7s-.6-1.1-.6-2.1V5.7h1.2v3.7c0 .7.1 1.1.3 1.4s.5.4.9.4.7-.1 1-.2.5-.4.6-.7V5.7h1.2V12h-1l-.1-.9zM185.5 4.1v1.5h1.2v.9h-1.2v3.8c0 .3.1.5.2.6s.3.2.5.2h.2c.1 0 .2 0 .2-.1l.2.8c-.1.1-.2.1-.4.2s-.3.1-.5.1c-.5 0-.8-.1-1.1-.4s-.4-.7-.4-1.3V6.5h-1v-.8h1V4.1h1.1zM190.8 12.1c-.9 0-1.6-.3-2.1-.9s-.8-1.4-.8-2.3v-.2c0-.9.3-1.7.8-2.3s1.2-.9 1.9-.9c.9 0 1.5.3 1.9.8s.7 1.2.7 2.1v.7h-4.1c0 .6.2 1.1.5 1.5s.7.6 1.2.6c.4 0 .7-.1 1-.2s.5-.3.8-.5l.5.8c-.2.2-.5.4-.9.6-.4.1-.9.2-1.4.2zm-.2-5.6c-.4 0-.7.2-1 .5s-.4.7-.5 1.2h2.9V8c0-.5-.1-.8-.4-1.1-.1-.3-.5-.4-1-.4zM195.8 12h-1.2V2.9h1.2V12zM199.5 9.7l.2.8 1.6-4.8h1.3l-2.7 7.3c-.2.4-.4.8-.7 1.1s-.7.5-1.2.5h-.4c-.2 0-.3 0-.3-.1l.1-.9h.5c.2 0 .4-.1.6-.3s.3-.5.4-.7l.3-.7-2.4-6.2h1.3l1.4 4zM208.1 4.1v1.5h1.2v.9h-1.2v3.8c0 .3.1.5.2.6s.3.2.5.2h.2c.1 0 .2 0 .2-.1l.2.8c-.1.1-.2.1-.4.2s-.3.1-.5.1c-.5 0-.8-.1-1.1-.4s-.4-.7-.4-1.3V6.5h-1v-.8h1V4.1h1.1zM211.9 6.5c.2-.3.5-.5.8-.7s.7-.3 1.1-.3c.7 0 1.2.2 1.6.6s.6 1 .6 1.9v4h-1.2V8c0-.5-.1-.9-.3-1.2s-.6-.4-1-.4c-.3 0-.6.1-.9.2s-.5.4-.6.6V12h-1.2V2.9h1.2v3.6zM220.2 12.1c-.9 0-1.6-.3-2.1-.9s-.8-1.4-.8-2.3v-.2c0-.9.3-1.7.8-2.3s1.2-.9 1.9-.9c.9 0 1.5.3 1.9.8s.7 1.2.7 2.1v.7h-4.1c0 .6.2 1.1.5 1.5s.7.6 1.2.6c.4 0 .7-.1 1-.2s.5-.3.8-.5l.5.8c-.2.2-.5.4-.9.6-.5.1-.9.2-1.4.2zm-.2-5.6c-.4 0-.7.2-1 .5s-.4.7-.5 1.2h2.9V8c0-.5-.1-.8-.4-1.1-.2-.3-.5-.4-1-.4zM232.3 9.1c0 .9-.2 1.7-.7 2.2s-1 .8-1.8.8c-.4 0-.8-.1-1.1-.2s-.6-.4-.8-.7l-.1.8h-.9V2.9h1.2v3.6c.2-.3.4-.5.7-.6s.6-.2 1-.2c.8 0 1.4.3 1.8.9s.7 1.4.7 2.5zm-1.2-.2c0-.7-.1-1.3-.4-1.8s-.7-.7-1.2-.7c-.4 0-.7.1-.9.3s-.4.4-.6.7v2.7c.1.3.3.6.6.7s.5.3.9.3c.5 0 .9-.2 1.2-.6s.4-.9.4-1.5v-.1zM236.3 12.1c-.9 0-1.6-.3-2.1-.9s-.8-1.4-.8-2.3v-.2c0-.9.3-1.7.8-2.3s1.2-.9 1.9-.9c.9 0 1.5.3 1.9.8s.7 1.2.7 2.1v.7h-4.1c0 .6.2 1.1.5 1.5s.7.6 1.2.6c.4 0 .7-.1 1-.2s.5-.3.8-.5l.5.8c-.2.2-.5.4-.9.6-.4.1-.9.2-1.4.2zm-.2-5.6c-.4 0-.7.2-1 .5s-.4.7-.5 1.2h2.9V8c0-.5-.1-.8-.4-1.1-.1-.3-.5-.4-1-.4zM243.7 10.3c0-.3-.1-.5-.3-.6s-.6-.3-1.1-.4c-.8-.2-1.3-.4-1.7-.7-.4-.3-.6-.7-.6-1.2s.2-1 .7-1.3c.4-.4 1-.5 1.7-.5s1.3.2 1.8.6.6.8.6 1.4h-1.1c0-.3-.1-.5-.3-.7s-.5-.3-.9-.3-.7.1-.9.3-.3.4-.3.7c0 .2.1.4.3.6.2.1.5.3 1.1.4.8.2 1.4.4 1.8.7s.6.7.6 1.2c0 .6-.2 1-.7 1.4s-1 .5-1.8.5-1.4-.2-1.9-.6-.7-.9-.7-1.4h1.1c0 .4.2.7.5.9.3.2.6.3 1 .3s.7-.1 1-.2.1-.8.1-1.1zM247.8 4.1v1.5h1.2v.9h-1.2v3.8c0 .3.1.5.2.6s.3.2.5.2h.2c.1 0 .2 0 .2-.1l.2.8c-.1.1-.2.1-.4.2s-.3.1-.5.1c-.5 0-.8-.1-1.1-.4s-.4-.7-.4-1.3V6.5h-1v-.8h1V4.1h1.1zM257.3 12c0-.2-.1-.4-.1-.5v-.4c-.2.3-.5.6-.8.8s-.7.3-1.1.3c-.7 0-1.2-.2-1.5-.5s-.5-.8-.5-1.4c0-.6.2-1.1.7-1.4s1.2-.5 2-.5h1.3v-.7c0-.4-.1-.7-.3-.9s-.5-.3-1-.3c-.4 0-.7.1-.9.3s-.3.4-.3.7h-1.1c0-.5.2-.9.7-1.3s1.1-.6 1.8-.6 1.3.2 1.7.5.7.9.7 1.6v3.8c0 .3.1.4.1.6h-1.4zm-1.9-.8c.4 0 .8-.1 1.1-.3s.6-.5.7-.7v-1h-1.3c-.5 0-.8.1-1.1.4s-.4.5-.4.8c0 .3.1.5.3.7.1 0 .4.1.7.1zM261.1 5.7l.1.9c.2-.3.5-.6.8-.8s.7-.3 1.1-.3c.7 0 1.2.2 1.6.6s.6 1 .6 1.9v4H264V8c0-.6-.1-1-.3-1.2s-.6-.4-1-.4c-.3 0-.6.1-.9.2s-.5.4-.6.7V12H260V5.7h1.1zM266.6 8.9c0-1 .2-1.8.7-2.5s1-.9 1.8-.9c.4 0 .7.1 1 .2s.5.3.7.6V2.9h1.2V12h-1l-.1-.8c-.2.3-.5.5-.8.7s-.7.2-1 .2c-.8 0-1.4-.3-1.8-.8s-.7-1.3-.7-2.2v-.2zm1.1.2c0 .6.1 1.2.4 1.5s.7.6 1.2.6c.3 0 .6-.1.9-.2s.4-.4.6-.7v-3c-.1-.3-.3-.5-.6-.6s-.5-.2-.9-.2c-.6 0-1 .2-1.2.7s-.4 1.1-.4 1.8v.1zM279.3 12.1c-.9 0-1.6-.3-2.1-.9s-.8-1.4-.8-2.3v-.2c0-.9.3-1.7.8-2.3s1.2-.9 1.9-.9c.9 0 1.5.3 1.9.8s.7 1.2.7 2.1v.7h-4.1c0 .6.2 1.1.5 1.5s.7.6 1.2.6c.4 0 .7-.1 1-.2s.5-.3.8-.5l.5.8c-.2.2-.5.4-.9.6-.4.1-.9.2-1.4.2zm-.2-5.6c-.4 0-.7.2-1 .5s-.4.7-.5 1.2h2.9V8c0-.5-.1-.8-.4-1.1-.2-.3-.5-.4-1-.4zM286.9 12c0-.2-.1-.4-.1-.5v-.4c-.2.3-.5.6-.8.8s-.7.3-1.1.3c-.7 0-1.2-.2-1.5-.5s-.5-.8-.5-1.4c0-.6.2-1.1.7-1.4s1.2-.5 2-.5h1.3v-.7c0-.4-.1-.7-.3-.9s-.5-.3-1-.3c-.4 0-.7.1-.9.3s-.3.4-.3.7h-1.1c0-.5.2-.9.7-1.3s1.1-.6 1.8-.6 1.3.2 1.7.5.7.9.7 1.6v3.8c0 .3.1.4.1.6h-1.4zm-1.9-.8c.4 0 .8-.1 1.1-.3s.6-.5.7-.7v-1h-1.3c-.5 0-.8.1-1.1.4s-.4.5-.4.8c0 .3.1.5.3.7.1 0 .3.1.7.1zM293.3 10.3c0-.3-.1-.5-.3-.6s-.6-.3-1.1-.4c-.8-.2-1.3-.4-1.7-.7-.4-.3-.6-.7-.6-1.2s.2-1 .7-1.3c.4-.4 1-.5 1.7-.5s1.3.2 1.8.6.6.8.6 1.4h-1.1c0-.3-.1-.5-.3-.7s-.5-.3-.9-.3-.7.1-.9.3-.3.4-.3.7c0 .2.1.4.3.6.2.1.5.3 1.1.4.8.2 1.4.4 1.8.7s.6.7.6 1.2c0 .6-.2 1-.7 1.4s-1 .5-1.8.5-1.4-.2-1.9-.6-.7-.9-.7-1.4h1.1c0 .4.2.7.5.9.3.2.6.3 1 .3s.7-.1 1-.2.1-.8.1-1.1zM297.1 4H296V2.9h1.2V4zm0 8H296V5.7h1.2V12zM301.5 12.1c-.9 0-1.6-.3-2.1-.9s-.8-1.4-.8-2.3v-.2c0-.9.3-1.7.8-2.3s1.2-.9 1.9-.9c.9 0 1.5.3 1.9.8s.7 1.2.7 2.1v.7h-4.1c0 .6.2 1.1.5 1.5s.7.6 1.2.6c.4 0 .7-.1 1-.2s.5-.3.8-.5l.5.8c-.2.2-.5.4-.9.6-.4.1-.9.2-1.4.2zm-.2-5.6c-.4 0-.7.2-1 .5s-.4.7-.5 1.2h2.9V8c0-.5-.1-.8-.4-1.1-.1-.3-.5-.4-1-.4zM308.9 10.3c0-.3-.1-.5-.3-.6s-.6-.3-1.1-.4c-.8-.2-1.3-.4-1.7-.7-.4-.3-.6-.7-.6-1.2s.2-1 .7-1.3c.4-.4 1-.5 1.7-.5s1.3.2 1.8.6.6.8.6 1.3h-1.1c0-.3-.1-.5-.3-.7s-.5-.3-.9-.3-.7.1-.9.3-.3.4-.3.7c0 .2.1.4.3.6.2.1.5.3 1.1.4.8.2 1.4.4 1.8.7s.6.7.6 1.2c0 .6-.2 1-.7 1.4s-1 .5-1.8.5-1.4-.2-1.9-.6-.7-.9-.7-1.4h1.1c0 .4.2.7.5.9.3.2.6.3 1 .3s.7-.1 1-.2.1-.7.1-1zM313 4.1v1.5h1.2v.9H313v3.8c0 .3.1.5.2.6s.3.2.5.2h.2c.1 0 .2 0 .2-.1l.2.8c-.1.1-.2.1-.4.2s-.3.1-.5.1c-.5 0-.8-.1-1.1-.4s-.4-.7-.4-1.3V6.5h-1v-.8h1V4.1h1.1zM324 9.1c0 .9-.2 1.7-.7 2.2s-1 .8-1.8.8c-.4 0-.7-.1-1-.2s-.5-.3-.8-.6v3.1h-1.2V5.7h.9l.2.8c.2-.3.5-.5.8-.7s.7-.2 1.1-.2c.8 0 1.4.3 1.8.9s.7 1.4.7 2.5v.1zm-1.1-.2c0-.7-.1-1.3-.4-1.8-.3-.5-.7-.7-1.3-.7-.3 0-.6.1-.8.2s-.4.4-.6.6v3.1c.1.3.3.5.6.6s.5.2.9.2c.5 0 1-.2 1.2-.6.3-.4.4-.9.4-1.5v-.1zM328.1 12.1c-.9 0-1.6-.3-2.1-.9s-.8-1.4-.8-2.3v-.2c0-.9.3-1.7.8-2.3s1.2-.9 1.9-.9c.9 0 1.5.3 1.9.8s.7 1.2.7 2.1v.7h-4.1c0 .6.2 1.1.5 1.5s.7.6 1.2.6c.4 0 .7-.1 1-.2s.5-.3.8-.5l.5.8c-.2.2-.5.4-.9.6-.4.1-.9.2-1.4.2zm-.2-5.6c-.4 0-.7.2-1 .5s-.4.7-.5 1.2h2.9V8c0-.5-.1-.8-.4-1.1-.1-.3-.5-.4-1-.4zM334.8 6.7h-.6c-.3 0-.6.1-.8.2s-.4.3-.5.6V12h-1.2V5.7h1l.1.9c.2-.3.4-.6.7-.8s.6-.3.9-.3h.4v1.2zM339.6 10.3c0-.3-.1-.5-.3-.6s-.6-.3-1.1-.4c-.8-.2-1.3-.4-1.7-.7-.4-.3-.6-.7-.6-1.2s.2-1 .7-1.3c.4-.4 1-.5 1.7-.5s1.3.2 1.8.6.6.8.6 1.4h-1.1c0-.3-.1-.5-.3-.7s-.5-.3-.9-.3-.7.1-.9.3-.3.4-.3.7c0 .2.1.4.3.6.2.1.5.3 1.1.4.8.2 1.4.4 1.8.7s.6.7.6 1.2c0 .6-.2 1-.7 1.4s-1 .5-1.8.5-1.4-.2-1.9-.6-.7-.9-.7-1.4h1.1c0 .4.2.7.5.9.3.2.6.3 1 .3s.7-.1 1-.2.1-.8.1-1.1zM341.9 8.8c0-.9.3-1.7.8-2.3s1.2-.9 2.1-.9c.9 0 1.6.3 2.1.9s.8 1.4.8 2.3v.1c0 .9-.3 1.7-.8 2.3s-1.2.9-2.1.9-1.6-.3-2.1-.9-.8-1.4-.8-2.3v-.1zm1.2.1c0 .7.1 1.2.4 1.7.3.4.7.7 1.3.7.6 0 1-.2 1.3-.7.3-.4.4-1 .4-1.7v-.1c0-.7-.1-1.2-.4-1.7-.3-.4-.7-.7-1.3-.7-.6 0-1 .2-1.3.7-.3.4-.4 1-.4 1.7v.1zM350 5.7l.1.9c.2-.3.5-.6.8-.8s.7-.3 1.1-.3c.7 0 1.2.2 1.6.6s.6 1 .6 1.9v4H353V8c0-.6-.1-1-.3-1.2s-.6-.4-1-.4c-.3 0-.6.1-.9.2s-.5.4-.6.7V12H349V5.7h1zM360.3 4.1v1.5h1.2v.9h-1.2v3.8c0 .3.1.5.2.6s.3.2.5.2h.2c.1 0 .2 0 .2-.1l.2.8c-.1.1-.2.1-.4.2s-.3.1-.5.1c-.5 0-.8-.1-1.1-.4s-.4-.7-.4-1.3V6.5h-1v-.8h1V4.1h1.1zM362.7 8.8c0-.9.3-1.7.8-2.3s1.2-.9 2.1-.9c.9 0 1.6.3 2.1.9s.8 1.4.8 2.3v.1c0 .9-.3 1.7-.8 2.3s-1.2.9-2.1.9-1.6-.3-2.1-.9-.8-1.4-.8-2.3v-.1zm1.2.1c0 .7.1 1.2.4 1.7.3.4.7.7 1.3.7.6 0 1-.2 1.3-.7.3-.4.4-1 .4-1.7v-.1c0-.7-.1-1.2-.4-1.7-.3-.4-.7-.7-1.3-.7-.6 0-1 .2-1.3.7-.3.4-.4 1-.4 1.7v.1zM374.4 9.7l.1.8.2-.8 1.3-4h.9l1.3 4 .2.9.2-.9 1-4h1.1l-1.8 6.3h-.9l-1.2-3.9-.3-1.1-.3 1.1L375 12h-1l-1.8-6.3h1.1l1.1 4zM381.6 8.8c0-.9.3-1.7.8-2.3s1.2-.9 2.1-.9c.9 0 1.6.3 2.1.9s.8 1.4.8 2.3v.1c0 .9-.3 1.7-.8 2.3s-1.2.9-2.1.9-1.6-.3-2.1-.9-.8-1.4-.8-2.3v-.1zm1.1.1c0 .7.1 1.2.4 1.7.3.4.7.7 1.3.7.6 0 1-.2 1.3-.7.3-.4.4-1 .4-1.7v-.1c0-.7-.1-1.2-.4-1.7-.3-.4-.7-.7-1.3-.7-.6 0-1 .2-1.3.7-.3.4-.4 1-.4 1.7v.1zM391.7 6.7h-.6c-.3 0-.6.1-.8.2s-.4.3-.5.6V12h-1.2V5.7h1l.1.9c.2-.3.4-.6.7-.8s.6-.3.9-.3h.4v1.2zM394.7 9.1h-.8V12h-1.2V2.9h1.2v5.3h.7l1.7-2.5h1.4l-2.2 2.9 2.5 3.5h-1.4l-1.9-3zM403.5 9.7l.1.8.2-.8 1.3-4h.9l1.3 4 .2.9.2-.9 1-4h1.1L408 12h-.9l-1.2-3.9-.3-1.1-.3 1.1-1.2 3.9h-.9l-1.8-6.3h1.1l1 4zM412.3 4h-1.2V2.9h1.2V4zm0 8h-1.2V5.7h1.2V12zM415.6 4.1v1.5h1.2v.9h-1.2v3.8c0 .3.1.5.2.6s.3.2.5.2h.2c.1 0 .2 0 .2-.1l.2.8c-.1.1-.2.1-.4.2s-.3.1-.5.1c-.5 0-.8-.1-1.1-.4s-.4-.7-.4-1.3V6.5h-1v-.8h1V4.1h1.1zM419.3 6.5c.2-.3.5-.5.8-.7s.7-.3 1.1-.3c.7 0 1.2.2 1.6.6s.6 1 .6 1.9v4h-1.2V8c0-.5-.1-.9-.3-1.2s-.6-.4-1-.4c-.3 0-.6.1-.9.2s-.5.4-.6.6V12h-1.2V2.9h1.2v3.6zM426.3 12h-1.2v-1.2h1.2V12z"/><g><path d="M64.3 28h-1.2v-8.5h1.2V28zM67.4 20l-.9 2h-.6l.4-2v-1.1h1.2V20zM70.8 26.1l.1.4.1-.4 1.5-4.5h1.2L71.3 28h-.9L68 21.7h1.2l1.6 4.4zM77.3 28.1c-.9 0-1.6-.3-2.1-.9s-.8-1.4-.8-2.3v-.3c0-.9.3-1.7.8-2.3s1.2-.9 1.9-.9c.9 0 1.5.3 1.9.8s.7 1.2.7 2.1v.7h-4.1c0 .6.2 1.1.5 1.5s.7.6 1.2.6c.4 0 .7-.1 1-.2s.5-.3.8-.5l.5.8c-.2.2-.5.4-.9.6-.5.2-.9.3-1.4.3zm-.2-5.6c-.4 0-.7.2-1 .5s-.4.7-.5 1.2h2.9V24c0-.5-.1-.8-.4-1.1-.2-.3-.5-.4-1-.4zM85.1 22.5c.2-.3.5-.5.8-.7s.7-.3 1.1-.3c.7 0 1.2.2 1.6.6s.6 1 .6 1.9v4H88v-4c0-.5-.1-.9-.3-1.2s-.6-.4-1-.4c-.3 0-.6.1-.9.2s-.5.4-.6.6V28H84v-9.1h1.2v3.6zM92 20h-1.2v-1.2H92V20zm0 8h-1.2v-6.3H92V28zM96.8 22.7h-.6c-.3 0-.6.1-.8.2s-.4.3-.5.6V28h-1.2v-6.3h1l.1.9c.2-.3.4-.6.7-.8s.6-.3.9-.3h.4v1.2zM100.4 28.1c-.9 0-1.6-.3-2.1-.9s-.8-1.4-.8-2.3v-.3c0-.9.3-1.7.8-2.3s1.2-.9 1.9-.9c.9 0 1.5.3 1.9.8s.7 1.2.7 2.1v.7h-4.1c0 .6.2 1.1.5 1.5s.7.6 1.2.6c.4 0 .7-.1 1-.2s.5-.3.8-.5l.5.8c-.2.2-.5.4-.9.6-.4.2-.8.3-1.4.3zm-.1-5.6c-.4 0-.7.2-1 .5s-.4.7-.5 1.2h2.9V24c0-.5-.1-.8-.4-1.1-.2-.3-.6-.4-1-.4zM103.9 24.9c0-1 .2-1.8.7-2.5s1-.9 1.8-.9c.4 0 .7.1 1 .2s.5.3.7.6v-3.5h1.2V28h-.9l-.1-.8c-.2.3-.5.5-.8.7s-.7.2-1 .2c-.8 0-1.4-.3-1.8-.8s-.7-1.3-.7-2.2v-.2zm1.1.2c0 .6.1 1.2.4 1.5s.7.6 1.2.6c.3 0 .6-.1.9-.2s.4-.4.6-.7v-3c-.1-.3-.3-.5-.6-.6s-.5-.2-.9-.2c-.6 0-1 .2-1.2.7s-.4 1.1-.4 1.8v.1zM117.9 28c0-.2-.1-.4-.1-.5v-.4c-.2.3-.5.6-.8.8s-.7.3-1.1.3c-.7 0-1.2-.2-1.5-.5s-.5-.8-.5-1.4c0-.6.2-1.1.7-1.4s1.2-.5 2-.5h1.3v-.6c0-.4-.1-.7-.3-.9s-.5-.3-1-.3c-.4 0-.7.1-.9.3s-.3.4-.3.7h-1.1c0-.5.2-.9.7-1.3s1.1-.6 1.8-.6 1.3.2 1.7.5.7.9.7 1.6v3.8c0 .3.1.4.1.6h-1.4zm-2-.8c.4 0 .8-.1 1.1-.3s.6-.5.7-.7v-1h-1.3c-.5 0-.8.1-1.1.4s-.4.5-.4.8c0 .3.1.5.3.7.1 0 .4.1.7.1zM124.8 28h-1.2v-9.1h1.2V28zM126.3 24.8c0-.9.3-1.7.8-2.3s1.2-.9 2.1-.9c.9 0 1.6.3 2.1.9s.8 1.4.8 2.3v.1c0 .9-.3 1.7-.8 2.3s-1.2.9-2.1.9-1.6-.3-2.1-.9-.8-1.4-.8-2.3v-.1zm1.1.1c0 .7.1 1.2.4 1.7.3.4.7.7 1.3.7.6 0 1-.2 1.3-.7.3-.4.4-1 .4-1.7v-.1c0-.7-.1-1.2-.4-1.7-.3-.4-.7-.7-1.3-.7-.6 0-1 .2-1.3.7-.3.4-.4 1-.4 1.7v.1zM134.9 20.1v1.5h1.2v.9h-1.2v3.8c0 .3.1.5.2.6s.3.2.5.2h.2c.1 0 .2 0 .2-.1l.2.8c-.1.1-.2.1-.4.2s-.3.1-.5.1c-.5 0-.8-.1-1.1-.4s-.4-.7-.4-1.3v-3.8h-1v-.9h1v-1.5h1.1zM140.2 24.8c0-.9.3-1.7.8-2.3s1.2-.9 2.1-.9c.9 0 1.6.3 2.1.9s.8 1.4.8 2.3v.1c0 .9-.3 1.7-.8 2.3s-1.2.9-2.1.9-1.6-.3-2.1-.9-.8-1.4-.8-2.3v-.1zm1.2.1c0 .7.1 1.2.4 1.7.3.4.7.7 1.3.7.6 0 1-.2 1.3-.7.3-.4.4-1 .4-1.7v-.1c0-.7-.1-1.2-.4-1.7-.3-.4-.7-.7-1.3-.7-.6 0-1 .2-1.3.7-.3.4-.4 1-.4 1.7v.1zM147.8 28v-5.5h-1v-.9h1v-.8c0-.7.2-1.2.5-1.6s.8-.6 1.5-.6h.4c.1 0 .3.1.4.1l-.1.9h-.6c-.3 0-.6.1-.8.3s-.2.5-.2.9v.8h1.3v.9H149V28h-1.2zM154.9 28v-5.5h-1v-.9h1v-.8c0-.7.2-1.2.5-1.6s.8-.6 1.5-.6h.4c.1 0 .3.1.4.1l-.1.9h-.6c-.3 0-.6.1-.8.3s-.2.5-.2.9v.8h1.3v.9H156V28h-1.1zM161.6 22.7h-.6c-.3 0-.6.1-.8.2s-.4.3-.5.6V28h-1.2v-6.3h1l.1.9c.2-.3.4-.6.7-.8s.6-.3.9-.3h.4v1.2zM165.2 28.1c-.9 0-1.6-.3-2.1-.9s-.8-1.4-.8-2.3v-.3c0-.9.3-1.7.8-2.3s1.2-.9 1.9-.9c.9 0 1.5.3 1.9.8s.7 1.2.7 2.1v.7h-4.1c0 .6.2 1.1.5 1.5s.7.6 1.2.6c.4 0 .7-.1 1-.2s.5-.3.8-.5l.5.8c-.2.2-.5.4-.9.6-.4.2-.8.3-1.4.3zm-.1-5.6c-.4 0-.7.2-1 .5s-.4.7-.5 1.2h2.9V24c0-.5-.1-.8-.4-1.1-.2-.3-.6-.4-1-.4zM171.6 28.1c-.9 0-1.6-.3-2.1-.9s-.8-1.4-.8-2.3v-.3c0-.9.3-1.7.8-2.3s1.2-.9 1.9-.9c.9 0 1.5.3 1.9.8s.7 1.2.7 2.1v.7h-4.1c0 .6.2 1.1.5 1.5s.7.6 1.2.6c.4 0 .7-.1 1-.2s.5-.3.8-.5l.5.8c-.2.2-.5.4-.9.6-.4.2-.9.3-1.4.3zm-.2-5.6c-.4 0-.7.2-1 .5s-.4.7-.5 1.2h2.9V24c0-.5-.1-.8-.4-1.1-.2-.3-.5-.4-1-.4zM176.5 28h-1.2v-9.1h1.2V28zM182.2 28c0-.2-.1-.4-.1-.5v-.4c-.2.3-.5.6-.8.8s-.7.3-1.1.3c-.7 0-1.2-.2-1.5-.5s-.5-.8-.5-1.4c0-.6.2-1.1.7-1.4s1.2-.5 2-.5h1.3v-.6c0-.4-.1-.7-.3-.9s-.5-.3-1-.3c-.4 0-.7.1-.9.3s-.3.4-.3.7h-1.1c0-.5.2-.9.7-1.3s1.1-.6 1.8-.6 1.3.2 1.7.5.7.9.7 1.6v3.8c0 .3.1.4.1.6h-1.4zm-1.9-.8c.4 0 .8-.1 1.1-.3s.6-.5.7-.7v-1h-1.3c-.5 0-.8.1-1.1.4s-.4.5-.4.8c0 .3.1.5.3.7.1 0 .4.1.7.1zM185.9 21.7l.1.9c.2-.3.5-.6.8-.8s.7-.3 1.1-.3c.7 0 1.2.2 1.6.6s.6 1 .6 1.9v4h-1.2v-4c0-.6-.1-1-.3-1.2s-.6-.4-1-.4c-.3 0-.6.1-.9.2s-.5.4-.6.7V28h-1.2v-6.3h1zM194.3 27.2c.4 0 .7-.1 1-.4s.4-.5.4-.9h1c0 .5-.2 1-.7 1.5s-1.1.6-1.8.6c-.9 0-1.6-.3-2.1-.9s-.7-1.4-.7-2.3v-.2c0-.9.2-1.7.7-2.3s1.2-.9 2.1-.9c.7 0 1.3.2 1.8.7s.7 1 .7 1.6h-1c0-.4-.1-.7-.4-1s-.6-.4-1-.4c-.6 0-1 .2-1.3.7-.3.4-.4 1-.4 1.6v.4c0 .6.1 1.2.4 1.6.3.4.7.6 1.3.6zM200.7 28.1c-.9 0-1.6-.3-2.1-.9s-.8-1.4-.8-2.3v-.3c0-.9.3-1.7.8-2.3s1.2-.9 1.9-.9c.9 0 1.5.3 1.9.8s.7 1.2.7 2.1v.7H199c0 .6.2 1.1.5 1.5s.7.6 1.2.6c.4 0 .7-.1 1-.2s.5-.3.8-.5l.5.8c-.2.2-.5.4-.9.6-.4.2-.8.3-1.4.3zm-.1-5.6c-.4 0-.7.2-1 .5s-.4.7-.5 1.2h2.9V24c0-.5-.1-.8-.4-1.1-.2-.3-.6-.4-1-.4zM207.5 22.7h-.6c-.3 0-.6.1-.8.2s-.4.3-.5.6V28h-1.2v-6.3h1l.1.9c.2-.3.4-.6.7-.8s.6-.3.9-.3h.4v1.2zM212.3 26.3c0-.3-.1-.5-.3-.6s-.6-.3-1.1-.4c-.8-.2-1.3-.4-1.7-.7-.4-.3-.6-.7-.6-1.2s.2-1 .7-1.3c.4-.4 1-.5 1.7-.5s1.3.2 1.8.6.6.8.6 1.4h-1.1c0-.3-.1-.5-.3-.7s-.5-.3-.9-.3-.7.1-.9.3-.3.4-.3.7c0 .2.1.4.3.6s.5.3 1.1.4c.8.2 1.4.4 1.8.7s.6.7.6 1.2c0 .6-.2 1-.7 1.4s-1 .5-1.8.5-1.4-.2-1.9-.6-.7-.9-.7-1.4h1.1c0 .4.2.7.5.9.3.2.6.3 1 .3s.7-.1 1-.2.1-.8.1-1.1zM221.7 28c0-.2-.1-.4-.1-.5v-.4c-.2.3-.5.6-.8.8s-.7.3-1.1.3c-.7 0-1.2-.2-1.5-.5s-.5-.8-.5-1.4c0-.6.2-1.1.7-1.4s1.2-.5 2-.5h1.3v-.6c0-.4-.1-.7-.3-.9s-.5-.3-1-.3c-.4 0-.7.1-.9.3s-.3.4-.3.7h-1.1c0-.5.2-.9.7-1.3s1.1-.6 1.8-.6 1.3.2 1.7.5.7.9.7 1.6v3.8c0 .3.1.4.1.6h-1.4zm-1.9-.8c.4 0 .8-.1 1.1-.3s.6-.5.7-.7v-1h-1.3c-.5 0-.8.1-1.1.4s-.4.5-.4.8c0 .3.1.5.3.7.1 0 .4.1.7.1zM225.5 21.7l.1.9c.2-.3.5-.6.8-.8s.7-.3 1.1-.3c.7 0 1.2.2 1.6.6s.6 1 .6 1.9v4h-1.2v-4c0-.6-.1-1-.3-1.2s-.6-.4-1-.4c-.3 0-.6.1-.9.2s-.5.4-.6.7V28h-1.2v-6.3h1zM231 24.9c0-1 .2-1.8.7-2.5s1-.9 1.8-.9c.4 0 .7.1 1 .2s.5.3.7.6v-3.5h1.2V28h-.9l-.1-.8c-.2.3-.5.5-.8.7s-.7.2-1 .2c-.8 0-1.4-.3-1.8-.8s-.8-1.3-.8-2.2v-.2zm1.1.2c0 .6.1 1.2.4 1.5s.7.6 1.2.6c.3 0 .6-.1.9-.2s.4-.4.6-.7v-3c-.1-.3-.3-.5-.6-.6s-.5-.2-.9-.2c-.6 0-1 .2-1.2.7s-.4 1.1-.4 1.8v.1zM244.7 19.5h1.2v6.2c0 .8-.2 1.4-.7 1.8s-1.1.7-1.9.7c-.8 0-1.5-.2-2-.6s-.7-1-.7-1.8h1.1c0 .5.1.9.4 1.2s.6.4 1.1.4c.4 0 .8-.1 1-.4.3-.3.4-.7.4-1.2v-6.3zM251.6 28c0-.2-.1-.4-.1-.5v-.4c-.2.3-.5.6-.8.8s-.7.3-1.1.3c-.7 0-1.2-.2-1.5-.5s-.5-.8-.5-1.4c0-.6.2-1.1.7-1.4s1.2-.5 2-.5h1.3v-.6c0-.4-.1-.7-.3-.9s-.5-.3-1-.3c-.4 0-.7.1-.9.3s-.3.4-.3.7H248c0-.5.2-.9.7-1.3s1.1-.6 1.8-.6 1.3.2 1.7.5.7.9.7 1.6v3.8c0 .3.1.4.1.6h-1.4zm-2-.8c.4 0 .8-.1 1.1-.3s.6-.5.7-.7v-1h-1.3c-.5 0-.8.1-1.1.4s-.4.5-.4.8c0 .3.1.5.3.7.1 0 .4.1.7.1zM257.3 22.7h-.6c-.3 0-.6.1-.8.2s-.4.3-.5.6V28h-1.2v-6.3h1l.1.9c.2-.3.4-.6.7-.8s.6-.3.9-.3h.4v1.2zM258 24.8c0-.9.3-1.7.8-2.3s1.2-.9 2.1-.9c.9 0 1.6.3 2.1.9s.8 1.4.8 2.3v.1c0 .9-.3 1.7-.8 2.3s-1.2.9-2.1.9-1.6-.3-2.1-.9-.8-1.4-.8-2.3v-.1zm1.1.1c0 .7.1 1.2.4 1.7.3.4.7.7 1.3.7.6 0 1-.2 1.3-.7.3-.4.4-1 .4-1.7v-.1c0-.7-.1-1.2-.4-1.7-.3-.4-.7-.7-1.3-.7-.6 0-1 .2-1.3.7-.3.4-.4 1-.4 1.7v.1zM266.1 21.7l.1.9c.2-.3.5-.6.8-.8s.7-.3 1.1-.3c.7 0 1.2.2 1.6.6s.6 1 .6 1.9v4h-1.2v-4c0-.6-.1-1-.3-1.2s-.6-.4-1-.4c-.3 0-.6.1-.9.2s-.5.4-.6.7V28h-1.2v-6.3h1zM276.1 20H275v-1.2h1.2V20zm0 8H275v-6.3h1.2V28zM281.6 26.3c0-.3-.1-.5-.3-.6s-.6-.3-1.1-.4c-.8-.2-1.3-.4-1.7-.7-.4-.3-.6-.7-.6-1.2s.2-1 .7-1.3c.4-.4 1-.5 1.7-.5s1.3.2 1.8.6.6.8.6 1.4h-1.1c0-.3-.1-.5-.3-.7s-.5-.3-.9-.3-.7.1-.9.3-.3.4-.3.7c0 .2.1.4.3.6s.5.3 1.1.4c.8.2 1.4.4 1.8.7s.6.7.6 1.2c0 .6-.2 1-.7 1.4s-1 .5-1.8.5-1.4-.2-1.9-.6-.7-.9-.7-1.4h1.1c0 .4.2.7.5.9.3.2.6.3 1 .3s.7-.1 1-.2.1-.8.1-1.1zM289.8 28.1c-.9 0-1.6-.3-2.1-.9s-.8-1.4-.8-2.3v-.3c0-.9.3-1.7.8-2.3s1.2-.9 1.9-.9c.9 0 1.5.3 1.9.8s.7 1.2.7 2.1v.7h-4.1c0 .6.2 1.1.5 1.5s.7.6 1.2.6c.4 0 .7-.1 1-.2s.5-.3.8-.5l.5.8c-.2.2-.5.4-.9.6-.4.2-.9.3-1.4.3zm-.2-5.6c-.4 0-.7.2-1 .5s-.4.7-.5 1.2h2.9V24c0-.5-.1-.8-.4-1.1-.1-.3-.5-.4-1-.4zM297.4 28c0-.2-.1-.4-.1-.5v-.4c-.2.3-.5.6-.8.8s-.7.3-1.1.3c-.7 0-1.2-.2-1.5-.5s-.5-.8-.5-1.4c0-.6.2-1.1.7-1.4s1.2-.5 2-.5h1.3v-.6c0-.4-.1-.7-.3-.9s-.5-.3-1-.3c-.4 0-.7.1-.9.3s-.3.4-.3.7h-1.1c0-.5.2-.9.7-1.3s1.1-.6 1.8-.6 1.3.2 1.7.5.7.9.7 1.6v3.8c0 .3.1.4.1.6h-1.4zm-1.9-.8c.4 0 .8-.1 1.1-.3s.6-.5.7-.7v-1H296c-.5 0-.8.1-1.1.4s-.4.5-.4.8c0 .3.1.5.3.7.1 0 .3.1.7.1zM303.8 26.3c0-.3-.1-.5-.3-.6s-.6-.3-1.1-.4c-.8-.2-1.3-.4-1.7-.7-.4-.3-.6-.7-.6-1.2s.2-1 .7-1.3c.4-.4 1-.5 1.7-.5s1.3.2 1.8.6.6.8.6 1.4h-1.1c0-.3-.1-.5-.3-.7s-.5-.3-.9-.3-.7.1-.9.3-.3.4-.3.7c0 .2.1.4.3.6s.5.3 1.1.4c.8.2 1.4.4 1.8.7s.6.7.6 1.2c0 .6-.2 1-.7 1.4s-1 .5-1.8.5-1.4-.2-1.9-.6-.7-.9-.7-1.4h1.1c0 .4.2.7.5.9.3.2.6.3 1 .3s.7-.1 1-.2.1-.8.1-1.1zM307.6 20h-1.2v-1.2h1.2V20zm0 8h-1.2v-6.3h1.2V28zM310.7 28h-1.2v-9.1h1.2V28zM314.4 25.7l.2.8 1.6-4.8h1.3l-2.7 7.3c-.2.4-.4.8-.7 1.1s-.7.5-1.2.5h-.4c-.2 0-.3 0-.3-.1l.1-.9h.5c.2 0 .4-.1.6-.3s.3-.5.4-.7l.3-.7-2.4-6.2h1.3l1.4 4zM323 20.1v1.5h1.2v.9H323v3.8c0 .3.1.5.2.6s.3.2.5.2h.2c.1 0 .2 0 .2-.1l.2.8c-.1.1-.2.1-.4.2s-.3.1-.5.1c-.5 0-.8-.1-1.1-.4s-.4-.7-.4-1.3v-3.8h-1v-.9h1v-1.5h1.1zM326.8 22.5c.2-.3.5-.5.8-.7s.7-.3 1.1-.3c.7 0 1.2.2 1.6.6s.6 1 .6 1.9v4h-1.2v-4c0-.5-.1-.9-.3-1.2s-.6-.4-1-.4c-.3 0-.6.1-.9.2s-.5.4-.6.6V28h-1.2v-9.1h1.2v3.6zM335 28.1c-.9 0-1.6-.3-2.1-.9s-.8-1.4-.8-2.3v-.3c0-.9.3-1.7.8-2.3s1.2-.9 1.9-.9c.9 0 1.5.3 1.9.8s.7 1.2.7 2.1v.7h-4.1c0 .6.2 1.1.5 1.5s.7.6 1.2.6c.4 0 .7-.1 1-.2s.5-.3.8-.5l.5.8c-.2.2-.5.4-.9.6-.4.2-.8.3-1.4.3zm-.1-5.6c-.4 0-.7.2-1 .5s-.4.7-.5 1.2h2.9V24c0-.5-.1-.8-.4-1.1-.2-.3-.6-.4-1-.4zM347.2 25.1c0 .9-.2 1.7-.7 2.2s-1 .8-1.8.8c-.4 0-.8-.1-1.1-.2s-.6-.4-.8-.7l-.1.8h-.9v-9.1h1.2v3.6c.2-.3.4-.5.7-.6s.6-.2 1-.2c.8 0 1.4.3 1.8.9s.7 1.4.7 2.5zm-1.2-.2c0-.7-.1-1.3-.4-1.8s-.7-.7-1.2-.7c-.4 0-.7.1-.9.3s-.4.4-.6.7v2.7c.1.3.3.6.6.7s.5.3.9.3c.5 0 .9-.2 1.2-.6s.4-.9.4-1.5v-.1zM351.2 28.1c-.9 0-1.6-.3-2.1-.9s-.8-1.4-.8-2.3v-.3c0-.9.3-1.7.8-2.3s1.2-.9 1.9-.9c.9 0 1.5.3 1.9.8s.7 1.2.7 2.1v.7h-4.1c0 .6.2 1.1.5 1.5s.7.6 1.2.6c.4 0 .7-.1 1-.2s.5-.3.8-.5l.5.8c-.2.2-.5.4-.9.6-.4.2-.9.3-1.4.3zm-.2-5.6c-.4 0-.7.2-1 .5s-.4.7-.5 1.2h2.9V24c0-.5-.1-.8-.4-1.1-.1-.3-.5-.4-1-.4zM358.6 26.3c0-.3-.1-.5-.3-.6s-.6-.3-1.1-.4c-.8-.2-1.3-.4-1.7-.7-.4-.3-.6-.7-.6-1.2s.2-1 .7-1.3c.4-.4 1-.5 1.7-.5s1.3.2 1.8.6.6.8.6 1.4h-1.1c0-.3-.1-.5-.3-.7s-.5-.3-.9-.3-.7.1-.9.3-.3.4-.3.7c0 .2.1.4.3.6s.5.3 1.1.4c.8.2 1.4.4 1.8.7s.6.7.6 1.2c0 .6-.2 1-.7 1.4s-1 .5-1.8.5-1.4-.2-1.9-.6-.7-.9-.7-1.4h1.1c0 .4.2.7.5.9.3.2.6.3 1 .3s.7-.1 1-.2.1-.8.1-1.1zM362.7 20.1v1.5h1.2v.9h-1.2v3.8c0 .3.1.5.2.6s.3.2.5.2h.2c.1 0 .2 0 .2-.1l.2.8c-.1.1-.2.1-.4.2s-.3.1-.5.1c-.5 0-.8-.1-1.1-.4s-.4-.7-.4-1.3v-3.8h-1v-.9h1v-1.5h1.1zM368 24.8c0-.9.3-1.7.8-2.3s1.2-.9 2.1-.9c.9 0 1.6.3 2.1.9s.8 1.4.8 2.3v.1c0 .9-.3 1.7-.8 2.3s-1.2.9-2.1.9-1.6-.3-2.1-.9-.8-1.4-.8-2.3v-.1zm1.2.1c0 .7.1 1.2.4 1.7.3.4.7.7 1.3.7.6 0 1-.2 1.3-.7.3-.4.4-1 .4-1.7v-.1c0-.7-.1-1.2-.4-1.7-.3-.4-.7-.7-1.3-.7-.6 0-1 .2-1.3.7-.3.4-.4 1-.4 1.7v.1zM376.2 21.7l.1.9c.2-.3.5-.6.8-.8s.7-.3 1.1-.3c.7 0 1.2.2 1.6.6s.6 1 .6 1.9v4h-1.2v-4c0-.6-.1-1-.3-1.2s-.6-.4-1-.4c-.3 0-.6.1-.9.2s-.5.4-.6.7V28h-1.2v-6.3h1zM384.6 28.1c-.9 0-1.6-.3-2.1-.9s-.8-1.4-.8-2.3v-.3c0-.9.3-1.7.8-2.3s1.2-.9 1.9-.9c.9 0 1.5.3 1.9.8s.7 1.2.7 2.1v.7h-4.1c0 .6.2 1.1.5 1.5s.7.6 1.2.6c.4 0 .7-.1 1-.2s.5-.3.8-.5l.5.8c-.2.2-.5.4-.9.6-.4.2-.9.3-1.4.3zm-.2-5.6c-.4 0-.7.2-1 .5s-.4.7-.5 1.2h2.9V24c0-.5-.1-.8-.4-1.1-.2-.3-.5-.4-1-.4zM392.8 20.1v1.5h1.2v.9h-1.2v3.8c0 .3.1.5.2.6s.3.2.5.2h.2c.1 0 .2 0 .2-.1l.2.8c-.1.1-.2.1-.4.2s-.3.1-.5.1c-.5 0-.8-.1-1.1-.4s-.4-.7-.4-1.3v-3.8h-1v-.9h1v-1.5h1.1zM396.6 22.5c.2-.3.5-.5.8-.7s.7-.3 1.1-.3c.7 0 1.2.2 1.6.6s.6 1 .6 1.9v4h-1.2v-4c0-.5-.1-.9-.3-1.2s-.6-.4-1-.4c-.3 0-.6.1-.9.2s-.5.4-.6.6V28h-1.2v-9.1h1.2v3.6zM406.2 28c0-.2-.1-.4-.1-.5v-.4c-.2.3-.5.6-.8.8s-.7.3-1.1.3c-.7 0-1.2-.2-1.5-.5s-.5-.8-.5-1.4c0-.6.2-1.1.7-1.4s1.2-.5 2-.5h1.3v-.6c0-.4-.1-.7-.3-.9s-.5-.3-1-.3c-.4 0-.7.1-.9.3s-.3.4-.3.7h-1.1c0-.5.2-.9.7-1.3s1.1-.6 1.8-.6 1.3.2 1.7.5.7.9.7 1.6v3.8c0 .3.1.4.1.6h-1.4zm-2-.8c.4 0 .8-.1 1.1-.3s.6-.5.7-.7v-1h-1.3c-.5 0-.8.1-1.1.4s-.4.5-.4.8c0 .3.1.5.3.7.1 0 .4.1.7.1zM410.4 20.1v1.5h1.2v.9h-1.2v3.8c0 .3.1.5.2.6s.3.2.5.2h.2c.1 0 .2 0 .2-.1l.2.8c-.1.1-.2.1-.4.2s-.3.1-.5.1c-.5 0-.8-.1-1.1-.4s-.4-.7-.4-1.3v-3.8h-1v-.9h1v-1.5h1.1zM417.2 20H416v-1.2h1.2V20zm0 8H416v-6.3h1.2V28zM420.1 20l-.9 2h-.6l.4-2v-1.1h1.2V20zM423.6 26.1l.1.4.1-.4 1.5-4.5h1.2l-2.3 6.3h-.9l-2.4-6.3h1.2l1.5 4.5zM430 28.1c-.9 0-1.6-.3-2.1-.9s-.8-1.4-.8-2.3v-.3c0-.9.3-1.7.8-2.3s1.2-.9 1.9-.9c.9 0 1.5.3 1.9.8s.7 1.2.7 2.1v.7h-4.1c0 .6.2 1.1.5 1.5s.7.6 1.2.6c.4 0 .7-.1 1-.2s.5-.3.8-.5l.5.8c-.2.2-.5.4-.9.6-.4.2-.8.3-1.4.3zm-.1-5.6c-.4 0-.7.2-1 .5s-.4.7-.5 1.2h2.9V24c0-.5-.1-.8-.4-1.1-.2-.3-.6-.4-1-.4zM438.4 25.7l.1.8.2-.8 1.3-4h.9l1.3 4 .2.9.2-.9 1-4h1.1l-1.8 6.3h-.9l-1.2-3.9-.3-1.1-.3 1.1L439 28h-1l-1.8-6.3h1.1l1.1 4zM445.6 24.8c0-.9.3-1.7.8-2.3s1.2-.9 2.1-.9c.9 0 1.6.3 2.1.9s.8 1.4.8 2.3v.1c0 .9-.3 1.7-.8 2.3s-1.2.9-2.1.9-1.6-.3-2.1-.9-.8-1.4-.8-2.3v-.1zm1.1.1c0 .7.1 1.2.4 1.7.3.4.7.7 1.3.7.6 0 1-.2 1.3-.7.3-.4.4-1 .4-1.7v-.1c0-.7-.1-1.2-.4-1.7-.3-.4-.7-.7-1.3-.7-.6 0-1 .2-1.3.7-.3.4-.4 1-.4 1.7v.1zM455.6 22.7h-.6c-.3 0-.6.1-.8.2s-.4.3-.5.6V28h-1.2v-6.3h1l.1.9c.2-.3.4-.6.7-.8s.6-.3.9-.3h.4v1.2zM458.7 25.1h-.8V28h-1.2v-9.1h1.2v5.3h.7l1.7-2.5h1.4l-2.2 2.9 2.5 3.5h-1.4l-1.9-3zM465.4 28.1c-.9 0-1.6-.3-2.1-.9s-.8-1.4-.8-2.3v-.3c0-.9.3-1.7.8-2.3s1.2-.9 1.9-.9c.9 0 1.5.3 1.9.8s.7 1.2.7 2.1v.7h-4.1c0 .6.2 1.1.5 1.5s.7.6 1.2.6c.4 0 .7-.1 1-.2s.5-.3.8-.5l.5.8c-.2.2-.5.4-.9.6-.4.2-.8.3-1.4.3zm-.2-5.6c-.4 0-.7.2-1 .5s-.4.7-.5 1.2h2.9V24c0-.5-.1-.8-.4-1.1-.1-.3-.5-.4-1-.4zM468.9 24.9c0-1 .2-1.8.7-2.5s1-.9 1.8-.9c.4 0 .7.1 1 .2s.5.3.7.6v-3.5h1.2V28h-.9l-.1-.8c-.2.3-.5.5-.8.7s-.7.2-1 .2c-.8 0-1.4-.3-1.8-.8s-.7-1.3-.7-2.2v-.2zm1.1.2c0 .6.1 1.2.4 1.5s.7.6 1.2.6c.3 0 .6-.1.9-.2s.4-.4.6-.7v-3c-.1-.3-.3-.5-.6-.6s-.5-.2-.9-.2c-.6 0-1 .2-1.2.7s-.4 1.1-.4 1.8v.1zM480.6 25.7l.1.8.2-.8 1.3-4h.9l1.3 4 .2.9.2-.9 1-4h1.1l-1.8 6.3h-.9l-1.2-3.9-.3-1.1-.3 1.1-1.2 3.9h-.9l-1.8-6.3h1.1l1 4zM489.3 20h-1.2v-1.2h1.2V20zm0 8h-1.2v-6.3h1.2V28zM492.6 20.1v1.5h1.2v.9h-1.2v3.8c0 .3.1.5.2.6s.3.2.5.2h.2c.1 0 .2 0 .2-.1l.2.8c-.1.1-.2.1-.4.2s-.3.1-.5.1c-.5 0-.8-.1-1.1-.4s-.4-.7-.4-1.3v-3.8h-1v-.9h1v-1.5h1.1zM496.3 22.5c.2-.3.5-.5.8-.7s.7-.3 1.1-.3c.7 0 1.2.2 1.6.6s.6 1 .6 1.9v4h-1.2v-4c0-.5-.1-.9-.3-1.2s-.6-.4-1-.4c-.3 0-.6.1-.9.2s-.5.4-.6.6V28h-1.2v-9.1h1.2v3.6zM503.3 25.2h-1.2v-5.7h1.2v5.7zm0 2.8h-1.2v-1.2h1.2V28zM506.3 20l-.9 2h-.6l.4-2v-1.1h1.2V20zm2 0l-.9 2h-.6l.4-2v-1.1h1.2V20z"/></g><g><path class="st0" d="M357.9 47.6h-4.2v-1.3h4.2v1.3zM367.9 49.1l.3 1h.1l.3-1 3.3-9.5h1.8L369 52.2h-1.5l-4.7-12.6h1.9l3.2 9.5zM378.6 52.4c-1.3 0-2.3-.4-3.1-1.3-.8-.9-1.2-2-1.2-3.4v-.4c0-1.3.4-2.4 1.2-3.3s1.7-1.3 2.8-1.3c1.3 0 2.2.4 2.9 1.1.6.8 1 1.8 1 3V48h-6.1c0 .9.2 1.6.7 2.2.4.6 1.1.9 1.8.9.6 0 1.1-.1 1.5-.2.4-.2.8-.4 1.1-.7l.7 1.1c-.3.3-.8.6-1.3.8-.6.2-1.2.3-2 .3zm-.3-8.4c-.6 0-1.1.2-1.5.7s-.7 1.1-.7 1.8h4.3v-.2c0-.7-.2-1.2-.5-1.7-.4-.3-.9-.6-1.6-.6zM383.7 47.7c0-1.5.3-2.7 1-3.6.7-.9 1.6-1.4 2.7-1.4.6 0 1.1.1 1.6.4.5.2.8.6 1.1 1l.2-1.2h1.4v9.4c0 1.2-.3 2.1-1 2.8-.7.6-1.7 1-3 1-.5 0-.9-.1-1.5-.2-.5-.1-1-.3-1.4-.5l.4-1.3c.3.2.7.3 1.1.4.4.1.9.2 1.3.2.8 0 1.4-.2 1.8-.6.4-.4.6-1 .6-1.7v-1.1c-.3.4-.7.7-1.1.9-.4.2-.9.3-1.5.3-1.1 0-2.1-.4-2.7-1.2-.7-.8-1-1.9-1-3.3v-.3zm1.7.2c0 .9.2 1.7.6 2.3.4.6 1 .9 1.8.9.5 0 .9-.1 1.3-.4.3-.2.6-.6.9-1v-4.3c-.2-.4-.5-.7-.9-.9-.4-.2-.8-.4-1.3-.4-.8 0-1.4.3-1.8 1s-.6 1.6-.6 2.6v.2zM399.9 52.2c-.1-.3-.1-.5-.1-.7 0-.2-.1-.4-.1-.7-.3.5-.7.8-1.2 1.1-.5.3-1.1.5-1.7.5-1 0-1.7-.2-2.2-.7-.5-.5-.8-1.2-.8-2.1 0-.9.4-1.6 1.1-2.1.7-.5 1.7-.8 3-.8h1.9v-.9c0-.5-.2-1-.5-1.3s-.8-.5-1.4-.5c-.5 0-1 .1-1.3.4s-.5.6-.5 1h-1.6v-.1c0-.7.3-1.3 1-1.9.7-.6 1.6-.8 2.6-.8 1.1 0 1.9.3 2.6.8.6.5 1 1.3 1 2.3v4.5c0 .3 0 .7.1 1 0 .3.1.6.2.9h-2.1zm-2.8-1.2c.6 0 1.2-.2 1.7-.5s.8-.7 1-1.1v-1.5h-1.9c-.7 0-1.2.2-1.7.5-.4.3-.6.8-.6 1.2 0 .4.1.7.4 1 .2.3.6.4 1.1.4zM405.4 42.9l.1 1.4c.3-.5.7-.9 1.2-1.2s1-.4 1.6-.4c1 0 1.8.3 2.3.9.6.6.8 1.5.8 2.7v5.9h-1.7v-5.9c0-.8-.2-1.4-.5-1.8s-.8-.5-1.5-.5c-.5 0-.9.1-1.3.4-.4.2-.7.6-.9 1v6.8h-1.7v-9.4h1.6zM425 48h1.7v1.3H425v2.9h-1.7v-2.9h-5.7v-1l5.6-8.7h1.8V48zm-5.5 0h3.8v-5.9h-.1l-.2.4-3.5 5.5zM440 49h-5.3l-1.2 3.2h-1.7l4.9-12.6h1.5l4.8 12.6h-1.7L440 49zm-4.8-1.4h4.2l-2.1-5.7h-.1l-2 5.7zM450.7 46.8v5.5H449V39.6h4.6c1.4 0 2.4.3 3.2.9.7.6 1.1 1.5 1.1 2.7 0 .6-.2 1.2-.5 1.7s-.8.9-1.5 1.1c.7.2 1.2.6 1.5 1.1.3.5.5 1.1.5 1.9v1.2c0 .4 0 .7.1 1.1.1.3.2.6.5.8v.2h-1.8c-.2-.2-.4-.5-.4-.9-.1-.4-.1-.8-.1-1.2V49c0-.7-.2-1.2-.6-1.6s-.9-.6-1.6-.6h-3.3zm0-1.4h2.7c1 0 1.7-.2 2.1-.5.4-.4.6-.9.6-1.7 0-.7-.2-1.3-.6-1.6-.4-.4-1.1-.6-1.9-.6h-2.9v4.4zM464.3 52.4c-1.3 0-2.3-.4-3.1-1.3-.8-.9-1.2-2-1.2-3.4v-.4c0-1.3.4-2.4 1.2-3.3s1.7-1.3 2.8-1.3c1.3 0 2.2.4 2.9 1.1.6.8 1 1.8 1 3V48h-6.1c0 .9.2 1.6.7 2.2.4.6 1.1.9 1.8.9.6 0 1.1-.1 1.5-.2.4-.2.8-.4 1.1-.7l.7 1.1c-.3.3-.8.6-1.3.8-.5.2-1.2.3-2 .3zm-.2-8.4c-.6 0-1.1.2-1.5.7s-.7 1.1-.7 1.8h4.3v-.2c0-.7-.2-1.2-.5-1.7-.4-.3-.9-.6-1.6-.6zM475.6 52.2c-.1-.3-.1-.5-.1-.7 0-.2-.1-.4-.1-.7-.3.5-.7.8-1.2 1.1-.5.3-1.1.5-1.7.5-1 0-1.7-.2-2.2-.7-.5-.5-.8-1.2-.8-2.1 0-.9.4-1.6 1.1-2.1.7-.5 1.7-.8 3-.8h1.9v-.9c0-.5-.2-1-.5-1.3s-.8-.5-1.4-.5c-.5 0-1 .1-1.3.4s-.5.6-.5 1H470v-.1c0-.7.3-1.3 1-1.9.7-.6 1.6-.8 2.6-.8 1.1 0 1.9.3 2.6.8.6.5 1 1.3 1 2.3v4.5c0 .3 0 .7.1 1 0 .3.1.6.2.9h-1.9zm-2.8-1.2c.6 0 1.2-.2 1.7-.5s.8-.7 1-1.1v-1.5h-1.9c-.7 0-1.2.2-1.7.5-.4.3-.6.8-.6 1.2 0 .4.1.7.4 1 .2.3.6.4 1.1.4zM485 49.8c0-.4-.1-.7-.4-.9-.3-.2-.8-.5-1.6-.6-1.1-.2-2-.6-2.6-1-.6-.4-.9-1-.9-1.7 0-.8.3-1.4 1-1.9.6-.5 1.5-.8 2.5-.8 1.1 0 2 .3 2.6.8.6.6 1 1.2.9 2v.1h-1.6c0-.4-.2-.8-.5-1.1-.3-.3-.8-.5-1.4-.5-.6 0-1.1.1-1.4.4-.3.3-.4.6-.4 1s.1.7.4.9c.3.2.8.4 1.6.6 1.2.3 2.1.6 2.6 1 .6.4.9 1 .9 1.8s-.3 1.5-1 2-1.6.8-2.6.8c-1.2 0-2.1-.3-2.8-.9-.7-.6-1-1.3-1-2.1v-.1h1.6c0 .6.3 1 .7 1.3.4.3.9.4 1.5.4s1.1-.1 1.4-.4c.4-.4.5-.7.5-1.1zM488.5 47.5c0-1.4.4-2.5 1.1-3.4s1.8-1.3 3.1-1.3 2.3.4 3.1 1.3c.8.9 1.1 2 1.1 3.4v.2c0 1.4-.4 2.5-1.1 3.4s-1.8 1.3-3.1 1.3-2.3-.4-3.1-1.3c-.8-.9-1.1-2-1.1-3.4v-.2zm1.7.2c0 1 .2 1.8.6 2.5.4.6 1 1 1.9 1 .8 0 1.4-.3 1.9-1 .4-.6.6-1.5.6-2.5v-.2c0-1-.2-1.8-.6-2.4-.4-.7-1-1-1.9-1-.8 0-1.4.3-1.9 1-.4.7-.6 1.5-.6 2.4v.2zM500.5 42.9l.1 1.4c.3-.5.7-.9 1.2-1.2s1-.4 1.6-.4c1 0 1.8.3 2.3.9.6.6.8 1.5.8 2.7v5.9h-1.7v-5.9c0-.8-.2-1.4-.5-1.8s-.8-.5-1.5-.5c-.5 0-.9.1-1.3.4-.4.2-.7.6-.9 1v6.8H499v-9.4h1.5z"/></g><g><path d="M3.5 84.9l.9-2.1H5L4.6 85v1H3.5v-1.1zm1.9 0l.9-2.1h.6L6.6 85v1H5.4v-1.1zM11.8 83.5H13v6.2c0 .8-.2 1.4-.7 1.8s-1.1.7-1.9.7c-.8 0-1.5-.2-2-.6s-.7-1-.7-1.8h1.1c0 .5.1.9.4 1.2s.6.4 1.1.4c.4 0 .8-.1 1-.4.3-.3.4-.7.4-1.2v-6.3zM18.7 92c0-.2-.1-.4-.1-.5v-.4c-.2.3-.5.6-.8.8s-.7.3-1.1.3c-.7 0-1.2-.2-1.5-.5s-.5-.8-.5-1.4c0-.6.2-1.1.7-1.4s1.2-.5 2-.5h1.3v-.6c0-.4-.1-.7-.3-.9s-.5-.3-1-.3c-.4 0-.7.1-.9.3s-.5.3-.5.5h-1.1c0-.5.2-.9.7-1.3s1.1-.6 1.8-.6 1.3.2 1.7.5.7.9.7 1.6v3.8c0 .3.1.4.1.6h-1.2zm-1.9-.8c.4 0 .8-.1 1.1-.3s.6-.5.7-.7v-1h-1.3c-.5 0-.8.1-1.1.4s-.4.5-.4.8c0 .3.1.5.3.7.1 0 .4.1.7.1zM24.4 86.7h-.6c-.3 0-.6.1-.8.2s-.4.3-.5.6V92h-1.2v-6.3h1l.1.9c.2-.3.4-.6.7-.8s.6-.3.9-.3h.4v1.2zM25.1 88.8c0-.9.3-1.7.8-2.3s1.2-.9 2.1-.9c.9 0 1.6.3 2.1.9s.8 1.4.8 2.3v.1c0 .9-.3 1.7-.8 2.3s-1.2.9-2.1.9-1.6-.3-2.1-.9-.8-1.4-.8-2.3v-.1zm1.2.1c0 .7.1 1.2.4 1.7.3.4.7.7 1.3.7.6 0 1-.2 1.3-.7.3-.4.4-1 .4-1.7v-.1c0-.7-.1-1.2-.4-1.7-.3-.4-.7-.7-1.3-.7-.6 0-1 .2-1.3.7-.3.4-.4 1-.4 1.7v.1zM33.3 85.7l.1.9c.2-.3.5-.6.8-.8s.7-.3 1.1-.3c.7 0 1.2.2 1.6.6s.6 1 .6 1.9v4h-1.2v-4c0-.6-.1-1-.3-1.2s-.6-.4-1-.4c-.3 0-.6.1-.9.2s-.5.4-.6.7V92h-1.2v-6.3h1zM43.7 89.7l.1.8.2-.8 1.3-4h.9l1.3 4 .2.9.2-.9 1-4H50L48.1 92h-.9L46 88.1l-.3-1.1-.3 1.1-1.2 3.9h-.9l-1.8-6.3h1.1l1.1 4zM55 92c0-.2-.1-.4-.1-.5v-.4c-.2.3-.5.6-.8.8s-.7.3-1.1.3c-.7 0-1.2-.2-1.5-.5s-.5-.8-.5-1.4c0-.6.2-1.1.7-1.4s1.2-.5 2-.5H55v-.6c0-.4-.1-.7-.3-.9s-.5-.3-1-.3c-.4 0-.7.1-.9.3s-.3.4-.3.7h-1.1c0-.5.2-.9.7-1.3s1.1-.6 1.8-.6 1.3.2 1.7.5.4.8.4 1.5v3.8c0 .3.1.4.1.6H55zm-1.9-.8c.4 0 .8-.1 1.1-.3s.6-.5.7-.7v-1h-1.3c-.5 0-.8.1-1.1.4s-.4.5-.4.8c0 .3.1.5.3.7.1 0 .4.1.7.1zM61.4 90.3c0-.3-.1-.5-.3-.6s-.6-.3-1.1-.4c-.8-.2-1.3-.4-1.7-.7-.4-.3-.6-.7-.6-1.2s.2-1 .7-1.3c.4-.4 1-.5 1.7-.5s1.3.2 1.8.6.6.8.6 1.4h-1.1c0-.3-.1-.5-.3-.7s-.5-.3-.9-.3-.7.1-.9.3-.3.4-.3.7c0 .2.1.4.3.6s.5.3 1.1.4c.8.2 1.4.4 1.8.7s.6.7.6 1.2c0 .6-.2 1-.7 1.4s-1 .5-1.8.5-1.4-.2-1.9-.6-.7-.9-.7-1.4h1.1c0 .4.2.7.5.9.3.2.6.3 1 .3s.7-.1 1-.2.1-.8.1-1.1zM69.6 92.1c-.9 0-1.6-.3-2.1-.9s-.8-1.4-.8-2.3v-.3c0-.9.3-1.7.8-2.3s1.2-.9 1.9-.9c.9 0 1.5.3 1.9.8s.7 1.2.7 2.1v.7h-4.1c0 .6.2 1.1.5 1.5s.7.6 1.2.6c.4 0 .7-.1 1-.2s.5-.3.8-.5l.5.8c-.2.2-.5.4-.9.6-.4.2-.9.3-1.4.3zm-.2-5.6c-.4 0-.7.2-1 .5s-.4.7-.5 1.2h2.9V88c0-.5-.1-.8-.4-1.1-.1-.3-.5-.4-1-.4zM75.5 88l1.3-2.3h1.3L76 88.8l2.1 3.2h-1.3l-1.4-2.4-1.3 2.4h-1.3l2.1-3.2-2.1-3.1h1.3l1.4 2.3zM80.9 84.1v1.5h1.2v.9h-1.2v3.8c0 .3.1.5.2.6s.3.2.5.2h.2c.1 0 .2 0 .2-.1l.2.8c-.1.1-.2.1-.4.2s-.3.1-.5.1c-.5 0-.8-.1-1.1-.4s-.4-.7-.4-1.3v-3.8h-1v-.9h1v-1.5h1.1zM86.5 86.7h-.6c-.3 0-.6.1-.8.2s-.4.3-.5.6V92h-1.2v-6.3h1l.1.9c.2-.3.4-.6.7-.8s.6-.3.9-.3h.4v1.2zM90.1 92.1c-.9 0-1.6-.3-2.1-.9s-.8-1.4-.8-2.3v-.3c0-.9.3-1.7.8-2.3s1.2-.9 1.9-.9c.9 0 1.5.3 1.9.8s.7 1.2.7 2.1v.7h-4.1c0 .6.2 1.1.5 1.5s.7.6 1.2.6c.4 0 .7-.1 1-.2s.5-.3.8-.5l.5.8c-.2.2-.5.4-.9.6-.4.2-.8.3-1.4.3zm-.1-5.6c-.4 0-.7.2-1 .5s-.4.7-.5 1.2h2.9V88c0-.5-.1-.8-.4-1.1-.2-.3-.6-.4-1-.4zM94.9 85.7l.1.8c.2-.3.5-.5.8-.7s.7-.2 1.1-.2.8.1 1.1.3.5.5.7.9c.2-.4.5-.6.8-.9s.7-.3 1.1-.3c.6 0 1.2.2 1.5.7s.6 1.1.6 2V92h-1.2v-3.8c0-.6-.1-1.1-.3-1.3s-.5-.4-1-.4c-.4 0-.7.1-1 .4s-.4.6-.4 1v4h-1.2v-3.8c0-.6-.1-1-.3-1.3s-.5-.4-1-.4c-.4 0-.6.1-.9.2s-.3.4-.4.7V92h-1.2v-6.3h1.1zM107 92.1c-.9 0-1.6-.3-2.1-.9s-.8-1.4-.8-2.3v-.3c0-.9.3-1.7.8-2.3s1.2-.9 1.9-.9c.9 0 1.5.3 1.9.8s.7 1.2.7 2.1v.7h-4.1c0 .6.2 1.1.5 1.5s.7.6 1.2.6c.4 0 .7-.1 1-.2s.5-.3.8-.5l.5.8c-.2.2-.5.4-.9.6-.5.2-.9.3-1.4.3zm-.2-5.6c-.4 0-.7.2-1 .5s-.4.7-.5 1.2h2.9V88c0-.5-.1-.8-.4-1.1-.2-.3-.5-.4-1-.4zM111.9 92h-1.2v-9.1h1.2V92zM115.6 89.7l.2.8 1.6-4.8h1.3L116 93c-.2.4-.4.8-.7 1.1s-.7.5-1.2.5h-.4c-.2 0-.3 0-.3-.1l.1-.9h.5c.2 0 .4-.1.6-.3s.3-.5.4-.7l.3-.7-2.4-6.2h1.3l1.4 4zM123.9 86.5c.2-.3.5-.5.8-.7s.7-.3 1.1-.3c.7 0 1.2.2 1.6.6s.6 1 .6 1.9v4h-1.2v-4c0-.5-.1-.9-.3-1.2s-.6-.4-1-.4c-.3 0-.6.1-.9.2s-.5.4-.6.6V92h-1.2v-9.1h1.2v3.6zM132.2 92.1c-.9 0-1.6-.3-2.1-.9s-.8-1.4-.8-2.3v-.3c0-.9.3-1.7.8-2.3s1.2-.9 1.9-.9c.9 0 1.5.3 1.9.8s.7 1.2.7 2.1v.7h-4.1c0 .6.2 1.1.5 1.5s.7.6 1.2.6c.4 0 .7-.1 1-.2s.5-.3.8-.5l.5.8c-.2.2-.5.4-.9.6-.4.2-.9.3-1.4.3zm-.2-5.6c-.4 0-.7.2-1 .5s-.4.7-.5 1.2h2.9V88c0-.5-.1-.8-.4-1.1-.2-.3-.5-.4-1-.4zM137.1 92H136v-9.1h1.2V92zM144.3 89.1c0 .9-.2 1.7-.7 2.2s-1 .8-1.8.8c-.4 0-.7-.1-1-.2s-.5-.3-.8-.6v3.1h-1.2v-8.8h.9l.2.8c.2-.3.5-.5.8-.7s.7-.2 1.1-.2c.8 0 1.4.3 1.8.9s.7 1.4.7 2.5v.2zm-1.1-.2c0-.7-.1-1.3-.4-1.8-.3-.5-.7-.7-1.3-.7-.3 0-.6.1-.8.2s-.4.4-.6.6v3.1c.1.3.3.5.6.6s.5.2.9.2c.5 0 1-.2 1.2-.6.3-.4.4-.9.4-1.5v-.1zM146.2 92v-5.5h-1v-.9h1v-.8c0-.7.2-1.2.5-1.6s.8-.6 1.5-.6h.4c.1 0 .3.1.4.1l-.1.9h-.6c-.3 0-.6.1-.8.3s-.2.5-.2.9v.8h1.3v.9h-1.3V92h-1.1zM153.9 91.1c-.2.3-.5.6-.8.8s-.7.3-1.1.3c-.7 0-1.2-.2-1.6-.7s-.6-1.1-.6-2.1v-3.7h1.2v3.8c0 .7.1 1.1.3 1.4s.5.4.9.4.7-.1 1-.2.5-.4.6-.7v-4.6h1.2V92h-1l-.1-.9zM157.9 92h-1.2v-9.1h1.2V92zM166.6 92c0-.2-.1-.4-.1-.5v-.4c-.2.3-.5.6-.8.8s-.7.3-1.1.3c-.7 0-1.2-.2-1.5-.5s-.5-.8-.5-1.4c0-.6.2-1.1.7-1.4s1.2-.5 2-.5h1.3v-.6c0-.4-.1-.7-.3-.9s-.5-.3-1-.3c-.4 0-.7.1-.9.3s-.3.4-.3.7H163c0-.5.2-.9.7-1.3s1.1-.6 1.8-.6 1.3.2 1.7.5.7.9.7 1.6v3.8c0 .3.1.4.1.6h-1.4zm-1.9-.8c.4 0 .8-.1 1.1-.3s.6-.5.7-.7v-1h-1.3c-.5 0-.8.1-1.1.4s-.4.5-.4.8c0 .3.1.5.3.7.1 0 .3.1.7.1zM170.3 85.7l.1.9c.2-.3.5-.6.8-.8s.7-.3 1.1-.3c.7 0 1.2.2 1.6.6s.6 1 .6 1.9v4h-1.2v-4c0-.6-.1-1-.3-1.2s-.6-.4-1-.4c-.3 0-.6.1-.9.2s-.5.4-.6.7V92h-1.2v-6.3h1zM175.9 88.9c0-1 .2-1.8.7-2.5s1-.9 1.8-.9c.4 0 .7.1 1 .2s.5.3.7.6v-3.5h1.2V92h-.9l-.1-.8c-.2.3-.5.5-.8.7s-.7.2-1 .2c-.8 0-1.4-.3-1.8-.8s-.7-1.3-.7-2.2v-.2zm1.1.2c0 .6.1 1.2.4 1.5s.7.6 1.2.6c.3 0 .6-.1.9-.2s.4-.4.6-.7v-3c-.1-.3-.3-.5-.6-.6s-.5-.2-.9-.2c-.6 0-1 .2-1.2.7s-.4 1.1-.4 1.8v.1zM189.6 90.3c0-.3-.1-.5-.3-.6s-.6-.3-1.1-.4c-.8-.2-1.3-.4-1.7-.7-.4-.3-.6-.7-.6-1.2s.2-1 .7-1.3c.4-.4 1-.5 1.7-.5s1.3.2 1.8.6.6.8.6 1.4h-1.1c0-.3-.1-.5-.3-.7s-.5-.3-.9-.3-.7.1-.9.3-.3.4-.3.7c0 .2.1.4.3.6s.5.3 1.1.4c.8.2 1.4.4 1.8.7s.6.7.6 1.2c0 .6-.2 1-.7 1.4s-1 .5-1.8.5-1.4-.2-1.9-.6-.7-.9-.7-1.4h1.1c0 .4.2.7.5.9.3.2.6.3 1 .3s.7-.1 1-.2.1-.8.1-1.1zM196.2 91.1c-.2.3-.5.6-.8.8s-.7.3-1.1.3c-.7 0-1.2-.2-1.6-.7s-.6-1.1-.6-2.1v-3.7h1.2v3.8c0 .7.1 1.1.3 1.4s.5.4.9.4.7-.1 1-.2.5-.4.6-.7v-4.6h1.2V92h-1l-.1-.9zM201.6 91.2c.4 0 .7-.1 1-.4s.4-.5.4-.9h1c0 .5-.2 1-.7 1.5s-1.1.6-1.8.6c-.9 0-1.6-.3-2.1-.9s-.7-1.4-.7-2.3v-.2c0-.9.2-1.7.7-2.3s1.2-.9 2.1-.9c.7 0 1.3.2 1.8.7s.7 1 .7 1.6h-1c0-.4-.1-.7-.4-1s-.6-.4-1-.4c-.6 0-1 .2-1.3.7-.3.4-.4 1-.4 1.6v.4c0 .6.1 1.2.4 1.6.3.4.7.6 1.3.6zM208 91.2c.4 0 .7-.1 1-.4s.4-.5.4-.9h1c0 .5-.2 1-.7 1.5s-1.1.6-1.8.6c-.9 0-1.6-.3-2.1-.9s-.7-1.4-.7-2.3v-.2c0-.9.2-1.7.7-2.3s1.2-.9 2.1-.9c.7 0 1.3.2 1.8.7s.7 1 .7 1.6h-1c0-.4-.1-.7-.4-1s-.6-.4-1-.4c-.6 0-1 .2-1.3.7-.3.4-.4 1-.4 1.6v.4c0 .6.1 1.2.4 1.6.2.4.7.6 1.3.6zM214.4 92.1c-.9 0-1.6-.3-2.1-.9s-.8-1.4-.8-2.3v-.3c0-.9.3-1.7.8-2.3s1.2-.9 1.9-.9c.9 0 1.5.3 1.9.8s.7 1.2.7 2.1v.7h-4.1c0 .6.2 1.1.5 1.5s.7.6 1.2.6c.4 0 .7-.1 1-.2s.5-.3.8-.5l.5.8c-.2.2-.5.4-.9.6-.4.2-.9.3-1.4.3zm-.2-5.6c-.4 0-.7.2-1 .5s-.4.7-.5 1.2h2.9V88c0-.5-.1-.8-.4-1.1-.2-.3-.5-.4-1-.4zM221.8 90.3c0-.3-.1-.5-.3-.6s-.6-.3-1.1-.4c-.8-.2-1.3-.4-1.7-.7-.4-.3-.6-.7-.6-1.2s.2-1 .7-1.3c.4-.4 1-.5 1.7-.5s1.3.2 1.8.6.6.8.6 1.4h-1.1c0-.3-.1-.5-.3-.7s-.5-.3-.9-.3-.7.1-.9.3-.3.4-.3.7c0 .2.1.4.3.6s.5.3 1.1.4c.8.2 1.4.4 1.8.7s.6.7.6 1.2c0 .6-.2 1-.7 1.4s-1 .5-1.8.5-1.4-.2-1.9-.6-.7-.9-.7-1.4h1.1c0 .4.2.7.5.9.3.2.6.3 1 .3s.7-.1 1-.2.1-.8.1-1.1zM228.1 90.3c0-.3-.1-.5-.3-.6s-.6-.3-1.1-.4c-.8-.2-1.3-.4-1.7-.7-.4-.3-.6-.7-.6-1.2s.2-1 .7-1.3c.4-.4 1-.5 1.7-.5s1.3.2 1.8.6.6.8.6 1.4H228c0-.3-.1-.5-.3-.7s-.5-.3-.9-.3-.7.1-.9.3-.3.4-.3.7c0 .2.1.4.3.6s.5.3 1.1.4c.8.2 1.4.4 1.8.7s.6.7.6 1.2c0 .6-.2 1-.7 1.4s-1 .5-1.8.5-1.4-.2-1.9-.6-.7-.9-.7-1.4h1.1c0 .4.2.7.5.9.3.2.6.3 1 .3s.7-.1 1-.2.2-.8.2-1.1zM231.1 92v-5.5h-1v-.9h1v-.8c0-.7.2-1.2.5-1.6s.8-.6 1.5-.6h.4c.1 0 .3.1.4.1l-.1.9h-.6c-.3 0-.6.1-.8.3s-.2.5-.2.9v.8h1.3v.9h-1.3V92h-1.1zM238.8 91.1c-.2.3-.5.6-.8.8s-.7.3-1.1.3c-.7 0-1.2-.2-1.6-.7s-.6-1.1-.6-2.1v-3.7h1.2v3.8c0 .7.1 1.1.3 1.4s.5.4.9.4.7-.1 1-.2.5-.4.6-.7v-4.6h1.2V92h-1l-.1-.9zM242.9 92h-1.2v-9.1h1.2V92zM245.9 92h-1.2v-9.1h1.2V92zM249.6 89.7l.2.8 1.6-4.8h1.3L250 93c-.2.4-.4.8-.7 1.1s-.7.5-1.2.5h-.4c-.2 0-.3 0-.3-.1l.1-.9h.5c.2 0 .4-.1.6-.3s.3-.5.4-.7l.3-.7-2.4-6.2h1.3l1.4 4zM259.3 91.2c.4 0 .7-.1 1-.4s.4-.5.4-.9h1c0 .5-.2 1-.7 1.5s-1.1.6-1.8.6c-.9 0-1.6-.3-2.1-.9s-.7-1.4-.7-2.3v-.2c0-.9.2-1.7.7-2.3s1.2-.9 2.1-.9c.7 0 1.3.2 1.8.7s.7 1 .7 1.6h-1c0-.4-.1-.7-.4-1s-.6-.4-1-.4c-.6 0-1 .2-1.3.7-.3.4-.4 1-.4 1.6v.4c0 .6.1 1.2.4 1.6.2.4.7.6 1.3.6zM262.8 88.8c0-.9.3-1.7.8-2.3s1.2-.9 2.1-.9c.9 0 1.6.3 2.1.9s.8 1.4.8 2.3v.1c0 .9-.3 1.7-.8 2.3s-1.2.9-2.1.9-1.6-.3-2.1-.9-.8-1.4-.8-2.3v-.1zm1.1.1c0 .7.1 1.2.4 1.7.3.4.7.7 1.3.7.6 0 1-.2 1.3-.7.3-.4.4-1 .4-1.7v-.1c0-.7-.1-1.2-.4-1.7-.3-.4-.7-.7-1.3-.7-.6 0-1 .2-1.3.7-.3.4-.4 1-.4 1.7v.1zM270.9 85.7l.1.8c.2-.3.5-.5.8-.7s.7-.2 1.1-.2.8.1 1.1.3.5.5.7.9c.2-.4.5-.6.8-.9s.7-.3 1.1-.3c.6 0 1.2.2 1.5.7s.6 1.1.6 2V92h-1.2v-3.8c0-.6-.1-1.1-.3-1.3s-.5-.4-1-.4c-.4 0-.7.1-1 .4s-.4.6-.4 1v4h-1.2v-3.8c0-.6-.1-1-.3-1.3s-.5-.4-1-.4c-.4 0-.6.1-.9.2s-.4.3-.5.6V92h-1.2v-6.3h1.2zM285.8 89.1c0 .9-.2 1.7-.7 2.2s-1 .8-1.8.8c-.4 0-.7-.1-1-.2s-.5-.3-.8-.6v3.1h-1.2v-8.8h.9l.2.8c.2-.3.5-.5.8-.7s.7-.2 1.1-.2c.8 0 1.4.3 1.8.9s.7 1.4.7 2.5v.2zm-1.2-.2c0-.7-.1-1.3-.4-1.8-.3-.5-.7-.7-1.3-.7-.3 0-.6.1-.8.2s-.4.4-.6.6v3.1c.1.3.3.5.6.6s.5.2.9.2c.5 0 1-.2 1.2-.6.3-.4.4-.9.4-1.5v-.1zM288.4 92h-1.2v-9.1h1.2V92zM292.8 92.1c-.9 0-1.6-.3-2.1-.9s-.8-1.4-.8-2.3v-.3c0-.9.3-1.7.8-2.3s1.2-.9 1.9-.9c.9 0 1.5.3 1.9.8s.7 1.2.7 2.1v.7h-4.1c0 .6.2 1.1.5 1.5s.7.6 1.2.6c.4 0 .7-.1 1-.2s.5-.3.8-.5l.5.8c-.2.2-.5.4-.9.6-.4.2-.8.3-1.4.3zm-.1-5.6c-.4 0-.7.2-1 .5s-.4.7-.5 1.2h2.9V88c0-.5-.1-.8-.4-1.1-.2-.3-.6-.4-1-.4zM298.1 84.1v1.5h1.2v.9h-1.2v3.8c0 .3.1.5.2.6s.3.2.5.2h.2c.1 0 .2 0 .2-.1l.2.8c-.1.1-.2.1-.4.2s-.3.1-.5.1c-.5 0-.8-.1-1.1-.4s-.4-.7-.4-1.3v-3.8h-1v-.9h1v-1.5h1.1zM303.3 92.1c-.9 0-1.6-.3-2.1-.9s-.8-1.4-.8-2.3v-.3c0-.9.3-1.7.8-2.3s1.2-.9 1.9-.9c.9 0 1.5.3 1.9.8s.7 1.2.7 2.1v.7h-4.1c0 .6.2 1.1.5 1.5s.7.6 1.2.6c.4 0 .7-.1 1-.2s.5-.3.8-.5l.5.8c-.2.2-.5.4-.9.6-.4.2-.8.3-1.4.3zm-.1-5.6c-.4 0-.7.2-1 .5s-.4.7-.5 1.2h2.9V88c0-.5-.1-.8-.4-1.1-.2-.3-.6-.4-1-.4zM306.8 88.9c0-1 .2-1.8.7-2.5s1-.9 1.8-.9c.4 0 .7.1 1 .2s.5.3.7.6v-3.5h1.2V92h-.9l-.1-.8c-.2.3-.5.5-.8.7s-.7.2-1 .2c-.8 0-1.4-.3-1.8-.8s-.7-1.3-.7-2.2v-.2zm1.1.2c0 .6.1 1.2.4 1.5s.7.6 1.2.6c.3 0 .6-.1.9-.2s.4-.4.6-.7v-3c-.1-.3-.3-.5-.6-.6s-.5-.2-.9-.2c-.6 0-1 .2-1.2.7s-.4 1.1-.4 1.8v.1zM316.6 88.8c0-.9.3-1.7.8-2.3s1.2-.9 2.1-.9c.9 0 1.6.3 2.1.9s.8 1.4.8 2.3v.1c0 .9-.3 1.7-.8 2.3s-1.2.9-2.1.9-1.6-.3-2.1-.9-.8-1.4-.8-2.3v-.1zm1.1.1c0 .7.1 1.2.4 1.7.3.4.7.7 1.3.7.6 0 1-.2 1.3-.7.3-.4.4-1 .4-1.7v-.1c0-.7-.1-1.2-.4-1.7-.3-.4-.7-.7-1.3-.7-.6 0-1 .2-1.3.7-.3.4-.4 1-.4 1.7v.1zM327.7 91.1c-.2.3-.5.6-.8.8s-.7.3-1.1.3c-.7 0-1.2-.2-1.6-.7s-.6-1.1-.6-2.1v-3.7h1.2v3.8c0 .7.1 1.1.3 1.4s.5.4.9.4.7-.1 1-.2.5-.4.6-.7v-4.6h1.2V92h-1l-.1-.9zM333.5 86.7h-.6c-.3 0-.6.1-.8.2s-.4.3-.5.6V92h-1.2v-6.3h1l.1.9c.2-.3.4-.6.7-.8s.6-.3.9-.3h.4v1.2zM343 89.1c0 .9-.2 1.7-.7 2.2s-1 .8-1.8.8c-.4 0-.7-.1-1-.2s-.5-.3-.8-.6v3.1h-1.2v-8.8h.9l.2.8c.2-.3.5-.5.8-.7s.7-.2 1.1-.2c.8 0 1.4.3 1.8.9s.7 1.4.7 2.5v.2zm-1.2-.2c0-.7-.1-1.3-.4-1.8-.3-.5-.7-.7-1.3-.7-.3 0-.6.1-.8.2s-.4.4-.6.6v3.1c.1.3.3.5.6.6s.5.2.9.2c.5 0 1-.2 1.2-.6.3-.4.4-.9.4-1.5v-.1zM347.4 86.7h-.6c-.3 0-.6.1-.8.2s-.4.3-.5.6V92h-1.2v-6.3h1l.1.9c.2-.3.4-.6.7-.8s.6-.3.9-.3h.4v1.2zM348.1 88.8c0-.9.3-1.7.8-2.3s1.2-.9 2.1-.9c.9 0 1.6.3 2.1.9s.8 1.4.8 2.3v.1c0 .9-.3 1.7-.8 2.3s-1.2.9-2.1.9-1.6-.3-2.1-.9-.8-1.4-.8-2.3v-.1zm1.2.1c0 .7.1 1.2.4 1.7.3.4.7.7 1.3.7.6 0 1-.2 1.3-.7.3-.4.4-1 .4-1.7v-.1c0-.7-.1-1.2-.4-1.7-.3-.4-.7-.7-1.3-.7-.6 0-1 .2-1.3.7-.3.4-.4 1-.4 1.7v.1zM356.5 85.7v6.9c0 .7-.2 1.2-.5 1.5s-.8.5-1.4.5h-.3c-.1 0-.2 0-.3-.1l.1-.9h.5c.3 0 .5-.1.6-.3s.2-.5.2-.8v-6.9h1.1zm0-1.7h-1.2v-1.2h1.2V84zM361 92.1c-.9 0-1.6-.3-2.1-.9s-.8-1.4-.8-2.3v-.3c0-.9.3-1.7.8-2.3s1.2-.9 1.9-.9c.9 0 1.5.3 1.9.8s.7 1.2.7 2.1v.7h-4.1c0 .6.2 1.1.5 1.5s.7.6 1.2.6c.4 0 .7-.1 1-.2s.5-.3.8-.5l.5.8c-.2.2-.5.4-.9.6-.5.2-.9.3-1.4.3zm-.2-5.6c-.4 0-.7.2-1 .5s-.4.7-.5 1.2h2.9V88c0-.5-.1-.8-.4-1.1-.2-.3-.5-.4-1-.4zM367.2 91.2c.4 0 .7-.1 1-.4s.4-.5.4-.9h1c0 .5-.2 1-.7 1.5s-1.1.6-1.8.6c-.9 0-1.6-.3-2.1-.9s-.7-1.4-.7-2.3v-.2c0-.9.2-1.7.7-2.3s1.2-.9 2.1-.9c.7 0 1.3.2 1.8.7s.7 1 .7 1.6h-1c0-.4-.1-.7-.4-1s-.6-.4-1-.4c-.6 0-1 .2-1.3.7-.3.4-.4 1-.4 1.6v.4c0 .6.1 1.2.4 1.6.3.4.7.6 1.3.6zM372.6 84.1v1.5h1.2v.9h-1.2v3.8c0 .3.1.5.2.6s.3.2.5.2h.2c.1 0 .2 0 .2-.1l.2.8c-.1.1-.2.1-.4.2s-.3.1-.5.1c-.5 0-.8-.1-1.1-.4s-.4-.7-.4-1.3v-3.8h-1v-.9h1v-1.5h1.1zM377.9 88.9c0-1 .2-1.8.7-2.5s1-.9 1.8-.9c.4 0 .7.1 1 .2s.5.3.7.6v-3.5h1.2V92h-.9l-.1-.8c-.2.3-.5.5-.8.7s-.7.2-1 .2c-.8 0-1.4-.3-1.8-.8s-.7-1.3-.7-2.2v-.2zm1.2.2c0 .6.1 1.2.4 1.5s.7.6 1.2.6c.3 0 .6-.1.9-.2s.4-.4.6-.7v-3c-.1-.3-.3-.5-.6-.6s-.5-.2-.9-.2c-.6 0-1 .2-1.2.7s-.4 1.1-.4 1.8v.1zM387.6 92.1c-.9 0-1.6-.3-2.1-.9s-.8-1.4-.8-2.3v-.3c0-.9.3-1.7.8-2.3s1.2-.9 1.9-.9c.9 0 1.5.3 1.9.8s.7 1.2.7 2.1v.7h-4.1c0 .6.2 1.1.5 1.5s.7.6 1.2.6c.4 0 .7-.1 1-.2s.5-.3.8-.5l.5.8c-.2.2-.5.4-.9.6-.4.2-.9.3-1.4.3zm-.2-5.6c-.4 0-.7.2-1 .5s-.4.7-.5 1.2h2.9V88c0-.5-.1-.8-.4-1.1-.1-.3-.5-.4-1-.4zM395 90.3c0-.3-.1-.5-.3-.6s-.6-.3-1.1-.4c-.8-.2-1.3-.4-1.7-.7-.4-.3-.6-.7-.6-1.2s.2-1 .7-1.3c.4-.4 1-.5 1.7-.5s1.3.2 1.8.6.6.8.6 1.4H395c0-.3-.1-.5-.3-.7s-.5-.3-.9-.3-.7.1-.9.3-.3.4-.3.7c0 .2.1.4.3.6s.5.3 1.1.4c.8.2 1.4.4 1.8.7s.6.7.6 1.2c0 .6-.2 1-.7 1.4s-1 .5-1.8.5-1.4-.2-1.9-.6-.7-.9-.7-1.4h1.1c0 .4.2.7.5.9.3.2.6.3 1 .3s.7-.1 1-.2.1-.8.1-1.1zM403 89.1c0 .9-.2 1.7-.7 2.2s-1 .8-1.8.8c-.4 0-.7-.1-1-.2s-.5-.3-.8-.6v3.1h-1.2v-8.8h.9l.2.8c.2-.3.5-.5.8-.7s.7-.2 1.1-.2c.8 0 1.4.3 1.8.9s.7 1.4.7 2.5v.2zm-1.1-.2c0-.7-.1-1.3-.4-1.8-.3-.5-.7-.7-1.3-.7-.3 0-.6.1-.8.2s-.4.4-.6.6v3.1c.1.3.3.5.6.6s.5.2.9.2c.5 0 1-.2 1.2-.6.3-.4.4-.9.4-1.5v-.1zM405.7 84h-1.2v-1.2h1.2V84zm0 8h-1.2v-6.3h1.2V92zM409 84.1v1.5h1.2v.9H409v3.8c0 .3.1.5.2.6s.3.2.5.2h.2c.1 0 .2 0 .2-.1l.2.8c-.1.1-.2.1-.4.2s-.3.1-.5.1c-.5 0-.8-.1-1.1-.4s-.4-.7-.4-1.3v-3.8h-1v-.9h1v-1.5h1.1zM414.2 92.1c-.9 0-1.6-.3-2.1-.9s-.8-1.4-.8-2.3v-.3c0-.9.3-1.7.8-2.3s1.2-.9 1.9-.9c.9 0 1.5.3 1.9.8s.7 1.2.7 2.1v.7h-4.1c0 .6.2 1.1.5 1.5s.7.6 1.2.6c.4 0 .7-.1 1-.2s.5-.3.8-.5l.5.8c-.2.2-.5.4-.9.6-.4.2-.8.3-1.4.3zm-.1-5.6c-.4 0-.7.2-1 .5s-.4.7-.5 1.2h2.9V88c0-.5-.1-.8-.4-1.1-.2-.3-.6-.4-1-.4zM422.5 84.1v1.5h1.2v.9h-1.2v3.8c0 .3.1.5.2.6s.3.2.5.2h.2c.1 0 .2 0 .2-.1l.2.8c-.1.1-.2.1-.4.2s-.3.1-.5.1c-.5 0-.8-.1-1.1-.4s-.4-.7-.4-1.3v-3.8h-1v-.9h1v-1.5h1.1zM426.2 86.5c.2-.3.5-.5.8-.7s.7-.3 1.1-.3c.7 0 1.2.2 1.6.6s.6 1 .6 1.9v4h-1.2v-4c0-.5-.1-.9-.3-1.2s-.6-.4-1-.4c-.3 0-.6.1-.9.2s-.5.4-.6.6V92h-1.2v-9.1h1.2v3.6zM434.5 92.1c-.9 0-1.6-.3-2.1-.9s-.8-1.4-.8-2.3v-.3c0-.9.3-1.7.8-2.3s1.2-.9 1.9-.9c.9 0 1.5.3 1.9.8s.7 1.2.7 2.1v.7h-4.1c0 .6.2 1.1.5 1.5s.7.6 1.2.6c.4 0 .7-.1 1-.2s.5-.3.8-.5l.5.8c-.2.2-.5.4-.9.6-.4.2-.8.3-1.4.3zm-.1-5.6c-.4 0-.7.2-1 .5s-.4.7-.5 1.2h2.9V88c0-.5-.1-.8-.4-1.1-.2-.3-.6-.4-1-.4zM442.8 84.1v1.5h1.2v.9h-1.2v3.8c0 .3.1.5.2.6s.3.2.5.2h.2c.1 0 .2 0 .2-.1l.2.8c-.1.1-.2.1-.4.2s-.3.1-.5.1c-.5 0-.8-.1-1.1-.4s-.4-.7-.4-1.3v-3.8h-1v-.9h1v-1.5h1.1zM446.6 84h-1.2v-1.2h1.2V84zm0 8h-1.2v-6.3h1.2V92zM449.4 85.7l.1.8c.2-.3.5-.5.8-.7s.7-.2 1.1-.2.8.1 1.1.3.5.5.7.9c.2-.4.5-.6.8-.9s.7-.3 1.1-.3c.6 0 1.2.2 1.5.7s.6 1.1.6 2V92H456v-3.8c0-.6-.1-1.1-.3-1.3s-.5-.4-1-.4c-.4 0-.7.1-1 .4s-.4.6-.4 1v4h-1.2v-3.8c0-.6-.1-1-.3-1.3s-.5-.4-1-.4c-.4 0-.6.1-.9.2s-.4.3-.5.6V92h-1.2v-6.3h1.2zM461.5 92.1c-.9 0-1.6-.3-2.1-.9s-.8-1.4-.8-2.3v-.3c0-.9.3-1.7.8-2.3s1.2-.9 1.9-.9c.9 0 1.5.3 1.9.8s.7 1.2.7 2.1v.7h-4.1c0 .6.2 1.1.5 1.5s.7.6 1.2.6c.4 0 .7-.1 1-.2s.5-.3.8-.5l.5.8c-.2.2-.5.4-.9.6-.4.2-.9.3-1.4.3zm-.2-5.6c-.4 0-.7.2-1 .5s-.4.7-.5 1.2h2.9V88c0-.5-.1-.8-.4-1.1-.1-.3-.5-.4-1-.4zM470.8 91.2c.4 0 .7-.1 1-.4s.4-.5.4-.9h1c0 .5-.2 1-.7 1.5s-1.1.6-1.8.6c-.9 0-1.6-.3-2.1-.9s-.7-1.4-.7-2.3v-.2c0-.9.2-1.7.7-2.3s1.2-.9 2.1-.9c.7 0 1.3.2 1.8.7s.7 1 .7 1.6h-1c0-.4-.1-.7-.4-1s-.6-.4-1-.4c-.6 0-1 .2-1.3.7-.3.4-.4 1-.4 1.6v.4c0 .6.1 1.2.4 1.6.3.4.7.6 1.3.6zM474.3 88.8c0-.9.3-1.7.8-2.3s1.2-.9 2.1-.9c.9 0 1.6.3 2.1.9s.8 1.4.8 2.3v.1c0 .9-.3 1.7-.8 2.3s-1.2.9-2.1.9-1.6-.3-2.1-.9-.8-1.4-.8-2.3v-.1zm1.2.1c0 .7.1 1.2.4 1.7.3.4.7.7 1.3.7.6 0 1-.2 1.3-.7.3-.4.4-1 .4-1.7v-.1c0-.7-.1-1.2-.4-1.7-.3-.4-.7-.7-1.3-.7-.6 0-1 .2-1.3.7-.3.4-.4 1-.4 1.7v.1zM482.4 85.7l.1.9c.2-.3.5-.6.8-.8s.7-.3 1.1-.3c.7 0 1.2.2 1.6.6s.6 1 .6 1.9v4h-1.2v-4c0-.6-.1-1-.3-1.2s-.6-.4-1-.4c-.3 0-.6.1-.9.2s-.5.4-.6.7V92h-1.2v-6.3h1zM491.9 90.3c0-.3-.1-.5-.3-.6s-.6-.3-1.1-.4c-.8-.2-1.3-.4-1.7-.7-.4-.3-.6-.7-.6-1.2s.2-1 .7-1.3c.4-.4 1-.5 1.7-.5s1.3.2 1.8.6.6.8.6 1.4h-1.1c0-.3-.1-.5-.3-.7s-.5-.3-.9-.3-.7.1-.9.3-.3.4-.3.7c0 .2.1.4.3.6s.5.3 1.1.4c.8.2 1.4.4 1.8.7s.6.7.6 1.2c0 .6-.2 1-.7 1.4s-1 .5-1.8.5-1.4-.2-1.9-.6-.7-.9-.7-1.4h1.1c0 .4.2.7.5.9.3.2.6.3 1 .3s.7-.1 1-.2.1-.8.1-1.1zM496 84.1v1.5h1.2v.9H496v3.8c0 .3.1.5.2.6s.3.2.5.2h.2c.1 0 .2 0 .2-.1l.2.8c-.1.1-.2.1-.4.2s-.3.1-.5.1c-.5 0-.8-.1-1.1-.4s-.4-.7-.4-1.3v-3.8h-1v-.9h1v-1.5h1.1zM501.7 86.7h-.6c-.3 0-.6.1-.8.2s-.4.3-.5.6V92h-1.2v-6.3h1l.1.9c.2-.3.4-.6.7-.8s.6-.3.9-.3h.4v1.2zM506.7 92c0-.2-.1-.4-.1-.5v-.4c-.2.3-.5.6-.8.8s-.7.3-1.1.3c-.7 0-1.2-.2-1.5-.5s-.5-.8-.5-1.4c0-.6.2-1.1.7-1.4s1.2-.5 2-.5h1.3v-.6c0-.4-.1-.7-.3-.9s-.5-.3-1-.3c-.4 0-.7.1-.9.3s-.3.4-.3.7h-1.1c0-.5.2-.9.7-1.3s1.1-.6 1.8-.6 1.3.2 1.7.5.7.9.7 1.6v3.8c0 .3.1.4.1.6h-1.4zm-2-.8c.4 0 .8-.1 1.1-.3s.6-.5.7-.7v-1h-1.3c-.5 0-.8.1-1.1.4s-.4.5-.4.8c0 .3.1.5.3.7.1 0 .4.1.7.1zM510.6 84h-1.2v-1.2h1.2V84zm0 8h-1.2v-6.3h1.2V92zM513.4 85.7l.1.9c.2-.3.5-.6.8-.8s.7-.3 1.1-.3c.7 0 1.2.2 1.6.6s.6 1 .6 1.9v4h-1.2v-4c0-.6-.1-1-.3-1.2s-.6-.4-1-.4c-.3 0-.6.1-.9.2s-.5.4-.6.7V92h-1.2v-6.3h1zM520.7 84.1v1.5h1.2v.9h-1.2v3.8c0 .3.1.5.2.6s.3.2.5.2h.2c.1 0 .2 0 .2-.1l.2.8c-.1.1-.2.1-.4.2s-.3.1-.5.1c-.5 0-.8-.1-1.1-.4s-.4-.7-.4-1.3v-3.8h-1v-.9h1v-1.5h1.1zM527 90.3c0-.3-.1-.5-.3-.6s-.6-.3-1.1-.4c-.8-.2-1.3-.4-1.7-.7-.4-.3-.6-.7-.6-1.2s.2-1 .7-1.3c.4-.4 1-.5 1.7-.5s1.3.2 1.8.6.6.8.6 1.4H527c0-.3-.1-.5-.3-.7s-.5-.3-.9-.3-.7.1-.9.3-.3.4-.3.7c0 .2.1.4.3.6s.5.3 1.1.4c.8.2 1.4.4 1.8.7s.6.7.6 1.2c0 .6-.2 1-.7 1.4s-1 .5-1.8.5-1.4-.2-1.9-.6-.7-.9-.7-1.4h1.1c0 .4.2.7.5.9.3.2.6.3 1 .3s.7-.1 1-.2.1-.8.1-1.1zM534.2 89.7l.1.8.2-.8 1.3-4h.9l1.3 4 .2.9.2-.9 1-4h1.1l-1.8 6.3h-.9l-1.2-3.9-.3-1.1-.3 1.1-1.2 3.9h-.9l-1.8-6.3h1.1l1 4zM544.3 92.1c-.9 0-1.6-.3-2.1-.9s-.8-1.4-.8-2.3v-.3c0-.9.3-1.7.8-2.3s1.2-.9 1.9-.9c.9 0 1.5.3 1.9.8s.7 1.2.7 2.1v.7h-4.1c0 .6.2 1.1.5 1.5s.7.6 1.2.6c.4 0 .7-.1 1-.2s.5-.3.8-.5l.5.8c-.2.2-.5.4-.9.6-.4.2-.8.3-1.4.3zm-.2-5.6c-.4 0-.7.2-1 .5s-.4.7-.5 1.2h2.9V88c0-.5-.1-.8-.4-1.1-.1-.3-.5-.4-1-.4zM552.2 86.5c.2-.3.5-.5.8-.7s.7-.3 1.1-.3c.7 0 1.2.2 1.6.6s.6 1 .6 1.9v4H555v-4c0-.5-.1-.9-.3-1.2s-.6-.4-1-.4c-.3 0-.6.1-.9.2s-.5.4-.6.6V92H551v-9.1h1.2v3.6zM561.7 92c0-.2-.1-.4-.1-.5v-.4c-.2.3-.5.6-.8.8s-.7.3-1.1.3c-.7 0-1.2-.2-1.5-.5s-.5-.8-.5-1.4c0-.6.2-1.1.7-1.4s1.2-.5 2-.5h1.3v-.6c0-.4-.1-.7-.3-.9s-.5-.3-1-.3c-.4 0-.7.1-.9.3s-.3.4-.3.7H558c0-.5.2-.9.7-1.3s1.1-.6 1.8-.6 1.3.2 1.7.5.7.9.7 1.6v3.8c0 .3.1.4.1.6h-1.3zm-1.9-.8c.4 0 .8-.1 1.1-.3s.6-.5.7-.7v-1h-1.3c-.5 0-.8.1-1.1.4s-.4.5-.4.8c0 .3.1.5.3.7.1 0 .4.1.7.1zM564.2 88.9c0-1 .2-1.8.7-2.5s1-.9 1.8-.9c.4 0 .7.1 1 .2s.5.3.7.6v-3.5h1.2V92h-.9l-.1-.8c-.2.3-.5.5-.8.7s-.7.2-1 .2c-.8 0-1.4-.3-1.8-.8s-.7-1.3-.7-2.2v-.2zm1.1.2c0 .6.1 1.2.4 1.5s.7.6 1.2.6c.3 0 .6-.1.9-.2s.4-.4.6-.7v-3c-.1-.3-.3-.5-.6-.6s-.5-.2-.9-.2c-.6 0-1 .2-1.2.7s-.4 1.1-.4 1.8v.1zM572.5 92h-1.2v-1.2h1.2V92z"/></g><g><path d="M91.3 108h-1.2v-8.5h1.2v8.5zM97.4 102.5c.2-.3.5-.5.8-.7s.7-.3 1.1-.3c.7 0 1.2.2 1.6.6s.6 1 .6 1.9v4h-1.2v-4c0-.5-.1-.9-.3-1.2s-.6-.4-1-.4c-.3 0-.6.1-.9.2s-.5.4-.6.6v4.7h-1.2v-9.1h1.2v3.7zM104.3 100h-1.2v-1.2h1.2v1.2zm0 8h-1.2v-6.3h1.2v6.3zM105.8 104.9c0-1 .2-1.8.7-2.5s1.1-.9 1.8-.9c.4 0 .8.1 1.1.2s.6.4.8.7l.1-.8h.9v6.4c0 .8-.2 1.4-.7 1.9s-1.2.7-2 .7c-.3 0-.6 0-1-.1s-.7-.2-.9-.3l.3-.9c.2.1.5.2.8.3s.6.1.9.1c.6 0 1-.1 1.2-.4s.4-.6.4-1.2v-.7c-.2.3-.5.5-.7.6s-.6.2-1 .2c-.8 0-1.4-.3-1.8-.8s-.7-1.3-.7-2.2v-.3zm1.2.2c0 .6.1 1.1.4 1.5s.7.6 1.2.6c.3 0 .6-.1.9-.2s.4-.4.6-.7v-2.9c-.1-.3-.3-.5-.6-.6s-.5-.2-.9-.2c-.6 0-1 .2-1.2.7s-.4 1.1-.4 1.8zM114 102.5c.2-.3.5-.5.8-.7s.7-.3 1.1-.3c.7 0 1.2.2 1.6.6s.6 1 .6 1.9v4h-1.2v-4c0-.5-.1-.9-.3-1.2s-.6-.4-1-.4c-.3 0-.6.1-.9.2s-.5.4-.6.6v4.7h-1.2v-9.1h1.2v3.7zM120.9 108h-1.2v-9.1h1.2v9.1zM124.7 105.7l.2.8 1.6-4.8h1.3l-2.7 7.3c-.2.4-.4.8-.7 1.1s-.7.5-1.2.5h-.4c-.2 0-.3 0-.3-.1l.1-.9h.5c.2 0 .4-.1.6-.3s.3-.5.4-.7l.3-.7-2.4-6.2h1.3l1.4 4zM134.7 102.7h-.6c-.3 0-.6.1-.8.2s-.4.3-.5.6v4.5h-1.2v-6.3h1l.1.9c.2-.3.4-.6.7-.8s.6-.3.9-.3h.4v1.2zM138.4 108.1c-.9 0-1.6-.3-2.1-.9s-.8-1.4-.8-2.3v-.3c0-.9.3-1.7.8-2.3s1.2-.9 1.9-.9c.9 0 1.5.3 1.9.8s.7 1.2.7 2.1v.7h-4.1c0 .6.2 1.1.5 1.5s.7.6 1.2.6c.4 0 .7-.1 1-.2s.5-.3.8-.5l.5.8c-.2.2-.5.4-.9.6-.5.2-.9.3-1.4.3zm-.2-5.6c-.4 0-.7.2-1 .5s-.4.7-.5 1.2h2.9v-.2c0-.5-.1-.8-.4-1.1-.2-.3-.5-.4-1-.4zM144.7 107.2c.4 0 .7-.1 1-.4s.4-.5.4-.9h1c0 .5-.2 1-.7 1.5s-1.1.6-1.8.6c-.9 0-1.6-.3-2.1-.9s-.7-1.4-.7-2.3v-.2c0-.9.2-1.7.7-2.3s1.2-.9 2.1-.9c.7 0 1.3.2 1.8.7s.7 1 .7 1.6h-1c0-.4-.1-.7-.4-1s-.6-.4-1-.4c-.6 0-1 .2-1.3.7-.3.4-.4 1-.4 1.6v.2c0 .6.1 1.2.4 1.6.2.6.7.8 1.3.8zM148.2 104.8c0-.9.3-1.7.8-2.3s1.2-.9 2.1-.9c.9 0 1.6.3 2.1.9s.8 1.4.8 2.3v.1c0 .9-.3 1.7-.8 2.3s-1.2.9-2.1.9-1.6-.3-2.1-.9-.8-1.4-.8-2.3v-.1zm1.1.1c0 .7.1 1.2.4 1.7.3.4.7.7 1.3.7.6 0 1-.2 1.3-.7.3-.4.4-1 .4-1.7v-.1c0-.7-.1-1.2-.4-1.7-.3-.4-.7-.7-1.3-.7-.6 0-1 .2-1.3.7-.3.4-.4 1-.4 1.7v.1zM156.3 101.7l.1.8c.2-.3.5-.5.8-.7s.7-.2 1.1-.2.8.1 1.1.3.5.5.7.9c.2-.4.5-.6.8-.9s.7-.3 1.1-.3c.6 0 1.2.2 1.5.7s.6 1.1.6 2v3.8h-1.2v-3.8c0-.6-.1-1.1-.3-1.3s-.5-.4-1-.4c-.4 0-.7.1-1 .4s-.4.6-.4 1v4H159v-3.8c0-.6-.1-1-.3-1.3s-.5-.4-1-.4c-.4 0-.6.1-.9.2s-.4.3-.5.6v4.7h-1.2v-6.3h1.2zM166.8 101.7l.1.8c.2-.3.5-.5.8-.7s.7-.2 1.1-.2.8.1 1.1.3.5.5.7.9c.2-.4.5-.6.8-.9s.7-.3 1.1-.3c.6 0 1.2.2 1.5.7s.6 1.1.6 2v3.8h-1.2v-3.8c0-.6-.1-1.1-.3-1.3s-.5-.4-1-.4c-.4 0-.7.1-1 .4s-.4.6-.4 1v4h-1.2v-3.8c0-.6-.1-1-.3-1.3s-.5-.4-1-.4c-.4 0-.6.1-.9.2s-.4.3-.5.6v4.7h-1.2v-6.3h1.2zM178.9 108.1c-.9 0-1.6-.3-2.1-.9s-.8-1.4-.8-2.3v-.3c0-.9.3-1.7.8-2.3s1.2-.9 1.9-.9c.9 0 1.5.3 1.9.8s.7 1.2.7 2.1v.7h-4.1c0 .6.2 1.1.5 1.5s.7.6 1.2.6c.4 0 .7-.1 1-.2s.5-.3.8-.5l.5.8c-.2.2-.5.4-.9.6-.4.2-.9.3-1.4.3zm-.2-5.6c-.4 0-.7.2-1 .5s-.4.7-.5 1.2h2.9v-.2c0-.5-.1-.8-.4-1.1-.2-.3-.5-.4-1-.4zM183.6 101.7l.1.9c.2-.3.5-.6.8-.8s.7-.3 1.1-.3c.7 0 1.2.2 1.6.6s.6 1 .6 1.9v4h-1.2v-4c0-.6-.1-1-.3-1.2s-.6-.4-1-.4c-.3 0-.6.1-.9.2s-.5.4-.6.7v4.6h-1.2v-6.3h1zM189.2 104.9c0-1 .2-1.8.7-2.5s1-.9 1.8-.9c.4 0 .7.1 1 .2s.5.3.7.6v-3.5h1.2v9.1h-.9l-.1-.8c-.2.3-.5.5-.8.7s-.7.2-1 .2c-.8 0-1.4-.3-1.8-.8s-.7-1.3-.7-2.2v-.1zm1.1.2c0 .6.1 1.2.4 1.5s.7.6 1.2.6c.3 0 .6-.1.9-.2s.4-.4.6-.7v-3c-.1-.3-.3-.5-.6-.6s-.5-.2-.9-.2c-.6 0-1 .2-1.2.7s-.4 1.1-.4 1.8v.1zM202.9 99.5h1.2v6.2c0 .8-.2 1.4-.7 1.8s-1.1.7-1.9.7c-.8 0-1.5-.2-2-.6s-.7-1-.7-1.8h1.1c0 .5.1.9.4 1.2s.6.4 1.1.4c.4 0 .8-.1 1-.4.3-.3.4-.7.4-1.2v-6.3zM209.7 108c0-.2-.1-.4-.1-.5v-.4c-.2.3-.5.6-.8.8s-.7.3-1.1.3c-.7 0-1.2-.2-1.5-.5s-.5-.8-.5-1.4c0-.6.2-1.1.7-1.4s1.2-.5 2-.5h1.3v-.6c0-.4-.1-.7-.3-.9s-.5-.3-1-.3c-.4 0-.7.1-.9.3s-.3.4-.3.7H206c0-.5.2-.9.7-1.3s1.1-.6 1.8-.6 1.3.2 1.7.5.7.9.7 1.6v3.8c0 .3.1.4.1.6h-1.3zm-1.9-.8c.4 0 .8-.1 1.1-.3s.6-.5.7-.7v-1h-1.3c-.5 0-.8.1-1.1.4s-.4.5-.4.8c0 .3.1.5.3.7.1 0 .4.1.7.1zM215.4 102.7h-.6c-.3 0-.6.1-.8.2s-.4.3-.5.6v4.5h-1.2v-6.3h1l.1.9c.2-.3.4-.6.7-.8s.6-.3.9-.3h.4v1.2zM216.2 104.8c0-.9.3-1.7.8-2.3s1.2-.9 2.1-.9c.9 0 1.6.3 2.1.9s.8 1.4.8 2.3v.1c0 .9-.3 1.7-.8 2.3s-1.2.9-2.1.9-1.6-.3-2.1-.9-.8-1.4-.8-2.3v-.1zm1.1.1c0 .7.1 1.2.4 1.7.3.4.7.7 1.3.7.6 0 1-.2 1.3-.7.3-.4.4-1 .4-1.7v-.1c0-.7-.1-1.2-.4-1.7-.3-.4-.7-.7-1.3-.7-.6 0-1 .2-1.3.7-.3.4-.4 1-.4 1.7v.1zM224.3 101.7l.1.9c.2-.3.5-.6.8-.8s.7-.3 1.1-.3c.7 0 1.2.2 1.6.6s.6 1 .6 1.9v4h-1.2v-4c0-.6-.1-1-.3-1.2s-.6-.4-1-.4c-.3 0-.6.1-.9.2s-.5.4-.6.7v4.6h-1.2v-6.3h1zM233.5 108v-5.5h-1v-.9h1v-.8c0-.7.2-1.2.5-1.6s.8-.6 1.5-.6h.4c.1 0 .3.1.4.1l-.1.9h-.6c-.3 0-.6.1-.8.3s-.2.5-.2.9v.8h1.3v.9h-1.3v5.5h-1.1zM236.9 104.8c0-.9.3-1.7.8-2.3s1.2-.9 2.1-.9c.9 0 1.6.3 2.1.9s.8 1.4.8 2.3v.1c0 .9-.3 1.7-.8 2.3s-1.2.9-2.1.9-1.6-.3-2.1-.9-.8-1.4-.8-2.3v-.1zm1.2.1c0 .7.1 1.2.4 1.7.3.4.7.7 1.3.7.6 0 1-.2 1.3-.7.3-.4.4-1 .4-1.7v-.1c0-.7-.1-1.2-.4-1.7-.3-.4-.7-.7-1.3-.7-.6 0-1 .2-1.3.7-.3.4-.4 1-.4 1.7v.1zM247 102.7h-.6c-.3 0-.6.1-.8.2s-.4.3-.5.6v4.5H244v-6.3h1l.1.9c.2-.3.4-.6.7-.8s.6-.3.9-.3h.4l-.1 1.2zM255 108c0-.2-.1-.4-.1-.5v-.4c-.2.3-.5.6-.8.8s-.7.3-1.1.3c-.7 0-1.2-.2-1.5-.5s-.5-.8-.5-1.4c0-.6.2-1.1.7-1.4s1.2-.5 2-.5h1.3v-.6c0-.4-.1-.7-.3-.9s-.5-.3-1-.3c-.4 0-.7.1-.9.3s-.3.4-.3.7h-1.1c0-.5.2-.9.7-1.3s1.1-.6 1.8-.6 1.3.2 1.7.5.7.9.7 1.6v3.8c0 .3.1.4.1.6H255zm-1.9-.8c.4 0 .8-.1 1.1-.3s.6-.5.7-.7v-1h-1.3c-.5 0-.8.1-1.1.4s-.4.5-.4.8c0 .3.1.5.3.7.1 0 .4.1.7.1zM258.7 101.7l.1.9c.2-.3.5-.6.8-.8s.7-.3 1.1-.3c.7 0 1.2.2 1.6.6s.6 1 .6 1.9v4h-1.2v-4c0-.6-.1-1-.3-1.2s-.6-.4-1-.4c-.3 0-.6.1-.9.2s-.5.4-.6.7v4.6h-1.2v-6.3h1zM266.5 105.7l.2.8 1.6-4.8h1.3l-2.7 7.3c-.2.4-.4.8-.7 1.1s-.7.5-1.2.5h-.4c-.2 0-.3 0-.3-.1l.1-.9h.5c.2 0 .4-.1.6-.3s.3-.5.4-.7l.3-.7-2.4-6.2h1.3l1.4 4zM270.2 104.8c0-.9.3-1.7.8-2.3s1.2-.9 2.1-.9c.9 0 1.6.3 2.1.9s.8 1.4.8 2.3v.1c0 .9-.3 1.7-.8 2.3s-1.2.9-2.1.9-1.6-.3-2.1-.9-.8-1.4-.8-2.3v-.1zm1.2.1c0 .7.1 1.2.4 1.7.3.4.7.7 1.3.7.6 0 1-.2 1.3-.7.3-.4.4-1 .4-1.7v-.1c0-.7-.1-1.2-.4-1.7-.3-.4-.7-.7-1.3-.7-.6 0-1 .2-1.3.7-.3.4-.4 1-.4 1.7v.1zM278.3 101.7l.1.9c.2-.3.5-.6.8-.8s.7-.3 1.1-.3c.7 0 1.2.2 1.6.6s.6 1 .6 1.9v4h-1.2v-4c0-.6-.1-1-.3-1.2s-.6-.4-1-.4c-.3 0-.6.1-.9.2s-.5.4-.6.7v4.6h-1.2v-6.3h1zM286.8 108.1c-.9 0-1.6-.3-2.1-.9s-.8-1.4-.8-2.3v-.3c0-.9.3-1.7.8-2.3s1.2-.9 1.9-.9c.9 0 1.5.3 1.9.8s.7 1.2.7 2.1v.7h-4.1c0 .6.2 1.1.5 1.5s.7.6 1.2.6c.4 0 .7-.1 1-.2s.5-.3.8-.5l.5.8c-.2.2-.5.4-.9.6-.5.2-.9.3-1.4.3zm-.2-5.6c-.4 0-.7.2-1 .5s-.4.7-.5 1.2h2.9v-.2c0-.5-.1-.8-.4-1.1-.2-.3-.5-.4-1-.4zM294.5 101.7l.1.9c.2-.3.5-.6.8-.8s.7-.3 1.1-.3c.7 0 1.2.2 1.6.6s.6 1 .6 1.9v4h-1.2v-4c0-.6-.1-1-.3-1.2s-.6-.4-1-.4c-.3 0-.6.1-.9.2s-.5.4-.6.7v4.6h-1.2v-6.3h1zM302.9 108.1c-.9 0-1.6-.3-2.1-.9s-.8-1.4-.8-2.3v-.3c0-.9.3-1.7.8-2.3s1.2-.9 1.9-.9c.9 0 1.5.3 1.9.8s.7 1.2.7 2.1v.7h-4.1c0 .6.2 1.1.5 1.5s.7.6 1.2.6c.4 0 .7-.1 1-.2s.5-.3.8-.5l.5.8c-.2.2-.5.4-.9.6-.4.2-.9.3-1.4.3zm-.2-5.6c-.4 0-.7.2-1 .5s-.4.7-.5 1.2h2.9v-.2c0-.5-.1-.8-.4-1.1-.1-.3-.5-.4-1-.4zM309.2 108.1c-.9 0-1.6-.3-2.1-.9s-.8-1.4-.8-2.3v-.3c0-.9.3-1.7.8-2.3s1.2-.9 1.9-.9c.9 0 1.5.3 1.9.8s.7 1.2.7 2.1v.7h-4.1c0 .6.2 1.1.5 1.5s.7.6 1.2.6c.4 0 .7-.1 1-.2s.5-.3.8-.5l.5.8c-.2.2-.5.4-.9.6-.4.2-.8.3-1.4.3zm-.1-5.6c-.4 0-.7.2-1 .5s-.4.7-.5 1.2h2.9v-.2c0-.5-.1-.8-.4-1.1-.2-.3-.6-.4-1-.4zM312.7 104.9c0-1 .2-1.8.7-2.5s1-.9 1.8-.9c.4 0 .7.1 1 .2s.5.3.7.6v-3.5h1.2v9.1h-.9l-.1-.8c-.2.3-.5.5-.8.7s-.7.2-1 .2c-.8 0-1.4-.3-1.8-.8s-.7-1.3-.7-2.2v-.1zm1.2.2c0 .6.1 1.2.4 1.5s.7.6 1.2.6c.3 0 .6-.1.9-.2s.4-.4.6-.7v-3c-.1-.3-.3-.5-.6-.6s-.5-.2-.9-.2c-.6 0-1 .2-1.2.7s-.4 1.1-.4 1.8v.1zM321 100h-1.2v-1.2h1.2v1.2zm0 8h-1.2v-6.3h1.2v6.3zM323.8 101.7l.1.9c.2-.3.5-.6.8-.8s.7-.3 1.1-.3c.7 0 1.2.2 1.6.6s.6 1 .6 1.9v4h-1.2v-4c0-.6-.1-1-.3-1.2s-.6-.4-1-.4c-.3 0-.6.1-.9.2s-.5.4-.6.7v4.6h-1.2v-6.3h1zM329.4 104.9c0-1 .2-1.8.7-2.5s1.1-.9 1.8-.9c.4 0 .8.1 1.1.2s.6.4.8.7l.1-.8h.9v6.4c0 .8-.2 1.4-.7 1.9s-1.2.7-2 .7c-.3 0-.6 0-1-.1s-.7-.2-.9-.3l.3-.9c.2.1.5.2.8.3s.6.1.9.1c.6 0 1-.1 1.2-.4s.4-.6.4-1.2v-.7c-.2.3-.5.5-.7.6s-.6.2-1 .2c-.8 0-1.4-.3-1.8-.8s-.7-1.3-.7-2.2v-.3zm1.1.2c0 .6.1 1.1.4 1.5s.7.6 1.2.6c.3 0 .6-.1.9-.2s.4-.4.6-.7v-2.9c-.1-.3-.3-.5-.6-.6s-.5-.2-.9-.2c-.6 0-1 .2-1.2.7s-.4 1.1-.4 1.8zM340.5 101.7l.1.8c.2-.3.5-.5.8-.7s.7-.2 1.1-.2.8.1 1.1.3.5.5.7.9c.2-.4.5-.6.8-.9s.7-.3 1.1-.3c.6 0 1.2.2 1.5.7s.6 1.1.6 2v3.8h-1.2v-3.8c0-.6-.1-1.1-.3-1.3s-.5-.4-1-.4c-.4 0-.7.1-1 .4s-.4.6-.4 1v4h-1.2v-3.8c0-.6-.1-1-.3-1.3s-.5-.4-1-.4c-.4 0-.6.1-.9.2s-.4.3-.5.6v4.7h-1.2v-6.3h1.2zM349.6 104.8c0-.9.3-1.7.8-2.3s1.2-.9 2.1-.9c.9 0 1.6.3 2.1.9s.8 1.4.8 2.3v.1c0 .9-.3 1.7-.8 2.3s-1.2.9-2.1.9-1.6-.3-2.1-.9-.8-1.4-.8-2.3v-.1zm1.2.1c0 .7.1 1.2.4 1.7.3.4.7.7 1.3.7.6 0 1-.2 1.3-.7.3-.4.4-1 .4-1.7v-.1c0-.7-.1-1.2-.4-1.7-.3-.4-.7-.7-1.3-.7-.6 0-1 .2-1.3.7-.3.4-.4 1-.4 1.7v.1zM358.3 100.1v1.5h1.2v.9h-1.2v3.8c0 .3.1.5.2.6s.3.2.5.2h.2c.1 0 .2 0 .2-.1l.2.8c-.1.1-.2.1-.4.2s-.3.1-.5.1c-.5 0-.8-.1-1.1-.4s-.4-.7-.4-1.3v-3.8h-1v-.9h1v-1.5h1.1zM362.1 100H361v-1.2h1.2v1.2zm0 8H361v-6.3h1.2v6.3zM363.6 104.8c0-.9.3-1.7.8-2.3s1.2-.9 2.1-.9c.9 0 1.6.3 2.1.9s.8 1.4.8 2.3v.1c0 .9-.3 1.7-.8 2.3s-1.2.9-2.1.9-1.6-.3-2.1-.9-.8-1.4-.8-2.3v-.1zm1.2.1c0 .7.1 1.2.4 1.7.3.4.7.7 1.3.7.6 0 1-.2 1.3-.7.3-.4.4-1 .4-1.7v-.1c0-.7-.1-1.2-.4-1.7-.3-.4-.7-.7-1.3-.7-.6 0-1 .2-1.3.7-.3.4-.4 1-.4 1.7v.1zM371.8 101.7l.1.9c.2-.3.5-.6.8-.8s.7-.3 1.1-.3c.7 0 1.2.2 1.6.6s.6 1 .6 1.9v4h-1.2v-4c0-.6-.1-1-.3-1.2s-.6-.4-1-.4c-.3 0-.6.1-.9.2s-.5.4-.6.7v4.6h-1.2v-6.3h1zM380.3 104.9c0-1 .2-1.8.7-2.5s1.1-.9 1.8-.9c.4 0 .8.1 1.1.2s.6.4.8.7l.1-.8h.9v6.4c0 .8-.2 1.4-.7 1.9s-1.2.7-2 .7c-.3 0-.6 0-1-.1s-.7-.2-.9-.3l.3-.9c.2.1.5.2.8.3s.6.1.9.1c.6 0 1-.1 1.2-.4s.4-.6.4-1.2v-.7c-.2.3-.5.5-.7.6s-.6.2-1 .2c-.8 0-1.4-.3-1.8-.8s-.7-1.3-.7-2.2v-.3zm1.1.2c0 .6.1 1.1.4 1.5s.7.6 1.2.6c.3 0 .6-.1.9-.2s.4-.4.6-.7v-2.9c-.1-.3-.3-.5-.6-.6s-.5-.2-.9-.2c-.6 0-1 .2-1.2.7s-.4 1.1-.4 1.8zM390.4 102.7h-.6c-.3 0-.6.1-.8.2s-.4.3-.5.6v4.5h-1.2v-6.3h1l.1.9c.2-.3.4-.6.7-.8s.6-.3.9-.3h.4v1.2zM395.4 108c0-.2-.1-.4-.1-.5v-.4c-.2.3-.5.6-.8.8s-.7.3-1.1.3c-.7 0-1.2-.2-1.5-.5s-.5-.8-.5-1.4c0-.6.2-1.1.7-1.4s1.2-.5 2-.5h1.3v-.6c0-.4-.1-.7-.3-.9s-.5-.3-1-.3c-.4 0-.7.1-.9.3s-.3.4-.3.7h-1.1c0-.5.2-.9.7-1.3s1.1-.6 1.8-.6 1.3.2 1.7.5.7.9.7 1.6v3.8c0 .3.1.4.1.6h-1.4zm-2-.8c.4 0 .8-.1 1.1-.3s.6-.5.7-.7v-1h-1.3c-.5 0-.8.1-1.1.4s-.4.5-.4.8c0 .3.1.5.3.7.1 0 .4.1.7.1zM403.5 105.1c0 .9-.2 1.7-.7 2.2s-1 .8-1.8.8c-.4 0-.7-.1-1-.2s-.5-.3-.8-.6v3.1H398v-8.8h.9l.2.8c.2-.3.5-.5.8-.7s.7-.2 1.1-.2c.8 0 1.4.3 1.8.9s.7 1.4.7 2.5v.2zm-1.2-.2c0-.7-.1-1.3-.4-1.8-.3-.5-.7-.7-1.3-.7-.3 0-.6.1-.8.2s-.4.4-.6.6v3.1c.1.3.3.5.6.6s.5.2.9.2c.5 0 1-.2 1.2-.6.3-.4.4-.9.4-1.5v-.1zM406 102.5c.2-.3.5-.5.8-.7s.7-.3 1.1-.3c.7 0 1.2.2 1.6.6s.6 1 .6 1.9v4h-1.2v-4c0-.5-.1-.9-.3-1.2s-.6-.4-1-.4c-.3 0-.6.1-.9.2s-.5.4-.6.6v4.7h-1.2v-9.1h1.2v3.7zM413 100h-1.2v-1.2h1.2v1.2zm0 8h-1.2v-6.3h1.2v6.3zM417.3 107.2c.4 0 .7-.1 1-.4s.4-.5.4-.9h1c0 .5-.2 1-.7 1.5s-1.1.6-1.8.6c-.9 0-1.6-.3-2.1-.9s-.7-1.4-.7-2.3v-.2c0-.9.2-1.7.7-2.3s1.2-.9 2.1-.9c.7 0 1.3.2 1.8.7s.7 1 .7 1.6h-1c0-.4-.1-.7-.4-1s-.6-.4-1-.4c-.6 0-1 .2-1.3.7-.3.4-.4 1-.4 1.6v.2c0 .6.1 1.2.4 1.6.3.6.7.8 1.3.8zM424.8 106.3c0-.3-.1-.5-.3-.6s-.6-.3-1.1-.4c-.8-.2-1.3-.4-1.7-.7-.4-.3-.6-.7-.6-1.2s.2-1 .7-1.3c.4-.4 1-.5 1.7-.5s1.3.2 1.8.6.6.8.6 1.4h-1.1c0-.3-.1-.5-.3-.7s-.5-.3-.9-.3-.7.1-.9.3-.3.4-.3.7c0 .2.1.4.3.6s.5.3 1.1.4c.8.2 1.4.4 1.8.7s.6.7.6 1.2c0 .6-.2 1-.7 1.4s-1 .5-1.8.5-1.4-.2-1.9-.6-.7-.9-.7-1.4h1.1c0 .4.2.7.5.9.3.2.6.3 1 .3s.7-.1 1-.2.1-.8.1-1.1zM432 105.7l.1.8.2-.8 1.3-4h.9l1.3 4 .2.9.2-.9 1-4h1.1l-1.8 6.3h-.9l-1.2-3.9-.3-1.1-.3 1.1-1.2 3.9h-.9l-1.8-6.3h1.1l1 4zM439.2 104.8c0-.9.3-1.7.8-2.3s1.2-.9 2.1-.9c.9 0 1.6.3 2.1.9s.8 1.4.8 2.3v.1c0 .9-.3 1.7-.8 2.3s-1.2.9-2.1.9-1.6-.3-2.1-.9-.8-1.4-.8-2.3v-.1zm1.1.1c0 .7.1 1.2.4 1.7.3.4.7.7 1.3.7.6 0 1-.2 1.3-.7.3-.4.4-1 .4-1.7v-.1c0-.7-.1-1.2-.4-1.7-.3-.4-.7-.7-1.3-.7-.6 0-1 .2-1.3.7-.3.4-.4 1-.4 1.7v.1zM449.3 102.7h-.6c-.3 0-.6.1-.8.2s-.4.3-.5.6v4.5h-1.2v-6.3h1l.1.9c.2-.3.4-.6.7-.8s.6-.3.9-.3h.4v1.2zM452.3 105.1h-.8v2.9h-1.2v-9.1h1.2v5.3h.7l1.7-2.5h1.4l-2.2 2.9 2.5 3.5h-1.4l-1.9-3zM457.8 108h-1.2v-1.2h1.2v1.2zM459.2 100l-.9 2h-.6l.4-2v-1.1h1.2v1.1zm2 0l-.9 2h-.6l.4-2v-1.1h1.2v1.1z"/></g><g><path class="st0" d="M7.2 127.6H2.9v-1.3h4.2v1.3zM15.2 126.8v5.5h-1.7v-12.6H18c1.4 0 2.4.3 3.2.9.7.6 1.1 1.5 1.1 2.7 0 .6-.2 1.2-.5 1.7s-.8.9-1.5 1.1c.7.2 1.2.6 1.5 1.1.3.5.5 1.1.5 1.9v1.2c0 .4 0 .7.1 1.1.1.3.2.6.5.8v.2h-1.8c-.2-.2-.4-.5-.4-.9-.1-.4-.1-.8-.1-1.2v-1.2c0-.7-.2-1.2-.6-1.6s-.9-.6-1.6-.6h-3.2zm0-1.4h2.7c1 0 1.7-.2 2.1-.5.4-.4.6-.9.6-1.7 0-.7-.2-1.3-.6-1.6-.4-.4-1.1-.6-1.9-.6h-2.9v4.4zM24.5 127.5c0-1.4.4-2.5 1.1-3.4s1.8-1.3 3.1-1.3 2.3.4 3.1 1.3c.8.9 1.1 2 1.1 3.4v.2c0 1.4-.4 2.5-1.1 3.4s-1.8 1.3-3.1 1.3-2.3-.4-3.1-1.3c-.8-.9-1.1-2-1.1-3.4v-.2zm1.7.2c0 1 .2 1.8.6 2.5.4.6 1 1 1.9 1 .8 0 1.4-.3 1.9-1 .4-.6.6-1.5.6-2.5v-.2c0-1-.2-1.8-.6-2.4-.4-.7-1-1-1.9-1-.8 0-1.4.3-1.9 1-.4.7-.6 1.5-.6 2.4v.2zM40.9 130.9c-.3.5-.7.9-1.1 1.2s-1 .4-1.6.4c-1 0-1.8-.3-2.4-1-.6-.7-.9-1.7-.9-3V123h1.7v5.5c0 1 .1 1.7.4 2.1.3.4.8.6 1.4.6.6 0 1.1-.1 1.5-.4.4-.2.7-.6.9-1V123h1.7v9.4H41l-.1-1.5zM46.6 122.9l.1 1.4c.3-.5.7-.9 1.2-1.2s1-.4 1.6-.4c1 0 1.8.3 2.3.9.6.6.8 1.5.8 2.7v5.9H51v-5.9c0-.8-.2-1.4-.5-1.8s-.8-.5-1.5-.5c-.5 0-.9.1-1.3.4-.4.2-.7.6-.9 1v6.8h-1.7v-9.4h1.5zM54.8 127.7c0-1.5.3-2.7 1-3.6.6-.9 1.5-1.4 2.7-1.4.5 0 1 .1 1.5.3s.8.5 1.1.9v-5.2h1.7v13.5h-1.4l-.2-1.2c-.3.4-.7.8-1.1 1-.4.2-1 .3-1.6.3-1.1 0-2-.4-2.7-1.2-.6-.8-1-1.9-1-3.3v-.1zm1.7.2c0 .9.2 1.7.6 2.3.4.6 1 .9 1.8.9.5 0 .9-.1 1.3-.3s.6-.6.8-1v-4.4c-.2-.4-.5-.7-.9-.9-.3-.2-.8-.3-1.3-.3-.8 0-1.4.3-1.8 1s-.6 1.6-.6 2.6v.1zM78.5 121h-4.1v11.3h-1.7V121h-4v-1.3h9.8v1.3zM85.1 132.2c-.1-.3-.1-.5-.1-.7 0-.2-.1-.4-.1-.7-.3.5-.7.8-1.2 1.1-.5.3-1.1.5-1.7.5-1 0-1.7-.2-2.2-.7-.5-.5-.8-1.2-.8-2.1 0-.9.4-1.6 1.1-2.1.7-.5 1.7-.8 3-.8H85v-.9c0-.5-.2-1-.5-1.3s-.9-.5-1.5-.5c-.5 0-1 .1-1.3.4s-.5.6-.5 1h-1.6v-.1c0-.7.3-1.3 1-1.9.7-.6 1.6-.8 2.6-.8 1.1 0 1.9.3 2.6.8.6.5 1 1.3 1 2.3v4.5c0 .3 0 .7.1 1 0 .3.1.6.2.9h-2zm-2.9-1.2c.6 0 1.2-.2 1.7-.5s.8-.7 1-1.1v-1.5H83c-.7 0-1.2.2-1.7.5-.4.3-.6.8-.6 1.2 0 .4.1.7.4 1 .3.3.6.4 1.1.4zM97.1 127.9c0 1.4-.3 2.4-1 3.3-.6.8-1.5 1.2-2.7 1.2-.6 0-1.2-.1-1.6-.4s-.8-.6-1.1-1.1l-.2 1.2h-1.4v-13.5h1.7v5.2c.3-.4.7-.7 1.1-1 .4-.2.9-.3 1.5-.3 1.2 0 2.1.5 2.7 1.4.6.9 1 2.1 1 3.6v.4zm-1.7-.2c0-1.1-.2-2-.6-2.6-.4-.7-1-1-1.8-1-.5 0-1 .1-1.3.4s-.6.6-.9 1v4.1c.2.5.5.8.9 1.1.4.3.8.4 1.3.4.8 0 1.4-.3 1.8-.9.4-.6.6-1.3.6-2.3v-.2zM101 132.2h-1.7v-13.5h1.7v13.5zM107.5 132.4c-1.3 0-2.3-.4-3.1-1.3-.8-.9-1.2-2-1.2-3.4v-.4c0-1.3.4-2.4 1.2-3.3s1.7-1.3 2.8-1.3c1.3 0 2.2.4 2.9 1.1.6.8 1 1.8 1 3v1.1H105c0 .9.2 1.6.7 2.2.4.6 1.1.9 1.8.9.6 0 1.1-.1 1.5-.2.4-.2.8-.4 1.1-.7l.7 1.1c-.3.3-.8.6-1.3.8-.5.3-1.2.4-2 .4zm-.2-8.4c-.6 0-1.1.2-1.5.7s-.7 1.1-.7 1.8h4.3v-.2c0-.7-.2-1.2-.5-1.7-.4-.3-.9-.6-1.6-.6zM126.7 128.2c0 1.2-.4 2.2-1.2 3-.9.8-2 1.2-3.4 1.2s-2.6-.5-3.5-1.5c-.9-1-1.3-2.3-1.3-3.8v-2.2c0-1.6.4-2.8 1.3-3.9.9-1 2.1-1.5 3.5-1.5s2.6.4 3.4 1.1c.8.8 1.3 1.8 1.2 3v.1H125c0-.9-.3-1.6-.8-2.1s-1.3-.8-2.2-.8c-1 0-1.7.4-2.3 1.2s-.8 1.7-.8 2.9v2.3c0 1.1.3 2.1.8 2.9s1.3 1.2 2.3 1.2c.9 0 1.7-.3 2.2-.8.5-.5.8-1.2.8-2.1h1.7zM128.3 127.5c0-1.4.4-2.5 1.1-3.4s1.8-1.3 3.1-1.3 2.3.4 3.1 1.3c.8.9 1.1 2 1.1 3.4v.2c0 1.4-.4 2.5-1.1 3.4s-1.8 1.3-3.1 1.3-2.3-.4-3.1-1.3c-.8-.9-1.1-2-1.1-3.4v-.2zm1.7.2c0 1 .2 1.8.6 2.5.4.6 1 1 1.9 1 .8 0 1.4-.3 1.9-1 .4-.6.6-1.5.6-2.5v-.2c0-1-.2-1.8-.6-2.4-.4-.7-1-1-1.9-1-.8 0-1.4.3-1.9 1-.4.7-.6 1.5-.6 2.4v.2zM140.3 122.9l.1 1.2c.3-.4.7-.8 1.2-1 .5-.2 1-.4 1.6-.4.6 0 1.2.1 1.6.4.4.3.8.7 1 1.3.3-.5.7-1 1.2-1.3.5-.3 1.1-.5 1.7-.5 1 0 1.7.3 2.3 1 .6.7.8 1.6.8 3v5.6h-1.7v-5.6c0-.9-.2-1.6-.5-2s-.8-.6-1.4-.6c-.6 0-1.1.2-1.4.6-.4.4-.6.9-.6 1.5v6.1h-1.7v-5.6c0-.9-.2-1.5-.5-1.9-.3-.4-.8-.6-1.4-.6-.5 0-.9.1-1.3.3s-.6.5-.8.9v6.9h-1.7v-9.4h1.5zM162.2 127.9c0 1.4-.3 2.4-1 3.3-.6.8-1.5 1.2-2.7 1.2-.6 0-1.1-.1-1.5-.3-.4-.2-.8-.5-1.1-.9v4.6h-1.7v-13h1.3l.3 1.2c.3-.5.7-.8 1.1-1 .5-.2 1-.4 1.6-.4 1.2 0 2.1.5 2.7 1.4.6.9 1 2.1 1 3.7v.2zm-1.7-.2c0-1.1-.2-1.9-.6-2.6-.4-.7-1-1-1.8-1-.5 0-.9.1-1.3.3s-.6.5-.8.9v4.5c.2.4.5.7.8.9.3.2.8.3 1.3.3.8 0 1.4-.3 1.8-.9.4-.6.6-1.4.6-2.3v-.1zM170.1 132.2c-.1-.3-.1-.5-.1-.7 0-.2-.1-.4-.1-.7-.3.5-.7.8-1.2 1.1-.5.3-1.1.5-1.7.5-1 0-1.7-.2-2.2-.7-.5-.5-.8-1.2-.8-2.1 0-.9.4-1.6 1.1-2.1.7-.5 1.7-.8 3-.8h1.9v-.9c0-.5-.2-1-.5-1.3s-.8-.5-1.4-.5c-.5 0-1 .1-1.3.4s-.5.6-.5 1h-1.6v-.1c0-.7.3-1.3 1-1.9.7-.6 1.6-.8 2.6-.8 1.1 0 1.9.3 2.6.8.6.5 1 1.3 1 2.3v4.5c0 .3 0 .7.1 1 0 .3.1.6.2.9h-2.1zm-2.8-1.2c.6 0 1.2-.2 1.7-.5s.8-.7 1-1.1v-1.5h-2c-.7 0-1.2.2-1.7.5-.4.3-.6.8-.6 1.2 0 .4.1.7.4 1 .3.3.7.4 1.2.4zM175.6 122.9l.1 1.4c.3-.5.7-.9 1.2-1.2s1-.4 1.6-.4c1 0 1.8.3 2.3.9.6.6.8 1.5.8 2.7v5.9H180v-5.9c0-.8-.2-1.4-.5-1.8s-.8-.5-1.5-.5c-.5 0-.9.1-1.3.4-.4.2-.7.6-.9 1v6.8h-1.7v-9.4h1.5zM186 120.5h-1.7v-1.7h1.7v1.7zm0 11.7h-1.7v-9.4h1.7v9.4zM192.5 132.4c-1.3 0-2.3-.4-3.1-1.3-.8-.9-1.2-2-1.2-3.4v-.4c0-1.3.4-2.4 1.2-3.3s1.7-1.3 2.8-1.3c1.3 0 2.2.4 2.9 1.1.6.8 1 1.8 1 3v1.1H190c0 .9.2 1.6.7 2.2.4.6 1.1.9 1.8.9.6 0 1.1-.1 1.5-.2.4-.2.8-.4 1.1-.7l.7 1.1c-.3.3-.8.6-1.3.8-.5.3-1.2.4-2 .4zm-.2-8.4c-.6 0-1.1.2-1.5.7s-.7 1.1-.7 1.8h4.3v-.2c0-.7-.2-1.2-.5-1.7-.4-.3-.9-.6-1.6-.6zM203.5 129.8c0-.4-.1-.7-.4-.9-.3-.2-.8-.5-1.6-.6-1.1-.2-2-.6-2.6-1-.6-.4-.9-1-.9-1.7 0-.8.3-1.4 1-1.9.6-.5 1.5-.8 2.5-.8 1.1 0 2 .3 2.6.8.6.6 1 1.2.9 2v.1h-1.6c0-.4-.2-.8-.5-1.1-.3-.3-.8-.5-1.4-.5-.6 0-1.1.1-1.4.4-.3.3-.4.6-.4 1s.1.7.4.9c.3.2.8.4 1.6.6 1.2.3 2.1.6 2.6 1 .6.4.9 1 .9 1.8s-.3 1.5-1 2-1.6.8-2.6.8c-1.2 0-2.1-.3-2.8-.9-.7-.6-1-1.3-1-2.1v-.1h1.6c0 .6.3 1 .7 1.3.4.3.9.4 1.5.4s1.1-.1 1.4-.4c.3-.4.5-.7.5-1.1z"/></g><g><path d="M29.5 162.9l.9-2.1h.6l-.4 2.1v1h-1.2v-1zm1.9 0l.9-2.1h.6l-.4 2.1v1h-1.2v-1zM37.8 161.5H39v6.2c0 .8-.2 1.4-.7 1.8s-1.1.7-1.9.7c-.8 0-1.5-.2-2-.6s-.7-1-.7-1.8h1.1c0 .5.1.9.4 1.2s.6.4 1.1.4c.4 0 .8-.1 1-.4.3-.3.4-.7.4-1.2v-6.3zM44.7 170c0-.2-.1-.4-.1-.5v-.4c-.2.3-.5.6-.8.8s-.7.3-1.1.3c-.7 0-1.2-.2-1.5-.5s-.5-.8-.5-1.4c0-.6.2-1.1.7-1.4s1.2-.5 2-.5h1.3v-.6c0-.4-.1-.7-.3-.9s-.5-.3-1-.3c-.4 0-.7.1-.9.3s-.3.4-.3.7h-1.1c0-.5.2-.9.7-1.3s1.1-.6 1.8-.6 1.3.2 1.7.5.7.9.7 1.6v3.8c0 .3.1.4.1.6h-1.4zm-1.9-.8c.4 0 .8-.1 1.1-.3s.6-.5.7-.7v-1h-1.3c-.5 0-.8.1-1.1.4s-.4.5-.4.8c0 .3.1.5.3.7.1 0 .4.1.7.1zM50.4 164.7h-.6c-.3 0-.6.1-.8.2s-.4.3-.5.6v4.5h-1.2v-6.3h1l.1.9c.2-.3.4-.6.7-.8s.6-.3.9-.3h.4v1.2zM51.1 166.8c0-.9.3-1.7.8-2.3s1.2-.9 2.1-.9c.9 0 1.6.3 2.1.9s.8 1.4.8 2.3v.1c0 .9-.3 1.7-.8 2.3s-1.2.9-2.1.9-1.6-.3-2.1-.9-.8-1.4-.8-2.3v-.1zm1.2.1c0 .7.1 1.2.4 1.7.3.4.7.7 1.3.7.6 0 1-.2 1.3-.7.3-.4.4-1 .4-1.7v-.1c0-.7-.1-1.2-.4-1.7-.3-.4-.7-.7-1.3-.7-.6 0-1 .2-1.3.7-.3.4-.4 1-.4 1.7v.1zM59.3 163.7l.1.9c.2-.3.5-.6.8-.8s.7-.3 1.1-.3c.7 0 1.2.2 1.6.6s.6 1 .6 1.9v4h-1.2v-4c0-.6-.1-1-.3-1.2s-.6-.4-1-.4c-.3 0-.6.1-.9.2s-.5.4-.6.7v4.6h-1.2v-6.3h1zM69.3 162h-1.2v-1.2h1.2v1.2zm0 8h-1.2v-6.3h1.2v6.3zM74.7 168.3c0-.3-.1-.5-.3-.6s-.6-.3-1.1-.4c-.8-.2-1.3-.4-1.7-.7-.4-.3-.6-.7-.6-1.2s.2-1 .7-1.3c.4-.4 1-.5 1.7-.5s1.3.2 1.8.6.6.8.6 1.4h-1.1c0-.3-.1-.5-.3-.7s-.5-.3-.9-.3-.7.1-.9.3-.3.4-.3.7c0 .2.1.4.3.6s.5.3 1.1.4c.8.2 1.4.4 1.8.7s.6.7.6 1.2c0 .6-.2 1-.7 1.4s-1 .5-1.8.5-1.4-.2-1.9-.6-.7-.9-.7-1.4h1c0 .4.2.7.5.9.3.2.6.3 1 .3s.7-.1 1-.2.2-.8.2-1.1zM80.1 166.9c0-1 .2-1.8.7-2.5s1.1-.9 1.8-.9c.4 0 .8.1 1.1.2s.6.4.8.7l.1-.8h.9v6.4c0 .8-.2 1.4-.7 1.9s-1.2.7-2 .7c-.3 0-.6 0-1-.1s-.7-.2-.9-.3l.3-.9c.2.1.5.2.8.3s.6.1.9.1c.6 0 1-.1 1.2-.4s.4-.6.4-1.2v-.7c-.2.3-.5.5-.7.6s-.6.2-1 .2c-.8 0-1.4-.3-1.8-.8s-.7-1.3-.7-2.2v-.3zm1.1.2c0 .6.1 1.1.4 1.5s.7.6 1.2.6c.3 0 .6-.1.9-.2s.4-.4.6-.7v-2.9c-.1-.3-.3-.5-.6-.6s-.5-.2-.9-.2c-.6 0-1 .2-1.2.7s-.4 1.1-.4 1.8zM90.1 164.7h-.6c-.3 0-.6.1-.8.2s-.4.3-.5.6v4.5H87v-6.3h1l.1.9c.2-.3.4-.6.7-.8s.6-.3.9-.3h.4v1.2zM93.8 170.1c-.9 0-1.6-.3-2.1-.9s-.8-1.4-.8-2.3v-.3c0-.9.3-1.7.8-2.3s1.2-.9 1.9-.9c.9 0 1.5.3 1.9.8s.7 1.2.7 2.1v.7h-4.1c0 .6.2 1.1.5 1.5s.7.6 1.2.6c.4 0 .7-.1 1-.2s.5-.3.8-.5l.5.8c-.2.2-.5.4-.9.6-.5.2-.9.3-1.4.3zm-.2-5.6c-.4 0-.7.2-1 .5s-.4.7-.5 1.2H95v-.2c0-.5-.1-.8-.4-1.1-.2-.3-.5-.4-1-.4zM101.4 170c0-.2-.1-.4-.1-.5v-.4c-.2.3-.5.6-.8.8s-.7.3-1.1.3c-.7 0-1.2-.2-1.5-.5s-.5-.8-.5-1.4c0-.6.2-1.1.7-1.4s1.2-.5 2-.5h1.3v-.6c0-.4-.1-.7-.3-.9s-.5-.3-1-.3c-.4 0-.7.1-.9.3s-.3.4-.3.7h-1.1c0-.5.2-.9.7-1.3s1.1-.6 1.8-.6 1.3.2 1.7.5.7.9.7 1.6v3.8c0 .3.1.4.1.6h-1.4zm-1.9-.8c.4 0 .8-.1 1.1-.3s.6-.5.7-.7v-1H100c-.5 0-.8.1-1.1.4s-.4.5-.4.8c0 .3.1.5.3.7.1 0 .3.1.7.1zM105.6 162.1v1.5h1.2v.9h-1.2v3.8c0 .3.1.5.2.6s.3.2.5.2h.2c.1 0 .2 0 .2-.1l.2.8c-.1.1-.2.1-.4.2s-.3.1-.5.1c-.5 0-.8-.1-1.1-.4s-.4-.7-.4-1.3v-3.8h-1v-.9h1v-1.5h1.1zM109.5 167.2h-1.2v-5.7h1.2v5.7zm.1 2.8h-1.2v-1.2h1.2v1.2zM121 170h-1.2v-3.8h-4.1v3.8h-1.2v-8.5h1.2v3.9h4.1v-3.9h1.2v8.5zM124.2 162H123v-1.2h1.2v1.2zm0 8H123v-6.3h1.2v6.3zM129.6 168.3c0-.3-.1-.5-.3-.6s-.6-.3-1.1-.4c-.8-.2-1.3-.4-1.7-.7-.4-.3-.6-.7-.6-1.2s.2-1 .7-1.3c.4-.4 1-.5 1.7-.5s1.3.2 1.8.6.6.8.6 1.4h-1.1c0-.3-.1-.5-.3-.7s-.5-.3-.9-.3-.7.1-.9.3-.3.4-.3.7c0 .2.1.4.3.6s.5.3 1.1.4c.8.2 1.4.4 1.8.7s.6.7.6 1.2c0 .6-.2 1-.7 1.4s-1 .5-1.8.5-1.4-.2-1.9-.6-.7-.9-.7-1.4h1.1c0 .4.2.7.5.9.3.2.6.3 1 .3s.7-.1 1-.2.1-.8.1-1.1zM136.8 167.7l.1.8.2-.8 1.3-4h.9l1.3 4 .2.9.2-.9 1-4h1.1l-1.8 6.3h-.9l-1.2-3.9-.3-1.1-.3 1.1-1.2 3.9h-.9l-1.8-6.3h1.1l1 4zM144 166.8c0-.9.3-1.7.8-2.3s1.2-.9 2.1-.9c.9 0 1.6.3 2.1.9s.8 1.4.8 2.3v.1c0 .9-.3 1.7-.8 2.3s-1.2.9-2.1.9-1.6-.3-2.1-.9-.8-1.4-.8-2.3v-.1zm1.2.1c0 .7.1 1.2.4 1.7.3.4.7.7 1.3.7.6 0 1-.2 1.3-.7.3-.4.4-1 .4-1.7v-.1c0-.7-.1-1.2-.4-1.7-.3-.4-.7-.7-1.3-.7-.6 0-1 .2-1.3.7-.3.4-.4 1-.4 1.7v.1zM154.1 164.7h-.6c-.3 0-.6.1-.8.2s-.4.3-.5.6v4.5H151v-6.3h1l.1.9c.2-.3.4-.6.7-.8s.6-.3.9-.3h.4v1.2zM157.1 167.1h-.8v2.9h-1.2v-9.1h1.2v5.3h.7l1.7-2.5h1.4l-2.2 2.9 2.5 3.5H159l-1.9-3zM165.6 162h-1.2v-1.2h1.2v1.2zm0 8h-1.2v-6.3h1.2v6.3zM171.1 168.3c0-.3-.1-.5-.3-.6s-.6-.3-1.1-.4c-.8-.2-1.3-.4-1.7-.7-.4-.3-.6-.7-.6-1.2s.2-1 .7-1.3c.4-.4 1-.5 1.7-.5s1.3.2 1.8.6.6.8.6 1.4H171c0-.3-.1-.5-.3-.7s-.5-.3-.9-.3-.7.1-.9.3-.3.4-.3.7c0 .2.1.4.3.6s.5.3 1.1.4c.8.2 1.4.4 1.8.7s.6.7.6 1.2c0 .6-.2 1-.7 1.4s-1 .5-1.8.5-1.4-.2-1.9-.6-.7-.9-.7-1.4h1.1c0 .4.2.7.5.9.3.2.6.3 1 .3s.7-.1 1-.2.2-.8.2-1.1zM176.4 166.9c0-1 .2-1.8.7-2.5s1.1-.9 1.8-.9c.4 0 .8.1 1.1.2s.6.4.8.7l.1-.8h.9v6.4c0 .8-.2 1.4-.7 1.9s-1.2.7-2 .7c-.3 0-.6 0-1-.1s-.7-.2-.9-.3l.3-.9c.2.1.5.2.8.3s.6.1.9.1c.6 0 1-.1 1.2-.4s.4-.6.4-1.2v-.7c-.2.3-.5.5-.7.6s-.6.2-1 .2c-.8 0-1.4-.3-1.8-.8s-.7-1.3-.7-2.2v-.3zm1.1.2c0 .6.1 1.1.4 1.5s.7.6 1.2.6c.3 0 .6-.1.9-.2s.4-.4.6-.7v-2.9c-.1-.3-.3-.5-.6-.6s-.5-.2-.9-.2c-.6 0-1 .2-1.2.7s-.4 1.1-.4 1.8zM186.5 164.7h-.6c-.3 0-.6.1-.8.2s-.4.3-.5.6v4.5h-1.2v-6.3h1l.1.9c.2-.3.4-.6.7-.8s.6-.3.9-.3h.4v1.2zM190.1 170.1c-.9 0-1.6-.3-2.1-.9s-.8-1.4-.8-2.3v-.3c0-.9.3-1.7.8-2.3s1.2-.9 1.9-.9c.9 0 1.5.3 1.9.8s.7 1.2.7 2.1v.7h-4.1c0 .6.2 1.1.5 1.5s.7.6 1.2.6c.4 0 .7-.1 1-.2s.5-.3.8-.5l.5.8c-.2.2-.5.4-.9.6-.4.2-.9.3-1.4.3zm-.2-5.6c-.4 0-.7.2-1 .5s-.4.7-.5 1.2h2.9v-.2c0-.5-.1-.8-.4-1.1-.1-.3-.5-.4-1-.4zM197.7 170c0-.2-.1-.4-.1-.5v-.4c-.2.3-.5.6-.8.8s-.7.3-1.1.3c-.7 0-1.2-.2-1.5-.5s-.5-.8-.5-1.4c0-.6.2-1.1.7-1.4s1.2-.5 2-.5h1.3v-.6c0-.4-.1-.7-.3-.9s-.5-.3-1-.3c-.4 0-.7.1-.9.3s-.3.4-.3.7h-1.1c0-.5.2-.9.7-1.3s1.1-.6 1.8-.6 1.3.2 1.7.5.7.9.7 1.6v3.8c0 .3.1.4.1.6h-1.4zm-1.9-.8c.4 0 .8-.1 1.1-.3s.6-.5.7-.7v-1h-1.3c-.5 0-.8.1-1.1.4s-.4.5-.4.8c0 .3.1.5.3.7.1 0 .3.1.7.1zM201.9 162.1v1.5h1.2v.9h-1.2v3.8c0 .3.1.5.2.6s.3.2.5.2h.2c.1 0 .2 0 .2-.1l.2.8c-.1.1-.2.1-.4.2s-.3.1-.5.1c-.5 0-.8-.1-1.1-.4s-.4-.7-.4-1.3v-3.8h-1v-.9h1v-1.5h1.1zM211.4 170c0-.2-.1-.4-.1-.5v-.4c-.2.3-.5.6-.8.8s-.7.3-1.1.3c-.7 0-1.2-.2-1.5-.5s-.5-.8-.5-1.4c0-.6.2-1.1.7-1.4s1.2-.5 2-.5h1.3v-.6c0-.4-.1-.7-.3-.9s-.5-.3-1-.3c-.4 0-.7.1-.9.3s-.3.4-.3.7h-1.1c0-.5.2-.9.7-1.3s1.1-.6 1.8-.6 1.3.2 1.7.5.7.9.7 1.6v3.8c0 .3.1.4.1.6h-1.4zm-1.9-.8c.4 0 .8-.1 1.1-.3s.6-.5.7-.7v-1H210c-.5 0-.8.1-1.1.4s-.4.5-.4.8c0 .3.1.5.3.7.1 0 .4.1.7.1zM215.2 163.7l.1.9c.2-.3.5-.6.8-.8s.7-.3 1.1-.3c.7 0 1.2.2 1.6.6s.6 1 .6 1.9v4h-1.2v-4c0-.6-.1-1-.3-1.2s-.6-.4-1-.4c-.3 0-.6.1-.9.2s-.5.4-.6.7v4.6h-1.2v-6.3h1zM220.7 166.9c0-1 .2-1.8.7-2.5s1-.9 1.8-.9c.4 0 .7.1 1 .2s.5.3.7.6v-3.5h1.2v9.1h-.9l-.1-.8c-.2.3-.5.5-.8.7s-.7.2-1 .2c-.8 0-1.4-.3-1.8-.8s-.7-1.3-.7-2.2v-.1zm1.1.2c0 .6.1 1.2.4 1.5s.7.6 1.2.6c.3 0 .6-.1.9-.2s.4-.4.6-.7v-3c-.1-.3-.3-.5-.6-.6s-.5-.2-.9-.2c-.6 0-1 .2-1.2.7s-.4 1.1-.4 1.8v.1zM232.2 170H231v-8.5h1.2v8.5zM238.3 164.5c.2-.3.5-.5.8-.7s.7-.3 1.1-.3c.7 0 1.2.2 1.6.6s.6 1 .6 1.9v4h-1.2v-4c0-.5-.1-.9-.3-1.2s-.6-.4-1-.4c-.3 0-.6.1-.9.2s-.5.4-.6.6v4.7h-1.2v-9.1h1.2v3.7zM245.2 162H244v-1.2h1.2v1.2zm0 8H244v-6.3h1.2v6.3zM246.7 166.9c0-1 .2-1.8.7-2.5s1.1-.9 1.8-.9c.4 0 .8.1 1.1.2s.6.4.8.7l.1-.8h.9v6.4c0 .8-.2 1.4-.7 1.9s-1.2.7-2 .7c-.3 0-.6 0-1-.1s-.7-.2-.9-.3l.3-.9c.2.1.5.2.8.3s.6.1.9.1c.6 0 1-.1 1.2-.4s.4-.6.4-1.2v-.7c-.2.3-.5.5-.7.6s-.6.2-1 .2c-.8 0-1.4-.3-1.8-.8s-.7-1.3-.7-2.2v-.3zm1.2.2c0 .6.1 1.1.4 1.5s.7.6 1.2.6c.3 0 .6-.1.9-.2s.4-.4.6-.7v-2.9c-.1-.3-.3-.5-.6-.6s-.5-.2-.9-.2c-.6 0-1 .2-1.2.7s-.4 1.1-.4 1.8zM255 164.5c.2-.3.5-.5.8-.7s.7-.3 1.1-.3c.7 0 1.2.2 1.6.6s.6 1 .6 1.9v4h-1.2v-4c0-.5-.1-.9-.3-1.2s-.6-.4-1-.4c-.3 0-.6.1-.9.2s-.5.4-.6.6v4.7h-1.2v-9.1h1.2v3.7zM261.9 170h-1.2v-9.1h1.2v9.1zM265.6 167.7l.2.8 1.6-4.8h1.3L266 171c-.2.4-.4.8-.7 1.1s-.7.5-1.2.5h-.4c-.2 0-.3 0-.3-.1l.1-.9h.5c.2 0 .4-.1.6-.3s.3-.5.4-.7l.3-.7-2.4-6.2h1.3l1.4 4zM275.7 164.7h-.6c-.3 0-.6.1-.8.2s-.4.3-.5.6v4.5h-1.2v-6.3h1l.1.9c.2-.3.4-.6.7-.8s.6-.3.9-.3h.4v1.2zM279.3 170.1c-.9 0-1.6-.3-2.1-.9s-.8-1.4-.8-2.3v-.3c0-.9.3-1.7.8-2.3s1.2-.9 1.9-.9c.9 0 1.5.3 1.9.8s.7 1.2.7 2.1v.7h-4.1c0 .6.2 1.1.5 1.5s.7.6 1.2.6c.4 0 .7-.1 1-.2s.5-.3.8-.5l.5.8c-.2.2-.5.4-.9.6-.4.2-.9.3-1.4.3zm-.2-5.6c-.4 0-.7.2-1 .5s-.4.7-.5 1.2h2.9v-.2c0-.5-.1-.8-.4-1.1-.1-.3-.5-.4-1-.4zM285.6 169.2c.4 0 .7-.1 1-.4s.4-.5.4-.9h1c0 .5-.2 1-.7 1.5s-1.1.6-1.8.6c-.9 0-1.6-.3-2.1-.9s-.7-1.4-.7-2.3v-.2c0-.9.2-1.7.7-2.3s1.2-.9 2.1-.9c.7 0 1.3.2 1.8.7s.7 1 .7 1.6h-1c0-.4-.1-.7-.4-1s-.6-.4-1-.4c-.6 0-1 .2-1.3.7-.3.4-.4 1-.4 1.6v.2c0 .6.1 1.2.4 1.6.2.6.7.8 1.3.8zM289.1 166.8c0-.9.3-1.7.8-2.3s1.2-.9 2.1-.9c.9 0 1.6.3 2.1.9s.8 1.4.8 2.3v.1c0 .9-.3 1.7-.8 2.3s-1.2.9-2.1.9-1.6-.3-2.1-.9-.8-1.4-.8-2.3v-.1zm1.2.1c0 .7.1 1.2.4 1.7.3.4.7.7 1.3.7.6 0 1-.2 1.3-.7.3-.4.4-1 .4-1.7v-.1c0-.7-.1-1.2-.4-1.7-.3-.4-.7-.7-1.3-.7-.6 0-1 .2-1.3.7-.3.4-.4 1-.4 1.7v.1zM297.2 163.7l.1.8c.2-.3.5-.5.8-.7s.7-.2 1.1-.2.8.1 1.1.3.5.5.7.9c.2-.4.5-.6.8-.9s.7-.3 1.1-.3c.6 0 1.2.2 1.5.7s.6 1.1.6 2v3.8h-1.2v-3.8c0-.6-.1-1.1-.3-1.3s-.5-.4-1-.4c-.4 0-.7.1-1 .4s-.4.6-.4 1v4H300v-3.8c0-.6-.1-1-.3-1.3s-.5-.4-1-.4c-.4 0-.6.1-.9.2s-.4.3-.5.6v4.7h-1.2v-6.3h1.1zM307.7 163.7l.1.8c.2-.3.5-.5.8-.7s.7-.2 1.1-.2.8.1 1.1.3.5.5.7.9c.2-.4.5-.6.8-.9s.7-.3 1.1-.3c.6 0 1.2.2 1.5.7s.6 1.1.6 2v3.8h-1.2v-3.8c0-.6-.1-1.1-.3-1.3s-.5-.4-1-.4c-.4 0-.7.1-1 .4s-.4.6-.4 1v4h-1.2v-3.8c0-.6-.1-1-.3-1.3s-.5-.4-1-.4c-.4 0-.6.1-.9.2s-.4.3-.5.6v4.7h-1.2v-6.3h1.2zM319.8 170.1c-.9 0-1.6-.3-2.1-.9s-.8-1.4-.8-2.3v-.3c0-.9.3-1.7.8-2.3s1.2-.9 1.9-.9c.9 0 1.5.3 1.9.8s.7 1.2.7 2.1v.7h-4.1c0 .6.2 1.1.5 1.5s.7.6 1.2.6c.4 0 .7-.1 1-.2s.5-.3.8-.5l.5.8c-.2.2-.5.4-.9.6-.4.2-.9.3-1.4.3zm-.2-5.6c-.4 0-.7.2-1 .5s-.4.7-.5 1.2h2.9v-.2c0-.5-.1-.8-.4-1.1-.1-.3-.5-.4-1-.4zM324.6 163.7l.1.9c.2-.3.5-.6.8-.8s.7-.3 1.1-.3c.7 0 1.2.2 1.6.6s.6 1 .6 1.9v4h-1.2v-4c0-.6-.1-1-.3-1.2s-.6-.4-1-.4c-.3 0-.6.1-.9.2s-.5.4-.6.7v4.6h-1.2v-6.3h1zM330.1 166.9c0-1 .2-1.8.7-2.5s1-.9 1.8-.9c.4 0 .7.1 1 .2s.5.3.7.6v-3.5h1.2v9.1h-.9l-.1-.8c-.2.3-.5.5-.8.7s-.7.2-1 .2c-.8 0-1.4-.3-1.8-.8s-.7-1.3-.7-2.2v-.1zm1.1.2c0 .6.1 1.2.4 1.5s.7.6 1.2.6c.3 0 .6-.1.9-.2s.4-.4.6-.7v-3c-.1-.3-.3-.5-.6-.6s-.5-.2-.9-.2c-.6 0-1 .2-1.2.7s-.4 1.1-.4 1.8v.1zM341.3 164.5c.2-.3.5-.5.8-.7s.7-.3 1.1-.3c.7 0 1.2.2 1.6.6s.6 1 .6 1.9v4h-1.2v-4c0-.5-.1-.9-.3-1.2s-.6-.4-1-.4c-.3 0-.6.1-.9.2s-.5.4-.6.6v4.7h-1.2v-9.1h1.2v3.7zM348.2 162H347v-1.2h1.2v1.2zm0 8H347v-6.3h1.2v6.3zM351 163.7l.1.8c.2-.3.5-.5.8-.7s.7-.2 1.1-.2.8.1 1.1.3.5.5.7.9c.2-.4.5-.6.8-.9s.7-.3 1.1-.3c.6 0 1.2.2 1.5.7s.6 1.1.6 2v3.8h-1.2v-3.8c0-.6-.1-1.1-.3-1.3s-.5-.4-1-.4c-.4 0-.7.1-1 .4s-.4.6-.4 1v4h-1.2v-3.8c0-.6-.1-1-.3-1.3s-.5-.4-1-.4c-.4 0-.6.1-.9.2s-.4.3-.5.6v4.7h-1v-6.3h1zM363.9 170v-5.5h-1v-.9h1v-.8c0-.7.2-1.2.5-1.6s.8-.6 1.5-.6h.4c.1 0 .3.1.4.1l-.1.9h-.6c-.3 0-.6.1-.8.3s-.2.5-.2.9v.8h1.3v.9H365v5.5h-1.1zM367.3 166.8c0-.9.3-1.7.8-2.3s1.2-.9 2.1-.9c.9 0 1.6.3 2.1.9s.8 1.4.8 2.3v.1c0 .9-.3 1.7-.8 2.3s-1.2.9-2.1.9-1.6-.3-2.1-.9-.8-1.4-.8-2.3v-.1zm1.2.1c0 .7.1 1.2.4 1.7.3.4.7.7 1.3.7.6 0 1-.2 1.3-.7.3-.4.4-1 .4-1.7v-.1c0-.7-.1-1.2-.4-1.7-.3-.4-.7-.7-1.3-.7-.6 0-1 .2-1.3.7-.3.4-.4 1-.4 1.7v.1zM377.4 164.7h-.6c-.3 0-.6.1-.8.2s-.4.3-.5.6v4.5h-1.2v-6.3h1l.1.9c.2-.3.4-.6.7-.8s.6-.3.9-.3h.4v1.2zM385.4 170c0-.2-.1-.4-.1-.5v-.4c-.2.3-.5.6-.8.8s-.7.3-1.1.3c-.7 0-1.2-.2-1.5-.5s-.5-.8-.5-1.4c0-.6.2-1.1.7-1.4s1.2-.5 2-.5h1.3v-.6c0-.4-.1-.7-.3-.9s-.5-.3-1-.3c-.4 0-.7.1-.9.3s-.3.4-.3.7h-1.1c0-.5.2-.9.7-1.3s1.1-.6 1.8-.6 1.3.2 1.7.5.7.9.7 1.6v3.8c0 .3.1.4.1.6h-1.4zm-1.9-.8c.4 0 .8-.1 1.1-.3s.6-.5.7-.7v-1H384c-.5 0-.8.1-1.1.4s-.4.5-.4.8c0 .3.1.5.3.7.1 0 .4.1.7.1zM389.1 163.7l.1.9c.2-.3.5-.6.8-.8s.7-.3 1.1-.3c.7 0 1.2.2 1.6.6s.6 1 .6 1.9v4h-1.2v-4c0-.6-.1-1-.3-1.2s-.6-.4-1-.4c-.3 0-.6.1-.9.2s-.5.4-.6.7v4.6h-1.2v-6.3h1zM396.9 167.7l.2.8 1.6-4.8h1.3l-2.7 7.3c-.2.4-.4.8-.7 1.1s-.7.5-1.2.5h-.4c-.2 0-.3 0-.3-.1l.1-.9h.5c.2 0 .4-.1.6-.3s.3-.5.4-.7l.3-.7-2.4-6.2h1.3l1.4 4zM406.1 168.1l.1.4.1-.4 1.5-4.5h1.2l-2.3 6.3h-.9l-2.4-6.3h1.2l1.5 4.5zM411.2 162H410v-1.2h1.2v1.2zm0 8H410v-6.3h1.2v6.3zM412.7 166.9c0-1 .2-1.8.7-2.5s1-.9 1.8-.9c.4 0 .7.1 1 .2s.5.3.7.6v-3.5h1.2v9.1h-.9l-.1-.8c-.2.3-.5.5-.8.7s-.7.2-1 .2c-.8 0-1.4-.3-1.8-.8s-.7-1.3-.7-2.2v-.1zm1.2.2c0 .6.1 1.2.4 1.5s.7.6 1.2.6c.3 0 .6-.1.9-.2s.4-.4.6-.7v-3c-.1-.3-.3-.5-.6-.6s-.5-.2-.9-.2c-.6 0-1 .2-1.2.7s-.4 1.1-.4 1.8v.1zM422.5 170.1c-.9 0-1.6-.3-2.1-.9s-.8-1.4-.8-2.3v-.3c0-.9.3-1.7.8-2.3s1.2-.9 1.9-.9c.9 0 1.5.3 1.9.8s.7 1.2.7 2.1v.7h-4.1c0 .6.2 1.1.5 1.5s.7.6 1.2.6c.4 0 .7-.1 1-.2s.5-.3.8-.5l.5.8c-.2.2-.5.4-.9.6-.5.2-.9.3-1.4.3zm-.2-5.6c-.4 0-.7.2-1 .5s-.4.7-.5 1.2h2.9v-.2c0-.5-.1-.8-.4-1.1-.2-.3-.5-.4-1-.4zM425.9 166.8c0-.9.3-1.7.8-2.3s1.2-.9 2.1-.9c.9 0 1.6.3 2.1.9s.8 1.4.8 2.3v.1c0 .9-.3 1.7-.8 2.3s-1.2.9-2.1.9-1.6-.3-2.1-.9-.8-1.4-.8-2.3v-.1zm1.2.1c0 .7.1 1.2.4 1.7.3.4.7.7 1.3.7.6 0 1-.2 1.3-.7.3-.4.4-1 .4-1.7v-.1c0-.7-.1-1.2-.4-1.7-.3-.4-.7-.7-1.3-.7-.6 0-1 .2-1.3.7-.3.4-.4 1-.4 1.7v.1zM437.2 162H436v-1.2h1.2v1.2zm0 8H436v-6.3h1.2v6.3zM440 163.7l.1.9c.2-.3.5-.6.8-.8s.7-.3 1.1-.3c.7 0 1.2.2 1.6.6s.6 1 .6 1.9v4H443v-4c0-.6-.1-1-.3-1.2s-.6-.4-1-.4c-.3 0-.6.1-.9.2s-.5.4-.6.7v4.6H439v-6.3h1zM447.3 162.1v1.5h1.2v.9h-1.2v3.8c0 .3.1.5.2.6s.3.2.5.2h.2c.1 0 .2 0 .2-.1l.2.8c-.1.1-.2.1-.4.2s-.3.1-.5.1c-.5 0-.8-.1-1.1-.4s-.4-.7-.4-1.3v-3.8h-1v-.9h1v-1.5h1.1zM453 164.7h-.6c-.3 0-.6.1-.8.2s-.4.3-.5.6v4.5H450v-6.3h1l.1.9c.2-.3.4-.6.7-.8s.6-.3.9-.3h.4l-.1 1.2zM453.7 166.8c0-.9.3-1.7.8-2.3s1.2-.9 2.1-.9c.9 0 1.6.3 2.1.9s.8 1.4.8 2.3v.1c0 .9-.3 1.7-.8 2.3s-1.2.9-2.1.9-1.6-.3-2.1-.9-.8-1.4-.8-2.3v-.1zm1.2.1c0 .7.1 1.2.4 1.7.3.4.7.7 1.3.7.6 0 1-.2 1.3-.7.3-.4.4-1 .4-1.7v-.1c0-.7-.1-1.2-.4-1.7-.3-.4-.7-.7-1.3-.7-.6 0-1 .2-1.3.7-.3.4-.4 1-.4 1.7v.1zM465.1 163.7v6.9c0 .7-.2 1.2-.5 1.5s-.8.5-1.4.5h-.3c-.1 0-.2 0-.3-.1l.1-.9h.5c.3 0 .5-.1.6-.3s.2-.5.2-.8v-6.9h1.1zm0-1.7h-1.2v-1.2h1.2v1.2zM466.6 166.8c0-.9.3-1.7.8-2.3s1.2-.9 2.1-.9c.9 0 1.6.3 2.1.9s.8 1.4.8 2.3v.1c0 .9-.3 1.7-.8 2.3s-1.2.9-2.1.9-1.6-.3-2.1-.9-.8-1.4-.8-2.3v-.1zm1.2.1c0 .7.1 1.2.4 1.7.3.4.7.7 1.3.7.6 0 1-.2 1.3-.7.3-.4.4-1 .4-1.7v-.1c0-.7-.1-1.2-.4-1.7-.3-.4-.7-.7-1.3-.7-.6 0-1 .2-1.3.7-.3.4-.4 1-.4 1.7v.1zM479.1 167.1c0 .9-.2 1.7-.7 2.2s-1 .8-1.8.8c-.4 0-.8-.1-1.1-.2s-.6-.4-.8-.7l-.1.8h-.9v-9.1h1.2v3.6c.2-.3.4-.5.7-.6s.6-.2 1-.2c.8 0 1.4.3 1.8.9s.7 1.4.7 2.5zm-1.1-.2c0-.7-.1-1.3-.4-1.8s-.7-.7-1.2-.7c-.4 0-.7.1-.9.3s-.4.4-.6.7v2.7c.1.3.3.6.6.7s.5.3.9.3c.5 0 .9-.2 1.2-.6s.4-.9.4-1.5v-.1zM484.2 168.3c0-.3-.1-.5-.3-.6s-.6-.3-1.1-.4c-.8-.2-1.3-.4-1.7-.7-.4-.3-.6-.7-.6-1.2s.2-1 .7-1.3c.4-.4 1-.5 1.7-.5s1.3.2 1.8.6.6.8.6 1.4h-1.1c0-.3-.1-.5-.3-.7s-.5-.3-.9-.3-.7.1-.9.3-.3.4-.3.7c0 .2.1.4.3.6s.5.3 1.1.4c.8.2 1.4.4 1.8.7s.6.7.6 1.2c0 .6-.2 1-.7 1.4s-1 .5-1.8.5-1.4-.2-1.9-.6-.7-.9-.7-1.4h1.1c0 .4.2.7.5.9.3.2.6.3 1 .3s.7-.1 1-.2.1-.8.1-1.1zM491.7 167.7l.2.8 1.6-4.8h1.3l-2.7 7.3c-.2.4-.4.8-.7 1.1s-.7.5-1.2.5h-.4c-.2 0-.3 0-.3-.1l.1-.9h.5c.2 0 .4-.1.6-.3s.3-.5.4-.7l.3-.7-2.4-6.2h1.3l1.4 4zM495.5 166.8c0-.9.3-1.7.8-2.3s1.2-.9 2.1-.9c.9 0 1.6.3 2.1.9s.8 1.4.8 2.3v.1c0 .9-.3 1.7-.8 2.3s-1.2.9-2.1.9-1.6-.3-2.1-.9-.8-1.4-.8-2.3v-.1zm1.1.1c0 .7.1 1.2.4 1.7.3.4.7.7 1.3.7.6 0 1-.2 1.3-.7.3-.4.4-1 .4-1.7v-.1c0-.7-.1-1.2-.4-1.7-.3-.4-.7-.7-1.3-.7-.6 0-1 .2-1.3.7-.3.4-.4 1-.4 1.7v.1zM506.6 169.1c-.2.3-.5.6-.8.8s-.7.3-1.1.3c-.7 0-1.2-.2-1.6-.7s-.6-1.1-.6-2.1v-3.7h1.2v3.8c0 .7.1 1.1.3 1.4s.5.4.9.4.7-.1 1-.2.5-.4.6-.7v-4.6h1.2v6.3h-1l-.1-1zM513.4 163.7l.1.8c.2-.3.5-.5.8-.7s.7-.2 1.1-.2.8.1 1.1.3.5.5.7.9c.2-.4.5-.6.8-.9s.7-.3 1.1-.3c.6 0 1.2.2 1.5.7s.6 1.1.6 2v3.8H520v-3.8c0-.6-.1-1.1-.3-1.3s-.5-.4-1-.4c-.4 0-.7.1-1 .4s-.4.6-.4 1v4h-1.2v-3.8c0-.6-.1-1-.3-1.3s-.5-.4-1-.4c-.4 0-.6.1-.9.2s-.4.3-.5.6v4.7h-1.2v-6.3h1.2zM526.7 170c0-.2-.1-.4-.1-.5v-.4c-.2.3-.5.6-.8.8s-.7.3-1.1.3c-.7 0-1.2-.2-1.5-.5s-.5-.8-.5-1.4c0-.6.2-1.1.7-1.4s1.2-.5 2-.5h1.3v-.6c0-.4-.1-.7-.3-.9s-.5-.3-1-.3c-.4 0-.7.1-.9.3s-.3.4-.3.7h-1.1c0-.5.2-.9.7-1.3s1.1-.6 1.8-.6 1.3.2 1.7.5.7.9.7 1.6v3.8c0 .3.1.4.1.6h-1.4zm-1.9-.8c.4 0 .8-.1 1.1-.3s.6-.5.7-.7v-1h-1.3c-.5 0-.8.1-1.1.4s-.4.5-.4.8c0 .3.1.5.3.7.1 0 .4.1.7.1zM531.3 167.7l.2.8 1.6-4.8h1.3l-2.7 7.3c-.2.4-.4.8-.7 1.1s-.7.5-1.2.5h-.4c-.2 0-.3 0-.3-.1l.1-.9h.5c.2 0 .4-.1.6-.3s.3-.5.4-.7l.3-.7-2.4-6.2h1.3l1.4 4zM539.5 164.5c.2-.3.5-.5.8-.7s.7-.3 1.1-.3c.7 0 1.2.2 1.6.6s.6 1 .6 1.9v4h-1.2v-4c0-.5-.1-.9-.3-1.2s-.6-.4-1-.4c-.3 0-.6.1-.9.2s-.5.4-.6.6v4.7h-1.2v-9.1h1.2v3.7zM549.1 170c0-.2-.1-.4-.1-.5v-.4c-.2.3-.5.6-.8.8s-.7.3-1.1.3c-.7 0-1.2-.2-1.5-.5s-.5-.8-.5-1.4c0-.6.2-1.1.7-1.4s1.2-.5 2-.5h1.3v-.6c0-.4-.1-.7-.3-.9s-.5-.3-1-.3c-.4 0-.7.1-.9.3s-.3.4-.3.7h-1.1c0-.5.2-.9.7-1.3s1.1-.6 1.8-.6 1.3.2 1.7.5.7.9.7 1.6v3.8c0 .3.1.4.1.6h-1.4zm-1.9-.8c.4 0 .8-.1 1.1-.3s.6-.5.7-.7v-1h-1.3c-.5 0-.8.1-1.1.4s-.4.5-.4.8c0 .3.1.5.3.7.1 0 .3.1.7.1zM553.8 168.1l.1.4.1-.4 1.5-4.5h1.2l-2.3 6.3h-.9l-2.4-6.3h1.2l1.5 4.5zM560.3 170.1c-.9 0-1.6-.3-2.1-.9s-.8-1.4-.8-2.3v-.3c0-.9.3-1.7.8-2.3s1.2-.9 1.9-.9c.9 0 1.5.3 1.9.8s.7 1.2.7 2.1v.7h-4.1c0 .6.2 1.1.5 1.5s.7.6 1.2.6c.4 0 .7-.1 1-.2s.5-.3.8-.5l.5.8c-.2.2-.5.4-.9.6-.4.2-.9.3-1.4.3zm-.2-5.6c-.4 0-.7.2-1 .5s-.4.7-.5 1.2h2.9v-.2c0-.5-.1-.8-.4-1.1-.2-.3-.5-.4-1-.4zM565.3 170h-1.2v-1.2h1.2v1.2z"/></g><g><path d="M117.3 186h-1.2v-8.5h1.2v8.5zM123.8 183.7l.1.8.2-.8 1.3-4h.9l1.3 4 .2.9.2-.9 1-4h1.1l-1.8 6.3h-.9l-1.2-3.9-.3-1.1-.3 1.1-1.2 3.9h-.9l-1.8-6.3h1.1l1 4zM132.5 178h-1.2v-1.2h1.2v1.2zm0 8h-1.2v-6.3h1.2v6.3zM135.6 186h-1.2v-9.1h1.2v9.1zM138.6 186h-1.2v-9.1h1.2v9.1zM147 184.3c0-.3-.1-.5-.3-.6s-.6-.3-1.1-.4c-.8-.2-1.3-.4-1.7-.7-.4-.3-.6-.7-.6-1.2s.2-1 .7-1.3c.4-.4 1-.5 1.7-.5s1.3.2 1.8.6.6.8.6 1.4H147c0-.3-.1-.5-.3-.7s-.5-.3-.9-.3-.7.1-.9.3-.3.4-.3.7c0 .2.1.4.3.6s.5.3 1.1.4c.8.2 1.4.4 1.8.7s.6.7.6 1.2c0 .6-.2 1-.7 1.4s-1 .5-1.8.5-1.4-.2-1.9-.6-.7-.9-.7-1.4h1.1c0 .4.2.7.5.9.3.2.6.3 1 .3s.7-.1 1-.2.1-.8.1-1.1zM153.6 185.1c-.2.3-.5.6-.8.8s-.7.3-1.1.3c-.7 0-1.2-.2-1.6-.7s-.6-1.1-.6-2.1v-3.7h1.2v3.8c0 .7.1 1.1.3 1.4s.5.4.9.4.7-.1 1-.2.5-.4.6-.7v-4.6h1.2v6.3h-1l-.1-1zM159.4 180.7h-.6c-.3 0-.6.1-.8.2s-.4.3-.5.6v4.5h-1.2v-6.3h1l.1.9c.2-.3.4-.6.7-.8s.6-.3.9-.3h.4v1.2zM163.1 186.1c-.9 0-1.6-.3-2.1-.9s-.8-1.4-.8-2.3v-.3c0-.9.3-1.7.8-2.3s1.2-.9 1.9-.9c.9 0 1.5.3 1.9.8s.7 1.2.7 2.1v.7h-4.1c0 .6.2 1.1.5 1.5s.7.6 1.2.6c.4 0 .7-.1 1-.2s.5-.3.8-.5l.5.8c-.2.2-.5.4-.9.6-.4.2-.9.3-1.4.3zm-.2-5.6c-.4 0-.7.2-1 .5s-.4.7-.5 1.2h2.9v-.2c0-.5-.1-.8-.4-1.1-.2-.3-.5-.4-1-.4zM171.7 183.1h-.8v2.9h-1.2v-9.1h1.2v5.3h.7l1.7-2.5h1.4l-2.2 2.9 2.5 3.5h-1.4l-1.9-3zM178.4 186.1c-.9 0-1.6-.3-2.1-.9s-.8-1.4-.8-2.3v-.3c0-.9.3-1.7.8-2.3s1.2-.9 1.9-.9c.9 0 1.5.3 1.9.8s.7 1.2.7 2.1v.7h-4.1c0 .6.2 1.1.5 1.5s.7.6 1.2.6c.4 0 .7-.1 1-.2s.5-.3.8-.5l.5.8c-.2.2-.5.4-.9.6-.4.2-.8.3-1.4.3zm-.1-5.6c-.4 0-.7.2-1 .5s-.4.7-.5 1.2h2.9v-.2c0-.5-.1-.8-.4-1.1-.2-.3-.6-.4-1-.4zM184.8 186.1c-.9 0-1.6-.3-2.1-.9s-.8-1.4-.8-2.3v-.3c0-.9.3-1.7.8-2.3s1.2-.9 1.9-.9c.9 0 1.5.3 1.9.8s.7 1.2.7 2.1v.7h-4.1c0 .6.2 1.1.5 1.5s.7.6 1.2.6c.4 0 .7-.1 1-.2s.5-.3.8-.5l.5.8c-.2.2-.5.4-.9.6-.4.2-.9.3-1.4.3zm-.2-5.6c-.4 0-.7.2-1 .5s-.4.7-.5 1.2h2.9v-.2c0-.5-.1-.8-.4-1.1-.2-.3-.5-.4-1-.4zM193.9 183.1c0 .9-.2 1.7-.7 2.2s-1 .8-1.8.8c-.4 0-.7-.1-1-.2s-.5-.3-.8-.6v3.1h-1.2v-8.8h.9l.2.8c.2-.3.5-.5.8-.7s.7-.2 1.1-.2c.8 0 1.4.3 1.8.9s.7 1.4.7 2.5v.2zm-1.2-.2c0-.7-.1-1.3-.4-1.8-.3-.5-.7-.7-1.3-.7-.3 0-.6.1-.8.2s-.4.4-.6.6v3.1c.1.3.3.5.6.6s.5.2.9.2c.5 0 1-.2 1.2-.6.3-.4.4-.9.4-1.5v-.1zM202.3 185.1c-.2.3-.5.6-.8.8s-.7.3-1.1.3c-.7 0-1.2-.2-1.6-.7s-.6-1.1-.6-2.1v-3.7h1.2v3.8c0 .7.1 1.1.3 1.4s.5.4.9.4.7-.1 1-.2.5-.4.6-.7v-4.6h1.2v6.3h-1l-.1-1zM208.8 184.3c0-.3-.1-.5-.3-.6s-.6-.3-1.1-.4c-.8-.2-1.3-.4-1.7-.7-.4-.3-.6-.7-.6-1.2s.2-1 .7-1.3c.4-.4 1-.5 1.7-.5s1.3.2 1.8.6.6.8.6 1.4h-1.1c0-.3-.1-.5-.3-.7s-.5-.3-.9-.3-.7.1-.9.3-.3.4-.3.7c0 .2.1.4.3.6s.5.3 1.1.4c.8.2 1.4.4 1.8.7s.6.7.6 1.2c0 .6-.2 1-.7 1.4s-1 .5-1.8.5-1.4-.2-1.9-.6-.7-.9-.7-1.4h1.1c0 .4.2.7.5.9.3.2.6.3 1 .3s.7-.1 1-.2.1-.8.1-1.1zM212.6 178h-1.2v-1.2h1.2v1.2zm0 8h-1.2v-6.3h1.2v6.3zM215.5 179.7l.1.9c.2-.3.5-.6.8-.8s.7-.3 1.1-.3c.7 0 1.2.2 1.6.6s.6 1 .6 1.9v4h-1.2v-4c0-.6-.1-1-.3-1.2s-.6-.4-1-.4c-.3 0-.6.1-.9.2s-.5.4-.6.7v4.6h-1.2v-6.3h1zM221 182.9c0-1 .2-1.8.7-2.5s1.1-.9 1.8-.9c.4 0 .8.1 1.1.2s.6.4.8.7l.1-.8h.9v6.4c0 .8-.2 1.4-.7 1.9s-1.2.7-2 .7c-.3 0-.6 0-1-.1s-.7-.2-.9-.3l.3-.9c.2.1.5.2.8.3s.6.1.9.1c.6 0 1-.1 1.2-.4s.4-.6.4-1.2v-.7c-.2.3-.5.5-.7.6s-.6.2-1 .2c-.8 0-1.4-.3-1.8-.8s-.7-1.3-.7-2.2v-.3zm1.1.2c0 .6.1 1.1.4 1.5s.7.6 1.2.6c.3 0 .6-.1.9-.2s.4-.4.6-.7v-2.9c-.1-.3-.3-.5-.6-.6s-.5-.2-.9-.2c-.6 0-1 .2-1.2.7s-.4 1.1-.4 1.8zM232.2 180.5c.2-.3.5-.5.8-.7s.7-.3 1.1-.3c.7 0 1.2.2 1.6.6s.6 1 .6 1.9v4h-1.2v-4c0-.5-.1-.9-.3-1.2s-.6-.4-1-.4c-.3 0-.6.1-.9.2s-.5.4-.6.6v4.7H231v-9.1h1.2v3.7zM239.1 178H238v-1.2h1.2v1.2zm0 8H238v-6.3h1.2v6.3zM244.6 184.3c0-.3-.1-.5-.3-.6s-.6-.3-1.1-.4c-.8-.2-1.3-.4-1.7-.7-.4-.3-.6-.7-.6-1.2s.2-1 .7-1.3c.4-.4 1-.5 1.7-.5s1.3.2 1.8.6.6.8.6 1.4h-1.1c0-.3-.1-.5-.3-.7s-.5-.3-.9-.3-.7.1-.9.3-.3.4-.3.7c0 .2.1.4.3.6s.5.3 1.1.4c.8.2 1.4.4 1.8.7s.6.7.6 1.2c0 .6-.2 1-.7 1.4s-1 .5-1.8.5-1.4-.2-1.9-.6-.7-.9-.7-1.4h1.1c0 .4.2.7.5.9.3.2.6.3 1 .3s.7-.1 1-.2.1-.8.1-1.1zM253.8 184.3c0-.3-.1-.5-.3-.6s-.6-.3-1.1-.4c-.8-.2-1.3-.4-1.7-.7-.4-.3-.6-.7-.6-1.2s.2-1 .7-1.3c.4-.4 1-.5 1.7-.5s1.3.2 1.8.6.6.8.6 1.4h-1.1c0-.3-.1-.5-.3-.7s-.5-.3-.9-.3-.7.1-.9.3-.3.4-.3.7c0 .2.1.4.3.6s.5.3 1.1.4c.8.2 1.4.4 1.8.7s.6.7.6 1.2c0 .6-.2 1-.7 1.4s-1 .5-1.8.5-1.4-.2-1.9-.6-.7-.9-.7-1.4h1.1c0 .4.2.7.5.9.3.2.6.3 1 .3s.7-.1 1-.2.1-.8.1-1.1zM259.1 186.1c-.9 0-1.6-.3-2.1-.9s-.8-1.4-.8-2.3v-.3c0-.9.3-1.7.8-2.3s1.2-.9 1.9-.9c.9 0 1.5.3 1.9.8s.7 1.2.7 2.1v.7h-4.1c0 .6.2 1.1.5 1.5s.7.6 1.2.6c.4 0 .7-.1 1-.2s.5-.3.8-.5l.5.8c-.2.2-.5.4-.9.6-.5.2-.9.3-1.4.3zm-.2-5.6c-.4 0-.7.2-1 .5s-.4.7-.5 1.2h2.9v-.2c0-.5-.1-.8-.4-1.1-.2-.3-.5-.4-1-.4zM265.8 180.7h-.6c-.3 0-.6.1-.8.2s-.4.3-.5.6v4.5h-1.2v-6.3h1l.1.9c.2-.3.4-.6.7-.8s.6-.3.9-.3h.4v1.2zM269.1 184.1l.1.4.1-.4 1.5-4.5h1.2l-2.3 6.3h-.9l-2.4-6.3h1.2l1.5 4.5zM274.3 178h-1.2v-1.2h1.2v1.2zm0 8h-1.2v-6.3h1.2v6.3zM278.6 185.2c.4 0 .7-.1 1-.4s.4-.5.4-.9h1c0 .5-.2 1-.7 1.5s-1.1.6-1.8.6c-.9 0-1.6-.3-2.1-.9s-.7-1.4-.7-2.3v-.2c0-.9.2-1.7.7-2.3s1.2-.9 2.1-.9c.7 0 1.3.2 1.8.7s.7 1 .7 1.6h-1c0-.4-.1-.7-.4-1s-.6-.4-1-.4c-.6 0-1 .2-1.3.7-.3.4-.4 1-.4 1.6v.2c0 .6.1 1.2.4 1.6.3.6.7.8 1.3.8zM285 186.1c-.9 0-1.6-.3-2.1-.9s-.8-1.4-.8-2.3v-.3c0-.9.3-1.7.8-2.3s1.2-.9 1.9-.9c.9 0 1.5.3 1.9.8s.7 1.2.7 2.1v.7h-4.1c0 .6.2 1.1.5 1.5s.7.6 1.2.6c.4 0 .7-.1 1-.2s.5-.3.8-.5l.5.8c-.2.2-.5.4-.9.6-.4.2-.8.3-1.4.3zm-.1-5.6c-.4 0-.7.2-1 .5s-.4.7-.5 1.2h2.9v-.2c0-.5-.1-.8-.4-1.1-.2-.3-.6-.4-1-.4zM292.4 184.3c0-.3-.1-.5-.3-.6s-.6-.3-1.1-.4c-.8-.2-1.3-.4-1.7-.7-.4-.3-.6-.7-.6-1.2s.2-1 .7-1.3c.4-.4 1-.5 1.7-.5s1.3.2 1.8.6.6.8.6 1.4h-1.1c0-.3-.1-.5-.3-.7s-.5-.3-.9-.3-.7.1-.9.3-.3.4-.3.7c0 .2.1.4.3.6s.5.3 1.1.4c.8.2 1.4.4 1.8.7s.6.7.6 1.2c0 .6-.2 1-.7 1.4s-1 .5-1.8.5-1.4-.2-1.9-.6-.7-.9-.7-1.4h1.1c0 .4.2.7.5.9.3.2.6.3 1 .3s.7-.1 1-.2.1-.8.1-1.1zM296.3 186h-1.2v-1.2h1.2v1.2zM299.5 186h-1.2v-1.2h1.2v1.2zM302.7 186h-1.2v-1.2h1.2v1.2zM310.4 183.9l.2.7.2-.7 2.2-6.4h1.2L311 186h-1l-3.2-8.5h1.3l2.3 6.4zM317.6 186.1c-.9 0-1.6-.3-2.1-.9s-.8-1.4-.8-2.3v-.3c0-.9.3-1.7.8-2.3s1.2-.9 1.9-.9c.9 0 1.5.3 1.9.8s.7 1.2.7 2.1v.7h-4.1c0 .6.2 1.1.5 1.5s.7.6 1.2.6c.4 0 .7-.1 1-.2s.5-.3.8-.5l.5.8c-.2.2-.5.4-.9.6-.4.2-.9.3-1.4.3zm-.2-5.6c-.4 0-.7.2-1 .5s-.4.7-.5 1.2h2.9v-.2c0-.5-.1-.8-.4-1.1-.1-.3-.5-.4-1-.4zM324.3 180.7h-.6c-.3 0-.6.1-.8.2s-.4.3-.5.6v4.5h-1.2v-6.3h1l.1.9c.2-.3.4-.6.7-.8s.6-.3.9-.3h.4v1.2zM327.5 183.7l.2.8 1.6-4.8h1.3l-2.7 7.3c-.2.4-.4.8-.7 1.1s-.7.5-1.2.5h-.4c-.2 0-.3 0-.3-.1l.1-.9h.5c.2 0 .4-.1.6-.3s.3-.5.4-.7l.3-.7-2.4-6.2h1.3l1.4 4zM337.1 185.2c.4 0 .7-.1 1-.4s.4-.5.4-.9h1c0 .5-.2 1-.7 1.5s-1.1.6-1.8.6c-.9 0-1.6-.3-2.1-.9s-.7-1.4-.7-2.3v-.2c0-.9.2-1.7.7-2.3s1.2-.9 2.1-.9c.7 0 1.3.2 1.8.7s.7 1 .7 1.6h-1c0-.4-.1-.7-.4-1s-.6-.4-1-.4c-.6 0-1 .2-1.3.7-.3.4-.4 1-.4 1.6v.2c0 .6.1 1.2.4 1.6.3.6.7.8 1.3.8zM343.9 180.7h-.6c-.3 0-.6.1-.8.2s-.4.3-.5.6v4.5h-1.2v-6.3h1l.1.9c.2-.3.4-.6.7-.8s.6-.3.9-.3h.4v1.2zM347.6 186.1c-.9 0-1.6-.3-2.1-.9s-.8-1.4-.8-2.3v-.3c0-.9.3-1.7.8-2.3s1.2-.9 1.9-.9c.9 0 1.5.3 1.9.8s.7 1.2.7 2.1v.7h-4.1c0 .6.2 1.1.5 1.5s.7.6 1.2.6c.4 0 .7-.1 1-.2s.5-.3.8-.5l.5.8c-.2.2-.5.4-.9.6-.5.2-.9.3-1.4.3zm-.2-5.6c-.4 0-.7.2-1 .5s-.4.7-.5 1.2h2.9v-.2c0-.5-.1-.8-.4-1.1-.2-.3-.5-.4-1-.4zM355.2 186c0-.2-.1-.4-.1-.5v-.4c-.2.3-.5.6-.8.8s-.7.3-1.1.3c-.7 0-1.2-.2-1.5-.5s-.5-.8-.5-1.4c0-.6.2-1.1.7-1.4s1.2-.5 2-.5h1.3v-.6c0-.4-.1-.7-.3-.9s-.5-.3-1-.3c-.4 0-.7.1-.9.3s-.3.4-.3.7h-1.1c0-.5.2-.9.7-1.3s1.1-.6 1.8-.6 1.3.2 1.7.5.7.9.7 1.6v3.8c0 .3.1.4.1.6h-1.4zm-1.9-.8c.4 0 .8-.1 1.1-.3s.6-.5.7-.7v-1h-1.3c-.5 0-.8.1-1.1.4s-.4.5-.4.8c0 .3.1.5.3.7.1 0 .3.1.7.1zM359.4 178.1v1.5h1.2v.9h-1.2v3.8c0 .3.1.5.2.6s.3.2.5.2h.2c.1 0 .2 0 .2-.1l.2.8c-.1.1-.2.1-.4.2s-.3.1-.5.1c-.5 0-.8-.1-1.1-.4s-.4-.7-.4-1.3v-3.8h-1v-.9h1v-1.5h1.1zM363.3 178h-1.2v-1.2h1.2v1.2zm0 8h-1.2v-6.3h1.2v6.3zM367.2 184.1l.1.4.1-.4 1.5-4.5h1.2l-2.3 6.3h-.9l-2.4-6.3h1.2l1.5 4.5zM373.6 186.1c-.9 0-1.6-.3-2.1-.9s-.8-1.4-.8-2.3v-.3c0-.9.3-1.7.8-2.3s1.2-.9 1.9-.9c.9 0 1.5.3 1.9.8s.7 1.2.7 2.1v.7h-4.1c0 .6.2 1.1.5 1.5s.7.6 1.2.6c.4 0 .7-.1 1-.2s.5-.3.8-.5l.5.8c-.2.2-.5.4-.9.6-.4.2-.8.3-1.4.3zm-.1-5.6c-.4 0-.7.2-1 .5s-.4.7-.5 1.2h2.9v-.2c0-.5-.1-.8-.4-1.1-.2-.3-.6-.4-1-.4zM384.2 186c0-.2-.1-.4-.1-.5v-.4c-.2.3-.5.6-.8.8s-.7.3-1.1.3c-.7 0-1.2-.2-1.5-.5s-.5-.8-.5-1.4c0-.6.2-1.1.7-1.4s1.2-.5 2-.5h1.3v-.6c0-.4-.1-.7-.3-.9s-.5-.3-1-.3c-.4 0-.7.1-.9.3s-.3.4-.3.7h-1.1c0-.5.2-.9.7-1.3s1.1-.6 1.8-.6 1.3.2 1.7.5.7.9.7 1.6v3.8c0 .3.1.4.1.6h-1.4zm-1.9-.8c.4 0 .8-.1 1.1-.3s.6-.5.7-.7v-1h-1.3c-.5 0-.8.1-1.1.4s-.4.5-.4.8c0 .3.1.5.3.7.1 0 .4.1.7.1zM388 179.7l.1.9c.2-.3.5-.6.8-.8s.7-.3 1.1-.3c.7 0 1.2.2 1.6.6s.6 1 .6 1.9v4H391v-4c0-.6-.1-1-.3-1.2s-.6-.4-1-.4c-.3 0-.6.1-.9.2s-.5.4-.6.7v4.6H387v-6.3h1zM393.5 182.9c0-1 .2-1.8.7-2.5s1-.9 1.8-.9c.4 0 .7.1 1 .2s.5.3.7.6v-3.5h1.2v9.1h-.9l-.1-.8c-.2.3-.5.5-.8.7s-.7.2-1 .2c-.8 0-1.4-.3-1.8-.8s-.7-1.3-.7-2.2v-.1zm1.1.2c0 .6.1 1.2.4 1.5s.7.6 1.2.6c.3 0 .6-.1.9-.2s.4-.4.6-.7v-3c-.1-.3-.3-.5-.6-.6s-.5-.2-.9-.2c-.6 0-1 .2-1.2.7s-.4 1.1-.4 1.8v.1zM409 183.1c0 .9-.2 1.7-.7 2.2s-1 .8-1.8.8c-.4 0-.7-.1-1-.2s-.5-.3-.8-.6v3.1h-1.2v-8.8h.9l.2.8c.2-.3.5-.5.8-.7s.7-.2 1.1-.2c.8 0 1.4.3 1.8.9s.7 1.4.7 2.5v.2zm-1.2-.2c0-.7-.1-1.3-.4-1.8-.3-.5-.7-.7-1.3-.7-.3 0-.6.1-.8.2s-.4.4-.6.6v3.1c.1.3.3.5.6.6s.5.2.9.2c.5 0 1-.2 1.2-.6.3-.4.4-.9.4-1.5v-.1zM413.4 180.7h-.6c-.3 0-.6.1-.8.2s-.4.3-.5.6v4.5h-1.2v-6.3h1l.1.9c.2-.3.4-.6.7-.8s.6-.3.9-.3h.4v1.2zM414.1 182.8c0-.9.3-1.7.8-2.3s1.2-.9 2.1-.9c.9 0 1.6.3 2.1.9s.8 1.4.8 2.3v.1c0 .9-.3 1.7-.8 2.3s-1.2.9-2.1.9-1.6-.3-2.1-.9-.8-1.4-.8-2.3v-.1zm1.2.1c0 .7.1 1.2.4 1.7.3.4.7.7 1.3.7.6 0 1-.2 1.3-.7.3-.4.4-1 .4-1.7v-.1c0-.7-.1-1.2-.4-1.7-.3-.4-.7-.7-1.3-.7-.6 0-1 .2-1.3.7-.3.4-.4 1-.4 1.7v.1zM421.7 186v-5.5h-1v-.9h1v-.8c0-.7.2-1.2.5-1.6s.8-.6 1.5-.6h.4c.1 0 .3.1.4.1l-.1.9h-.6c-.3 0-.6.1-.8.3s-.2.5-.2.9v.8h1.3v.9h-1.3v5.5h-1.1zM427.8 186.1c-.9 0-1.6-.3-2.1-.9s-.8-1.4-.8-2.3v-.3c0-.9.3-1.7.8-2.3s1.2-.9 1.9-.9c.9 0 1.5.3 1.9.8s.7 1.2.7 2.1v.7h-4.1c0 .6.2 1.1.5 1.5s.7.6 1.2.6c.4 0 .7-.1 1-.2s.5-.3.8-.5l.5.8c-.2.2-.5.4-.9.6-.4.2-.8.3-1.4.3zm-.1-5.6c-.4 0-.7.2-1 .5s-.4.7-.5 1.2h2.9v-.2c0-.5-.1-.8-.4-1.1-.2-.3-.6-.4-1-.4zM435.2 184.3c0-.3-.1-.5-.3-.6s-.6-.3-1.1-.4c-.8-.2-1.3-.4-1.7-.7-.4-.3-.6-.7-.6-1.2s.2-1 .7-1.3c.4-.4 1-.5 1.7-.5s1.3.2 1.8.6.6.8.6 1.4h-1.1c0-.3-.1-.5-.3-.7s-.5-.3-.9-.3-.7.1-.9.3-.3.4-.3.7c0 .2.1.4.3.6s.5.3 1.1.4c.8.2 1.4.4 1.8.7s.6.7.6 1.2c0 .6-.2 1-.7 1.4s-1 .5-1.8.5-1.4-.2-1.9-.6-.7-.9-.7-1.4h1.1c0 .4.2.7.5.9.3.2.6.3 1 .3s.7-.1 1-.2.1-.8.1-1.1zM441.5 184.3c0-.3-.1-.5-.3-.6s-.6-.3-1.1-.4c-.8-.2-1.3-.4-1.7-.7-.4-.3-.6-.7-.6-1.2s.2-1 .7-1.3c.4-.4 1-.5 1.7-.5s1.3.2 1.8.6.6.8.6 1.4h-1.1c0-.3-.1-.5-.3-.7s-.5-.3-.9-.3-.7.1-.9.3-.3.4-.3.7c0 .2.1.4.3.6s.5.3 1.1.4c.8.2 1.4.4 1.8.7s.6.7.6 1.2c0 .6-.2 1-.7 1.4s-1 .5-1.8.5-1.4-.2-1.9-.6-.7-.9-.7-1.4h1.1c0 .4.2.7.5.9.3.2.6.3 1 .3s.7-.1 1-.2.1-.8.1-1.1zM445.3 178h-1.2v-1.2h1.2v1.2zm0 8h-1.2v-6.3h1.2v6.3zM446.8 182.8c0-.9.3-1.7.8-2.3s1.2-.9 2.1-.9c.9 0 1.6.3 2.1.9s.8 1.4.8 2.3v.1c0 .9-.3 1.7-.8 2.3s-1.2.9-2.1.9-1.6-.3-2.1-.9-.8-1.4-.8-2.3v-.1zm1.2.1c0 .7.1 1.2.4 1.7.3.4.7.7 1.3.7.6 0 1-.2 1.3-.7.3-.4.4-1 .4-1.7v-.1c0-.7-.1-1.2-.4-1.7-.3-.4-.7-.7-1.3-.7-.6 0-1 .2-1.3.7-.3.4-.4 1-.4 1.7v.1zM455 179.7l.1.9c.2-.3.5-.6.8-.8s.7-.3 1.1-.3c.7 0 1.2.2 1.6.6s.6 1 .6 1.9v4H458v-4c0-.6-.1-1-.3-1.2s-.6-.4-1-.4c-.3 0-.6.1-.9.2s-.5.4-.6.7v4.6H454v-6.3h1zM464.7 186c0-.2-.1-.4-.1-.5v-.4c-.2.3-.5.6-.8.8s-.7.3-1.1.3c-.7 0-1.2-.2-1.5-.5s-.5-.8-.5-1.4c0-.6.2-1.1.7-1.4s1.2-.5 2-.5h1.3v-.6c0-.4-.1-.7-.3-.9s-.5-.3-1-.3c-.4 0-.7.1-.9.3s-.3.4-.3.7h-1.1c0-.5.2-.9.7-1.3s1.1-.6 1.8-.6 1.3.2 1.7.5.7.9.7 1.6v3.8c0 .3.1.4.1.6h-1.4zm-2-.8c.4 0 .8-.1 1.1-.3s.6-.5.7-.7v-1h-1.3c-.5 0-.8.1-1.1.4s-.4.5-.4.8c0 .3.1.5.3.7.1 0 .4.1.7.1zM468.6 186h-1.2v-9.1h1.2v9.1zM471.6 186h-1.2v-1.2h1.2v1.2zM473.1 178l-.9 2h-.6l.4-2v-1.1h1.2v1.1zm1.9 0l-.9 2h-.6l.4-2v-1.1h1.2v1.1z"/></g><g><path class="st0" d="M344.8 205.6h-4.2v-1.3h4.2v1.3zM358 207h-5.3l-1.2 3.2h-1.7l4.9-12.6h1.5l4.8 12.6h-1.7L358 207zm-4.8-1.4h4.2l-2.1-5.7h-.1l-2 5.7zM367 210.2v-12.6h4.1c1.3 0 2.3.3 3.1.9.7.6 1.1 1.4 1.1 2.6 0 .6-.2 1.1-.5 1.5-.4.4-.8.8-1.4 1 .8.2 1.4.5 1.8 1.1.4.6.7 1.3.7 2 0 1.2-.4 2-1.1 2.6s-1.8.9-3 .9H367zm1.7-7.2h2.8c.6 0 1.2-.2 1.6-.5s.6-.8.6-1.5-.2-1.2-.6-1.5-1-.5-1.9-.5h-2.4v4zm0 1.3v4.6h3c.8 0 1.4-.2 1.8-.6.4-.4.6-.9.6-1.6 0-.7-.2-1.3-.5-1.7s-.9-.6-1.7-.6h-3.2zM382.5 202.4l-.9-.1c-.5 0-.8.1-1.1.3-.3.2-.5.5-.7.9v6.7H378v-9.4h1.5l.2 1.4c.3-.5.6-.9 1-1.1.4-.3.8-.4 1.3-.4h.4c.1 0 .2 0 .3.1l-.2 1.6zM386 198.5h-1.7v-1.7h1.7v1.7zm0 11.7h-1.7v-9.4h1.7v9.4zM390.8 198.6v2.3h1.8v1.3h-1.8v5.7c0 .4.1.7.3.9.2.2.4.3.7.3h.3c.1 0 .2-.1.3-.1l.2 1.2c-.1.1-.3.2-.6.3-.2.1-.5.1-.7.1-.7 0-1.2-.2-1.7-.6s-.6-1.1-.6-2v-5.7h-1.5V201h1.5v-2.3h1.8zM401.3 210.2h-1.7v-12.6h1.7v12.6zM405.7 200.9l.1 1.4c.3-.5.7-.9 1.2-1.2s1-.4 1.6-.4c1 0 1.8.3 2.3.9.6.6.8 1.5.8 2.7v5.9H410v-5.9c0-.8-.2-1.4-.5-1.8s-.8-.5-1.5-.5c-.5 0-.9.1-1.3.4-.4.2-.7.6-.9 1v6.8h-1.7v-9.4h1.6zM427.5 199h-4.1v11.3h-1.7V199h-4v-1.3h9.8v1.3zM430.8 202.1c.3-.5.7-.8 1.2-1.1.5-.3 1-.4 1.6-.4 1 0 1.8.3 2.3.9.6.6.8 1.5.8 2.8v5.9H435v-5.9c0-.8-.2-1.3-.5-1.7-.3-.4-.8-.6-1.5-.6-.5 0-.9.1-1.3.3-.4.2-.7.5-.9.9v6.9H429v-13.5h1.7v5.5zM443 210.4c-1.3 0-2.3-.4-3.1-1.3-.8-.9-1.2-2-1.2-3.4v-.4c0-1.3.4-2.4 1.2-3.3s1.7-1.3 2.8-1.3c1.3 0 2.2.4 2.9 1.1.6.8 1 1.8 1 3v1.1h-6.1c0 .9.2 1.6.7 2.2.4.6 1.1.9 1.8.9.6 0 1.1-.1 1.5-.2.4-.2.8-.4 1.1-.7l.7 1.1c-.3.3-.8.6-1.3.8-.5.3-1.2.4-2 .4zm-.2-8.4c-.6 0-1.1.2-1.5.7s-.7 1.1-.7 1.8h4.3v-.2c0-.7-.2-1.2-.5-1.7-.4-.3-.9-.6-1.6-.6zM455 205.2v5.1h-1.7v-12.6h4.8c1.3 0 2.4.3 3.1 1 .7.7 1.1 1.6 1.1 2.7s-.4 2.1-1.1 2.8c-.7.7-1.8 1-3.1 1H455zm0-1.4h3.1c.9 0 1.5-.2 1.9-.7.4-.5.6-1 .6-1.7s-.2-1.3-.6-1.7c-.4-.5-1.1-.7-1.9-.7H455v4.8zM466 202.1c.3-.5.7-.8 1.2-1.1.5-.3 1-.4 1.6-.4 1 0 1.8.3 2.3.9.6.6.8 1.5.8 2.8v5.9h-1.7v-5.9c0-.8-.2-1.3-.5-1.7-.3-.4-.8-.6-1.5-.6-.5 0-.9.1-1.3.3-.4.2-.7.5-.9.9v6.9h-1.7v-13.5h1.7v5.5zM476.2 198.5h-1.7v-1.7h1.7v1.7zm0 11.7h-1.7v-9.4h1.7v9.4zM480.7 210.2H479v-13.5h1.7v13.5zM485.2 198.5h-1.7v-1.7h1.7v1.7zm0 11.7h-1.7v-9.4h1.7v9.4zM495.8 205.9c0 1.4-.3 2.4-1 3.3-.6.8-1.5 1.2-2.7 1.2-.6 0-1.1-.1-1.5-.3-.4-.2-.8-.5-1.1-.9v4.6h-1.7v-13h1.3l.3 1.2c.3-.5.7-.8 1.1-1 .5-.2 1-.4 1.6-.4 1.2 0 2.1.5 2.7 1.4.6.9 1 2.1 1 3.7v.2zm-1.7-.2c0-1.1-.2-1.9-.6-2.6-.4-.7-1-1-1.8-1-.5 0-.9.1-1.3.3s-.6.5-.8.9v4.5c.2.4.5.7.8.9.3.2.8.3 1.3.3.8 0 1.4-.3 1.8-.9.4-.6.6-1.4.6-2.3v-.1zM505.9 205.9c0 1.4-.3 2.4-1 3.3-.6.8-1.5 1.2-2.7 1.2-.6 0-1.1-.1-1.5-.3-.4-.2-.8-.5-1.1-.9v4.6h-1.7v-13h1.3l.3 1.2c.3-.5.7-.8 1.1-1 .5-.2 1-.4 1.6-.4 1.2 0 2.1.5 2.7 1.4.6.9 1 2.1 1 3.7v.2zm-1.7-.2c0-1.1-.2-1.9-.6-2.6-.4-.7-1-1-1.8-1-.5 0-.9.1-1.3.3s-.6.5-.8.9v4.5c.2.4.5.7.8.9.3.2.8.3 1.3.3.8 0 1.4-.3 1.8-.9.4-.6.6-1.4.6-2.3v-.1zM509.8 198.5h-1.7v-1.7h1.7v1.7zm0 11.7h-1.7v-9.4h1.7v9.4zM514 200.9l.1 1.4c.3-.5.7-.9 1.2-1.2s1-.4 1.6-.4c1 0 1.8.3 2.3.9.6.6.8 1.5.8 2.7v5.9h-1.7v-5.9c0-.8-.2-1.4-.5-1.8s-.8-.5-1.5-.5c-.5 0-.9.1-1.3.4-.4.2-.7.6-.9 1v6.8h-1.7v-9.4h1.6zM526.4 210.4c-1.3 0-2.3-.4-3.1-1.3-.8-.9-1.2-2-1.2-3.4v-.4c0-1.3.4-2.4 1.2-3.3s1.7-1.3 2.8-1.3c1.3 0 2.2.4 2.9 1.1.6.8 1 1.8 1 3v1.1h-6.1c0 .9.2 1.6.7 2.2.4.6 1.1.9 1.8.9.6 0 1.1-.1 1.5-.2.4-.2.8-.4 1.1-.7l.7 1.1c-.3.3-.8.6-1.3.8-.6.3-1.2.4-2 .4zm-.3-8.4c-.6 0-1.1.2-1.5.7s-.7 1.1-.7 1.8h4.3v-.2c0-.7-.2-1.2-.5-1.7-.3-.3-.9-.6-1.6-.6zM537.3 207.8c0-.4-.1-.7-.4-.9-.3-.2-.8-.5-1.6-.6-1.1-.2-2-.6-2.6-1-.6-.4-.9-1-.9-1.7 0-.8.3-1.4 1-1.9.6-.5 1.5-.8 2.5-.8 1.1 0 2 .3 2.6.8.6.6 1 1.2.9 2v.1h-1.6c0-.4-.2-.8-.5-1.1-.3-.3-.8-.5-1.4-.5-.6 0-1.1.1-1.4.4-.3.3-.4.6-.4 1s.1.7.4.9c.3.2.8.4 1.6.6 1.2.3 2.1.6 2.6 1 .6.4.9 1 .9 1.8s-.3 1.5-1 2-1.6.8-2.6.8c-1.2 0-2.1-.3-2.8-.9-.7-.6-1-1.3-1-2.1v-.1h1.6c0 .6.3 1 .7 1.3.4.3.9.4 1.5.4s1.1-.1 1.4-.4c.4-.4.5-.7.5-1.1z"/></g></svg>