<svg id="Text" xmlns="http://www.w3.org/2000/svg" viewBox="0 0 574 215.3"><style>.st0{fill:#353535}.st1{fill:#6da2a3}</style><path class="st0" d="M142.8 4.6l.9-2.1h.6l-.3 2.1v1h-1.2v-1zm1.9 0l.9-2.1h.6l-.4 2.1v1h-1.2v-1zM151.7 9.5h-3.6l-.8 2.2h-1.2l3.3-8.5h1l3.2 8.5h-1.2l-.7-2.2zm-3.2-1h2.9L150 4.6l-1.5 3.9zM160 8.7c0 .9-.2 1.7-.7 2.2s-1 .8-1.8.8c-.4 0-.8-.1-1.1-.2s-.6-.4-.8-.7l-.1.8h-.9V2.5h1.2v3.6c.2-.3.4-.5.7-.6s.6-.2 1-.2c.8 0 1.4.3 1.8.9s.7 1.4.7 2.5zm-1.1-.1c0-.7-.1-1.3-.4-1.8s-.7-.7-1.2-.7c-.4 0-.7.1-.9.3s-.4.4-.6.7v2.7c.1.3.3.6.6.7s.5.3.9.3c.5 0 .9-.2 1.2-.6s.4-.9.4-1.5v-.1zM165.1 10c0-.3-.1-.5-.3-.6s-.6-.3-1.1-.4c-.8-.2-1.3-.4-1.7-.7-.4-.3-.6-.7-.6-1.2s.2-1 .7-1.3c.4-.4 1-.5 1.7-.5s1.3.2 1.8.6.6.8.6 1.4H165c0-.3-.1-.5-.3-.7s-.5-.3-.9-.3-.7.1-.9.3-.3.4-.3.7c0 .2.1.4.3.6s.5.3 1.1.4c.8.2 1.4.4 1.8.7s.6.7.6 1.2c0 .6-.2 1-.7 1.4s-1 .5-1.8.5-1.4-.2-1.9-.6-.7-.9-.7-1.4h1.1c0 .4.2.7.5.9.3.2.6.3 1 .3s.7-.1 1-.2.2-.9.2-1.1zM167.4 8.4c0-.9.3-1.7.8-2.3s1.2-.9 2.1-.9c.9 0 1.6.3 2.1.9s.8 1.4.8 2.3v.1c0 .9-.3 1.7-.8 2.3s-1.2.9-2.1.9-1.6-.3-2.1-.9-.8-1.4-.8-2.3v-.1zm1.2.2c0 .7.1 1.2.4 1.7.3.4.7.7 1.3.7.6 0 1-.2 1.3-.7.3-.4.4-1 .4-1.7v-.2c0-.7-.1-1.2-.4-1.7-.3-.4-.7-.7-1.3-.7-.6 0-1 .2-1.3.7-.3.4-.4 1-.4 1.7v.2zM175.8 11.7h-1.2V2.5h1.2v9.2zM181.6 10.7c-.2.3-.5.6-.8.8s-.7.3-1.1.3c-.7 0-1.2-.2-1.6-.7s-.6-1.1-.6-2.1V5.3h1.2v3.8c0 .7.1 1.1.3 1.4s.5.4.9.4.7-.1 1-.2.5-.4.6-.7V5.3h1.2v6.3h-1l-.1-.9zM185.9 3.8v1.5h1.2v.9h-1.2V10c0 .3.1.5.2.6s.3.2.5.2h.2c.1 0 .2 0 .2-.1l.2.8c-.1.1-.2.1-.4.2s-.3.1-.5.1c-.5 0-.8-.1-1.1-.4s-.4-.7-.4-1.3V6.2h-1v-.9h1V3.8h1.1zM191.1 11.8c-.9 0-1.6-.3-2.1-.9s-.8-1.4-.8-2.3v-.2c0-.9.3-1.7.8-2.3s1.2-.9 1.9-.9c.9 0 1.5.3 1.9.8s.7 1.2.7 2.1v.7h-4.1c0 .6.2 1.1.5 1.5s.7.6 1.2.6c.4 0 .7-.1 1-.2s.5-.3.8-.5l.5.8c-.2.2-.5.4-.9.6-.4.1-.8.2-1.4.2zm-.1-5.7c-.4 0-.7.2-1 .5s-.4.7-.5 1.2h2.9v-.1c0-.5-.1-.8-.4-1.1-.2-.3-.6-.5-1-.5zM196.1 11.7h-1.2V2.5h1.2v9.2zM199.8 9.3l.2.8 1.6-4.8h1.3l-2.7 7.3c-.2.4-.4.8-.7 1.1s-.7.5-1.2.5h-.4c-.2 0-.3 0-.3-.1l.1-.9h.5c.2 0 .4-.1.6-.3s.3-.5.4-.7l.3-.7-2.4-6.2h1.3l1.4 4zM208.4 3.8v1.5h1.2v.9h-1.2V10c0 .3.1.5.2.6s.3.2.5.2h.2c.1 0 .2 0 .2-.1l.2.8c-.1.1-.2.1-.4.2s-.3.1-.5.1c-.5 0-.8-.1-1.1-.4s-.4-.7-.4-1.3V6.2h-1v-.9h1V3.8h1.1zM212.2 6.2c.2-.3.5-.5.8-.7s.7-.3 1.1-.3c.7 0 1.2.2 1.6.6s.6 1 .6 1.9v4H215v-4c0-.5-.1-.9-.3-1.2s-.6-.4-1-.4c-.3 0-.6.1-.9.2s-.5.4-.6.6v4.7H211V2.5h1.2v3.7zM220.5 11.8c-.9 0-1.6-.3-2.1-.9s-.8-1.4-.8-2.3v-.2c0-.9.3-1.7.8-2.3s1.2-.9 1.9-.9c.9 0 1.5.3 1.9.8s.7 1.2.7 2.1v.7h-4.1c0 .6.2 1.1.5 1.5s.7.6 1.2.6c.4 0 .7-.1 1-.2s.5-.3.8-.5l.5.8c-.2.2-.5.4-.9.6-.4.1-.9.2-1.4.2zm-.2-5.7c-.4 0-.7.2-1 .5s-.4.7-.5 1.2h2.9v-.1c0-.5-.1-.8-.4-1.1-.1-.3-.5-.5-1-.5zM232.6 8.7c0 .9-.2 1.7-.7 2.2s-1 .8-1.8.8c-.4 0-.8-.1-1.1-.2s-.6-.4-.8-.7l-.1.8h-.9V2.5h1.2v3.6c.2-.3.4-.5.7-.6s.6-.2 1-.2c.8 0 1.4.3 1.8.9s.7 1.4.7 2.5zm-1.2-.1c0-.7-.1-1.3-.4-1.8s-.7-.7-1.2-.7c-.4 0-.7.1-.9.3s-.4.4-.6.7v2.7c.1.3.3.6.6.7s.5.3.9.3c.5 0 .9-.2 1.2-.6s.4-.9.4-1.5v-.1zM236.6 11.8c-.9 0-1.6-.3-2.1-.9s-.8-1.4-.8-2.3v-.2c0-.9.3-1.7.8-2.3s1.2-.9 1.9-.9c.9 0 1.5.3 1.9.8s.7 1.2.7 2.1v.7h-4.1c0 .6.2 1.1.5 1.5s.7.6 1.2.6c.4 0 .7-.1 1-.2s.5-.3.8-.5l.5.8c-.2.2-.5.4-.9.6-.4.1-.8.2-1.4.2zm-.1-5.7c-.4 0-.7.2-1 .5s-.5.7-.5 1.2h2.9v-.1c0-.5-.1-.8-.4-1.1-.2-.3-.6-.5-1-.5zM244 10c0-.3-.1-.5-.3-.6s-.6-.3-1.1-.4c-.8-.2-1.3-.4-1.7-.7-.4-.3-.6-.7-.6-1.2s.2-1 .7-1.3c.4-.4 1-.5 1.7-.5s1.3.2 1.8.6.6.8.6 1.4H244c0-.3-.1-.5-.3-.7s-.5-.3-.9-.3-.7.1-.9.3-.3.4-.3.7c0 .2.1.4.3.6s.5.3 1.1.4c.8.2 1.4.4 1.8.7s.6.7.6 1.2c0 .6-.2 1-.7 1.4s-1 .5-1.8.5-1.4-.2-1.9-.6-.7-.9-.7-1.4h1.1c0 .4.2.7.5.9.3.2.6.3 1 .3s.7-.1 1-.2.1-.9.1-1.1zM248.2 3.8v1.5h1.2v.9h-1.2V10c0 .3.1.5.2.6s.3.2.5.2h.2c.1 0 .2 0 .2-.1l.2.8c-.1.1-.2.1-.4.2s-.3.1-.5.1c-.5 0-.8-.1-1.1-.4s-.5-.8-.5-1.4V6.2h-1v-.9h1V3.8h1.2zM257.7 11.7c0-.2-.1-.4-.1-.5v-.4c-.2.3-.5.6-.8.8s-.7.3-1.1.3c-.7 0-1.2-.2-1.5-.5s-.5-.8-.5-1.4c0-.6.2-1.1.7-1.4s1.2-.5 2-.5h1.3v-.8c0-.4-.1-.7-.3-.9s-.5-.3-1-.3c-.4 0-.7.1-.9.3s-.5.4-.5.7h-1.1c0-.5.2-.9.7-1.3s1.1-.6 1.8-.6 1.3.2 1.7.5.7.9.7 1.6v3.8c0 .3.1.4.1.6h-1.2zm-2-.9c.4 0 .8-.1 1.1-.3s.6-.5.7-.7v-1h-1.3c-.5 0-.8.1-1.1.4s-.4.5-.4.8c0 .3.1.5.3.7.1 0 .4.1.7.1zM261.4 5.3l.1.9c.2-.3.5-.6.8-.8s.7-.3 1.1-.3c.7 0 1.2.2 1.6.6s.6 1 .6 1.9v4h-1.2v-4c0-.6-.1-1-.3-1.2s-.6-.4-1-.4c-.3 0-.6.1-.9.2s-.5.4-.6.7v4.6h-1.2V5.3h1zM266.9 8.6c0-1 .2-1.8.7-2.5s1-.9 1.8-.9c.4 0 .7.1 1 .2s.5.3.7.6V2.5h1.2v9.1h-.9l-.1-.8c-.2.3-.5.5-.8.7s-.7.2-1 .2c-.8 0-1.4-.3-1.8-.8s-.7-1.3-.7-2.2v-.1zm1.2.1c0 .6.1 1.2.4 1.5s.7.6 1.2.6c.3 0 .6-.1.9-.2s.4-.4.6-.7V7c-.1-.3-.3-.5-.6-.6s-.5-.2-.9-.2c-.6 0-1 .2-1.2.7s-.4 1.1-.4 1.8zM279.6 11.8c-.9 0-1.6-.3-2.1-.9s-.8-1.4-.8-2.3v-.2c0-.9.3-1.7.8-2.3s1.2-.9 1.9-.9c.9 0 1.5.3 1.9.8s.7 1.2.7 2v.7h-4.1c0 .6.2 1.1.5 1.5s.7.6 1.2.6c.4 0 .7-.1 1-.2s.5-.3.8-.5l.5.8c-.2.2-.5.4-.9.6-.4.2-.9.3-1.4.3zm-.2-5.7c-.4 0-.7.2-1 .5s-.4.7-.5 1.2h2.9v-.1c0-.5-.1-.8-.4-1.1-.1-.3-.5-.5-1-.5zM287.2 11.7c0-.2-.1-.4-.1-.5v-.4c-.2.3-.5.6-.8.8s-.7.3-1.1.3c-.7 0-1.2-.2-1.5-.5s-.5-.8-.5-1.4c0-.6.2-1.1.7-1.4s1.2-.5 2-.5h1.3v-.8c0-.4-.1-.7-.3-.9s-.5-.3-1-.3c-.4 0-.7.1-.9.3s-.3.4-.3.7h-1.1c0-.5.2-.9.7-1.3s1.1-.6 1.8-.6 1.3.2 1.7.5.7.9.7 1.6v3.8c0 .3.1.4.1.6h-1.4zm-1.9-.9c.4 0 .8-.1 1.1-.3s.6-.5.7-.7v-1h-1.3c-.5 0-.8.1-1.1.4s-.4.5-.4.8c0 .3.1.5.3.7.1 0 .4.1.7.1zM293.6 10c0-.3-.1-.5-.3-.6s-.6-.3-1.1-.4c-.8-.2-1.3-.4-1.7-.7-.4-.3-.6-.7-.6-1.2s.2-1 .7-1.3c.4-.4 1-.5 1.7-.5s1.3.2 1.8.6.6.8.6 1.4h-1.1c0-.3-.1-.5-.3-.7s-.5-.3-.9-.3-.7.1-.9.3-.3.4-.3.7c0 .2.1.4.3.6s.5.3 1.1.4c.8.2 1.4.4 1.8.7s.6.7.6 1.2c0 .6-.2 1-.7 1.4s-1 .5-1.8.5-1.4-.2-1.9-.6-.7-.9-.7-1.4h1.1c0 .4.2.7.5.9.3.2.6.3 1 .3s.7-.1 1-.2.1-.9.1-1.1zM297.4 3.7h-1.2V2.5h1.2v1.2zm0 8h-1.2V5.3h1.2v6.4zM301.9 11.8c-.9 0-1.6-.3-2.1-.9s-.8-1.3-.8-2.3v-.2c0-.9.3-1.7.8-2.3s1.2-.9 1.9-.9c.9 0 1.5.3 1.9.8s.7 1.2.7 2.1v.7h-4.1c0 .6.2 1.1.5 1.5s.7.6 1.2.6c.4 0 .7-.1 1-.2s.5-.3.8-.5l.5.8c-.2.2-.5.4-.9.6-.5.1-.9.2-1.4.2zm-.2-5.7c-.4 0-.7.2-1 .5s-.4.7-.5 1.2h2.9v-.1c0-.5-.1-.8-.4-1.1-.2-.3-.5-.5-1-.5zM309.3 10c0-.3-.1-.5-.3-.6s-.6-.3-1.1-.4c-.8-.2-1.3-.4-1.7-.7-.4-.3-.6-.7-.6-1.2s.2-1 .7-1.3c.4-.4 1-.5 1.7-.5s1.3.2 1.8.6.6.8.6 1.4h-1.1c0-.3-.1-.5-.3-.7s-.5-.3-.9-.3-.7.1-.9.3-.3.4-.3.7c0 .2.1.4.3.6s.5.3 1.1.4c.8.2 1.4.4 1.8.7s.6.7.6 1.2c0 .6-.2 1-.7 1.4s-1 .5-1.8.5-1.4-.2-1.9-.6-.7-.9-.7-1.4h1.1c0 .4.2.7.5.9.3.2.6.3 1 .3s.7-.1 1-.2.1-.9.1-1.1zM313.4 3.8v1.5h1.2v.9h-1.2V10c0 .3.1.5.2.6s.3.2.5.2h.2c.1 0 .2 0 .2-.1l.2.8c-.1.1-.2.1-.4.2s-.3.1-.5.1c-.5 0-.8-.1-1.1-.4s-.4-.7-.4-1.3V6.2h-1v-.9h1V3.8h1.1zM324.4 8.7c0 .9-.2 1.7-.7 2.2s-1 .8-1.8.8c-.4 0-.7-.1-1-.2s-.5-.3-.8-.6V14H319V5.3h.9l.2.8c.2-.3.5-.5.8-.7s.7-.2 1.1-.2c.8 0 1.4.3 1.8.9s.7 1.4.7 2.5v.1zm-1.2-.1c0-.7-.1-1.3-.4-1.8-.3-.5-.7-.7-1.3-.7-.3 0-.6.1-.8.2s-.4.4-.6.6V10c.1.3.3.5.6.6s.5.2.9.2c.5 0 1-.2 1.2-.6.3-.4.4-.9.4-1.5v-.1zM328.4 11.8c-.9 0-1.6-.3-2.1-.9s-.8-1.4-.8-2.3v-.2c0-.9.3-1.7.8-2.3s1.2-.9 1.9-.9c.9 0 1.5.3 1.9.8s.7 1.2.7 2.1v.7h-4.1c0 .6.2 1.1.5 1.5s.7.6 1.2.6c.4 0 .7-.1 1-.2s.5-.3.8-.5l.5.8c-.2.2-.5.4-.9.6-.4.1-.8.2-1.4.2zm-.1-5.7c-.4 0-.7.2-1 .5s-.4.7-.5 1.2h2.9v-.1c0-.5-.1-.8-.4-1.1-.2-.3-.6-.5-1-.5zM335.1 6.3h-.6c-.3 0-.6.1-.8.2s-.4.3-.5.6v4.5H332V5.3h1l.1.9c.2-.3.4-.6.7-.8s.6-.3.9-.3h.4v1.2zM339.9 10c0-.3-.1-.5-.3-.6s-.6-.3-1.1-.4c-.8-.2-1.3-.4-1.7-.7-.4-.3-.6-.7-.6-1.2s.2-1 .7-1.3c.4-.4 1-.5 1.7-.5s1.3.2 1.8.6.6.8.6 1.4h-1.1c0-.3-.1-.5-.3-.7s-.5-.3-.9-.3-.7.1-.9.3-.3.4-.3.7c0 .2.1.4.3.6s.5.3 1.1.4c.8.2 1.4.4 1.8.7s.6.7.6 1.2c0 .6-.2 1-.7 1.4s-1 .5-1.8.5-1.4-.2-1.9-.6-.7-.9-.7-1.4h1.1c0 .4.2.7.5.9.3.2.6.3 1 .3s.7-.1 1-.2.1-.9.1-1.1zM342.3 8.4c0-.9.3-1.7.8-2.3s1.2-.9 2.1-.9c.9 0 1.6.3 2.1.9s.8 1.4.8 2.3v.1c0 .9-.3 1.7-.8 2.3s-1.2.9-2.1.9-1.6-.3-2.1-.9-.8-1.4-.8-2.3v-.1zm1.1.2c0 .7.1 1.2.4 1.7.3.4.7.7 1.3.7.6 0 1-.2 1.3-.7.3-.4.4-1 .4-1.7v-.2c0-.7-.1-1.2-.4-1.7-.3-.4-.7-.7-1.3-.7-.6 0-1 .2-1.3.7-.3.4-.4 1-.4 1.7v.2zM350.4 5.3l.1.9c.2-.3.5-.6.8-.8s.7-.3 1.1-.3c.7 0 1.2.2 1.6.6s.6 1 .6 1.9v4h-1.2v-4c0-.6-.1-1-.3-1.2s-.6-.4-1-.4c-.3 0-.6.1-.9.2s-.5.4-.6.7v4.6h-1.2V5.3h1zM360.7 3.8v1.5h1.2v.9h-1.2V10c0 .3.1.5.2.6s.3.2.5.2h.2c.1 0 .2 0 .2-.1l.2.8c-.1.1-.2.1-.4.2s-.3.1-.5.1c-.5 0-.8-.1-1.1-.4s-.4-.7-.4-1.3V6.2h-1v-.9h1V3.8h1.1zM363 8.4c0-.9.3-1.7.8-2.3s1.2-.9 2.1-.9c.9 0 1.6.3 2.1.9s.8 1.4.8 2.3v.1c0 .9-.3 1.7-.8 2.3s-1.2.9-2.1.9-1.6-.3-2.1-.9-.8-1.3-.8-2.2v-.2zm1.2.2c0 .7.1 1.2.4 1.7.3.4.7.7 1.3.7.6 0 1-.2 1.3-.7.3-.4.4-1 .4-1.7v-.2c0-.7-.1-1.2-.4-1.7-.3-.4-.7-.7-1.3-.7-.6 0-1 .2-1.3.7-.3.4-.4 1-.4 1.7v.2zM374.7 9.4l.1.8.2-.8 1.3-4h.9l1.3 4 .2.9.2-.9 1-4h1.1l-1.8 6.3h-.9l-1.2-3.9-.3-1.1-.3 1.1-1.2 3.9h-.9l-1.8-6.3h1.1l1 4zM381.9 8.4c0-.9.3-1.7.8-2.3s1.2-.9 2.1-.9c.9 0 1.6.3 2.1.9s.8 1.4.8 2.3v.1c0 .9-.3 1.7-.8 2.3s-1.2.9-2.1.9-1.6-.3-2.1-.9-.8-1.4-.8-2.3v-.1zm1.2.2c0 .7.1 1.2.4 1.7.3.4.7.7 1.3.7.6 0 1-.2 1.3-.7.3-.4.4-1 .4-1.7v-.2c0-.7-.1-1.2-.4-1.7-.3-.4-.7-.7-1.3-.7-.6 0-1 .2-1.3.7-.3.4-.4 1-.4 1.7v.2zM392 6.3h-.6c-.3 0-.6.1-.8.2s-.4.3-.5.6v4.5H389V5.3h1l.1.9c.2-.3.4-.6.7-.8s.6-.3.9-.3h.4l-.1 1.2zM395 8.7h-.8v2.9H393V2.5h1.2v5.3h.7l1.7-2.5h1.4l-2 2.9 2.5 3.5h-1.4l-2.1-3zM403.9 9.4l.1.8.2-.8 1.3-4h.9l1.3 4 .2.9.2-.9 1-4h1.1l-1.8 6.3h-.9l-1.2-3.9-.3-1.1-.3 1.1-1.2 3.9h-.9l-1.8-6.3h1.1l1 4zM412.6 3.7h-1.2V2.5h1.2v1.2zm0 8h-1.2V5.3h1.2v6.4zM415.9 3.8v1.5h1.2v.9h-1.2V10c0 .3.1.5.2.6s.3.2.5.2h.2c.1 0 .2 0 .2-.1l.2.8c-.1.1-.2.1-.4.2s-.3.1-.5.1c-.5 0-.8-.1-1.1-.4s-.4-.7-.4-1.3V6.2h-1v-.9h1V3.8h1.1zM419.7 6.2c.2-.3.5-.5.8-.7s.7-.3 1.1-.3c.7 0 1.2.2 1.6.6s.6 1 .6 1.9v4h-1.2v-4c0-.5-.1-.9-.3-1.2s-.6-.4-1-.4c-.3 0-.6.1-.9.2s-.5.4-.6.6v4.7h-1.2V2.5h1.2v3.7zM426.6 11.7h-1.2v-1.2h1.2v1.2z"/><g><path class="st0" d="M64.6 27.7h-1.2v-8.5h1.2v8.5zM67.7 19.7l-.9 2h-.6l.4-2v-1.1h1.2v1.1zM71.1 25.8l.1.4.1-.4 1.5-4.5H74l-2.3 6.3h-.9l-2.4-6.3h1.2l1.5 4.5zM77.6 27.8c-.9 0-1.6-.3-2.1-.9s-.8-1.4-.8-2.3v-.3c0-.9.3-1.7.8-2.3s1.2-.9 1.9-.9c.9 0 1.5.3 1.9.8s.7 1.3.7 2.1v.7h-4.1c0 .6.2 1.1.5 1.5s.7.6 1.2.6c.4 0 .7-.1 1-.2s.5-.3.8-.5l.5.8c-.2.2-.5.4-.9.6-.4.2-.9.3-1.4.3zm-.2-5.7c-.4 0-.7.2-1 .5s-.4.7-.5 1.2h2.9v-.2c0-.5-.1-.8-.4-1.1-.1-.2-.5-.4-1-.4zM85.5 22.2c.2-.3.5-.5.8-.7s.7-.3 1.1-.3c.7 0 1.2.2 1.6.6s.6 1 .6 1.9v4h-1.2v-4c0-.5-.1-.9-.3-1.2s-.6-.4-1-.4c-.3 0-.6.1-.9.2s-.5.4-.6.6v4.7h-1.2v-9.1h1.2v3.7zM92.4 19.7h-1.2v-1.2h1.2v1.2zm0 8h-1.2v-6.3h1.2v6.3zM97.1 22.3h-.6c-.3 0-.6.1-.8.2s-.4.3-.5.6v4.5H94v-6.3h1l.1.9c.2-.3.4-.6.7-.8s.6-.3.9-.3h.4v1.2zM100.8 27.8c-.9 0-1.6-.3-2.1-.9s-.8-1.4-.8-2.3v-.3c0-.9.3-1.7.8-2.3s1.2-.9 1.9-.9c.9 0 1.5.3 1.9.8s.7 1.2.7 2.1v.7h-4.1c0 .6.2 1.1.5 1.5s.7.6 1.2.6c.4 0 .7-.1 1-.2s.5-.3.8-.5l.4.9c-.2.2-.5.4-.9.6-.3.1-.8.2-1.3.2zm-.2-5.7c-.4 0-.7.2-1 .5s-.4.7-.5 1.2h2.9v-.2c0-.5-.1-.8-.4-1.1-.2-.2-.5-.4-1-.4zM104.2 24.6c0-1 .2-1.8.7-2.5s1-.9 1.8-.9c.4 0 .7.1 1 .2s.5.3.7.6v-3.5h1.2v9.1h-.9l-.1-.8c-.2.3-.5.5-.8.7s-.7.2-1 .2c-.8 0-1.4-.3-1.8-.8s-.7-1.3-.7-2.2v-.1zm1.2.1c0 .6.1 1.2.4 1.5s.7.6 1.2.6c.3 0 .6-.1.9-.2s.4-.4.6-.7v-3c-.1-.3-.3-.5-.6-.6s-.5-.2-.9-.2c-.6 0-1 .2-1.2.7s-.4 1.1-.4 1.8v.1zM118.2 27.7c0-.2-.1-.4-.1-.5v-.4c-.2.3-.5.6-.8.8s-.7.3-1.1.3c-.7 0-1.2-.2-1.5-.5s-.5-.8-.5-1.4c0-.6.2-1.1.7-1.4s1.2-.5 2-.5h1.3v-.6c0-.4-.1-.7-.3-.9s-.5-.3-1-.3c-.4 0-.7.1-.9.3s-.3.4-.3.7h-1.1c0-.5.2-.9.7-1.3s1.1-.6 1.8-.6 1.3.2 1.7.5.7.9.7 1.6v3.8c0 .3.1.4.1.6h-1.4zm-1.9-.9c.4 0 .8-.1 1.1-.3s.6-.5.7-.7v-1h-1.3c-.5 0-.8.1-1.1.4s-.4.5-.4.8c0 .3.1.5.3.7.1 0 .3.1.7.1zM125.1 27.7H124v-9.1h1.2v9.1zM126.6 24.4c0-.9.3-1.7.8-2.3s1.2-.9 2.1-.9c.9 0 1.6.3 2.1.9s.8 1.4.8 2.3v.1c0 .9-.3 1.7-.8 2.3s-1.2.9-2.1.9-1.6-.3-2.1-.9-.8-1.4-.8-2.3v-.1zm1.2.2c0 .7.1 1.2.4 1.7.3.4.7.7 1.3.7.6 0 1-.2 1.3-.7.3-.4.4-1 .4-1.7v-.1c0-.7-.1-1.2-.4-1.7-.3-.4-.7-.7-1.3-.7-.6 0-1 .2-1.3.7-.3.4-.4 1-.4 1.7v.1zM135.2 19.8v1.5h1.2v.9h-1.2V26c0 .3.1.5.2.6s.3.2.5.2h.2c.1 0 .2 0 .2-.1l.2.8c-.1.1-.2.1-.4.2s-.3.1-.5.1c-.5 0-.8-.1-1.1-.4s-.4-.7-.4-1.3v-3.8h-1v-.9h1v-1.5h1.1zM140.6 24.4c0-.9.3-1.7.8-2.3s1.2-.9 2.1-.9c.9 0 1.6.3 2.1.9s.8 1.4.8 2.3v.1c0 .9-.3 1.7-.8 2.3s-1.2.9-2.1.9-1.6-.3-2.1-.9-.8-1.4-.8-2.3v-.1zm1.1.2c0 .7.1 1.2.4 1.7.3.4.7.7 1.3.7.6 0 1-.2 1.3-.7.3-.4.4-1 .4-1.7v-.1c0-.7-.1-1.2-.4-1.7-.3-.4-.7-.7-1.3-.7-.6 0-1 .2-1.3.7-.3.4-.4 1-.4 1.7v.1zM148.1 27.7v-5.5h-1v-.9h1v-.8c0-.7.2-1.2.5-1.6s.8-.6 1.5-.6h.4c.1 0 .3.1.4.1l-.1.9h-.6c-.3 0-.6.1-.8.3s-.2.5-.2.9v.8h1.3v.9h-1.3v5.5h-1.1zM155.3 27.7v-5.5h-1v-.9h1v-.8c0-.7.2-1.2.5-1.6s.8-.6 1.5-.6h.4c.1 0 .3.1.4.1l-.1.9h-.6c-.3 0-.6.1-.8.3s-.2.5-.2.9v.8h1.3v.9h-1.3v5.5h-1.1zM161.9 22.3h-.6c-.3 0-.6.1-.8.2s-.4.3-.5.6v4.5h-1.2v-6.3h1l.1.9c.2-.3.4-.6.7-.8s.6-.3.9-.3h.4v1.2zM165.6 27.8c-.9 0-1.6-.3-2.1-.9s-.8-1.4-.8-2.3v-.3c0-.9.3-1.7.8-2.3s1.2-.9 1.9-.9c.9 0 1.5.3 1.9.8s.7 1.2.7 2.1v.7h-4.1c0 .6.2 1.1.5 1.5s.7.6 1.2.6c.4 0 .7-.1 1-.2s.5-.3.8-.5l.5.8c-.2.2-.5.4-.9.6-.5.2-.9.3-1.4.3zm-.2-5.7c-.4 0-.7.2-1 .5s-.4.7-.5 1.2h2.9v-.2c0-.5-.1-.8-.4-1.1-.2-.2-.5-.4-1-.4zM171.9 27.8c-.9 0-1.6-.3-2.1-.9s-.8-1.4-.8-2.3v-.3c0-.9.3-1.7.8-2.3s1.2-.9 1.9-.9c.9 0 1.5.3 1.9.8s.7 1.2.7 2.1v.7h-4.1c0 .6.2 1.1.5 1.5s.7.6 1.2.6c.4 0 .7-.1 1-.2s.5-.3.8-.5l.5.8c-.2.2-.5.4-.9.6-.4.2-.9.3-1.4.3zm-.2-5.7c-.4 0-.7.2-1 .5s-.4.7-.5 1.2h2.9v-.2c0-.5-.1-.8-.4-1.1-.1-.2-.5-.4-1-.4zM176.9 27.7h-1.2v-9.1h1.2v9.1zM182.6 27.7c0-.2-.1-.4-.1-.5v-.4c-.2.3-.5.6-.8.8s-.7.3-1.1.3c-.7 0-1.2-.2-1.5-.5s-.5-.8-.5-1.4c0-.6.2-1.1.7-1.4s1.2-.5 2-.5h1.3v-.6c0-.4-.1-.7-.3-.9s-.5-.3-1-.3c-.4 0-.7.1-.9.3s-.3.4-.3.7H179c0-.5.2-.9.7-1.3s1.1-.6 1.8-.6 1.3.2 1.7.5.7.9.7 1.6v3.8c0 .3.1.4.1.6h-1.4zm-2-.9c.4 0 .8-.1 1.1-.3s.6-.5.7-.7v-1h-1.3c-.5 0-.8.1-1.1.4s-.4.5-.4.8c0 .3.1.5.3.7.1 0 .4.1.7.1zM186.3 21.3l.1.9c.2-.3.5-.6.8-.8s.7-.3 1.1-.3c.7 0 1.2.2 1.6.6s.6 1 .6 1.9v4h-1.2v-4c0-.6-.1-1-.3-1.2s-.6-.4-1-.4c-.3 0-.6.1-.9.2s-.5.4-.6.7v4.6h-1.2v-6.3h1zM194.6 26.9c.4 0 .7-.1 1-.4s.4-.5.4-.9h1c0 .5-.2 1-.7 1.5s-1.1.6-1.8.6c-.9 0-1.6-.3-2.1-.9s-.7-1.4-.7-2.3v-.2c0-.9.2-1.7.7-2.3s1.2-.9 2.1-.9c.7 0 1.3.2 1.8.7s.7 1 .7 1.6h-1c0-.4-.1-.7-.4-1s-.6-.4-1-.4c-.6 0-1 .2-1.3.7-.3.4-.4 1-.4 1.6v.2c0 .6.1 1.2.4 1.6.3.6.7.8 1.3.8zM201.1 27.8c-.9 0-1.6-.3-2.1-.9s-.8-1.4-.8-2.3v-.3c0-.9.3-1.7.8-2.3s1.2-.9 1.9-.9c.9 0 1.5.3 1.9.8s.7 1.2.7 2.1v.7h-4.1c0 .6.2 1.1.5 1.5s.7.6 1.2.6c.4 0 .7-.1 1-.2s.5-.3.8-.5l.5.8c-.2.2-.5.4-.9.6-.5.2-.9.3-1.4.3zm-.2-5.7c-.4 0-.7.2-1 .5s-.4.7-.5 1.2h2.9v-.2c0-.5-.1-.8-.4-1.1-.2-.2-.5-.4-1-.4zM207.8 22.3h-.6c-.3 0-.6.1-.8.2s-.4.3-.5.6v4.5h-1.2v-6.3h1l.1.9c.2-.3.4-.6.7-.8s.6-.3.9-.3h.4v1.2zM212.6 26c0-.3-.1-.5-.3-.6s-.6-.3-1.1-.4c-.8-.2-1.3-.4-1.7-.7-.4-.3-.6-.7-.6-1.2s.2-1 .7-1.3c.4-.4 1-.5 1.7-.5s1.3.2 1.8.6.6.8.6 1.4h-1.1c0-.3-.1-.5-.3-.7s-.5-.3-.9-.3-.7.1-.9.3-.5.2-.5.4.1.4.3.6.5.3 1.1.4c.8.2 1.4.4 1.8.7s.6.7.6 1.2c0 .6-.2 1-.7 1.4s-1 .5-1.8.5-1.4-.2-1.9-.6-.7-.9-.7-1.4h1.1c0 .4.2.7.5.9.3.2.6.3 1 .3s.7-.1 1-.2.3-.6.3-.8zM222.1 27.7c0-.2-.1-.4-.1-.5v-.4c-.2.3-.5.6-.8.8s-.7.3-1.1.3c-.7 0-1.2-.2-1.5-.5s-.5-.8-.5-1.4c0-.6.2-1.1.7-1.4s1.2-.5 2-.5h1.3v-.6c0-.4-.1-.7-.3-.9s-.5-.3-1-.3c-.4 0-.7.1-.9.3s-.3.4-.3.7h-1.1c0-.5.2-.9.7-1.3s1.1-.6 1.8-.6 1.3.2 1.7.5.7.9.7 1.6v3.8c0 .3.1.4.1.6h-1.4zm-2-.9c.4 0 .8-.1 1.1-.3s.6-.5.7-.7v-1h-1.3c-.5 0-.8.1-1.1.4s-.4.5-.4.8c0 .3.1.5.3.7.1 0 .4.1.7.1zM225.8 21.3l.1.9c.2-.3.5-.6.8-.8s.7-.3 1.1-.3c.7 0 1.2.2 1.6.6s.6 1 .6 1.9v4h-1.2v-4c0-.6-.1-1-.3-1.2s-.6-.4-1-.4c-.3 0-.6.1-.9.2s-.5.4-.6.7v4.6h-1.2v-6.3h1zM231.3 24.6c0-1 .2-1.8.7-2.5s1-.9 1.8-.9c.4 0 .7.1 1 .2s.5.3.7.6v-3.5h1.2v9.1h-.9l-.1-.8c-.2.3-.5.5-.8.7s-.7.2-1 .2c-.8 0-1.4-.3-1.8-.8s-.7-1.3-.7-2.2v-.1zm1.2.1c0 .6.1 1.2.4 1.5s.7.6 1.2.6c.3 0 .6-.1.9-.2s.4-.4.6-.7v-3c-.1-.3-.3-.5-.6-.6s-.5-.2-.9-.2c-.6 0-1 .2-1.2.7s-.4 1.1-.4 1.8v.1zM245 19.1h1.2v6.2c0 .8-.2 1.4-.7 1.8s-1.1.7-1.9.7c-.8 0-1.5-.2-2-.6s-.7-1-.7-1.8h1.1c0 .5.1.9.4 1.2s.6.4 1.1.4c.4 0 .8-.1 1-.4.3-.3.4-.7.4-1.2v-6.3zM251.9 27.7c0-.2-.1-.4-.1-.5v-.4c-.2.3-.5.6-.8.8s-.7.3-1.1.3c-.7 0-1.2-.2-1.5-.5s-.5-.8-.5-1.4c0-.6.2-1.1.7-1.4s1.2-.5 2-.5h1.3v-.6c0-.4-.1-.7-.3-.9s-.5-.3-1-.3c-.4 0-.7.1-.9.3s-.3.4-.3.7h-1.1c0-.5.2-.9.7-1.3s1.1-.6 1.8-.6 1.3.2 1.7.5.7.9.7 1.6v3.8c0 .3.1.4.1.6h-1.4zm-1.9-.9c.4 0 .8-.1 1.1-.3s.6-.5.7-.7v-1h-1.3c-.5 0-.8.1-1.1.4s-.4.5-.4.8c0 .3.1.5.3.7.1 0 .3.1.7.1zM257.6 22.3h-.6c-.3 0-.6.1-.8.2s-.4.3-.5.6v4.5h-1.2v-6.3h1l.1.9c.2-.3.4-.6.7-.8s.6-.3.9-.3h.4v1.2zM258.3 24.4c0-.9.3-1.7.8-2.3s1.2-.9 2.1-.9c.9 0 1.6.3 2.1.9s.8 1.4.8 2.3v.1c0 .9-.3 1.7-.8 2.3s-1.2.9-2.1.9-1.6-.3-2.1-.9-.8-1.4-.8-2.3v-.1zm1.2.2c0 .7.1 1.2.4 1.7.3.4.7.7 1.3.7.6 0 1-.2 1.3-.7.3-.4.4-1 .4-1.7v-.1c0-.7-.1-1.2-.4-1.7-.3-.4-.7-.7-1.3-.7-.6 0-1 .2-1.3.7-.3.4-.4 1-.4 1.7v.1zM266.4 21.3l.1.9c.2-.3.5-.6.8-.8s.7-.3 1.1-.3c.7 0 1.2.2 1.6.6s.6 1 .6 1.9v4h-1.2v-4c0-.6-.1-1-.3-1.2s-.6-.4-1-.4c-.3 0-.6.1-.9.2s-.5.4-.6.7v4.6h-1.2v-6.3h1zM276.5 19.7h-1.2v-1.2h1.2v1.2zm0 8h-1.2v-6.3h1.2v6.3zM281.9 26c0-.3-.1-.5-.3-.6s-.6-.3-1.1-.4c-.8-.2-1.3-.4-1.7-.7-.4-.3-.6-.7-.6-1.2s.2-1 .7-1.3c.4-.4 1-.5 1.7-.5s1.3.2 1.8.6.6.8.6 1.4h-1.1c0-.3-.1-.5-.3-.7s-.5-.3-.9-.3-.7.1-.9.3-.3.4-.3.7c0 .2.1.4.3.6s.5.3 1.1.4c.8.2 1.4.4 1.8.7s.6.7.6 1.2c0 .6-.2 1-.7 1.4s-1 .5-1.8.5-1.4-.2-1.9-.6-.7-.9-.7-1.4h1.1c0 .4.2.7.5.9.3.2.6.3 1 .3s.7-.1 1-.2.1-.9.1-1.1zM290.1 27.8c-.9 0-1.6-.3-2.1-.9s-.8-1.4-.8-2.3v-.3c0-.9.3-1.7.8-2.3s1.2-.9 1.9-.9c.9 0 1.5.3 1.9.8s.7 1.2.7 2.1v.7h-4.1c0 .6.2 1.1.5 1.5s.7.6 1.2.6c.4 0 .7-.1 1-.2s.5-.3.8-.5l.5.8c-.2.2-.5.4-.9.6-.4.2-.8.3-1.4.3zm-.1-5.7c-.4 0-.7.2-1 .5s-.4.7-.5 1.2h2.9v-.2c0-.5-.1-.8-.4-1.1-.2-.2-.6-.4-1-.4zM297.7 27.7c0-.2-.1-.4-.1-.5v-.4c-.2.3-.5.6-.8.8s-.7.3-1.1.3c-.7 0-1.2-.2-1.5-.5s-.5-.8-.5-1.4c0-.6.2-1.1.7-1.4s1.2-.5 2-.5h1.3v-.6c0-.4-.1-.7-.3-.9s-.5-.3-1-.3c-.4 0-.7.1-.9.3s-.3.4-.3.7H294c0-.5.2-.9.7-1.3s1.1-.6 1.8-.6 1.3.2 1.7.5.7.9.7 1.6v3.8c0 .3.1.4.1.6h-1.3zm-1.9-.9c.4 0 .8-.1 1.1-.3s.6-.5.7-.7v-1h-1.3c-.5 0-.8.1-1.1.4s-.4.5-.4.8c0 .3.1.5.3.7.1 0 .4.1.7.1zM304.1 26c0-.3-.1-.5-.3-.6s-.6-.3-1.1-.4c-.8-.2-1.3-.4-1.7-.7-.4-.3-.6-.7-.6-1.2s.2-1 .7-1.3c.4-.4 1-.5 1.7-.5s1.3.2 1.8.6.6.8.6 1.4h-1.1c0-.3-.1-.5-.3-.7s-.5-.3-.9-.3-.7.1-.9.3-.3.4-.3.7c0 .2.1.4.3.6s.5.3 1.1.4c.8.2 1.4.4 1.8.7s.6.7.6 1.2c0 .6-.2 1-.7 1.4s-1 .5-1.8.5-1.4-.2-1.9-.6-.7-.9-.7-1.4h1.1c0 .4.2.7.5.9.3.2.6.3 1 .3s.7-.1 1-.2.1-.9.1-1.1zM308 19.7h-1.2v-1.2h1.2v1.2zm0 8h-1.2v-6.3h1.2v6.3zM311 27.7h-1.2v-9.1h1.2v9.1zM314.7 25.3l.2.8 1.6-4.8h1.3l-2.7 7.3c-.2.4-.4.8-.7 1.1s-.7.5-1.2.5h-.4c-.2 0-.3 0-.3-.1l.1-.9h.5c.2 0 .4-.1.6-.3s.3-.5.4-.7l.3-.7-2.4-6.2h1.3l1.4 4zM323.3 19.8v1.5h1.2v.9h-1.2V26c0 .3.1.5.2.6s.3.2.5.2h.2c.1 0 .2 0 .2-.1l.2.8c-.1.1-.2.1-.4.2s-.3.1-.5.1c-.5 0-.8-.1-1.1-.4s-.4-.7-.4-1.3v-3.8h-1v-.9h1v-1.5h1.1zM327.1 22.2c.2-.3.5-.5.8-.7s.7-.3 1.1-.3c.7 0 1.2.2 1.6.6s.6 1 .6 1.9v4H330v-4c0-.5-.1-.9-.3-1.2s-.6-.4-1-.4c-.3 0-.6.1-.9.2s-.5.4-.6.6v4.7H326v-9.1h1.2v3.7zM335.4 27.8c-.9 0-1.6-.3-2.1-.9s-.8-1.4-.8-2.3v-.3c0-.9.3-1.7.8-2.3s1.2-.9 1.9-.9c.9 0 1.5.3 1.9.8s.7 1.2.7 2.1v.7h-4.1c0 .6.2 1.1.5 1.5s.7.6 1.2.6c.4 0 .7-.1 1-.2s.5-.3.8-.5l.5.8c-.2.2-.5.4-.9.6-.4.2-.9.3-1.4.3zm-.2-5.7c-.4 0-.7.2-1 .5s-.4.7-.5 1.2h2.9v-.2c0-.5-.1-.8-.4-1.1-.2-.2-.5-.4-1-.4zM347.5 24.7c0 .9-.2 1.7-.7 2.2s-1 .8-1.8.8c-.4 0-.8-.1-1.1-.2s-.6-.4-.8-.7l-.1.8h-.9v-9.1h1.2v3.6c.2-.3.4-.5.7-.6s.6-.2 1-.2c.8 0 1.4.3 1.8.9s.7 1.4.7 2.5zm-1.2-.1c0-.7-.1-1.3-.4-1.8s-.7-.7-1.2-.7c-.4 0-.7.1-.9.3s-.4.4-.6.7v2.7c.1.3.3.6.6.7s.5.3.9.3c.5 0 .9-.2 1.2-.6s.4-.9.4-1.5v-.1zM351.5 27.8c-.9 0-1.6-.3-2.1-.9s-.8-1.4-.8-2.3v-.3c0-.9.3-1.7.8-2.3s1.2-.9 1.9-.9c.9 0 1.5.3 1.9.8s.7 1.2.7 2.1v.7h-4.1c0 .6.2 1.1.5 1.5s.7.6 1.2.6c.4 0 .7-.1 1-.2s.5-.3.8-.5l.5.8c-.2.2-.5.4-.9.6-.4.2-.8.3-1.4.3zm-.1-5.7c-.4 0-.7.2-1 .5s-.4.7-.5 1.2h2.9v-.2c0-.5-.1-.8-.4-1.1-.2-.2-.6-.4-1-.4zM358.9 26c0-.3-.1-.5-.3-.6s-.6-.3-1.1-.4c-.8-.2-1.3-.4-1.7-.7-.4-.3-.6-.7-.6-1.2s.2-1 .7-1.3c.4-.4 1-.5 1.7-.5s1.3.2 1.8.6.6.8.6 1.4h-1.1c0-.3-.1-.5-.3-.7s-.5-.3-.9-.3-.7.1-.9.3-.3.4-.3.7c0 .2.1.4.3.6s.5.3 1.1.4c.8.2 1.4.4 1.8.7s.6.7.6 1.2c0 .6-.2 1-.7 1.4s-1 .5-1.8.5-1.4-.2-1.9-.6-.7-.9-.7-1.4h1.1c0 .4.2.7.5.9.3.2.6.3 1 .3s.7-.1 1-.2.1-.9.1-1.1zM363 19.8v1.5h1.2v.9H363V26c0 .3.1.5.2.6s.3.2.5.2h.2c.1 0 .2 0 .2-.1l.2.8c-.1.1-.2.1-.4.2s-.3.1-.5.1c-.5 0-.8-.1-1.1-.4s-.4-.7-.4-1.3v-3.8h-1v-.9h1v-1.5h1.1zM368.4 24.4c0-.9.3-1.7.8-2.3s1.2-.9 2.1-.9c.9 0 1.6.3 2.1.9s.8 1.4.8 2.3v.1c0 .9-.3 1.7-.8 2.3s-1.2.9-2.1.9-1.6-.3-2.1-.9-.8-1.4-.8-2.3v-.1zm1.1.2c0 .7.1 1.2.4 1.7.3.4.7.7 1.3.7.6 0 1-.2 1.3-.7.3-.4.4-1 .4-1.7v-.1c0-.7-.1-1.2-.4-1.7-.3-.4-.7-.7-1.3-.7-.6 0-1 .2-1.3.7-.3.4-.4 1-.4 1.7v.1zM376.5 21.3l.1.9c.2-.3.5-.6.8-.8s.7-.3 1.1-.3c.7 0 1.2.2 1.6.6s.6 1 .6 1.9v4h-1.2v-4c0-.6-.1-1-.3-1.2s-.6-.4-1-.4c-.3 0-.6.1-.9.2s-.5.4-.6.7v4.6h-1.2v-6.3h1zM384.9 27.8c-.9 0-1.6-.3-2.1-.9s-.8-1.4-.8-2.3v-.3c0-.9.3-1.7.8-2.3s1.2-.9 1.9-.9c.9 0 1.5.3 1.9.8s.7 1.2.7 2.1v.7h-4.1c0 .6.2 1.1.5 1.5s.7.6 1.2.6c.4 0 .7-.1 1-.2s.5-.3.8-.5l.5.8c-.2.2-.5.4-.9.6-.4.2-.9.3-1.4.3zm-.2-5.7c-.4 0-.7.2-1 .5s-.4.7-.5 1.2h2.9v-.2c0-.5-.1-.8-.4-1.1-.1-.2-.5-.4-1-.4zM393.1 19.8v1.5h1.2v.9h-1.2V26c0 .3.1.5.2.6s.3.2.5.2h.2c.1 0 .2 0 .2-.1l.2.8c-.1.1-.2.1-.4.2s-.3.1-.5.1c-.5 0-.8-.1-1.1-.4s-.4-.8-.4-1.4v-3.8h-1v-.9h1v-1.5h1.1zM396.9 22.2c.2-.3.5-.5.8-.7s.7-.3 1.1-.3c.7 0 1.2.2 1.6.6s.6 1 .6 1.9v4h-1.2v-4c0-.5-.1-.9-.3-1.2s-.6-.4-1-.4c-.3 0-.6.1-.9.2s-.5.4-.6.6v4.7h-1.2v-9.1h1.2v3.7zM406.5 27.7c0-.2-.1-.4-.1-.5v-.4c-.2.3-.5.6-.8.8s-.7.3-1.1.3c-.7 0-1.2-.2-1.5-.5s-.5-.8-.5-1.4c0-.6.2-1.1.7-1.4s1.2-.5 2-.5h1.3v-.6c0-.4-.1-.7-.3-.9s-.5-.3-1-.3c-.4 0-.7.1-.9.3s-.3.4-.3.7h-1.1c0-.5.2-.9.7-1.3s1.1-.6 1.8-.6 1.3.2 1.7.5.7.9.7 1.6v3.8c0 .3.1.4.1.6h-1.4zm-1.9-.9c.4 0 .8-.1 1.1-.3s.6-.5.7-.7v-1h-1.3c-.5 0-.8.1-1.1.4s-.4.5-.4.8c0 .3.1.5.3.7.1 0 .3.1.7.1zM410.7 19.8v1.5h1.2v.9h-1.2V26c0 .3.1.5.2.6s.3.2.5.2h.2c.1 0 .2 0 .2-.1l.2.8c-.1.1-.2.1-.4.2s-.3.1-.5.1c-.5 0-.8-.1-1.1-.4s-.4-.7-.4-1.3v-3.8h-1v-.9h1v-1.5h1.1zM417.6 19.7h-1.2v-1.2h1.2v1.2zm0 8h-1.2v-6.3h1.2v6.3zM420.5 19.7l-.9 2h-.6l.4-2v-1.1h1.2v1.1zM423.9 25.8l.1.4.1-.4 1.5-4.5h1.2l-2.3 6.3h-.9l-2.4-6.3h1.2l1.5 4.5zM430.4 27.8c-.9 0-1.6-.3-2.1-.9s-.8-1.4-.8-2.3v-.3c0-.9.3-1.7.8-2.3s1.2-.9 1.9-.9c.9 0 1.5.3 1.9.8s.7 1.2.7 2.1v.7h-4.1c0 .6.2 1.1.5 1.5s.7.6 1.2.6c.4 0 .7-.1 1-.2s.5-.3.8-.5l.5.8c-.2.2-.5.4-.9.6-.4.2-.9.3-1.4.3zm-.2-5.7c-.4 0-.7.2-1 .5s-.4.7-.5 1.2h2.9v-.2c0-.5-.1-.8-.4-1.1-.2-.2-.5-.4-1-.4zM438.7 25.4l.1.8.2-.8 1.3-4h.9l1.3 4 .2.9.2-.9 1-4h1.1l-1.8 6.3h-.9l-1.2-3.9-.3-1.1-.3 1.1-1.2 3.9h-.9l-1.8-6.3h1.1l1 4zM445.9 24.4c0-.9.3-1.7.8-2.3s1.2-.9 2.1-.9c.9 0 1.6.3 2.1.9s.8 1.4.8 2.3v.1c0 .9-.3 1.7-.8 2.3s-1.2.9-2.1.9-1.6-.3-2.1-.9-.8-1.4-.8-2.3v-.1zm1.1.2c0 .7.1 1.2.4 1.7.3.4.7.7 1.3.7.6 0 1-.2 1.3-.7.3-.4.4-1 .4-1.7v-.1c0-.7-.1-1.2-.4-1.7-.3-.4-.7-.7-1.3-.7-.6 0-1 .2-1.3.7-.3.4-.4 1-.4 1.7v.1zM456 22.3h-.6c-.3 0-.6.1-.8.2s-.4.3-.5.6v4.5H453v-6.3h1l.1.9c.2-.3.4-.6.7-.8s.6-.3.9-.3h.4l-.1 1.2zM459 24.7h-.8v2.9H457v-9.1h1.2v5.3h.7l1.7-2.5h1.4l-2.2 2.9 2.5 3.5h-1.4l-1.9-3zM465.8 27.8c-.9 0-1.6-.3-2.1-.9s-.8-1.4-.8-2.3v-.3c0-.9.3-1.7.8-2.3s1.2-.9 1.9-.9c.9 0 1.5.3 1.9.8s.7 1.2.7 2.1v.7h-4.1c0 .6.2 1.1.5 1.5s.7.6 1.2.6c.4 0 .7-.1 1-.2s.5-.3.8-.5l.4.9c-.2.2-.5.4-.9.6-.4.1-.8.2-1.3.2zm-.2-5.7c-.4 0-.7.2-1 .5s-.4.7-.5 1.2h2.9v-.2c0-.5-.1-.8-.4-1.1-.2-.2-.5-.4-1-.4zM469.2 24.6c0-1 .2-1.8.7-2.5s1-.9 1.8-.9c.4 0 .7.1 1 .2s.5.3.7.6v-3.5h1.2v9.1h-.9l-.1-.8c-.2.3-.5.5-.8.7s-.7.2-1 .2c-.8 0-1.4-.3-1.8-.8s-.7-1.3-.7-2.2v-.1zm1.2.1c0 .6.1 1.2.4 1.5s.7.6 1.2.6c.3 0 .6-.1.9-.2s.4-.4.6-.7v-3c-.1-.3-.3-.5-.6-.6s-.5-.2-.9-.2c-.6 0-1 .2-1.2.7s-.4 1.1-.4 1.8v.1zM480.9 25.4l.1.8.2-.8 1.3-4h.9l1.3 4 .2.9.2-.9 1-4h1.1l-1.8 6.3h-.9l-1.2-3.9-.3-1.1-.3 1.1-1.2 3.9h-.9l-1.8-6.3h1.1l1 4zM489.6 19.7h-1.2v-1.2h1.2v1.2zm0 8h-1.2v-6.3h1.2v6.3zM492.9 19.8v1.5h1.2v.9h-1.2V26c0 .3.1.5.2.6s.3.2.5.2h.2c.1 0 .2 0 .2-.1l.2.8c-.1.1-.2.1-.4.2s-.3.1-.5.1c-.5 0-.8-.1-1.1-.4s-.4-.7-.4-1.3v-3.8h-1v-.9h1v-1.5h1.1zM496.7 22.2c.2-.3.5-.5.8-.7s.7-.3 1.1-.3c.7 0 1.2.2 1.6.6s.6 1 .6 1.9v4h-1.2v-4c0-.5-.1-.9-.3-1.2s-.6-.4-1-.4c-.3 0-.6.1-.9.2s-.5.4-.6.6v4.7h-1.2v-9.1h1.2v3.7zM503.7 24.9h-1.2v-5.7h1.2v5.7zm0 2.8h-1.2v-1.2h1.2v1.2zM506.6 19.7l-.9 2h-.6l.4-2v-1.1h1.2v1.1zm2 0l-.9 2h-.6l.4-2v-1.1h1.2v1.1z"/></g><g><path class="st1" d="M358.2 47.3H354V46h4.2v1.3zM368.2 48.8l.3 1h.1l.3-1 3.3-9.5h1.8l-4.7 12.6h-1.5l-4.7-12.6h1.9l3.2 9.5zM378.9 52.1c-1.3 0-2.3-.4-3.1-1.3-.8-.9-1.2-2-1.2-3.4V47c0-1.3.4-2.4 1.2-3.3s1.7-1.3 2.8-1.3c1.3 0 2.2.4 2.9 1.1.6.8 1 1.8 1 3v1.1h-6.1c0 .9.2 1.6.7 2.2.4.6 1.1.9 1.8.9.6 0 1.1-.1 1.5-.2.4-.2.8-.4 1.1-.7l.7 1.1c-.3.3-.8.6-1.3.8-.6.3-1.2.4-2 .4zm-.3-8.4c-.6 0-1.1.2-1.5.7s-.7 1.1-.7 1.8h4.3V46c0-.7-.2-1.2-.5-1.7-.3-.4-.9-.6-1.6-.6zM384 47.4c0-1.5.3-2.7 1-3.6.7-.9 1.6-1.4 2.7-1.4.6 0 1.1.1 1.6.4.5.2.8.6 1.1 1l.2-1.2h1.4V52c0 1.2-.3 2.1-1 2.8-.7.6-1.7 1-3 1-.5 0-.9-.1-1.5-.2-.5-.1-1-.3-1.4-.5l.4-1.3c.3.2.7.3 1.1.4.4.1.9.2 1.3.2.8 0 1.4-.2 1.8-.6.4-.4.6-1 .6-1.7V51c-.3.4-.7.7-1.1.9-.4.2-.9.3-1.5.3-1.1 0-2.1-.4-2.7-1.2-.7-.8-1-1.9-1-3.3v-.3zm1.7.2c0 .9.2 1.7.6 2.3.4.6 1 .9 1.8.9.5 0 .9-.1 1.3-.4.3-.2.6-.6.9-1v-4.3c-.2-.4-.5-.7-.9-.9-.4-.2-.8-.4-1.3-.4-.8 0-1.4.3-1.8 1s-.6 1.6-.6 2.6v.2zM400.2 51.9c-.1-.3-.1-.5-.1-.7 0-.2-.1-.4-.1-.7-.3.5-.7.8-1.2 1.1-.5.3-1.1.5-1.7.5-1 0-1.7-.2-2.2-.7-.5-.5-.8-1.2-.8-2.1 0-.9.4-1.6 1.1-2.1.7-.5 1.7-.8 3-.8h1.9v-.9c0-.5-.2-1-.5-1.3s-.8-.5-1.4-.5c-.5 0-1 .1-1.3.4s-.5.6-.5 1h-1.6V45c0-.7.3-1.3 1-1.9.7-.6 1.6-.8 2.6-.8 1.1 0 1.9.3 2.6.8.6.5 1 1.3 1 2.3V50c0 .3 0 .7.1 1 0 .3.1.6.2.9h-2.1zm-2.8-1.2c.6 0 1.2-.2 1.7-.5s.8-.7 1-1.1v-1.5h-1.9c-.7 0-1.2.2-1.7.5-.4.3-.6.8-.6 1.2 0 .4.1.7.4 1 .2.2.6.4 1.1.4zM405.8 42.5l.1 1.4c.3-.5.7-.9 1.2-1.2s1-.4 1.6-.4c1 0 1.8.3 2.3.9.6.6.8 1.5.8 2.7v5.9h-1.7V46c0-.8-.2-1.4-.5-1.8s-.8-.5-1.5-.5c-.5 0-.9.1-1.3.4-.4.2-.7.6-.9 1v6.8h-1.7v-9.4h1.6zM425.3 47.7h1.7V49h-1.7v2.9h-1.7V49H418v-1l5.6-8.7h1.8v8.4zm-5.5 0h3.8v-5.9h-.1l-.2.4-3.5 5.5zM440.3 48.7H435l-1.2 3.2h-1.7l4.9-12.6h1.5l4.8 12.6h-1.7l-1.3-3.2zm-4.8-1.5h4.2l-2.1-5.7h-.1l-2 5.7zM451.1 46.4v5.5h-1.7V39.3h4.6c1.4 0 2.4.3 3.2.9.7.6 1.1 1.5 1.1 2.7 0 .6-.2 1.2-.5 1.7s-.8.9-1.5 1.1c.7.2 1.2.6 1.5 1.1.3.5.5 1.1.5 1.9v1.2c0 .4 0 .7.1 1.1.1.3.2.6.5.8v.2H457c-.2-.2-.4-.5-.4-.9-.1-.4-.1-.8-.1-1.2v-1.2c0-.7-.2-1.2-.6-1.6s-.9-.6-1.6-.6h-3.2zm0-1.3h2.7c1 0 1.7-.2 2.1-.5.4-.4.6-.9.6-1.7 0-.7-.2-1.3-.6-1.6-.4-.4-1.1-.6-1.9-.6h-2.9v4.4zM464.7 52.1c-1.3 0-2.3-.4-3.1-1.3-.8-.9-1.2-2-1.2-3.4V47c0-1.3.4-2.4 1.2-3.3s1.7-1.3 2.8-1.3c1.3 0 2.2.4 2.9 1.1.6.8 1 1.8 1 3v1.1h-6.1c0 .9.2 1.6.7 2.2.4.6 1.1.9 1.8.9.6 0 1.1-.1 1.5-.2.4-.2.8-.4 1.1-.7l.7 1.1c-.3.3-.8.6-1.3.8-.6.3-1.2.4-2 .4zm-.3-8.4c-.6 0-1.1.2-1.5.7s-.7 1.1-.7 1.8h4.3V46c0-.7-.2-1.2-.5-1.7-.3-.4-.9-.6-1.6-.6zM475.9 51.9c-.1-.3-.1-.5-.1-.7 0-.2-.1-.4-.1-.7-.3.5-.7.8-1.2 1.1-.5.3-1.1.5-1.7.5-1 0-1.7-.2-2.2-.7-.5-.5-.8-1.2-.8-2.1 0-.9.4-1.6 1.1-2.1.7-.5 1.7-.8 3-.8h1.9v-.9c0-.5-.2-1-.5-1.3s-.8-.5-1.4-.5c-.5 0-1 .1-1.3.4s-.5.6-.5 1h-1.6V45c0-.7.3-1.3 1-1.9.7-.6 1.6-.8 2.6-.8 1.1 0 1.9.3 2.6.8.6.5 1 1.3 1 2.3V50c0 .3 0 .7.1 1 0 .3.1.6.2.9h-2.1zm-2.8-1.2c.6 0 1.2-.2 1.7-.5s.8-.7 1-1.1v-1.5h-1.9c-.7 0-1.2.2-1.7.5-.4.3-.6.8-.6 1.2 0 .4.1.7.4 1 .2.2.6.4 1.1.4zM485.4 49.4c0-.4-.1-.7-.4-.9-.3-.2-.8-.5-1.6-.6-1.1-.2-2-.6-2.6-1-.6-.4-.9-1-.9-1.7 0-.8.3-1.4 1-1.9.6-.5 1.5-.8 2.5-.8 1.1 0 2 .3 2.6.8.6.6 1 1.2.9 2v.1h-1.6c0-.4-.2-.8-.5-1.1-.3-.3-.8-.5-1.4-.5-.6 0-1.1.1-1.4.4-.3.3-.4.6-.4 1s.1.7.4.9c.3.2.8.4 1.6.6 1.2.3 2.1.6 2.6 1 .6.4.9 1 .9 1.8s-.3 1.5-1 2-1.6.8-2.6.8c-1.2 0-2.1-.3-2.8-.9-.7-.6-1-1.3-1-2.1v-.1h1.6c0 .6.3 1 .7 1.3.4.3.9.4 1.5.4s1.1-.1 1.4-.4c.3-.4.5-.7.5-1.1zM488.8 47.1c0-1.4.4-2.5 1.1-3.4s1.8-1.3 3.1-1.3 2.3.4 3.1 1.3c.8.9 1.1 2 1.1 3.4v.2c0 1.4-.4 2.5-1.1 3.4S494.3 52 493 52s-2.3-.4-3.1-1.3c-.8-.9-1.1-2-1.1-3.4v-.2zm1.7.2c0 1 .2 1.8.6 2.5.4.6 1 1 1.9 1 .8 0 1.4-.3 1.9-1 .4-.6.6-1.5.6-2.5v-.2c0-1-.2-1.8-.6-2.4-.4-.7-1-1-1.9-1-.8 0-1.4.3-1.9 1-.4.7-.6 1.5-.6 2.4v.2zM500.8 42.5l.1 1.4c.3-.5.7-.9 1.2-1.2s1-.4 1.6-.4c1 0 1.8.3 2.3.9.6.6.8 1.5.8 2.7v5.9h-1.7V46c0-.8-.2-1.4-.5-1.8s-.8-.5-1.5-.5c-.5 0-.9.1-1.3.4-.4.2-.7.6-.9 1v6.8h-1.7v-9.4h1.6z"/></g><g><path class="st0" d="M3.8 84.6l.9-2.1h.6L5 84.6v1H3.8v-1zm1.9 0l.9-2.1h.6l-.4 2.1v1H5.7v-1zM12.2 83.1h1.2v6.2c0 .8-.2 1.4-.7 1.8s-1.1.7-1.9.7c-.8 0-1.5-.2-2-.6s-.7-1-.7-1.8h1.1c0 .5.1.9.4 1.2s.6.4 1.1.4c.4 0 .8-.1 1-.4.3-.3.4-.7.4-1.2v-6.3zM19 91.7c0-.2-.1-.4-.1-.5v-.4c-.2.3-.5.6-.8.8s-.7.3-1.1.3c-.7 0-1.2-.2-1.5-.5s-.5-.8-.5-1.4c0-.6.2-1.1.7-1.4.5-.3 1.2-.5 2-.5H19v-.6c0-.4-.1-.7-.3-.9s-.5-.3-1-.3c-.4 0-.7.1-.9.3s-.3.4-.3.7h-1.1c0-.5.2-.9.7-1.3.5-.4 1.1-.6 1.8-.6s1.3.2 1.7.5.7.9.7 1.6v3.8c0 .3.1.4.1.6H19zm-1.9-.9c.4 0 .8-.1 1.1-.3s.6-.5.7-.7v-1h-1.3c-.5 0-.8.1-1.1.4s-.4.5-.4.8c0 .3.1.5.3.7.1 0 .4.1.7.1zM24.7 86.3h-.6c-.3 0-.6.1-.8.2s-.4.3-.5.6v4.5h-1.2v-6.3h1l.1.9c.2-.3.4-.6.7-.8s.6-.3.9-.3h.4v1.2zM25.5 88.4c0-.9.3-1.7.8-2.3s1.2-.9 2.1-.9c.9 0 1.6.3 2.1.9s.8 1.4.8 2.3v.1c0 .9-.3 1.7-.8 2.3s-1.2.9-2.1.9-1.6-.3-2.1-.9-.8-1.4-.8-2.3v-.1zm1.1.2c0 .7.1 1.2.4 1.7.3.4.7.7 1.3.7.6 0 1-.2 1.3-.7.3-.4.4-1 .4-1.7v-.1c0-.7-.1-1.2-.4-1.7-.3-.4-.7-.7-1.3-.7-.6 0-1 .2-1.3.7-.3.4-.4 1-.4 1.7v.1zM33.6 85.3l.1.9c.2-.3.5-.6.8-.8s.7-.3 1.1-.3c.7 0 1.2.2 1.6.6s.6 1 .6 1.9v4h-1.2v-4c0-.6-.1-1-.3-1.2s-.6-.4-1-.4c-.3 0-.6.1-.9.2s-.5.4-.6.7v4.6h-1.2v-6.3h1zM44 89.4l.1.8.2-.8 1.3-4h.9l1.3 4 .2.9.2-.9 1-4h1.1l-1.8 6.3h-.9l-1.2-3.9-.3-1.1-.3 1.1-1.2 3.9h-.9l-1.8-6.3H43l1 4zM55.3 91.7c0-.2-.1-.4-.1-.5v-.4c-.2.3-.5.6-.8.8s-.7.3-1.1.3c-.7 0-1.2-.2-1.5-.5s-.5-.8-.5-1.4c0-.6.2-1.1.7-1.4s1.2-.5 2-.5h1.3v-.6c0-.4-.1-.7-.3-.9s-.5-.3-1-.3c-.4 0-.7.1-.9.3s-.3.4-.3.7h-1.1c0-.5.2-.9.7-1.3s1.1-.6 1.8-.6 1.3.2 1.7.5.7.9.7 1.6v3.8c0 .3.1.4.1.6h-1.4zm-1.9-.9c.4 0 .8-.1 1.1-.3s.6-.5.7-.7v-1h-1.3c-.5 0-.8.1-1.1.4s-.4.5-.4.8c0 .3.1.5.3.7.1 0 .4.1.7.1zM61.7 90c0-.3-.1-.5-.3-.6s-.6-.3-1.1-.4c-.8-.2-1.3-.4-1.7-.7-.4-.3-.6-.7-.6-1.2s.2-1 .7-1.3c.4-.4 1-.5 1.7-.5s1.3.2 1.8.6.6.8.6 1.4h-1.1c0-.3-.1-.5-.3-.7s-.5-.3-.9-.3-.7.1-.9.3-.3.4-.3.7c0 .2.1.4.3.6s.5.3 1.1.4c.8.2 1.4.4 1.8.7s.6.7.6 1.2c0 .6-.2 1-.7 1.4s-1 .5-1.8.5-1.4-.2-1.9-.6-.7-.9-.7-1.4h1c0 .4.2.7.5.9.3.2.6.3 1 .3s.7-.1 1-.2.2-.9.2-1.1zM69.9 91.8c-.9 0-1.6-.3-2.1-.9s-.8-1.3-.8-2.3v-.3c0-.9.3-1.7.8-2.3s1.2-.9 1.9-.9c.9 0 1.5.3 1.9.8s.7 1.2.7 2.1v.7h-4.1c0 .6.2 1.1.5 1.5s.7.6 1.2.6c.4 0 .7-.1 1-.2s.5-.3.8-.5l.5.8c-.2.2-.5.4-.9.6-.4.2-.8.3-1.4.3zm-.1-5.7c-.4 0-.7.2-1 .5s-.4.7-.5 1.2h2.9v-.2c0-.5-.1-.8-.4-1.1-.2-.2-.6-.4-1-.4zM75.8 87.7l1.3-2.3h1.3l-2.1 3.1 2.1 3.2h-1.3l-1.4-2.4-1.4 2.4H73l2.1-3.2-2.1-3.1h1.3l1.5 2.3zM81.2 83.8v1.5h1.2v.9h-1.2V90c0 .3.1.5.2.6s.3.2.5.2h.2c.1 0 .2 0 .2-.1l.2.8c-.1.1-.2.1-.4.2s-.3.1-.5.1c-.5 0-.8-.1-1.1-.4s-.4-.7-.4-1.3v-3.8h-1v-.9h1v-1.5h1.1zM86.8 86.3h-.6c-.3 0-.6.1-.8.2s-.4.3-.5.6v4.5h-1.2v-6.3h1l.1.9c.2-.3.4-.6.7-.8s.6-.3.9-.3h.4v1.2zM90.5 91.8c-.9 0-1.6-.3-2.1-.9s-.8-1.4-.8-2.3v-.3c0-.9.3-1.7.8-2.3s1.2-.9 1.9-.9c.9 0 1.5.3 1.9.8s.7 1.2.7 2.1v.7h-4.1c0 .6.2 1.1.5 1.5s.7.6 1.2.6c.4 0 .7-.1 1-.2s.5-.3.8-.5l.5.8c-.2.2-.5.4-.9.6-.5.2-.9.3-1.4.3zm-.2-5.7c-.4 0-.7.2-1 .5s-.4.7-.5 1.2h2.9v-.2c0-.5-.1-.8-.4-1.1-.2-.2-.5-.4-1-.4zM95.2 85.3l.1.8c.2-.3.5-.5.8-.7s.7-.2 1.1-.2.8.1 1.1.3.5.5.7.9c.2-.4.5-.6.8-.9s.7-.3 1.1-.3c.6 0 1.2.2 1.5.7s.6 1.1.6 2v3.8h-1.2v-3.8c0-.6-.1-1.1-.3-1.3s-.5-.4-1-.4c-.4 0-.7.1-1 .4s-.4.6-.4 1v4H98v-3.8c0-.6-.1-1-.3-1.3s-.5-.4-1-.4c-.4 0-.6.1-.9.2s-.4.3-.5.6v4.7h-1.2v-6.3h1.1zM107.3 91.8c-.9 0-1.6-.3-2.1-.9s-.8-1.4-.8-2.3v-.3c0-.9.3-1.7.8-2.3s1.2-.9 1.9-.9c.9 0 1.5.3 1.9.8s.7 1.2.7 2.1v.7h-4.1c0 .6.2 1.1.5 1.5s.7.6 1.2.6c.4 0 .7-.1 1-.2s.5-.3.8-.5l.5.8c-.2.2-.5.4-.9.6-.4.2-.9.3-1.4.3zm-.2-5.7c-.4 0-.7.2-1 .5s-.4.7-.5 1.2h2.9v-.2c0-.5-.1-.8-.4-1.1-.1-.2-.5-.4-1-.4zM112.3 91.7h-1.2v-9.1h1.2v9.1zM116 89.3l.2.8 1.6-4.8h1.3l-2.7 7.3c-.2.4-.4.8-.7 1.1s-.7.5-1.2.5h-.4c-.2 0-.3 0-.3-.1l.1-.9h.5c.2 0 .4-.1.6-.3s.3-.5.4-.7l.3-.7-2.4-6.2h1.3l1.4 4zM124.2 86.2c.2-.3.5-.5.8-.7s.7-.3 1.1-.3c.7 0 1.2.2 1.6.6.4.4.6 1 .6 1.9v4h-1.2v-4c0-.5-.1-.9-.3-1.2s-.6-.4-1-.4c-.3 0-.6.1-.9.2s-.5.4-.6.6v4.7h-1.2v-9.1h1.2v3.7zM132.5 91.8c-.9 0-1.6-.3-2.1-.9s-.8-1.4-.8-2.3v-.3c0-.9.3-1.7.8-2.3s1.2-.9 1.9-.9c.9 0 1.5.3 1.9.8s.7 1.2.7 2.1v.7h-4.1c0 .6.2 1.1.5 1.5s.7.6 1.2.6c.4 0 .7-.1 1-.2s.5-.3.8-.5l.5.8c-.2.2-.5.4-.9.6-.4.2-.9.3-1.4.3zm-.2-5.7c-.4 0-.7.2-1 .5s-.4.7-.5 1.2h2.9v-.2c0-.5-.1-.8-.4-1.1-.1-.2-.5-.4-1-.4zM137.5 91.7h-1.2v-9.1h1.2v9.1zM144.6 88.7c0 .9-.2 1.7-.7 2.2s-1 .8-1.8.8c-.4 0-.7-.1-1-.2s-.5-.3-.8-.6V94h-1.2v-8.8h.9l.2.8c.2-.3.5-.5.8-.7s.7-.2 1.1-.2c.8 0 1.4.3 1.8.9s.7 1.4.7 2.5v.2zm-1.1-.1c0-.7-.1-1.3-.4-1.8-.3-.5-.7-.7-1.3-.7-.3 0-.6.1-.8.2s-.4.4-.6.6V90c.1.3.3.5.6.6s.5.2.9.2c.5 0 1-.2 1.2-.6.3-.4.4-.9.4-1.5v-.1zM146.5 91.7v-5.5h-1v-.9h1v-.8c0-.7.2-1.2.5-1.6s.8-.6 1.5-.6h.4c.1 0 .3.1.4.1l-.1.9h-.6c-.3 0-.6.1-.8.3s-.2.5-.2.9v.8h1.3v.9h-1.3v5.5h-1.1zM154.2 90.7c-.2.3-.5.6-.8.8s-.7.3-1.1.3c-.7 0-1.2-.2-1.6-.7s-.6-1.1-.6-2.1v-3.7h1.2v3.8c0 .7.1 1.1.3 1.4s.5.4.9.4.7-.1 1-.2.5-.4.6-.7v-4.6h1.2v6.3h-1l-.1-1zM158.3 91.7h-1.2v-9.1h1.2v9.1zM166.9 91.7c0-.2-.1-.4-.1-.5v-.4c-.2.3-.5.6-.8.8s-.7.3-1.1.3c-.7 0-1.2-.2-1.5-.5s-.5-.8-.5-1.4c0-.6.2-1.1.7-1.4s1.2-.5 2-.5h1.3v-.6c0-.4-.1-.7-.3-.9s-.5-.3-1-.3c-.4 0-.7.1-.9.3s-.3.4-.3.7h-1.1c0-.5.2-.9.7-1.3s1.1-.6 1.8-.6 1.3.2 1.7.5.7.9.7 1.6v3.8c0 .3.1.4.1.6h-1.4zm-1.9-.9c.4 0 .8-.1 1.1-.3s.6-.5.7-.7v-1h-1.3c-.5 0-.8.1-1.1.4s-.4.5-.4.8c0 .3.1.5.3.7.1 0 .4.1.7.1zM170.7 85.3l.1.9c.2-.3.5-.6.8-.8s.7-.3 1.1-.3c.7 0 1.2.2 1.6.6s.6 1 .6 1.9v4h-1.2v-4c0-.6-.1-1-.3-1.2s-.6-.4-1-.4c-.3 0-.6.1-.9.2s-.5.4-.6.7v4.6h-1.2v-6.3h1zM176.2 88.6c0-1 .2-1.8.7-2.5s1-.9 1.8-.9c.4 0 .7.1 1 .2s.5.3.7.6v-3.5h1.2v9.1h-.9l-.1-.8c-.2.3-.5.5-.8.7s-.7.2-1 .2c-.8 0-1.4-.3-1.8-.8s-.7-1.3-.7-2.2v-.1zm1.1.1c0 .6.1 1.2.4 1.5s.7.6 1.2.6c.3 0 .6-.1.9-.2s.4-.4.6-.7v-3c-.1-.3-.3-.5-.6-.6s-.5-.2-.9-.2c-.6 0-1 .2-1.2.7s-.4 1.1-.4 1.8v.1zM189.9 90c0-.3-.1-.5-.3-.6s-.6-.3-1.1-.4c-.8-.2-1.3-.4-1.7-.7-.4-.3-.6-.7-.6-1.2s.2-1 .7-1.3c.4-.4 1-.5 1.7-.5s1.3.2 1.8.6.6.8.6 1.4h-1.1c0-.3-.1-.5-.3-.7s-.5-.3-.9-.3-.7.1-.9.3-.3.4-.3.7c0 .2.1.4.3.6s.5.3 1.1.4c.8.2 1.4.4 1.8.7s.6.7.6 1.2c0 .6-.2 1-.7 1.4s-1 .5-1.8.5-1.4-.2-1.9-.6-.7-.9-.7-1.4h1.1c0 .4.2.7.5.9.3.2.6.3 1 .3s.7-.1 1-.2.1-.9.1-1.1zM196.6 90.7c-.2.3-.5.6-.8.8s-.7.3-1.1.3c-.7 0-1.2-.2-1.6-.7s-.6-1.1-.6-2.1v-3.7h1.2v3.8c0 .7.1 1.1.3 1.4s.5.4.9.4.7-.1 1-.2.5-.4.6-.7v-4.6h1.2v6.3h-1l-.1-1zM201.9 90.9c.4 0 .7-.1 1-.4s.4-.5.4-.9h1c0 .5-.2 1-.7 1.5s-1.1.6-1.8.6c-.9 0-1.6-.3-2.1-.9s-.7-1.4-.7-2.3v-.2c0-.9.2-1.7.7-2.3s1.2-.9 2.1-.9c.7 0 1.3.2 1.8.7s.7 1 .7 1.6h-1c0-.4-.1-.7-.4-1s-.6-.4-1-.4c-.6 0-1 .2-1.3.7-.3.4-.4 1-.4 1.6v.2c0 .6.1 1.2.4 1.6.3.6.7.8 1.3.8zM208.3 90.9c.4 0 .7-.1 1-.4s.4-.5.4-.9h1c0 .5-.2 1-.7 1.5s-1.1.6-1.8.6c-.9 0-1.6-.3-2.1-.9s-.7-1.4-.7-2.3v-.2c0-.9.2-1.7.7-2.3s1.2-.9 2.1-.9c.7 0 1.3.2 1.8.7s.7 1 .7 1.6h-1c0-.4-.1-.7-.4-1s-.6-.4-1-.4c-.6 0-1 .2-1.3.7-.3.4-.4 1-.4 1.6v.2c0 .6.1 1.2.4 1.6.3.6.7.8 1.3.8zM214.7 91.8c-.9 0-1.6-.3-2.1-.9s-.8-1.4-.8-2.3v-.3c0-.9.3-1.7.8-2.3s1.2-.9 1.9-.9c.9 0 1.5.3 1.9.8s.7 1.2.7 2.1v.7H213c0 .6.2 1.1.5 1.5s.7.6 1.2.6c.4 0 .7-.1 1-.2s.5-.3.8-.5l.5.9c-.2.2-.5.4-.9.6-.4.1-.9.2-1.4.2zm-.2-5.7c-.4 0-.7.2-1 .5s-.4.7-.5 1.2h2.9v-.2c0-.5-.1-.8-.4-1.1-.1-.2-.5-.4-1-.4zM222.1 90c0-.3-.1-.5-.3-.6s-.6-.3-1.1-.4c-.8-.2-1.3-.4-1.7-.7-.4-.3-.6-.7-.6-1.2s.2-1 .7-1.3c.4-.4 1-.5 1.7-.5s1.3.2 1.8.6.6.8.6 1.4h-1.1c0-.3-.1-.5-.3-.7s-.5-.3-.9-.3-.7.1-.9.3-.3.4-.3.7c0 .2.1.4.3.6s.5.3 1.1.4c.8.2 1.4.4 1.8.7s.6.7.6 1.2c0 .6-.2 1-.7 1.4s-1 .5-1.8.5-1.4-.2-1.9-.6-.7-.9-.7-1.4h1.1c0 .4.2.7.5.9.3.2.6.3 1 .3s.7-.1 1-.2.1-.9.1-1.1zM228.4 90c0-.3-.1-.5-.3-.6s-.6-.3-1.1-.4c-.8-.2-1.3-.4-1.7-.7-.4-.3-.6-.7-.6-1.2s.2-1 .7-1.3c.4-.4 1-.5 1.7-.5s1.3.2 1.8.6.6.8.6 1.4h-1.1c0-.3-.1-.5-.3-.7s-.5-.3-.9-.3-.7.1-.9.3-.3.4-.3.7c0 .2.1.4.3.6s.5.3 1.1.4c.8.2 1.4.4 1.8.7s.6.7.6 1.2c0 .6-.2 1-.7 1.4s-1 .5-1.8.5-1.4-.2-1.9-.6-.7-.9-.7-1.4h1.1c0 .4.2.7.5.9.3.2.6.3 1 .3s.7-.1 1-.2.1-.9.1-1.1zM231.5 91.7v-5.5h-1v-.9h1v-.8c0-.7.2-1.2.5-1.6s.8-.6 1.5-.6h.4c.1 0 .3.1.4.1l-.1.9h-.6c-.3 0-.6.1-.8.3s-.2.5-.2.9v.8h1.3v.9h-1.3v5.5h-1.1zM239.2 90.7c-.2.3-.5.6-.8.8s-.7.3-1.1.3c-.7 0-1.2-.2-1.6-.7s-.6-1.1-.6-2.1v-3.7h1.2v3.8c0 .7.1 1.1.3 1.4s.5.4.9.4.7-.1 1-.2.5-.4.6-.7v-4.6h1.2v6.3h-1l-.1-1zM243.2 91.7H242v-9.1h1.2v9.1zM246.2 91.7H245v-9.1h1.2v9.1zM249.9 89.3l.2.8 1.6-4.8h1.3l-2.7 7.3c-.2.4-.4.8-.7 1.1s-.7.5-1.2.5h-.4c-.2 0-.3 0-.3-.1l.1-.9h.5c.2 0 .4-.1.6-.3s.3-.5.4-.7l.3-.7-2.4-6.2h1.3l1.4 4zM259.6 90.9c.4 0 .7-.1 1-.4s.4-.5.4-.9h1c0 .5-.2 1-.7 1.5s-1.1.6-1.8.6c-.9 0-1.6-.3-2.1-.9s-.7-1.4-.7-2.3v-.2c0-.9.2-1.7.7-2.3s1.2-.9 2.1-.9c.7 0 1.3.2 1.8.7s.7 1 .7 1.6h-1c0-.4-.1-.7-.4-1s-.6-.4-1-.4c-.6 0-1 .2-1.3.7-.3.4-.4 1-.4 1.6v.2c0 .6.1 1.2.4 1.6.3.6.7.8 1.3.8zM263.1 88.4c0-.9.3-1.7.8-2.3s1.2-.9 2.1-.9c.9 0 1.6.3 2.1.9s.8 1.4.8 2.3v.1c0 .9-.3 1.7-.8 2.3s-1.2.9-2.1.9-1.6-.3-2.1-.9-.8-1.4-.8-2.3v-.1zm1.2.2c0 .7.1 1.2.4 1.7.3.4.7.7 1.3.7.6 0 1-.2 1.3-.7.3-.4.4-1 .4-1.7v-.1c0-.7-.1-1.2-.4-1.7-.3-.4-.7-.7-1.3-.7-.6 0-1 .2-1.3.7-.3.4-.4 1-.4 1.7v.1zM271.2 85.3l.1.8c.2-.3.5-.5.8-.7s.7-.2 1.1-.2.8.1 1.1.3.5.5.7.9c.2-.4.5-.6.8-.9s.7-.3 1.1-.3c.6 0 1.2.2 1.5.7s.6 1.1.6 2v3.8h-1.2v-3.8c0-.6-.1-1.1-.3-1.3s-.5-.4-1-.4c-.4 0-.7.1-1 .4s-.4.6-.4 1v4H274v-3.8c0-.6-.1-1-.3-1.3s-.5-.4-1-.4c-.4 0-.6.1-.9.2s-.4.3-.5.6v4.7h-1.2v-6.3h1.1zM286.1 88.7c0 .9-.2 1.7-.7 2.2s-1 .8-1.8.8c-.4 0-.7-.1-1-.2s-.5-.3-.8-.6V94h-1.2v-8.8h.9l.2.8c.2-.3.5-.5.8-.7s.7-.2 1.1-.2c.8 0 1.4.3 1.8.9s.7 1.4.7 2.5v.2zm-1.2-.1c0-.7-.1-1.3-.4-1.8-.3-.5-.7-.7-1.3-.7-.3 0-.6.1-.8.2s-.4.4-.6.6V90c.1.3.3.5.6.6s.5.2.9.2c.5 0 1-.2 1.2-.6.3-.4.4-.9.4-1.5v-.1zM288.8 91.7h-1.2v-9.1h1.2v9.1zM293.2 91.8c-.9 0-1.6-.3-2.1-.9s-.8-1.4-.8-2.3v-.3c0-.9.3-1.7.8-2.3s1.2-.9 1.9-.9c.9 0 1.5.3 1.9.8s.7 1.2.7 2.1v.7h-4.1c0 .6.2 1.1.5 1.5s.7.6 1.2.6c.4 0 .7-.1 1-.2s.5-.3.8-.5l.5.8c-.2.2-.5.4-.9.6-.5.2-.9.3-1.4.3zm-.2-5.7c-.4 0-.7.2-1 .5s-.4.7-.5 1.2h2.9v-.2c0-.5-.1-.8-.4-1.1-.2-.2-.5-.4-1-.4zM298.4 83.8v1.5h1.2v.9h-1.2V90c0 .3.1.5.2.6s.3.2.5.2h.2c.1 0 .2 0 .2-.1l.2.8c-.1.1-.2.1-.4.2s-.3.1-.5.1c-.5 0-.8-.1-1.1-.4s-.4-.7-.4-1.3v-3.8h-1v-.9h1v-1.5h1.1zM303.7 91.8c-.9 0-1.6-.3-2.1-.9s-.8-1.4-.8-2.3v-.3c0-.9.3-1.7.8-2.3s1.2-.9 1.9-.9c.9 0 1.5.3 1.9.8s.7 1.2.7 2.1v.7H302c0 .6.2 1.1.5 1.5s.7.6 1.2.6c.4 0 .7-.1 1-.2s.5-.3.8-.5l.5.8c-.2.2-.5.4-.9.6-.5.2-.9.3-1.4.3zm-.2-5.7c-.4 0-.7.2-1 .5s-.4.7-.5 1.2h2.9v-.2c0-.5-.1-.8-.4-1.1-.2-.2-.5-.4-1-.4zM307.1 88.6c0-1 .2-1.8.7-2.5s1-.9 1.8-.9c.4 0 .7.1 1 .2s.5.3.7.6v-3.5h1.2v9.1h-.9l-.1-.8c-.2.3-.5.5-.8.7s-.7.2-1 .2c-.8 0-1.4-.3-1.8-.8s-.7-1.3-.7-2.2v-.1zm1.2.1c0 .6.1 1.2.4 1.5s.7.6 1.2.6c.3 0 .6-.1.9-.2s.4-.4.6-.7v-3c-.1-.3-.3-.5-.6-.6s-.5-.2-.9-.2c-.6 0-1 .2-1.2.7s-.4 1.1-.4 1.8v.1zM316.9 88.4c0-.9.3-1.7.8-2.3s1.2-.9 2.1-.9c.9 0 1.6.3 2.1.9s.8 1.4.8 2.3v.1c0 .9-.3 1.7-.8 2.3s-1.2.9-2.1.9-1.6-.3-2.1-.9-.8-1.4-.8-2.3v-.1zm1.2.2c0 .7.1 1.2.4 1.7.3.4.7.7 1.3.7.6 0 1-.2 1.3-.7.3-.4.4-1 .4-1.7v-.1c0-.7-.1-1.2-.4-1.7-.3-.4-.7-.7-1.3-.7-.6 0-1 .2-1.3.7-.3.4-.4 1-.4 1.7v.1zM328 90.7c-.2.3-.5.6-.8.8s-.7.3-1.1.3c-.7 0-1.2-.2-1.6-.7s-.5-1.1-.5-2v-3.7h1.2v3.8c0 .7.1 1.1.3 1.4s.5.4.9.4.7-.1 1-.2.5-.4.6-.7v-4.6h1.2v6.3h-1l-.2-1.1zM333.8 86.3h-.6c-.3 0-.6.1-.8.2s-.4.3-.5.6v4.5h-1.2v-6.3h1l.1.9c.2-.3.4-.6.7-.8s.6-.3.9-.3h.4v1.2zM343.3 88.7c0 .9-.2 1.7-.7 2.2s-1 .8-1.8.8c-.4 0-.7-.1-1-.2s-.5-.3-.8-.6V94h-1.2v-8.8h.9l.2.8c.2-.3.5-.5.8-.7s.7-.2 1.1-.2c.8 0 1.4.3 1.8.9s.7 1.4.7 2.5v.2zm-1.1-.1c0-.7-.1-1.3-.4-1.8-.3-.5-.7-.7-1.3-.7-.3 0-.6.1-.8.2s-.4.4-.6.6V90c.1.3.3.5.6.6s.5.2.9.2c.5 0 1-.2 1.2-.6.3-.4.4-.9.4-1.5v-.1zM347.7 86.3h-.6c-.3 0-.6.1-.8.2s-.4.3-.5.6v4.5h-1.2v-6.3h1l.1.9c.2-.3.4-.6.7-.8s.6-.3.9-.3h.4v1.2zM348.5 88.4c0-.9.3-1.7.8-2.3s1.2-.9 2.1-.9c.9 0 1.6.3 2.1.9s.8 1.4.8 2.3v.1c0 .9-.3 1.7-.8 2.3s-1.2.9-2.1.9-1.6-.3-2.1-.9-.8-1.4-.8-2.3v-.1zm1.1.2c0 .7.1 1.2.4 1.7.3.4.7.7 1.3.7.6 0 1-.2 1.3-.7.3-.4.4-1 .4-1.7v-.1c0-.7-.1-1.2-.4-1.7-.3-.4-.7-.7-1.3-.7-.6 0-1 .2-1.3.7-.3.4-.4 1-.4 1.7v.1zM356.9 85.3v6.9c0 .7-.2 1.2-.5 1.5s-.8.5-1.4.5h-.3c-.1 0-.2 0-.3-.1l.1-.9h.5c.3 0 .5-.1.6-.3s.2-.5.2-.8v-6.9h1.1zm-.1-1.6h-1.2v-1.2h1.2v1.2zM361.3 91.8c-.9 0-1.6-.3-2.1-.9s-.8-1.4-.8-2.3v-.3c0-.9.3-1.7.8-2.3s1.2-.9 1.9-.9c.9 0 1.5.3 1.9.8s.7 1.2.7 2.1v.7h-4.1c0 .6.2 1.1.5 1.5s.7.6 1.2.6c.4 0 .7-.1 1-.2s.5-.3.8-.5l.5.8c-.2.2-.5.4-.9.6-.4.2-.9.3-1.4.3zm-.2-5.7c-.4 0-.7.2-1 .5s-.4.7-.5 1.2h2.9v-.2c0-.5-.1-.8-.4-1.1-.2-.2-.5-.4-1-.4zM367.6 90.9c.4 0 .7-.1 1-.4s.4-.5.4-.9h1c0 .5-.2 1-.7 1.5s-1.1.6-1.8.6c-.9 0-1.6-.3-2.1-.9s-.7-1.4-.7-2.3v-.2c0-.9.2-1.7.7-2.3s1.2-.9 2.1-.9c.7 0 1.3.2 1.8.7s.7 1 .7 1.6h-1c0-.4-.1-.7-.4-1s-.6-.4-1-.4c-.6 0-1 .2-1.3.7-.3.4-.4 1-.4 1.6v.2c0 .6.1 1.2.4 1.6.2.6.7.8 1.3.8zM372.9 83.8v1.5h1.2v.9h-1.2V90c0 .3.1.5.2.6s.3.2.5.2h.2c.1 0 .2 0 .2-.1l.2.8c-.1.1-.2.1-.4.2s-.3.1-.5.1c-.5 0-.8-.1-1.1-.4s-.4-.7-.4-1.3v-3.8h-1v-.9h1v-1.5h1.1zM378.2 88.6c0-1 .2-1.8.7-2.5s1-.9 1.8-.9c.4 0 .7.1 1 .2s.5.3.7.6v-3.5h1.2v9.1h-.9l-.1-.8c-.2.3-.5.5-.8.7s-.7.2-1 .2c-.8 0-1.4-.3-1.8-.8s-.7-1.3-.7-2.2v-.1zm1.2.1c0 .6.1 1.2.4 1.5s.7.6 1.2.6c.3 0 .6-.1.9-.2s.4-.4.6-.7v-3c-.1-.3-.3-.5-.6-.6s-.5-.2-.9-.2c-.6 0-1 .2-1.2.7s-.4 1.1-.4 1.8v.1zM388 91.8c-.9 0-1.6-.3-2.1-.9s-.8-1.4-.8-2.3v-.3c0-.9.3-1.7.8-2.3s1.2-.9 1.9-.9c.9 0 1.5.3 1.9.8s.7 1.2.7 2.1v.7h-4.1c0 .6.2 1.1.5 1.5s.7.6 1.2.6c.4 0 .7-.1 1-.2s.5-.3.8-.5l.5.8c-.2.2-.5.4-.9.6-.5.2-.9.3-1.4.3zm-.2-5.7c-.4 0-.7.2-1 .5s-.4.7-.5 1.2h2.9v-.2c0-.5-.1-.8-.4-1.1-.2-.2-.5-.4-1-.4zM395.4 90c0-.3-.1-.5-.3-.6s-.6-.3-1.1-.4c-.8-.2-1.3-.4-1.7-.7-.4-.3-.6-.7-.6-1.2s.2-1 .7-1.3c.4-.4 1-.5 1.7-.5s1.3.2 1.8.6.6.8.6 1.4h-1.1c0-.3-.1-.5-.3-.7s-.5-.3-.9-.3-.7.1-.9.3-.3.4-.3.7c0 .2.1.4.3.6s.5.3 1.1.4c.8.2 1.4.4 1.8.7s.6.7.6 1.2c0 .6-.2 1-.7 1.4s-1 .5-1.8.5-1.4-.2-1.9-.6-.7-.9-.7-1.4h1.1c0 .4.2.7.5.9.3.2.6.3 1 .3s.7-.1 1-.2.1-.9.1-1.1zM403.3 88.7c0 .9-.2 1.7-.7 2.2s-1 .8-1.8.8c-.4 0-.7-.1-1-.2s-.5-.3-.8-.6V94h-1.2v-8.8h.9l.2.8c.2-.3.5-.5.8-.7s.7-.2 1.1-.2c.8 0 1.4.3 1.8.9s.7 1.4.7 2.5v.2zm-1.1-.1c0-.7-.1-1.3-.4-1.8-.3-.5-.7-.7-1.3-.7-.3 0-.6.1-.8.2s-.4.4-.6.6V90c.1.3.3.5.6.6s.5.2.9.2c.5 0 1-.2 1.2-.6.3-.4.4-.9.4-1.5v-.1zM406 83.7h-1.2v-1.2h1.2v1.2zm0 8h-1.2v-6.3h1.2v6.3zM409.3 83.8v1.5h1.2v.9h-1.2V90c0 .3.1.5.2.6s.3.2.5.2h.2c.1 0 .2 0 .2-.1l.2.8c-.1.1-.2.1-.4.2s-.3.1-.5.1c-.5 0-.8-.1-1.1-.4s-.4-.7-.4-1.3v-3.8h-1v-.9h1v-1.5h1.1zM414.6 91.8c-.9 0-1.6-.3-2.1-.9s-.8-1.4-.8-2.3v-.3c0-.9.3-1.7.8-2.3s1.2-.9 1.9-.9c.9 0 1.5.3 1.9.8s.7 1.2.7 2.1v.7h-4.1c0 .6.2 1.1.5 1.5s.7.6 1.2.6c.4 0 .7-.1 1-.2s.5-.3.8-.5l.5.8c-.2.2-.5.4-.9.6-.5.2-.9.3-1.4.3zm-.2-5.7c-.4 0-.7.2-1 .5s-.4.7-.5 1.2h2.9v-.2c0-.5-.1-.8-.4-1.1-.2-.2-.5-.4-1-.4zM422.8 83.8v1.5h1.2v.9h-1.2V90c0 .3.1.5.2.6s.3.2.5.2h.2c.1 0 .2 0 .2-.1l.2.8c-.1.1-.2.1-.4.2s-.3.1-.5.1c-.5 0-.8-.1-1.1-.4s-.4-.7-.4-1.3v-3.8h-1v-.9h1v-1.5h1.1zM426.6 86.2c.2-.3.5-.5.8-.7s.7-.3 1.1-.3c.7 0 1.2.2 1.6.6s.6 1 .6 1.9v4h-1.2v-4c0-.5-.1-.9-.3-1.2s-.6-.4-1-.4c-.3 0-.6.1-.9.2s-.5.4-.6.6v4.7h-1.2v-9.1h1.2v3.7zM434.9 91.8c-.9 0-1.6-.3-2.1-.9s-.8-1.4-.8-2.3v-.3c0-.9.3-1.7.8-2.3s1.2-.9 1.9-.9c.9 0 1.5.3 1.9.8s.7 1.2.7 2.1v.7h-4.1c0 .6.2 1.1.5 1.5s.7.6 1.2.6c.4 0 .7-.1 1-.2s.5-.3.8-.5l.5.8c-.2.2-.5.4-.9.6-.5.2-.9.3-1.4.3zm-.2-5.7c-.4 0-.7.2-1 .5s-.4.7-.5 1.2h2.9v-.2c0-.5-.1-.8-.4-1.1-.2-.2-.5-.4-1-.4zM443.1 83.8v1.5h1.2v.9h-1.2V90c0 .3.1.5.2.6s.3.2.5.2h.2c.1 0 .2 0 .2-.1l.2.8c-.1.1-.2.1-.4.2s-.3.1-.5.1c-.5 0-.8-.1-1.1-.4s-.4-.7-.4-1.3v-3.8h-1v-.9h1v-1.5h1.1zM447 83.7h-1.2v-1.2h1.2v1.2zm0 8h-1.2v-6.3h1.2v6.3zM449.8 85.3l.1.8c.2-.3.5-.5.8-.7s.7-.2 1.1-.2.8.1 1.1.3.5.5.7.9c.2-.4.5-.6.8-.9s.7-.3 1.1-.3c.6 0 1.2.2 1.5.7s.6 1.1.6 2v3.8h-1.2v-3.8c0-.6-.1-1.1-.3-1.3s-.5-.4-1-.4c-.4 0-.7.1-1 .4s-.4.6-.4 1v4h-1.2v-3.8c0-.6-.1-1-.3-1.3s-.5-.4-1-.4c-.4 0-.6.1-.9.2s-.4.3-.5.6v4.7h-1.2v-6.3h1.2zM461.9 91.8c-.9 0-1.6-.3-2.1-.9s-.8-1.4-.8-2.3v-.3c0-.9.3-1.7.8-2.3s1.2-.9 1.9-.9c.9 0 1.5.3 1.9.8s.7 1.2.7 2.1v.7h-4.1c0 .6.2 1.1.5 1.5s.7.6 1.2.6c.4 0 .7-.1 1-.2s.5-.3.8-.5l.5.8c-.2.2-.5.4-.9.6-.5.2-.9.3-1.4.3zm-.2-5.7c-.4 0-.7.2-1 .5s-.4.7-.5 1.2h2.9v-.2c0-.5-.1-.8-.4-1.1-.2-.2-.5-.4-1-.4zM471.1 90.9c.4 0 .7-.1 1-.4s.4-.5.4-.9h1c0 .5-.2 1-.7 1.5s-1.1.6-1.8.6c-.9 0-1.6-.3-2.1-.9s-.7-1.4-.7-2.3v-.2c0-.9.2-1.7.7-2.3s1.2-.9 2.1-.9c.7 0 1.3.2 1.8.7s.7 1 .7 1.6h-1c0-.4-.1-.7-.4-1s-.6-.4-1-.4c-.6 0-1 .2-1.3.7-.3.4-.4 1-.4 1.6v.2c0 .6.1 1.2.4 1.6.3.6.7.8 1.3.8zM474.6 88.4c0-.9.3-1.7.8-2.3s1.2-.9 2.1-.9c.9 0 1.6.3 2.1.9s.8 1.4.8 2.3v.1c0 .9-.3 1.7-.8 2.3s-1.2.9-2.1.9-1.6-.3-2.1-.9-.8-1.4-.8-2.3v-.1zm1.2.2c0 .7.1 1.2.4 1.7.3.4.7.7 1.3.7.6 0 1-.2 1.3-.7.3-.4.4-1 .4-1.7v-.1c0-.7-.1-1.2-.4-1.7-.3-.4-.7-.7-1.3-.7-.6 0-1 .2-1.3.7-.3.4-.4 1-.4 1.7v.1zM482.8 85.3l.1.9c.2-.3.5-.6.8-.8s.7-.3 1.1-.3c.7 0 1.2.2 1.6.6s.6 1 .6 1.9v4h-1.2v-4c0-.6-.1-1-.3-1.2s-.6-.4-1-.4c-.3 0-.6.1-.9.2s-.5.4-.6.7v4.6h-1.2v-6.3h1zM492.2 90c0-.3-.1-.5-.3-.6s-.6-.3-1.1-.4c-.8-.2-1.3-.4-1.7-.7-.4-.3-.6-.7-.6-1.2s.2-1 .7-1.3c.4-.4 1-.5 1.7-.5s1.3.2 1.8.6.6.8.6 1.4h-1.1c0-.3-.1-.5-.3-.7s-.5-.3-.9-.3-.7.1-.9.3-.3.4-.3.7c0 .2.1.4.3.6s.5.3 1.1.4c.8.2 1.4.4 1.8.7s.6.7.6 1.2c0 .6-.2 1-.7 1.4s-1 .5-1.8.5-1.4-.2-1.9-.6-.7-.9-.7-1.4h1.1c0 .4.2.7.5.9.3.2.6.3 1 .3s.7-.1 1-.2.1-.9.1-1.1zM496.4 83.8v1.5h1.2v.9h-1.2V90c0 .3.1.5.2.6s.3.2.5.2h.2c.1 0 .2 0 .2-.1l.2.8c-.1.1-.2.1-.4.2s-.3.1-.5.1c-.5 0-.8-.1-1.1-.4s-.4-.7-.4-1.3v-3.8h-1v-.9h1v-1.5h1.1zM502 86.3h-.6c-.3 0-.6.1-.8.2s-.4.3-.5.6v4.5H499v-6.3h1l.1.9c.2-.3.4-.6.7-.8s.6-.3.9-.3h.4l-.1 1.2zM507 91.7c0-.2-.1-.4-.1-.5v-.4c-.2.3-.5.6-.8.8s-.7.3-1.1.3c-.7 0-1.2-.2-1.5-.5s-.5-.8-.5-1.4c0-.6.2-1.1.7-1.4s1.2-.5 2-.5h1.3v-.6c0-.4-.1-.7-.3-.9s-.5-.3-1-.3c-.4 0-.7.1-.9.3s-.3.4-.3.7h-1.1c0-.5.2-.9.7-1.3s1.1-.6 1.8-.6 1.3.2 1.7.5.7.9.7 1.6v3.8c0 .3.1.4.1.6H507zm-1.9-.9c.4 0 .8-.1 1.1-.3s.6-.5.7-.7v-1h-1.3c-.5 0-.8.1-1.1.4s-.4.5-.4.8c0 .3.1.5.3.7.1 0 .3.1.7.1zM510.9 83.7h-1.2v-1.2h1.2v1.2zm0 8h-1.2v-6.3h1.2v6.3zM513.7 85.3l.1.9c.2-.3.5-.6.8-.8s.7-.3 1.1-.3c.7 0 1.2.2 1.6.6s.6 1 .6 1.9v4h-1.2v-4c0-.6-.1-1-.3-1.2s-.6-.4-1-.4c-.3 0-.6.1-.9.2s-.5.4-.6.7v4.6h-1.2v-6.3h1zM521.1 83.8v1.5h1.2v.9h-1.2V90c0 .3.1.5.2.6s.3.2.5.2h.2c.1 0 .2 0 .2-.1l.2.8c-.1.1-.2.1-.4.2s-.3.1-.5.1c-.5 0-.8-.1-1.1-.4s-.4-.7-.4-1.3v-3.8h-1v-.9h1v-1.5h1.1zM527.4 90c0-.3-.1-.5-.3-.6s-.6-.3-1.1-.4c-.8-.2-1.3-.4-1.7-.7-.4-.3-.6-.7-.6-1.2s.2-1 .7-1.3c.4-.4 1-.5 1.7-.5s1.3.2 1.8.6.6.8.6 1.4h-1.1c0-.3-.1-.5-.3-.7s-.5-.3-.9-.3-.7.1-.9.3-.3.4-.3.7c0 .2.1.4.3.6s.5.3 1.1.4c.8.2 1.4.4 1.8.7s.6.7.6 1.2c0 .6-.2 1-.7 1.4s-1 .5-1.8.5-1.4-.2-1.9-.6-.7-.9-.7-1.4h1.1c0 .4.2.7.5.9.3.2.6.3 1 .3s.7-.1 1-.2.1-.9.1-1.1zM534.6 89.4l.1.8.2-.8 1.3-4h.9l1.3 4 .2.9.2-.9 1-4h1.1l-1.8 6.3h-.9l-1.2-3.9-.3-1.1-.3 1.1-1.2 3.9h-.9l-1.8-6.3h1.1l1 4zM544.7 91.8c-.9 0-1.6-.3-2.1-.9s-.8-1.4-.8-2.3v-.3c0-.9.3-1.7.8-2.3s1.2-.9 1.9-.9c.9 0 1.5.3 1.9.8s.7 1.2.7 2.1v.7H543c0 .6.2 1.1.5 1.5s.7.6 1.2.6c.4 0 .7-.1 1-.2s.5-.3.8-.5l.5.8c-.2.2-.5.4-.9.6-.5.2-.9.3-1.4.3zm-.2-5.7c-.4 0-.7.2-1 .5s-.4.7-.5 1.2h2.9v-.2c0-.5-.1-.8-.4-1.1-.2-.2-.5-.4-1-.4zM552.5 86.2c.2-.3.5-.5.8-.7s.7-.3 1.1-.3c.7 0 1.2.2 1.6.6s.6 1 .6 1.9v4h-1.2v-4c0-.5-.1-.9-.3-1.2s-.6-.4-1-.4c-.3 0-.6.1-.9.2s-.5.4-.6.6v4.7h-1.2v-9.1h1.2v3.7zM562.1 91.7c0-.2-.1-.4-.1-.5v-.4c-.2.3-.5.6-.8.8s-.7.3-1.1.3c-.7 0-1.2-.2-1.5-.5s-.5-.8-.5-1.4c0-.6.2-1.1.7-1.4s1.2-.5 2-.5h1.3v-.6c0-.4-.1-.7-.3-.9s-.5-.3-1-.3c-.4 0-.7.1-.9.3s-.3.4-.3.7h-1.1c0-.5.2-.9.7-1.3s1.1-.6 1.8-.6 1.3.2 1.7.5.7.9.7 1.6v3.8c0 .3.1.4.1.6h-1.4zm-1.9-.9c.4 0 .8-.1 1.1-.3s.6-.5.7-.7v-1h-1.3c-.5 0-.8.1-1.1.4s-.4.5-.4.8c0 .3.1.5.3.7.1 0 .3.1.7.1zM564.5 88.6c0-1 .2-1.8.7-2.5s1-.9 1.8-.9c.4 0 .7.1 1 .2s.5.3.7.6v-3.5h1.2v9.1h-.9l-.1-.8c-.2.3-.5.5-.8.7s-.7.2-1 .2c-.8 0-1.4-.3-1.8-.8s-.7-1.3-.7-2.2v-.1zm1.2.1c0 .6.1 1.2.4 1.5s.7.6 1.2.6c.3 0 .6-.1.9-.2s.4-.4.6-.7v-3c-.1-.3-.3-.5-.6-.6s-.5-.2-.9-.2c-.6 0-1 .2-1.2.7s-.4 1.1-.4 1.8v.1zM572.9 91.7h-1.2v-1.2h1.2v1.2z"/></g><g><path class="st0" d="M91.6 107.7h-1.2v-8.5h1.2v8.5zM97.7 102.2c.2-.3.5-.5.8-.7s.7-.3 1.1-.3c.7 0 1.2.2 1.6.6s.6 1 .6 1.9v4h-1.2v-4c0-.5-.1-.9-.3-1.2s-.6-.4-1-.4c-.3 0-.6.1-.9.2s-.5.4-.6.6v4.7h-1.2v-9.1h1.2v3.7zM104.6 99.7h-1.2v-1.2h1.2v1.2zm0 8h-1.2v-6.3h1.2v6.3zM106.1 104.6c0-1 .2-1.8.7-2.5s1.1-.9 1.8-.9c.4 0 .8.1 1.1.2s.6.4.8.7l.1-.8h.9v6.4c0 .8-.2 1.4-.7 1.9s-1.2.7-2 .7c-.3 0-.6 0-1-.1s-.7-.2-.9-.3l.3-.9c.2.1.5.2.8.3s.6.1.9.1c.6 0 1-.1 1.2-.4s.4-.6.4-1.2v-.8c-.2.3-.5.5-.7.6s-.6.2-1 .2c-.8 0-1.4-.3-1.8-.8s-.7-1.3-.7-2.2v-.2zm1.2.1c0 .6.1 1.1.4 1.5s.7.6 1.2.6c.3 0 .6-.1.9-.2s.4-.4.6-.7V103c-.1-.3-.3-.5-.6-.6s-.5-.2-.9-.2c-.6 0-1 .2-1.2.7s-.4 1.1-.4 1.8zM114.4 102.2c.2-.3.5-.5.8-.7s.7-.3 1.1-.3c.7 0 1.2.2 1.6.6s.6 1 .6 1.9v4h-1.2v-4c0-.5-.1-.9-.3-1.2s-.6-.4-1-.4c-.3 0-.6.1-.9.2s-.5.4-.6.6v4.7h-1.2v-9.1h1.2v3.7zM121.3 107.7h-1.2v-9.1h1.2v9.1zM125 105.3l.2.8 1.6-4.8h1.3l-2.7 7.3c-.2.4-.4.8-.7 1.1s-.7.5-1.2.5h-.4c-.2 0-.3 0-.3-.1l.1-.9h.5c.2 0 .4-.1.6-.3s.3-.5.4-.7l.3-.7-2.4-6.2h1.3l1.4 4zM135.1 102.3h-.6c-.3 0-.6.1-.8.2s-.4.3-.5.6v4.5H132v-6.3h1l.1.9c.2-.3.4-.6.7-.8s.6-.3.9-.3h.4v1.2zM138.7 107.8c-.9 0-1.6-.3-2.1-.9s-.8-1.4-.8-2.3v-.3c0-.9.3-1.7.8-2.3s1.2-.9 1.9-.9c.9 0 1.5.3 1.9.8s.7 1.2.7 2.1v.7H137c0 .6.2 1.1.5 1.5s.7.6 1.2.6c.4 0 .7-.1 1-.2s.5-.3.8-.5l.5.8c-.2.2-.5.4-.9.6-.4.2-.9.3-1.4.3zm-.2-5.7c-.4 0-.7.2-1 .5s-.4.7-.5 1.2h2.9v-.2c0-.5-.1-.8-.4-1.1-.1-.2-.5-.4-1-.4zM145 106.9c.4 0 .7-.1 1-.4s.4-.5.4-.9h1c0 .5-.2 1-.7 1.5s-1.1.6-1.8.6c-.9 0-1.6-.3-2.1-.9s-.7-1.4-.7-2.3v-.2c0-.9.2-1.7.7-2.3s1.2-.9 2.1-.9c.7 0 1.3.2 1.8.7s.7 1 .7 1.6h-1c0-.4-.1-.7-.4-1s-.6-.4-1-.4c-.6 0-1 .2-1.3.7-.3.4-.4 1-.4 1.6v.2c0 .6.1 1.2.4 1.6.3.6.7.8 1.3.8zM148.5 104.4c0-.9.3-1.7.8-2.3s1.2-.9 2.1-.9c.9 0 1.6.3 2.1.9s.8 1.4.8 2.3v.1c0 .9-.3 1.7-.8 2.3s-1.2.9-2.1.9-1.6-.3-2.1-.9-.8-1.4-.8-2.3v-.1zm1.2.2c0 .7.1 1.2.4 1.7.3.4.7.7 1.3.7.6 0 1-.2 1.3-.7.3-.4.4-1 .4-1.7v-.1c0-.7-.1-1.2-.4-1.7-.3-.4-.7-.7-1.3-.7-.6 0-1 .2-1.3.7-.3.4-.4 1-.4 1.7v.1zM156.6 101.3l.1.8c.2-.3.5-.5.8-.7s.7-.2 1.1-.2.8.1 1.1.3.5.5.7.9c.2-.4.5-.6.8-.9s.7-.3 1.1-.3c.6 0 1.2.2 1.5.7s.6 1.1.6 2v3.8h-1.2v-3.8c0-.6-.1-1.1-.3-1.3s-.5-.4-1-.4c-.4 0-.7.1-1 .4s-.4.6-.4 1v4h-1.2v-3.8c0-.6-.1-1-.3-1.3s-.5-.4-1-.4c-.4 0-.6.1-.9.2s-.4.3-.5.6v4.7h-1.2v-6.3h1.2zM167.1 101.3l.1.8c.2-.3.5-.5.8-.7s.7-.2 1.1-.2.8.1 1.1.3.5.5.7.9c.2-.4.5-.6.8-.9s.7-.3 1.1-.3c.6 0 1.2.2 1.5.7s.6 1.1.6 2v3.8h-1.2v-3.8c0-.6-.1-1.1-.3-1.3s-.5-.4-1-.4c-.4 0-.7.1-1 .4s-.4.6-.4 1v4h-1.2v-3.8c0-.6-.1-1-.3-1.3s-.5-.4-1-.4c-.4 0-.6.1-.9.2s-.4.3-.5.6v4.7h-1.2v-6.3h1.2zM179.2 107.8c-.9 0-1.6-.3-2.1-.9s-.8-1.4-.8-2.3v-.3c0-.9.3-1.7.8-2.3s1.2-.9 1.9-.9c.9 0 1.5.3 1.9.8s.7 1.2.7 2.1v.7h-4.1c0 .6.2 1.1.5 1.5s.7.6 1.2.6c.4 0 .7-.1 1-.2s.5-.3.8-.5l.5.8c-.2.2-.5.4-.9.6-.4.2-.9.3-1.4.3zm-.2-5.7c-.4 0-.7.2-1 .5s-.4.7-.5 1.2h2.9v-.2c0-.5-.1-.8-.4-1.1-.1-.2-.5-.4-1-.4zM184 101.3l.1.9c.2-.3.5-.6.8-.8s.7-.3 1.1-.3c.7 0 1.2.2 1.6.6s.6 1 .6 1.9v4H187v-4c0-.6-.1-1-.3-1.2s-.6-.4-1-.4c-.3 0-.6.1-.9.2s-.5.4-.6.7v4.6H183v-6.3h1zM189.5 104.6c0-1 .2-1.8.7-2.5s1-.9 1.8-.9c.4 0 .7.1 1 .2s.5.3.7.6v-3.5h1.2v9.1h-.9l-.1-.8c-.2.3-.5.5-.8.7s-.7.2-1 .2c-.8 0-1.4-.3-1.8-.8s-.7-1.3-.7-2.2v-.1zm1.1.1c0 .6.1 1.2.4 1.5s.7.6 1.2.6c.3 0 .6-.1.9-.2s.4-.4.6-.7v-3c-.1-.3-.3-.5-.6-.6s-.5-.2-.9-.2c-.6 0-1 .2-1.2.7s-.4 1.1-.4 1.8v.1zM203.2 99.1h1.2v6.2c0 .8-.2 1.4-.7 1.8s-1.1.7-1.9.7c-.8 0-1.5-.2-2-.6s-.7-1-.7-1.8h1.1c0 .5.1.9.4 1.2s.6.4 1.1.4c.4 0 .8-.1 1-.4.3-.3.4-.7.4-1.2v-6.3zM210.1 107.7c0-.2-.1-.4-.1-.5v-.4c-.2.3-.5.6-.8.8s-.7.3-1.1.3c-.7 0-1.2-.2-1.5-.5s-.5-.8-.5-1.4c0-.6.2-1.1.7-1.4s1.2-.5 2-.5h1.3v-.6c0-.4-.1-.7-.3-.9s-.5-.3-1-.3c-.4 0-.7.1-.9.3s-.3.4-.3.7h-1.1c0-.5.2-.9.7-1.3s1.1-.6 1.8-.6 1.3.2 1.7.5.7.9.7 1.6v3.8c0 .3.1.4.1.6h-1.4zm-1.9-.9c.4 0 .8-.1 1.1-.3s.6-.5.7-.7v-1h-1.3c-.5 0-.8.1-1.1.4s-.4.5-.4.8c0 .3.1.5.3.7.1 0 .3.1.7.1zM215.8 102.3h-.6c-.3 0-.6.1-.8.2s-.4.3-.5.6v4.5h-1.2v-6.3h1l.1.9c.2-.3.4-.6.7-.8s.6-.3.9-.3h.4v1.2zM216.5 104.4c0-.9.3-1.7.8-2.3s1.2-.9 2.1-.9c.9 0 1.6.3 2.1.9s.8 1.4.8 2.3v.1c0 .9-.3 1.7-.8 2.3s-1.2.9-2.1.9-1.6-.3-2.1-.9-.8-1.4-.8-2.3v-.1zm1.2.2c0 .7.1 1.2.4 1.7.3.4.7.7 1.3.7.6 0 1-.2 1.3-.7.3-.4.4-1 .4-1.7v-.1c0-.7-.1-1.2-.4-1.7-.3-.4-.7-.7-1.3-.7-.6 0-1 .2-1.3.7-.3.4-.4 1-.4 1.7v.1zM224.6 101.3l.1.9c.2-.3.5-.6.8-.8s.7-.3 1.1-.3c.7 0 1.2.2 1.6.6s.6 1 .6 1.9v4h-1.2v-4c0-.6-.1-1-.3-1.2s-.6-.4-1-.4c-.3 0-.6.1-.9.2s-.5.4-.6.7v4.6h-1.2v-6.3h1zM233.9 107.7v-5.5h-1v-.9h1v-.8c0-.7.2-1.2.5-1.6s.8-.6 1.5-.6h.4c.1 0 .3.1.4.1l-.1.9h-.6c-.3 0-.6.1-.8.3s-.2.5-.2.9v.8h1.3v.9H235v5.5h-1.1zM237.3 104.4c0-.9.3-1.7.8-2.3s1.2-.9 2.1-.9c.9 0 1.6.3 2.1.9s.8 1.4.8 2.3v.1c0 .9-.3 1.7-.8 2.3s-1.2.9-2.1.9-1.6-.3-2.1-.9-.8-1.4-.8-2.3v-.1zm1.1.2c0 .7.1 1.2.4 1.7.3.4.7.7 1.3.7.6 0 1-.2 1.3-.7.3-.4.4-1 .4-1.7v-.1c0-.7-.1-1.2-.4-1.7-.3-.4-.7-.7-1.3-.7-.6 0-1 .2-1.3.7-.3.4-.4 1-.4 1.7v.1zM247.4 102.3h-.6c-.3 0-.6.1-.8.2s-.4.3-.5.6v4.5h-1.2v-6.3h1l.1.9c.2-.3.4-.6.7-.8s.6-.3.9-.3h.4v1.2zM255.3 107.7c0-.2-.1-.4-.1-.5v-.4c-.2.3-.5.6-.8.8s-.7.3-1.1.3c-.7 0-1.2-.2-1.5-.5s-.5-.8-.5-1.4c0-.6.2-1.1.7-1.4s1.2-.5 2-.5h1.3v-.6c0-.4-.1-.7-.3-.9s-.5-.3-1-.3c-.4 0-.7.1-.9.3s-.3.4-.3.7h-1.1c0-.5.2-.9.7-1.3s1.1-.6 1.8-.6 1.3.2 1.7.5c.4.4.7.9.7 1.6v3.8c0 .3.1.4.1.6h-1.4zm-1.9-.9c.4 0 .8-.1 1.1-.3s.6-.5.7-.7v-1h-1.3c-.5 0-.8.1-1.1.4s-.4.5-.4.8c0 .3.1.5.3.7.1 0 .4.1.7.1zM259.1 101.3l.1.9c.2-.3.5-.6.8-.8s.7-.3 1.1-.3c.7 0 1.2.2 1.6.6s.6 1 .6 1.9v4H262v-4c0-.6-.1-1-.3-1.2s-.6-.4-1-.4c-.3 0-.6.1-.9.2s-.5.4-.6.7v4.6H258v-6.3h1.1zM266.8 105.3l.2.8 1.6-4.8h1.3l-2.7 7.3c-.2.4-.4.8-.7 1.1s-.7.5-1.2.5h-.4c-.2 0-.3 0-.3-.1l.1-.9h.5c.2 0 .4-.1.6-.3s.3-.5.4-.7l.3-.7-2.4-6.2h1.3l1.4 4zM270.5 104.4c0-.9.3-1.7.8-2.3s1.2-.9 2.1-.9c.9 0 1.6.3 2.1.9s.8 1.4.8 2.3v.1c0 .9-.3 1.7-.8 2.3s-1.2.9-2.1.9-1.6-.3-2.1-.9-.8-1.4-.8-2.3v-.1zm1.2.2c0 .7.1 1.2.4 1.7.3.4.7.7 1.3.7.6 0 1-.2 1.3-.7.3-.4.4-1 .4-1.7v-.1c0-.7-.1-1.2-.4-1.7-.3-.4-.7-.7-1.3-.7-.6 0-1 .2-1.3.7-.3.4-.4 1-.4 1.7v.1zM278.7 101.3l.1.9c.2-.3.5-.6.8-.8s.7-.3 1.1-.3c.7 0 1.2.2 1.6.6s.6 1 .6 1.9v4h-1.2v-4c0-.6-.1-1-.3-1.2s-.6-.4-1-.4c-.3 0-.6.1-.9.2s-.5.4-.6.7v4.6h-1.2v-6.3h1zM287.1 107.8c-.9 0-1.6-.3-2.1-.9s-.8-1.4-.8-2.3v-.3c0-.9.3-1.7.8-2.3s1.2-.9 1.9-.9c.9 0 1.5.3 1.9.8s.7 1.2.7 2.1v.7h-4.1c0 .6.2 1.1.5 1.5s.7.6 1.2.6c.4 0 .7-.1 1-.2s.5-.3.8-.5l.5.8c-.2.2-.5.4-.9.6-.4.2-.9.3-1.4.3zm-.2-5.7c-.4 0-.7.2-1 .5s-.4.7-.5 1.2h2.9v-.2c0-.5-.1-.8-.4-1.1-.2-.2-.5-.4-1-.4zM294.8 101.3l.1.9c.2-.3.5-.6.8-.8s.7-.3 1.1-.3c.7 0 1.2.2 1.6.6s.6 1 .6 1.9v4h-1.2v-4c0-.6-.1-1-.3-1.2s-.6-.4-1-.4c-.3 0-.6.1-.9.2s-.5.4-.6.7v4.6h-1.2v-6.3h1zM303.2 107.8c-.9 0-1.6-.3-2.1-.9s-.8-1.4-.8-2.3v-.3c0-.9.3-1.7.8-2.3s1.2-.9 1.9-.9c.9 0 1.5.3 1.9.8s.7 1.2.7 2.1v.7h-4.1c0 .6.2 1.1.5 1.5s.7.6 1.2.6c.4 0 .7-.1 1-.2s.5-.3.8-.5l.5.8c-.2.2-.5.4-.9.6-.4.2-.8.3-1.4.3zm-.1-5.7c-.4 0-.7.2-1 .5s-.4.7-.5 1.2h2.9v-.2c0-.5-.1-.8-.4-1.1-.2-.2-.6-.4-1-.4zM309.6 107.8c-.9 0-1.6-.3-2.1-.9s-.8-1.4-.8-2.3v-.3c0-.9.3-1.7.8-2.3s1.2-.9 1.9-.9c.9 0 1.5.3 1.9.8s.7 1.2.7 2.1v.7h-4.1c0 .6.2 1.1.5 1.5s.7.6 1.2.6c.4 0 .7-.1 1-.2s.5-.3.8-.5l.5.8c-.2.2-.5.4-.9.6-.4.2-.9.3-1.4.3zm-.2-5.7c-.4 0-.7.2-1 .5s-.4.7-.5 1.2h2.9v-.2c0-.5-.1-.8-.4-1.1-.2-.2-.5-.4-1-.4zM313 104.6c0-1 .2-1.8.7-2.5s1-.9 1.8-.9c.4 0 .7.1 1 .2s.5.3.7.6v-3.5h1.2v9.1h-.9l-.1-.8c-.2.3-.5.5-.8.7s-.7.2-1 .2c-.8 0-1.4-.3-1.8-.8s-.7-1.3-.7-2.2v-.1zm1.2.1c0 .6.1 1.2.4 1.5s.7.6 1.2.6c.3 0 .6-.1.9-.2s.4-.4.6-.7v-3c-.1-.3-.3-.5-.6-.6s-.5-.2-.9-.2c-.6 0-1 .2-1.2.7s-.4 1.1-.4 1.8v.1zM321.4 99.7h-1.2v-1.2h1.2v1.2zm0 8h-1.2v-6.3h1.2v6.3zM324.2 101.3l.1.9c.2-.3.5-.6.8-.8s.7-.3 1.1-.3c.7 0 1.2.2 1.6.6s.6 1 .6 1.9v4h-1.2v-4c0-.6-.1-1-.3-1.2s-.6-.4-1-.4c-.3 0-.6.1-.9.2s-.5.4-.6.7v4.6h-1.2v-6.3h1zM329.7 104.6c0-1 .2-1.8.7-2.5s1.1-.9 1.8-.9c.4 0 .8.1 1.1.2s.6.4.8.7l.1-.8h.9v6.4c0 .8-.2 1.4-.7 1.9s-1.2.7-2 .7c-.3 0-.6 0-1-.1s-.7-.2-.9-.3l.3-.9c.2.1.5.2.8.3s.6.1.9.1c.6 0 1-.1 1.2-.4s.4-.6.4-1.2v-.8c-.2.3-.5.5-.7.6s-.6.2-1 .2c-.8 0-1.4-.3-1.8-.8s-.7-1.3-.7-2.2v-.2zm1.2.1c0 .6.1 1.1.4 1.5s.7.6 1.2.6c.3 0 .6-.1.9-.2s.4-.4.6-.7V103c-.1-.3-.3-.5-.6-.6s-.5-.2-.9-.2c-.6 0-1 .2-1.2.7s-.4 1.1-.4 1.8zM340.8 101.3l.1.8c.2-.3.5-.5.8-.7s.7-.2 1.1-.2.8.1 1.1.3.5.5.7.9c.2-.4.5-.6.8-.9s.7-.3 1.1-.3c.6 0 1.2.2 1.5.7s.6 1.1.6 2v3.8h-1.2v-3.8c0-.6-.1-1.1-.3-1.3s-.5-.4-1-.4c-.4 0-.7.1-1 .4s-.4.6-.4 1v4h-1.2v-3.8c0-.6-.1-1-.3-1.3s-.5-.4-1-.4c-.4 0-.6.1-.9.2s-.4.3-.5.6v4.7h-1.2v-6.3h1.2zM350 104.4c0-.9.3-1.7.8-2.3s1.2-.9 2.1-.9c.9 0 1.6.3 2.1.9s.8 1.4.8 2.3v.1c0 .9-.3 1.7-.8 2.3s-1.2.9-2.1.9-1.6-.3-2.1-.9-.8-1.4-.8-2.3v-.1zm1.1.2c0 .7.1 1.2.4 1.7.3.4.7.7 1.3.7.6 0 1-.2 1.3-.7.3-.4.4-1 .4-1.7v-.1c0-.7-.1-1.2-.4-1.7-.3-.4-.7-.7-1.3-.7-.6 0-1 .2-1.3.7-.3.4-.4 1-.4 1.7v.1zM358.6 99.8v1.5h1.2v.9h-1.2v3.8c0 .3.1.5.2.6s.3.2.5.2h.2c.1 0 .2 0 .2-.1l.2.8c-.1.1-.2.1-.4.2s-.3.1-.5.1c-.5 0-.8-.1-1.1-.4s-.4-.7-.4-1.3v-3.8h-1v-.9h1v-1.5h1.1zM362.5 99.7h-1.2v-1.2h1.2v1.2zm0 8h-1.2v-6.3h1.2v6.3zM364 104.4c0-.9.3-1.7.8-2.3s1.2-.9 2.1-.9c.9 0 1.6.3 2.1.9s.8 1.4.8 2.3v.1c0 .9-.3 1.7-.8 2.3s-1.2.9-2.1.9-1.6-.3-2.1-.9-.8-1.4-.8-2.3v-.1zm1.1.2c0 .7.1 1.2.4 1.7.3.4.7.7 1.3.7.6 0 1-.2 1.3-.7.3-.4.4-1 .4-1.7v-.1c0-.7-.1-1.2-.4-1.7-.3-.4-.7-.7-1.3-.7-.6 0-1 .2-1.3.7-.3.4-.4 1-.4 1.7v.1zM372.1 101.3l.1.9c.2-.3.5-.6.8-.8s.7-.3 1.1-.3c.7 0 1.2.2 1.6.6s.6 1 .6 1.9v4h-1.2v-4c0-.6-.1-1-.3-1.2s-.6-.4-1-.4c-.3 0-.6.1-.9.2s-.5.4-.6.7v4.6h-1.2v-6.3h1zM380.6 104.6c0-1 .2-1.8.7-2.5s1.1-.9 1.8-.9c.4 0 .8.1 1.1.2s.6.4.8.7l.1-.8h.9v6.4c0 .8-.2 1.4-.7 1.9s-1.2.7-2 .7c-.3 0-.6 0-1-.1s-.7-.2-.9-.3l.3-.9c.2.1.5.2.8.3s.6.1.9.1c.6 0 1-.1 1.2-.4s.4-.6.4-1.2v-.8c-.2.3-.5.5-.7.6s-.6.2-1 .2c-.8 0-1.4-.3-1.8-.8s-.7-1.3-.7-2.2v-.2zm1.2.1c0 .6.1 1.1.4 1.5s.7.6 1.2.6c.3 0 .6-.1.9-.2s.4-.4.6-.7V103c-.1-.3-.3-.5-.6-.6s-.5-.2-.9-.2c-.6 0-1 .2-1.2.7s-.4 1.1-.4 1.8zM390.7 102.3h-.6c-.3 0-.6.1-.8.2s-.4.3-.5.6v4.5h-1.2v-6.3h1l.1.9c.2-.3.4-.6.7-.8s.6-.3.9-.3h.4v1.2zM395.7 107.7c0-.2-.1-.4-.1-.5v-.4c-.2.3-.5.6-.8.8s-.7.3-1.1.3c-.7 0-1.2-.2-1.5-.5s-.5-.8-.5-1.4c0-.6.2-1.1.7-1.4s1.2-.5 2-.5h1.3v-.6c0-.4-.1-.7-.3-.9s-.5-.3-1-.3c-.4 0-.7.1-.9.3s-.3.4-.3.7h-1.1c0-.5.2-.9.7-1.3s1.1-.6 1.8-.6 1.3.2 1.7.5.7.9.7 1.6v3.8c0 .3.1.4.1.6h-1.4zm-1.9-.9c.4 0 .8-.1 1.1-.3s.6-.5.7-.7v-1h-1.3c-.5 0-.8.1-1.1.4s-.4.5-.4.8c0 .3.1.5.3.7.1 0 .3.1.7.1zM403.8 104.7c0 .9-.2 1.7-.7 2.2s-1 .8-1.8.8c-.4 0-.7-.1-1-.2s-.5-.3-.8-.6v3.1h-1.2v-8.8h.9l.2.8c.2-.3.5-.5.8-.7s.7-.2 1.1-.2c.8 0 1.4.3 1.8.9s.7 1.4.7 2.5v.2zm-1.2-.1c0-.7-.1-1.3-.4-1.8-.3-.5-.7-.7-1.3-.7-.3 0-.6.1-.8.2s-.4.4-.6.6v3.1c.1.3.3.5.6.6s.5.2.9.2c.5 0 1-.2 1.2-.6.3-.4.4-.9.4-1.5v-.1zM406.4 102.2c.2-.3.5-.5.8-.7s.7-.3 1.1-.3c.7 0 1.2.2 1.6.6s.6 1 .6 1.9v4h-1.2v-4c0-.5-.1-.9-.3-1.2s-.6-.4-1-.4c-.3 0-.6.1-.9.2s-.5.4-.6.6v4.7h-1.2v-9.1h1.2v3.7zM413.3 99.7h-1.2v-1.2h1.2v1.2zm0 8h-1.2v-6.3h1.2v6.3zM417.6 106.9c.4 0 .7-.1 1-.4s.4-.5.4-.9h1c0 .5-.2 1-.7 1.5s-1.1.6-1.8.6c-.9 0-1.6-.3-2.1-.9s-.7-1.4-.7-2.3v-.2c0-.9.2-1.7.7-2.3s1.2-.9 2.1-.9c.7 0 1.3.2 1.8.7s.7 1 .7 1.6h-1c0-.4-.1-.7-.4-1s-.6-.4-1-.4c-.6 0-1 .2-1.3.7-.3.4-.4 1-.4 1.6v.2c0 .6.1 1.2.4 1.6.3.6.7.8 1.3.8zM425.1 106c0-.3-.1-.5-.3-.6s-.6-.3-1.1-.4c-.8-.2-1.3-.4-1.7-.7-.4-.3-.6-.7-.6-1.2s.2-1 .7-1.3c.4-.4 1-.5 1.7-.5s1.3.2 1.8.6.6.8.6 1.4H425c0-.3-.1-.5-.3-.7s-.5-.3-.9-.3-.7.1-.9.3-.3.4-.3.7c0 .2.1.4.3.6s.5.3 1.1.4c.8.2 1.4.4 1.8.7s.6.7.6 1.2c0 .6-.2 1-.7 1.4s-1 .5-1.8.5-1.4-.2-1.9-.6-.7-.9-.7-1.4h1.1c0 .4.2.7.5.9.3.2.6.3 1 .3s.7-.1 1-.2.2-.9.2-1.1zM432.3 105.4l.1.8.2-.8 1.3-4h.9l1.3 4 .2.9.2-.9 1-4h1.1l-1.8 6.3h-.9l-1.2-3.9-.3-1.1-.3 1.1-1.2 3.9h-.9l-1.8-6.3h1.1l1 4zM439.5 104.4c0-.9.3-1.7.8-2.3s1.2-.9 2.1-.9c.9 0 1.6.3 2.1.9s.8 1.4.8 2.3v.1c0 .9-.3 1.7-.8 2.3s-1.2.9-2.1.9-1.6-.3-2.1-.9-.8-1.4-.8-2.3v-.1zm1.2.2c0 .7.1 1.2.4 1.7.3.4.7.7 1.3.7.6 0 1-.2 1.3-.7.3-.4.4-1 .4-1.7v-.1c0-.7-.1-1.2-.4-1.7-.3-.4-.7-.7-1.3-.7-.6 0-1 .2-1.3.7-.3.4-.4 1-.4 1.7v.1zM449.6 102.3h-.6c-.3 0-.6.1-.8.2s-.4.3-.5.6v4.5h-1.2v-6.3h1l.1.9c.2-.3.4-.6.7-.8s.6-.3.9-.3h.4v1.2zM452.6 104.7h-.8v2.9h-1.2v-9.1h1.2v5.3h.7l1.7-2.5h1.4l-2.2 2.9 2.5 3.5h-1.4l-1.9-3zM458.1 107.7H457v-1.2h1.2v1.2zM459.6 99.7l-.9 2h-.7l.4-2v-1.1h1.2v1.1zm1.9 0l-.9 2h-.6l.4-2v-1.1h1.2v1.1z"/></g><g><path class="st1" d="M7.5 127.3H3.3V126h4.2v1.3zM15.5 126.4v5.5h-1.7v-12.6h4.6c1.4 0 2.4.3 3.2.9.7.6 1.1 1.5 1.1 2.7 0 .6-.2 1.2-.5 1.7s-.8.9-1.5 1.1c.7.2 1.2.6 1.5 1.1.3.5.5 1.1.5 1.9v1.2c0 .4 0 .7.1 1.1.1.3.2.6.5.8v.2h-1.8c-.2-.2-.4-.5-.4-.9-.1-.4-.1-.8-.1-1.2v-1.2c0-.7-.2-1.2-.6-1.6s-.9-.6-1.6-.6h-3.3zm0-1.3h2.7c1 0 1.7-.2 2.1-.5.4-.4.6-.9.6-1.7 0-.7-.2-1.3-.6-1.6-.4-.4-1.1-.6-1.9-.6h-2.9v4.4zM24.8 127.1c0-1.4.4-2.5 1.1-3.4s1.8-1.3 3.1-1.3 2.3.4 3.1 1.3c.8.9 1.1 2 1.1 3.4v.2c0 1.4-.4 2.5-1.1 3.4-.8.9-1.8 1.3-3.1 1.3s-2.3-.4-3.1-1.3c-.8-.9-1.1-2-1.1-3.4v-.2zm1.7.2c0 1 .2 1.8.6 2.5.4.6 1 1 1.9 1 .8 0 1.4-.3 1.9-1 .4-.6.6-1.5.6-2.5v-.2c0-1-.2-1.8-.6-2.4-.4-.7-1-1-1.9-1-.8 0-1.4.3-1.9 1-.4.7-.6 1.5-.6 2.4v.2zM41.3 130.5c-.3.5-.7.9-1.1 1.2s-1 .4-1.6.4c-1 0-1.8-.3-2.4-1-.6-.7-.9-1.7-.9-3v-5.5H37v5.5c0 1 .1 1.7.4 2.1.3.4.8.6 1.4.6.6 0 1.1-.1 1.5-.4.4-.2.7-.6.9-1v-6.8h1.7v9.4h-1.5l-.1-1.5zM46.9 122.5l.1 1.4c.3-.5.7-.9 1.2-1.2s1-.4 1.6-.4c1 0 1.8.3 2.3.9.6.6.8 1.5.8 2.7v5.9h-1.7V126c0-.8-.2-1.4-.5-1.8s-.8-.5-1.5-.5c-.5 0-.9.1-1.3.4-.4.2-.7.6-.9 1v6.8h-1.7v-9.4h1.6zM55.1 127.4c0-1.5.3-2.7 1-3.6.6-.9 1.5-1.4 2.7-1.4.5 0 1 .1 1.5.3s.8.5 1.1.9v-5.2H63v13.5h-1.4l-.2-1.2c-.3.4-.7.8-1.1 1-.4.2-1 .3-1.6.3-1.1 0-2-.4-2.7-1.2-.6-.8-1-1.9-1-3.3v-.1zm1.7.2c0 .9.2 1.7.6 2.3.4.6 1 .9 1.8.9.5 0 .9-.1 1.3-.3s.6-.6.8-1V125c-.2-.4-.5-.7-.9-.9-.3-.2-.8-.3-1.3-.3-.8 0-1.4.3-1.8 1s-.6 1.6-.6 2.6v.2zM78.8 120.6h-4.1v11.3H73v-11.3h-4v-1.3h9.8v1.3zM85.4 131.9c-.1-.3-.1-.5-.1-.7 0-.2-.1-.4-.1-.7-.3.5-.7.8-1.2 1.1-.5.3-1.1.5-1.7.5-1 0-1.7-.2-2.2-.7-.5-.5-.8-1.2-.8-2.1 0-.9.4-1.6 1.1-2.1.7-.5 1.7-.8 3-.8h1.9v-.9c0-.5-.2-1-.5-1.3s-.8-.5-1.4-.5c-.5 0-1 .1-1.3.4s-.5.6-.5 1H80v-.1c0-.7.3-1.3 1-1.9.7-.6 1.6-.8 2.6-.8 1.1 0 1.9.3 2.6.8.6.5 1 1.3 1 2.3v4.5c0 .3 0 .7.1 1 0 .3.1.6.2.9h-2.1zm-2.8-1.2c.6 0 1.2-.2 1.7-.5s.8-.7 1-1.1v-1.5h-1.9c-.7 0-1.2.2-1.7.5-.4.3-.6.8-.6 1.2 0 .4.1.7.4 1 .2.2.6.4 1.1.4zM97.4 127.6c0 1.4-.3 2.4-1 3.3-.6.8-1.5 1.2-2.7 1.2-.6 0-1.2-.1-1.6-.4s-.8-.6-1.1-1.1l-.2 1.2h-1.4v-13.5h1.7v5.2c.3-.4.7-.7 1.1-1 .4-.2.9-.3 1.5-.3 1.2 0 2.1.5 2.7 1.4.6.9 1 2.1 1 3.6v.4zm-1.7-.2c0-1.1-.2-2-.6-2.6-.4-.7-1-1-1.8-1-.5 0-1 .1-1.3.4s-.6.6-.9 1v4.1c.2.5.5.8.9 1.1.4.3.8.4 1.3.4.8 0 1.4-.3 1.8-.9.4-.6.6-1.3.6-2.3v-.2zM101.3 131.9h-1.7v-13.5h1.7v13.5zM107.9 132.1c-1.3 0-2.3-.4-3.1-1.3-.8-.9-1.2-2-1.2-3.4v-.4c0-1.3.4-2.4 1.2-3.3s1.7-1.3 2.8-1.3c1.3 0 2.2.4 2.9 1.1.6.8 1 1.8 1 3v1.1h-6.1c0 .9.2 1.6.7 2.2.4.6 1.1.9 1.8.9.6 0 1.1-.1 1.5-.2.4-.2.8-.4 1.1-.7l.7 1.1c-.3.3-.8.6-1.3.8-.6.3-1.3.4-2 .4zm-.3-8.4c-.6 0-1.1.2-1.5.7s-.7 1.1-.7 1.8h4.3v-.2c0-.7-.2-1.2-.5-1.7-.4-.4-.9-.6-1.6-.6zM127 127.9c0 1.2-.4 2.2-1.2 3-.9.8-2 1.2-3.4 1.2s-2.6-.5-3.5-1.5c-.9-1-1.3-2.3-1.3-3.8v-2.2c0-1.6.4-2.8 1.3-3.9.9-1 2.1-1.5 3.5-1.5s2.6.4 3.4 1.1c.8.8 1.3 1.8 1.2 3v.1h-1.6c0-.9-.3-1.6-.8-2.1s-1.3-.8-2.2-.8c-1 0-1.7.4-2.3 1.2s-.8 1.7-.8 2.9v2.3c0 1.1.3 2.1.8 2.9s1.3 1.2 2.3 1.2c.9 0 1.7-.3 2.2-.8.5-.5.8-1.2.8-2.1h1.6zM128.6 127.1c0-1.4.4-2.5 1.1-3.4s1.8-1.3 3.1-1.3 2.3.4 3.1 1.3c.8.9 1.1 2 1.1 3.4v.2c0 1.4-.4 2.5-1.1 3.4s-1.8 1.3-3.1 1.3-2.3-.4-3.1-1.3c-.8-.9-1.1-2-1.1-3.4v-.2zm1.7.2c0 1 .2 1.8.6 2.5.4.6 1 1 1.9 1 .8 0 1.4-.3 1.9-1 .4-.6.6-1.5.6-2.5v-.2c0-1-.2-1.8-.6-2.4-.4-.7-1-1-1.9-1-.8 0-1.4.3-1.9 1-.4.7-.6 1.5-.6 2.4v.2zM140.6 122.5l.1 1.2c.3-.4.7-.8 1.2-1 .5-.2 1-.4 1.6-.4.6 0 1.2.1 1.6.4.4.3.8.7 1 1.3.3-.5.7-1 1.2-1.3.5-.3 1.1-.5 1.7-.5 1 0 1.7.3 2.3 1 .6.7.8 1.6.8 3v5.6h-1.7v-5.6c0-.9-.2-1.6-.5-2s-.8-.6-1.4-.6c-.6 0-1.1.2-1.4.6-.4.4-.6.9-.6 1.5v6.1h-1.7v-5.6c0-.9-.2-1.5-.5-1.9-.3-.4-.8-.6-1.4-.6-.5 0-.9.1-1.3.3s-.6.5-.8.9v6.9h-1.7v-9.4h1.5zM162.6 127.6c0 1.4-.3 2.4-1 3.3-.6.8-1.5 1.2-2.7 1.2-.6 0-1.1-.1-1.5-.3-.4-.2-.8-.5-1.1-.9v4.6h-1.7v-13h1.3l.3 1.2c.3-.5.7-.8 1.1-1 .5-.2 1-.4 1.6-.4 1.2 0 2.1.5 2.7 1.4.6.9 1 2.1 1 3.7v.2zm-1.7-.2c0-1.1-.2-1.9-.6-2.6-.4-.7-1-1-1.8-1-.5 0-.9.1-1.3.3s-.6.5-.8.9v4.5c.2.4.5.7.8.9.3.2.8.3 1.3.3.8 0 1.4-.3 1.8-.9.4-.6.6-1.4.6-2.3v-.1zM170.4 131.9c-.1-.3-.1-.5-.1-.7 0-.2-.1-.4-.1-.7-.3.5-.7.8-1.2 1.1-.5.3-1.1.5-1.7.5-1 0-1.7-.2-2.2-.7-.5-.5-.8-1.2-.8-2.1 0-.9.4-1.6 1.1-2.1.7-.5 1.7-.8 3-.8h1.9v-.9c0-.5-.2-1-.5-1.3s-.8-.5-1.4-.5c-.5 0-1 .1-1.3.4s-.5.6-.5 1H165v-.1c0-.7.3-1.3 1-1.9.7-.6 1.6-.8 2.6-.8 1.1 0 1.9.3 2.6.8.6.5 1 1.3 1 2.3v4.5c0 .3 0 .7.1 1 0 .3.1.6.2.9h-2.1zm-2.8-1.2c.6 0 1.2-.2 1.7-.5s.8-.7 1-1.1v-1.5h-1.9c-.7 0-1.2.2-1.7.5-.4.3-.6.8-.6 1.2 0 .4.1.7.4 1 .2.2.6.4 1.1.4zM176 122.5l.1 1.4c.3-.5.7-.9 1.2-1.2s1-.4 1.6-.4c1 0 1.8.3 2.3.9.6.6.8 1.5.8 2.7v5.9h-1.7V126c0-.8-.2-1.4-.5-1.8s-.8-.5-1.5-.5c-.5 0-.9.1-1.3.4-.4.2-.7.6-.9 1v6.8h-1.7v-9.4h1.6zM186.4 120.1h-1.7v-1.7h1.7v1.7zm0 11.8h-1.7v-9.4h1.7v9.4zM192.9 132.1c-1.3 0-2.3-.4-3.1-1.3-.8-.9-1.2-2-1.2-3.4v-.4c0-1.3.4-2.4 1.2-3.3s1.7-1.3 2.8-1.3c1.3 0 2.2.4 2.9 1.1.6.8 1 1.8 1 3v1.1h-6.1c0 .9.2 1.6.7 2.2.4.6 1.1.9 1.8.9.6 0 1.1-.1 1.5-.2.4-.2.8-.4 1.1-.7l.7 1.1c-.3.3-.8.6-1.3.8-.6.3-1.2.4-2 .4zm-.3-8.4c-.6 0-1.1.2-1.5.7s-.7 1.1-.7 1.8h4.3v-.2c0-.7-.2-1.2-.5-1.7-.4-.4-.9-.6-1.6-.6zM203.8 129.4c0-.4-.1-.7-.4-.9-.3-.2-.8-.5-1.6-.6-1.1-.2-2-.6-2.6-1-.6-.4-.9-1-.9-1.7 0-.8.3-1.4 1-1.9.6-.5 1.5-.8 2.5-.8 1.1 0 2 .3 2.6.8.6.6 1 1.2.9 2v.1h-1.6c0-.4-.2-.8-.5-1.1-.3-.3-.8-.5-1.4-.5-.6 0-1.1.1-1.4.4-.3.3-.4.6-.4 1s.1.7.4.9c.3.2.8.4 1.6.6 1.2.3 2.1.6 2.6 1 .6.4.9 1 .9 1.8s-.3 1.5-1 2-1.6.8-2.6.8c-1.2 0-2.1-.3-2.8-.9-.7-.6-1-1.3-1-2.1v-.1h1.6c0 .6.3 1 .7 1.3.4.3.9.4 1.5.4s1.1-.1 1.4-.4c.3-.4.5-.7.5-1.1z"/></g><g><path class="st0" d="M29.8 162.6l.9-2.1h.6l-.4 2.1v1h-1.2v-1zm1.9 0l.9-2.1h.6l-.4 2.1v1h-1.2v-1zM38.2 161.1h1.2v6.2c0 .8-.2 1.4-.7 1.8s-1.1.7-1.9.7c-.8 0-1.5-.2-2-.6s-.7-1-.7-1.8h1.1c0 .5.1.9.4 1.2s.6.4 1.1.4c.4 0 .8-.1 1-.4.3-.3.4-.7.4-1.2v-6.3zM45 169.7c0-.2-.1-.4-.1-.5v-.4c-.2.3-.5.6-.8.8s-.7.3-1.1.3c-.7 0-1.2-.2-1.5-.5s-.5-.8-.5-1.4c0-.6.2-1.1.7-1.4s1.2-.5 2-.5H45v-.6c0-.4-.1-.7-.3-.9s-.5-.3-1-.3c-.4 0-.7.1-.9.3s-.3.4-.3.7h-1.1c0-.5.2-.9.7-1.3s1.1-.6 1.8-.6 1.3.2 1.7.5.7.9.7 1.6v3.8c0 .3.1.4.1.6H45zm-1.9-.9c.4 0 .8-.1 1.1-.3s.6-.5.7-.7v-1h-1.3c-.5 0-.8.1-1.1.4s-.4.5-.4.8c0 .3.1.5.3.7.1 0 .4.1.7.1zM50.7 164.3h-.6c-.3 0-.6.1-.8.2s-.4.3-.5.6v4.5h-1.2v-6.3h1l.1.9c.2-.3.4-.6.7-.8s.6-.3.9-.3h.4v1.2zM51.5 166.4c0-.9.3-1.7.8-2.3s1.2-.9 2.1-.9c.9 0 1.6.3 2.1.9s.8 1.4.8 2.3v.1c0 .9-.3 1.7-.8 2.3s-1.2.9-2.1.9-1.6-.3-2.1-.9-.8-1.4-.8-2.3v-.1zm1.1.2c0 .7.1 1.2.4 1.7.3.4.7.7 1.3.7.6 0 1-.2 1.3-.7.3-.4.4-1 .4-1.7v-.1c0-.7-.1-1.2-.4-1.7-.3-.4-.7-.7-1.3-.7-.6 0-1 .2-1.3.7-.3.4-.4 1-.4 1.7v.1zM59.6 163.3l.1.9c.2-.3.5-.6.8-.8s.7-.3 1.1-.3c.7 0 1.2.2 1.6.6s.6 1 .6 1.9v4h-1.2v-4c0-.6-.1-1-.3-1.2s-.6-.4-1-.4c-.3 0-.6.1-.9.2s-.5.4-.6.7v4.6h-1.2v-6.3h1zM69.6 161.7h-1.2v-1.2h1.2v1.2zm0 8h-1.2v-6.3h1.2v6.3zM75.1 168c0-.3-.1-.5-.3-.6s-.6-.3-1.1-.4c-.8-.2-1.3-.4-1.7-.7-.4-.3-.6-.7-.6-1.2s.2-1 .7-1.3c.4-.4 1-.5 1.7-.5s1.3.2 1.8.6.6.8.6 1.4H75c0-.3-.1-.5-.3-.7s-.5-.3-.9-.3-.7.1-.9.3-.3.4-.3.7c0 .2.1.4.3.6s.5.3 1.1.4c.8.2 1.4.4 1.8.7s.6.7.6 1.2c0 .6-.2 1-.7 1.4s-1 .5-1.8.5-1.4-.2-1.9-.6-.7-.9-.7-1.4h1.1c0 .4.2.7.5.9.3.2.6.3 1 .3s.7-.1 1-.2.2-.9.2-1.1zM80.4 166.6c0-1 .2-1.8.7-2.5s1.1-.9 1.8-.9c.4 0 .8.1 1.1.2s.6.4.8.7l.1-.8h.9v6.4c0 .8-.2 1.4-.7 1.9s-1.2.7-2 .7c-.3 0-.6 0-1-.1s-.7-.2-.9-.3l.3-.9c.2.1.5.2.8.3s.6.1.9.1c.6 0 1-.1 1.2-.4s.4-.6.4-1.2v-.8c-.2.3-.5.5-.7.6s-.6.2-1 .2c-.8 0-1.4-.3-1.8-.8s-.7-1.3-.7-2.2v-.2zm1.2.1c0 .6.1 1.1.4 1.5s.7.6 1.2.6c.3 0 .6-.1.9-.2s.4-.4.6-.7V165c-.1-.3-.3-.5-.6-.6s-.5-.2-.9-.2c-.6 0-1 .2-1.2.7s-.4 1.1-.4 1.8zM90.5 164.3h-.6c-.3 0-.6.1-.8.2s-.4.3-.5.6v4.5h-1.2v-6.3h1l.1.9c.2-.3.4-.6.7-.8s.6-.3.9-.3h.4v1.2zM94.1 169.8c-.9 0-1.6-.3-2.1-.9s-.8-1.4-.8-2.3v-.3c0-.9.3-1.7.8-2.3s1.2-.9 1.9-.9c.9 0 1.5.3 1.9.8s.7 1.2.7 2.1v.7h-4.1c0 .6.2 1.1.5 1.5s.7.6 1.2.6c.4 0 .7-.1 1-.2s.5-.3.8-.5l.5.8c-.2.2-.5.4-.9.6-.4.2-.9.3-1.4.3zm-.2-5.7c-.4 0-.7.2-1 .5s-.4.7-.5 1.2h2.9v-.2c0-.5-.1-.8-.4-1.1-.1-.2-.5-.4-1-.4zM101.7 169.7c0-.2-.1-.4-.1-.5v-.4c-.2.3-.5.6-.8.8s-.7.3-1.1.3c-.7 0-1.2-.2-1.5-.5s-.5-.8-.5-1.4c0-.6.2-1.1.7-1.4s1.2-.5 2-.5h1.3v-.6c0-.4-.1-.7-.3-.9s-.5-.3-1-.3c-.4 0-.7.1-.9.3s-.3.4-.3.7h-1.1c0-.5.2-.9.7-1.3s1.1-.6 1.8-.6 1.3.2 1.7.5.7.9.7 1.6v3.8c0 .3.1.4.1.6h-1.4zm-1.9-.9c.4 0 .8-.1 1.1-.3s.6-.5.7-.7v-1h-1.3c-.5 0-.8.1-1.1.4s-.4.5-.4.8c0 .3.1.5.3.7.1 0 .4.1.7.1zM105.9 161.8v1.5h1.2v.9h-1.2v3.8c0 .3.1.5.2.6s.3.2.5.2h.2c.1 0 .2 0 .2-.1l.2.8c-.1.1-.2.1-.4.2s-.3.1-.5.1c-.5 0-.8-.1-1.1-.4s-.4-.7-.4-1.3v-3.8h-1v-.9h1v-1.5h1.1zM109.9 166.9h-1.2v-5.7h1.2v5.7zm0 2.8h-1.2v-1.2h1.2v1.2zM121.4 169.7h-1.2v-3.8h-4.1v3.8h-1.2v-8.5h1.2v3.9h4.1v-3.9h1.2v8.5zM124.5 161.7h-1.2v-1.2h1.2v1.2zm0 8h-1.2v-6.3h1.2v6.3zM130 168c0-.3-.1-.5-.3-.6s-.6-.3-1.1-.4c-.8-.2-1.3-.4-1.7-.7-.4-.3-.6-.7-.6-1.2s.2-1 .7-1.3c.4-.4 1-.5 1.7-.5s1.3.2 1.8.6.6.8.6 1.4H130c0-.3-.1-.5-.3-.7s-.5-.3-.9-.3-.7.1-.9.3-.3.4-.3.7c0 .2.1.4.3.6s.5.3 1.1.4c.8.2 1.4.4 1.8.7s.6.7.6 1.2c0 .6-.2 1-.7 1.4s-1 .5-1.8.5-1.4-.2-1.9-.6-.7-.9-.7-1.4h1.1c0 .4.2.7.5.9.3.2.6.3 1 .3s.7-.1 1-.2.1-.9.1-1.1zM137.2 167.4l.1.8.2-.8 1.3-4h.9l1.3 4 .2.9.2-.9 1-4h1.1l-1.8 6.3h-.9l-1.2-3.9-.3-1.1-.3 1.1-1.2 3.9h-.9l-1.8-6.3h1.1l1 4zM144.4 166.4c0-.9.3-1.7.8-2.3s1.2-.9 2.1-.9c.9 0 1.6.3 2.1.9s.8 1.4.8 2.3v.1c0 .9-.3 1.7-.8 2.3s-1.2.9-2.1.9-1.6-.3-2.1-.9-.8-1.4-.8-2.3v-.1zm1.1.2c0 .7.1 1.2.4 1.7.3.4.7.7 1.3.7.6 0 1-.2 1.3-.7.3-.4.4-1 .4-1.7v-.1c0-.7-.1-1.2-.4-1.7-.3-.4-.7-.7-1.3-.7-.6 0-1 .2-1.3.7-.3.4-.4 1-.4 1.7v.1zM154.4 164.3h-.6c-.3 0-.6.1-.8.2s-.4.3-.5.6v4.5h-1.2v-6.3h1l.1.9c.2-.3.4-.6.7-.8s.6-.3.9-.3h.4v1.2zM157.5 166.7h-.8v2.9h-1.2v-9.1h1.2v5.3h.7l1.7-2.5h1.4l-2.2 2.9 2.5 3.5h-1.4l-1.9-3zM165.9 161.7h-1.2v-1.2h1.2v1.2zm0 8h-1.2v-6.3h1.2v6.3zM171.4 168c0-.3-.1-.5-.3-.6s-.6-.3-1.1-.4c-.8-.2-1.3-.4-1.7-.7-.4-.3-.6-.7-.6-1.2s.2-1 .7-1.3c.4-.4 1-.5 1.7-.5s1.3.2 1.8.6.6.8.6 1.4h-1.1c0-.3-.1-.5-.3-.7s-.5-.3-.9-.3-.7.1-.9.3-.3.4-.3.7c0 .2.1.4.3.6s.5.3 1.1.4c.8.2 1.4.4 1.8.7s.6.7.6 1.2c0 .6-.2 1-.7 1.4s-1 .5-1.8.5-1.4-.2-1.9-.6-.7-.9-.7-1.4h1.1c0 .4.2.7.5.9.3.2.6.3 1 .3s.7-.1 1-.2.1-.9.1-1.1zM176.7 166.6c0-1 .2-1.8.7-2.5s1.1-.9 1.8-.9c.4 0 .8.1 1.1.2s.6.4.8.7l.1-.8h.9v6.4c0 .8-.2 1.4-.7 1.9s-1.2.7-2 .7c-.3 0-.6 0-1-.1s-.7-.2-.9-.3l.3-.9c.2.1.5.2.8.3s.6.1.9.1c.6 0 1-.1 1.2-.4s.4-.6.4-1.2v-.8c-.2.3-.5.5-.7.6s-.6.2-1 .2c-.8 0-1.4-.3-1.8-.8s-.7-1.3-.7-2.2v-.2zm1.2.1c0 .6.1 1.1.4 1.5s.7.6 1.2.6c.3 0 .6-.1.9-.2s.4-.4.6-.7V165c-.1-.3-.3-.5-.6-.6s-.5-.2-.9-.2c-.6 0-1 .2-1.2.7s-.4 1.1-.4 1.8zM186.8 164.3h-.6c-.3 0-.6.1-.8.2s-.4.3-.5.6v4.5h-1.2v-6.3h1l.1.9c.2-.3.4-.6.7-.8s.6-.3.9-.3h.4v1.2zM190.4 169.8c-.9 0-1.6-.3-2.1-.9s-.8-1.4-.8-2.3v-.3c0-.9.3-1.7.8-2.3s1.2-.9 1.9-.9c.9 0 1.5.3 1.9.8s.7 1.2.7 2.1v.7h-4.1c0 .6.2 1.1.5 1.5s.7.6 1.2.6c.4 0 .7-.1 1-.2s.5-.3.8-.5l.5.8c-.2.2-.5.4-.9.6-.4.2-.8.3-1.4.3zm-.1-5.7c-.4 0-.7.2-1 .5s-.4.7-.5 1.2h2.9v-.2c0-.5-.1-.8-.4-1.1-.2-.2-.6-.4-1-.4zM198 169.7c0-.2-.1-.4-.1-.5v-.4c-.2.3-.5.6-.8.8s-.7.3-1.1.3c-.7 0-1.2-.2-1.5-.5s-.5-.8-.5-1.4c0-.6.2-1.1.7-1.4s1.2-.5 2-.5h1.3v-.6c0-.4-.1-.7-.3-.9s-.5-.3-1-.3c-.4 0-.7.1-.9.3s-.3.4-.3.7h-1.1c0-.5.2-.9.7-1.3s1.1-.6 1.8-.6 1.3.2 1.7.5.7.9.7 1.6v3.8c0 .3.1.4.1.6H198zm-1.9-.9c.4 0 .8-.1 1.1-.3s.6-.5.7-.7v-1h-1.3c-.5 0-.8.1-1.1.4s-.4.5-.4.8c0 .3.1.5.3.7.1 0 .4.1.7.1zM202.3 161.8v1.5h1.2v.9h-1.2v3.8c0 .3.1.5.2.6s.3.2.5.2h.2c.1 0 .2 0 .2-.1l.2.8c-.1.1-.2.1-.4.2s-.3.1-.5.1c-.5 0-.8-.1-1.1-.4s-.4-.7-.4-1.3v-3.8h-1v-.9h1v-1.5h1.1zM211.8 169.7c0-.2-.1-.4-.1-.5v-.4c-.2.3-.5.6-.8.8s-.7.3-1.1.3c-.7 0-1.2-.2-1.5-.5s-.5-.8-.5-1.4c0-.6.2-1.1.7-1.4s1.2-.5 2-.5h1.3v-.6c0-.4-.1-.7-.3-.9s-.5-.3-1-.3c-.4 0-.7.1-.9.3s-.3.4-.3.7H208c0-.5.2-.9.7-1.3s1.1-.6 1.8-.6 1.3.2 1.7.5.7.9.7 1.6v3.8c0 .3.1.4.1.6h-1.2zm-1.9-.9c.4 0 .8-.1 1.1-.3s.6-.5.7-.7v-1h-1.3c-.5 0-.8.1-1.1.4s-.4.5-.4.8c0 .3.1.5.3.7.1 0 .3.1.7.1zM215.5 163.3l.1.9c.2-.3.5-.6.8-.8s.7-.3 1.1-.3c.7 0 1.2.2 1.6.6s.6 1 .6 1.9v4h-1.2v-4c0-.6-.1-1-.3-1.2s-.6-.4-1-.4c-.3 0-.6.1-.9.2s-.5.4-.6.7v4.6h-1.2v-6.3h1zM221 166.6c0-1 .2-1.8.7-2.5s1-.9 1.8-.9c.4 0 .7.1 1 .2s.5.3.7.6v-3.5h1.2v9.1h-.9l-.1-.8c-.2.3-.5.5-.8.7s-.7.2-1 .2c-.8 0-1.4-.3-1.8-.8s-.7-1.3-.7-2.2v-.1zm1.2.1c0 .6.1 1.2.4 1.5s.7.6 1.2.6c.3 0 .6-.1.9-.2s.4-.4.6-.7v-3c-.1-.3-.3-.5-.6-.6s-.5-.2-.9-.2c-.6 0-1 .2-1.2.7s-.4 1.1-.4 1.8v.1zM232.5 169.7h-1.2v-8.5h1.2v8.5zM238.6 164.2c.2-.3.5-.5.8-.7s.7-.3 1.1-.3c.7 0 1.2.2 1.6.6s.6 1 .6 1.9v4h-1.2v-4c0-.5-.1-.9-.3-1.2s-.6-.4-1-.4c-.3 0-.6.1-.9.2s-.5.4-.6.6v4.7h-1.2v-9.1h1.2v3.7zM245.5 161.7h-1.2v-1.2h1.2v1.2zm0 8h-1.2v-6.3h1.2v6.3zM247.1 166.6c0-1 .2-1.8.7-2.5s1.1-.9 1.8-.9c.4 0 .8.1 1.1.2s.6.4.8.7l.1-.8h.9v6.4c0 .8-.2 1.4-.7 1.9s-1.2.7-2 .7c-.3 0-.6 0-1-.1s-.7-.2-.9-.3l.3-.9c.2.1.5.2.8.3s.6.1.9.1c.6 0 1-.1 1.2-.4s.4-.6.4-1.2v-.8c-.2.3-.5.5-.7.6s-.6.2-1 .2c-.8 0-1.4-.3-1.8-.8s-.7-1.3-.7-2.2v-.2zm1.1.1c0 .6.1 1.1.4 1.5s.7.6 1.2.6c.3 0 .6-.1.9-.2s.4-.4.6-.7V165c-.1-.3-.3-.5-.6-.6s-.5-.2-.9-.2c-.6 0-1 .2-1.2.7s-.4 1.1-.4 1.8zM255.3 164.2c.2-.3.5-.5.8-.7.3-.2.7-.3 1.1-.3.7 0 1.2.2 1.6.6s.6 1 .6 1.9v4h-1.2v-4c0-.5-.1-.9-.3-1.2s-.6-.4-1-.4c-.3 0-.6.1-.9.2-.3.2-.5.4-.6.6v4.7h-1.2v-9.1h1.2v3.7zM262.2 169.7H261v-9.1h1.2v9.1zM265.9 167.3l.2.8 1.6-4.8h1.3l-2.7 7.3c-.2.4-.4.8-.7 1.1s-.7.5-1.2.5h-.4c-.2 0-.3 0-.3-.1l.1-.9h.5c.2 0 .4-.1.6-.3s.3-.5.4-.7l.3-.7-2.4-6.2h1.3l1.4 4zM276 164.3h-.6c-.3 0-.6.1-.8.2s-.4.3-.5.6v4.5H273v-6.3h1l.1.9c.2-.3.4-.6.7-.8s.6-.3.9-.3h.4l-.1 1.2zM279.6 169.8c-.9 0-1.6-.3-2.1-.9s-.8-1.4-.8-2.3v-.3c0-.9.3-1.7.8-2.3s1.2-.9 1.9-.9c.9 0 1.5.3 1.9.8s.7 1.2.7 2.1v.7h-4.1c0 .6.2 1.1.5 1.5s.7.6 1.2.6c.4 0 .7-.1 1-.2s.5-.3.8-.5l.5.8c-.2.2-.5.4-.9.6-.4.2-.8.3-1.4.3zm-.1-5.7c-.4 0-.7.2-1 .5s-.4.7-.5 1.2h2.9v-.2c0-.5-.1-.8-.4-1.1-.2-.2-.6-.4-1-.4zM285.9 168.9c.4 0 .7-.1 1-.4s.4-.5.4-.9h1c0 .5-.2 1-.7 1.5s-1.1.6-1.8.6c-.9 0-1.6-.3-2.1-.9s-.7-1.4-.7-2.3v-.2c0-.9.2-1.7.7-2.3s1.2-.9 2.1-.9c.7 0 1.3.2 1.8.7s.7 1 .7 1.6h-1c0-.4-.1-.7-.4-1s-.6-.4-1-.4c-.6 0-1 .2-1.3.7-.3.4-.4 1-.4 1.6v.2c0 .6.1 1.2.4 1.6.3.6.7.8 1.3.8zM289.4 166.4c0-.9.3-1.7.8-2.3s1.2-.9 2.1-.9c.9 0 1.6.3 2.1.9s.8 1.4.8 2.3v.1c0 .9-.3 1.7-.8 2.3s-1.2.9-2.1.9-1.6-.3-2.1-.9-.8-1.4-.8-2.3v-.1zm1.2.2c0 .7.1 1.2.4 1.7.3.4.7.7 1.3.7.6 0 1-.2 1.3-.7.3-.4.4-1 .4-1.7v-.1c0-.7-.1-1.2-.4-1.7-.3-.4-.7-.7-1.3-.7-.6 0-1 .2-1.3.7-.3.4-.4 1-.4 1.7v.1zM297.6 163.3l.1.8c.2-.3.5-.5.8-.7s.7-.2 1.1-.2.8.1 1.1.3.5.5.7.9c.2-.4.5-.6.8-.9s.7-.3 1.1-.3c.6 0 1.2.2 1.5.7s.6 1.1.6 2v3.8h-1.2v-3.8c0-.6-.1-1.1-.3-1.3s-.5-.4-1-.4c-.4 0-.7.1-1 .4s-.4.6-.4 1v4h-1.2v-3.8c0-.6-.1-1-.3-1.3s-.5-.4-1-.4c-.4 0-.6.1-.9.2s-.4.3-.5.6v4.7h-1.2v-6.3h1.2zM308.1 163.3l.1.8c.2-.3.5-.5.8-.7s.7-.2 1.1-.2.8.1 1.1.3.5.5.7.9c.2-.4.5-.6.8-.9s.7-.3 1.1-.3c.6 0 1.2.2 1.5.7s.6 1.1.6 2v3.8h-1.2v-3.8c0-.6-.1-1.1-.3-1.3s-.5-.4-1-.4c-.4 0-.7.1-1 .4s-.4.6-.4 1v4h-1.2v-3.8c0-.6-.1-1-.3-1.3s-.5-.4-1-.4c-.4 0-.6.1-.9.2s-.4.3-.5.6v4.7H307v-6.3h1.1zM320.1 169.8c-.9 0-1.6-.3-2.1-.9s-.8-1.4-.8-2.3v-.3c0-.9.3-1.7.8-2.3s1.2-.9 1.9-.9c.9 0 1.5.3 1.9.8s.7 1.2.7 2.1v.7h-4.1c0 .6.2 1.1.5 1.5s.7.6 1.2.6c.4 0 .7-.1 1-.2s.5-.3.8-.5l.5.8c-.2.2-.5.4-.9.6-.4.2-.8.3-1.4.3zm-.1-5.7c-.4 0-.7.2-1 .5s-.4.7-.5 1.2h2.9v-.2c0-.5-.1-.8-.4-1.1-.2-.2-.6-.4-1-.4zM324.9 163.3l.1.9c.2-.3.5-.6.8-.8s.7-.3 1.1-.3c.7 0 1.2.2 1.6.6s.6 1 .6 1.9v4h-1.2v-4c0-.6-.1-1-.3-1.2s-.6-.4-1-.4c-.3 0-.6.1-.9.2s-.5.4-.6.7v4.6h-1.2v-6.3h1zM330.4 166.6c0-1 .2-1.8.7-2.5s1-.9 1.8-.9c.4 0 .7.1 1 .2s.5.3.7.6v-3.5h1.2v9.1h-.9l-.1-.8c-.2.3-.5.5-.8.7s-.7.2-1 .2c-.8 0-1.4-.3-1.8-.8s-.7-1.3-.7-2.2v-.1zm1.2.1c0 .6.1 1.2.4 1.5s.7.6 1.2.6c.3 0 .6-.1.9-.2s.4-.4.6-.7v-3c-.1-.3-.3-.5-.6-.6s-.5-.2-.9-.2c-.6 0-1 .2-1.2.7s-.4 1.1-.4 1.8v.1zM341.6 164.2c.2-.3.5-.5.8-.7s.7-.3 1.1-.3c.7 0 1.2.2 1.6.6s.6 1 .6 1.9v4h-1.2v-4c0-.5-.1-.9-.3-1.2s-.6-.4-1-.4c-.3 0-.6.1-.9.2s-.5.4-.6.6v4.7h-1.2v-9.1h1.2v3.7zM348.5 161.7h-1.2v-1.2h1.2v1.2zm0 8h-1.2v-6.3h1.2v6.3zM351.4 163.3l.1.8c.2-.3.5-.5.8-.7s.7-.2 1.1-.2.8.1 1.1.3.5.5.7.9c.2-.4.5-.6.8-.9s.7-.3 1.1-.3c.6 0 1.2.2 1.5.7s.6 1.1.6 2v3.8H358v-3.8c0-.6-.1-1.1-.3-1.3s-.5-.4-1-.4c-.4 0-.7.1-1 .4s-.4.6-.4 1v4h-1.2v-3.8c0-.6-.1-1-.3-1.3s-.5-.4-1-.4c-.4 0-.6.1-.9.2s-.4.3-.5.6v4.7h-1.2v-6.3h1.2zM364.3 169.7v-5.5h-1v-.9h1v-.8c0-.7.2-1.2.5-1.6s.8-.6 1.5-.6h.4c.1 0 .3.1.4.1l-.1.9h-.6c-.3 0-.6.1-.8.3s-.2.5-.2.9v.8h1.3v.9h-1.3v5.5h-1.1zM367.7 166.4c0-.9.3-1.7.8-2.3s1.2-.9 2.1-.9c.9 0 1.6.3 2.1.9s.8 1.4.8 2.3v.1c0 .9-.3 1.7-.8 2.3s-1.2.9-2.1.9-1.6-.3-2.1-.9-.8-1.4-.8-2.3v-.1zm1.1.2c0 .7.1 1.2.4 1.7.3.4.7.7 1.3.7.6 0 1-.2 1.3-.7.3-.4.4-1 .4-1.7v-.1c0-.7-.1-1.2-.4-1.7-.3-.4-.7-.7-1.3-.7-.6 0-1 .2-1.3.7-.3.4-.4 1-.4 1.7v.1zM377.8 164.3h-.6c-.3 0-.6.1-.8.2s-.4.3-.5.6v4.5h-1.2v-6.3h1l.1.9c.2-.3.4-.6.7-.8s.6-.3.9-.3h.4v1.2zM385.7 169.7c0-.2-.1-.4-.1-.5v-.4c-.2.3-.5.6-.8.8s-.7.3-1.1.3c-.7 0-1.2-.2-1.5-.5s-.5-.8-.5-1.4c0-.6.2-1.1.7-1.4s1.2-.5 2-.5h1.3v-.6c0-.4-.1-.7-.3-.9s-.5-.3-1-.3c-.4 0-.7.1-.9.3s-.3.4-.3.7H382c0-.5.2-.9.7-1.3s1.1-.6 1.8-.6 1.3.2 1.7.5.7.9.7 1.6v3.8c0 .3.1.4.1.6h-1.3zm-1.9-.9c.4 0 .8-.1 1.1-.3s.6-.5.7-.7v-1h-1.3c-.5 0-.8.1-1.1.4s-.4.5-.4.8c0 .3.1.5.3.7.1 0 .4.1.7.1zM389.5 163.3l.1.9c.2-.3.5-.6.8-.8s.7-.3 1.1-.3c.7 0 1.2.2 1.6.6s.6 1 .6 1.9v4h-1.2v-4c0-.6-.1-1-.3-1.2s-.6-.4-1-.4c-.3 0-.6.1-.9.2s-.5.4-.6.7v4.6h-1.2v-6.3h1zM397.2 167.3l.2.8 1.6-4.8h1.3l-2.7 7.3c-.2.4-.4.8-.7 1.1s-.7.5-1.2.5h-.4c-.2 0-.3 0-.3-.1l.1-.9h.5c.2 0 .4-.1.6-.3s.3-.5.4-.7l.3-.7-2.4-6.2h1.3l1.4 4zM406.4 167.8l.1.4.1-.4 1.5-4.5h1.2l-2.3 6.3h-.9l-2.4-6.3h1.2l1.5 4.5zM411.6 161.7h-1.2v-1.2h1.2v1.2zm0 8h-1.2v-6.3h1.2v6.3zM413.1 166.6c0-1 .2-1.8.7-2.5s1-.9 1.8-.9c.4 0 .7.1 1 .2s.5.3.7.6v-3.5h1.2v9.1h-.9l-.1-.8c-.2.3-.5.5-.8.7s-.7.2-1 .2c-.8 0-1.4-.3-1.8-.8s-.7-1.3-.7-2.2v-.1zm1.1.1c0 .6.1 1.2.4 1.5s.7.6 1.2.6c.3 0 .6-.1.9-.2s.4-.4.6-.7v-3c-.1-.3-.3-.5-.6-.6s-.5-.2-.9-.2c-.6 0-1 .2-1.2.7s-.4 1.1-.4 1.8v.1zM422.8 169.8c-.9 0-1.6-.3-2.1-.9s-.8-1.4-.8-2.3v-.3c0-.9.3-1.7.8-2.3s1.2-.9 1.9-.9c.9 0 1.5.3 1.9.8s.7 1.2.7 2.1v.7h-4.1c0 .6.2 1.1.5 1.5s.7.6 1.2.6c.4 0 .7-.1 1-.2s.5-.3.8-.5l.5.8c-.2.2-.5.4-.9.6-.4.2-.9.3-1.4.3zm-.2-5.7c-.4 0-.7.2-1 .5s-.4.7-.5 1.2h2.9v-.2c0-.5-.1-.8-.4-1.1-.1-.2-.5-.4-1-.4zM426.2 166.4c0-.9.3-1.7.8-2.3s1.2-.9 2.1-.9c.9 0 1.6.3 2.1.9s.8 1.4.8 2.3v.1c0 .9-.3 1.7-.8 2.3s-1.2.9-2.1.9-1.6-.3-2.1-.9-.8-1.4-.8-2.3v-.1zm1.2.2c0 .7.1 1.2.4 1.7.3.4.7.7 1.3.7.6 0 1-.2 1.3-.7.3-.4.4-1 .4-1.7v-.1c0-.7-.1-1.2-.4-1.7-.3-.4-.7-.7-1.3-.7-.6 0-1 .2-1.3.7-.3.4-.4 1-.4 1.7v.1zM437.6 161.7h-1.2v-1.2h1.2v1.2zm0 8h-1.2v-6.3h1.2v6.3zM440.4 163.3l.1.9c.2-.3.5-.6.8-.8s.7-.3 1.1-.3c.7 0 1.2.2 1.6.6s.6 1 .6 1.9v4h-1.2v-4c0-.6-.1-1-.3-1.2s-.6-.4-1-.4c-.3 0-.6.1-.9.2s-.5.4-.6.7v4.6h-1.2v-6.3h1zM447.7 161.8v1.5h1.2v.9h-1.2v3.8c0 .3.1.5.2.6s.3.2.5.2h.2c.1 0 .2 0 .2-.1l.2.8c-.1.1-.2.1-.4.2s-.3.1-.5.1c-.5 0-.8-.1-1.1-.4s-.4-.7-.4-1.3v-3.8h-1v-.9h1v-1.5h1.1zM453.3 164.3h-.6c-.3 0-.6.1-.8.2s-.4.3-.5.6v4.5h-1.2v-6.3h1l.1.9c.2-.3.4-.6.7-.8s.6-.3.9-.3h.4v1.2zM454 166.4c0-.9.3-1.7.8-2.3s1.2-.9 2.1-.9c.9 0 1.6.3 2.1.9s.8 1.4.8 2.3v.1c0 .9-.3 1.7-.8 2.3s-1.2.9-2.1.9-1.6-.3-2.1-.9-.8-1.4-.8-2.3v-.1zm1.2.2c0 .7.1 1.2.4 1.7.3.4.7.7 1.3.7.6 0 1-.2 1.3-.7.3-.4.4-1 .4-1.7v-.1c0-.7-.1-1.2-.4-1.7-.3-.4-.7-.7-1.3-.7-.6 0-1 .2-1.3.7-.3.4-.4 1-.4 1.7v.1zM465.4 163.3v6.9c0 .7-.2 1.2-.5 1.5s-.8.5-1.4.5h-.3c-.1 0-.2 0-.3-.1l.1-.9h.5c.3 0 .5-.1.6-.3s.2-.5.2-.8v-6.9h1.1zm0-1.6h-1.2v-1.2h1.2v1.2zM466.9 166.4c0-.9.3-1.7.8-2.3s1.2-.9 2.1-.9c.9 0 1.6.3 2.1.9s.8 1.4.8 2.3v.1c0 .9-.3 1.7-.8 2.3s-1.2.9-2.1.9-1.6-.3-2.1-.9-.8-1.4-.8-2.3v-.1zm1.2.2c0 .7.1 1.2.4 1.7.3.4.7.7 1.3.7.6 0 1-.2 1.3-.7.3-.4.4-1 .4-1.7v-.1c0-.7-.1-1.2-.4-1.7-.3-.4-.7-.7-1.3-.7-.6 0-1 .2-1.3.7-.3.4-.4 1-.4 1.7v.1zM479.4 166.7c0 .9-.2 1.7-.7 2.2s-1 .8-1.8.8c-.4 0-.8-.1-1.1-.2s-.6-.4-.8-.7l-.1.8h-.9v-9.1h1.2v3.6c.2-.3.4-.5.7-.6s.6-.2 1-.2c.8 0 1.4.3 1.8.9s.7 1.4.7 2.5zm-1.1-.1c0-.7-.1-1.3-.4-1.8s-.7-.7-1.2-.7c-.4 0-.7.1-.9.3s-.4.4-.6.7v2.7c.1.3.3.6.6.7s.5.3.9.3c.5 0 .9-.2 1.2-.6s.4-.9.4-1.5v-.1zM484.5 168c0-.3-.1-.5-.3-.6s-.6-.3-1.1-.4c-.8-.2-1.3-.4-1.7-.7-.4-.3-.6-.7-.6-1.2s.2-1 .7-1.3c.4-.4 1-.5 1.7-.5s1.3.2 1.8.6.6.8.6 1.4h-1.1c0-.3-.1-.5-.3-.7s-.5-.3-.9-.3-.7.1-.9.3-.3.4-.3.7c0 .2.1.4.3.6s.5.3 1.1.4c.8.2 1.4.4 1.8.7s.6.7.6 1.2c0 .6-.2 1-.7 1.4s-1 .5-1.8.5-1.4-.2-1.9-.6-.7-.9-.7-1.4h1.1c0 .4.2.7.5.9.3.2.6.3 1 .3s.7-.1 1-.2.1-.9.1-1.1zM492 167.3l.2.8 1.6-4.8h1.3l-2.7 7.3c-.2.4-.4.8-.7 1.1s-.7.5-1.2.5h-.4c-.2 0-.3 0-.3-.1l.1-.9h.5c.2 0 .4-.1.6-.3s.3-.5.4-.7l.3-.7-2.4-6.2h1.3l1.4 4zM495.8 166.4c0-.9.3-1.7.8-2.3s1.2-.9 2.1-.9c.9 0 1.6.3 2.1.9s.8 1.4.8 2.3v.1c0 .9-.3 1.7-.8 2.3s-1.2.9-2.1.9-1.6-.3-2.1-.9-.8-1.4-.8-2.3v-.1zm1.1.2c0 .7.1 1.2.4 1.7.3.4.7.7 1.3.7.6 0 1-.2 1.3-.7.3-.4.4-1 .4-1.7v-.1c0-.7-.1-1.2-.4-1.7-.3-.4-.7-.7-1.3-.7-.6 0-1 .2-1.3.7-.3.4-.4 1-.4 1.7v.1zM506.9 168.7c-.2.3-.5.6-.8.8s-.7.3-1.1.3c-.7 0-1.2-.2-1.6-.7s-.6-1.1-.6-2.1v-3.7h1.2v3.8c0 .7.1 1.1.3 1.4s.5.4.9.4.7-.1 1-.2.5-.4.6-.7v-4.6h1.2v6.3h-1l-.1-1zM513.7 163.3l.1.8c.2-.3.5-.5.8-.7s.7-.2 1.1-.2.8.1 1.1.3.5.5.7.9c.2-.4.5-.6.8-.9s.7-.3 1.1-.3c.6 0 1.2.2 1.5.7s.6 1.1.6 2v3.8h-1.2v-3.8c0-.6-.1-1.1-.3-1.3s-.5-.4-1-.4c-.4 0-.7.1-1 .4s-.4.6-.4 1v4h-1.2v-3.8c0-.6-.1-1-.3-1.3s-.5-.4-1-.4c-.4 0-.6.1-.9.2s-.4.3-.5.6v4.7h-1.2v-6.3h1.2zM527.1 169.7c0-.2-.1-.4-.1-.5v-.4c-.2.3-.5.6-.8.8s-.7.3-1.1.3c-.7 0-1.2-.2-1.5-.5s-.5-.8-.5-1.4c0-.6.2-1.1.7-1.4s1.2-.5 2-.5h1.3v-.6c0-.4-.1-.7-.3-.9s-.5-.3-1-.3c-.4 0-.7.1-.9.3s-.3.4-.3.7h-1.1c0-.5.2-.9.7-1.3s1.1-.6 1.8-.6 1.3.2 1.7.5.7.9.7 1.6v3.8c0 .3.1.4.1.6h-1.4zm-2-.9c.4 0 .8-.1 1.1-.3s.6-.5.7-.7v-1h-1.3c-.5 0-.8.1-1.1.4s-.4.5-.4.8c0 .3.1.5.3.7.1 0 .4.1.7.1zM531.6 167.3l.2.8 1.6-4.8h1.3l-2.7 7.3c-.2.4-.4.8-.7 1.1s-.7.5-1.2.5h-.4c-.2 0-.3 0-.3-.1l.1-.9h.5c.2 0 .4-.1.6-.3s.3-.5.4-.7l.3-.7-2.4-6.2h1.3l1.4 4zM539.8 164.2c.2-.3.5-.5.8-.7s.7-.3 1.1-.3c.7 0 1.2.2 1.6.6s.6 1 .6 1.9v4h-1.2v-4c0-.5-.1-.9-.3-1.2s-.6-.4-1-.4c-.3 0-.6.1-.9.2s-.5.4-.6.6v4.7h-1.2v-9.1h1.2v3.7zM549.4 169.7c0-.2-.1-.4-.1-.5v-.4c-.2.3-.5.6-.8.8s-.7.3-1.1.3c-.7 0-1.2-.2-1.5-.5s-.5-.8-.5-1.4c0-.6.2-1.1.7-1.4s1.2-.5 2-.5h1.3v-.6c0-.4-.1-.7-.3-.9s-.5-.3-1-.3c-.4 0-.7.1-.9.3s-.3.4-.3.7h-1.1c0-.5.2-.9.7-1.3s1.1-.6 1.8-.6 1.3.2 1.7.5.7.9.7 1.6v3.8c0 .3.1.4.1.6h-1.4zm-1.9-.9c.4 0 .8-.1 1.1-.3s.6-.5.7-.7v-1H548c-.5 0-.8.1-1.1.4s-.4.5-.4.8c0 .3.1.5.3.7.1 0 .4.1.7.1zM554.1 167.8l.1.4.1-.4 1.5-4.5h1.2l-2.3 6.3h-.9l-2.4-6.3h1.2l1.5 4.5zM560.6 169.8c-.9 0-1.6-.3-2.1-.9s-.8-1.4-.8-2.3v-.3c0-.9.3-1.7.8-2.3s1.2-.9 1.9-.9c.9 0 1.5.3 1.9.8s.7 1.2.7 2.1v.7h-4.1c0 .6.2 1.1.5 1.5s.7.6 1.2.6c.4 0 .7-.1 1-.2s.5-.3.8-.5l.5.8c-.2.2-.5.4-.9.6-.4.2-.9.3-1.4.3zm-.2-5.7c-.4 0-.7.2-1 .5s-.4.7-.5 1.2h2.9v-.2c0-.5-.1-.8-.4-1.1-.1-.2-.5-.4-1-.4zM565.6 169.7h-1.2v-1.2h1.2v1.2z"/></g><g><path class="st0" d="M117.6 185.7h-1.2v-8.5h1.2v8.5zM124.2 183.4l.1.8.2-.8 1.3-4h.9l1.3 4 .2.9.2-.9 1-4h1.1l-1.8 6.3h-.9l-1.2-3.9-.3-1.1-.3 1.1-1.2 3.9h-.9l-1.8-6.3h1.1l1 4zM132.9 177.7h-1.2v-1.2h1.2v1.2zm0 8h-1.2v-6.3h1.2v6.3zM135.9 185.7h-1.2v-9.1h1.2v9.1zM138.9 185.7h-1.2v-9.1h1.2v9.1zM147.4 184c0-.3-.1-.5-.3-.6s-.6-.3-1.1-.4c-.8-.2-1.3-.4-1.7-.7-.4-.3-.6-.7-.6-1.2s.2-1 .7-1.3c.4-.4 1-.5 1.7-.5s1.3.2 1.8.6.6.8.6 1.4h-1.1c0-.3-.1-.5-.3-.7s-.5-.3-.9-.3-.7.1-.9.3-.3.4-.3.7c0 .2.1.4.3.6s.5.3 1.1.4c.8.2 1.4.4 1.8.7s.6.7.6 1.2c0 .6-.2 1-.7 1.4s-1 .5-1.8.5-1.4-.2-1.9-.6-.7-.9-.7-1.4h1.1c0 .4.2.7.5.9.3.2.6.3 1 .3s.7-.1 1-.2.1-.9.1-1.1zM154 184.7c-.2.3-.5.6-.8.8s-.7.3-1.1.3c-.7 0-1.2-.2-1.6-.7s-.6-1.1-.6-2.1v-3.7h1.2v3.8c0 .7.1 1.1.3 1.4s.5.4.9.4.7-.1 1-.2.5-.4.6-.7v-4.6h1.2v6.3h-1l-.1-1zM159.8 180.3h-.6c-.3 0-.6.1-.8.2s-.4.3-.5.6v4.5h-1.2v-6.3h1l.1.9c.2-.3.4-.6.7-.8s.6-.3.9-.3h.4v1.2zM163.4 185.8c-.9 0-1.6-.3-2.1-.9s-.8-1.4-.8-2.3v-.3c0-.9.3-1.7.8-2.3s1.2-.9 1.9-.9c.9 0 1.5.3 1.9.8s.7 1.2.7 2.1v.7h-4.1c0 .6.2 1.1.5 1.5s.7.6 1.2.6c.4 0 .7-.1 1-.2s.5-.3.8-.5l.5.8c-.2.2-.5.4-.9.6-.4.2-.9.3-1.4.3zm-.2-5.7c-.4 0-.7.2-1 .5s-.4.7-.5 1.2h2.9v-.2c0-.5-.1-.8-.4-1.1-.1-.2-.5-.4-1-.4zM172 182.7h-.8v2.9H170v-9.1h1.2v5.3h.7l1.7-2.5h1.4l-2.2 2.9 2.5 3.5h-1.4l-1.9-3zM178.8 185.8c-.9 0-1.6-.3-2.1-.9s-.8-1.4-.8-2.3v-.3c0-.9.3-1.7.8-2.3s1.2-.9 1.9-.9c.9 0 1.5.3 1.9.8s.7 1.2.7 2.1v.7h-4.1c0 .6.2 1.1.5 1.5s.7.6 1.2.6c.4 0 .7-.1 1-.2s.5-.3.8-.5l.5.8c-.2.2-.5.4-.9.6-.5.2-.9.3-1.4.3zm-.2-5.7c-.4 0-.7.2-1 .5s-.4.7-.5 1.2h2.9v-.2c0-.5-.1-.8-.4-1.1-.2-.2-.5-.4-1-.4zM185.1 185.8c-.9 0-1.6-.3-2.1-.9s-.8-1.4-.8-2.3v-.3c0-.9.3-1.7.8-2.3s1.2-.9 1.9-.9c.9 0 1.5.3 1.9.8s.7 1.2.7 2.1v.7h-4.1c0 .6.2 1.1.5 1.5s.7.6 1.2.6c.4 0 .7-.1 1-.2s.5-.3.8-.5l.5.8c-.2.2-.5.4-.9.6-.4.2-.9.3-1.4.3zm-.2-5.7c-.4 0-.7.2-1 .5s-.4.7-.5 1.2h2.9v-.2c0-.5-.1-.8-.4-1.1-.1-.2-.5-.4-1-.4zM194.2 182.7c0 .9-.2 1.7-.7 2.2s-1 .8-1.8.8c-.4 0-.7-.1-1-.2s-.5-.3-.8-.6v3.1h-1.2v-8.8h.9l.2.8c.2-.3.5-.5.8-.7s.7-.2 1.1-.2c.8 0 1.4.3 1.8.9s.7 1.4.7 2.5v.2zm-1.1-.1c0-.7-.1-1.3-.4-1.8-.3-.5-.7-.7-1.3-.7-.3 0-.6.1-.8.2s-.4.4-.6.6v3.1c.1.3.3.5.6.6s.5.2.9.2c.5 0 1-.2 1.2-.6.3-.4.4-.9.4-1.5v-.1zM202.7 184.7c-.2.3-.5.6-.8.8s-.7.3-1.1.3c-.7 0-1.2-.2-1.6-.7s-.6-1.1-.6-2.1v-3.7h1.2v3.8c0 .7.1 1.1.3 1.4s.5.4.9.4.7-.1 1-.2.5-.4.6-.7v-4.6h1.2v6.3h-1l-.1-1zM209.1 184c0-.3-.1-.5-.3-.6s-.6-.3-1.1-.4c-.8-.2-1.3-.4-1.7-.7-.4-.3-.6-.7-.6-1.2s.2-1 .7-1.3c.4-.4 1-.5 1.7-.5s1.3.2 1.8.6.6.8.6 1.4h-1.1c0-.3-.1-.5-.3-.7s-.5-.3-.9-.3-.7.1-.9.3-.3.4-.3.7c0 .2.1.4.3.6s.5.3 1.1.4c.8.2 1.4.4 1.8.7s.6.7.6 1.2c0 .6-.2 1-.7 1.4s-1 .5-1.8.5-1.4-.2-1.9-.6-.7-.9-.7-1.4h1.1c0 .4.2.7.5.9.3.2.6.3 1 .3s.7-.1 1-.2.1-.9.1-1.1zM213 177.7h-1.2v-1.2h1.2v1.2zm0 8h-1.2v-6.3h1.2v6.3zM215.8 179.3l.1.9c.2-.3.5-.6.8-.8s.7-.3 1.1-.3c.7 0 1.2.2 1.6.6s.6 1 .6 1.9v4h-1.2v-4c0-.6-.1-1-.3-1.2s-.6-.4-1-.4c-.3 0-.6.1-.9.2s-.5.4-.6.7v4.6h-1.2v-6.3h1zM221.3 182.6c0-1 .2-1.8.7-2.5s1.1-.9 1.8-.9c.4 0 .8.1 1.1.2s.6.4.8.7l.1-.8h.9v6.4c0 .8-.2 1.4-.7 1.9s-1.2.7-2 .7c-.3 0-.6 0-1-.1s-.7-.2-.9-.3l.3-.9c.2.1.5.2.8.3s.6.1.9.1c.6 0 1-.1 1.2-.4s.4-.6.4-1.2v-.8c-.2.3-.5.5-.7.6s-.6.2-1 .2c-.8 0-1.4-.3-1.8-.8s-.7-1.3-.7-2.2v-.2zm1.2.1c0 .6.1 1.1.4 1.5s.7.6 1.2.6c.3 0 .6-.1.9-.2s.4-.4.6-.7V181c-.1-.3-.3-.5-.6-.6s-.5-.2-.9-.2c-.6 0-1 .2-1.2.7s-.4 1.1-.4 1.8zM232.5 180.2c.2-.3.5-.5.8-.7s.7-.3 1.1-.3c.7 0 1.2.2 1.6.6s.6 1 .6 1.9v4h-1.2v-4c0-.5-.1-.9-.3-1.2s-.6-.4-1-.4c-.3 0-.6.1-.9.2s-.5.4-.6.6v4.7h-1.2v-9.1h1.2v3.7zM239.4 177.7h-1.2v-1.2h1.2v1.2zm0 8h-1.2v-6.3h1.2v6.3zM244.9 184c0-.3-.1-.5-.3-.6s-.6-.3-1.1-.4c-.8-.2-1.3-.4-1.7-.7-.4-.3-.6-.7-.6-1.2s.2-1 .7-1.3c.4-.4 1-.5 1.7-.5s1.3.2 1.8.6.6.8.6 1.4h-1.1c0-.3-.1-.5-.3-.7s-.5-.3-.9-.3-.7.1-.9.3-.3.4-.3.7c0 .2.1.4.3.6s.5.3 1.1.4c.8.2 1.4.4 1.8.7s.6.7.6 1.2c0 .6-.2 1-.7 1.4s-1 .5-1.8.5-1.4-.2-1.9-.6-.7-.9-.7-1.4h1.1c0 .4.2.7.5.9.3.2.6.3 1 .3s.7-.1 1-.2.1-.9.1-1.1zM254.2 184c0-.3-.1-.5-.3-.6s-.6-.3-1.1-.4c-.8-.2-1.3-.4-1.7-.7-.4-.3-.6-.7-.6-1.2s.2-1 .7-1.3c.4-.4 1-.5 1.7-.5s1.3.2 1.8.6.6.8.6 1.4h-1.1c0-.3-.1-.5-.3-.7s-.5-.3-.9-.3-.7.1-.9.3-.3.4-.3.7c0 .2.1.4.3.6s.5.3 1.1.4c.8.2 1.4.4 1.8.7s.6.7.6 1.2c0 .6-.2 1-.7 1.4s-1 .5-1.8.5-1.4-.2-1.9-.6-.7-.9-.7-1.4h1.1c0 .4.2.7.5.9.3.2.6.3 1 .3s.7-.1 1-.2.1-.9.1-1.1zM259.4 185.8c-.9 0-1.6-.3-2.1-.9s-.8-1.4-.8-2.3v-.3c0-.9.3-1.7.8-2.3s1.2-.9 1.9-.9c.9 0 1.5.3 1.9.8s.7 1.2.7 2.1v.7h-4.1c0 .6.2 1.1.5 1.5s.7.6 1.2.6c.4 0 .7-.1 1-.2s.5-.3.8-.5l.5.8c-.2.2-.5.4-.9.6-.4.2-.9.3-1.4.3zm-.2-5.7c-.4 0-.7.2-1 .5s-.4.7-.5 1.2h2.9v-.2c0-.5-.1-.8-.4-1.1-.2-.2-.5-.4-1-.4zM266.1 180.3h-.6c-.3 0-.6.1-.8.2s-.4.3-.5.6v4.5H263v-6.3h1l.1.9c.2-.3.4-.6.7-.8s.6-.3.9-.3h.4v1.2zM269.4 183.8l.1.4.1-.4 1.5-4.5h1.2l-2.3 6.3h-.9l-2.4-6.3h1.2l1.5 4.5zM274.6 177.7h-1.2v-1.2h1.2v1.2zm0 8h-1.2v-6.3h1.2v6.3zM279 184.9c.4 0 .7-.1 1-.4s.4-.5.4-.9h1c0 .5-.2 1-.7 1.5s-1.1.6-1.8.6c-.9 0-1.6-.3-2.1-.9s-.7-1.4-.7-2.3v-.2c0-.9.2-1.7.7-2.3s1.2-.9 2.1-.9c.7 0 1.3.2 1.8.7s.7 1 .7 1.6h-1c0-.4-.1-.7-.4-1s-.6-.4-1-.4c-.6 0-1 .2-1.3.7-.3.4-.4 1-.4 1.6v.2c0 .6.1 1.2.4 1.6.2.6.6.8 1.3.8zM285.4 185.8c-.9 0-1.6-.3-2.1-.9s-.8-1.4-.8-2.3v-.3c0-.9.3-1.7.8-2.3s1.2-.9 1.9-.9c.9 0 1.5.3 1.9.8s.7 1.2.7 2.1v.7h-4.1c0 .6.2 1.1.5 1.5s.7.6 1.2.6c.4 0 .7-.1 1-.2s.5-.3.8-.5l.5.8c-.2.2-.5.4-.9.6-.4.2-.9.3-1.4.3zm-.2-5.7c-.4 0-.7.2-1 .5s-.4.7-.5 1.2h2.9v-.2c0-.5-.1-.8-.4-1.1-.2-.2-.5-.4-1-.4zM292.8 184c0-.3-.1-.5-.3-.6s-.6-.3-1.1-.4c-.8-.2-1.3-.4-1.7-.7-.4-.3-.6-.7-.6-1.2s.2-1 .7-1.3c.4-.4 1-.5 1.7-.5s1.3.2 1.8.6.6.8.6 1.4h-1.1c0-.3-.1-.5-.3-.7s-.5-.3-.9-.3-.7.1-.9.3-.3.4-.3.7c0 .2.1.4.3.6s.5.3 1.1.4c.8.2 1.4.4 1.8.7s.6.7.6 1.2c0 .6-.2 1-.7 1.4s-1 .5-1.8.5-1.4-.2-1.9-.6-.7-.9-.7-1.4h1.1c0 .4.2.7.5.9.3.2.6.3 1 .3s.7-.1 1-.2.1-.9.1-1.1zM296.6 185.7h-1.2v-1.2h1.2v1.2zM299.8 185.7h-1.2v-1.2h1.2v1.2zM303.1 185.7h-1.2v-1.2h1.2v1.2zM310.7 183.5l.2.7.2-.7 2.2-6.4h1.2l-3.2 8.5h-1l-3.2-8.5h1.3l2.3 6.4zM317.9 185.8c-.9 0-1.6-.3-2.1-.9s-.8-1.4-.8-2.3v-.3c0-.9.3-1.7.8-2.3s1.2-.9 1.9-.9c.9 0 1.5.3 1.9.8s.7 1.2.7 2.1v.7h-4.1c0 .6.2 1.1.5 1.5s.7.6 1.2.6c.4 0 .7-.1 1-.2s.5-.3.8-.5l.5.8c-.2.2-.5.4-.9.6-.4.2-.8.3-1.4.3zm-.1-5.7c-.4 0-.7.2-1 .5s-.4.7-.5 1.2h2.9v-.2c0-.5-.1-.8-.4-1.1-.2-.2-.6-.4-1-.4zM324.7 180.3h-.6c-.3 0-.6.1-.8.2s-.4.3-.5.6v4.5h-1.2v-6.3h1l.1.9c.2-.3.4-.6.7-.8s.6-.3.9-.3h.4v1.2zM327.8 183.3l.2.8 1.6-4.8h1.3l-2.7 7.3c-.2.4-.4.8-.7 1.1s-.7.5-1.2.5h-.4c-.2 0-.3 0-.3-.1l.1-.9h.5c.2 0 .4-.1.6-.3s.3-.5.4-.7l.3-.7-2.4-6.2h1.3l1.4 4zM337.5 184.9c.4 0 .7-.1 1-.4s.4-.5.4-.9h1c0 .5-.2 1-.7 1.5s-1.1.6-1.8.6c-.9 0-1.6-.3-2.1-.9s-.7-1.4-.7-2.3v-.2c0-.9.2-1.7.7-2.3s1.2-.9 2.1-.9c.7 0 1.3.2 1.8.7s.7 1 .7 1.6h-1c0-.4-.1-.7-.4-1s-.6-.4-1-.4c-.6 0-1 .2-1.3.7-.3.4-.4 1-.4 1.6v.2c0 .6.1 1.2.4 1.6.2.6.7.8 1.3.8zM344.3 180.3h-.6c-.3 0-.6.1-.8.2s-.4.3-.5.6v4.5h-1.2v-6.3h1l.1.9c.2-.3.4-.6.7-.8s.6-.3.9-.3h.4v1.2zM347.9 185.8c-.9 0-1.6-.3-2.1-.9s-.8-1.4-.8-2.3v-.3c0-.9.3-1.7.8-2.3s1.2-.9 1.9-.9c.9 0 1.5.3 1.9.8s.7 1.2.7 2.1v.7h-4.1c0 .6.2 1.1.5 1.5s.7.6 1.2.6c.4 0 .7-.1 1-.2s.5-.3.8-.5l.5.8c-.2.2-.5.4-.9.6-.4.2-.9.3-1.4.3zm-.2-5.7c-.4 0-.7.2-1 .5s-.4.7-.5 1.2h2.9v-.2c0-.5-.1-.8-.4-1.1-.1-.2-.5-.4-1-.4zM355.5 185.7c0-.2-.1-.4-.1-.5v-.4c-.2.3-.5.6-.8.8s-.7.3-1.1.3c-.7 0-1.2-.2-1.5-.5s-.5-.8-.5-1.4c0-.6.2-1.1.7-1.4s1.2-.5 2-.5h1.3v-.6c0-.4-.1-.7-.3-.9s-.5-.3-1-.3c-.4 0-.7.1-.9.3s-.3.4-.3.7h-1.1c0-.5.2-.9.7-1.3s1.1-.6 1.8-.6 1.3.2 1.7.5.7.9.7 1.6v3.8c0 .3.1.4.1.6h-1.4zm-1.9-.9c.4 0 .8-.1 1.1-.3s.6-.5.7-.7v-1h-1.3c-.5 0-.8.1-1.1.4s-.4.5-.4.8c0 .3.1.5.3.7.1 0 .3.1.7.1zM359.7 177.8v1.5h1.2v.9h-1.2v3.8c0 .3.1.5.2.6s.3.2.5.2h.2c.1 0 .2 0 .2-.1l.2.8c-.1.1-.2.1-.4.2s-.3.1-.5.1c-.5 0-.8-.1-1.1-.4s-.4-.7-.4-1.3v-3.8h-1v-.9h1v-1.5h1.1zM363.6 177.7h-1.2v-1.2h1.2v1.2zm0 8h-1.2v-6.3h1.2v6.3zM367.5 183.8l.1.4.1-.4 1.5-4.5h1.2l-2.3 6.3h-.9l-2.4-6.3h1.2l1.5 4.5zM374 185.8c-.9 0-1.6-.3-2.1-.9s-.8-1.4-.8-2.3v-.3c0-.9.3-1.7.8-2.3s1.2-.9 1.9-.9c.9 0 1.5.3 1.9.8s.7 1.2.7 2.1v.7h-4.1c0 .6.2 1.1.5 1.5s.7.6 1.2.6c.4 0 .7-.1 1-.2s.5-.3.8-.5l.5.8c-.2.2-.5.4-.9.6-.5.2-.9.3-1.4.3zm-.2-5.7c-.4 0-.7.2-1 .5s-.4.7-.5 1.2h2.9v-.2c0-.5-.1-.8-.4-1.1-.2-.2-.5-.4-1-.4zM384.6 185.7c0-.2-.1-.4-.1-.5v-.4c-.2.3-.5.6-.8.8s-.7.3-1.1.3c-.7 0-1.2-.2-1.5-.5s-.5-.8-.5-1.4c0-.6.2-1.1.7-1.4s1.2-.5 2-.5h1.3v-.6c0-.4-.1-.7-.3-.9s-.5-.3-1-.3c-.4 0-.7.1-.9.3s-.3.4-.3.7H381c0-.5.2-.9.7-1.3s1.1-.6 1.8-.6 1.3.2 1.7.5.7.9.7 1.6v3.8c0 .3.1.4.1.6h-1.4zm-2-.9c.4 0 .8-.1 1.1-.3s.6-.5.7-.7v-1h-1.3c-.5 0-.8.1-1.1.4s-.4.5-.4.8c0 .3.1.5.3.7.1 0 .4.1.7.1zM388.3 179.3l.1.9c.2-.3.5-.6.8-.8s.7-.3 1.1-.3c.7 0 1.2.2 1.6.6s.6 1 .6 1.9v4h-1.2v-4c0-.6-.1-1-.3-1.2s-.6-.4-1-.4c-.3 0-.6.1-.9.2s-.5.4-.6.7v4.6h-1.2v-6.3h1zM393.8 182.6c0-1 .2-1.8.7-2.5s1-.9 1.8-.9c.4 0 .7.1 1 .2s.5.3.7.6v-3.5h1.2v9.1h-.9l-.1-.8c-.2.3-.5.5-.8.7s-.7.2-1 .2c-.8 0-1.4-.3-1.8-.8s-.7-1.3-.7-2.2v-.1zm1.2.1c0 .6.1 1.2.4 1.5s.7.6 1.2.6c.3 0 .6-.1.9-.2s.4-.4.6-.7v-3c-.1-.3-.3-.5-.6-.6s-.5-.2-.9-.2c-.6 0-1 .2-1.2.7s-.4 1.1-.4 1.8v.1zM409.3 182.7c0 .9-.2 1.7-.7 2.2s-1 .8-1.8.8c-.4 0-.7-.1-1-.2s-.5-.3-.8-.6v3.1h-1.2v-8.8h.9l.2.8c.2-.3.5-.5.8-.7s.7-.2 1.1-.2c.8 0 1.4.3 1.8.9s.7 1.4.7 2.5v.2zm-1.2-.1c0-.7-.1-1.3-.4-1.8-.3-.5-.7-.7-1.3-.7-.3 0-.6.1-.8.2s-.4.4-.6.6v3.1c.1.3.3.5.6.6s.5.2.9.2c.5 0 1-.2 1.2-.6.3-.4.4-.9.4-1.5v-.1zM413.7 180.3h-.6c-.3 0-.6.1-.8.2s-.4.3-.5.6v4.5h-1.2v-6.3h1l.1.9c.2-.3.4-.6.7-.8s.6-.3.9-.3h.4v1.2zM414.4 182.4c0-.9.3-1.7.8-2.3s1.2-.9 2.1-.9c.9 0 1.6.3 2.1.9s.8 1.4.8 2.3v.1c0 .9-.3 1.7-.8 2.3s-1.2.9-2.1.9-1.6-.3-2.1-.9-.8-1.4-.8-2.3v-.1zm1.2.2c0 .7.1 1.2.4 1.7.3.4.7.7 1.3.7.6 0 1-.2 1.3-.7.3-.4.4-1 .4-1.7v-.1c0-.7-.1-1.2-.4-1.7-.3-.4-.7-.7-1.3-.7-.6 0-1 .2-1.3.7-.3.4-.4 1-.4 1.7v.1zM422 185.7v-5.5h-1v-.9h1v-.8c0-.7.2-1.2.5-1.6s.8-.6 1.5-.6h.4c.1 0 .3.1.4.1l-.1.9h-.6c-.3 0-.6.1-.8.3s-.2.5-.2.9v.8h1.3v.9h-1.3v5.5H422zM428.2 185.8c-.9 0-1.6-.3-2.1-.9s-.8-1.4-.8-2.3v-.3c0-.9.3-1.7.8-2.3s1.2-.9 1.9-.9c.9 0 1.5.3 1.9.8s.7 1.2.7 2.1v.7h-4.1c0 .6.2 1.1.5 1.5s.7.6 1.2.6c.4 0 .7-.1 1-.2s.5-.3.8-.5l.5.8c-.2.2-.5.4-.9.6-.5.2-.9.3-1.4.3zm-.2-5.7c-.4 0-.7.2-1 .5s-.4.7-.5 1.2h2.9v-.2c0-.5-.1-.8-.4-1.1-.2-.2-.5-.4-1-.4zM435.6 184c0-.3-.1-.5-.3-.6s-.6-.3-1.1-.4c-.8-.2-1.3-.4-1.7-.7-.4-.3-.6-.7-.6-1.2s.2-1 .7-1.3c.4-.4 1-.5 1.7-.5s1.3.2 1.8.6.6.8.6 1.4h-1.1c0-.3-.1-.5-.3-.7s-.5-.3-.9-.3-.7.1-.9.3-.3.4-.3.7c0 .2.1.4.3.6s.5.3 1.1.4c.8.2 1.4.4 1.8.7s.6.7.6 1.2c0 .6-.2 1-.7 1.4s-1 .5-1.8.5-1.4-.2-1.9-.6-.7-.9-.7-1.4h1.1c0 .4.2.7.5.9.3.2.6.3 1 .3s.7-.1 1-.2.1-.9.1-1.1zM441.8 184c0-.3-.1-.5-.3-.6s-.6-.3-1.1-.4c-.8-.2-1.3-.4-1.7-.7-.4-.3-.6-.7-.6-1.2s.2-1 .7-1.3c.4-.4 1-.5 1.7-.5s1.3.2 1.8.6.6.8.6 1.4h-1.1c0-.3-.1-.5-.3-.7s-.5-.3-.9-.3-.7.1-.9.3-.3.4-.3.7c0 .2.1.4.3.6s.5.3 1.1.4c.8.2 1.4.4 1.8.7s.6.7.6 1.2c0 .6-.2 1-.7 1.4s-1 .5-1.8.5-1.4-.2-1.9-.6-.7-.9-.7-1.4h1.1c0 .4.2.7.5.9.3.2.6.3 1 .3s.7-.1 1-.2.1-.9.1-1.1zM445.7 177.7h-1.2v-1.2h1.2v1.2zm0 8h-1.2v-6.3h1.2v6.3zM447.2 182.4c0-.9.3-1.7.8-2.3s1.2-.9 2.1-.9c.9 0 1.6.3 2.1.9s.8 1.4.8 2.3v.1c0 .9-.3 1.7-.8 2.3s-1.2.9-2.1.9-1.6-.3-2.1-.9-.8-1.4-.8-2.3v-.1zm1.1.2c0 .7.1 1.2.4 1.7.3.4.7.7 1.3.7.6 0 1-.2 1.3-.7.3-.4.4-1 .4-1.7v-.1c0-.7-.1-1.2-.4-1.7-.3-.4-.7-.7-1.3-.7-.6 0-1 .2-1.3.7-.3.4-.4 1-.4 1.7v.1zM455.3 179.3l.1.9c.2-.3.5-.6.8-.8s.7-.3 1.1-.3c.7 0 1.2.2 1.6.6s.6 1 .6 1.9v4h-1.2v-4c0-.6-.1-1-.3-1.2s-.6-.4-1-.4c-.3 0-.6.1-.9.2s-.5.4-.6.7v4.6h-1.2v-6.3h1zM465 185.7c0-.2-.1-.4-.1-.5v-.4c-.2.3-.5.6-.8.8s-.7.3-1.1.3c-.7 0-1.2-.2-1.5-.5s-.5-.8-.5-1.4c0-.6.2-1.1.7-1.4s1.2-.5 2-.5h1.3v-.6c0-.4-.1-.7-.3-.9s-.5-.3-1-.3c-.4 0-.7.1-.9.3s-.3.4-.3.7h-1.1c0-.5.2-.9.7-1.3s1.1-.6 1.8-.6 1.3.2 1.7.5.7.9.7 1.6v3.8c0 .3.1.4.1.6H465zm-1.9-.9c.4 0 .8-.1 1.1-.3s.6-.5.7-.7v-1h-1.3c-.5 0-.8.1-1.1.4s-.4.5-.4.8c0 .3.1.5.3.7.1 0 .3.1.7.1zM468.9 185.7h-1.2v-9.1h1.2v9.1zM472 185.7h-1.2v-1.2h1.2v1.2zM473.4 177.7l-.9 2h-.6l.4-2v-1.1h1.2v1.1zm2 0l-.9 2h-.6l.4-2v-1.1h1.2v1.1z"/></g><g><path class="st1" d="M345.2 205.3H341V204h4.2v1.3zM358.3 206.7H353l-1.2 3.2h-1.7l4.9-12.6h1.5l4.8 12.6h-1.7l-1.3-3.2zm-4.8-1.5h4.2l-2.1-5.7h-.1l-2 5.7zM367.4 209.9v-12.6h4.1c1.3 0 2.3.3 3.1.9.7.6 1.1 1.4 1.1 2.6 0 .6-.2 1.1-.5 1.5-.4.4-.8.8-1.4 1 .8.2 1.4.5 1.8 1.1.4.6.7 1.3.7 2 0 1.2-.4 2-1.1 2.6s-1.8.9-3 .9h-4.8zm1.7-7.2h2.8c.6 0 1.2-.2 1.6-.5s.6-.8.6-1.5-.2-1.2-.6-1.5-1-.5-1.9-.5h-2.4v4zm0 1.3v4.6h3c.8 0 1.4-.2 1.8-.6.4-.4.6-.9.6-1.6 0-.7-.2-1.3-.5-1.7s-.9-.6-1.7-.6h-3.2zM382.8 202l-.9-.1c-.5 0-.8.1-1.1.3-.3.2-.5.5-.7.9v6.7h-1.7v-9.4h1.5l.2 1.4c.3-.5.6-.9 1-1.1.4-.3.8-.4 1.3-.4h.4c.1 0 .2 0 .3.1l-.3 1.6zM386.3 198.1h-1.7v-1.7h1.7v1.7zm0 11.8h-1.7v-9.4h1.7v9.4zM391.2 198.3v2.3h1.8v1.3h-1.8v5.7c0 .4.1.7.3.9.2.2.4.3.7.3h.3c.1 0 .2-.1.3-.1l.2 1.2c-.1.1-.3.2-.6.3-.2.1-.5.1-.7.1-.7 0-1.2-.2-1.7-.6s-.6-1.1-.6-2V202H388v-1.3h1.5v-2.3h1.7zM401.6 209.9h-1.7v-12.6h1.7v12.6zM406 200.5l.1 1.4c.3-.5.7-.9 1.2-1.2s1-.4 1.6-.4c1 0 1.8.3 2.3.9.6.6.8 1.5.8 2.7v5.9h-1.7V204c0-.8-.2-1.4-.5-1.8s-.8-.5-1.5-.5c-.5 0-.9.1-1.3.4-.4.2-.7.6-.9 1v6.8h-1.7v-9.4h1.6zM427.8 198.6h-4.1v11.3H422v-11.3h-4v-1.3h9.8v1.3zM431.1 201.8c.3-.5.7-.8 1.2-1.1.5-.3 1-.4 1.6-.4 1 0 1.8.3 2.3.9.6.6.8 1.5.8 2.8v5.9h-1.7V204c0-.8-.2-1.3-.5-1.7-.3-.4-.8-.6-1.5-.6-.5 0-.9.1-1.3.3-.4.2-.7.5-.9.9v6.9h-1.7v-13.5h1.7v5.5zM443.4 210.1c-1.3 0-2.3-.4-3.1-1.3-.8-.9-1.2-2-1.2-3.4v-.4c0-1.3.4-2.4 1.2-3.3s1.7-1.3 2.8-1.3c1.3 0 2.2.4 2.9 1.1.6.8 1 1.8 1 3v1.1h-6.1c0 .9.2 1.6.7 2.2.4.6 1.1.9 1.8.9.6 0 1.1-.1 1.5-.2.4-.2.8-.4 1.1-.7l.7 1.1c-.3.3-.8.6-1.3.8-.6.3-1.3.4-2 .4zm-.3-8.4c-.6 0-1.1.2-1.5.7s-.7 1.1-.7 1.8h4.3v-.2c0-.7-.2-1.2-.5-1.7-.4-.4-.9-.6-1.6-.6zM455.3 204.9v5.1h-1.7v-12.6h4.8c1.3 0 2.4.3 3.1 1 .7.7 1.1 1.6 1.1 2.7s-.4 2.1-1.1 2.8c-.7.7-1.8 1-3.1 1h-3.1zm0-1.4h3.1c.9 0 1.5-.2 1.9-.7.4-.5.6-1 .6-1.7s-.2-1.3-.6-1.7c-.4-.5-1.1-.7-1.9-.7h-3.1v4.8zM466.3 201.8c.3-.5.7-.8 1.2-1.1.5-.3 1-.4 1.6-.4 1 0 1.8.3 2.3.9.6.6.8 1.5.8 2.8v5.9h-1.7V204c0-.8-.2-1.3-.5-1.7-.3-.4-.8-.6-1.5-.6-.5 0-.9.1-1.3.3-.4.2-.7.5-.9.9v6.9h-1.7v-13.5h1.7v5.5zM476.6 198.1h-1.7v-1.7h1.7v1.7zm0 11.8h-1.7v-9.4h1.7v9.4zM481 209.9h-1.7v-13.5h1.7v13.5zM485.5 198.1h-1.7v-1.7h1.7v1.7zm0 11.8h-1.7v-9.4h1.7v9.4zM496.1 205.6c0 1.4-.3 2.4-1 3.3-.6.8-1.5 1.2-2.7 1.2-.6 0-1.1-.1-1.5-.3-.4-.2-.8-.5-1.1-.9v4.6h-1.7v-13h1.3l.3 1.2c.3-.5.7-.8 1.1-1 .5-.2 1-.4 1.6-.4 1.2 0 2.1.5 2.7 1.4.6.9 1 2.1 1 3.7v.2zm-1.7-.2c0-1.1-.2-1.9-.6-2.6-.4-.7-1-1-1.8-1-.5 0-.9.1-1.3.3s-.6.5-.8.9v4.5c.2.4.5.7.8.9.3.2.8.3 1.3.3.8 0 1.4-.3 1.8-.9.4-.6.6-1.4.6-2.3v-.1zM506.2 205.6c0 1.4-.3 2.4-1 3.3-.6.8-1.5 1.2-2.7 1.2-.6 0-1.1-.1-1.5-.3-.4-.2-.8-.5-1.1-.9v4.6h-1.7v-13h1.3l.3 1.2c.3-.5.7-.8 1.1-1 .5-.2 1-.4 1.6-.4 1.2 0 2.1.5 2.7 1.4.6.9 1 2.1 1 3.7v.2zm-1.7-.2c0-1.1-.2-1.9-.6-2.6-.4-.7-1-1-1.8-1-.5 0-.9.1-1.3.3s-.6.5-.8.9v4.5c.2.4.5.7.8.9.3.2.8.3 1.3.3.8 0 1.4-.3 1.8-.9.4-.6.6-1.4.6-2.3v-.1zM510.1 198.1h-1.7v-1.7h1.7v1.7zm0 11.8h-1.7v-9.4h1.7v9.4zM514.3 200.5l.1 1.4c.3-.5.7-.9 1.2-1.2s1-.4 1.6-.4c1 0 1.8.3 2.3.9.6.6.8 1.5.8 2.7v5.9h-1.7V204c0-.8-.2-1.4-.5-1.8s-.8-.5-1.5-.5c-.5 0-.9.1-1.3.4-.4.2-.7.6-.9 1v6.8h-1.7v-9.4h1.6zM526.7 210.1c-1.3 0-2.3-.4-3.1-1.3-.8-.9-1.2-2-1.2-3.4v-.4c0-1.3.4-2.4 1.2-3.3s1.7-1.3 2.8-1.3c1.3 0 2.2.4 2.9 1.1.6.8 1 1.8 1 3v1.1h-6.1c0 .9.2 1.6.7 2.2.4.6 1.1.9 1.8.9.6 0 1.1-.1 1.5-.2.4-.2.8-.4 1.1-.7l.7 1.1c-.3.3-.8.6-1.3.8-.5.3-1.2.4-2 .4zm-.2-8.4c-.6 0-1.1.2-1.5.7s-.7 1.1-.7 1.8h4.3v-.2c0-.7-.2-1.2-.5-1.7-.4-.4-.9-.6-1.6-.6zM537.7 207.4c0-.4-.1-.7-.4-.9-.3-.2-.8-.5-1.6-.6-1.1-.2-2-.6-2.6-1-.6-.4-.9-1-.9-1.7 0-.8.3-1.4 1-1.9.6-.5 1.5-.8 2.5-.8 1.1 0 2 .3 2.6.8.6.6 1 1.2.9 2v.1h-1.6c0-.4-.2-.8-.5-1.1-.3-.3-.8-.5-1.4-.5-.6 0-1.1.1-1.4.4-.3.3-.4.6-.4 1s.1.7.4.9c.3.2.8.4 1.6.6 1.2.3 2.1.6 2.6 1 .6.4.9 1 .9 1.8s-.3 1.5-1 2-1.6.8-2.6.8c-1.2 0-2.1-.3-2.8-.9-.7-.6-1-1.3-1-2.1v-.1h1.6c0 .6.3 1 .7 1.3.4.3.9.4 1.5.4s1.1-.1 1.4-.4c.3-.4.5-.7.5-1.1z"/></g></svg>