<svg id="Text" xmlns="http://www.w3.org/2000/svg" viewBox="0 0 568.7 215.3"><style>.st0{fill:#6da2a3}</style><path d="M103.1 4.3l.9-2.1h.6l-.4 2.1v1H103v-1zm2 0l.9-2.1h.6l-.4 2.1v1H105v-1zM112 9.1h-3.6l-.8 2.2h-1.2l3.3-8.5h1l3.2 8.5h-1.2l-.7-2.2zm-3.2-.9h2.9l-1.4-3.9-1.5 3.9zM120.3 8.4c0 .9-.2 1.7-.7 2.2s-1 .8-1.8.8c-.4 0-.8-.1-1.1-.2s-.6-.4-.8-.7l-.1.8h-.9V2.2h1.2v3.6c.2-.3.4-.5.7-.6s.6-.2 1-.2c.8 0 1.4.3 1.8.9s.7 1.4.7 2.5zm-1.1-.1c0-.7-.1-1.3-.4-1.8s-.7-.7-1.2-.7c-.4 0-.7.1-.9.3s-.4.4-.6.7v2.7c.1.3.3.6.6.7s.5.3.9.3c.5 0 .9-.2 1.2-.6s.4-.9.4-1.5v-.1zM125.4 9.6c0-.3-.1-.5-.3-.6s-.6-.3-1.1-.4c-.8-.2-1.3-.4-1.7-.7-.4-.3-.6-.7-.6-1.2s.2-1 .7-1.3c.4-.4 1-.5 1.7-.5s1.3.2 1.8.6.6.8.6 1.4h-1.1c0-.3-.1-.5-.3-.7s-.5-.3-.9-.3-.7.1-.9.3-.3.4-.3.7c0 .2.1.4.3.6s.5.3 1.1.4c.8.2 1.4.4 1.8.7s.6.7.6 1.2c0 .6-.2 1-.7 1.4s-1 .5-1.8.5-1.4-.2-1.9-.6-.7-.9-.7-1.4h1.1c0 .4.2.7.5.9.3.2.6.3 1 .3s.7-.1 1-.2.1-.8.1-1.1zM127.8 8.1c0-.9.3-1.7.8-2.3s1.2-.9 2.1-.9c.9 0 1.6.3 2.1.9s.8 1.4.8 2.3v.1c0 .9-.3 1.7-.8 2.3s-1.2.9-2.1.9-1.6-.3-2.1-.9-.8-1.4-.8-2.3v-.1zm1.1.1c0 .7.1 1.2.4 1.7.3.4.7.7 1.3.7.6 0 1-.2 1.3-.7.3-.4.4-1 .4-1.7v-.1c0-.7-.1-1.2-.4-1.7-.3-.4-.7-.7-1.3-.7-.6 0-1 .2-1.3.7-.3.4-.4 1-.4 1.7v.1zM136.1 11.3h-1.2V2.2h1.2v9.1zM141.9 10.4c-.2.3-.5.6-.8.8s-.7.3-1.1.3c-.7 0-1.2-.2-1.6-.7s-.6-1.1-.6-2.1V5h1.2v3.8c0 .7.1 1.1.3 1.4s.5.4.9.4.7-.1 1-.2.5-.4.6-.7V5h1.2v6.3h-1l-.1-.9zM146.2 3.5V5h1.2v.9h-1.2v3.8c0 .3.1.5.2.6s.3.2.5.2h.2c.1 0 .2 0 .2-.1l.2.8c-.1.1-.2.1-.4.2s-.3.1-.5.1c-.5 0-.8-.1-1.1-.4s-.4-.7-.4-1.3v-4h-1V5h1V3.5h1.1zM151.5 11.5c-.9 0-1.6-.3-2.1-.9s-.8-1.4-.8-2.3V8c0-.9.3-1.7.8-2.3s1.2-.9 1.9-.9c.9 0 1.5.3 1.9.8s.7 1.2.7 2.1v.7h-4.1c0 .6.2 1.1.5 1.5s.7.6 1.2.6c.4 0 .7-.1 1-.2s.5-.3.8-.5l.5.8c-.2.2-.5.4-.9.6-.5.2-.9.3-1.4.3zm-.2-5.7c-.4 0-.7.2-1 .5s-.4.7-.5 1.2h2.9v-.1c0-.5-.1-.8-.4-1.1-.2-.4-.5-.5-1-.5zM156.4 11.3h-1.2V2.2h1.2v9.1zM160.1 9l.2.8 1.6-4.8h1.3l-2.7 7.3c-.2.4-.4.8-.7 1.1s-.7.5-1.2.5h-.4c-.2 0-.3 0-.3-.1l.1-.9h.5c.2 0 .4-.1.6-.3s.3-.5.4-.7l.3-.7-2.3-6.2h1.3l1.3 4zM168.7 3.5V5h1.2v.9h-1.2v3.8c0 .3.1.5.2.6s.3.2.5.2h.2c.1 0 .2 0 .2-.1l.2.8c-.1.1-.2.1-.4.2s-.3.1-.5.1c-.5 0-.8-.1-1.1-.4s-.4-.7-.4-1.3v-4h-1V5h1V3.5h1.1zM172.5 5.8c.2-.3.5-.5.8-.7s.7-.3 1.1-.3c.7 0 1.2.2 1.6.6s.6 1 .6 1.9v4h-1.2v-4c0-.5-.1-.9-.3-1.2s-.6-.4-1-.4c-.3 0-.6.1-.9.2s-.5.4-.6.6v4.7h-1.2v-9h1.2v3.6zM180.8 11.5c-.9 0-1.6-.3-2.1-.9s-.8-1.4-.8-2.3V8c0-.9.3-1.7.8-2.3s1.2-.9 1.9-.9c.9 0 1.5.3 1.9.8s.7 1.2.7 2.1v.7h-4.1c0 .6.2 1.1.5 1.5s.7.6 1.2.6c.4 0 .7-.1 1-.2s.5-.3.8-.5l.5.8c-.2.2-.5.4-.9.6-.4.2-.8.3-1.4.3zm-.2-5.7c-.4 0-.7.2-1 .5s-.4.7-.5 1.2h2.9v-.1c0-.5-.1-.8-.4-1.1-.1-.4-.5-.5-1-.5zM192.9 8.4c0 .9-.2 1.7-.7 2.2s-1 .8-1.8.8c-.4 0-.8-.1-1.1-.2s-.6-.4-.8-.7l-.1.8h-.9V2.2h1.2v3.6c.2-.3.4-.5.7-.6s.6-.2 1-.2c.8 0 1.4.3 1.8.9s.7 1.4.7 2.5zm-1.1-.1c0-.7-.1-1.3-.4-1.8s-.7-.7-1.2-.7c-.4 0-.7.1-.9.3s-.4.4-.6.7v2.7c.1.3.3.6.6.7s.5.3.9.3c.5 0 .9-.2 1.2-.6s.4-.9.4-1.5v-.1zM197 11.5c-.9 0-1.6-.3-2.1-.9s-.8-1.4-.8-2.3V8c0-.9.3-1.7.8-2.3s1.2-.9 1.9-.9c.9 0 1.5.3 1.9.8s.7 1.2.7 2.1v.7h-4.1c0 .6.2 1.1.5 1.5s.7.6 1.2.6c.4 0 .7-.1 1-.2s.5-.3.8-.5l.5.8c-.2.2-.5.4-.9.6-.5.2-.9.3-1.4.3zm-.2-5.7c-.4 0-.7.2-1 .5s-.4.7-.5 1.2h2.9v-.1c0-.5-.1-.8-.4-1.1-.2-.4-.5-.5-1-.5zM204.4 9.6c0-.3-.1-.5-.3-.6s-.6-.3-1.1-.4c-.8-.2-1.3-.4-1.7-.7-.4-.3-.6-.7-.6-1.2s.2-1 .7-1.3c.4-.4 1-.5 1.7-.5s1.3.2 1.8.6.6.8.6 1.4h-1.1c0-.3-.1-.5-.3-.7s-.5-.3-.9-.3-.7.1-.9.3-.3.4-.3.7c0 .2.1.4.3.6s.5.3 1.1.4c.8.2 1.4.4 1.8.7s.6.7.6 1.2c0 .6-.2 1-.7 1.4s-1 .5-1.8.5-1.4-.2-1.9-.6-.7-.9-.7-1.4h1.1c0 .4.2.7.5.9.3.2.6.3 1 .3s.7-.1 1-.2.1-.8.1-1.1zM208.5 3.5V5h1.2v.9h-1.2v3.8c0 .3.1.5.2.6s.3.2.5.2h.2c.1 0 .2 0 .2-.1l.2.8c-.1.1-.2.1-.4.2s-.3.1-.5.1c-.5 0-.8-.1-1.1-.4s-.4-.7-.4-1.3v-4h-1V5h1V3.5h1.1zM218 11.3c0-.2-.1-.4-.1-.5v-.4c-.2.3-.5.6-.8.8s-.7.3-1.1.3c-.7 0-1.2-.2-1.5-.5s-.5-.8-.5-1.4c0-.6.2-1.1.7-1.4.5-.3 1.2-.5 2-.5h1.3V7c0-.4-.1-.7-.3-.9s-.5-.3-1-.3c-.4 0-.7.1-.9.3s-.3.4-.3.7h-1.1c0-.5.2-.9.7-1.3s1.1-.6 1.8-.6 1.3.2 1.7.5.4.9.4 1.6v3.8c0 .3.1.4.1.6H218zm-1.9-.8c.4 0 .8-.1 1.1-.3s.6-.5.7-.7v-1h-1.3c-.5 0-.8.1-1.1.4s-.5.4-.5.7c0 .3.1.5.3.7.2.1.4.2.8.2zM221.7 5l.1.9c.2-.3.5-.6.8-.8s.7-.3 1.1-.3c.7 0 1.2.2 1.6.6s.6 1 .6 1.9v4h-1.2v-4c0-.6-.1-1-.3-1.2s-.6-.4-1-.4c-.3 0-.6.1-.9.2s-.5.4-.6.7v4.6h-1.2V5h1zM227.2 8.3c0-1 .2-1.8.7-2.5s1-.9 1.8-.9c.4 0 .7.1 1 .2s.5.3.7.6V2.2h1.2v9.1h-.9l-.1-.8c-.2.3-.5.5-.8.7s-.7.2-1 .2c-.8 0-1.4-.3-1.8-.8s-.7-1.3-.7-2.2v-.1zm1.2.1c0 .6.1 1.2.4 1.5s.7.6 1.2.6c.3 0 .6-.1.9-.2s.4-.4.6-.7v-3c-.1-.3-.3-.5-.6-.6s-.5-.2-.9-.2c-.6 0-1 .2-1.2.7s-.4 1.1-.4 1.8v.1zM239.9 11.5c-.9 0-1.6-.3-2.1-.9s-.8-1.4-.8-2.3V8c0-.9.3-1.7.8-2.3s1.2-.9 1.9-.9c.9 0 1.5.3 1.9.8s.7 1.2.7 2.1v.7h-4.1c0 .6.2 1.1.5 1.5s.7.6 1.2.6c.4 0 .7-.1 1-.2s.5-.3.8-.5l.5.8c-.2.2-.5.4-.9.6-.4.2-.8.3-1.4.3zm-.1-5.7c-.4 0-.7.2-1 .5s-.4.7-.5 1.2h2.9v-.1c0-.5-.1-.8-.4-1.1-.2-.4-.6-.5-1-.5zM247.6 11.3c0-.2-.1-.4-.1-.5v-.4c-.2.3-.5.6-.8.8s-.7.3-1.1.3c-.7 0-1.2-.2-1.5-.5s-.5-.8-.5-1.4c0-.6.2-1.1.7-1.4.5-.3 1.2-.5 2-.5h1.3V7c0-.4-.1-.7-.3-.9s-.5-.3-1-.3c-.4 0-.7.1-.9.3s-.3.4-.3.7H244c0-.5.2-.9.7-1.3s1.1-.6 1.8-.6 1.3.2 1.7.5.7.9.7 1.6v3.8c0 .3.1.4.1.6h-1.4zm-2-.8c.4 0 .8-.1 1.1-.3s.6-.5.7-.7v-1h-1.3c-.5 0-.8.1-1.1.4s-.4.5-.4.8c0 .3.1.5.3.7.1 0 .4.1.7.1zM253.9 9.6c0-.3-.1-.5-.3-.6s-.6-.3-1.1-.4c-.8-.2-1.3-.4-1.7-.7-.4-.3-.6-.7-.6-1.2s.2-1 .7-1.3c.4-.4 1-.5 1.7-.5s1.3.2 1.8.6.6.8.6 1.4h-1.1c0-.3-.1-.5-.3-.7s-.5-.3-.9-.3-.7.1-.9.3-.3.4-.3.7c0 .2.1.4.3.6s.5.3 1.1.4c.8.2 1.4.4 1.8.7s.6.7.6 1.2c0 .6-.2 1-.7 1.4s-1 .5-1.8.5-1.4-.2-1.9-.6-.7-.9-.7-1.4h1.1c0 .4.2.7.5.9.3.2.6.3 1 .3s.7-.1 1-.2.1-.8.1-1.1zM257.8 3.4h-1.2V2.2h1.2v1.2zm0 7.9h-1.2V5h1.2v6.3zM262.2 11.5c-.9 0-1.6-.3-2.1-.9s-.8-1.4-.8-2.3V8c0-.9.3-1.7.8-2.3s1.2-.9 1.9-.9c.9 0 1.5.3 1.9.8s.7 1.2.7 2.1v.7h-4.1c0 .6.2 1.1.5 1.5s.7.6 1.2.6c.4 0 .7-.1 1-.2s.5-.3.8-.5l.5.8c-.2.2-.5.4-.9.6-.4.2-.9.3-1.4.3zm-.2-5.7c-.4 0-.7.2-1 .5s-.4.7-.5 1.2h2.9v-.1c0-.5-.1-.8-.4-1.1-.2-.4-.5-.5-1-.5zM269.6 9.6c0-.3-.1-.5-.3-.6s-.6-.3-1.1-.4c-.8-.2-1.3-.4-1.7-.7-.4-.3-.6-.7-.6-1.2s.2-1 .7-1.3c.4-.4 1-.5 1.7-.5s1.3.2 1.8.6.6.8.6 1.4h-1.1c0-.3-.1-.5-.3-.7s-.5-.3-.9-.3-.7.1-.9.3-.5.3-.5.5.1.4.3.6.5.3 1.1.4c.8.2 1.4.4 1.8.7s.6.7.6 1.2c0 .6-.2 1-.7 1.4s-1 .5-1.8.5-1.4-.2-1.9-.6-.7-.9-.7-1.4h1.1c0 .4.2.7.5.9.3.2.6.3 1 .3s.7-.1 1-.2.3-.6.3-.9zM273.7 3.5V5h1.2v.9h-1.2v3.8c0 .3.1.5.2.6s.3.2.5.2h.2c.1 0 .2 0 .2-.1l.2.8c-.1.1-.2.1-.4.2s-.3.1-.5.1c-.5 0-.8-.1-1.1-.4s-.4-.7-.4-1.3v-4h-1V5h1V3.5h1.1zM284.7 8.4c0 .9-.2 1.7-.7 2.2s-1 .8-1.8.8c-.4 0-.7-.1-1-.2s-.5-.3-.8-.6v3.1h-1.2V5h.9l.2.8c.2-.3.5-.5.8-.7s.7-.2 1.1-.2c.8 0 1.4.3 1.8.9s.7 1.4.7 2.5v.1zm-1.1-.1c0-.7-.1-1.3-.4-1.8-.3-.5-.7-.7-1.3-.7-.3 0-.6.1-.8.2s-.4.4-.6.6v3.1c.1.3.3.5.6.6s.5.2.9.2c.5 0 1-.2 1.2-.6.3-.4.4-.9.4-1.5v-.1zM288.8 11.5c-.9 0-1.6-.3-2.1-.9s-.8-1.4-.8-2.3V8c0-.9.3-1.7.8-2.3s1.2-.9 1.9-.9c.9 0 1.5.3 1.9.8s.7 1.2.7 2.1v.7h-4.1c0 .6.2 1.1.5 1.5s.7.6 1.2.6c.4 0 .7-.1 1-.2s.5-.3.8-.5l.5.8c-.2.2-.5.4-.9.6-.5.2-.9.3-1.4.3zm-.2-5.7c-.4 0-.7.2-1 .5s-.4.7-.5 1.2h2.9v-.1c0-.5-.1-.8-.4-1.1-.2-.4-.5-.5-1-.5zM295.5 6h-.6c-.3 0-.6.1-.8.2s-.4.3-.5.6v4.5h-1.2V5h1l.1.9c.2-.3.4-.6.7-.8s.6-.3.9-.3h.4V6zM300.3 9.6c0-.3-.1-.5-.3-.6s-.6-.3-1.1-.4c-.8-.2-1.3-.4-1.7-.7-.4-.3-.6-.7-.6-1.2s.2-1 .7-1.3c.4-.4 1-.5 1.7-.5s1.3.2 1.8.6.6.8.6 1.4h-1.1c0-.3-.1-.5-.3-.7s-.5-.3-.9-.3-.7.1-.9.3-.3.4-.3.7c0 .2.1.4.3.6s.5.3 1.1.4c.8.2 1.4.4 1.8.7s.6.7.6 1.2c0 .6-.2 1-.7 1.4s-1 .5-1.8.5-1.4-.2-1.9-.6-.7-.9-.7-1.4h1.1c0 .4.2.7.5.9.3.2.6.3 1 .3s.7-.1 1-.2.1-.8.1-1.1zM302.6 8.1c0-.9.3-1.7.8-2.3s1.2-.9 2.1-.9c.9 0 1.6.3 2.1.9s.8 1.4.8 2.3v.1c0 .9-.3 1.7-.8 2.3s-1.2.9-2.1.9-1.6-.3-2.1-.9-.8-1.4-.8-2.3v-.1zm1.1.1c0 .7.1 1.2.4 1.7.3.4.7.7 1.3.7.6 0 1-.2 1.3-.7.3-.4.4-1 .4-1.7v-.1c0-.7-.1-1.2-.4-1.7-.3-.4-.7-.7-1.3-.7-.6 0-1 .2-1.3.7-.3.4-.4 1-.4 1.7v.1zM310.7 5l.1.9c.2-.3.5-.6.8-.8s.7-.3 1.1-.3c.7 0 1.2.2 1.6.6s.6 1 .6 1.9v4h-1.2v-4c0-.6-.1-1-.3-1.2s-.6-.4-1-.4c-.3 0-.6.1-.9.2s-.5.4-.6.7v4.6h-1.2V5h1zM321 3.5V5h1.2v.9H321v3.8c0 .3.1.5.2.6s.3.2.5.2h.2c.1 0 .2 0 .2-.1l.2.8c-.1.1-.2.1-.4.2s-.3.1-.5.1c-.5 0-.8-.1-1.1-.4s-.4-.7-.4-1.3v-4h-1V5h1V3.5h1.1zM323.4 8.1c0-.9.3-1.7.8-2.3s1.2-.9 2.1-.9c.9 0 1.6.3 2.1.9s.8 1.4.8 2.3v.1c0 .9-.3 1.7-.8 2.3s-1.2.9-2.1.9-1.6-.3-2.1-.9-.8-1.4-.8-2.3v-.1zm1.1.1c0 .7.1 1.2.4 1.7.3.4.7.7 1.3.7.6 0 1-.2 1.3-.7.3-.4.4-1 .4-1.7v-.1c0-.7-.1-1.2-.4-1.7-.3-.4-.7-.7-1.3-.7-.6 0-1 .2-1.3.7-.3.4-.4 1-.4 1.7v.1zM335.1 9l.1.8.2-.8 1.3-4h.9l1.3 4 .2.9.2-.9 1-4h1.1l-1.8 6.3h-.9l-1.2-3.9-.3-1.1-.3 1.1-1.2 3.9h-.9L332.9 5h1.1l1.1 4zM342.3 8.1c0-.9.3-1.7.8-2.3s1.2-.9 2.1-.9c.9 0 1.6.3 2.1.9s.8 1.4.8 2.3v.1c0 .9-.3 1.7-.8 2.3s-1.2.9-2.1.9-1.6-.3-2.1-.9-.8-1.4-.8-2.3v-.1zm1.1.1c0 .7.1 1.2.4 1.7.3.4.7.7 1.3.7.6 0 1-.2 1.3-.7.3-.4.4-1 .4-1.7v-.1c0-.7-.1-1.2-.4-1.7-.3-.4-.7-.7-1.3-.7-.6 0-1 .2-1.3.7-.3.4-.4 1-.4 1.7v.1zM352.3 6h-.6c-.3 0-.6.1-.8.2s-.4.3-.5.6v4.5h-1.2V5h1l.1.9c.2-.3.4-.6.7-.8s.6-.3.9-.3h.4V6zM355.4 8.4h-.8v2.9h-1.2V2.2h1.2v5.3h.7L357 5h1.4l-2.2 2.9 2.5 3.5h-1.4l-1.9-3zM364.2 9l.1.8.2-.8 1.3-4h.9l1.3 4 .2.9.2-.9 1-4h1.1l-1.8 6.3h-.9l-1.2-3.9-.3-1.1-.3 1.2-1.2 3.9h-.9L362 5h1.1l1.1 4zM372.9 3.4h-1.2V2.2h1.2v1.2zm0 7.9h-1.2V5h1.2v6.3zM376.2 3.5V5h1.2v.9h-1.2v3.8c0 .3.1.5.2.6s.3.2.5.2h.2c.1 0 .2 0 .2-.1l.2.8c-.1.1-.2.1-.4.2s-.3.1-.5.1c-.5 0-.8-.1-1.1-.4s-.4-.7-.4-1.3v-4h-1V5h1V3.5h1.1zM380 5.8c.2-.3.5-.5.8-.7s.7-.3 1.1-.3c.7 0 1.2.2 1.6.6s.6 1 .6 1.9v4h-1.2v-4c0-.5-.1-.9-.3-1.2s-.6-.4-1-.4c-.3 0-.6.1-.9.2s-.5.4-.6.6v4.7h-1.2v-9h1.2v3.6zM388.4 8.1c0-.9.3-1.7.8-2.3s1.2-.9 2.1-.9c.9 0 1.6.3 2.1.9s.8 1.4.8 2.3v.1c0 .9-.3 1.7-.8 2.3s-1.2.9-2.1.9-1.6-.3-2.1-.9-.8-1.4-.8-2.3v-.1zm1.1.1c0 .7.1 1.2.4 1.7.3.4.7.7 1.3.7.6 0 1-.2 1.3-.7.3-.4.4-1 .4-1.7v-.1c0-.7-.1-1.2-.4-1.7-.3-.4-.7-.7-1.3-.7-.6 0-1 .2-1.3.7-.3.4-.4 1-.4 1.7v.1zM396.5 5l.1.9c.2-.3.5-.6.8-.8s.7-.3 1.1-.3c.7 0 1.2.2 1.6.6s.6 1 .6 1.9v4h-1.2v-4c0-.6-.1-1-.3-1.2s-.6-.4-1-.4c-.3 0-.6.1-.9.2s-.5.4-.6.7v4.6h-1.2V5h1zM406.8 3.5V5h1.2v.9h-1.2v3.8c0 .3.1.5.2.6s.3.2.5.2h.2c.1 0 .2 0 .2-.1l.2.8c-.1.1-.2.1-.4.2s-.3.1-.5.1c-.5 0-.8-.1-1.1-.4s-.4-.7-.4-1.3v-4h-1V5h1V3.5h1.1zM410.6 5.8c.2-.3.5-.5.8-.7s.7-.3 1.1-.3c.7 0 1.2.2 1.6.6s.6 1 .6 1.9v4h-1.2v-4c0-.5-.1-.9-.3-1.2s-.6-.4-1-.4c-.3 0-.6.1-.9.2s-.5.4-.6.6v4.7h-1.2v-9h1.2v3.6zM417.5 3.4h-1.2V2.2h1.2v1.2zm0 7.9h-1.2V5h1.2v6.3zM422.9 9.6c0-.3-.1-.5-.3-.6s-.6-.3-1.1-.4c-.8-.2-1.3-.4-1.7-.7-.4-.3-.6-.7-.6-1.2s.2-1 .7-1.3c.4-.4 1-.5 1.7-.5s1.3.2 1.8.6.6.8.6 1.4h-1.1c0-.3-.1-.5-.3-.7s-.5-.3-.9-.3-.7.1-.9.3-.3.4-.3.7c0 .2.1.4.3.6s.5.3 1.1.4c.8.2 1.4.4 1.8.7s.6.7.6 1.2c0 .6-.2 1-.7 1.4s-1 .5-1.8.5-1.4-.2-1.9-.6-.7-.9-.7-1.4h1.1c0 .4.2.7.5.9.3.2.6.3 1 .3s.7-.1 1-.2.1-.8.1-1.1zM432.2 9.6c0-.3-.1-.5-.3-.6s-.6-.3-1.1-.4c-.8-.2-1.3-.4-1.7-.7-.4-.3-.6-.7-.6-1.2s.2-1 .7-1.3c.4-.4 1-.5 1.7-.5s1.3.2 1.8.6.6.8.6 1.4h-1.1c0-.3-.1-.5-.3-.7s-.5-.3-.9-.3-.7.1-.9.3-.3.4-.3.7c0 .2.1.4.3.6s.5.3 1.1.4c.8.2 1.4.4 1.8.7s.6.7.6 1.2c0 .6-.2 1-.7 1.4s-1 .5-1.8.5-1.4-.2-1.9-.6-.7-.9-.7-1.4h1.1c0 .4.2.7.5.9.3.2.6.3 1 .3s.7-.1 1-.2.1-.8.1-1.1zM436 3.4h-1.2V2.2h1.2v1.2zm0 7.9h-1.2V5h1.2v6.3zM439.3 3.5V5h1.2v.9h-1.2v3.8c0 .3.1.5.2.6s.3.2.5.2h.2c.1 0 .2 0 .2-.1l.2.8c-.1.1-.2.1-.4.2s-.3.1-.5.1c-.5 0-.8-.1-1.1-.4s-.4-.7-.4-1.3v-4h-1V5h1V3.5h1.1zM444.6 11.5c-.9 0-1.6-.3-2.1-.9s-.8-1.4-.8-2.3V8c0-.9.3-1.7.8-2.3s1.2-.9 1.9-.9c.9 0 1.5.3 1.9.8s.7 1.2.7 2.1v.7h-4.1c0 .6.2 1.1.5 1.5s.7.6 1.2.6c.4 0 .7-.1 1-.2s.5-.3.8-.5l.5.8c-.2.2-.5.4-.9.6-.4.2-.9.3-1.4.3zm-.2-5.7c-.4 0-.7.2-1 .5s-.4.7-.5 1.2h2.9v-.1c0-.5-.1-.8-.4-1.1-.1-.4-.5-.5-1-.5zM449.6 11.3h-1.2v-1.2h1.2v1.2z"/><g><path d="M64.9 27.3h-1.2v-8.5h1.2v8.5zM68 19.3l-.9 2h-.6l.4-2v-1.1H68v1.1zM71.5 25.5l.1.4.1-.4 1.5-4.5h1.2L72 27.3h-.9L68.8 21H70l1.5 4.5zM77.9 27.5c-.9 0-1.6-.3-2.1-.9s-.8-1.4-.8-2.3V24c0-.9.3-1.7.8-2.3s1.2-.9 1.9-.9c.9 0 1.5.3 1.9.8s.7 1.2.7 2.1v.7h-4.1c0 .6.2 1.1.5 1.5s.7.6 1.2.6c.4 0 .7-.1 1-.2s.5-.3.8-.5l.5.8c-.2.2-.5.4-.9.6-.4.2-.8.3-1.4.3zm-.1-5.7c-.4 0-.7.2-1 .5s-.4.7-.5 1.2h2.9v-.2c0-.5-.1-.8-.4-1.1-.2-.3-.6-.4-1-.4zM85.8 21.8c.2-.3.5-.5.8-.7s.7-.3 1.1-.3c.7 0 1.2.2 1.6.6s.6 1 .6 1.9v4h-1.2v-4c0-.5-.1-.9-.3-1.2s-.6-.4-1-.4c-.3 0-.6.1-.9.2s-.5.4-.6.6v4.7h-1.2v-9.1h1.2v3.7zM92.7 19.4h-1.2v-1.2h1.2v1.2zm0 7.9h-1.2V21h1.2v6.3zM97.5 22h-.6c-.3 0-.6.1-.8.2s-.4.3-.5.6v4.5h-1.2V21h1l.1.9c.2-.3.4-.6.7-.8s.6-.3.9-.3h.4V22zM101.1 27.5c-.9 0-1.6-.3-2.1-.9s-.8-1.4-.8-2.3V24c0-.9.3-1.7.8-2.3s1.2-.9 1.9-.9c.9 0 1.5.3 1.9.8s.7 1.2.7 2.1v.7h-4.1c0 .6.2 1.1.5 1.5s.7.6 1.2.6c.4 0 .7-.1 1-.2s.5-.3.8-.5l.5.8c-.2.2-.5.4-.9.6-.4.2-.9.3-1.4.3zm-.2-5.7c-.4 0-.7.2-1 .5s-.4.7-.5 1.2h2.9v-.2c0-.5-.1-.8-.4-1.1-.1-.3-.5-.4-1-.4zM104.6 24.3c0-1 .2-1.8.7-2.5s1-.9 1.8-.9c.4 0 .7.1 1 .2s.5.3.7.6v-3.5h1.2v9.1h-1l-.1-.8c-.2.3-.5.5-.8.7s-.7.2-1 .2c-.8 0-1.4-.3-1.8-.8s-.7-1.3-.7-2.2v-.1zm1.1.1c0 .6.1 1.2.4 1.5s.7.6 1.2.6c.3 0 .6-.1.9-.2s.4-.4.6-.7v-3c-.1-.3-.3-.5-.6-.6s-.5-.2-.9-.2c-.6 0-1 .2-1.2.7s-.4 1.1-.4 1.8v.1zM118.5 27.3c0-.2-.1-.4-.1-.5v-.4c-.2.3-.5.6-.8.8s-.7.3-1.1.3c-.7 0-1.2-.2-1.5-.5s-.5-.8-.5-1.4c0-.6.2-1.1.7-1.4s1.2-.5 2-.5h1.3V23c0-.4-.1-.7-.3-.9s-.5-.3-1-.3c-.4 0-.7.1-.9.3s-.3.4-.3.7h-1.1c0-.5.2-.9.7-1.3s1.1-.6 1.8-.6 1.3.2 1.7.5.7.9.7 1.6v3.8c0 .3.1.4.1.6h-1.4zm-1.9-.8c.4 0 .8-.1 1.1-.3s.6-.5.7-.7v-1h-1.3c-.5 0-.8.1-1.1.4s-.4.5-.4.8c0 .3.1.5.3.7.1 0 .4.1.7.1zM125.5 27.3h-1.2v-9.1h1.2v9.1zM127 24.1c0-.9.3-1.7.8-2.3.5-.6 1.2-.9 2.1-.9.9 0 1.6.3 2.1.9s.8 1.4.8 2.3v.1c0 .9-.3 1.7-.8 2.3s-1.2.9-2.1.9-1.6-.3-2.1-.9c-.5-.6-.8-1.4-.8-2.3v-.1zm1.1.1c0 .7.1 1.2.4 1.7.3.4.7.7 1.3.7.6 0 1-.2 1.3-.7.3-.4.4-1 .4-1.7v-.1c0-.7-.1-1.2-.4-1.7-.3-.4-.7-.7-1.3-.7-.6 0-1 .2-1.3.7-.3.4-.4 1-.4 1.7v.1zM135.6 19.5V21h1.2v.9h-1.2v3.8c0 .3.1.5.2.6s.3.2.5.2h.2c.1 0 .2 0 .2-.1l.2.8c-.1.1-.2.1-.4.2s-.3.1-.5.1c-.5 0-.8-.1-1.1-.4s-.4-.7-.4-1.3V22h-1v-1h1v-1.5h1.1zM140.9 24.1c0-.9.3-1.7.8-2.3s1.2-.9 2.1-.9c.9 0 1.6.3 2.1.9s.8 1.4.8 2.3v.1c0 .9-.3 1.7-.8 2.3s-1.2.9-2.1.9-1.6-.3-2.1-.9-.8-1.4-.8-2.3v-.1zm1.2.1c0 .7.1 1.2.4 1.7.3.4.7.7 1.3.7.6 0 1-.2 1.3-.7.3-.4.4-1 .4-1.7v-.1c0-.7-.1-1.2-.4-1.7-.3-.4-.7-.7-1.3-.7-.6 0-1 .2-1.3.7-.3.4-.4 1-.4 1.7v.1zM148.5 27.3v-5.5h-1V21h1v-.8c0-.7.2-1.2.5-1.6s.8-.6 1.5-.6h.4c.1 0 .3.1.4.1l-.1.9h-.6c-.3 0-.6.1-.8.3s-.2.5-.2.9v.8h1.3v.9h-1.3v5.5h-1.1zM155.6 27.3v-5.5h-1V21h1v-.8c0-.7.2-1.2.5-1.6s.8-.6 1.5-.6h.4c.1 0 .3.1.4.1l-.1.9h-.6c-.3 0-.6.1-.8.3s-.2.5-.2.9v.8h1.3v.9h-1.3v5.5h-1.1zM162.3 22h-.6c-.3 0-.6.1-.8.2s-.4.3-.5.6v4.5h-1.2V21h1l.1.9c.2-.3.4-.6.7-.8s.6-.3.9-.3h.4V22zM165.9 27.5c-.9 0-1.6-.3-2.1-.9s-.8-1.4-.8-2.3V24c0-.9.3-1.7.8-2.3s1.2-.9 1.9-.9c.9 0 1.5.3 1.9.8s.7 1.2.7 2.1v.7h-4.1c0 .6.2 1.1.5 1.5s.7.6 1.2.6c.4 0 .7-.1 1-.2s.5-.3.8-.5l.5.8c-.2.2-.5.4-.9.6-.4.2-.9.3-1.4.3zm-.2-5.7c-.4 0-.7.2-1 .5s-.4.7-.5 1.2h2.9v-.2c0-.5-.1-.8-.4-1.1-.1-.3-.5-.4-1-.4zM172.2 27.5c-.9 0-1.6-.3-2.1-.9s-.8-1.4-.8-2.3V24c0-.9.3-1.7.8-2.3s1.2-.9 1.9-.9c.9 0 1.5.3 1.9.8s.7 1.2.7 2.1v.7h-4.1c0 .6.2 1.1.5 1.5s.7.6 1.2.6c.4 0 .7-.1 1-.2s.5-.3.8-.5l.5.8c-.2.2-.5.4-.9.6-.4.2-.8.3-1.4.3zm-.1-5.7c-.4 0-.7.2-1 .5s-.4.7-.5 1.2h2.9v-.2c0-.5-.1-.8-.4-1.1-.2-.3-.6-.4-1-.4zM177.2 27.3H176v-9.1h1.2v9.1zM182.9 27.3c0-.2-.1-.4-.1-.5v-.4c-.2.3-.5.6-.8.8s-.7.3-1.1.3c-.7 0-1.2-.2-1.5-.5s-.5-.8-.5-1.4c0-.6.2-1.1.7-1.4s1.2-.5 2-.5h1.3V23c0-.4-.1-.7-.3-.9s-.5-.3-1-.3c-.4 0-.7.1-.9.3s-.3.4-.3.7h-1.1c0-.5.2-.9.7-1.3s1.1-.6 1.8-.6 1.3.2 1.7.5.7.9.7 1.6v3.8c0 .3.1.4.1.6h-1.4zm-1.9-.8c.4 0 .8-.1 1.1-.3s.6-.5.7-.7v-1h-1.3c-.5 0-.8.1-1.1.4s-.4.5-.4.8c0 .3.1.5.3.7.1 0 .3.1.7.1zM186.6 21l.1.9c.2-.3.5-.6.8-.8s.7-.3 1.1-.3c.7 0 1.2.2 1.6.6s.6 1 .6 1.9v4h-1.2v-4c0-.6-.1-1-.3-1.2s-.6-.4-1-.4c-.3 0-.6.1-.9.2s-.5.4-.6.7v4.6h-1.2V21h1zM195 26.5c.4 0 .7-.1 1-.4s.4-.5.4-.9h1c0 .5-.2 1-.7 1.5s-1.1.6-1.8.6c-.9 0-1.6-.3-2.1-.9s-.7-1.4-.7-2.3V24c0-.9.2-1.7.7-2.3s1.2-.9 2.1-.9c.7 0 1.3.2 1.8.7s.7 1 .7 1.6h-1c0-.4-.1-.7-.4-1s-.6-.4-1-.4c-.6 0-1 .2-1.3.7-.3.4-.4 1-.4 1.6v.2c0 .6.1 1.2.4 1.6.2.5.7.7 1.3.7zM201.4 27.5c-.9 0-1.6-.3-2.1-.9s-.8-1.4-.8-2.3V24c0-.9.3-1.7.8-2.3s1.2-.9 1.9-.9c.9 0 1.5.3 1.9.8s.7 1.2.7 2.1v.7h-4.1c0 .6.2 1.1.5 1.5s.7.6 1.2.6c.4 0 .7-.1 1-.2s.5-.3.8-.5l.5.8c-.2.2-.5.4-.9.6-.4.2-.9.3-1.4.3zm-.2-5.7c-.4 0-.7.2-1 .5s-.4.7-.5 1.2h2.9v-.2c0-.5-.1-.8-.4-1.1-.1-.3-.5-.4-1-.4zM208.1 22h-.6c-.3 0-.6.1-.8.2s-.4.3-.5.6v4.5H205V21h1l.1.9c.2-.3.4-.6.7-.8s.6-.3.9-.3h.4V22zM212.9 25.6c0-.3-.1-.5-.3-.6s-.6-.3-1.1-.4c-.8-.2-1.3-.4-1.7-.7-.4-.3-.6-.7-.6-1.2s.2-1 .7-1.3c.4-.4 1-.5 1.7-.5s1.3.2 1.8.6.6.8.6 1.4h-1.1c0-.3-.1-.5-.3-.7s-.5-.3-.9-.3-.7.1-.9.3-.3.4-.3.7c0 .2.1.4.3.6s.5.3 1.1.4c.8.2 1.4.4 1.8.7s.6.7.6 1.2c0 .6-.2 1-.7 1.4s-1 .5-1.8.5-1.4-.2-1.9-.6-.9-1.1-.9-1.7h1.1c0 .4.2.7.5.9.3.2.6.3 1 .3s.7-.1 1-.2.3-.5.3-.8zM222.4 27.3c0-.2-.1-.4-.1-.5v-.4c-.2.3-.5.6-.8.8s-.7.3-1.1.3c-.7 0-1.2-.2-1.5-.5s-.5-.8-.5-1.4c0-.6.2-1.1.7-1.4s1.2-.5 2-.5h1.3V23c0-.4-.1-.7-.3-.9s-.5-.3-1-.3c-.4 0-.7.1-.9.3s-.3.4-.3.7h-1.1c0-.5.2-.9.7-1.3s1.1-.6 1.8-.6 1.3.2 1.7.5.7.9.7 1.6v3.8c0 .3.1.4.1.6h-1.4zm-1.9-.8c.4 0 .8-.1 1.1-.3s.6-.5.7-.7v-1H221c-.5 0-.8.1-1.1.4s-.4.5-.4.8c0 .3.1.5.3.7.1 0 .3.1.7.1zM226.1 21l.1.9c.2-.3.5-.6.8-.8s.7-.3 1.1-.3c.7 0 1.2.2 1.6.6s.6 1 .6 1.9v4h-1.2v-4c0-.6-.1-1-.3-1.2s-.6-.4-1-.4c-.3 0-.6.1-.9.2s-.5.4-.6.7v4.6h-1.2V21h1zM231.6 24.3c0-1 .2-1.8.7-2.5s1-.9 1.8-.9c.4 0 .7.1 1 .2s.5.3.7.6v-3.5h1.2v9.1h-.9l-.1-.8c-.2.3-.5.5-.8.7s-.7.2-1 .2c-.8 0-1.4-.3-1.8-.8s-.7-1.3-.7-2.2v-.1zm1.2.1c0 .6.1 1.2.4 1.5s.7.6 1.2.6c.3 0 .6-.1.9-.2s.4-.4.6-.7v-3c-.1-.3-.3-.5-.6-.6s-.5-.2-.9-.2c-.6 0-1 .2-1.2.7s-.4 1.1-.4 1.8v.1zM245.4 18.8h1.2V25c0 .8-.2 1.4-.7 1.8s-1.1.7-1.9.7c-.8 0-1.5-.2-2-.6s-.7-1-.7-1.8h1.1c0 .5.1.9.4 1.2s.6.4 1.1.4c.4 0 .8-.1 1-.4.3-.3.4-.7.4-1.2v-6.3zM252.2 27.3c0-.2-.1-.4-.1-.5v-.4c-.2.3-.5.6-.8.8s-.7.3-1.1.3c-.7 0-1.2-.2-1.5-.5s-.5-.8-.5-1.4c0-.6.2-1.1.7-1.4s1.2-.5 2-.5h1.3V23c0-.4-.1-.7-.3-.9s-.5-.3-1-.3c-.4 0-.7.1-.9.3s-.3.4-.3.7h-1.1c0-.5.2-.9.7-1.3s1.1-.6 1.8-.6 1.3.2 1.7.5.7.9.7 1.6v3.8c0 .3.1.4.1.6h-1.4zm-1.9-.8c.4 0 .8-.1 1.1-.3s.6-.5.7-.7v-1h-1.3c-.5 0-.8.1-1.1.4s-.4.5-.4.8c0 .3.1.5.3.7.1 0 .4.1.7.1zM257.9 22h-.6c-.3 0-.6.1-.8.2s-.4.3-.5.6v4.5h-1.2V21h1l.1.9c.2-.3.4-.6.7-.8s.6-.3.9-.3h.4V22zM258.7 24.1c0-.9.3-1.7.8-2.3s1.2-.9 2.1-.9c.9 0 1.6.3 2.1.9s.8 1.4.8 2.3v.1c0 .9-.3 1.7-.8 2.3s-1.2.9-2.1.9-1.6-.3-2.1-.9-.8-1.4-.8-2.3v-.1zm1.1.1c0 .7.1 1.2.4 1.7.3.4.7.7 1.3.7.6 0 1-.2 1.3-.7.3-.4.4-1 .4-1.7v-.1c0-.7-.1-1.2-.4-1.7-.3-.4-.7-.7-1.3-.7-.6 0-1 .2-1.3.7-.3.4-.4 1-.4 1.7v.1zM266.8 21l.1.9c.2-.3.5-.6.8-.8s.7-.3 1.1-.3c.7 0 1.2.2 1.6.6s.6 1 .6 1.9v4h-1.2v-4c0-.6-.1-1-.3-1.2s-.6-.4-1-.4c-.3 0-.6.1-.9.2s-.5.4-.6.7v4.6h-1.2V21h1zM276.8 19.4h-1.2v-1.2h1.2v1.2zm0 7.9h-1.2V21h1.2v6.3zM282.3 25.6c0-.3-.1-.5-.3-.6s-.6-.3-1.1-.4c-.8-.2-1.3-.4-1.7-.7-.4-.3-.6-.7-.6-1.2s.2-1 .7-1.3c.4-.4 1-.5 1.7-.5s1.3.2 1.8.6.6.8.6 1.4h-1.1c0-.3-.1-.5-.3-.7s-.5-.3-.9-.3-.7.1-.9.3-.3.4-.3.7c0 .2.1.4.3.6s.5.3 1.1.4c.8.2 1.4.4 1.8.7s.6.7.6 1.2c0 .6-.2 1-.7 1.4s-1 .5-1.8.5-1.4-.2-1.9-.6-.7-.9-.7-1.4h1.1c0 .4.2.7.5.9.3.2.6.3 1 .3s.7-.1 1-.2.1-.8.1-1.1zM290.5 27.5c-.9 0-1.6-.3-2.1-.9s-.8-1.4-.8-2.3V24c0-.9.3-1.7.8-2.3s1.2-.9 1.9-.9c.9 0 1.5.3 1.9.8s.7 1.2.7 2.1v.7h-4.1c0 .6.2 1.1.5 1.5s.7.6 1.2.6c.4 0 .7-.1 1-.2s.5-.3.8-.5l.5.8c-.2.2-.5.4-.9.6-.5.2-.9.3-1.4.3zm-.2-5.7c-.4 0-.7.2-1 .5s-.4.7-.5 1.2h2.9v-.2c0-.5-.1-.8-.4-1.1-.2-.3-.5-.4-1-.4zM298.1 27.3c0-.2-.1-.4-.1-.5v-.4c-.2.3-.5.6-.8.8s-.7.3-1.1.3c-.7 0-1.2-.2-1.5-.5s-.5-.8-.5-1.4c0-.6.2-1.1.7-1.4s1.2-.5 2-.5h1.3V23c0-.4-.1-.7-.3-.9s-.5-.3-1-.3c-.4 0-.7.1-.9.3s-.3.4-.3.7h-1.1c0-.5.2-.9.7-1.3s1.1-.6 1.8-.6 1.3.2 1.7.5.7.9.7 1.6v3.8c0 .3.1.4.1.6h-1.4zm-1.9-.8c.4 0 .8-.1 1.1-.3s.6-.5.7-.7v-1h-1.3c-.5 0-.8.1-1.1.4s-.4.5-.4.8c0 .3.1.5.3.7.1 0 .3.1.7.1zM304.5 25.6c0-.3-.1-.5-.3-.6s-.6-.3-1.1-.4c-.8-.2-1.3-.4-1.7-.7-.4-.3-.6-.7-.6-1.2s.2-1 .7-1.3c.4-.4 1-.5 1.7-.5s1.3.2 1.8.6.6.8.6 1.4h-1.1c0-.3-.1-.5-.3-.7s-.5-.3-.9-.3-.7.1-.9.3-.3.4-.3.7c0 .2.1.4.3.6s.5.3 1.1.4c.8.2 1.4.4 1.8.7s.6.7.6 1.2c0 .6-.2 1-.7 1.4s-1 .5-1.8.5-1.4-.2-1.9-.6-.7-.9-.7-1.4h1.1c0 .4.2.7.5.9.3.2.6.3 1 .3s.7-.1 1-.2.1-.8.1-1.1zM308.3 19.4h-1.2v-1.2h1.2v1.2zm0 7.9h-1.2V21h1.2v6.3zM311.3 27.3h-1.2v-9.1h1.2v9.1zM315 25l.2.8 1.6-4.8h1.3l-2.7 7.3c-.2.4-.4.8-.7 1.1s-.7.5-1.2.5h-.4c-.2 0-.3 0-.3-.1l.1-.9h.5c.2 0 .4-.1.6-.3s.3-.5.4-.7l.3-.7-2.4-6.2h1.3l1.4 4zM323.6 19.5V21h1.2v.9h-1.2v3.8c0 .3.1.5.2.6s.3.2.5.2h.2c.1 0 .2 0 .2-.1l.2.8c-.1.1-.2.1-.4.2s-.3.1-.5.1c-.5 0-.8-.1-1.1-.4s-.4-.7-.4-1.3V22h-1v-1h1v-1.5h1.1zM327.4 21.8c.2-.3.5-.5.8-.7s.7-.3 1.1-.3c.7 0 1.2.2 1.6.6s.6 1 .6 1.9v4h-1.2v-4c0-.5-.1-.9-.3-1.2s-.6-.4-1-.4c-.3 0-.6.1-.9.2s-.5.4-.6.6v4.7h-1.2v-9.1h1.2v3.7zM335.7 27.5c-.9 0-1.6-.3-2.1-.9s-.8-1.4-.8-2.3V24c0-.9.3-1.7.8-2.3s1.2-.9 1.9-.9c.9 0 1.5.3 1.9.8s.7 1.2.7 2.1v.7H334c0 .6.2 1.1.5 1.5s.7.6 1.2.6c.4 0 .7-.1 1-.2s.5-.3.8-.5l.5.8c-.2.2-.5.4-.9.6-.4.2-.9.3-1.4.3zm-.2-5.7c-.4 0-.7.2-1 .5s-.4.7-.5 1.2h2.9v-.2c0-.5-.1-.8-.4-1.1-.1-.3-.5-.4-1-.4zM347.8 24.4c0 .9-.2 1.7-.7 2.2s-1 .8-1.8.8c-.4 0-.8-.1-1.1-.2s-.6-.4-.8-.7l-.1.8h-.9v-9.1h1.2v3.6c.2-.3.4-.5.7-.6s.6-.2 1-.2c.8 0 1.4.3 1.8.9s.7 1.4.7 2.5zm-1.1-.1c0-.7-.1-1.3-.4-1.8s-.7-.7-1.2-.7c-.4 0-.7.1-.9.3s-.4.4-.6.7v2.7c.1.3.3.6.6.7s.5.3.9.3c.5 0 .9-.2 1.2-.6s.4-.9.4-1.5v-.1zM351.9 27.5c-.9 0-1.6-.3-2.1-.9s-.8-1.4-.8-2.3V24c0-.9.3-1.7.8-2.3s1.2-.9 1.9-.9c.9 0 1.5.3 1.9.8s.7 1.2.7 2.1v.7h-4.1c0 .6.2 1.1.5 1.5s.7.6 1.2.6c.4 0 .7-.1 1-.2s.5-.3.8-.5l.5.8c-.2.2-.5.4-.9.6-.5.2-.9.3-1.4.3zm-.2-5.7c-.4 0-.7.2-1 .5s-.4.7-.5 1.2h2.9v-.2c0-.5-.1-.8-.4-1.1-.2-.3-.5-.4-1-.4zM359.3 25.6c0-.3-.1-.5-.3-.6s-.6-.3-1.1-.4c-.8-.2-1.3-.4-1.7-.7-.4-.3-.6-.7-.6-1.2s.2-1 .7-1.3c.4-.4 1-.5 1.7-.5s1.3.2 1.8.6.6.8.6 1.4h-1.1c0-.3-.1-.5-.3-.7s-.5-.3-.9-.3-.7.1-.9.3-.3.4-.3.7c0 .2.1.4.3.6s.5.3 1.1.4c.8.2 1.4.4 1.8.7s.6.7.6 1.2c0 .6-.2 1-.7 1.4s-1 .5-1.8.5-1.4-.2-1.9-.6-.7-.9-.7-1.4h1.1c0 .4.2.7.5.9.3.2.6.3 1 .3s.7-.1 1-.2.1-.8.1-1.1zM363.4 19.5V21h1.2v.9h-1.2v3.8c0 .3.1.5.2.6s.3.2.5.2h.2c.1 0 .2 0 .2-.1l.2.8c-.1.1-.2.1-.4.2s-.3.1-.5.1c-.5 0-.8-.1-1.1-.4s-.4-.7-.4-1.3V22h-1v-1h1v-1.5h1.1zM368.7 24.1c0-.9.3-1.7.8-2.3s1.2-.9 2.1-.9c.9 0 1.6.3 2.1.9s.8 1.4.8 2.3v.1c0 .9-.3 1.7-.8 2.3s-1.2.9-2.1.9-1.6-.3-2.1-.9-.8-1.4-.8-2.3v-.1zm1.2.1c0 .7.1 1.2.4 1.7.3.4.7.7 1.3.7.6 0 1-.2 1.3-.7.3-.4.4-1 .4-1.7v-.1c0-.7-.1-1.2-.4-1.7-.3-.4-.7-.7-1.3-.7-.6 0-1 .2-1.3.7-.3.4-.4 1-.4 1.7v.1zM376.8 21l.1.9c.2-.3.5-.6.8-.8s.7-.3 1.1-.3c.7 0 1.2.2 1.6.6s.6 1 .6 1.9v4h-1.2v-4c0-.6-.1-1-.3-1.2s-.6-.4-1-.4c-.3 0-.6.1-.9.2s-.5.4-.6.7v4.6h-1.2V21h1zM385.3 27.5c-.9 0-1.6-.3-2.1-.9s-.8-1.4-.8-2.3V24c0-.9.3-1.7.8-2.3s1.2-.9 1.9-.9c.9 0 1.5.3 1.9.8s.7 1.2.7 2.1v.7h-4.1c0 .6.2 1.1.5 1.5s.7.6 1.2.6c.4 0 .7-.1 1-.2s.5-.3.8-.5l.5.8c-.2.2-.5.4-.9.6-.5.2-.9.3-1.4.3zm-.2-5.7c-.4 0-.7.2-1 .5s-.4.7-.5 1.2h2.9v-.2c0-.5-.1-.8-.4-1.1-.2-.3-.5-.4-1-.4zM393.5 19.5V21h1.2v.9h-1.2v3.8c0 .3.1.5.2.6s.3.2.5.2h.2c.1 0 .2 0 .2-.1l.2.8c-.1.1-.2.1-.4.2s-.3.1-.5.1c-.5 0-.8-.1-1.1-.4s-.4-.7-.4-1.3V22h-1v-1h1v-1.5h1.1zM397.3 21.8c.2-.3.5-.5.8-.7s.7-.3 1.1-.3c.7 0 1.2.2 1.6.6s.6 1 .6 1.9v4h-1.2v-4c0-.5-.1-.9-.3-1.2s-.6-.4-1-.4c-.3 0-.6.1-.9.2s-.5.4-.6.6v4.7h-1.2v-9.1h1.2v3.7zM406.8 27.3c0-.2-.1-.4-.1-.5v-.4c-.2.3-.5.6-.8.8s-.7.3-1.1.3c-.7 0-1.2-.2-1.5-.5s-.5-.8-.5-1.4c0-.6.2-1.1.7-1.4s1.2-.5 2-.5h1.3V23c0-.4-.1-.7-.3-.9s-.5-.3-1-.3c-.4 0-.7.1-.9.3s-.3.4-.3.7H403c0-.5.2-.9.7-1.3s1.1-.6 1.8-.6 1.3.2 1.7.5.7.9.7 1.6v3.8c0 .3.1.4.1.6h-1.2zm-1.9-.8c.4 0 .8-.1 1.1-.3s.6-.5.7-.7v-1h-1.3c-.5 0-.8.1-1.1.4s-.4.5-.4.8c0 .3.1.5.3.7.1 0 .4.1.7.1zM411 19.5V21h1.2v.9H411v3.8c0 .3.1.5.2.6s.3.2.5.2h.2c.1 0 .2 0 .2-.1l.2.8c-.1.1-.2.1-.4.2s-.3.1-.5.1c-.5 0-.8-.1-1.1-.4s-.4-.7-.4-1.3V22h-1v-1h1v-1.5h1.1zM417.9 19.4h-1.2v-1.2h1.2v1.2zm0 7.9h-1.2V21h1.2v6.3zM420.8 19.3l-.9 2h-.6l.4-2v-1.1h1.2v1.1zM424.2 25.5l.1.4.1-.4 1.5-4.5h1.2l-2.3 6.3h-.9l-2.4-6.3h1.2l1.5 4.5zM430.7 27.5c-.9 0-1.6-.3-2.1-.9s-.8-1.4-.8-2.3V24c0-.9.3-1.7.8-2.3s1.2-.9 1.9-.9c.9 0 1.5.3 1.9.8s.7 1.2.7 2.1v.7H429c0 .6.2 1.1.5 1.5s.7.6 1.2.6c.4 0 .7-.1 1-.2s.5-.3.8-.5l.5.8c-.2.2-.5.4-.9.6-.4.2-.9.3-1.4.3zm-.2-5.7c-.4 0-.7.2-1 .5s-.4.7-.5 1.2h2.9v-.2c0-.5-.1-.8-.4-1.1-.1-.3-.5-.4-1-.4zM439 25l.1.8.2-.8 1.3-4h.9l1.3 4 .2.9.2-.9 1-4h1.1l-1.8 6.3h-.9l-1.2-3.9-.3-1.1-.3 1.1-1.2 3.9h-.9l-1.8-6.3h1.1l1 4zM446.2 24.1c0-.9.3-1.7.8-2.3s1.2-.9 2.1-.9c.9 0 1.6.3 2.1.9s.8 1.4.8 2.3v.1c0 .9-.3 1.7-.8 2.3s-1.2.9-2.1.9-1.6-.3-2.1-.9-.8-1.4-.8-2.3v-.1zm1.2.1c0 .7.1 1.2.4 1.7.3.4.7.7 1.3.7.6 0 1-.2 1.3-.7.3-.4.4-1 .4-1.7v-.1c0-.7-.1-1.2-.4-1.7-.3-.4-.7-.7-1.3-.7-.6 0-1 .2-1.3.7-.3.4-.4 1-.4 1.7v.1zM456.3 22h-.6c-.3 0-.6.1-.8.2s-.4.3-.5.6v4.5h-1.2V21h1l.1.9c.2-.3.4-.6.7-.8s.6-.3.9-.3h.4V22zM459.3 24.4h-.8v2.9h-1.2v-9.1h1.2v5.3h.7l1.7-2.5h1.4l-2.2 2.9 2.5 3.5h-1.4l-1.9-3zM466.1 27.5c-.9 0-1.6-.3-2.1-.9s-.8-1.4-.8-2.3V24c0-.9.3-1.7.8-2.3s1.2-.9 1.9-.9c.9 0 1.5.3 1.9.8s.7 1.2.7 2.1v.7h-4.1c0 .6.2 1.1.5 1.5s.7.6 1.2.6c.4 0 .7-.1 1-.2s.5-.3.8-.5l.5.8c-.2.2-.5.4-.9.6-.4.2-.9.3-1.4.3zm-.2-5.7c-.4 0-.7.2-1 .5s-.4.7-.5 1.2h2.9v-.2c0-.5-.1-.8-.4-1.1-.1-.3-.5-.4-1-.4zM469.5 24.3c0-1 .2-1.8.7-2.5s1-.9 1.8-.9c.4 0 .7.1 1 .2s.5.3.7.6v-3.5h1.2v9.1h-.9l-.1-.8c-.2.3-.5.5-.8.7s-.7.2-1 .2c-.8 0-1.4-.3-1.8-.8s-.7-1.3-.7-2.2v-.1zm1.2.1c0 .6.1 1.2.4 1.5s.7.6 1.2.6c.3 0 .6-.1.9-.2s.4-.4.6-.7v-3c-.1-.3-.3-.5-.6-.6s-.5-.2-.9-.2c-.6 0-1 .2-1.2.7s-.4 1.1-.4 1.8v.1zM481.2 25l.1.8.2-.8 1.3-4h.9l1.3 4 .2.9.2-.9 1-4h1.1l-1.8 6.3h-.9l-1.2-3.9-.3-1.1-.3 1.1-1.2 3.9h-.9L479 21h1.1l1.1 4zM489.9 19.4h-1.2v-1.2h1.2v1.2zm0 7.9h-1.2V21h1.2v6.3zM493.2 19.5V21h1.2v.9h-1.2v3.8c0 .3.1.5.2.6s.3.2.5.2h.2c.1 0 .2 0 .2-.1l.2.8c-.1.1-.2.1-.4.2s-.3.1-.5.1c-.5 0-.8-.1-1.1-.4s-.4-.7-.4-1.3V22h-1v-1h1v-1.5h1.1zM497 21.8c.2-.3.5-.5.8-.7s.7-.3 1.1-.3c.7 0 1.2.2 1.6.6s.6 1 .6 1.9v4h-1.2v-4c0-.5-.1-.9-.3-1.2s-.6-.4-1-.4c-.3 0-.6.1-.9.2s-.5.4-.6.6v4.7h-1.2v-9.1h1.2v3.7zM504 24.5h-1.2v-5.7h1.2v5.7zm0 2.8h-1.2v-1.2h1.2v1.2zM507 19.3l-.9 2h-.6l.4-2v-1.1h1.2v1.1zm2 0l-.9 2h-.6l.4-2v-1.1h1.2v1.1z"/></g><g><path class="st0" d="M358.5 46.9h-4.2v-1.3h4.2v1.3zM368.6 48.4l.3 1h.1l.3-1 3.3-9.5h1.8l-4.7 12.6h-1.5L363.5 39h1.9l3.2 9.4zM379.2 51.8c-1.3 0-2.3-.4-3.1-1.3-.8-.9-1.2-2-1.2-3.4v-.4c0-1.3.4-2.4 1.2-3.3s1.7-1.3 2.8-1.3c1.3 0 2.2.4 2.9 1.1.6.8 1 1.8 1 3v1.1h-6.1c0 .9.2 1.6.7 2.2.4.6 1.1.9 1.8.9.6 0 1.1-.1 1.5-.2.4-.2.8-.4 1.1-.7l.7 1.1c-.3.3-.8.6-1.3.8-.5.3-1.2.4-2 .4zm-.2-8.4c-.6 0-1.1.2-1.5.7s-.7 1.1-.7 1.8h4.3v-.2c0-.7-.2-1.2-.5-1.7-.4-.4-.9-.6-1.6-.6zM384.4 47.1c0-1.5.3-2.7 1-3.6.7-.9 1.6-1.4 2.7-1.4.6 0 1.1.1 1.6.4.5.2.8.6 1.1 1l.2-1.2h1.4v9.4c0 1.2-.3 2.1-1 2.8-.7.6-1.7 1-3 1-.5 0-.9-.1-1.5-.2-.5-.1-1-.3-1.4-.5l.4-1.3c.3.2.7.3 1.1.4.4.1.9.2 1.3.2.8 0 1.4-.2 1.8-.6.4-.4.6-1 .6-1.7v-1.1c-.3.4-.7.7-1.1.9-.4.2-.9.3-1.5.3-1.1 0-2.1-.4-2.7-1.2-.7-.8-1-1.9-1-3.3v-.3zm1.7.1c0 .9.2 1.7.6 2.3.4.6 1 .9 1.8.9.5 0 .9-.1 1.3-.4.3-.2.6-.6.9-1v-4.3c-.2-.4-.5-.7-.9-.9-.4-.2-.8-.4-1.3-.4-.8 0-1.4.3-1.8 1s-.6 1.6-.6 2.6v.2zM400.6 51.6c-.1-.3-.1-.5-.1-.7 0-.2-.1-.4-.1-.7-.3.5-.7.8-1.2 1.1-.5.3-1.1.5-1.7.5-1 0-1.7-.2-2.2-.7-.5-.5-.8-1.2-.8-2.1 0-.9.4-1.6 1.1-2.1.7-.5 1.7-.8 3-.8h1.9v-.9c0-.5-.2-1-.5-1.3s-.8-.5-1.4-.5c-.5 0-1 .1-1.3.4s-.5.6-.5 1H395v-.1c0-.7.3-1.3 1-1.9.7-.6 1.6-.8 2.6-.8 1.1 0 1.9.3 2.6.8.6.5 1 1.3 1 2.3v4.5c0 .3 0 .7.1 1 0 .3.1.6.2.9h-1.9zm-2.9-1.3c.6 0 1.2-.2 1.7-.5s.8-.7 1-1.1v-1.5h-1.9c-.7 0-1.2.2-1.7.5-.4.3-.6.8-.6 1.2 0 .4.1.7.4 1 .3.3.6.4 1.1.4zM406.1 42.2l.1 1.4c.3-.5.7-.9 1.2-1.2s1-.4 1.6-.4c1 0 1.8.3 2.3.9.6.6.8 1.5.8 2.7v5.9h-1.7v-5.9c0-.8-.2-1.4-.5-1.8s-.8-.5-1.5-.5c-.5 0-.9.1-1.3.4-.4.2-.7.6-.9 1v6.8h-1.7v-9.4h1.6zM425.7 47.3h1.7v1.3h-1.7v2.9H424v-2.9h-5.7v-1l5.6-8.7h1.8v8.4zm-5.6 0h3.8v-5.9h-.1l-.2.4-3.5 5.5zM440.6 48.3h-5.3l-1.2 3.2h-1.7l4.9-12.6h1.5l4.8 12.6h-1.7l-1.3-3.2zm-4.7-1.4h4.2l-2.1-5.7-2.1 5.7zM451.4 46.1v5.5h-1.7V39h4.6c1.4 0 2.4.3 3.2.9.7.6 1.1 1.5 1.1 2.7 0 .6-.2 1.2-.5 1.7s-.8.9-1.5 1.1c.7.2 1.2.6 1.5 1.1.3.5.5 1.1.5 1.9v1.2c0 .4 0 .7.1 1.1.1.3.2.6.5.8v.2h-1.8c-.2-.2-.4-.5-.4-.9-.1-.4-.1-.8-.1-1.2v-1.2c0-.7-.2-1.2-.6-1.6s-.9-.6-1.6-.6h-3.3zm0-1.3h2.7c1 0 1.7-.2 2.1-.5.4-.4.6-.9.6-1.7 0-.7-.2-1.3-.6-1.6-.4-.4-1.1-.6-1.9-.6h-2.9v4.4zM465 51.8c-1.3 0-2.3-.4-3.1-1.3-.8-.9-1.2-2-1.2-3.4v-.4c0-1.3.4-2.4 1.2-3.3s1.7-1.3 2.8-1.3c1.3 0 2.2.4 2.9 1.1.6.8 1 1.8 1 3v1.1h-6.1c0 .9.2 1.6.7 2.2.4.6 1.1.9 1.8.9.6 0 1.1-.1 1.5-.2.4-.2.8-.4 1.1-.7l.7 1.1c-.3.3-.8.6-1.3.8-.5.3-1.2.4-2 .4zm-.3-8.4c-.6 0-1.1.2-1.5.7s-.7 1.1-.7 1.8h4.3v-.2c0-.7-.2-1.2-.5-1.7-.3-.4-.8-.6-1.6-.6zM476.3 51.6c-.1-.3-.1-.5-.1-.7 0-.2-.1-.4-.1-.7-.3.5-.7.8-1.2 1.1-.5.3-1.1.5-1.7.5-1 0-1.7-.2-2.2-.7-.5-.5-.8-1.2-.8-2.1 0-.9.4-1.6 1.1-2.1.7-.5 1.7-.8 3-.8h1.9v-.9c0-.5-.2-1-.5-1.3s-.8-.5-1.4-.5c-.5 0-1 .1-1.3.4s-.5.6-.5 1h-1.6v-.1c0-.7.3-1.3 1-1.9.7-.6 1.6-.8 2.6-.8 1.1 0 1.9.3 2.6.8.6.5 1 1.3 1 2.3v4.5c0 .3 0 .7.1 1 0 .3.1.6.2.9h-2.1zm-2.9-1.3c.6 0 1.2-.2 1.7-.5s.8-.7 1-1.1v-1.5h-1.9c-.7 0-1.2.2-1.7.5-.4.3-.6.8-.6 1.2 0 .4.1.7.4 1 .2.3.6.4 1.1.4zM485.7 49.1c0-.4-.1-.7-.4-.9-.3-.2-.8-.5-1.6-.6-1.1-.2-2-.6-2.6-1-.6-.4-.9-1-.9-1.7 0-.8.3-1.4 1-1.9.6-.5 1.5-.8 2.5-.8 1.1 0 2 .3 2.6.8.6.6 1 1.2.9 2v.1h-1.6c0-.4-.2-.8-.5-1.1-.3-.3-.8-.5-1.4-.5-.6 0-1.1.1-1.4.4-.3.3-.4.6-.4 1s.1.7.4.9c.3.2.8.4 1.6.6 1.2.3 2.1.6 2.6 1 .6.4.9 1 .9 1.8s-.3 1.5-1 2-1.6.8-2.6.8c-1.2 0-2.1-.3-2.8-.9-.7-.6-1-1.3-1-2.1v-.1h1.6c0 .6.3 1 .7 1.3.4.3.9.4 1.5.4s1.1-.1 1.4-.4c.3-.4.5-.7.5-1.1zM489.1 46.8c0-1.4.4-2.5 1.1-3.4s1.8-1.3 3.1-1.3 2.3.4 3.1 1.3c.8.9 1.1 2 1.1 3.4v.2c0 1.4-.4 2.5-1.1 3.4s-1.8 1.3-3.1 1.3-2.3-.4-3.1-1.3c-.8-.9-1.1-2-1.1-3.4v-.2zm1.7.2c0 1 .2 1.8.6 2.5.4.6 1 1 1.9 1 .8 0 1.4-.3 1.9-1 .4-.6.6-1.5.6-2.5v-.2c0-1-.2-1.8-.6-2.4-.4-.7-1-1-1.9-1-.8 0-1.4.3-1.9 1-.4.7-.6 1.5-.6 2.4v.2zM501.1 42.2l.1 1.4c.3-.5.7-.9 1.2-1.2s1-.4 1.6-.4c1 0 1.8.3 2.3.9.6.6.8 1.5.8 2.7v5.9h-1.7v-5.9c0-.8-.2-1.4-.5-1.8s-.8-.5-1.5-.5c-.5 0-.9.1-1.3.4-.4.2-.7.6-.9 1v6.8h-1.7v-9.4h1.6z"/></g><g><path d="M4.1 84.3l.9-2.1h.6l-.4 2.1v1H4.1v-1zm2 0l.9-2.1h.6l-.4 2.1v1H6.1v-1zM12.5 82.8h1.2V89c0 .8-.2 1.4-.7 1.8s-1.1.7-1.9.7c-.8 0-1.5-.2-2-.6s-.7-1-.7-1.8h1.1c0 .5.1.9.4 1.2s.6.4 1.1.4c.4 0 .8-.1 1-.4.3-.3.4-.7.4-1.2v-6.3zM19.4 91.3c0-.2-.1-.4-.1-.5v-.4c-.2.3-.5.6-.8.8s-.7.3-1.1.3c-.7 0-1.2-.2-1.5-.5-.3-.3-.5-.8-.5-1.4 0-.6.2-1.1.7-1.4.5-.3 1.2-.5 2-.5h1.3V87c0-.4-.1-.7-.3-.9s-.5-.3-1-.3c-.4 0-.7.1-.9.3s-.3.4-.3.7h-1.1c0-.5.2-.9.7-1.3.5-.4 1.1-.6 1.8-.6s1.3.2 1.7.5.7.9.7 1.6v3.8c0 .3.1.4.1.6h-1.4zm-1.9-.8c.4 0 .8-.1 1.1-.3s.6-.5.7-.7v-1H18c-.5 0-.8.1-1.1.4s-.4.5-.4.8c0 .3.1.5.3.7.1 0 .3.1.7.1zM25.1 86h-.6c-.3 0-.6.1-.8.2s-.4.3-.5.6v4.5H22V85h1l.1.9c.2-.3.4-.6.7-.8s.6-.3.9-.3h.4V86zM25.8 88.1c0-.9.3-1.7.8-2.3s1.2-.9 2.1-.9c.9 0 1.6.3 2.1.9s.8 1.4.8 2.3v.1c0 .9-.3 1.7-.8 2.3s-1.2.9-2.1.9-1.6-.3-2.1-.9-.8-1.4-.8-2.3v-.1zm1.2.1c0 .7.1 1.2.4 1.7.3.4.7.7 1.3.7.6 0 1-.2 1.3-.7.3-.4.4-1 .4-1.7v-.1c0-.7-.1-1.2-.4-1.7-.3-.4-.7-.7-1.3-.7-.6 0-1 .2-1.3.7-.3.4-.4 1-.4 1.7v.1zM33.9 85l.1.9c.2-.3.5-.6.8-.8s.7-.3 1.1-.3c.7 0 1.2.2 1.6.6s.6 1 .6 1.9v4h-1.2v-4c0-.6-.1-1-.3-1.2s-.6-.4-1-.4c-.3 0-.6.1-.9.2s-.5.4-.6.7v4.6h-1.2V85h1zM44.3 89l.1.8.2-.8 1.3-4h.9l1.3 4 .2.9.2-.9 1-4h1.1l-1.8 6.3h-.9l-1.2-3.9-.3-1.1-.3 1.1-1.2 3.9H44L42.1 85h1.1l1.1 4zM55.7 91.3c0-.2-.1-.4-.1-.5v-.4c-.2.3-.5.6-.8.8s-.7.3-1.1.3c-.7 0-1.2-.2-1.5-.5s-.5-.8-.5-1.4c0-.6.2-1.1.7-1.4s1.2-.5 2-.5h1.3V87c0-.4-.1-.7-.3-.9s-.5-.3-1-.3c-.4 0-.7.1-.9.3s-.5.4-.5.7h-1.1c0-.5.2-.9.7-1.3s1.1-.6 1.8-.6 1.3.2 1.7.5.7.9.7 1.6v3.8c0 .3.1.4.1.6h-1.2zm-1.9-.8c.4 0 .8-.1 1.1-.3s.6-.5.7-.7v-1h-1.3c-.5 0-.8.1-1.1.4s-.4.5-.4.8c0 .3.1.5.3.7.1 0 .3.1.7.1zM62.1 89.6c0-.3-.1-.5-.3-.6s-.6-.3-1.1-.4c-.8-.2-1.3-.4-1.7-.7-.4-.3-.6-.7-.6-1.2s.2-1 .7-1.3c.4-.4 1-.5 1.7-.5s1.3.2 1.8.6.6.8.6 1.4H62c0-.3-.1-.5-.3-.7s-.5-.3-.9-.3-.7.1-.9.3-.3.4-.3.7c0 .2.1.4.3.6s.5.3 1.1.4c.8.2 1.4.4 1.8.7s.6.7.6 1.2c0 .6-.2 1-.7 1.4s-1 .5-1.8.5-1.4-.2-1.9-.6-.7-.9-.7-1.4h1.1c0 .4.2.7.5.9.3.2.6.3 1 .3s.7-.1 1-.2.2-.8.2-1.1zM70.3 91.5c-.9 0-1.6-.3-2.1-.9s-.8-1.4-.8-2.3V88c0-.9.3-1.7.8-2.3s1.2-.9 1.9-.9c.9 0 1.5.3 1.9.8s.7 1.2.7 2.1v.7h-4.1c0 .6.2 1.1.5 1.5s.7.6 1.2.6c.4 0 .7-.1 1-.2s.5-.3.8-.5l.5.8c-.2.2-.5.4-.9.6-.5.2-.9.3-1.4.3zm-.2-5.7c-.4 0-.7.2-1 .5s-.4.7-.5 1.2h2.9v-.2c0-.5-.1-.8-.4-1.1-.2-.3-.5-.4-1-.4zM76.1 87.3l1.3-2.3h1.3l-2.1 3.1 2.1 3.2h-1.3L76 88.9l-1.4 2.4h-1.3l2.1-3.2-1.9-3.1h1.3l1.3 2.3zM81.5 83.5V85h1.2v.9h-1.2v3.8c0 .3.1.5.2.6s.3.2.5.2h.2c.1 0 .2 0 .2-.1l.2.8c-.1.1-.2.1-.4.2s-.3.1-.5.1c-.5 0-.8-.1-1.1-.4s-.4-.7-.4-1.3V86h-1v-1h1v-1.5h1.1zM87.2 86h-.6c-.3 0-.6.1-.8.2s-.4.3-.5.6v4.5h-1.2V85h1l.1.9c.2-.3.4-.6.7-.8s.6-.3.9-.3h.4V86zM90.8 91.5c-.9 0-1.6-.3-2.1-.9s-.8-1.4-.8-2.3V88c0-.9.3-1.7.8-2.3s1.2-.9 1.9-.9c.9 0 1.5.3 1.9.8s.7 1.2.7 2.1v.7h-4.1c0 .6.2 1.1.5 1.5s.7.6 1.2.6c.4 0 .7-.1 1-.2s.5-.3.8-.5l.5.8c-.2.2-.5.4-.9.6-.4.2-.9.3-1.4.3zm-.2-5.7c-.4 0-.7.2-1 .5s-.4.7-.5 1.2H92v-.2c0-.5-.1-.8-.4-1.1-.1-.3-.5-.4-1-.4zM95.5 85l.1.8c.2-.3.5-.5.8-.7s.7-.2 1.1-.2.8.1 1.1.3.5.5.7.9c.2-.4.5-.6.8-.9s.7-.3 1.1-.3c.6 0 1.2.2 1.5.7s.6 1.1.6 2v3.8h-1.2v-3.8c0-.6-.1-1.1-.3-1.3s-.5-.4-1-.4c-.4 0-.7.1-1 .4s-.4.6-.4 1v4h-1.2v-3.8c0-.6-.1-1-.3-1.3s-.5-.4-1-.4c-.4 0-.6.1-.9.2s-.4.3-.5.6v4.7h-1.2V85h1.2zM107.6 91.5c-.9 0-1.6-.3-2.1-.9s-.8-1.4-.8-2.3V88c0-.9.3-1.7.8-2.3s1.2-.9 1.9-.9c.9 0 1.5.3 1.9.8s.7 1.2.7 2.1v.7h-4.1c0 .6.2 1.1.5 1.5s.7.6 1.2.6c.4 0 .7-.1 1-.2s.5-.3.8-.5l.5.8c-.2.2-.5.4-.9.6-.4.2-.8.3-1.4.3zm-.1-5.7c-.4 0-.7.2-1 .5s-.5.7-.5 1.2h2.9v-.2c0-.5-.1-.8-.4-1.1-.2-.3-.6-.4-1-.4zM112.6 91.3h-1.2v-9.1h1.2v9.1zM116.3 89l.2.8 1.6-4.8h1.3l-2.7 7.3c-.2.4-.4.8-.7 1.1s-.7.5-1.2.5h-.4c-.2 0-.3 0-.3-.1l.1-.9h.5c.2 0 .4-.1.6-.3s.3-.5.4-.7l.3-.7-2.4-6.2h1.3l1.4 4zM124.5 85.8c.2-.3.5-.5.8-.7s.7-.3 1.1-.3c.7 0 1.2.2 1.6.6.4.4.6 1 .6 1.9v4h-1.2v-4c0-.5-.1-.9-.3-1.2s-.6-.4-1-.4c-.3 0-.6.1-.9.2s-.5.4-.6.6v4.7h-1.2v-9.1h1.2v3.7zM132.8 91.5c-.9 0-1.6-.3-2.1-.9s-.8-1.4-.8-2.3V88c0-.9.3-1.7.8-2.3s1.2-.9 1.9-.9c.9 0 1.5.3 1.9.8s.7 1.2.7 2.1v.7h-4.1c0 .6.2 1.1.5 1.5s.7.6 1.2.6c.4 0 .7-.1 1-.2s.5-.3.8-.5l.5.8c-.2.2-.5.4-.9.6-.4.2-.8.3-1.4.3zm-.1-5.7c-.4 0-.7.2-1 .5s-.4.7-.5 1.2h2.9v-.2c0-.5-.1-.8-.4-1.1-.2-.3-.6-.4-1-.4zM137.8 91.3h-1.2v-9.1h1.2v9.1zM145 88.4c0 .9-.2 1.7-.7 2.2s-1 .8-1.8.8c-.4 0-.7-.1-1-.2s-.5-.3-.8-.6v3.1h-1.2V85h.9l.2.8c.2-.3.5-.5.8-.7s.7-.2 1.1-.2c.8 0 1.4.3 1.8.9s.7 1.4.7 2.5v.1zm-1.2-.1c0-.7-.1-1.3-.4-1.8-.3-.5-.7-.7-1.3-.7-.3 0-.6.1-.8.2s-.4.4-.6.6v3.1c.1.3.3.5.6.6s.5.2.9.2c.5 0 1-.2 1.2-.6.3-.4.4-.9.4-1.5v-.1zM146.9 91.3v-5.5h-1V85h1v-.8c0-.7.2-1.2.5-1.6s.8-.6 1.5-.6h.4c.1 0 .3.1.4.1l-.1.9h-.6c-.3 0-.6.1-.8.3s-.2.5-.2.9v.8h1.3v.9H148v5.5h-1.1zM154.6 90.4c-.2.3-.5.6-.8.8s-.7.3-1.1.3c-.7 0-1.2-.2-1.6-.7s-.6-1.1-.6-2.1V85h1.2v3.8c0 .7.1 1.1.3 1.4s.5.4.9.4.7-.1 1-.2.5-.4.6-.7V85h1.2v6.3h-1l-.1-.9zM158.6 91.3h-1.2v-9.1h1.2v9.1zM167.3 91.3c0-.2-.1-.4-.1-.5v-.4c-.2.3-.5.6-.8.8s-.7.3-1.1.3c-.7 0-1.2-.2-1.5-.5s-.5-.8-.5-1.4c0-.6.2-1.1.7-1.4s1.2-.5 2-.5h1.3V87c0-.4-.1-.7-.3-.9s-.5-.3-1-.3c-.4 0-.7.1-.9.3s-.3.4-.3.7h-1.1c0-.5.2-.9.7-1.3s1.1-.6 1.8-.6 1.3.2 1.7.5.7.9.7 1.6v3.8c0 .3.1.4.1.6h-1.4zm-1.9-.8c.4 0 .8-.1 1.1-.3s.6-.5.7-.7v-1h-1.3c-.5 0-.8.1-1.1.4s-.4.5-.4.8c0 .3.1.5.3.7 0 0 .3.1.7.1zM171 85l.1.9c.2-.3.5-.6.8-.8s.7-.3 1.1-.3c.7 0 1.2.2 1.6.6s.6 1 .6 1.9v4H174v-4c0-.6-.1-1-.3-1.2s-.6-.4-1-.4c-.3 0-.6.1-.9.2s-.5.4-.6.7v4.6H170V85h1zM176.5 88.3c0-1 .2-1.8.7-2.5s1-.9 1.8-.9c.4 0 .7.1 1 .2s.5.3.7.6v-3.5h1.2v9.1h-.9l-.1-.8c-.2.3-.5.5-.8.7s-.7.2-1 .2c-.8 0-1.4-.3-1.8-.8s-.7-1.3-.7-2.2v-.1zm1.2.1c0 .6.1 1.2.4 1.5s.7.6 1.2.6c.3 0 .6-.1.9-.2s.4-.4.6-.7v-3c-.1-.3-.3-.5-.6-.6s-.5-.2-.9-.2c-.6 0-1 .2-1.2.7s-.4 1.1-.4 1.8v.1zM190.3 89.6c0-.3-.1-.5-.3-.6s-.6-.3-1.1-.4c-.8-.2-1.3-.4-1.7-.7-.4-.3-.6-.7-.6-1.2s.2-1 .7-1.3c.4-.4 1-.5 1.7-.5s1.3.2 1.8.6.6.8.6 1.4h-1.1c0-.3-.1-.5-.3-.7s-.5-.3-.9-.3-.7.1-.9.3-.3.4-.3.7c0 .2.1.4.3.6s.5.3 1.1.4c.8.2 1.4.4 1.8.7s.6.7.6 1.2c0 .6-.2 1-.7 1.4s-1 .5-1.8.5-1.4-.2-1.9-.6-.7-.9-.7-1.4h1.1c0 .4.2.7.5.9.3.2.6.3 1 .3s.7-.1 1-.2.1-.8.1-1.1zM196.9 90.4c-.2.3-.5.6-.8.8s-.7.3-1.1.3c-.7 0-1.2-.2-1.6-.7s-.6-1.1-.6-2.1V85h1.2v3.8c0 .7.1 1.1.3 1.4s.5.4.9.4.7-.1 1-.2.5-.4.6-.7V85h1.2v6.3h-1l-.1-.9zM202.3 90.5c.4 0 .7-.1 1-.4s.4-.5.4-.9h1c0 .5-.2 1-.7 1.5s-1.1.6-1.8.6c-.9 0-1.6-.3-2.1-.9s-.7-1.4-.7-2.3V88c0-.9.2-1.7.7-2.3s1.2-.9 2.1-.9c.7 0 1.3.2 1.8.7s.7 1 .7 1.6h-1c0-.4-.1-.7-.4-1s-.6-.4-1-.4c-.6 0-1 .2-1.3.7-.3.4-.4 1-.4 1.6v.2c0 .6.1 1.2.4 1.6.2.5.7.7 1.3.7zM208.6 90.5c.4 0 .7-.1 1-.4s.4-.5.4-.9h1c0 .5-.2 1-.7 1.5s-1.1.6-1.8.6c-.9 0-1.6-.3-2.1-.9s-.7-1.4-.7-2.3V88c0-.9.2-1.7.7-2.3s1.2-.9 2.1-.9c.7 0 1.3.2 1.8.7s.7 1 .7 1.6h-1c0-.4-.1-.7-.4-1s-.6-.4-1-.4c-.6 0-1 .2-1.3.7-.3.4-.4 1-.4 1.6v.2c0 .6.1 1.2.4 1.6.3.5.7.7 1.3.7zM215.1 91.5c-.9 0-1.6-.3-2.1-.9s-.8-1.4-.8-2.3V88c0-.9.3-1.7.8-2.3s1.2-.9 1.9-.9c.9 0 1.5.3 1.9.8s.7 1.2.7 2.1v.7h-4.1c0 .6.2 1.1.5 1.5s.7.6 1.2.6c.4 0 .7-.1 1-.2s.5-.3.8-.5l.5.8c-.2.2-.5.4-.9.6-.5.2-.9.3-1.4.3zm-.2-5.7c-.4 0-.7.2-1 .5s-.4.7-.5 1.2h2.9v-.2c0-.5-.1-.8-.4-1.1-.2-.3-.5-.4-1-.4zM222.5 89.6c0-.3-.1-.5-.3-.6s-.6-.3-1.1-.4c-.8-.2-1.3-.4-1.7-.7-.4-.3-.6-.7-.6-1.2s.2-1 .7-1.3c.4-.4 1-.5 1.7-.5s1.3.2 1.8.6.6.8.6 1.4h-1.1c0-.3-.1-.5-.3-.7s-.5-.3-.9-.3-.7.1-.9.3-.3.4-.3.7c0 .2.1.4.3.6s.5.3 1.1.4c.8.2 1.4.4 1.8.7s.6.7.6 1.2c0 .6-.2 1-.7 1.4s-1 .5-1.8.5-1.4-.2-1.9-.6-.7-.9-.7-1.4h1.1c0 .4.2.7.5.9.3.2.6.3 1 .3s.7-.1 1-.2.1-.8.1-1.1zM225.5 91.3v-5.5h-1V85h1v-.8c0-.7.2-1.2.5-1.6s.8-.6 1.5-.6h.4c.1 0 .3.1.4.1l-.1.9h-.6c-.3 0-.6.1-.8.3s-.2.5-.2.9v.8h1.3v.9h-1.3v5.5h-1.1zM233.2 90.4c-.2.3-.5.6-.8.8s-.7.3-1.1.3c-.7 0-1.2-.2-1.6-.7s-.6-1.1-.6-2.1V85h1.2v3.8c0 .7.1 1.1.3 1.4s.5.4.9.4.7-.1 1-.2.5-.4.6-.7V85h1.2v6.3h-1l-.1-.9zM237.3 91.3h-1.2v-9.1h1.2v9.1zM240.3 91.3h-1.2v-9.1h1.2v9.1zM244 89l.2.8 1.6-4.8h1.3l-2.7 7.3c-.2.4-.4.8-.7 1.1s-.7.5-1.2.5h-.4c-.2 0-.3 0-.3-.1l.1-.9h.5c.2 0 .4-.1.6-.3s.3-.5.4-.7l.3-.7-2.4-6.2h1.3l1.4 4zM253.7 90.5c.4 0 .7-.1 1-.4s.4-.5.4-.9h1c0 .5-.2 1-.7 1.5s-1.1.6-1.8.6c-.9 0-1.6-.3-2.1-.9s-.7-1.4-.7-2.3V88c0-.9.2-1.7.7-2.3s1.2-.9 2.1-.9c.7 0 1.3.2 1.8.7s.7 1 .7 1.6h-1c0-.4-.1-.7-.4-1s-.6-.4-1-.4c-.6 0-1 .2-1.3.7-.3.4-.4 1-.4 1.6v.2c0 .6.1 1.2.4 1.6.2.5.6.7 1.3.7zM257.2 88.1c0-.9.3-1.7.8-2.3s1.2-.9 2.1-.9c.9 0 1.6.3 2.1.9s.8 1.4.8 2.3v.1c0 .9-.3 1.7-.8 2.3s-1.2.9-2.1.9-1.6-.3-2.1-.9-.8-1.4-.8-2.3v-.1zm1.1.1c0 .7.1 1.2.4 1.7.3.4.7.7 1.3.7.6 0 1-.2 1.3-.7.3-.4.4-1 .4-1.7v-.1c0-.7-.1-1.2-.4-1.7-.3-.4-.7-.7-1.3-.7-.6 0-1 .2-1.3.7-.3.4-.4 1-.4 1.7v.1zM265.3 85l.1.8c.2-.3.5-.5.8-.7s.7-.2 1.1-.2.8.1 1.1.3.5.5.7.9c.2-.4.5-.6.8-.9s.7-.3 1.1-.3c.6 0 1.2.2 1.5.7s.6 1.1.6 2v3.8h-1.2v-3.8c0-.6-.1-1.1-.3-1.3s-.5-.4-1-.4c-.4 0-.7.1-1 .4s-.4.6-.4 1v4H268v-3.8c0-.6-.1-1-.3-1.3s-.5-.4-1-.4c-.4 0-.6.1-.9.2s-.4.3-.5.6v4.7h-1.2V85h1.2zM280.2 88.4c0 .9-.2 1.7-.7 2.2s-1 .8-1.8.8c-.4 0-.7-.1-1-.2s-.5-.3-.8-.6v3.1h-1.2V85h.9l.2.8c.2-.3.5-.5.8-.7s.7-.2 1.1-.2c.8 0 1.4.3 1.8.9s.7 1.4.7 2.5v.1zm-1.2-.1c0-.7-.1-1.3-.4-1.8-.3-.5-.7-.7-1.3-.7-.3 0-.6.1-.8.2s-.4.4-.6.6v3.1c.1.3.3.5.6.6s.5.2.9.2c.5 0 1-.2 1.2-.6.3-.4.4-.9.4-1.5v-.1zM282.8 91.3h-1.2v-9.1h1.2v9.1zM287.2 91.5c-.9 0-1.6-.3-2.1-.9s-.8-1.4-.8-2.3V88c0-.9.3-1.7.8-2.3s1.2-.9 1.9-.9c.9 0 1.5.3 1.9.8s.7 1.2.7 2.1v.7h-4.1c0 .6.2 1.1.5 1.5s.7.6 1.2.6c.4 0 .7-.1 1-.2s.5-.3.8-.5l.5.8c-.2.2-.5.4-.9.6-.4.2-.8.3-1.4.3zm-.2-5.7c-.4 0-.7.2-1 .5s-.4.7-.5 1.2h2.9v-.2c0-.5-.1-.8-.4-1.1-.1-.3-.5-.4-1-.4zM292.5 83.5V85h1.2v.9h-1.2v3.8c0 .3.1.5.2.6s.3.2.5.2h.2c.1 0 .2 0 .2-.1l.2.8c-.1.1-.2.1-.4.2s-.3.1-.5.1c-.5 0-.8-.1-1.1-.4s-.4-.7-.4-1.3V86h-1v-1h1v-1.5h1.1zM297.7 91.5c-.9 0-1.6-.3-2.1-.9s-.8-1.4-.8-2.3V88c0-.9.3-1.7.8-2.3s1.2-.9 1.9-.9c.9 0 1.5.3 1.9.8s.7 1.2.7 2.1v.7H296c0 .6.2 1.1.5 1.5s.7.6 1.2.6c.4 0 .7-.1 1-.2s.5-.3.8-.5l.5.8c-.2.2-.5.4-.9.6-.4.2-.9.3-1.4.3zm-.2-5.7c-.4 0-.7.2-1 .5s-.4.7-.5 1.2h2.9v-.2c0-.5-.1-.8-.4-1.1-.1-.3-.5-.4-1-.4zM301.2 88.3c0-1 .2-1.8.7-2.5s1-.9 1.8-.9c.4 0 .7.1 1 .2s.5.3.7.6v-3.5h1.2v9.1h-.9l-.1-.8c-.2.3-.5.5-.8.7s-.7.2-1 .2c-.8 0-1.4-.3-1.8-.8s-.7-1.3-.7-2.2v-.1zm1.1.1c0 .6.1 1.2.4 1.5s.7.6 1.2.6c.3 0 .6-.1.9-.2s.4-.4.6-.7v-3c-.1-.3-.3-.5-.6-.6s-.5-.2-.9-.2c-.6 0-1 .2-1.2.7s-.4 1.1-.4 1.8v.1zM311 88.1c0-.9.3-1.7.8-2.3s1.2-.9 2.1-.9c.9 0 1.6.3 2.1.9s.8 1.4.8 2.3v.1c0 .9-.3 1.7-.8 2.3s-1.2.9-2.1.9-1.6-.3-2.1-.9-.8-1.4-.8-2.3v-.1zm1.1.1c0 .7.1 1.2.4 1.7.3.4.7.7 1.3.7.6 0 1-.2 1.3-.7.3-.4.4-1 .4-1.7v-.1c0-.7-.1-1.2-.4-1.7-.3-.4-.7-.7-1.3-.7-.6 0-1 .2-1.3.7-.3.4-.4 1-.4 1.7v.1zM322.1 90.4c-.2.3-.5.6-.8.8s-.7.3-1.1.3c-.7 0-1.2-.2-1.6-.7s-.6-1.1-.6-2.1V85h1.2v3.8c0 .7.1 1.1.3 1.4s.5.4.9.4.7-.1 1-.2.5-.4.6-.7V85h1.2v6.3h-1l-.1-.9zM327.9 86h-.6c-.3 0-.6.1-.8.2s-.4.3-.5.6v4.5h-1.2V85h1l.1.9c.2-.3.4-.6.7-.8s.6-.3.9-.3h.4V86zM337.4 88.4c0 .9-.2 1.7-.7 2.2s-1 .8-1.8.8c-.4 0-.7-.1-1-.2s-.5-.3-.8-.6v3.1H332V85h.9l.2.8c.2-.3.5-.5.8-.7s.7-.2 1.1-.2c.8 0 1.4.3 1.8.9s.7 1.4.7 2.5v.1zm-1.2-.1c0-.7-.1-1.3-.4-1.8-.3-.5-.7-.7-1.3-.7-.3 0-.6.1-.8.2s-.4.4-.6.6v3.1c.1.3.3.5.6.6s.5.2.9.2c.5 0 1-.2 1.2-.6.3-.4.4-.9.4-1.5v-.1zM341.8 86h-.6c-.3 0-.6.1-.8.2s-.4.3-.5.6v4.5h-1.2V85h1l.1.9c.2-.3.4-.6.7-.8s.6-.3.9-.3h.4V86zM342.5 88.1c0-.9.3-1.7.8-2.3s1.2-.9 2.1-.9c.9 0 1.6.3 2.1.9s.8 1.4.8 2.3v.1c0 .9-.3 1.7-.8 2.3s-1.2.9-2.1.9-1.6-.3-2.1-.9-.8-1.4-.8-2.3v-.1zm1.2.1c0 .7.1 1.2.4 1.7.3.4.7.7 1.3.7.6 0 1-.2 1.3-.7.3-.4.4-1 .4-1.7v-.1c0-.7-.1-1.2-.4-1.7-.3-.4-.7-.7-1.3-.7-.6 0-1 .2-1.3.7-.3.4-.4 1-.4 1.7v.1zM350.9 85v6.9c0 .7-.2 1.2-.5 1.5s-.8.5-1.4.5h-.3c-.1 0-.2 0-.3-.1l.1-.9h.5c.3 0 .5-.1.6-.3s.2-.5.2-.8V85h1.1zm0-1.7h-1.2v-1.2h1.2v1.2zM355.3 91.5c-.9 0-1.6-.3-2.1-.9s-.8-1.4-.8-2.3V88c0-.9.3-1.7.8-2.3s1.2-.9 1.9-.9c.9 0 1.5.3 1.9.8s.7 1.2.7 2.1v.7h-4.1c0 .6.2 1.1.5 1.5s.7.6 1.2.6c.4 0 .7-.1 1-.2s.5-.3.8-.5l.5.8c-.2.2-.5.4-.9.6-.4.2-.8.3-1.4.3zm-.1-5.7c-.4 0-.7.2-1 .5s-.4.7-.5 1.2h2.9v-.2c0-.5-.1-.8-.4-1.1-.2-.3-.6-.4-1-.4zM361.6 90.5c.4 0 .7-.1 1-.4s.4-.5.4-.9h1c0 .5-.2 1-.7 1.5s-1.1.6-1.8.6c-.9 0-1.6-.3-2.1-.9s-.7-1.4-.7-2.3V88c0-.9.2-1.7.7-2.3s1.2-.9 2.1-.9c.7 0 1.3.2 1.8.7s.7 1 .7 1.6h-1c0-.4-.1-.7-.4-1s-.6-.4-1-.4c-.6 0-1 .2-1.3.7-.3.4-.4 1-.4 1.6v.2c0 .6.1 1.2.4 1.6.3.5.7.7 1.3.7zM367 83.5V85h1.2v.9H367v3.8c0 .3.1.5.2.6s.3.2.5.2h.2c.1 0 .2 0 .2-.1l.2.8c-.1.1-.2.1-.4.2s-.3.1-.5.1c-.5 0-.8-.1-1.1-.4s-.4-.7-.4-1.3V86h-1v-1h1v-1.5h1.1zM372.3 88.3c0-1 .2-1.8.7-2.5s1-.9 1.8-.9c.4 0 .7.1 1 .2s.5.3.7.6v-3.5h1.2v9.1h-.9l-.1-.8c-.2.3-.5.5-.8.7s-.7.2-1 .2c-.8 0-1.4-.3-1.8-.8s-.7-1.3-.7-2.2v-.1zm1.2.1c0 .6.1 1.2.4 1.5s.7.6 1.2.6c.3 0 .6-.1.9-.2s.4-.4.6-.7v-3c-.1-.3-.3-.5-.6-.6s-.5-.2-.9-.2c-.6 0-1 .2-1.2.7s-.4 1.1-.4 1.8v.1zM382 91.5c-.9 0-1.6-.3-2.1-.9s-.8-1.4-.8-2.3V88c0-.9.3-1.7.8-2.3s1.2-.9 1.9-.9c.9 0 1.5.3 1.9.8s.7 1.2.7 2.1v.7h-4.1c0 .6.2 1.1.5 1.5s.7.6 1.2.6c.4 0 .7-.1 1-.2s.5-.3.8-.5l.5.8c-.2.2-.5.4-.9.6-.4.2-.9.3-1.4.3zm-.2-5.7c-.4 0-.7.2-1 .5s-.4.7-.5 1.2h2.9v-.2c0-.5-.1-.8-.4-1.1-.1-.3-.5-.4-1-.4zM389.4 89.6c0-.3-.1-.5-.3-.6s-.6-.3-1.1-.4c-.8-.2-1.3-.4-1.7-.7-.4-.3-.6-.7-.6-1.2s.2-1 .7-1.3c.4-.4 1-.5 1.7-.5s1.3.2 1.8.6.6.8.6 1.4h-1.1c0-.3-.1-.5-.3-.7s-.5-.3-.9-.3-.7.1-.9.3-.3.4-.3.7c0 .2.1.4.3.6s.5.3 1.1.4c.8.2 1.4.4 1.8.7s.6.7.6 1.2c0 .6-.2 1-.7 1.4s-1 .5-1.8.5-1.4-.2-1.9-.6-.7-.9-.7-1.4h1.1c0 .4.2.7.5.9.3.2.6.3 1 .3s.7-.1 1-.2.1-.8.1-1.1zM397.4 88.4c0 .9-.2 1.7-.7 2.2s-1 .8-1.8.8c-.4 0-.7-.1-1-.2s-.5-.3-.8-.6v3.1H392V85h.9l.2.8c.2-.3.5-.5.8-.7s.7-.2 1.1-.2c.8 0 1.4.3 1.8.9s.7 1.4.7 2.5v.1zm-1.1-.1c0-.7-.1-1.3-.4-1.8-.3-.5-.7-.7-1.3-.7-.3 0-.6.1-.8.2s-.4.4-.6.6v3.1c.1.3.3.5.6.6s.5.2.9.2c.5 0 1-.2 1.2-.6.3-.4.4-.9.4-1.5v-.1zM400.1 83.4h-1.2v-1.2h1.2v1.2zm0 7.9h-1.2V85h1.2v6.3zM403.4 83.5V85h1.2v.9h-1.2v3.8c0 .3.1.5.2.6s.3.2.5.2h.2c.1 0 .2 0 .2-.1l.2.8c-.1.1-.2.1-.4.2s-.3.1-.5.1c-.5 0-.8-.1-1.1-.4s-.4-.7-.4-1.3V86h-1v-1h1v-1.5h1.1zM408.6 91.5c-.9 0-1.6-.3-2.1-.9s-.8-1.4-.8-2.3V88c0-.9.3-1.7.8-2.3s1.2-.9 1.9-.9c.9 0 1.5.3 1.9.8s.7 1.2.7 2.1v.7h-4.1c0 .6.2 1.1.5 1.5s.7.6 1.2.6c.4 0 .7-.1 1-.2s.5-.3.8-.5l.5.8c-.2.2-.5.4-.9.6-.4.2-.8.3-1.4.3zm-.2-5.7c-.4 0-.7.2-1 .5s-.4.7-.4 1.2h2.9v-.2c0-.5-.1-.8-.4-1.1-.2-.3-.6-.4-1.1-.4zM416.8 83.5V85h1.2v.9h-1.2v3.8c0 .3.1.5.2.6s.3.2.5.2h.2c.1 0 .2 0 .2-.1l.2.8c-.1.1-.2.1-.4.2s-.3.1-.5.1c-.5 0-.8-.1-1.1-.4s-.4-.7-.4-1.3V86h-1v-1h1v-1.5h1.1zM420.6 85.8c.2-.3.5-.5.8-.7s.7-.3 1.1-.3c.7 0 1.2.2 1.6.6s.6 1 .6 1.9v4h-1.2v-4c0-.5-.1-.9-.3-1.2s-.6-.4-1-.4c-.3 0-.6.1-.9.2s-.5.4-.6.6v4.7h-1.2v-9.1h1.2v3.7zM428.9 91.5c-.9 0-1.6-.3-2.1-.9s-.8-1.4-.8-2.3V88c0-.9.3-1.7.8-2.3s1.2-.9 1.9-.9c.9 0 1.5.3 1.9.8s.7 1.2.7 2.1v.7h-4.1c0 .6.2 1.1.5 1.5s.7.6 1.2.6c.4 0 .7-.1 1-.2s.5-.3.8-.5l.5.8c-.2.2-.5.4-.9.6-.4.2-.9.3-1.4.3zm-.2-5.7c-.4 0-.7.2-1 .5s-.4.7-.5 1.2h2.9v-.2c0-.5-.1-.8-.4-1.1-.1-.3-.5-.4-1-.4zM437.1 83.5V85h1.2v.9h-1.2v3.8c0 .3.1.5.2.6s.3.2.5.2h.2c.1 0 .2 0 .2-.1l.2.8c-.1.1-.2.1-.4.2s-.3.1-.5.1c-.5 0-.8-.1-1.1-.4s-.4-.7-.4-1.3V86h-1v-1h1v-1.5h1.1zM441 83.4h-1.2v-1.2h1.2v1.2zm0 7.9h-1.2V85h1.2v6.3zM443.8 85l.1.8c.2-.3.5-.5.8-.7s.7-.2 1.1-.2.8.1 1.1.3.5.5.7.9c.2-.4.5-.6.8-.9s.7-.3 1.1-.3c.6 0 1.2.2 1.5.7s.6 1.1.6 2v3.8h-1.2v-3.8c0-.6-.1-1.1-.3-1.3s-.5-.4-1-.4c-.4 0-.7.1-1 .4s-.4.6-.4 1v4h-1.2v-3.8c0-.6-.1-1-.3-1.3s-.5-.4-1-.4c-.4 0-.6.1-.9.2s-.4.3-.5.6v4.7h-1.2V85h1.2zM455.9 91.5c-.9 0-1.6-.3-2.1-.9s-.8-1.4-.8-2.3V88c0-.9.3-1.7.8-2.3s1.2-.9 1.9-.9c.9 0 1.5.3 1.9.8s.7 1.2.7 2.1v.7h-4.1c0 .6.2 1.1.5 1.5s.7.6 1.2.6c.4 0 .7-.1 1-.2s.5-.3.8-.5l.5.8c-.2.2-.5.4-.9.6-.4.2-.9.3-1.4.3zm-.2-5.7c-.4 0-.7.2-1 .5s-.4.7-.5 1.2h2.9v-.2c0-.5-.1-.8-.4-1.1-.1-.3-.5-.4-1-.4zM465.2 90.5c.4 0 .7-.1 1-.4s.4-.5.4-.9h1c0 .5-.2 1-.7 1.5s-1.1.6-1.8.6c-.9 0-1.6-.3-2.1-.9s-.7-1.4-.7-2.3V88c0-.9.2-1.7.7-2.3s1.2-.9 2.1-.9c.7 0 1.3.2 1.8.7s.7 1 .7 1.6h-1c0-.4-.1-.7-.4-1s-.6-.4-1-.4c-.6 0-1 .2-1.3.7-.3.4-.4 1-.4 1.6v.2c0 .6.1 1.2.4 1.6.2.5.7.7 1.3.7zM468.7 88.1c0-.9.3-1.7.8-2.3s1.2-.9 2.1-.9c.9 0 1.6.3 2.1.9s.8 1.4.8 2.3v.1c0 .9-.3 1.7-.8 2.3s-1.2.9-2.1.9-1.6-.3-2.1-.9-.8-1.4-.8-2.3v-.1zm1.2.1c0 .7.1 1.2.4 1.7.3.4.7.7 1.3.7.6 0 1-.2 1.3-.7.3-.4.4-1 .4-1.7v-.1c0-.7-.1-1.2-.4-1.7-.3-.4-.7-.7-1.3-.7-.6 0-1 .2-1.3.7-.3.4-.4 1-.4 1.7v.1zM476.8 85l.1.9c.2-.3.5-.6.8-.8s.7-.3 1.1-.3c.7 0 1.2.2 1.6.6s.6 1 .6 1.9v4h-1.2v-4c0-.6-.1-1-.3-1.2s-.6-.4-1-.4c-.3 0-.6.1-.9.2s-.5.4-.6.7v4.6h-1.2V85h1zM486.3 89.6c0-.3-.1-.5-.3-.6s-.6-.3-1.1-.4c-.8-.2-1.3-.4-1.7-.7-.4-.3-.6-.7-.6-1.2s.2-1 .7-1.3c.4-.4 1-.5 1.7-.5s1.3.2 1.8.6.6.8.6 1.4h-1.1c0-.3-.1-.5-.3-.7s-.5-.3-.9-.3-.7.1-.9.3-.3.4-.3.7c0 .2.1.4.3.6s.5.3 1.1.4c.8.2 1.4.4 1.8.7s.6.7.6 1.2c0 .6-.2 1-.7 1.4s-1 .5-1.8.5-1.4-.2-1.9-.6-.7-.9-.7-1.4h1.1c0 .4.2.7.5.9.3.2.6.3 1 .3s.7-.1 1-.2.1-.8.1-1.1zM490.4 83.5V85h1.2v.9h-1.2v3.8c0 .3.1.5.2.6s.3.2.5.2h.2c.1 0 .2 0 .2-.1l.2.8c-.1.1-.2.1-.4.2s-.3.1-.5.1c-.5 0-.8-.1-1.1-.4s-.4-.7-.4-1.3V86h-1v-1h1v-1.5h1.1zM496 86h-.6c-.3 0-.6.1-.8.2s-.4.3-.5.6v4.5H493V85h1l.1.9c.2-.3.4-.6.7-.8s.6-.3.9-.3h.4L496 86zM501.1 91.3c0-.2-.1-.4-.1-.5v-.4c-.2.3-.5.6-.8.8s-.7.3-1.1.3c-.7 0-1.2-.2-1.5-.5s-.5-.8-.5-1.4c0-.6.2-1.1.7-1.4s1.2-.5 2-.5h1.3V87c0-.4-.1-.7-.3-.9s-.5-.3-1-.3c-.4 0-.7.1-.9.3s-.3.4-.3.7h-1.1c0-.5.2-.9.7-1.3s1.1-.6 1.8-.6 1.3.2 1.7.5.7.9.7 1.6v3.8c0 .3.1.4.1.6h-1.4zm-2-.8c.4 0 .8-.1 1.1-.3s.6-.5.7-.7v-1h-1.3c-.5 0-.8.1-1.1.4s-.4.5-.4.8c0 .3.1.5.3.7.1 0 .4.1.7.1zM505 83.4h-1.2v-1.2h1.2v1.2zm0 7.9h-1.2V85h1.2v6.3zM507.8 85l.1.9c.2-.3.5-.6.8-.8s.7-.3 1.1-.3c.7 0 1.2.2 1.6.6s.6 1 .6 1.9v4h-1.2v-4c0-.6-.1-1-.3-1.2s-.6-.4-1-.4c-.3 0-.6.1-.9.2s-.5.4-.6.7v4.6h-1.2V85h1zM515.1 83.5V85h1.2v.9h-1.2v3.8c0 .3.1.5.2.6s.3.2.5.2h.2c.1 0 .2 0 .2-.1l.2.8c-.1.1-.2.1-.4.2s-.3.1-.5.1c-.5 0-.8-.1-1.1-.4s-.4-.7-.4-1.3V86h-1v-1h1v-1.5h1.1zM521.4 89.6c0-.3-.1-.5-.3-.6s-.6-.3-1.1-.4c-.8-.2-1.3-.4-1.7-.7-.4-.3-.6-.7-.6-1.2s.2-1 .7-1.3c.4-.4 1-.5 1.7-.5s1.3.2 1.8.6.6.8.6 1.4h-1.1c0-.3-.1-.5-.3-.7s-.5-.3-.9-.3-.7.1-.9.3-.3.4-.3.7c0 .2.1.4.3.6s.5.3 1.1.4c.8.2 1.4.4 1.8.7s.6.7.6 1.2c0 .6-.2 1-.7 1.4s-1 .5-1.8.5-1.4-.2-1.9-.6-.7-.9-.7-1.4h1.1c0 .4.2.7.5.9.3.2.6.3 1 .3s.7-.1 1-.2.1-.8.1-1.1zM528.6 89l.1.8.3-.8 1.3-4h.9l1.3 4 .2.9.2-.9 1-4h1.1l-1.8 6.3h-.9l-1.2-3.9-.3-1.1-.3 1.1-1.2 3.9h-.9l-1.8-6.3h1.1l.9 4zM538.7 91.5c-.9 0-1.6-.3-2.1-.9s-.8-1.4-.8-2.3V88c0-.9.3-1.7.8-2.3s1.2-.9 1.9-.9c.9 0 1.5.3 1.9.8s.7 1.2.7 2.1v.7H537c0 .6.2 1.1.5 1.5s.7.6 1.2.6c.4 0 .7-.1 1-.2s.5-.3.8-.5l.5.8c-.2.2-.5.4-.9.6-.4.2-.9.3-1.4.3zm-.2-5.7c-.4 0-.7.2-1 .5s-.4.7-.5 1.2h2.9v-.2c0-.5-.1-.8-.4-1.1-.1-.3-.5-.4-1-.4zM546.6 85.8c.2-.3.5-.5.8-.7s.7-.3 1.1-.3c.7 0 1.2.2 1.6.6s.6 1 .6 1.9v4h-1.2v-4c0-.5-.1-.9-.3-1.2s-.6-.4-1-.4c-.3 0-.6.1-.9.2s-.5.4-.6.6v4.7h-1.2v-9.1h1.2v3.7zM556.1 91.3c0-.2-.1-.4-.1-.5v-.4c-.2.3-.5.6-.8.8s-.7.3-1.1.3c-.7 0-1.2-.2-1.5-.5s-.5-.8-.5-1.4c0-.6.2-1.1.7-1.4s1.2-.5 2-.5h1.3V87c0-.4-.1-.7-.3-.9s-.5-.3-1-.3c-.4 0-.7.1-.9.3s-.3.4-.3.7h-1.1c0-.5.2-.9.7-1.3s1.1-.6 1.8-.6 1.3.2 1.7.5.7.9.7 1.6v3.8c0 .3.1.4.1.6h-1.4zm-1.9-.8c.4 0 .8-.1 1.1-.3s.6-.5.7-.7v-1h-1.3c-.5 0-.8.1-1.1.4s-.4.5-.4.8c0 .3.1.5.3.7.1 0 .4.1.7.1zM558.6 88.3c0-1 .2-1.8.7-2.5s1-.9 1.8-.9c.4 0 .7.1 1 .2s.5.3.7.6v-3.5h1.2v9.1h-1l-.1-.8c-.2.3-.5.5-.8.7s-.7.2-1 .2c-.8 0-1.4-.3-1.8-.8s-.7-1.3-.7-2.2v-.1zm1.1.1c0 .6.1 1.2.4 1.5s.7.6 1.2.6c.3 0 .6-.1.9-.2s.4-.4.6-.7v-3c-.1-.3-.3-.5-.6-.6s-.5-.2-.9-.2c-.6 0-1 .2-1.2.7s-.4 1.1-.4 1.8v.1zM566.9 91.3h-1.2v-1.2h1.2v1.2z"/></g><g><path d="M97.2 107.3H96v-3.8h-4.1v3.8h-1.2v-8.5h1.2v3.9H96v-3.9h1.2v8.5zM100.3 99.4h-1.2v-1.2h1.2v1.2zm0 7.9h-1.2V101h1.2v6.3zM101.8 104.3c0-1 .2-1.8.7-2.5s1.1-.9 1.8-.9c.4 0 .8.1 1.1.2s.6.4.8.7l.1-.8h.9v6.4c0 .8-.2 1.4-.7 1.9s-1.2.7-2 .7c-.3 0-.6 0-1-.1s-.7-.2-.9-.3l.3-.9c.2.1.5.2.8.3s.6.1.9.1c.6 0 1-.1 1.2-.4s.4-.6.4-1.2v-.7c-.2.3-.5.5-.7.6s-.6.2-1 .2c-.8 0-1.4-.3-1.8-.8s-.7-1.3-.7-2.2v-.3zm1.2.1c0 .6.1 1.1.4 1.5s.7.6 1.2.6c.3 0 .6-.1.9-.2s.4-.4.6-.7v-2.9c-.1-.3-.3-.5-.6-.6s-.5-.2-.9-.2c-.6 0-1 .2-1.2.7s-.4 1.1-.4 1.8zM110.1 101.8c.2-.3.5-.5.8-.7s.7-.3 1.1-.3c.7 0 1.2.2 1.6.6s.6 1 .6 1.9v4H113v-4c0-.5-.1-.9-.3-1.2s-.6-.4-1-.4c-.3 0-.6.1-.9.2s-.5.4-.6.6v4.7H109v-9.1h1.2v3.7zM117 107.3h-1.2v-9.1h1.2v9.1zM120.7 105l.2.8 1.6-4.8h1.3l-2.7 7.3c-.2.4-.4.8-.7 1.1s-.7.5-1.2.5h-.4c-.2 0-.3 0-.3-.1l.1-.9h.5c.2 0 .4-.1.6-.3s.3-.5.4-.7l.3-.7-2.4-6.2h1.3l1.4 4zM130.8 102h-.6c-.3 0-.6.1-.8.2s-.4.3-.5.6v4.5h-1.2V101h1l.1.9c.2-.3.4-.6.7-.8s.6-.3.9-.3h.4v1.2zM134.4 107.5c-.9 0-1.6-.3-2.1-.9s-.8-1.4-.8-2.3v-.3c0-.9.3-1.7.8-2.3s1.2-.9 1.9-.9c.9 0 1.5.3 1.9.8s.7 1.2.7 2.1v.7h-4.1c0 .6.2 1.1.5 1.5s.7.6 1.2.6c.4 0 .7-.1 1-.2s.5-.3.8-.5l.5.8c-.2.2-.5.4-.9.6-.4.2-.9.3-1.4.3zm-.2-5.7c-.4 0-.7.2-1 .5s-.4.7-.5 1.2h2.9v-.2c0-.5-.1-.8-.4-1.1-.1-.3-.5-.4-1-.4zM140.7 106.5c.4 0 .7-.1 1-.4s.4-.5.4-.9h1c0 .5-.2 1-.7 1.5s-1.1.6-1.8.6c-.9 0-1.6-.3-2.1-.9s-.7-1.4-.7-2.3v-.1c0-.9.2-1.7.7-2.3s1.2-.9 2.1-.9c.7 0 1.3.2 1.8.7s.7 1 .7 1.6h-1c0-.4-.1-.7-.4-1s-.6-.4-1-.4c-.6 0-1 .2-1.3.7-.3.4-.4 1-.4 1.6v.2c0 .6.1 1.2.4 1.6.3.5.7.7 1.3.7zM144.2 104.1c0-.9.3-1.7.8-2.3s1.2-.9 2.1-.9c.9 0 1.6.3 2.1.9s.8 1.4.8 2.3v.1c0 .9-.3 1.7-.8 2.3s-1.2.9-2.1.9-1.6-.3-2.1-.9-.8-1.4-.8-2.3v-.1zm1.2.1c0 .7.1 1.2.4 1.7.3.4.7.7 1.3.7.6 0 1-.2 1.3-.7.3-.4.4-1 .4-1.7v-.1c0-.7-.1-1.2-.4-1.7-.3-.4-.7-.7-1.3-.7-.6 0-1 .2-1.3.7-.3.4-.4 1-.4 1.7v.1zM152.3 101l.1.8c.2-.3.5-.5.8-.7s.7-.2 1.1-.2.8.1 1.1.3.5.5.7.9c.2-.4.5-.6.8-.9s.7-.3 1.1-.3c.6 0 1.2.2 1.5.7s.6 1.1.6 2v3.8H159v-3.8c0-.6-.1-1.1-.3-1.3s-.5-.4-1-.4c-.4 0-.7.1-1 .4s-.4.6-.4 1v4h-1.2v-3.8c0-.6-.1-1-.3-1.3s-.5-.4-1-.4c-.4 0-.6.1-.9.2s-.4.3-.5.6v4.7h-1.2V101h1.1zM162.8 101l.1.8c.2-.3.5-.5.8-.7s.7-.2 1.1-.2.8.1 1.1.3.5.5.7.9c.2-.4.5-.6.8-.9s.7-.3 1.1-.3c.6 0 1.2.2 1.5.7s.6 1.1.6 2v3.8h-1.2v-3.8c0-.6-.1-1.1-.3-1.3s-.5-.4-1-.4c-.4 0-.7.1-1 .4s-.4.6-.4 1v4h-1.2v-3.8c0-.6-.1-1-.3-1.3s-.5-.4-1-.4c-.4 0-.6.1-.9.2s-.4.3-.5.6v4.7h-1.2V101h1.2zM174.9 107.5c-.9 0-1.6-.3-2.1-.9s-.8-1.4-.8-2.3v-.3c0-.9.3-1.7.8-2.3s1.2-.9 1.9-.9c.9 0 1.5.3 1.9.8s.7 1.2.7 2.1v.7h-4.1c0 .6.2 1.1.5 1.5s.7.6 1.2.6c.4 0 .7-.1 1-.2s.5-.3.8-.5l.5.8c-.2.2-.5.4-.9.6-.4.2-.9.3-1.4.3zm-.2-5.7c-.4 0-.7.2-1 .5s-.4.7-.5 1.2h2.9v-.2c0-.5-.1-.8-.4-1.1-.1-.3-.5-.4-1-.4zM179.7 101l.1.9c.2-.3.5-.6.8-.8s.7-.3 1.1-.3c.7 0 1.2.2 1.6.6s.6 1 .6 1.9v4h-1.2v-4c0-.6-.1-1-.3-1.2s-.6-.4-1-.4c-.3 0-.6.1-.9.2s-.5.4-.6.7v4.6h-1.2V101h1zM185.2 104.3c0-1 .2-1.8.7-2.5s1-.9 1.8-.9c.4 0 .7.1 1 .2s.5.3.7.6v-3.5h1.2v9.1h-.9l-.1-.8c-.2.3-.5.5-.8.7s-.7.2-1 .2c-.8 0-1.4-.3-1.8-.8s-.7-1.3-.7-2.2v-.1zm1.1.1c0 .6.1 1.2.4 1.5s.7.6 1.2.6c.3 0 .6-.1.9-.2s.4-.4.6-.7v-3c-.1-.3-.3-.5-.6-.6s-.5-.2-.9-.2c-.6 0-1 .2-1.2.7s-.4 1.1-.4 1.8v.1zM198.9 98.8h1.2v6.2c0 .8-.2 1.4-.7 1.8s-1.1.7-1.9.7c-.8 0-1.5-.2-2-.6s-.7-1-.7-1.8h1.1c0 .5.1.9.4 1.2s.6.4 1.1.4c.4 0 .8-.1 1-.4.3-.3.4-.7.4-1.2v-6.3zM205.8 107.3c0-.2-.1-.4-.1-.5v-.4c-.2.3-.5.6-.8.8s-.7.3-1.1.3c-.7 0-1.2-.2-1.5-.5s-.5-.8-.5-1.4c0-.6.2-1.1.7-1.4s1.2-.5 2-.5h1.3v-.7c0-.4-.1-.7-.3-.9s-.5-.3-1-.3c-.4 0-.7.1-.9.3s-.3.4-.3.7H202c0-.5.2-.9.7-1.3s1.1-.6 1.8-.6 1.3.2 1.7.5.7.9.7 1.6v3.8c0 .3.1.4.1.6h-1.2zm-1.9-.8c.4 0 .8-.1 1.1-.3s.6-.5.7-.7v-1h-1.3c-.5 0-.8.1-1.1.4s-.4.5-.4.8c0 .3.1.5.3.7.1 0 .3.1.7.1zM211.5 102h-.6c-.3 0-.6.1-.8.2s-.4.3-.5.6v4.5h-1.2V101h1l.1.9c.2-.3.4-.6.7-.8s.6-.3.9-.3h.4v1.2zM212.2 104.1c0-.9.3-1.7.8-2.3s1.2-.9 2.1-.9c.9 0 1.6.3 2.1.9s.8 1.4.8 2.3v.1c0 .9-.3 1.7-.8 2.3s-1.2.9-2.1.9-1.6-.3-2.1-.9-.8-1.4-.8-2.3v-.1zm1.2.1c0 .7.1 1.2.4 1.7.3.4.7.7 1.3.7.6 0 1-.2 1.3-.7.3-.4.4-1 .4-1.7v-.1c0-.7-.1-1.2-.4-1.7-.3-.4-.7-.7-1.3-.7-.6 0-1 .2-1.3.7-.3.4-.4 1-.4 1.7v.1zM220.3 101l.1.9c.2-.3.5-.6.8-.8s.7-.3 1.1-.3c.7 0 1.2.2 1.6.6s.6 1 .6 1.9v4h-1.2v-4c0-.6-.1-1-.3-1.2s-.6-.4-1-.4c-.3 0-.6.1-.9.2s-.5.4-.6.7v4.6h-1.2V101h1zM229.6 107.3v-5.5h-1v-.8h1v-.8c0-.7.2-1.2.5-1.6s.8-.6 1.5-.6h.4c.1 0 .3.1.4.1l-.1.9h-.6c-.3 0-.6.1-.8.3s-.2.5-.2.9v.8h1.3v.9h-1.3v5.5h-1.1zM233 104.1c0-.9.3-1.7.8-2.3s1.2-.9 2.1-.9c.9 0 1.6.3 2.1.9s.8 1.4.8 2.3v.1c0 .9-.3 1.7-.8 2.3s-1.2.9-2.1.9-1.6-.3-2.1-.9-.8-1.4-.8-2.3v-.1zm1.1.1c0 .7.1 1.2.4 1.7.3.4.7.7 1.3.7.6 0 1-.2 1.3-.7.3-.4.4-1 .4-1.7v-.1c0-.7-.1-1.2-.4-1.7-.3-.4-.7-.7-1.3-.7-.6 0-1 .2-1.3.7-.3.4-.4 1-.4 1.7v.1zM243.1 102h-.6c-.3 0-.6.1-.8.2s-.4.3-.5.6v4.5H240V101h1l.1.9c.2-.3.4-.6.7-.8s.6-.3.9-.3h.4v1.2zM251 107.3c0-.2-.1-.4-.1-.5v-.4c-.2.3-.5.6-.8.8s-.7.3-1.1.3c-.7 0-1.2-.2-1.5-.5s-.5-.8-.5-1.4c0-.6.2-1.1.7-1.4s1.2-.5 2-.5h1.3v-.7c0-.4-.1-.7-.3-.9s-.5-.3-1-.3c-.4 0-.7.1-.9.3s-.3.4-.3.7h-1.1c0-.5.2-.9.7-1.3s1.1-.6 1.8-.6 1.3.2 1.7.5.7.9.7 1.6v3.8c0 .3.1.4.1.6H251zm-1.9-.8c.4 0 .8-.1 1.1-.3s.6-.5.7-.7v-1h-1.3c-.5 0-.8.1-1.1.4s-.4.5-.4.8c0 .3.1.5.3.7.1 0 .4.1.7.1zM254.8 101l.1.9c.2-.3.5-.6.8-.8s.7-.3 1.1-.3c.7 0 1.2.2 1.6.6s.6 1 .6 1.9v4h-1.2v-4c0-.6-.1-1-.3-1.2s-.6-.4-1-.4c-.3 0-.6.1-.9.2s-.5.4-.6.7v4.6h-1.2V101h1zM262.5 105l.2.8 1.6-4.8h1.3l-2.7 7.3c-.2.4-.4.8-.7 1.1s-.7.5-1.2.5h-.4c-.2 0-.3 0-.3-.1l.1-.9h.5c.2 0 .4-.1.6-.3s.3-.5.4-.7l.3-.7-2.4-6.2h1.3l1.4 4zM266.2 104.1c0-.9.3-1.7.8-2.3s1.2-.9 2.1-.9c.9 0 1.6.3 2.1.9s.8 1.4.8 2.3v.1c0 .9-.3 1.7-.8 2.3s-1.2.9-2.1.9-1.6-.3-2.1-.9-.8-1.4-.8-2.3v-.1zm1.2.1c0 .7.1 1.2.4 1.7.3.4.7.7 1.3.7.6 0 1-.2 1.3-.7.3-.4.4-1 .4-1.7v-.1c0-.7-.1-1.2-.4-1.7-.3-.4-.7-.7-1.3-.7-.6 0-1 .2-1.3.7-.3.4-.4 1-.4 1.7v.1zM274.4 101l.1.9c.2-.3.5-.6.8-.8s.7-.3 1.1-.3c.7 0 1.2.2 1.6.6s.6 1 .6 1.9v4h-1.2v-4c0-.6-.1-1-.3-1.2s-.6-.4-1-.4c-.3 0-.6.1-.9.2s-.5.4-.6.7v4.6h-1.2V101h1zM282.8 107.5c-.9 0-1.6-.3-2.1-.9s-.8-1.4-.8-2.3v-.3c0-.9.3-1.7.8-2.3s1.2-.9 1.9-.9c.9 0 1.5.3 1.9.8s.7 1.2.7 2.1v.7h-4.1c0 .6.2 1.1.5 1.5s.7.6 1.2.6c.4 0 .7-.1 1-.2s.5-.3.8-.5l.5.8c-.2.2-.5.4-.9.6-.4.2-.9.3-1.4.3zm-.2-5.7c-.4 0-.7.2-1 .5s-.4.7-.5 1.2h2.9v-.2c0-.5-.1-.8-.4-1.1-.2-.3-.5-.4-1-.4zM290.5 101l.1.9c.2-.3.5-.6.8-.8s.7-.3 1.1-.3c.7 0 1.2.2 1.6.6s.6 1 .6 1.9v4h-1.2v-4c0-.6-.1-1-.3-1.2s-.6-.4-1-.4c-.3 0-.6.1-.9.2s-.5.4-.6.7v4.6h-1.2V101h1zM298.9 107.5c-.9 0-1.6-.3-2.1-.9s-.8-1.4-.8-2.3v-.3c0-.9.3-1.7.8-2.3s1.2-.9 1.9-.9c.9 0 1.5.3 1.9.8s.7 1.2.7 2.1v.7h-4.1c0 .6.2 1.1.5 1.5s.7.6 1.2.6c.4 0 .7-.1 1-.2s.5-.3.8-.5l.5.8c-.2.2-.5.4-.9.6-.4.2-.8.3-1.4.3zm-.1-5.7c-.4 0-.7.2-1 .5s-.4.7-.5 1.2h2.9v-.2c0-.5-.1-.8-.4-1.1-.2-.3-.6-.4-1-.4zM305.3 107.5c-.9 0-1.6-.3-2.1-.9s-.8-1.4-.8-2.3v-.3c0-.9.3-1.7.8-2.3s1.2-.9 1.9-.9c.9 0 1.5.3 1.9.8s.7 1.2.7 2.1v.7h-4.1c0 .6.2 1.1.5 1.5s.7.6 1.2.6c.4 0 .7-.1 1-.2s.5-.3.8-.5l.5.8c-.2.2-.5.4-.9.6-.4.2-.9.3-1.4.3zm-.2-5.7c-.4 0-.7.2-1 .5s-.4.7-.5 1.2h2.9v-.2c0-.5-.1-.8-.4-1.1-.2-.3-.5-.4-1-.4zM308.7 104.3c0-1 .2-1.8.7-2.5s1-.9 1.8-.9c.4 0 .7.1 1 .2s.5.3.7.6v-3.5h1.2v9.1h-.9l-.1-.8c-.2.3-.5.5-.8.7s-.7.2-1 .2c-.8 0-1.4-.3-1.8-.8s-.7-1.3-.7-2.2v-.1zm1.2.1c0 .6.1 1.2.4 1.5s.7.6 1.2.6c.3 0 .6-.1.9-.2s.4-.4.6-.7v-3c-.1-.3-.3-.5-.6-.6s-.5-.2-.9-.2c-.6 0-1 .2-1.2.7s-.4 1.1-.4 1.8v.1zM317.1 99.4h-1.2v-1.2h1.2v1.2zm0 7.9h-1.2V101h1.2v6.3zM319.9 101l.1.9c.2-.3.5-.6.8-.8s.7-.3 1.1-.3c.7 0 1.2.2 1.6.6s.6 1 .6 1.9v4h-1.2v-4c0-.6-.1-1-.3-1.2s-.6-.4-1-.4c-.3 0-.6.1-.9.2s-.5.4-.6.7v4.6h-1.2V101h1zM325.4 104.3c0-1 .2-1.8.7-2.5s1.1-.9 1.8-.9c.4 0 .8.1 1.1.2s.6.4.8.7l.1-.8h.9v6.4c0 .8-.2 1.4-.7 1.9s-1.2.7-2 .7c-.3 0-.6 0-1-.1s-.7-.2-.9-.3l.3-.9c.2.1.5.2.8.3s.6.1.9.1c.6 0 1-.1 1.2-.4s.4-.6.4-1.2v-.7c-.2.3-.5.5-.7.6s-.6.2-1 .2c-.8 0-1.4-.3-1.8-.8s-.7-1.3-.7-2.2v-.3zm1.2.1c0 .6.1 1.1.4 1.5s.7.6 1.2.6c.3 0 .6-.1.9-.2s.4-.4.6-.7v-2.9c-.1-.3-.3-.5-.6-.6s-.5-.2-.9-.2c-.6 0-1 .2-1.2.7s-.4 1.1-.4 1.8zM336.5 101l.1.8c.2-.3.5-.5.8-.7s.7-.2 1.1-.2.8.1 1.1.3.5.5.7.9c.2-.4.5-.6.8-.9s.7-.3 1.1-.3c.6 0 1.2.2 1.5.7s.6 1.1.6 2v3.8h-1.2v-3.8c0-.6-.1-1.1-.3-1.3s-.5-.4-1-.4c-.4 0-.7.1-1 .4s-.4.6-.4 1v4h-1.2v-3.8c0-.6-.1-1-.3-1.3s-.5-.4-1-.4c-.4 0-.6.1-.9.2s-.4.3-.5.6v4.7h-1.2V101h1.2zM345.7 104.1c0-.9.3-1.7.8-2.3s1.2-.9 2.1-.9c.9 0 1.6.3 2.1.9s.8 1.4.8 2.3v.1c0 .9-.3 1.7-.8 2.3s-1.2.9-2.1.9-1.6-.3-2.1-.9-.8-1.4-.8-2.3v-.1zm1.1.1c0 .7.1 1.2.4 1.7.3.4.7.7 1.3.7.6 0 1-.2 1.3-.7.3-.4.4-1 .4-1.7v-.1c0-.7-.1-1.2-.4-1.7-.3-.4-.7-.7-1.3-.7-.6 0-1 .2-1.3.7-.3.4-.4 1-.4 1.7v.1zM354.3 99.5v1.5h1.2v.9h-1.2v3.8c0 .3.1.5.2.6s.3.2.5.2h.2c.1 0 .2 0 .2-.1l.2.8c-.1.1-.2.1-.4.2s-.3.1-.5.1c-.5 0-.8-.1-1.1-.4s-.4-.7-.4-1.3V102h-1v-1h1v-1.5h1.1zM358.2 99.4H357v-1.2h1.2v1.2zm0 7.9H357V101h1.2v6.3zM359.7 104.1c0-.9.3-1.7.8-2.3s1.2-.9 2.1-.9c.9 0 1.6.3 2.1.9s.8 1.4.8 2.3v.1c0 .9-.3 1.7-.8 2.3s-1.2.9-2.1.9-1.6-.3-2.1-.9-.8-1.4-.8-2.3v-.1zm1.1.1c0 .7.1 1.2.4 1.7.3.4.7.7 1.3.7.6 0 1-.2 1.3-.7.3-.4.4-1 .4-1.7v-.1c0-.7-.1-1.2-.4-1.7-.3-.4-.7-.7-1.3-.7-.6 0-1 .2-1.3.7-.3.4-.4 1-.4 1.7v.1zM367.8 101l.1.9c.2-.3.5-.6.8-.8s.7-.3 1.1-.3c.7 0 1.2.2 1.6.6s.6 1 .6 1.9v4h-1.2v-4c0-.6-.1-1-.3-1.2s-.6-.4-1-.4c-.3 0-.6.1-.9.2s-.5.4-.6.7v4.6h-1.2V101h1zM376.3 104.3c0-1 .2-1.8.7-2.5s1.1-.9 1.8-.9c.4 0 .8.1 1.1.2s.6.4.8.7l.1-.8h.9v6.4c0 .8-.2 1.4-.7 1.9s-1.2.7-2 .7c-.3 0-.6 0-1-.1s-.7-.2-.9-.3l.3-.9c.2.1.5.2.8.3s.6.1.9.1c.6 0 1-.1 1.2-.4s.4-.6.4-1.2v-.7c-.2.3-.5.5-.7.6s-.6.2-1 .2c-.8 0-1.4-.3-1.8-.8s-.7-1.3-.7-2.2v-.3zm1.2.1c0 .6.1 1.1.4 1.5s.7.6 1.2.6c.3 0 .6-.1.9-.2s.4-.4.6-.7v-2.9c-.1-.3-.3-.5-.6-.6s-.5-.2-.9-.2c-.6 0-1 .2-1.2.7s-.4 1.1-.4 1.8zM386.4 102h-.6c-.3 0-.6.1-.8.2s-.4.3-.5.6v4.5h-1.2V101h1l.1.9c.2-.3.4-.6.7-.8s.6-.3.9-.3h.4v1.2zM391.4 107.3c0-.2-.1-.4-.1-.5v-.4c-.2.3-.5.6-.8.8s-.7.3-1.1.3c-.7 0-1.2-.2-1.5-.5s-.5-.8-.5-1.4c0-.6.2-1.1.7-1.4s1.2-.5 2-.5h1.3v-.7c0-.4-.1-.7-.3-.9s-.5-.3-1-.3c-.4 0-.7.1-.9.3s-.3.4-.3.7h-1.1c0-.5.2-.9.7-1.3s1.1-.6 1.8-.6 1.3.2 1.7.5.7.9.7 1.6v3.8c0 .3.1.4.1.6h-1.4zm-1.9-.8c.4 0 .8-.1 1.1-.3s.6-.5.7-.7v-1H390c-.5 0-.8.1-1.1.4s-.4.5-.4.8c0 .3.1.5.3.7.1 0 .3.1.7.1zM399.5 104.4c0 .9-.2 1.7-.7 2.2s-1 .8-1.8.8c-.4 0-.7-.1-1-.2s-.5-.3-.8-.6v3.1H394V101h.9l.2.8c.2-.3.5-.5.8-.7s.7-.2 1.1-.2c.8 0 1.4.3 1.8.9s.7 1.4.7 2.5v.1zm-1.2-.1c0-.7-.1-1.3-.4-1.8-.3-.5-.7-.7-1.3-.7-.3 0-.6.1-.8.2s-.4.4-.6.6v3.1c.1.3.3.5.6.6s.5.2.9.2c.5 0 1-.2 1.2-.6.3-.4.4-.9.4-1.5v-.1zM402.1 101.8c.2-.3.5-.5.8-.7s.7-.3 1.1-.3c.7 0 1.2.2 1.6.6s.6 1 .6 1.9v4H405v-4c0-.5-.1-.9-.3-1.2s-.6-.4-1-.4c-.3 0-.6.1-.9.2s-.5.4-.6.6v4.7H401v-9.1h1.2v3.7zM409 99.4h-1.2v-1.2h1.2v1.2zm0 7.9h-1.2V101h1.2v6.3zM413.3 106.5c.4 0 .7-.1 1-.4s.4-.5.4-.9h1c0 .5-.2 1-.7 1.5s-1.1.6-1.8.6c-.9 0-1.6-.3-2.1-.9s-.7-1.4-.7-2.3v-.1c0-.9.2-1.7.7-2.3s1.2-.9 2.1-.9c.7 0 1.3.2 1.8.7s.7 1 .7 1.6h-1c0-.4-.1-.7-.4-1s-.6-.4-1-.4c-.6 0-1 .2-1.3.7-.3.4-.4 1-.4 1.6v.2c0 .6.1 1.2.4 1.6.3.5.7.7 1.3.7zM420.8 105.6c0-.3-.1-.5-.3-.6s-.6-.3-1.1-.4c-.8-.2-1.3-.4-1.7-.7-.4-.3-.6-.7-.6-1.2s.2-1 .7-1.3c.4-.4 1-.5 1.7-.5s1.3.2 1.8.6.6.8.6 1.4h-1.1c0-.3-.1-.5-.3-.7s-.5-.3-.9-.3-.7.1-.9.3-.3.4-.3.7c0 .2.1.4.3.6s.5.3 1.1.4c.8.2 1.4.4 1.8.7s.6.7.6 1.2c0 .6-.2 1-.7 1.4s-1 .5-1.8.5-1.4-.2-1.9-.6-.7-.9-.7-1.4h1.1c0 .4.2.7.5.9.3.2.6.3 1 .3s.7-.1 1-.2.1-.8.1-1.1zM428 105l.1.8.2-.8 1.3-4h.9l1.3 4 .2.9.2-.9 1-4h1.1l-1.8 6.3h-.9l-1.2-3.9-.3-1.1-.3 1.1-1.2 3.9h-.9l-1.8-6.3h1.1l1 4zM435.2 104.1c0-.9.3-1.7.8-2.3s1.2-.9 2.1-.9c.9 0 1.6.3 2.1.9s.8 1.4.8 2.3v.1c0 .9-.3 1.7-.8 2.3s-1.2.9-2.1.9-1.6-.3-2.1-.9-.8-1.4-.8-2.3v-.1zm1.2.1c0 .7.1 1.2.4 1.7.3.4.7.7 1.3.7.6 0 1-.2 1.3-.7.3-.4.4-1 .4-1.7v-.1c0-.7-.1-1.2-.4-1.7-.3-.4-.7-.7-1.3-.7-.6 0-1 .2-1.3.7-.3.4-.4 1-.4 1.7v.1zM445.3 102h-.6c-.3 0-.6.1-.8.2s-.4.3-.5.6v4.5h-1.2V101h1l.1.9c.2-.3.4-.6.7-.8s.6-.3.9-.3h.4v1.2zM448.3 104.4h-.8v2.9h-1.2v-9.1h1.2v5.3h.7l1.7-2.5h1.4l-2.2 2.9 2.5 3.5h-1.4l-1.9-3zM453.8 107.3h-1.2v-1.2h1.2v1.2zM455.3 99.3l-.9 2h-.6l.4-2v-1.1h1.2v1.1zm1.9 0l-.9 2h-.6l.4-2v-1.1h1.2v1.1z"/></g><g><path class="st0" d="M7.8 126.9H3.6v-1.3h4.2v1.3zM15.8 126.1v5.5h-1.7V119h4.6c1.4 0 2.4.3 3.2.9.7.6 1.1 1.5 1.1 2.7 0 .6-.2 1.2-.5 1.7s-.8.9-1.5 1.1c.7.2 1.2.6 1.5 1.1.3.5.5 1.1.5 1.9v1.2c0 .4 0 .7.1 1.1.1.3.2.6.5.8v.2h-1.8c-.2-.2-.4-.5-.4-.9-.1-.4-.1-.8-.1-1.2v-1.2c0-.7-.2-1.2-.6-1.6s-.9-.6-1.6-.6h-3.3zm0-1.3h2.7c1 0 1.7-.2 2.1-.5.4-.4.6-.9.6-1.7 0-.7-.2-1.3-.6-1.6-.4-.4-1.1-.6-1.9-.6h-2.9v4.4zM25.2 126.8c0-1.4.4-2.5 1.1-3.4s1.8-1.3 3.1-1.3 2.3.4 3.1 1.3c.8.9 1.1 2 1.1 3.4v.2c0 1.4-.4 2.5-1.1 3.4-.8.9-1.8 1.3-3.1 1.3s-2.3-.4-3.1-1.3c-.8-.9-1.1-2-1.1-3.4v-.2zm1.7.2c0 1 .2 1.8.6 2.5.4.6 1 1 1.9 1 .8 0 1.4-.3 1.9-1 .4-.6.6-1.5.6-2.5v-.2c0-1-.2-1.8-.6-2.4-.4-.7-1-1-1.9-1-.8 0-1.4.3-1.9 1-.4.7-.6 1.5-.6 2.4v.2zM41.6 130.2c-.3.5-.7.9-1.1 1.2s-1 .4-1.6.4c-1 0-1.8-.3-2.4-1-.6-.7-.9-1.7-.9-3v-5.5h1.7v5.5c0 1 .1 1.7.4 2.1.3.4.8.6 1.4.6.6 0 1.1-.1 1.5-.4.4-.2.7-.6.9-1v-6.8h1.7v9.4h-1.5l-.1-1.5zM47.3 122.2l.1 1.4c.3-.5.7-.9 1.2-1.2s1-.4 1.6-.4c1 0 1.8.3 2.3.9.6.6.8 1.5.8 2.7v5.9h-1.7v-5.9c0-.8-.2-1.4-.5-1.8s-.8-.5-1.5-.5c-.5 0-.9.1-1.3.4-.4.2-.7.6-.9 1v6.8h-1.7v-9.4h1.6zM55.4 127.1c0-1.5.3-2.7 1-3.6.6-.9 1.5-1.4 2.7-1.4.5 0 1 .1 1.5.3s.8.5 1.1.9v-5.2h1.7v13.5H62l-.2-1.2c-.3.4-.7.8-1.1 1-.4.2-1 .3-1.6.3-1.1 0-2-.4-2.7-1.2-.6-.8-1-1.9-1-3.3v-.1zm1.7.1c0 .9.2 1.7.6 2.3.4.6 1 .9 1.8.9.5 0 .9-.1 1.3-.3s.6-.6.8-1v-4.4c-.2-.4-.5-.7-.9-.9-.3-.2-.8-.3-1.3-.3-.8 0-1.4.3-1.8 1s-.6 1.6-.6 2.6v.1zM79.2 120.3h-4.1v11.3h-1.7v-11.3h-4V119h9.8v1.3zM85.7 131.6c-.1-.3-.1-.5-.1-.7 0-.2-.1-.4-.1-.7-.3.5-.7.8-1.2 1.1-.5.3-1.1.5-1.7.5-1 0-1.7-.2-2.2-.7-.5-.5-.8-1.2-.8-2.1 0-.9.4-1.6 1.1-2.1.7-.5 1.7-.8 3-.8h1.9v-.9c0-.5-.2-1-.5-1.3s-.8-.5-1.4-.5c-.5 0-1 .1-1.3.4s-.5.6-.5 1h-1.6v-.1c0-.7.3-1.3 1-1.9.7-.6 1.6-.8 2.6-.8 1.1 0 1.9.3 2.6.8.6.5 1 1.3 1 2.3v4.5c0 .3 0 .7.1 1 0 .3.1.6.2.9h-2.1zm-2.8-1.3c.6 0 1.2-.2 1.7-.5s.8-.7 1-1.1v-1.5h-1.9c-.7 0-1.2.2-1.7.5-.4.3-.6.8-.6 1.2 0 .4.1.7.4 1 .2.3.6.4 1.1.4zM97.7 127.2c0 1.4-.3 2.4-1 3.3-.6.8-1.5 1.2-2.7 1.2-.6 0-1.2-.1-1.6-.4s-.8-.6-1.1-1.1l-.2 1.2h-1.4v-13.5h1.7v5.2c.3-.4.7-.7 1.1-1 .4-.2.9-.3 1.5-.3 1.2 0 2.1.5 2.7 1.4.6.9 1 2.1 1 3.6v.4zm-1.7-.1c0-1.1-.2-2-.6-2.6s-1-1-1.8-1c-.5 0-1 .1-1.3.4s-.6.6-.9 1v4.1c.2.5.5.8.9 1.1.4.3.8.4 1.3.4.8 0 1.4-.3 1.8-.9.4-.6.6-1.3.6-2.3v-.2zM101.7 131.6H100v-13.5h1.7v13.5zM108.2 131.8c-1.3 0-2.3-.4-3.1-1.3-.8-.9-1.2-2-1.2-3.4v-.4c0-1.3.4-2.4 1.2-3.3s1.7-1.3 2.8-1.3c1.3 0 2.2.4 2.9 1.1.6.8 1 1.8 1 3v1.1h-6.1c0 .9.2 1.6.7 2.2.4.6 1.1.9 1.8.9.6 0 1.1-.1 1.5-.2.4-.2.8-.4 1.1-.7l.7 1.1c-.3.3-.8.6-1.3.8-.6.3-1.2.4-2 .4zm-.3-8.4c-.6 0-1.1.2-1.5.7s-.7 1.1-.7 1.8h4.3v-.2c0-.7-.2-1.2-.5-1.7-.3-.4-.9-.6-1.6-.6zM127.3 127.5c0 1.2-.4 2.2-1.2 3-.9.8-2 1.2-3.4 1.2s-2.6-.5-3.5-1.5c-.9-1-1.3-2.3-1.3-3.8v-2.2c0-1.6.4-2.8 1.3-3.9.9-1 2.1-1.5 3.5-1.5s2.6.4 3.4 1.1c.8.8 1.3 1.8 1.2 3v.1h-1.6c0-.9-.3-1.6-.8-2.1s-1.3-.8-2.2-.8c-1 0-1.7.4-2.3 1.2s-.8 1.7-.8 2.9v2.3c0 1.1.3 2.1.8 2.9s1.3 1.2 2.3 1.2c.9 0 1.7-.3 2.2-.8.5-.5.8-1.2.8-2.1h1.6zM128.9 126.8c0-1.4.4-2.5 1.1-3.4s1.8-1.3 3.1-1.3 2.3.4 3.1 1.3c.8.9 1.1 2 1.1 3.4v.2c0 1.4-.4 2.5-1.1 3.4s-1.8 1.3-3.1 1.3-2.3-.4-3.1-1.3c-.8-.9-1.1-2-1.1-3.4v-.2zm1.7.2c0 1 .2 1.8.6 2.5.4.6 1 1 1.9 1 .8 0 1.4-.3 1.9-1 .4-.6.6-1.5.6-2.5v-.2c0-1-.2-1.8-.6-2.4-.4-.7-1-1-1.9-1-.8 0-1.4.3-1.9 1-.4.7-.6 1.5-.6 2.4v.2zM140.9 122.2l.1 1.2c.3-.4.7-.8 1.2-1 .5-.2 1-.4 1.6-.4.6 0 1.2.1 1.6.4.4.3.8.7 1 1.3.3-.5.7-1 1.2-1.3.5-.3 1.1-.5 1.7-.5 1 0 1.7.3 2.3 1 .6.7.8 1.6.8 3v5.6h-1.7V126c0-.9-.2-1.6-.5-2s-.8-.6-1.4-.6c-.6 0-1.1.2-1.4.6-.4.4-.6.9-.6 1.5v6.1h-1.7V126c0-.9-.2-1.5-.5-1.9-.3-.4-.8-.6-1.4-.6-.5 0-.9.1-1.3.3s-.6.5-.8.9v6.9h-1.7v-9.4h1.5zM162.9 127.2c0 1.4-.3 2.4-1 3.3-.6.8-1.5 1.2-2.7 1.2-.6 0-1.1-.1-1.5-.3-.4-.2-.8-.5-1.1-.9v4.6h-1.7v-13h1.3l.3 1.2c.3-.5.7-.8 1.1-1 .5-.2 1-.4 1.6-.4 1.2 0 2.1.5 2.7 1.4.6.9 1 2.1 1 3.7v.2zm-1.7-.1c0-1.1-.2-1.9-.6-2.6-.4-.7-1-1-1.8-1-.5 0-.9.1-1.3.3s-.6.5-.8.9v4.5c.2.4.5.7.8.9.3.2.8.3 1.3.3.8 0 1.4-.3 1.8-.9.4-.6.6-1.4.6-2.3v-.1zM170.8 131.6c-.1-.3-.1-.5-.1-.7 0-.2-.1-.4-.1-.7-.3.5-.7.8-1.2 1.1-.5.3-1.1.5-1.7.5-1 0-1.7-.2-2.2-.7-.5-.5-.8-1.2-.8-2.1 0-.9.4-1.6 1.1-2.1.7-.5 1.7-.8 3-.8h1.9v-.9c0-.5-.2-1-.5-1.3s-.8-.5-1.4-.5c-.5 0-1 .1-1.3.4s-.5.6-.5 1h-1.6v-.1c0-.7.3-1.3 1-1.9.7-.6 1.6-.8 2.6-.8 1.1 0 1.9.3 2.6.8.6.5 1 1.3 1 2.3v4.5c0 .3 0 .7.1 1 0 .3.1.6.2.9h-2.1zm-2.9-1.3c.6 0 1.2-.2 1.7-.5s.8-.7 1-1.1v-1.5h-1.9c-.7 0-1.2.2-1.7.5-.4.3-.6.8-.6 1.2 0 .4.1.7.4 1 .2.3.6.4 1.1.4zM176.3 122.2l.1 1.4c.3-.5.7-.9 1.2-1.2s1-.4 1.6-.4c1 0 1.8.3 2.3.9.6.6.8 1.5.8 2.7v5.9h-1.7v-5.9c0-.8-.2-1.4-.5-1.8s-.8-.5-1.5-.5c-.5 0-.9.1-1.3.4-.4.2-.7.6-.9 1v6.8h-1.7v-9.4h1.6zM186.7 119.8H185v-1.7h1.7v1.7zm0 11.8H185v-9.4h1.7v9.4zM193.2 131.8c-1.3 0-2.3-.4-3.1-1.3-.8-.9-1.2-2-1.2-3.4v-.4c0-1.3.4-2.4 1.2-3.3s1.7-1.3 2.8-1.3c1.3 0 2.2.4 2.9 1.1.6.8 1 1.8 1 3v1.1h-6.1c0 .9.2 1.6.7 2.2.4.6 1.1.9 1.8.9.6 0 1.1-.1 1.5-.2.4-.2.8-.4 1.1-.7l.7 1.1c-.3.3-.8.6-1.3.8-.6.3-1.2.4-2 .4zm-.3-8.4c-.6 0-1.1.2-1.5.7s-.7 1.1-.7 1.8h4.3v-.2c0-.7-.2-1.2-.5-1.7-.3-.4-.9-.6-1.6-.6zM204.1 129.1c0-.4-.1-.7-.4-.9-.3-.2-.8-.5-1.6-.6-1.1-.2-2-.6-2.6-1-.6-.4-.9-1-.9-1.7 0-.8.3-1.4 1-1.9.6-.5 1.5-.8 2.5-.8 1.1 0 2 .3 2.6.8.6.6 1 1.2.9 2v.1H204c0-.4-.2-.8-.5-1.1-.3-.3-.8-.5-1.4-.5-.6 0-1.1.1-1.4.4-.3.3-.4.6-.4 1s.1.7.4.9c.3.2.8.4 1.6.6 1.2.3 2.1.6 2.6 1 .6.4.9 1 .9 1.8s-.3 1.5-1 2-1.6.8-2.6.8c-1.2 0-2.1-.3-2.8-.9-.7-.6-1-1.3-1-2.1v-.1h1.6c0 .6.3 1 .7 1.3.4.3.9.4 1.5.4s1.1-.1 1.4-.4c.4-.4.5-.7.5-1.1z"/></g><g><path d="M30.1 162.3l.9-2.1h.6l-.4 2.1v1H30v-1zm2 0l.9-2.1h.6l-.4 2.1v1H32v-1zM38.5 160.8h1.2v6.2c0 .8-.2 1.4-.7 1.8s-1.1.7-1.9.7c-.8 0-1.5-.2-2-.6s-.7-1-.7-1.8h1.1c0 .5.1.9.4 1.2s.6.4 1.1.4c.4 0 .8-.1 1-.4.3-.3.4-.7.4-1.2v-6.3zM45.4 169.3c0-.2-.1-.4-.1-.5v-.4c-.2.3-.5.6-.8.8s-.7.3-1.1.3c-.7 0-1.2-.2-1.5-.5s-.5-.8-.5-1.4c0-.6.2-1.1.7-1.4s1.2-.5 2-.5h1.3v-.7c0-.4-.1-.7-.3-.9s-.5-.3-1-.3c-.4 0-.7.1-.9.3s-.3.4-.3.7h-1.1c0-.5.2-.9.7-1.3s1.1-.6 1.8-.6 1.3.2 1.7.5.7.9.7 1.6v3.8c0 .3.1.4.1.6h-1.4zm-1.9-.8c.4 0 .8-.1 1.1-.3s.6-.5.7-.7v-1H44c-.5 0-.8.1-1.1.4s-.4.5-.4.8c0 .3.1.5.3.7.1 0 .3.1.7.1zM51.1 164h-.6c-.3 0-.6.1-.8.2s-.4.3-.5.6v4.5H48V163h1l.1.9c.2-.3.4-.6.7-.8s.6-.3.9-.3h.4v1.2zM51.8 166.1c0-.9.3-1.7.8-2.3s1.2-.9 2.1-.9c.9 0 1.6.3 2.1.9s.8 1.4.8 2.3v.1c0 .9-.3 1.7-.8 2.3s-1.2.9-2.1.9-1.6-.3-2.1-.9-.8-1.4-.8-2.3v-.1zm1.2.1c0 .7.1 1.2.4 1.7.3.4.7.7 1.3.7.6 0 1-.2 1.3-.7.3-.4.4-1 .4-1.7v-.1c0-.7-.1-1.2-.4-1.7-.3-.4-.7-.7-1.3-.7-.6 0-1 .2-1.3.7-.3.4-.4 1-.4 1.7v.1zM59.9 163l.1.9c.2-.3.5-.6.8-.8s.7-.3 1.1-.3c.7 0 1.2.2 1.6.6s.6 1 .6 1.9v4h-1.2v-4c0-.6-.1-1-.3-1.2s-.6-.4-1-.4c-.3 0-.6.1-.9.2s-.5.4-.6.7v4.6h-1.2V163h1zM69.9 161.4h-1.2v-1.2h1.2v1.2zm0 7.9h-1.2V163h1.2v6.3zM75.4 167.6c0-.3-.1-.5-.3-.6s-.6-.3-1.1-.4c-.8-.2-1.3-.4-1.7-.7-.4-.3-.6-.7-.6-1.2s.2-1 .7-1.3c.4-.4 1-.5 1.7-.5s1.3.2 1.8.6.6.8.6 1.4h-1.1c0-.3-.1-.5-.3-.7s-.5-.3-.9-.3-.7.1-.9.3-.3.4-.3.7c0 .2.1.4.3.6s.5.3 1.1.4c.8.2 1.4.4 1.8.7s.6.7.6 1.2c0 .6-.2 1-.7 1.4s-1 .5-1.8.5-1.4-.2-1.9-.6-.7-.9-.7-1.4h1.1c0 .4.2.7.5.9.3.2.6.3 1 .3s.7-.1 1-.2.1-.8.1-1.1zM80.7 166.3c0-1 .2-1.8.7-2.5s1.1-.9 1.8-.9c.4 0 .8.1 1.1.2s.6.4.8.7l.1-.8h.9v6.4c0 .8-.2 1.4-.7 1.9s-1.2.7-2 .7c-.3 0-.6 0-1-.1s-.7-.2-.9-.3l.3-.9c.2.1.5.2.8.3s.6.1.9.1c.6 0 1-.1 1.2-.4s.4-.6.4-1.2v-.7c-.2.3-.5.5-.7.6s-.6.2-1 .2c-.8 0-1.4-.3-1.8-.8s-.7-1.3-.7-2.2v-.3zm1.2.1c0 .6.1 1.1.4 1.5s.7.6 1.2.6c.3 0 .6-.1.9-.2s.4-.4.6-.7v-2.9c-.1-.3-.3-.5-.6-.6s-.5-.2-.9-.2c-.6 0-1 .2-1.2.7s-.4 1.1-.4 1.8zM90.8 164h-.6c-.3 0-.6.1-.8.2s-.4.3-.5.6v4.5h-1.2V163h1l.1.9c.2-.3.4-.6.7-.8s.6-.3.9-.3h.4v1.2zM94.4 169.5c-.9 0-1.6-.3-2.1-.9s-.8-1.4-.8-2.3v-.3c0-.9.3-1.7.8-2.3s1.2-.9 1.9-.9c.9 0 1.5.3 1.9.8s.7 1.2.7 2.1v.7h-4.1c0 .6.2 1.1.5 1.5s.7.6 1.2.6c.4 0 .7-.1 1-.2s.5-.3.8-.5l.5.8c-.2.2-.5.4-.9.6-.4.2-.8.3-1.4.3zm-.1-5.7c-.4 0-.7.2-1 .5s-.4.7-.5 1.2h2.9v-.2c0-.5-.1-.8-.4-1.1-.2-.3-.6-.4-1-.4zM102 169.3c0-.2-.1-.4-.1-.5v-.4c-.2.3-.5.6-.8.8s-.7.3-1.1.3c-.7 0-1.2-.2-1.5-.5s-.5-.8-.5-1.4c0-.6.2-1.1.7-1.4s1.2-.5 2-.5h1.3v-.7c0-.4-.1-.7-.3-.9s-.5-.3-1-.3c-.4 0-.7.1-.9.3s-.3.4-.3.7h-1.1c0-.5.2-.9.7-1.3s1.1-.6 1.8-.6 1.3.2 1.7.5.7.9.7 1.6v3.8c0 .3.1.4.1.6H102zm-1.9-.8c.4 0 .8-.1 1.1-.3s.6-.5.7-.7v-1h-1.3c-.5 0-.8.1-1.1.4s-.4.5-.4.8c0 .3.1.5.3.7.1 0 .4.1.7.1zM106.3 161.5v1.5h1.2v.9h-1.2v3.8c0 .3.1.5.2.6s.3.2.5.2h.2c.1 0 .2 0 .2-.1l.2.8c-.1.1-.2.1-.4.2s-.3.1-.5.1c-.5 0-.8-.1-1.1-.4s-.4-.7-.4-1.3V164h-1v-1h1v-1.5h1.1zM109.9 169.1l-.9 1.8h-.7l.4-1.9v-1h1.2v1.1zM115.4 163.8c.2-.3.5-.5.8-.7s.7-.3 1.1-.3c.7 0 1.2.2 1.6.6s.6 1 .6 1.9v4h-1.2v-4c0-.5-.1-.9-.3-1.2s-.6-.4-1-.4c-.3 0-.6.1-.9.2s-.5.4-.6.6v4.7h-1.2v-9.1h1.2v3.7zM122.3 161.4h-1.2v-1.2h1.2v1.2zm0 7.9h-1.2V163h1.2v6.3zM127.8 167.6c0-.3-.1-.5-.3-.6s-.6-.3-1.1-.4c-.8-.2-1.3-.4-1.7-.7-.4-.3-.6-.7-.6-1.2s.2-1 .7-1.3c.4-.4 1-.5 1.7-.5s1.3.2 1.8.6c.4.4.6.8.6 1.4h-1.1c0-.3-.1-.5-.3-.7s-.5-.3-.9-.3-.7.1-.9.3-.3.4-.3.7c0 .2.1.4.3.6s.5.3 1.1.4c.8.2 1.4.4 1.8.7.4.3.6.7.6 1.2 0 .6-.2 1-.7 1.4-.5.3-1 .5-1.8.5s-1.4-.2-1.9-.6-.7-.9-.7-1.4h1.1c0 .4.2.7.5.9.3.2.6.3 1 .3s.7-.1 1-.2.1-.8.1-1.1zM135 167l.1.8.2-.8 1.3-4h.9l1.3 4 .2.9.2-.9 1-4h1.1l-1.8 6.3h-.9l-1.2-3.9-.3-1.1-.3 1.1-1.2 3.9h-.9l-1.8-6.3h1.1l1 4zM142.2 166.1c0-.9.3-1.7.8-2.3s1.2-.9 2.1-.9c.9 0 1.6.3 2.1.9s.8 1.4.8 2.3v.1c0 .9-.3 1.7-.8 2.3s-1.2.9-2.1.9-1.6-.3-2.1-.9-.8-1.4-.8-2.3v-.1zm1.1.1c0 .7.1 1.2.4 1.7.3.4.7.7 1.3.7.6 0 1-.2 1.3-.7.3-.4.4-1 .4-1.7v-.1c0-.7-.1-1.2-.4-1.7-.3-.4-.7-.7-1.3-.7-.6 0-1 .2-1.3.7-.3.4-.4 1-.4 1.7v.1zM152.3 164h-.6c-.3 0-.6.1-.8.2s-.4.3-.5.6v4.5h-1.2V163h1l.1.9c.2-.3.4-.6.7-.8s.6-.3.9-.3h.4v1.2zM155.3 166.4h-.8v2.9h-1.2v-9.1h1.2v5.3h.7l1.7-2.5h1.4l-2.2 2.9 2.5 3.5h-1.4l-1.9-3zM163.7 161.4h-1.2v-1.2h1.2v1.2zm0 7.9h-1.2V163h1.2v6.3zM169.2 167.6c0-.3-.1-.5-.3-.6s-.6-.3-1.1-.4c-.8-.2-1.3-.4-1.7-.7-.4-.3-.6-.7-.6-1.2s.2-1 .7-1.3c.4-.4 1-.5 1.7-.5s1.3.2 1.8.6.6.8.6 1.4h-1.1c0-.3-.1-.5-.3-.7s-.5-.3-.9-.3-.7.1-.9.3-.3.4-.3.7c0 .2.1.4.3.6s.5.3 1.1.4c.8.2 1.4.4 1.8.7s.6.7.6 1.2c0 .6-.2 1-.7 1.4s-1 .5-1.8.5-1.4-.2-1.9-.6-.7-.9-.7-1.4h1.1c0 .4.2.7.5.9.3.2.6.3 1 .3s.7-.1 1-.2.1-.8.1-1.1zM174.5 166.3c0-1 .2-1.8.7-2.5s1.1-.9 1.8-.9c.4 0 .8.1 1.1.2s.6.4.8.7l.1-.8h.9v6.4c0 .8-.2 1.4-.7 1.9s-1.2.7-2 .7c-.3 0-.6 0-1-.1s-.7-.2-.9-.3l.3-.9c.2.1.5.2.8.3s.6.1.9.1c.6 0 1-.1 1.2-.4s.4-.6.4-1.2v-.7c-.2.3-.5.5-.7.6s-.6.2-1 .2c-.8 0-1.4-.3-1.8-.8s-.7-1.3-.7-2.2v-.3zm1.2.1c0 .6.1 1.1.4 1.5s.7.6 1.2.6c.3 0 .6-.1.9-.2s.4-.4.6-.7v-2.9c-.1-.3-.3-.5-.6-.6s-.5-.2-.9-.2c-.6 0-1 .2-1.2.7s-.4 1.1-.4 1.8zM184.6 164h-.6c-.3 0-.6.1-.8.2s-.4.3-.5.6v4.5h-1.2V163h1l.1.9c.2-.3.4-.6.7-.8s.6-.3.9-.3h.4v1.2zM188.2 169.5c-.9 0-1.6-.3-2.1-.9s-.8-1.4-.8-2.3v-.3c0-.9.3-1.7.8-2.3s1.2-.9 1.9-.9c.9 0 1.5.3 1.9.8s.7 1.2.7 2.1v.7h-4.1c0 .6.2 1.1.5 1.5s.7.6 1.2.6c.4 0 .7-.1 1-.2s.5-.3.8-.5l.5.8c-.2.2-.5.4-.9.6-.4.2-.8.3-1.4.3zm-.1-5.7c-.4 0-.7.2-1 .5s-.4.7-.5 1.2h2.9v-.2c0-.5-.1-.8-.4-1.1-.2-.3-.6-.4-1-.4zM195.8 169.3c0-.2-.1-.4-.1-.5v-.4c-.2.3-.5.6-.8.8s-.7.3-1.1.3c-.7 0-1.2-.2-1.5-.5s-.5-.8-.5-1.4c0-.6.2-1.1.7-1.4s1.2-.5 2-.5h1.3v-.7c0-.4-.1-.7-.3-.9s-.5-.3-1-.3c-.4 0-.7.1-.9.3s-.3.4-.3.7h-1.1c0-.5.2-.9.7-1.3s1.1-.6 1.8-.6 1.3.2 1.7.5.7.9.7 1.6v3.8c0 .3.1.4.1.6h-1.4zm-1.9-.8c.4 0 .8-.1 1.1-.3s.6-.5.7-.7v-1h-1.3c-.5 0-.8.1-1.1.4s-.4.5-.4.8c0 .3.1.5.3.7.1 0 .4.1.7.1zM200.1 161.5v1.5h1.2v.9h-1.2v3.8c0 .3.1.5.2.6s.3.2.5.2h.2c.1 0 .2 0 .2-.1l.2.8c-.1.1-.2.1-.4.2s-.3.1-.5.1c-.5 0-.8-.1-1.1-.4s-.4-.7-.4-1.3V164h-1v-1h1v-1.5h1.1zM206.9 161.4h-1.2v-1.2h1.2v1.2zm0 7.9h-1.2V163h1.2v6.3zM212.8 163.8c.2-.3.5-.5.8-.7s.7-.3 1.1-.3c.7 0 1.2.2 1.6.6s.6 1 .6 1.9v4h-1.2v-4c0-.5-.1-.9-.3-1.2s-.6-.4-1-.4c-.3 0-.6.1-.9.2s-.5.4-.6.6v4.7h-1.2v-9.1h1.2v3.7zM219.8 161.4h-1.2v-1.2h1.2v1.2zm0 7.9h-1.2V163h1.2v6.3zM221.3 166.3c0-1 .2-1.8.7-2.5s1.1-.9 1.8-.9c.4 0 .8.1 1.1.2s.6.4.8.7l.1-.8h.9v6.4c0 .8-.2 1.4-.7 1.9s-1.2.7-2 .7c-.3 0-.6 0-1-.1s-.7-.2-.9-.3l.3-.9c.2.1.5.2.8.3s.6.1.9.1c.6 0 1-.1 1.2-.4s.4-.6.4-1.2v-.7c-.2.3-.5.5-.7.6s-.6.2-1 .2c-.8 0-1.4-.3-1.8-.8s-.7-1.3-.7-2.2v-.3zm1.1.1c0 .6.1 1.1.4 1.5s.7.6 1.2.6c.3 0 .6-.1.9-.2s.4-.4.6-.7v-2.9c-.1-.3-.3-.5-.6-.6s-.5-.2-.9-.2c-.6 0-1 .2-1.2.7s-.4 1.1-.4 1.8zM229.5 163.8c.2-.3.5-.5.8-.7s.7-.3 1.1-.3c.7 0 1.2.2 1.6.6s.6 1 .6 1.9v4h-1.2v-4c0-.5-.1-.9-.3-1.2s-.6-.4-1-.4c-.3 0-.6.1-.9.2s-.5.4-.6.6v4.7h-1.2v-9.1h1.2v3.7zM236.4 169.3h-1.2v-9.1h1.2v9.1zM240.1 167l.2.8 1.6-4.8h1.3l-2.7 7.3c-.2.4-.4.8-.7 1.1s-.7.5-1.2.5h-.4c-.2 0-.3 0-.3-.1l.1-.9h.5c.2 0 .4-.1.6-.3s.3-.5.4-.7l.3-.7-2.4-6.2h1.3l1.4 4zM250.2 164h-.6c-.3 0-.6.1-.8.2s-.4.3-.5.6v4.5h-1.2V163h1l.1.9c.2-.3.4-.6.7-.8s.6-.3.9-.3h.4v1.2zM253.8 169.5c-.9 0-1.6-.3-2.1-.9s-.8-1.4-.8-2.3v-.3c0-.9.3-1.7.8-2.3s1.2-.9 1.9-.9c.9 0 1.5.3 1.9.8.4.5.7 1.2.7 2.1v.7h-4.1c0 .6.2 1.1.5 1.5s.7.6 1.2.6c.4 0 .7-.1 1-.2s.5-.3.8-.5l.5.8c-.2.2-.5.4-.9.6-.4.2-.8.3-1.4.3zm-.1-5.7c-.4 0-.7.2-1 .5s-.4.7-.5 1.2h2.9v-.2c0-.5-.1-.8-.4-1.1-.2-.3-.6-.4-1-.4zM260.1 168.5c.4 0 .7-.1 1-.4s.4-.5.4-.9h1c0 .5-.2 1-.7 1.5s-1.1.6-1.8.6c-.9 0-1.6-.3-2.1-.9s-.7-1.4-.7-2.3v-.1c0-.9.2-1.7.7-2.3s1.2-.9 2.1-.9c.7 0 1.3.2 1.8.7s.7 1 .7 1.6h-1c0-.4-.1-.7-.4-1s-.6-.4-1-.4c-.6 0-1 .2-1.3.7-.3.4-.4 1-.4 1.6v.2c0 .6.1 1.2.4 1.6.3.5.7.7 1.3.7zM263.7 166.1c0-.9.3-1.7.8-2.3s1.2-.9 2.1-.9c.9 0 1.6.3 2.1.9s.8 1.4.8 2.3v.1c0 .9-.3 1.7-.8 2.3s-1.2.9-2.1.9-1.6-.3-2.1-.9-.8-1.4-.8-2.3v-.1zm1.1.1c0 .7.1 1.2.4 1.7.3.4.7.7 1.3.7.6 0 1-.2 1.3-.7.3-.4.4-1 .4-1.7v-.1c0-.7-.1-1.2-.4-1.7-.3-.4-.7-.7-1.3-.7-.6 0-1 .2-1.3.7-.3.4-.4 1-.4 1.7v.1zM271.8 163l.1.8c.2-.3.5-.5.8-.7s.7-.2 1.1-.2.8.1 1.1.3.5.5.7.9c.2-.4.5-.6.8-.9s.7-.3 1.1-.3c.6 0 1.2.2 1.5.7s.6 1.1.6 2v3.8h-1.2v-3.8c0-.6-.1-1.1-.3-1.3s-.5-.4-1-.4c-.4 0-.7.1-1 .4s-.4.6-.4 1v4h-1.2v-3.8c0-.6-.1-1-.3-1.3s-.5-.4-1-.4c-.4 0-.6.1-.9.2s-.4.3-.5.6v4.7h-1.2V163h1.2zM282.3 163l.1.8c.2-.3.5-.5.8-.7s.7-.2 1.1-.2.8.1 1.1.3.5.5.7.9c.2-.4.5-.6.8-.9s.7-.3 1.1-.3c.6 0 1.2.2 1.5.7s.6 1.1.6 2v3.8h-1.2v-3.8c0-.6-.1-1.1-.3-1.3s-.5-.4-1-.4c-.4 0-.7.1-1 .4s-.4.6-.4 1v4H285v-3.8c0-.6-.1-1-.3-1.3s-.5-.4-1-.4c-.4 0-.6.1-.9.2s-.4.3-.5.6v4.7h-1.2V163h1.2zM294.4 169.5c-.9 0-1.6-.3-2.1-.9s-.8-1.4-.8-2.3v-.3c0-.9.3-1.7.8-2.3s1.2-.9 1.9-.9c.9 0 1.5.3 1.9.8s.7 1.2.7 2.1v.7h-4.1c0 .6.2 1.1.5 1.5s.7.6 1.2.6c.4 0 .7-.1 1-.2s.5-.3.8-.5l.5.8c-.2.2-.5.4-.9.6-.5.2-.9.3-1.4.3zm-.2-5.7c-.4 0-.7.2-1 .5s-.4.7-.5 1.2h2.9v-.2c0-.5-.1-.8-.4-1.1-.2-.3-.5-.4-1-.4zM299.1 163l.1.9c.2-.3.5-.6.8-.8s.7-.3 1.1-.3c.7 0 1.2.2 1.6.6s.6 1 .6 1.9v4h-1.2v-4c0-.6-.1-1-.3-1.2s-.6-.4-1-.4c-.3 0-.6.1-.9.2s-.5.4-.6.7v4.6h-1.2V163h1zM304.6 166.3c0-1 .2-1.8.7-2.5s1-.9 1.8-.9c.4 0 .7.1 1 .2s.5.3.7.6v-3.5h1.2v9.1h-1l-.1-.8c-.2.3-.5.5-.8.7s-.7.2-1 .2c-.8 0-1.4-.3-1.8-.8s-.7-1.3-.7-2.2v-.1zm1.2.1c0 .6.1 1.2.4 1.5s.7.6 1.2.6c.3 0 .6-.1.9-.2s.4-.4.6-.7v-3c-.1-.3-.3-.5-.6-.6s-.5-.2-.9-.2c-.6 0-1 .2-1.2.7s-.4 1.1-.4 1.8v.1zM315.8 163.8c.2-.3.5-.5.8-.7s.7-.3 1.1-.3c.7 0 1.2.2 1.6.6s.6 1 .6 1.9v4h-1.2v-4c0-.5-.1-.9-.3-1.2s-.6-.4-1-.4c-.3 0-.6.1-.9.2s-.5.4-.6.6v4.7h-1.2v-9.1h1.2v3.7zM322.8 161.4h-1.2v-1.2h1.2v1.2zm0 7.9h-1.2V163h1.2v6.3zM325.6 163l.1.8c.2-.3.5-.5.8-.7s.7-.2 1.1-.2.8.1 1.1.3.5.5.7.9c.2-.4.5-.6.8-.9s.7-.3 1.1-.3c.6 0 1.2.2 1.5.7s.6 1.1.6 2v3.8h-1.2v-3.8c0-.6-.1-1.1-.3-1.3s-.5-.4-1-.4c-.4 0-.7.1-1 .4s-.4.6-.4 1v4h-1.2v-3.8c0-.6-.1-1-.3-1.3s-.5-.4-1-.4c-.4 0-.6.1-.9.2s-.4.3-.5.6v4.7h-1.2V163h1.2zM338.5 169.3v-5.5h-1v-.8h1v-.8c0-.7.2-1.2.5-1.6s.8-.6 1.5-.6h.4c.1 0 .3.1.4.1l-.1.9h-.6c-.3 0-.6.1-.8.3s-.2.5-.2.9v.8h1.3v.9h-1.3v5.5h-1.1zM341.9 166.1c0-.9.3-1.7.8-2.3s1.2-.9 2.1-.9c.9 0 1.6.3 2.1.9s.8 1.4.8 2.3v.1c0 .9-.3 1.7-.8 2.3s-1.2.9-2.1.9-1.6-.3-2.1-.9-.8-1.4-.8-2.3v-.1zm1.1.1c0 .7.1 1.2.4 1.7.3.4.7.7 1.3.7.6 0 1-.2 1.3-.7.3-.4.4-1 .4-1.7v-.1c0-.7-.1-1.2-.4-1.7-.3-.4-.7-.7-1.3-.7-.6 0-1 .2-1.3.7-.3.4-.4 1-.4 1.7v.1zM352 164h-.6c-.3 0-.6.1-.8.2s-.4.3-.5.6v4.5H349V163h1l.1.9c.2-.3.4-.6.7-.8s.6-.3.9-.3h.4l-.1 1.2zM360 169.3c0-.2-.1-.4-.1-.5v-.4c-.2.3-.5.6-.8.8s-.7.3-1.1.3c-.7 0-1.2-.2-1.5-.5s-.5-.8-.5-1.4c0-.6.2-1.1.7-1.4s1.2-.5 2-.5h1.3v-.7c0-.4-.1-.7-.3-.9s-.5-.3-1-.3c-.4 0-.7.1-.9.3s-.3.4-.3.7h-1.1c0-.5.2-.9.7-1.3s1.1-.6 1.8-.6 1.3.2 1.7.5.7.9.7 1.6v3.8c0 .3.1.4.1.6H360zm-2-.8c.4 0 .8-.1 1.1-.3s.6-.5.7-.7v-1h-1.3c-.5 0-.8.1-1.1.4s-.4.5-.4.8c0 .3.1.5.3.7.1 0 .4.1.7.1zM363.7 163l.1.9c.2-.3.5-.6.8-.8s.7-.3 1.1-.3c.7 0 1.2.2 1.6.6s.6 1 .6 1.9v4h-1.2v-4c0-.6-.1-1-.3-1.2s-.6-.4-1-.4c-.3 0-.6.1-.9.2s-.5.4-.6.7v4.6h-1.2V163h1zM371.4 167l.2.8 1.6-4.8h1.3l-2.7 7.3c-.2.4-.4.8-.7 1.1s-.7.5-1.2.5h-.4c-.2 0-.3 0-.3-.1l.1-.9h.5c.2 0 .4-.1.6-.3s.3-.5.4-.7l.3-.7-2.4-6.2h1.3l1.4 4zM380.6 167.5l.1.4.1-.4 1.5-4.5h1.2l-2.3 6.3h-.9l-2.4-6.3h1.2l1.5 4.5zM385.8 161.4h-1.2v-1.2h1.2v1.2zm0 7.9h-1.2V163h1.2v6.3zM387.3 166.3c0-1 .2-1.8.7-2.5s1-.9 1.8-.9c.4 0 .7.1 1 .2s.5.3.7.6v-3.5h1.2v9.1h-.9l-.1-.8c-.2.3-.5.5-.8.7s-.7.2-1 .2c-.8 0-1.4-.3-1.8-.8s-.7-1.3-.7-2.2v-.1zm1.1.1c0 .6.1 1.2.4 1.5s.7.6 1.2.6c.3 0 .6-.1.9-.2s.4-.4.6-.7v-3c-.1-.3-.3-.5-.6-.6s-.5-.2-.9-.2c-.6 0-1 .2-1.2.7s-.4 1.1-.4 1.8v.1zM397 169.5c-.9 0-1.6-.3-2.1-.9s-.8-1.4-.8-2.3v-.3c0-.9.3-1.7.8-2.3s1.2-.9 1.9-.9c.9 0 1.5.3 1.9.8s.7 1.2.7 2.1v.7h-4.1c0 .6.2 1.1.5 1.5s.7.6 1.2.6c.4 0 .7-.1 1-.2s.5-.3.8-.5l.5.8c-.2.2-.5.4-.9.6-.4.2-.9.3-1.4.3zm-.2-5.7c-.4 0-.7.2-1 .5s-.4.7-.5 1.2h2.9v-.2c0-.5-.1-.8-.4-1.1-.1-.3-.5-.4-1-.4zM400.5 166.1c0-.9.3-1.7.8-2.3s1.2-.9 2.1-.9c.9 0 1.6.3 2.1.9s.8 1.4.8 2.3v.1c0 .9-.3 1.7-.8 2.3s-1.2.9-2.1.9-1.6-.3-2.1-.9-.8-1.4-.8-2.3v-.1zm1.1.1c0 .7.1 1.2.4 1.7.3.4.7.7 1.3.7.6 0 1-.2 1.3-.7.3-.4.4-1 .4-1.7v-.1c0-.7-.1-1.2-.4-1.7-.3-.4-.7-.7-1.3-.7-.6 0-1 .2-1.3.7-.3.4-.4 1-.4 1.7v.1zM411.8 161.4h-1.2v-1.2h1.2v1.2zm0 7.9h-1.2V163h1.2v6.3zM414.6 163l.1.9c.2-.3.5-.6.8-.8s.7-.3 1.1-.3c.7 0 1.2.2 1.6.6s.6 1 .6 1.9v4h-1.2v-4c0-.6-.1-1-.3-1.2s-.6-.4-1-.4c-.3 0-.6.1-.9.2s-.5.4-.6.7v4.6h-1.2V163h1zM421.9 161.5v1.5h1.2v.9h-1.2v3.8c0 .3.1.5.2.6s.3.2.5.2h.2c.1 0 .2 0 .2-.1l.2.8c-.1.1-.2.1-.4.2s-.3.1-.5.1c-.5 0-.8-.1-1.1-.4s-.4-.7-.4-1.3V164h-1v-1h1v-1.5h1.1zM427.5 164h-.6c-.3 0-.6.1-.8.2s-.4.3-.5.6v4.5h-1.2V163h1l.1.9c.2-.3.4-.6.7-.8s.6-.3.9-.3h.4v1.2zM428.2 166.1c0-.9.3-1.7.8-2.3s1.2-.9 2.1-.9c.9 0 1.6.3 2.1.9s.8 1.4.8 2.3v.1c0 .9-.3 1.7-.8 2.3s-1.2.9-2.1.9-1.6-.3-2.1-.9-.8-1.4-.8-2.3v-.1zm1.2.1c0 .7.1 1.2.4 1.7.3.4.7.7 1.3.7.6 0 1-.2 1.3-.7.3-.4.4-1 .4-1.7v-.1c0-.7-.1-1.2-.4-1.7-.3-.4-.7-.7-1.3-.7-.6 0-1 .2-1.3.7-.3.4-.4 1-.4 1.7v.1zM439.6 163v6.9c0 .7-.2 1.2-.5 1.5s-.8.5-1.4.5h-.3c-.1 0-.2 0-.3-.1l.1-.9h.5c.3 0 .5-.1.6-.3s.2-.5.2-.8V163h1.1zm0-1.7h-1.2v-1.2h1.2v1.2zM441.2 166.1c0-.9.3-1.7.8-2.3s1.2-.9 2.1-.9c.9 0 1.6.3 2.1.9s.8 1.4.8 2.3v.1c0 .9-.3 1.7-.8 2.3s-1.2.9-2.1.9-1.6-.3-2.1-.9-.8-1.4-.8-2.3v-.1zm1.1.1c0 .7.1 1.2.4 1.7.3.4.7.7 1.3.7.6 0 1-.2 1.3-.7.3-.4.4-1 .4-1.7v-.1c0-.7-.1-1.2-.4-1.7-.3-.4-.7-.7-1.3-.7-.6 0-1 .2-1.3.7-.3.4-.4 1-.4 1.7v.1zM453.7 166.4c0 .9-.2 1.7-.7 2.2s-1 .8-1.8.8c-.4 0-.8-.1-1.1-.2s-.6-.4-.8-.7l-.1.8h-.9v-9.1h1.2v3.6c.2-.3.4-.5.7-.6s.6-.2 1-.2c.8 0 1.4.3 1.8.9s.7 1.4.7 2.5zm-1.2-.1c0-.7-.1-1.3-.4-1.8s-.7-.7-1.2-.7c-.4 0-.7.1-.9.3s-.4.4-.6.7v2.7c.1.3.3.6.6.7s.5.3.9.3c.5 0 .9-.2 1.2-.6s.4-.9.4-1.5v-.1zM458.7 167.6c0-.3-.1-.5-.3-.6s-.6-.3-1.1-.4c-.8-.2-1.3-.4-1.7-.7-.4-.3-.6-.7-.6-1.2s.2-1 .7-1.3c.4-.4 1-.5 1.7-.5s1.3.2 1.8.6.6.8.6 1.4h-1.1c0-.3-.1-.5-.3-.7s-.5-.3-.9-.3-.7.1-.9.3-.3.4-.3.7c0 .2.1.4.3.6s.5.3 1.1.4c.8.2 1.4.4 1.8.7s.6.7.6 1.2c0 .6-.2 1-.7 1.4s-1 .5-1.8.5-1.4-.2-1.9-.6-.7-.9-.7-1.4h1.1c0 .4.2.7.5.9.3.2.6.3 1 .3s.7-.1 1-.2.1-.8.1-1.1zM466.3 167l.2.8 1.6-4.8h1.3l-2.7 7.3c-.2.4-.4.8-.7 1.1s-.7.5-1.2.5h-.4c-.2 0-.3 0-.3-.1l.1-.9h.5c.2 0 .4-.1.6-.3s.3-.5.4-.7l.3-.7-2.4-6.2h1.3l1.4 4zM470 166.1c0-.9.3-1.7.8-2.3s1.2-.9 2.1-.9c.9 0 1.6.3 2.1.9s.8 1.4.8 2.3v.1c0 .9-.3 1.7-.8 2.3s-1.2.9-2.1.9-1.6-.3-2.1-.9-.8-1.4-.8-2.3v-.1zm1.2.1c0 .7.1 1.2.4 1.7.3.4.7.7 1.3.7.6 0 1-.2 1.3-.7.3-.4.4-1 .4-1.7v-.1c0-.7-.1-1.2-.4-1.7-.3-.4-.7-.7-1.3-.7-.6 0-1 .2-1.3.7-.3.4-.4 1-.4 1.7v.1zM481.1 168.4c-.2.3-.5.6-.8.8s-.7.3-1.1.3c-.7 0-1.2-.2-1.6-.7s-.6-1.1-.6-2.1V163h1.2v3.8c0 .7.1 1.1.3 1.4s.5.4.9.4.7-.1 1-.2.5-.4.6-.7V163h1.2v6.3h-1l-.1-.9zM487.9 163l.1.8c.2-.3.5-.5.8-.7s.7-.2 1.1-.2.8.1 1.1.3.5.5.7.9c.2-.4.5-.6.8-.9s.7-.3 1.1-.3c.6 0 1.2.2 1.5.7s.6 1.1.6 2v3.8h-1.2v-3.8c0-.6-.1-1.1-.3-1.3s-.5-.4-1-.4c-.4 0-.7.1-1 .4s-.4.6-.4 1v4h-1.2v-3.8c0-.6-.1-1-.3-1.3s-.5-.4-1-.4c-.4 0-.6.1-.9.2s-.4.3-.5.6v4.7h-1.2V163h1.2zM501.3 169.3c0-.2-.1-.4-.1-.5v-.4c-.2.3-.5.6-.8.8s-.7.3-1.1.3c-.7 0-1.2-.2-1.5-.5s-.5-.8-.5-1.4c0-.6.2-1.1.7-1.4s1.2-.5 2-.5h1.3v-.7c0-.4-.1-.7-.3-.9s-.5-.3-1-.3c-.4 0-.7.1-.9.3s-.3.4-.3.7h-1.1c0-.5.2-.9.7-1.3s1.1-.6 1.8-.6 1.3.2 1.7.5.7.9.7 1.6v3.8c0 .3.1.4.1.6h-1.4zm-1.9-.8c.4 0 .8-.1 1.1-.3s.6-.5.7-.7v-1h-1.3c-.5 0-.8.1-1.1.4s-.4.5-.4.8c0 .3.1.5.3.7.1 0 .3.1.7.1zM505.8 167l.2.8 1.6-4.8h1.3l-2.7 7.3c-.2.4-.4.8-.7 1.1s-.7.5-1.2.5h-.4c-.2 0-.3 0-.3-.1l.1-.9h.5c.2 0 .4-.1.6-.3s.3-.5.4-.7l.3-.7-2.4-6.2h1.3l1.4 4zM514.1 163.8c.2-.3.5-.5.8-.7s.7-.3 1.1-.3c.7 0 1.2.2 1.6.6s.6 1 .6 1.9v4H517v-4c0-.5-.1-.9-.3-1.2s-.6-.4-1-.4c-.3 0-.6.1-.9.2s-.5.4-.6.6v4.7H513v-9.1h1.2v3.7zM523.6 169.3c0-.2-.1-.4-.1-.5v-.4c-.2.3-.5.6-.8.8s-.7.3-1.1.3c-.7 0-1.2-.2-1.5-.5s-.5-.8-.5-1.4c0-.6.2-1.1.7-1.4s1.2-.5 2-.5h1.3v-.7c0-.4-.1-.7-.3-.9s-.5-.3-1-.3c-.4 0-.7.1-.9.3s-.3.4-.3.7H520c0-.5.2-.9.7-1.3s1.1-.6 1.8-.6 1.3.2 1.7.5.7.9.7 1.6v3.8c0 .3.1.4.1.6h-1.4zm-1.9-.8c.4 0 .8-.1 1.1-.3s.6-.5.7-.7v-1h-1.3c-.5 0-.8.1-1.1.4s-.4.5-.4.8c0 .3.1.5.3.7.1 0 .4.1.7.1zM528.4 167.5l.1.4.1-.4 1.5-4.5h1.2l-2.3 6.3h-1l-2.4-6.3h1.2l1.6 4.5zM534.8 169.5c-.9 0-1.6-.3-2.1-.9s-.8-1.4-.8-2.3v-.3c0-.9.3-1.7.8-2.3s1.2-.9 1.9-.9c.9 0 1.5.3 1.9.8s.7 1.2.7 2.1v.7h-4.1c0 .6.2 1.1.5 1.5s.7.6 1.2.6c.4 0 .7-.1 1-.2s.5-.3.8-.5l.5.8c-.2.2-.5.4-.9.6-.4.2-.8.3-1.4.3zm-.1-5.7c-.4 0-.7.2-1 .5s-.4.7-.5 1.2h2.9v-.2c0-.5-.1-.8-.4-1.1-.2-.3-.6-.4-1-.4zM539.5 169.1l-.9 1.8h-.6l.4-1.9v-1h1.2v1.1z"/></g><g><path d="M117.9 185.3h-1.2v-8.5h1.2v8.5zM124.5 183l.1.8.2-.8 1.3-4h.9l1.3 4 .2.9.2-.9 1-4h1.1l-1.8 6.3h-.9l-1.2-3.9-.3-1.1-.3 1.1-1.2 3.9h-.9l-1.8-6.3h1.1l1 4zM133.2 177.4H132v-1.2h1.2v1.2zm0 7.9H132V179h1.2v6.3zM136.2 185.3H135v-9.1h1.2v9.1zM139.3 185.3h-1.2v-9.1h1.2v9.1zM147.7 183.6c0-.3-.1-.5-.3-.6s-.6-.3-1.1-.4c-.8-.2-1.3-.4-1.7-.7-.4-.3-.6-.7-.6-1.2s.2-1 .7-1.3c.4-.4 1-.5 1.7-.5s1.3.2 1.8.6.6.8.6 1.4h-1.1c0-.3-.1-.5-.3-.7s-.5-.3-.9-.3-.7.1-.9.3-.3.4-.3.7c0 .2.1.4.3.6s.5.3 1.1.4c.8.2 1.4.4 1.8.7s.6.7.6 1.2c0 .6-.2 1-.7 1.4s-1 .5-1.8.5-1.4-.2-1.9-.6-.7-.9-.7-1.4h1.1c0 .4.2.7.5.9.3.2.6.3 1 .3s.7-.1 1-.2.1-.8.1-1.1zM154.3 184.4c-.2.3-.5.6-.8.8s-.7.3-1.1.3c-.7 0-1.2-.2-1.6-.7s-.6-1.1-.6-2.1V179h1.2v3.8c0 .7.1 1.1.3 1.4s.5.4.9.4.7-.1 1-.2.5-.4.6-.7V179h1.2v6.3h-1l-.1-.9zM160.1 180h-.6c-.3 0-.6.1-.8.2s-.4.3-.5.6v4.5H157V179h1l.1.9c.2-.3.4-.6.7-.8s.6-.3.9-.3h.4v1.2zM163.7 185.5c-.9 0-1.6-.3-2.1-.9s-.8-1.4-.8-2.3v-.3c0-.9.3-1.7.8-2.3s1.2-.9 1.9-.9c.9 0 1.5.3 1.9.8s.7 1.2.7 2.1v.7H162c0 .6.2 1.1.5 1.5s.7.6 1.2.6c.4 0 .7-.1 1-.2s.5-.3.8-.5l.5.8c-.2.2-.5.4-.9.6-.4.2-.8.3-1.4.3zm-.1-5.7c-.4 0-.7.2-1 .5s-.4.7-.5 1.2h2.9v-.2c0-.5-.1-.8-.4-1.1-.2-.3-.6-.4-1-.4zM172.4 182.4h-.8v2.9h-1.2v-9.1h1.2v5.3h.7l1.7-2.5h1.4l-2.2 2.9 2.5 3.5h-1.4l-1.9-3zM179.1 185.5c-.9 0-1.6-.3-2.1-.9s-.8-1.4-.8-2.3v-.3c0-.9.3-1.7.8-2.3s1.2-.9 1.9-.9c.9 0 1.5.3 1.9.8s.7 1.2.7 2.1v.7h-4.1c0 .6.2 1.1.5 1.5s.7.6 1.2.6c.4 0 .7-.1 1-.2s.5-.3.8-.5l.5.8c-.2.2-.5.4-.9.6-.4.2-.9.3-1.4.3zm-.2-5.7c-.4 0-.7.2-1 .5s-.4.7-.5 1.2h2.9v-.2c0-.5-.1-.8-.4-1.1-.1-.3-.5-.4-1-.4zM185.5 185.5c-.9 0-1.6-.3-2.1-.9s-.8-1.4-.8-2.3v-.3c0-.9.3-1.7.8-2.3s1.2-.9 1.9-.9c.9 0 1.5.3 1.9.8s.7 1.2.7 2.1v.7h-4.1c0 .6.2 1.1.5 1.5s.7.6 1.2.6c.4 0 .7-.1 1-.2s.5-.3.8-.5l.5.8c-.2.2-.5.4-.9.6-.5.2-.9.3-1.4.3zm-.2-5.7c-.4 0-.7.2-1 .5s-.4.7-.5 1.2h2.9v-.2c0-.5-.1-.8-.4-1.1-.2-.3-.5-.4-1-.4zM194.6 182.4c0 .9-.2 1.7-.7 2.2s-1 .8-1.8.8c-.4 0-.7-.1-1-.2s-.5-.3-.8-.6v3.1h-1.2V179h.9l.2.8c.2-.3.5-.5.8-.7s.7-.2 1.1-.2c.8 0 1.4.3 1.8.9s.7 1.4.7 2.5v.1zm-1.2-.1c0-.7-.1-1.3-.4-1.8-.3-.5-.7-.7-1.3-.7-.3 0-.6.1-.8.2s-.4.4-.6.6v3.1c.1.3.3.5.6.6s.5.2.9.2c.5 0 1-.2 1.2-.6.3-.4.4-.9.4-1.5v-.1zM203 184.4c-.2.3-.5.6-.8.8s-.7.3-1.1.3c-.7 0-1.2-.2-1.6-.7s-.6-1.1-.6-2.1V179h1.2v3.8c0 .7.1 1.1.3 1.4s.5.4.9.4.7-.1 1-.2.5-.4.6-.7V179h1.2v6.3h-1l-.1-.9zM209.5 183.6c0-.3-.1-.5-.3-.6s-.6-.3-1.1-.4c-.8-.2-1.3-.4-1.7-.7-.4-.3-.6-.7-.6-1.2s.2-1 .7-1.3c.4-.4 1-.5 1.7-.5s1.3.2 1.8.6.6.8.6 1.4h-1.1c0-.3-.1-.5-.3-.7s-.5-.3-.9-.3-.7.1-.9.3-.3.4-.3.7c0 .2.1.4.3.6s.5.3 1.1.4c.8.2 1.4.4 1.8.7s.6.7.6 1.2c0 .6-.2 1-.7 1.4s-1 .5-1.8.5-1.4-.2-1.9-.6-.7-.9-.7-1.4h1.1c0 .4.2.7.5.9.3.2.6.3 1 .3s.7-.1 1-.2.1-.8.1-1.1zM213.3 177.4h-1.2v-1.2h1.2v1.2zm0 7.9h-1.2V179h1.2v6.3zM216.1 179l.1.9c.2-.3.5-.6.8-.8s.7-.3 1.1-.3c.7 0 1.2.2 1.6.6s.6 1 .6 1.9v4h-1.2v-4c0-.6-.1-1-.3-1.2s-.6-.4-1-.4c-.3 0-.6.1-.9.2s-.5.4-.6.7v4.6h-1.2V179h1zM221.7 182.3c0-1 .2-1.8.7-2.5s1.1-.9 1.8-.9c.4 0 .8.1 1.1.2s.6.4.8.7l.1-.8h.9v6.4c0 .8-.2 1.4-.7 1.9s-1.2.7-2 .7c-.3 0-.6 0-1-.1s-.7-.2-.9-.3l.3-.9c.2.1.5.2.8.3s.6.1.9.1c.6 0 1-.1 1.2-.4s.4-.6.4-1.2v-.7c-.2.3-.5.5-.7.6s-.6.2-1 .2c-.8 0-1.4-.3-1.8-.8s-.7-1.3-.7-2.2v-.3zm1.1.1c0 .6.1 1.1.4 1.5s.7.6 1.2.6c.3 0 .6-.1.9-.2s.4-.4.6-.7v-2.9c-.1-.3-.3-.5-.6-.6s-.5-.2-.9-.2c-.6 0-1 .2-1.2.7s-.4 1.1-.4 1.8zM232.9 179.8c.2-.3.5-.5.8-.7s.7-.3 1.1-.3c.7 0 1.2.2 1.6.6s.6 1 .6 1.9v4h-1.2v-4c0-.5-.1-.9-.3-1.2s-.6-.4-1-.4c-.3 0-.6.1-.9.2s-.5.4-.6.6v4.7h-1.2v-9.1h1.2v3.7zM239.8 177.4h-1.2v-1.2h1.2v1.2zm0 7.9h-1.2V179h1.2v6.3zM245.2 183.6c0-.3-.1-.5-.3-.6s-.6-.3-1.1-.4c-.8-.2-1.3-.4-1.7-.7-.4-.3-.6-.7-.6-1.2s.2-1 .7-1.3c.4-.4 1-.5 1.7-.5s1.3.2 1.8.6.6.8.6 1.4h-1.1c0-.3-.1-.5-.3-.7s-.5-.3-.9-.3-.7.1-.9.3-.3.4-.3.7c0 .2.1.4.3.6s.5.3 1.1.4c.8.2 1.4.4 1.8.7s.6.7.6 1.2c0 .6-.2 1-.7 1.4s-1 .5-1.8.5-1.4-.2-1.9-.6-.7-.9-.7-1.4h1.1c0 .4.2.7.5.9.3.2.6.3 1 .3s.7-.1 1-.2.1-.8.1-1.1zM254.5 183.6c0-.3-.1-.5-.3-.6s-.6-.3-1.1-.4c-.8-.2-1.3-.4-1.7-.7-.4-.3-.6-.7-.6-1.2s.2-1 .7-1.3c.4-.4 1-.5 1.7-.5s1.3.2 1.8.6.6.8.6 1.4h-1.1c0-.3-.1-.5-.3-.7s-.5-.3-.9-.3-.7.1-.9.3-.3.4-.3.7c0 .2.1.4.3.6s.5.3 1.1.4c.8.2 1.4.4 1.8.7s.6.7.6 1.2c0 .6-.2 1-.7 1.4s-1 .5-1.8.5-1.4-.2-1.9-.6-.7-.9-.7-1.4h1.1c0 .4.2.7.5.9.3.2.6.3 1 .3s.7-.1 1-.2.1-.8.1-1.1zM259.7 185.5c-.9 0-1.6-.3-2.1-.9s-.8-1.4-.8-2.3v-.3c0-.9.3-1.7.8-2.3s1.2-.9 1.9-.9c.9 0 1.5.3 1.9.8s.7 1.2.7 2.1v.7H258c0 .6.2 1.1.5 1.5s.7.6 1.2.6c.4 0 .7-.1 1-.2s.5-.3.8-.5l.5.8c-.2.2-.5.4-.9.6-.4.2-.9.3-1.4.3zm-.2-5.7c-.4 0-.7.2-1 .5s-.4.7-.5 1.2h2.9v-.2c0-.5-.1-.8-.4-1.1-.1-.3-.5-.4-1-.4zM266.4 180h-.6c-.3 0-.6.1-.8.2s-.4.3-.5.6v4.5h-1.2V179h1l.1.9c.2-.3.4-.6.7-.8s.6-.3.9-.3h.4v1.2zM269.8 183.5l.1.4.1-.4 1.5-4.5h1.2l-2.3 6.3h-.9l-2.4-6.3h1.2l1.5 4.5zM274.9 177.4h-1.2v-1.2h1.2v1.2zm0 7.9h-1.2V179h1.2v6.3zM279.3 184.5c.4 0 .7-.1 1-.4s.4-.5.4-.9h1c0 .5-.2 1-.7 1.5s-1.1.6-1.8.6c-.9 0-1.6-.3-2.1-.9s-.7-1.4-.7-2.3v-.1c0-.9.2-1.7.7-2.3s1.2-.9 2.1-.9c.7 0 1.3.2 1.8.7s.7 1 .7 1.6h-1c0-.4-.1-.7-.4-1s-.6-.4-1-.4c-.6 0-1 .2-1.3.7-.3.4-.4 1-.4 1.6v.2c0 .6.1 1.2.4 1.6.2.5.7.7 1.3.7zM285.7 185.5c-.9 0-1.6-.3-2.1-.9s-.8-1.4-.8-2.3v-.3c0-.9.3-1.7.8-2.3s1.2-.9 1.9-.9c.9 0 1.5.3 1.9.8s.7 1.2.7 2.1v.7H284c0 .6.2 1.1.5 1.5s.7.6 1.2.6c.4 0 .7-.1 1-.2s.5-.3.8-.5l.5.8c-.2.2-.5.4-.9.6-.4.2-.9.3-1.4.3zm-.2-5.7c-.4 0-.7.2-1 .5s-.4.7-.5 1.2h2.9v-.2c0-.5-.1-.8-.4-1.1-.1-.3-.5-.4-1-.4zM293.1 183.6c0-.3-.1-.5-.3-.6s-.6-.3-1.1-.4c-.8-.2-1.3-.4-1.7-.7-.4-.3-.6-.7-.6-1.2s.2-1 .7-1.3c.4-.4 1-.5 1.7-.5s1.3.2 1.8.6.6.8.6 1.4H293c0-.3-.1-.5-.3-.7s-.5-.3-.9-.3-.7.1-.9.3-.3.4-.3.7c0 .2.1.4.3.6s.5.3 1.1.4c.8.2 1.4.4 1.8.7s.6.7.6 1.2c0 .6-.2 1-.7 1.4s-1 .5-1.8.5-1.4-.2-1.9-.6-.7-.9-.7-1.4h1.1c0 .4.2.7.5.9.3.2.6.3 1 .3s.7-.1 1-.2.2-.8.2-1.1zM297 185.3h-1.2v-1.2h1.2v1.2zM300.2 185.3H299v-1.2h1.2v1.2zM303.4 185.3h-1.2v-1.2h1.2v1.2zM311.1 183.2l.2.7.2-.7 2.2-6.4h1.2l-3.2 8.5h-1l-3.2-8.5h1.3l2.3 6.4zM318.3 185.5c-.9 0-1.6-.3-2.1-.9s-.8-1.4-.8-2.3v-.3c0-.9.3-1.7.8-2.3s1.2-.9 1.9-.9c.9 0 1.5.3 1.9.8s.7 1.2.7 2.1v.7h-4.1c0 .6.2 1.1.5 1.5s.7.6 1.2.6c.4 0 .7-.1 1-.2s.5-.3.8-.5l.5.8c-.2.2-.5.4-.9.6-.4.2-.9.3-1.4.3zm-.2-5.7c-.4 0-.7.2-1 .5s-.4.7-.5 1.2h2.9v-.2c0-.5-.1-.8-.4-1.1-.2-.3-.5-.4-1-.4zM325 180h-.6c-.3 0-.6.1-.8.2s-.4.3-.5.6v4.5H322V179h1l.1.9c.2-.3.4-.6.7-.8s.6-.3.9-.3h.4l-.1 1.2zM328.2 183l.2.8 1.6-4.8h1.3l-2.7 7.3c-.2.4-.4.8-.7 1.1s-.7.5-1.2.5h-.4c-.2 0-.3 0-.3-.1l.1-.9h.5c.2 0 .4-.1.6-.3s.3-.5.4-.7l.3-.7-2.4-6.2h1.3l1.4 4zM337.8 184.5c.4 0 .7-.1 1-.4s.4-.5.4-.9h1c0 .5-.2 1-.7 1.5s-1.1.6-1.8.6c-.9 0-1.6-.3-2.1-.9s-.7-1.4-.7-2.3v-.1c0-.9.2-1.7.7-2.3s1.2-.9 2.1-.9c.7 0 1.3.2 1.8.7s.7 1 .7 1.6h-1c0-.4-.1-.7-.4-1s-.6-.4-1-.4c-.6 0-1 .2-1.3.7-.3.4-.4 1-.4 1.6v.2c0 .6.1 1.2.4 1.6.3.5.7.7 1.3.7zM344.6 180h-.6c-.3 0-.6.1-.8.2s-.4.3-.5.6v4.5h-1.2V179h1l.1.9c.2-.3.4-.6.7-.8s.6-.3.9-.3h.4v1.2zM348.2 185.5c-.9 0-1.6-.3-2.1-.9s-.8-1.4-.8-2.3v-.3c0-.9.3-1.7.8-2.3s1.2-.9 1.9-.9c.9 0 1.5.3 1.9.8s.7 1.2.7 2.1v.7h-4.1c0 .6.2 1.1.5 1.5s.7.6 1.2.6c.4 0 .7-.1 1-.2s.5-.3.8-.5l.5.8c-.2.2-.5.4-.9.6-.4.2-.8.3-1.4.3zm-.1-5.7c-.4 0-.7.2-1 .5s-.4.7-.5 1.2h2.9v-.2c0-.5-.1-.8-.4-1.1-.2-.3-.6-.4-1-.4zM355.8 185.3c0-.2-.1-.4-.1-.5v-.4c-.2.3-.5.6-.8.8s-.7.3-1.1.3c-.7 0-1.2-.2-1.5-.5s-.5-.8-.5-1.4c0-.6.2-1.1.7-1.4s1.2-.5 2-.5h1.3v-.7c0-.4-.1-.7-.3-.9s-.5-.3-1-.3c-.4 0-.7.1-.9.3s-.3.4-.3.7h-1.1c0-.5.2-.9.7-1.3s1.1-.6 1.8-.6 1.3.2 1.7.5.7.9.7 1.6v3.8c0 .3.1.4.1.6h-1.4zm-1.9-.8c.4 0 .8-.1 1.1-.3s.6-.5.7-.7v-1h-1.3c-.5 0-.8.1-1.1.4s-.4.5-.4.8c0 .3.1.5.3.7.1 0 .4.1.7.1zM360.1 177.5v1.5h1.2v.9h-1.2v3.8c0 .3.1.5.2.6s.3.2.5.2h.2c.1 0 .2 0 .2-.1l.2.8c-.1.1-.2.1-.4.2s-.3.1-.5.1c-.5 0-.8-.1-1.1-.4s-.4-.7-.4-1.3V180h-1v-1h1v-1.5h1.1zM363.9 177.4h-1.2v-1.2h1.2v1.2zm0 7.9h-1.2V179h1.2v6.3zM367.8 183.5l.1.4.1-.4 1.5-4.5h1.2l-2.3 6.3h-.9l-2.4-6.3h1.2l1.5 4.5zM374.3 185.5c-.9 0-1.6-.3-2.1-.9s-.8-1.4-.8-2.3v-.3c0-.9.3-1.7.8-2.3s1.2-.9 1.9-.9c.9 0 1.5.3 1.9.8s.7 1.2.7 2.1v.7h-4.1c0 .6.2 1.1.5 1.5s.7.6 1.2.6c.4 0 .7-.1 1-.2s.5-.3.8-.5l.5.8c-.2.2-.5.4-.9.6-.4.2-.9.3-1.4.3zm-.2-5.7c-.4 0-.7.2-1 .5s-.4.7-.5 1.2h2.9v-.2c0-.5-.1-.8-.4-1.1-.1-.3-.5-.4-1-.4zM384.9 185.3c0-.2-.1-.4-.1-.5v-.4c-.2.3-.5.6-.8.8s-.7.3-1.1.3c-.7 0-1.2-.2-1.5-.5s-.5-.8-.5-1.4c0-.6.2-1.1.7-1.4s1.2-.5 2-.5h1.3v-.7c0-.4-.1-.7-.3-.9s-.5-.3-1-.3c-.4 0-.7.1-.9.3s-.3.4-.3.7h-1.1c0-.5.2-.9.7-1.3s1.1-.6 1.8-.6 1.3.2 1.7.5.7.9.7 1.6v3.8c0 .3.1.4.1.6h-1.4zm-1.9-.8c.4 0 .8-.1 1.1-.3s.6-.5.7-.7v-1h-1.3c-.5 0-.8.1-1.1.4s-.4.5-.4.8c0 .3.1.5.3.7.1 0 .3.1.7.1zM388.6 179l.1.9c.2-.3.5-.6.8-.8s.7-.3 1.1-.3c.7 0 1.2.2 1.6.6s.6 1 .6 1.9v4h-1.2v-4c0-.6-.1-1-.3-1.2s-.6-.4-1-.4c-.3 0-.6.1-.9.2s-.5.4-.6.7v4.6h-1.2V179h1zM394.2 182.3c0-1 .2-1.8.7-2.5s1-.9 1.8-.9c.4 0 .7.1 1 .2s.5.3.7.6v-3.5h1.2v9.1h-.9l-.1-.8c-.2.3-.5.5-.8.7s-.7.2-1 .2c-.8 0-1.4-.3-1.8-.8s-.7-1.3-.7-2.2v-.1zm1.1.1c0 .6.1 1.2.4 1.5s.7.6 1.2.6c.3 0 .6-.1.9-.2s.4-.4.6-.7v-3c-.1-.3-.3-.5-.6-.6s-.5-.2-.9-.2c-.6 0-1 .2-1.2.7s-.4 1.1-.4 1.8v.1zM409.6 182.4c0 .9-.2 1.7-.7 2.2s-1 .8-1.8.8c-.4 0-.7-.1-1-.2s-.5-.3-.8-.6v3.1h-1.2V179h.9l.2.8c.2-.3.5-.5.8-.7s.7-.2 1.1-.2c.8 0 1.4.3 1.8.9s.7 1.4.7 2.5v.1zm-1.1-.1c0-.7-.1-1.3-.4-1.8-.3-.5-.7-.7-1.3-.7-.3 0-.6.1-.8.2s-.4.4-.6.6v3.1c.1.3.3.5.6.6s.5.2.9.2c.5 0 1-.2 1.2-.6.3-.4.4-.9.4-1.5v-.1zM414 180h-.6c-.3 0-.6.1-.8.2s-.4.3-.5.6v4.5H411V179h1l.1.9c.2-.3.4-.6.7-.8s.6-.3.9-.3h.4l-.1 1.2zM414.8 182.1c0-.9.3-1.7.8-2.3s1.2-.9 2.1-.9c.9 0 1.6.3 2.1.9s.8 1.4.8 2.3v.1c0 .9-.3 1.7-.8 2.3s-1.2.9-2.1.9-1.6-.3-2.1-.9-.8-1.4-.8-2.3v-.1zm1.1.1c0 .7.1 1.2.4 1.7.3.4.7.7 1.3.7.6 0 1-.2 1.3-.7.3-.4.4-1 .4-1.7v-.1c0-.7-.1-1.2-.4-1.7-.3-.4-.7-.7-1.3-.7-.6 0-1 .2-1.3.7-.3.4-.4 1-.4 1.7v.1zM422.3 185.3v-5.5h-1v-.8h1v-.8c0-.7.2-1.2.5-1.6s.8-.6 1.5-.6h.4c.1 0 .3.1.4.1l-.1.9h-.6c-.3 0-.6.1-.8.3s-.2.5-.2.9v.8h1.3v.9h-1.3v5.5h-1.1zM428.5 185.5c-.9 0-1.6-.3-2.1-.9s-.8-1.4-.8-2.3v-.3c0-.9.3-1.7.8-2.3s1.2-.9 1.9-.9c.9 0 1.5.3 1.9.8s.7 1.2.7 2.1v.7h-4.1c0 .6.2 1.1.5 1.5s.7.6 1.2.6c.4 0 .7-.1 1-.2s.5-.3.8-.5l.5.8c-.2.2-.5.4-.9.6-.4.2-.9.3-1.4.3zm-.2-5.7c-.4 0-.7.2-1 .5s-.4.7-.5 1.2h2.9v-.2c0-.5-.1-.8-.4-1.1-.1-.3-.5-.4-1-.4zM435.9 183.6c0-.3-.1-.5-.3-.6s-.6-.3-1.1-.4c-.8-.2-1.3-.4-1.7-.7-.4-.3-.6-.7-.6-1.2s.2-1 .7-1.3c.4-.4 1-.5 1.7-.5s1.3.2 1.8.6.6.8.6 1.4h-1.1c0-.3-.1-.5-.3-.7s-.5-.3-.9-.3-.7.1-.9.3-.3.4-.3.7c0 .2.1.4.3.6s.5.3 1.1.4c.8.2 1.4.4 1.8.7s.6.7.6 1.2c0 .6-.2 1-.7 1.4s-1 .5-1.8.5-1.4-.2-1.9-.6-.7-.9-.7-1.4h1.1c0 .4.2.7.5.9.3.2.6.3 1 .3s.7-.1 1-.2.1-.8.1-1.1zM442.2 183.6c0-.3-.1-.5-.3-.6s-.6-.3-1.1-.4c-.8-.2-1.3-.4-1.7-.7-.4-.3-.6-.7-.6-1.2s.2-1 .7-1.3c.4-.4 1-.5 1.7-.5s1.3.2 1.8.6.6.8.6 1.4h-1.1c0-.3-.1-.5-.3-.7s-.5-.3-.9-.3-.7.1-.9.3-.3.4-.3.7c0 .2.1.4.3.6s.5.3 1.1.4c.8.2 1.4.4 1.8.7s.6.7.6 1.2c0 .6-.2 1-.7 1.4s-1 .5-1.8.5-1.4-.2-1.9-.6-.7-.9-.7-1.4h1.1c0 .4.2.7.5.9.3.2.6.3 1 .3s.7-.1 1-.2.1-.8.1-1.1zM446 177.4h-1.2v-1.2h1.2v1.2zm0 7.9h-1.2V179h1.2v6.3zM447.5 182.1c0-.9.3-1.7.8-2.3s1.2-.9 2.1-.9c.9 0 1.6.3 2.1.9s.8 1.4.8 2.3v.1c0 .9-.3 1.7-.8 2.3s-1.2.9-2.1.9-1.6-.3-2.1-.9-.8-1.4-.8-2.3v-.1zm1.2.1c0 .7.1 1.2.4 1.7.3.4.7.7 1.3.7.6 0 1-.2 1.3-.7.3-.4.4-1 .4-1.7v-.1c0-.7-.1-1.2-.4-1.7-.3-.4-.7-.7-1.3-.7-.6 0-1 .2-1.3.7-.3.4-.4 1-.4 1.7v.1zM455.6 179l.1.9c.2-.3.5-.6.8-.8s.7-.3 1.1-.3c.7 0 1.2.2 1.6.6s.6 1 .6 1.9v4h-1.2v-4c0-.6-.1-1-.3-1.2s-.6-.4-1-.4c-.3 0-.6.1-.9.2s-.5.4-.6.7v4.6h-1.2V179h1zM465.3 185.3c0-.2-.1-.4-.1-.5v-.4c-.2.3-.5.6-.8.8s-.7.3-1.1.3c-.7 0-1.2-.2-1.5-.5s-.5-.8-.5-1.4c0-.6.2-1.1.7-1.4s1.2-.5 2-.5h1.3v-.7c0-.4-.1-.7-.3-.9s-.5-.3-1-.3c-.4 0-.7.1-.9.3s-.3.4-.3.7h-1.1c0-.5.2-.9.7-1.3s1.1-.6 1.8-.6 1.3.2 1.7.5.7.9.7 1.6v3.8c0 .3.1.4.1.6h-1.4zm-1.9-.8c.4 0 .8-.1 1.1-.3s.6-.5.7-.7v-1h-1.3c-.5 0-.8.1-1.1.4s-.4.5-.4.8c0 .3.1.5.3.7.1 0 .4.1.7.1zM469.3 185.3h-1.2v-9.1h1.2v9.1zM472.3 185.3h-1.2v-1.2h1.2v1.2zM473.7 177.3l-.9 2h-.6l.4-2v-1.1h1.2v1.1zm2 0l-.9 2h-.6l.4-2v-1.1h1.2v1.1z"/></g><g><path class="st0" d="M345.5 204.9h-4.2v-1.3h4.2v1.3zM358.6 206.3h-5.3l-1.2 3.2h-1.7l4.9-12.6h1.5l4.8 12.6h-1.7l-1.3-3.2zm-4.7-1.4h4.2l-2.1-5.7-2.1 5.7zM367.7 209.6V197h4.1c1.3 0 2.3.3 3.1.9.7.6 1.1 1.4 1.1 2.6 0 .6-.2 1.1-.5 1.5-.4.4-.8.8-1.4 1 .8.2 1.4.5 1.8 1.1.4.6.7 1.3.7 2 0 1.2-.4 2-1.1 2.6s-1.8.9-3 .9h-4.8zm1.7-7.3h2.8c.6 0 1.2-.2 1.6-.5s.6-.8.6-1.5-.2-1.2-.6-1.5-1-.5-1.9-.5h-2.4v4zm0 1.4v4.6h3c.8 0 1.4-.2 1.8-.6.4-.4.6-.9.6-1.6 0-.7-.2-1.3-.5-1.7s-.9-.6-1.7-.6h-3.2zM383.1 201.7l-.9-.1c-.5 0-.8.1-1.1.3-.3.2-.5.5-.7.9v6.7h-1.7v-9.4h1.5l.2 1.4c.3-.5.6-.9 1-1.1.4-.3.8-.4 1.3-.4h.4c.1 0 .2 0 .3.1l-.3 1.6zM386.6 197.8h-1.7v-1.7h1.7v1.7zm0 11.8h-1.7v-9.4h1.7v9.4zM391.5 197.9v2.3h1.8v1.3h-1.8v5.7c0 .4.1.7.3.9.2.2.4.3.7.3h.3c.1 0 .2-.1.3-.1l.2 1.2c-.1.1-.3.2-.6.3-.2.1-.5.1-.7.1-.7 0-1.2-.2-1.7-.6s-.6-1.1-.6-2v-5.7h-1.5v-1.3h1.5V198h1.8zM401.9 209.6h-1.7V197h1.7v12.6zM406.3 200.2l.1 1.4c.3-.5.7-.9 1.2-1.2s1-.4 1.6-.4c1 0 1.8.3 2.3.9.6.6.8 1.5.8 2.7v5.9h-1.7v-5.9c0-.8-.2-1.4-.5-1.8s-.8-.5-1.5-.5c-.5 0-.9.1-1.3.4-.4.2-.7.6-.9 1v6.8h-1.7v-9.4h1.6zM428.2 198.3h-4.1v11.3h-1.7v-11.3h-4V197h9.8v1.3zM431.4 201.5c.3-.5.7-.8 1.2-1.1.5-.3 1-.4 1.6-.4 1 0 1.8.3 2.3.9.6.6.8 1.5.8 2.8v5.9h-1.7v-5.9c0-.8-.2-1.3-.5-1.7-.3-.4-.8-.6-1.5-.6-.5 0-.9.1-1.3.3-.4.2-.7.5-.9.9v6.9h-1.7V196h1.7v5.5zM443.7 209.8c-1.3 0-2.3-.4-3.1-1.3-.8-.9-1.2-2-1.2-3.4v-.4c0-1.3.4-2.4 1.2-3.3s1.7-1.3 2.8-1.3c1.3 0 2.2.4 2.9 1.1.6.8 1 1.8 1 3v1.1h-6.1c0 .9.2 1.6.7 2.2.4.6 1.1.9 1.8.9.6 0 1.1-.1 1.5-.2.4-.2.8-.4 1.1-.7l.7 1.1c-.3.3-.8.6-1.3.8-.6.3-1.2.4-2 .4zm-.3-8.4c-.6 0-1.1.2-1.5.7s-.7 1.1-.7 1.8h4.3v-.2c0-.7-.2-1.2-.5-1.7-.3-.4-.9-.6-1.6-.6zM455.6 204.5v5.1h-1.7V197h4.8c1.3 0 2.4.3 3.1 1 .7.7 1.1 1.6 1.1 2.7s-.4 2.1-1.1 2.8c-.7.7-1.8 1-3.1 1h-3.1zm0-1.3h3.1c.9 0 1.5-.2 1.9-.7.4-.5.6-1 .6-1.7s-.2-1.3-.6-1.7c-.4-.5-1.1-.7-1.9-.7h-3.1v4.8zM466.7 201.5c.3-.5.7-.8 1.2-1.1.5-.3 1-.4 1.6-.4 1 0 1.8.3 2.3.9.6.6.8 1.5.8 2.8v5.9h-1.7v-5.9c0-.8-.2-1.3-.5-1.7-.3-.4-.8-.6-1.5-.6-.5 0-.9.1-1.3.3-.4.2-.7.5-.9.9v6.9H465V196h1.7v5.5zM476.9 197.8h-1.7v-1.7h1.7v1.7zm0 11.8h-1.7v-9.4h1.7v9.4zM481.4 209.6h-1.7v-13.5h1.7v13.5zM485.8 197.8h-1.7v-1.7h1.7v1.7zm0 11.8h-1.7v-9.4h1.7v9.4zM496.4 205.2c0 1.4-.3 2.4-1 3.3-.6.8-1.5 1.2-2.7 1.2-.6 0-1.1-.1-1.5-.3-.4-.2-.8-.5-1.1-.9v4.6h-1.7v-13h1.3l.3 1.2c.3-.5.7-.8 1.1-1 .5-.2 1-.4 1.6-.4 1.2 0 2.1.5 2.7 1.4.6.9 1 2.1 1 3.7v.2zm-1.7-.1c0-1.1-.2-1.9-.6-2.6-.4-.7-1-1-1.8-1-.5 0-.9.1-1.3.3s-.6.5-.8.9v4.5c.2.4.5.7.8.9.3.2.8.3 1.3.3.8 0 1.4-.3 1.8-.9.4-.6.6-1.4.6-2.3v-.1zM506.5 205.2c0 1.4-.3 2.4-1 3.3-.6.8-1.5 1.2-2.7 1.2-.6 0-1.1-.1-1.5-.3-.4-.2-.8-.5-1.1-.9v4.6h-1.7v-13h1.3l.3 1.2c.3-.5.7-.8 1.1-1 .5-.2 1-.4 1.6-.4 1.2 0 2.1.5 2.7 1.4.6.9 1 2.1 1 3.7v.2zm-1.7-.1c0-1.1-.2-1.9-.6-2.6-.4-.7-1-1-1.8-1-.5 0-.9.1-1.3.3s-.6.5-.8.9v4.5c.2.4.5.7.8.9.3.2.8.3 1.3.3.8 0 1.4-.3 1.8-.9.4-.6.6-1.4.6-2.3v-.1zM510.5 197.8h-1.7v-1.7h1.7v1.7zm0 11.8h-1.7v-9.4h1.7v9.4zM514.6 200.2l.1 1.4c.3-.5.7-.9 1.2-1.2s1-.4 1.6-.4c1 0 1.8.3 2.3.9.6.6.8 1.5.8 2.7v5.9H519v-5.9c0-.8-.2-1.4-.5-1.8s-.8-.5-1.5-.5c-.5 0-.9.1-1.3.4-.4.2-.7.6-.9 1v6.8h-1.7v-9.4h1.5zM527.1 209.8c-1.3 0-2.3-.4-3.1-1.3-.8-.9-1.2-2-1.2-3.4v-.4c0-1.3.4-2.4 1.2-3.3s1.7-1.3 2.8-1.3c1.3 0 2.2.4 2.9 1.1.6.8 1 1.8 1 3v1.1h-6.1c0 .9.2 1.6.7 2.2.4.6 1.1.9 1.8.9.6 0 1.1-.1 1.5-.2.4-.2.8-.4 1.1-.7l.7 1.1c-.3.3-.8.6-1.3.8-.6.3-1.3.4-2 .4zm-.3-8.4c-.6 0-1.1.2-1.5.7s-.7 1.1-.7 1.8h4.3v-.2c0-.7-.2-1.2-.5-1.7-.4-.4-.9-.6-1.6-.6zM538 207.1c0-.4-.1-.7-.4-.9-.3-.2-.8-.5-1.6-.6-1.1-.2-2-.6-2.6-1-.6-.4-.9-1-.9-1.7 0-.8.3-1.4 1-1.9.6-.5 1.5-.8 2.5-.8 1.1 0 2 .3 2.6.8.6.6 1 1.2.9 2v.1h-1.6c0-.4-.2-.8-.5-1.1-.3-.3-.8-.5-1.4-.5-.6 0-1.1.1-1.4.4-.3.3-.4.6-.4 1s.1.7.4.9c.3.2.8.4 1.6.6 1.2.3 2.1.6 2.6 1 .6.4.9 1 .9 1.8s-.3 1.5-1 2-1.6.8-2.6.8c-1.2 0-2.1-.3-2.8-.9-.7-.6-1-1.3-1-2.1v-.1h1.6c0 .6.3 1 .7 1.3.4.3.9.4 1.5.4s1.1-.1 1.4-.4c.3-.4.5-.7.5-1.1z"/></g></svg>