<?xml version="1.0" encoding="utf-8"?>
<!-- Generator: Adobe Illustrator 19.2.1, SVG Export Plug-In . SVG Version: 6.00 Build 0)  -->
<svg version="1.1" id="_x23_1" xmlns="http://www.w3.org/2000/svg" xmlns:xlink="http://www.w3.org/1999/xlink" x="0px" y="0px"
	 viewBox="0 0 960 560" style="enable-background:new 0 0 960 560;" xml:space="preserve">
<style type="text/css">
	.st0{font-family:'Roboto-Light';}
	.st1{font-size:12px;}
	.st2{fill:none;stroke:#6DA2A3;stroke-miterlimit:10;}
	.st3{font-family:'Roboto-Regular';}
	.st4{font-size:12.8877px;}
	.st5{fill:#859F24;}
	.st6{font-family:'Roboto-Bold';}
	.st7{font-size:8.8929px;}
</style>
<g id="Left_Text">
	<text transform="matrix(1 0 0 1 255.3332 202.1079)" class="st0 st1">Logo/Intro Animation:</text>
	<text transform="matrix(1 0 0 1 267.3332 242.1079)" class="st0 st1">Social/Commercial:</text>
	<text transform="matrix(1 0 0 1 287.3332 282.1079)" class="st0 st1">Explainer Video:</text>
	<text transform="matrix(1 0 0 1 296.3332 322.1079)" class="st0 st1">3D Animation:</text>
</g>
<g id="Lines">
	<g>
		<path class="st2" d="M658.8,365.4h-273c-1.9,0-3.4-1.5-3.4-3.4V179.7c0-1.9,1.5-3.4,3.4-3.4h273c1.9,0,3.4,1.5,3.4,3.4V362
			C662.2,363.9,660.7,365.4,658.8,365.4z"/>
		<g>
			<line class="st2" x1="376.3" y1="209.1" x2="247.7" y2="209.1"/>
			<line class="st2" x1="376.3" y1="249.1" x2="247.7" y2="249.1"/>
			<line class="st2" x1="376.3" y1="289.1" x2="247.7" y2="289.1"/>
			<line class="st2" x1="376.3" y1="329.1" x2="247.7" y2="329.1"/>
		</g>
		<g>
			<line class="st2" x1="516.3" y1="209.1" x2="387.7" y2="209.1"/>
			<line class="st2" x1="516.3" y1="249.1" x2="387.7" y2="249.1"/>
			<line class="st2" x1="516.3" y1="289.1" x2="387.7" y2="289.1"/>
			<line class="st2" x1="516.3" y1="329.1" x2="387.7" y2="329.1"/>
		</g>
		<g>
			<line class="st2" x1="656.3" y1="209.1" x2="527.7" y2="209.1"/>
			<line class="st2" x1="656.3" y1="249.1" x2="527.7" y2="249.1"/>
			<line class="st2" x1="656.3" y1="289.1" x2="527.7" y2="289.1"/>
			<line class="st2" x1="656.3" y1="329.1" x2="527.7" y2="329.1"/>
		</g>
		<line class="st2" x1="522.3" y1="181.8" x2="522.3" y2="325.1"/>
	</g>
</g>
<g id="Choices">
	<text transform="matrix(1 0 0 1 430.7905 162.7002)" class="st3 st4">10-30sec</text>
	<text transform="matrix(1 0 0 1 567.2959 162.7002)" class="st3 st4">30-1min</text>
</g>
<g id="Per._Price">
	<text transform="matrix(1 0 0 1 425.6667 201.4414)" class="st5 st6 st1">$100-200</text>
	<text transform="matrix(1 0 0 1 424.6667 241.4414)" class="st5 st6 st1">$200-400+</text>
	<text transform="matrix(1 0 0 1 424.6667 281.4414)" class="st5 st6 st1">$300-500+</text>
	<text transform="matrix(1 0 0 1 424.6667 321.4414)" class="st5 st6 st1">$400-600+</text>
</g>
<g id="Comm._Price">
	<text transform="matrix(1 0 0 1 575.6667 321.4414)" class="st5 st6 st1">$600+</text>
	<text transform="matrix(1 0 0 1 575.6667 281.4414)" class="st5 st6 st1">$500+</text>
	<text transform="matrix(1 0 0 1 575.6667 241.4414)" class="st5 st6 st1">$400+</text>
	<text transform="matrix(1 0 0 1 575.6667 201.4414)" class="st5 st6 st1">$200+</text>
</g>
<text transform="matrix(1 0 0 1 431.2892 350.8415)" class="st3 st7">*All prices depend on each individual project. </text>
</svg>
