<svg id="_x23_1" xmlns="http://www.w3.org/2000/svg" viewBox="0 0 422.7 220.7"><style>.st0{fill:#6da2a3}.st1{fill:#859f24}</style><g id="Left_Text"><path d="M13.5 52.8h4.2v.6h-4.9v-8.5h.7v7.9zM18.5 50.2c0-.9.3-1.7.8-2.3s1.2-.9 2-.9 1.5.3 2 .9.8 1.4.8 2.3v.2c0 .9-.3 1.7-.8 2.3s-1.2.9-2 .9c-.9 0-1.5-.3-2-.9s-.8-1.4-.8-2.3v-.2zm.7.2c0 .7.2 1.4.6 1.8s.9.7 1.6.7c.7 0 1.2-.2 1.5-.7s.6-1.1.6-1.8v-.2c0-.7-.2-1.3-.6-1.8s-.9-.8-1.5-.8-1.2.3-1.5.8-.6 1.1-.6 1.8v.2zM25.3 50.3c0-1 .2-1.8.6-2.4s1-.9 1.8-.9c.4 0 .8.1 1.2.3s.6.5.8.8l.1-1h.6v6.3c0 .8-.2 1.5-.7 1.9s-1 .7-1.8.7c-.3 0-.6 0-1-.1s-.6-.2-.9-.3l.2-.6c.2.1.5.2.8.3s.6.1.9.1c.6 0 1.1-.2 1.4-.5s.5-.8.5-1.5v-.8c-.2.3-.5.6-.8.7s-.7.3-1.1.3c-.8 0-1.4-.3-1.8-.8s-.6-1.3-.6-2.3v-.2zm.7.1c0 .8.2 1.4.5 1.8s.8.7 1.4.7c.5 0 .8-.1 1.1-.3.3-.2.5-.5.7-.9v-2.9c-.2-.4-.4-.7-.7-.9-.3-.2-.7-.4-1.2-.4-.6 0-1.1.3-1.4.8s-.5 1.2-.5 2v.1zM31.9 50.2c0-.9.3-1.7.8-2.3s1.2-.9 2-.9 1.5.3 2 .9.8 1.4.8 2.3v.2c0 .9-.3 1.7-.8 2.3s-1.2.9-2 .9c-.9 0-1.5-.3-2-.9s-.8-1.4-.8-2.3v-.2zm.7.2c0 .7.2 1.4.6 1.8s.8.8 1.5.8 1.2-.2 1.5-.7.6-1.1.6-1.8v-.2c0-.7-.2-1.3-.6-1.8s-.9-.8-1.5-.8-1.2.3-1.5.8-.6 1.1-.6 1.8v.1zM38.8 54.2h-.6l3.6-9.3h.6l-3.6 9.3zM44.8 53.4h-.7v-8.5h.7v8.5zM47.6 47.1l.1 1.1c.2-.4.5-.7.8-.9s.8-.3 1.2-.3c.7 0 1.2.2 1.6.6s.5 1.1.5 2v3.9h-.7v-3.9c0-.7-.1-1.2-.4-1.5s-.7-.5-1.2-.5-.9.1-1.2.4-.5.6-.7 1v4.4H47v-6.3h.6zM54.8 45.5v1.6h1.4v.6h-1.4v4.1c0 .4.1.7.2.9s.4.3.6.3h.7l.1.5c-.1.1-.3.1-.4.1h-.5c-.4 0-.8-.1-1-.4s-.5-.8-.5-1.4v-4.1h-1.1v-.6H54v-1.6h.8zM60.6 47.7h-.5c-.4 0-.8.1-1.1.4s-.5.6-.6 1v4.4h-.7v-6.3h.6l.1 1.1v.1c.2-.4.4-.7.7-.9s.7-.3 1.1-.3h.5l-.1.5zM61.2 50.2c0-.9.3-1.7.8-2.3s1.2-.9 2-.9 1.5.3 2 .9.8 1.4.8 2.3v.2c0 .9-.3 1.7-.8 2.3s-1.2.9-2 .9c-.9 0-1.5-.3-2-.9s-.8-1.4-.8-2.3v-.2zm.7.2c0 .7.2 1.4.6 1.8s.9.8 1.5.8c.7 0 1.2-.2 1.5-.7s.6-1.1.6-1.8v-.2c0-.7-.2-1.3-.6-1.8s-.9-.8-1.5-.8c-.7 0-1.2.3-1.5.8s-.6 1.1-.6 1.8v.1zM76 51.1h-3.9l-.9 2.4h-.7l3.2-8.5h.7l3.2 8.5h-.7l-.9-2.4zm-3.7-.7h3.4L74 45.8l-1.7 4.6zM79.3 47.1l.1 1.1c.2-.4.5-.7.8-.9s.8-.3 1.2-.3c.7 0 1.2.2 1.6.6s.5 1.1.5 2v3.9h-.7v-3.9c0-.7-.1-1.2-.4-1.5s-.7-.5-1.2-.5-.9.1-1.2.4-.5.6-.7 1v4.4h-.7v-6.3h.7zM86.2 45.3h-.7v-1h.7v1zm0 8.1h-.7v-6.3h.7v6.3zM88.7 47.1l.1 1c.2-.4.5-.7.8-.9s.7-.3 1.2-.3.9.1 1.2.4.6.6.7 1.1c.2-.4.5-.8.8-1s.8-.4 1.3-.4c.7 0 1.2.2 1.6.7s.6 1.1.6 2.1v3.7h-.7v-3.7c0-.8-.1-1.3-.4-1.7s-.7-.5-1.2-.5-1 .2-1.3.5c-.3.3-.5.8-.6 1.3v4h-.7v-3.7c0-.8-.1-1.3-.4-1.6-.3-.3-.7-.5-1.2-.5s-.9.1-1.2.4-.5.6-.6 1v4.5H88v-6.3h.7zM102.7 53.4c0-.2-.1-.4-.1-.6v-.5c-.2.3-.5.6-.9.8s-.8.3-1.3.3c-.6 0-1.1-.2-1.4-.5s-.5-.8-.5-1.3c0-.6.3-1.1.8-1.4s1.2-.5 2-.5h1.4V49c0-.5-.1-.8-.4-1.1s-.7-.4-1.2-.4-.9.1-1.2.4-.5.5-.5.9h-.6c0-.5.2-.9.6-1.3s1-.6 1.7-.6 1.3.2 1.7.5.6.9.6 1.5v3.8c0 .3.1.4.1.6h-.8zm-2.3-.5c.5 0 .9-.1 1.3-.4s.7-.5.8-.9v-1.3h-1.4c-.6 0-1.1.1-1.5.4s-.6.6-.6 1c0 .3.1.6.4.8s.6.4 1 .4zM106.3 45.5v1.6h1.4v.6h-1.4v4.1c0 .4.1.7.2.9s.4.3.6.3h.7l.1.5c-.1.1-.3.1-.4.1h-.5c-.4 0-.8-.1-1-.4s-.4-.7-.4-1.3v-4.1h-1.1v-.6h1.1v-1.6h.7zM110 45.3h-.7v-1h.7v1zm0 8.1h-.7v-6.3h.7v6.3zM111.5 50.2c0-.9.3-1.7.8-2.3s1.2-.9 2-.9 1.5.3 2 .9.8 1.4.8 2.3v.2c0 .9-.3 1.7-.8 2.3s-1.2.9-2 .9c-.9 0-1.5-.3-2-.9s-.8-1.4-.8-2.3v-.2zm.7.2c0 .7.2 1.4.6 1.8s.9.7 1.6.7c.7 0 1.2-.2 1.5-.7s.6-1.1.6-1.8v-.2c0-.7-.2-1.3-.6-1.8s-.9-.8-1.5-.8-1.2.3-1.5.8-.6 1.1-.6 1.8v.2zM119.2 47.1l.1 1.1c.2-.4.5-.7.8-.9s.8-.3 1.2-.3c.7 0 1.2.2 1.6.6s.5 1.1.5 2v3.9h-.7v-3.9c0-.7-.1-1.2-.4-1.5s-.7-.5-1.2-.5-.9.1-1.2.4-.5.6-.7 1v4.4h-.7v-6.3h.7zM126 48.1h-.8v-1h.8v1zm0 5.3h-.8v-1h.8v1z"/><g><path d="M29.7 91.3c0-.5-.2-.8-.5-1.1s-1-.6-1.8-.8c-.9-.2-1.6-.5-2.1-.9s-.7-.9-.7-1.5c0-.7.3-1.2.8-1.6s1.2-.6 2.1-.6c.9 0 1.6.2 2.1.7s.8 1.1.8 1.8h-.6c0-.6-.2-1-.6-1.4s-1-.6-1.6-.6c-.7 0-1.2.2-1.6.5s-.6.7-.6 1.1c0 .4.2.8.5 1.1s1 .5 1.8.8c.9.2 1.6.6 2.1.9s.7.9.7 1.6c0 .7-.3 1.2-.8 1.6s-1.3.6-2.1.6c-.9 0-1.6-.2-2.2-.6s-.9-1.1-.9-1.9h.6c0 .7.2 1.2.7 1.5s1.1.5 1.8.5 1.2-.1 1.6-.4.5-.8.5-1.3zM31.4 90.2c0-.9.3-1.7.8-2.3.5-.6 1.2-.9 2-.9s1.5.3 2 .9.8 1.4.8 2.3v.2c0 .9-.3 1.7-.8 2.3s-1.2.9-2 .9c-.9 0-1.5-.3-2-.9-.5-.6-.8-1.4-.8-2.3v-.2zm.7.2c0 .7.2 1.4.6 1.8s.9.7 1.6.7c.7 0 1.2-.2 1.5-.7s.6-1.1.6-1.8v-.2c0-.7-.2-1.3-.6-1.8s-.9-.8-1.5-.8-1.2.3-1.5.8-.6 1.1-.6 1.8v.2zM40.8 93c.5 0 .9-.1 1.2-.4s.5-.6.5-1.1h.6c0 .6-.2 1.1-.7 1.5s-1.1.6-1.7.6c-.9 0-1.5-.3-2-.9s-.7-1.4-.7-2.3v-.2c0-.9.2-1.7.7-2.3s1.1-.9 2-.9c.7 0 1.3.2 1.7.6s.7.9.7 1.6h-.6c0-.5-.2-.9-.5-1.2s-.8-.5-1.3-.5c-.7 0-1.2.2-1.5.7-.3.5-.5 1.1-.5 1.8v.2c0 .7.2 1.4.5 1.8s.9 1 1.6 1zM45.5 85.3h-.7v-1h.7v1zm0 8.1h-.7v-6.3h.7v6.3zM51.4 93.4c0-.2-.1-.4-.1-.6v-.5c-.2.3-.5.6-.9.8s-.8.3-1.3.3c-.6 0-1.1-.2-1.4-.5s-.5-.8-.5-1.3c0-.6.3-1.1.8-1.4s1.2-.5 2-.5h1.4V89c0-.5-.1-.8-.4-1.1s-.7-.4-1.2-.4-.9.1-1.2.4-.6.6-.6 1h-.6c0-.5.2-.9.6-1.3s1-.6 1.7-.6 1.3.2 1.7.5.6.9.6 1.5v3.8c0 .3.1.4.1.6h-.7zm-2.3-.5c.5 0 .9-.1 1.3-.4s.7-.5.8-.9v-1.3h-1.4c-.6 0-1.1.1-1.5.4s-.6.6-.6 1c0 .3.1.6.4.8s.6.4 1 .4zM54.7 93.4H54v-9.1h.7v9.1zM56.5 94.2h-.6l3.6-9.3h.5l-3.5 9.3zM67.4 90.8c-.1.9-.4 1.6-.9 2.1s-1.3.7-2.2.7c-.9 0-1.7-.3-2.3-1s-.9-1.6-.9-2.7v-1.4c0-1.1.3-2 .9-2.7s1.3-1 2.3-1c.9 0 1.6.2 2.2.7s.8 1.2.9 2h-.7c-.1-.7-.3-1.2-.7-1.6s-.9-.6-1.7-.6c-.7 0-1.3.3-1.8.9s-.7 1.3-.7 2.2v1.4c0 .9.2 1.7.7 2.2.5.6 1 .9 1.8.9.7 0 1.3-.2 1.7-.5s.6-.9.7-1.6h.7zM68.7 90.2c0-.9.3-1.7.8-2.3s1.2-.9 2-.9 1.5.3 2 .9.8 1.4.8 2.3v.2c0 .9-.3 1.7-.8 2.3s-1.2.9-2 .9c-.9 0-1.5-.3-2-.9s-.8-1.4-.8-2.3v-.2zm.7.2c0 .7.2 1.4.6 1.8s.9.7 1.6.7c.7 0 1.2-.2 1.5-.7s.6-1.1.6-1.8v-.2c0-.7-.2-1.3-.6-1.8s-.9-.8-1.5-.8-1.2.3-1.5.8-.6 1.1-.6 1.8v.2zM76.3 87.1l.1 1c.2-.4.5-.7.8-.9s.7-.3 1.2-.3.9.1 1.2.4.6.6.7 1.1c.2-.4.5-.8.8-1s.8-.4 1.3-.4c.7 0 1.2.2 1.6.7s.6 1.1.6 2.1v3.7h-.7v-3.7c0-.8-.1-1.3-.4-1.7s-.7-.5-1.2-.5-1 .2-1.3.5c-.3.3-.5.8-.6 1.3v4h-.7v-3.7c0-.8-.1-1.3-.4-1.6-.3-.3-.7-.5-1.2-.5s-.9.1-1.2.4-.5.6-.6 1v4.5h-.7v-6.3h.7zM87 87.1l.1 1c.2-.4.5-.7.8-.9s.7-.3 1.2-.3.9.1 1.2.4.6.6.7 1.1c.2-.4.5-.8.8-1s.8-.4 1.3-.4c.7 0 1.2.2 1.6.7s.6 1.1.6 2.1v3.7h-.7v-3.7c0-.8-.1-1.3-.4-1.7s-.7-.5-1.2-.5-1 .2-1.3.5c-.3.3-.5.8-.6 1.3v4h-.7v-3.7c0-.8-.1-1.3-.4-1.6-.3-.3-.7-.5-1.2-.5s-.9.1-1.2.4-.5.6-.6 1v4.5h-.7v-6.3h.7zM99.4 93.6c-.8 0-1.5-.3-2-.9s-.8-1.3-.8-2.2v-.3c0-.9.3-1.7.8-2.3s1.2-.9 1.9-.9c.8 0 1.4.2 1.8.7s.7 1.1.7 2v.6h-4.5v.2c0 .7.2 1.3.6 1.8s.9.7 1.5.7c.4 0 .8-.1 1.1-.2s.6-.3.8-.5l.3.5c-.2.3-.5.5-.9.6-.4.1-.8.2-1.3.2zm-.1-6c-.5 0-1 .2-1.3.6-.4.4-.6.9-.6 1.5h3.7v-.2c0-.5-.2-1-.5-1.4s-.7-.5-1.3-.5zM106.1 87.7h-.5c-.4 0-.8.1-1.1.4s-.5.6-.6 1v4.4h-.7v-6.3h.6l.1 1.1v.1c.2-.4.4-.7.7-.9s.7-.3 1.1-.3h.5l-.1.5zM109.5 93c.5 0 .9-.1 1.2-.4s.5-.6.5-1.1h.6c0 .6-.2 1.1-.7 1.5s-1.1.6-1.7.6c-.9 0-1.5-.3-2-.9s-.7-1.4-.7-2.3v-.2c0-.9.2-1.7.7-2.3s1.1-.9 2-.9c.7 0 1.3.2 1.7.6s.7.9.7 1.6h-.6c0-.5-.2-.9-.5-1.2s-.8-.5-1.3-.5c-.7 0-1.2.2-1.5.7-.3.5-.5 1.1-.5 1.8v.2c0 .7.2 1.4.5 1.8s.9 1 1.6 1zM114.2 85.3h-.7v-1h.7v1zm0 8.1h-.7v-6.3h.7v6.3zM120.1 93.4c0-.2-.1-.4-.1-.6v-.5c-.2.3-.5.6-.9.8s-.8.3-1.3.3c-.6 0-1.1-.2-1.4-.5s-.5-.8-.5-1.3c0-.6.3-1.1.8-1.4s1.2-.5 2-.5h1.4V89c0-.5-.1-.8-.4-1.1s-.7-.4-1.2-.4-.9.1-1.2.4-.5.5-.5.9h-.6c0-.5.2-.9.6-1.3s1-.6 1.7-.6 1.3.2 1.7.5.6.9.6 1.5v3.8c0 .3.1.4.1.6h-.8zm-2.3-.5c.5 0 .9-.1 1.3-.4s.7-.5.8-.9v-1.3h-1.4c-.6 0-1.1.1-1.5.4s-.6.6-.6 1c0 .3.1.6.4.8s.6.4 1 .4zM123.3 93.4h-.7v-9.1h.7v9.1zM126.1 88.1h-.8v-1h.8v1zm0 5.3h-.8v-1h.8v1z"/></g><g><path d="M49.6 129.3h-4.1v3.5h4.7v.6h-5.4v-8.5h5.4v.6h-4.7v3.2h4.1v.6zM53.5 129.7l1.7-2.6h.8l-2.2 3.1 2.2 3.2h-.8l-1.8-2.7-1.8 2.7h-.8l2.2-3.2-2.2-3.1h.8l1.9 2.6zM62.5 130.4c0 .9-.2 1.7-.6 2.3-.4.6-1 .8-1.8.8-.4 0-.8-.1-1.2-.3s-.6-.4-.8-.7v3.3h-.7V127h.6l.1 1c.2-.4.5-.6.8-.8s.7-.3 1.2-.3c.8 0 1.4.3 1.8.9.4.6.6 1.4.6 2.4v.2zm-.7-.1c0-.8-.2-1.5-.5-2s-.8-.8-1.4-.8c-.5 0-.9.1-1.2.3-.3.2-.5.5-.7.9v3.1c.2.3.4.6.7.8s.7.3 1.1.3c.6 0 1.1-.2 1.4-.7.3-.5.5-1.1.5-1.8v-.1zM64.8 133.4h-.7v-9.1h.7v9.1zM70.8 133.4c0-.2-.1-.4-.1-.6v-.5c-.2.3-.5.6-.9.8s-.8.3-1.3.3c-.6 0-1.1-.2-1.4-.5s-.5-.8-.5-1.3c0-.6.3-1.1.8-1.4s1.2-.5 2-.5h1.4v-.7c0-.5-.1-.8-.4-1.1-.3-.3-.7-.4-1.2-.4s-.9.1-1.2.4c-.3.2-.5.5-.5.9h-.6c0-.5.2-.9.6-1.3s1-.6 1.7-.6 1.3.2 1.7.5.6.9.6 1.5v3.7c0 .2.1.4.1.6h-.8zm-2.3-.5c.5 0 .9-.1 1.3-.4s.7-.5.8-.9v-1.3h-1.4c-.6 0-1.1.1-1.5.4s-.6.6-.6 1c0 .3.1.6.4.8s.6.4 1 .4zM74 125.3h-.7v-1h.7v1zm0 8.1h-.7v-6.3h.7v6.3zM76.6 127.1l.1 1.1c.2-.4.5-.7.8-.9s.8-.3 1.2-.3c.7 0 1.2.2 1.6.6.4.4.5 1.1.5 2v3.9h-.7v-3.9c0-.7-.1-1.2-.4-1.5-.3-.3-.7-.5-1.2-.5s-.9.1-1.2.4c-.3.3-.5.6-.7 1v4.4H76v-6.3h.6zM85 133.6c-.8 0-1.5-.3-2-.9-.5-.6-.8-1.3-.8-2.2v-.3c0-.9.3-1.7.8-2.3.5-.6 1.2-.9 1.9-.9.8 0 1.4.2 1.8.7.4.5.7 1.1.7 2v.6H83v.2c0 .7.2 1.3.6 1.8s.9.7 1.5.7c.4 0 .8-.1 1.1-.2s.6-.3.8-.5l.3.5c-.2.3-.5.5-.9.6-.4.1-.9.2-1.4.2zm-.1-6c-.5 0-1 .2-1.3.6-.4.4-.6.9-.6 1.5h3.7v-.2c0-.5-.2-1-.5-1.4-.3-.3-.7-.5-1.3-.5zM91.7 127.7h-.5c-.4 0-.8.1-1.1.4-.3.2-.5.6-.6 1v4.4h-.7v-6.3h.6l.1 1.1v.1c.2-.4.4-.7.7-.9s.7-.3 1.1-.3h.5l-.1.5zM98.4 132l.2.6.2-.6 2.6-7.1h.8l-3.2 8.5h-.7l-3.2-8.5h.8l2.5 7.1zM104 125.3h-.7v-1h.7v1zm0 8.1h-.7v-6.3h.7v6.3zM105.7 130.3c0-1 .2-1.8.6-2.4.4-.6 1-.9 1.8-.9.4 0 .8.1 1.1.3s.6.5.8.8v-3.8h.7v9.1h-.6l-.1-.9c-.2.3-.5.6-.8.8s-.7.3-1.2.3c-.8 0-1.4-.3-1.8-.8-.4-.6-.6-1.3-.6-2.3v-.2zm.7.1c0 .8.2 1.4.5 1.8.3.5.8.7 1.4.7.5 0 .8-.1 1.1-.3s.5-.5.7-.8v-3c-.2-.4-.4-.7-.7-.9-.3-.2-.7-.3-1.1-.3-.6 0-1.1.3-1.4.8-.3.5-.5 1.2-.5 2zM115 133.6c-.8 0-1.5-.3-2-.9-.5-.6-.8-1.3-.8-2.2v-.3c0-.9.3-1.7.8-2.3.5-.6 1.2-.9 1.9-.9.8 0 1.4.2 1.8.7.4.5.7 1.1.7 2v.6h-4.5v.2c0 .7.2 1.3.6 1.8s.9.7 1.5.7c.4 0 .8-.1 1.1-.2s.6-.3.8-.5l.3.5c-.2.3-.5.5-.9.6-.4.1-.8.2-1.3.2zm-.1-6c-.5 0-1 .2-1.3.6-.4.4-.6.9-.6 1.5h3.7v-.2c0-.5-.2-1-.5-1.4-.3-.3-.7-.5-1.3-.5zM118.4 130.2c0-.9.3-1.7.8-2.3.5-.6 1.2-.9 2-.9s1.5.3 2 .9c.5.6.8 1.4.8 2.3v.2c0 .9-.3 1.7-.8 2.3-.5.6-1.2.9-2 .9-.9 0-1.5-.3-2-.9-.5-.6-.8-1.4-.8-2.3v-.2zm.7.2c0 .7.2 1.4.6 1.8s.9.7 1.6.7c.7 0 1.2-.2 1.5-.7s.6-1.1.6-1.8v-.2c0-.7-.2-1.3-.6-1.8-.4-.5-.9-.8-1.5-.8s-1.2.3-1.5.8c-.4.5-.6 1.1-.6 1.8v.2zM126.3 128.1h-.8v-1h.8v1zm0 5.3h-.8v-1h.8v1z"/></g><g><path d="M55 168.8h.8c.6 0 1.1-.2 1.4-.5s.5-.7.5-1.2-.2-1-.5-1.3-.7-.5-1.3-.5c-.5 0-1 .2-1.3.5s-.5.7-.5 1.3h-.7c0-.7.2-1.2.7-1.7s1.1-.7 1.8-.7c.8 0 1.4.2 1.8.6s.7 1 .7 1.7c0 .4-.1.8-.4 1.1s-.6.6-1.1.8c.5.2.9.4 1.2.8s.4.8.4 1.3c0 .8-.2 1.4-.7 1.8s-1.1.7-1.9.7c-.7 0-1.4-.2-1.9-.6s-.8-1-.8-1.8h.7c0 .5.2 1 .6 1.3.4.3.9.5 1.5.5s1.1-.2 1.4-.5c.3-.3.5-.8.5-1.3 0-.6-.2-1-.5-1.3s-.9-.4-1.5-.4H55v-.6zM60.4 173.4v-8.5h2.5c1 0 1.9.3 2.6 1s1 1.6 1 2.7v1.1c0 1.1-.3 2-1 2.7s-1.5 1-2.6 1h-2.5zm.7-7.9v7.3h1.8c.8 0 1.5-.3 2.1-.9.5-.6.8-1.3.8-2.2v-1.1c0-.9-.3-1.6-.8-2.2s-1.2-.9-2.1-.9h-1.8zM75.8 171.1h-3.9l-.9 2.4h-.7l3.2-8.5h.7l3.2 8.5h-.7l-.9-2.4zm-3.7-.7h3.4l-1.7-4.6-1.7 4.6zM79.2 167.1l.1 1.1c.2-.4.5-.7.8-.9s.8-.3 1.2-.3c.7 0 1.2.2 1.6.6s.5 1.1.5 2v3.9h-.7v-3.9c0-.7-.1-1.2-.4-1.5-.3-.3-.7-.5-1.2-.5s-.9.1-1.2.4c-.3.3-.5.6-.7 1v4.4h-.7v-6.3h.7zM86 165.3h-.7v-1h.7v1zm0 8.1h-.7v-6.3h.7v6.3zM88.5 167.1l.1 1c.2-.4.5-.7.8-.9s.7-.3 1.2-.3.9.1 1.2.4.6.6.7 1.1c.2-.4.5-.8.8-1s.8-.4 1.3-.4c.7 0 1.2.2 1.6.7s.6 1.1.6 2.1v3.7H96v-3.7c0-.8-.1-1.3-.4-1.7-.3-.3-.7-.5-1.2-.5s-1 .2-1.3.5c-.3.3-.5.8-.6 1.3v4H92v-3.7c0-.8-.1-1.3-.4-1.6-.3-.3-.7-.5-1.2-.5s-.9.1-1.2.4c-.3.3-.5.6-.6 1v4.5h-.7v-6.3h.6zM102.6 173.4c0-.2-.1-.4-.1-.6v-.5c-.2.3-.5.6-.9.8s-.8.3-1.3.3c-.6 0-1.1-.2-1.4-.5s-.5-.8-.5-1.3c0-.6.3-1.1.8-1.4s1.2-.5 2-.5h1.4v-.7c0-.5-.1-.8-.4-1.1s-.7-.4-1.2-.4-.9.1-1.2.4-.5.5-.5.9h-.6c0-.5.2-.9.6-1.3s1-.6 1.7-.6 1.3.2 1.7.5.6.9.6 1.5v3.8c0 .3.1.4.1.6h-.8zm-2.3-.5c.5 0 .9-.1 1.3-.4s.7-.5.8-.9v-1.3H101c-.6 0-1.1.1-1.5.4s-.6.6-.6 1c0 .3.1.6.4.8s.6.4 1 .4zM106.1 165.5v1.6h1.4v.6h-1.4v4.1c0 .4.1.7.2.9s.4.3.6.3h.3c.1 0 .2 0 .4-.1l.1.5c-.1.1-.3.1-.4.1h-.5c-.4 0-.8-.1-1-.4s-.4-.7-.4-1.3v-4.1h-1.1v-.6h1.1v-1.6h.7zM109.8 165.3h-.7v-1h.7v1zm0 8.1h-.7v-6.3h.7v6.3zM111.3 170.2c0-.9.3-1.7.8-2.3s1.2-.9 2-.9 1.5.3 2 .9.8 1.4.8 2.3v.2c0 .9-.3 1.7-.8 2.3s-1.2.9-2 .9c-.9 0-1.5-.3-2-.9s-.8-1.4-.8-2.3v-.2zm.7.2c0 .7.2 1.3.6 1.8.4.5.9.7 1.6.7.7 0 1.2-.2 1.5-.7.4-.5.6-1.1.6-1.8v-.2c0-.7-.2-1.3-.6-1.8-.4-.5-.9-.8-1.5-.8s-1.2.3-1.5.8c-.4.5-.6 1.1-.6 1.8v.2zM119 167.1l.1 1.1c.2-.4.5-.7.8-.9s.8-.3 1.2-.3c.7 0 1.2.2 1.6.6s.5 1.1.5 2v3.9h-.7v-3.9c0-.7-.1-1.2-.4-1.5-.3-.3-.7-.5-1.2-.5s-.9.1-1.2.4c-.3.3-.5.6-.7 1v4.4h-.7v-6.3h.7zM125.9 168.1h-.8v-1h.8v1zm0 5.3h-.8v-1h.8v1z"/></g></g><g id="Lines"><path class="st0" d="M415.1 217.2h-273c-2.2 0-3.9-1.8-3.9-3.9V31.1c0-2.2 1.8-3.9 3.9-3.9h273c2.2 0 3.9 1.8 3.9 3.9v182.2c.1 2.2-1.7 3.9-3.9 3.9zm-273-189.1c-1.6 0-2.9 1.3-2.9 2.9v182.2c0 1.6 1.3 2.9 2.9 2.9h273c1.6 0 2.9-1.3 2.9-2.9V31.1c0-1.6-1.3-2.9-2.9-2.9h-273zM4 59.9h128.7v1H4zM4 99.9h128.7v1H4zM4 139.9h128.7v1H4zM4 179.9h128.7v1H4z"/><g><path class="st0" d="M144 59.9h128.7v1H144zM144 99.9h128.7v1H144zM144 139.9h128.7v1H144zM144 179.9h128.7v1H144z"/></g><g><path class="st0" d="M284 59.9h128.7v1H284zM284 99.9h128.7v1H284zM284 139.9h128.7v1H284zM284 179.9h128.7v1H284z"/></g><path class="st0" d="M278.1 33.1h1v143.4h-1z"/></g><g id="Choices"><path d="M191.4 14h-1.2V6h-1.9v-.8l3.1-.3V14zM200.9 10.5c0 1.2-.3 2.1-.8 2.7-.5.6-1.2.9-2.1.9s-1.6-.3-2.1-.9c-.5-.6-.8-1.5-.8-2.7V8.4c0-1.2.3-2.1.8-2.7.5-.6 1.2-.9 2.1-.9.9 0 1.6.3 2.1.9.5.6.8 1.5.8 2.7v2.1zm-1.2-2.4c0-.8-.1-1.4-.4-1.8-.3-.4-.7-.6-1.2-.6s-1 .2-1.2.6c-.3.4-.4 1-.4 1.8v2.7c0 .8.1 1.4.4 1.8.3.4.7.6 1.3.6s1-.2 1.2-.6.4-1 .4-1.8V8.1zM204.9 10.6h-3.1v-1h3.1v1zM207.6 8.9h1.1c.5 0 .9-.1 1.2-.4.2-.3.3-.7.3-1.1 0-.5-.1-.9-.4-1.2-.3-.3-.6-.4-1.2-.4-.5 0-.9.1-1.2.4s-.4.7-.4 1.1h-1.2c0-.7.2-1.3.8-1.8.5-.5 1.2-.7 2-.7s1.5.2 2 .7c.5.5.8 1.1.8 1.9 0 .4-.1.8-.3 1.1-.2.4-.6.7-1 .9.5.2.9.5 1.2.8.2.4.3.8.3 1.3 0 .8-.3 1.5-.8 2s-1.2.7-2.1.7c-.8 0-1.5-.2-2.1-.7-.5-.5-.8-1.1-.8-1.8h1.2c0 .5.1.9.4 1.1s.7.4 1.2.4.9-.1 1.2-.4.4-.7.4-1.3c0-.6-.1-1-.4-1.2-.3-.3-.7-.4-1.3-.4h-1.1v-1zM219 10.5c0 1.2-.3 2.1-.8 2.7-.5.6-1.2.9-2.1.9s-1.6-.3-2.1-.9c-.5-.6-.8-1.5-.8-2.7V8.4c0-1.2.3-2.1.8-2.7.5-.6 1.2-.9 2.1-.9.9 0 1.6.3 2.1.9.5.6.8 1.5.8 2.7v2.1zm-1.3-2.4c0-.8-.1-1.4-.4-1.8-.3-.4-.7-.6-1.2-.6s-1 .2-1.2.6c-.3.4-.4 1-.4 1.8v2.7c0 .8.1 1.4.4 1.8.3.4.7.6 1.3.6s1-.2 1.2-.6.4-1 .4-1.8V8.1zM224.5 12.2c0-.3-.1-.5-.3-.7-.2-.2-.6-.3-1.2-.5-.8-.2-1.4-.4-1.9-.7-.4-.3-.6-.7-.6-1.3 0-.6.2-1 .7-1.4.5-.4 1.1-.6 1.8-.6.8 0 1.4.2 1.9.6.5.4.7.9.7 1.5h-1.2c0-.3-.1-.6-.4-.8-.2-.2-.6-.4-1-.4s-.8.1-1 .3c-.2.2-.3.4-.3.7 0 .3.1.5.3.6.2.2.6.3 1.2.4.9.2 1.5.4 1.9.8s.6.7.6 1.3c0 .6-.2 1.1-.7 1.5-.5.4-1.1.6-1.9.6-.9 0-1.6-.2-2.1-.7-.5-.4-.7-1-.7-1.5h1.2c0 .4.2.8.5 1 .3.2.7.3 1.1.3.4 0 .8-.1 1-.3.3-.2.4-.4.4-.7zM230.2 14.2c-.9 0-1.7-.3-2.3-.9s-.8-1.5-.8-2.5v-.3c0-1 .3-1.8.9-2.4s1.3-1 2-1c.9 0 1.6.3 2.1.8.5.6.7 1.3.7 2.2v.8h-4.4c0 .7.2 1.2.5 1.6.3.4.8.6 1.3.6.4 0 .8-.1 1.1-.2.3-.1.6-.3.8-.5l.5.8c-.2.2-.6.4-1 .6-.4.3-.9.4-1.4.4zm-.2-6.1c-.4 0-.8.2-1.1.5-.3.3-.5.8-.5 1.3h3.1v-.1c0-.5-.1-.9-.4-1.2s-.6-.5-1.1-.5zM236.9 13.2c.4 0 .8-.1 1.1-.4.3-.3.5-.6.5-.9h1.1c0 .6-.2 1.1-.8 1.6s-1.2.7-1.9.7c-1 0-1.7-.3-2.3-1s-.8-1.5-.8-2.4v-.3c0-1 .3-1.8.8-2.4.5-.6 1.3-1 2.3-1 .8 0 1.4.2 2 .7.5.5.8 1 .7 1.7h-1.1c0-.4-.1-.8-.4-1.1-.3-.3-.7-.4-1.1-.4-.7 0-1.1.2-1.4.7-.3.5-.4 1-.4 1.7v.3c0 .7.1 1.3.4 1.7.2.6.7.8 1.3.8z"/><g><path d="M326.1 8.9h1.1c.5 0 .9-.1 1.2-.4s.3-.7.3-1.1c0-.5-.1-.9-.4-1.2-.3-.3-.6-.4-1.2-.4-.5 0-.9.1-1.2.4-.3.3-.4.7-.4 1.1h-1.2c0-.7.2-1.3.8-1.8.5-.5 1.2-.7 2-.7s1.5.2 2 .7c.5.5.8 1.1.8 1.9 0 .4-.1.8-.3 1.1s-.6.7-1 .9c.5.2.9.5 1.2.8.2.4.3.8.3 1.3 0 .8-.3 1.5-.8 2s-1.2.7-2.1.7c-.8 0-1.5-.2-2.1-.7-.5-.5-.8-1.1-.8-1.8h1.2c0 .5.1.9.4 1.1.3.3.7.4 1.2.4s.9-.1 1.2-.4.4-.7.4-1.3c0-.6-.1-1-.4-1.2-.3-.3-.7-.4-1.3-.4h-1.1v-1zM337.4 10.5c0 1.2-.3 2.1-.8 2.7-.5.6-1.2.9-2.1.9-.9 0-1.6-.3-2.1-.9-.5-.6-.8-1.5-.8-2.7V8.4c0-1.2.3-2.1.8-2.7.5-.6 1.2-.9 2.1-.9.9 0 1.6.3 2.1.9.5.6.8 1.5.8 2.7v2.1zm-1.2-2.4c0-.8-.1-1.4-.4-1.8-.3-.4-.7-.6-1.2-.6s-1 .2-1.2.6-.4 1-.4 1.8v2.7c0 .8.1 1.4.4 1.8.3.4.7.6 1.3.6.5 0 1-.2 1.2-.6s.4-1 .4-1.8V8.1zM341.5 10.6h-3.1v-1h3.1v1zM346 14h-1.2V6h-1.9v-.8l3.1-.3V14zM350.9 7.2l.1.9c.2-.3.5-.6.8-.8.3-.2.7-.3 1.2-.3s.8.1 1.2.3c.3.2.6.5.7.9.2-.4.5-.7.8-.9.4-.2.8-.3 1.2-.3.7 0 1.2.2 1.6.7.4.5.6 1.2.6 2.1V14h-1.2V9.9c0-.7-.1-1.1-.3-1.4s-.6-.4-1-.4-.8.1-1 .4c-.3.3-.4.7-.5 1.1V14h-1.2V9.9c0-.6-.1-1.1-.4-1.4-.2-.3-.6-.4-1-.4s-.7.1-.9.2c-.2.2-.4.4-.6.7v5h-1.2V7.2h1.1zM362.4 5.5h-1.2V4.2h1.2v1.3zm0 8.5h-1.2V7.2h1.2V14zM365.5 7.2l.1 1c.2-.4.5-.6.9-.8s.7-.3 1.2-.3c.7 0 1.3.2 1.7.6.4.4.6 1.1.6 2V14h-1.2V9.8c0-.6-.1-1-.4-1.3-.2-.3-.6-.4-1.1-.4-.4 0-.7.1-.9.3-.3.2-.5.4-.7.7v5h-1.2V7.2h1z"/></g></g><g id="Per._Price"><path class="st1" d="M198.6 50.5c0-.3-.1-.6-.3-.8s-.5-.4-.9-.6c-.9-.3-1.5-.7-1.9-1.1s-.6-.9-.6-1.6c0-.7.2-1.2.6-1.6s1-.7 1.7-.7v-1.3h.9v1.3c.7.1 1.2.4 1.6.9s.6 1.1.6 1.8h-1.7c0-.5-.1-.8-.3-1.1s-.4-.4-.8-.4c-.3 0-.6.1-.8.3s-.2.5-.2.8c0 .3.1.6.3.7s.5.4 1 .6c.9.3 1.5.7 1.9 1.1s.6.9.6 1.6c0 .7-.2 1.2-.6 1.6s-1 .6-1.7.7V54h-.9v-1.2c-.7-.1-1.3-.3-1.8-.8s-.7-1.1-.7-2h1.7c0 .5.1.9.4 1.1s.5.3.9.3.6-.1.8-.3.2-.2.2-.6zM205.3 52.8h-1.7v-7h-1.7v-1.2l3.4-.3v8.5zM208.6 49l.5-4.8h4.8v1.4h-3.4l-.2 2c.2-.1.3-.2.6-.3s.5-.1.7-.1c.8 0 1.5.2 1.9.7s.7 1.2.7 2.1c0 .8-.2 1.5-.7 2s-1.2.8-2.1.8c-.8 0-1.5-.2-2-.6s-.8-1-.8-1.8l1.6-.1c0 .4.1.7.3.9s.5.3.8.3c.4 0 .7-.1.9-.4s.3-.7.3-1.1c0-.5-.1-.9-.3-1.2-.2-.3-.5-.4-.9-.4-.3 0-.6.1-.8.2s-.3.3-.4.5l-1.5-.1zM221 49.5c0 1.1-.3 2-.8 2.6s-1.2.9-2.1.9c-.9 0-1.6-.3-2.1-.9s-.8-1.4-.8-2.6v-1.9c0-1.1.3-2 .8-2.6s1.2-.9 2.1-.9c.9 0 1.6.3 2.1.9s.8 1.4.8 2.6v1.9zm-1.7-2.1c0-.7-.1-1.2-.3-1.5-.2-.3-.5-.5-.9-.5s-.7.2-.9.5-.3.8-.3 1.5v2.2c0 .7.1 1.2.3 1.5s.5.5.9.5.7-.2.9-.5.3-.8.3-1.5v-2.2z"/><g><path class="st1" d="M197.6 90.5c0-.3-.1-.6-.3-.8s-.5-.4-.9-.6c-.9-.3-1.5-.7-1.9-1.1s-.6-.9-.6-1.6c0-.7.2-1.2.6-1.6s1-.7 1.7-.7v-1.3h.9v1.3c.7.1 1.2.4 1.6.9s.6 1.1.6 1.8h-1.7c0-.5-.1-.8-.3-1.1s-.4-.4-.8-.4c-.3 0-.6.1-.8.3s-.2.5-.2.8c0 .3.1.6.3.7s.5.4 1 .6c.9.3 1.5.7 1.9 1.1s.6.9.6 1.6c0 .7-.2 1.2-.6 1.6s-1 .6-1.7.7V94h-.9v-1.2c-.7-.1-1.3-.3-1.8-.8s-.7-1.1-.7-2h1.7c0 .5.1.9.4 1.1s.5.3.9.3.6-.1.8-.3.2-.2.2-.6zM206.3 92.8h-5.8v-1.1l2.8-3c.4-.5.7-.8.8-1.2s.3-.6.3-.9c0-.4-.1-.7-.3-.9s-.5-.3-.8-.3c-.4 0-.7.1-.9.4s-.3.6-.3 1.1h-1.7c0-.8.2-1.4.8-2s1.2-.8 2.1-.8c.9 0 1.6.2 2.1.7s.8 1.1.8 1.8c0 .5-.1 1-.4 1.4s-.8 1-1.4 1.7l-1.5 1.7h3.6v1.4zM207.6 89l.5-4.8h4.8v1.4h-3.4l-.2 2c.2-.1.3-.2.6-.3s.5-.1.7-.1c.8 0 1.5.2 1.9.7s.7 1.2.7 2.1c0 .8-.2 1.5-.7 2s-1.2.8-2.1.8c-.8 0-1.5-.2-2-.6s-.8-1-.8-1.8l1.6-.1c0 .4.1.7.3.9s.5.3.8.3c.4 0 .7-.1.9-.4s.3-.7.3-1.1c0-.5-.1-.9-.3-1.2-.2-.3-.5-.4-.9-.4-.3 0-.6.1-.8.2s-.3.3-.4.5l-1.5-.1zM220 89.5c0 1.1-.3 2-.8 2.6s-1.2.9-2.1.9c-.9 0-1.6-.3-2.1-.9s-.8-1.4-.8-2.6v-1.9c0-1.1.3-2 .8-2.6s1.2-.9 2.1-.9c.9 0 1.6.3 2.1.9s.8 1.4.8 2.6v1.9zm-1.7-2.1c0-.7-.1-1.2-.3-1.5-.2-.3-.5-.5-.9-.5s-.7.2-.9.5-.3.8-.3 1.5v2.2c0 .7.1 1.2.3 1.5s.5.5.9.5.7-.2.9-.5.3-.8.3-1.5v-2.2z"/></g><g><path class="st1" d="M197.6 130.5c0-.3-.1-.6-.3-.8s-.5-.4-.9-.6c-.9-.3-1.5-.7-1.9-1.1-.4-.4-.6-.9-.6-1.6 0-.7.2-1.2.6-1.6s1-.7 1.7-.7v-1.3h.9v1.3c.7.1 1.2.4 1.6.9s.6 1.1.6 1.8h-1.7c0-.5-.1-.8-.3-1.1s-.4-.4-.8-.4c-.3 0-.6.1-.8.3s-.2.5-.2.8c0 .3.1.6.3.7s.5.4 1 .6c.9.3 1.5.7 1.9 1.1s.6.9.6 1.6c0 .7-.2 1.2-.6 1.6s-1 .6-1.7.7v1.2h-.9v-1.2c-.7-.1-1.3-.3-1.8-.8s-.7-1.1-.7-2h1.7c0 .5.1.9.4 1.1s.5.3.9.3.6-.1.8-.3.2-.1.2-.5zM202.2 127.8h1c.4 0 .7-.1.9-.3s.3-.5.3-.9c0-.3-.1-.6-.3-.8s-.5-.3-.8-.3c-.3 0-.6.1-.8.3s-.3.4-.3.7h-1.7c0-.7.2-1.2.8-1.7s1.2-.7 2-.7c.9 0 1.6.2 2.1.6s.8 1 .8 1.8c0 .4-.1.7-.4 1.1s-.6.6-1 .8c.5.2.8.4 1.1.8s.4.8.4 1.2c0 .8-.3 1.4-.9 1.8s-1.3.7-2.2.7c-.8 0-1.5-.2-2-.6s-.8-1-.8-1.8h1.7c0 .3.1.6.4.8.2.2.5.3.9.3s.7-.1.9-.3.3-.5.3-.9-.1-.8-.3-1c-.2-.2-.6-.3-1-.3h-1v-1.3zM207.6 129l.5-4.8h4.8v1.4h-3.4l-.2 2c.2-.1.3-.2.6-.3s.5-.1.7-.1c.8 0 1.5.2 1.9.7.5.5.7 1.2.7 2.1 0 .8-.2 1.5-.7 2s-1.2.8-2.1.8c-.8 0-1.5-.2-2-.6s-.8-1-.8-1.8l1.6-.1c0 .4.1.7.3.9s.5.3.8.3c.4 0 .7-.1.9-.4s.3-.7.3-1.1c0-.5-.1-.9-.3-1.2-.2-.3-.5-.4-.9-.4-.3 0-.6.1-.8.2s-.3.3-.4.5l-1.5-.1zM220 129.5c0 1.1-.3 2-.8 2.6s-1.2.9-2.1.9c-.9 0-1.6-.3-2.1-.9s-.8-1.4-.8-2.6v-1.9c0-1.1.3-2 .8-2.6s1.2-.9 2.1-.9c.9 0 1.6.3 2.1.9s.8 1.4.8 2.6v1.9zm-1.7-2.1c0-.7-.1-1.2-.3-1.5-.2-.3-.5-.5-.9-.5s-.7.2-.9.5-.3.8-.3 1.5v2.2c0 .7.1 1.2.3 1.5s.5.5.9.5.7-.2.9-.5.3-.8.3-1.5v-2.2z"/></g><g><path class="st1" d="M197.6 170.5c0-.3-.1-.6-.3-.8s-.5-.4-.9-.6c-.9-.3-1.5-.7-1.9-1.1s-.6-.9-.6-1.6c0-.7.2-1.2.6-1.6s1-.7 1.7-.7v-1.3h.9v1.3c.7.1 1.2.4 1.6.9s.6 1.1.6 1.8h-1.7c0-.5-.1-.8-.3-1.1s-.4-.4-.8-.4c-.3 0-.6.1-.8.3s-.2.5-.2.8c0 .3.1.6.3.7s.5.4 1 .6c.9.3 1.5.7 1.9 1.1s.6.9.6 1.6c0 .7-.2 1.2-.6 1.6s-1 .6-1.7.7v1.2h-.9v-1.2c-.7-.1-1.3-.3-1.8-.8s-.7-1.1-.7-2h1.7c0 .5.1.9.4 1.1s.5.3.9.3.6-.1.8-.3.2-.1.2-.5zM205.5 169.6h1v1.3h-1v1.9h-1.7v-1.9h-3.5l-.1-1 3.5-5.7h1.7v5.4zm-3.7 0h2v-3.1l-.1.2-1.9 2.9zM207.6 169l.5-4.8h4.8v1.4h-3.4l-.2 2c.2-.1.3-.2.6-.3s.5-.1.7-.1c.8 0 1.5.2 1.9.7s.7 1.2.7 2.1c0 .8-.2 1.5-.7 2s-1.2.8-2.1.8c-.8 0-1.5-.2-2-.6s-.8-1-.8-1.8l1.6-.1c0 .4.1.7.3.9s.5.3.8.3c.4 0 .7-.1.9-.4s.3-.7.3-1.1c0-.5-.1-.9-.3-1.2s-.5-.4-.9-.4c-.3 0-.6.1-.8.2s-.3.3-.4.5l-1.5-.1zM220 169.5c0 1.1-.3 2-.8 2.6s-1.2.9-2.1.9c-.9 0-1.6-.3-2.1-.9s-.8-1.4-.8-2.6v-1.9c0-1.1.3-2 .8-2.6s1.2-.9 2.1-.9c.9 0 1.6.3 2.1.9s.8 1.4.8 2.6v1.9zm-1.7-2.1c0-.7-.1-1.2-.3-1.5-.2-.3-.5-.5-.9-.5s-.7.2-.9.5c-.2.3-.3.8-.3 1.5v2.2c0 .7.1 1.2.3 1.5.2.3.5.5.9.5s.7-.2.9-.5c.2-.3.3-.8.3-1.5v-2.2z"/></g></g><g id="Comm._Price"><path class="st1" d="M336.6 170.5c0-.3-.1-.6-.3-.8s-.5-.4-.9-.6c-.9-.3-1.5-.7-1.9-1.1s-.6-.9-.6-1.6c0-.7.2-1.2.6-1.6s1-.7 1.7-.7v-1.3h.9v1.3c.7.1 1.2.4 1.6.9s.6 1.1.6 1.8h-1.7c0-.5-.1-.8-.3-1.1s-.4-.4-.8-.4c-.3 0-.6.1-.8.3s-.2.5-.2.8c0 .3.1.6.3.7s.5.4 1 .6c.9.3 1.5.7 1.9 1.1s.6.9.6 1.6c0 .7-.2 1.2-.6 1.6s-1 .6-1.7.7v1.2h-.9v-1.2c-.7-.1-1.3-.3-1.8-.8s-.7-1.1-.7-2h1.7c0 .5.1.9.4 1.1s.5.3.9.3.6-.1.8-.3.2-.1.2-.5zM342.9 164.1c.3 0 .6 0 .9.1s.5.1.8.3l-.3 1.3c-.3-.1-.5-.2-.7-.2s-.4-.1-.7-.1c-.5 0-.9.2-1.3.6s-.5.9-.4 1.6c.2-.2.4-.4.7-.5s.6-.2 1-.2c.8 0 1.4.3 1.8.8s.6 1.2.6 2.1c0 .9-.3 1.6-.8 2.1s-1.2.8-2.1.8c-.9 0-1.6-.3-2.2-.9s-.8-1.5-.8-2.5v-1.7c0-1.1.3-2 1-2.7s1.5-.9 2.5-.9zm-.4 4.2c-.3 0-.6.1-.8.2s-.4.2-.5.4v.6c0 .7.1 1.2.4 1.6s.6.5 1 .5.6-.2.8-.5.3-.7.3-1.2-.1-.9-.3-1.1-.5-.5-.9-.5zM352.1 169.5c0 1.1-.3 2-.8 2.6s-1.2.9-2.1.9c-.9 0-1.6-.3-2.1-.9s-.8-1.4-.8-2.6v-1.9c0-1.1.3-2 .8-2.6s1.2-.9 2.1-.9c.9 0 1.6.3 2.1.9s.8 1.4.8 2.6v1.9zm-1.7-2.1c0-.7-.1-1.2-.3-1.5-.2-.3-.5-.5-.9-.5s-.7.2-.9.5c-.2.3-.3.8-.3 1.5v2.2c0 .7.1 1.2.3 1.5.2.3.5.5.9.5s.7-.2.9-.5c.2-.3.3-.8.3-1.5v-2.2zM359 169.5c0 1.1-.3 2-.8 2.6s-1.2.9-2.1.9c-.9 0-1.6-.3-2.1-.9s-.8-1.4-.8-2.6v-1.9c0-1.1.3-2 .8-2.6s1.2-.9 2.1-.9c.9 0 1.6.3 2.1.9s.8 1.4.8 2.6v1.9zm-1.7-2.1c0-.7-.1-1.2-.3-1.5-.2-.3-.5-.5-.9-.5s-.7.2-.9.5c-.2.3-.3.8-.3 1.5v2.2c0 .7.1 1.2.3 1.5.2.3.5.5.9.5s.7-.2.9-.5c.2-.3.3-.8.3-1.5v-2.2zM363.6 168h2.1v1.5h-2.1v2.4H362v-2.4h-2.1V168h2.1v-2.3h1.6v2.3z"/><g><path class="st1" d="M336.6 130.5c0-.3-.1-.6-.3-.8s-.5-.4-.9-.6c-.9-.3-1.5-.7-1.9-1.1-.4-.4-.6-.9-.6-1.6 0-.7.2-1.2.6-1.6s1-.7 1.7-.7v-1.3h.9v1.3c.7.1 1.2.4 1.6.9s.6 1.1.6 1.8h-1.7c0-.5-.1-.8-.3-1.1s-.4-.4-.8-.4c-.3 0-.6.1-.8.3s-.2.5-.2.8c0 .3.1.6.3.7s.5.4 1 .6c.9.3 1.5.7 1.9 1.1s.6.9.6 1.6c0 .7-.2 1.2-.6 1.6s-1 .6-1.7.7v1.2h-.9v-1.2c-.7-.1-1.3-.3-1.8-.8s-.7-1.1-.7-2h1.7c0 .5.1.9.4 1.1s.5.3.9.3.6-.1.8-.3.2-.1.2-.5zM339.7 129l.5-4.8h4.8v1.4h-3.4l-.2 2c.2-.1.3-.2.6-.3s.5-.1.7-.1c.8 0 1.5.2 1.9.7.5.5.7 1.2.7 2.1 0 .8-.2 1.5-.7 2s-1.2.8-2.1.8c-.8 0-1.5-.2-2-.6s-.8-1-.8-1.8l1.6-.1c0 .4.1.7.3.9s.5.3.8.3c.4 0 .7-.1.9-.4s.3-.7.3-1.1c0-.5-.1-.9-.3-1.2-.2-.3-.5-.4-.9-.4-.3 0-.6.1-.8.2s-.3.3-.4.5l-1.5-.1zM352.1 129.5c0 1.1-.3 2-.8 2.6s-1.2.9-2.1.9c-.9 0-1.6-.3-2.1-.9s-.8-1.4-.8-2.6v-1.9c0-1.1.3-2 .8-2.6s1.2-.9 2.1-.9c.9 0 1.6.3 2.1.9s.8 1.4.8 2.6v1.9zm-1.7-2.1c0-.7-.1-1.2-.3-1.5-.2-.3-.5-.5-.9-.5s-.7.2-.9.5-.3.8-.3 1.5v2.2c0 .7.1 1.2.3 1.5s.5.5.9.5.7-.2.9-.5.3-.8.3-1.5v-2.2zM359 129.5c0 1.1-.3 2-.8 2.6s-1.2.9-2.1.9c-.9 0-1.6-.3-2.1-.9s-.8-1.4-.8-2.6v-1.9c0-1.1.3-2 .8-2.6s1.2-.9 2.1-.9c.9 0 1.6.3 2.1.9s.8 1.4.8 2.6v1.9zm-1.7-2.1c0-.7-.1-1.2-.3-1.5-.2-.3-.5-.5-.9-.5s-.7.2-.9.5-.3.8-.3 1.5v2.2c0 .7.1 1.2.3 1.5s.5.5.9.5.7-.2.9-.5.3-.8.3-1.5v-2.2zM363.6 128h2.1v1.5h-2.1v2.4H362v-2.4h-2.1V128h2.1v-2.3h1.6v2.3z"/></g><g><path class="st1" d="M336.6 90.5c0-.3-.1-.6-.3-.8s-.5-.4-.9-.6c-.9-.3-1.5-.7-1.9-1.1s-.6-.9-.6-1.6c0-.7.2-1.2.6-1.6s1-.7 1.7-.7v-1.3h.9v1.3c.7.1 1.2.4 1.6.9s.6 1.1.6 1.8h-1.7c0-.5-.1-.8-.3-1.1s-.4-.4-.8-.4c-.3 0-.6.1-.8.3s-.2.5-.2.8c0 .3.1.6.3.7s.5.4 1 .6c.9.3 1.5.7 1.9 1.1s.6.9.6 1.6c0 .7-.2 1.2-.6 1.6s-1 .6-1.7.7V94h-.9v-1.2c-.7-.1-1.3-.3-1.8-.8s-.7-1.1-.7-2h1.7c0 .5.1.9.4 1.1s.5.3.9.3.6-.1.8-.3.2-.2.2-.6zM344.5 89.6h1v1.3h-1v1.9h-1.7v-1.9h-3.5l-.1-1 3.5-5.7h1.7v5.4zm-3.7 0h2v-3.1l-.1.2-1.9 2.9zM352.1 89.5c0 1.1-.3 2-.8 2.6s-1.2.9-2.1.9c-.9 0-1.6-.3-2.1-.9s-.8-1.4-.8-2.6v-1.9c0-1.1.3-2 .8-2.6s1.2-.9 2.1-.9c.9 0 1.6.3 2.1.9s.8 1.4.8 2.6v1.9zm-1.7-2.1c0-.7-.1-1.2-.3-1.5-.2-.3-.5-.5-.9-.5s-.7.2-.9.5-.3.8-.3 1.5v2.2c0 .7.1 1.2.3 1.5s.5.5.9.5.7-.2.9-.5.3-.8.3-1.5v-2.2zM359 89.5c0 1.1-.3 2-.8 2.6s-1.2.9-2.1.9c-.9 0-1.6-.3-2.1-.9s-.8-1.4-.8-2.6v-1.9c0-1.1.3-2 .8-2.6s1.2-.9 2.1-.9c.9 0 1.6.3 2.1.9s.8 1.4.8 2.6v1.9zm-1.7-2.1c0-.7-.1-1.2-.3-1.5-.2-.3-.5-.5-.9-.5s-.7.2-.9.5-.3.8-.3 1.5v2.2c0 .7.1 1.2.3 1.5s.5.5.9.5.7-.2.9-.5.3-.8.3-1.5v-2.2zM363.6 88h2.1v1.5h-2.1v2.4H362v-2.4h-2.1V88h2.1v-2.3h1.6V88z"/></g><g><path class="st1" d="M336.6 50.5c0-.3-.1-.6-.3-.8s-.5-.4-.9-.6c-.9-.3-1.5-.7-1.9-1.1s-.6-.9-.6-1.6c0-.7.2-1.2.6-1.6s1-.7 1.7-.7v-1.3h.9v1.3c.7.1 1.2.4 1.6.9s.6 1.1.6 1.8h-1.7c0-.5-.1-.8-.3-1.1s-.4-.4-.8-.4c-.3 0-.6.1-.8.3s-.2.5-.2.8c0 .3.1.6.3.7s.5.4 1 .6c.9.3 1.5.7 1.9 1.1s.6.9.6 1.6c0 .7-.2 1.2-.6 1.6s-1 .6-1.7.7V54h-.9v-1.2c-.7-.1-1.3-.3-1.8-.8s-.7-1.1-.7-2h1.7c0 .5.1.9.4 1.1s.5.3.9.3.6-.1.8-.3.2-.2.2-.6zM345.3 52.8h-5.8v-1.1l2.8-3c.4-.5.7-.8.8-1.2s.3-.6.3-.9c0-.4-.1-.7-.3-.9s-.5-.3-.8-.3c-.4 0-.7.1-.9.4s-.3.6-.3 1.1h-1.7c0-.8.2-1.4.8-2s1.2-.8 2.1-.8c.9 0 1.6.2 2.1.7s.8 1.1.8 1.8c0 .5-.1 1-.4 1.4s-.8 1-1.4 1.7l-1.5 1.7h3.6v1.4zM352.1 49.5c0 1.1-.3 2-.8 2.6s-1.2.9-2.1.9c-.9 0-1.6-.3-2.1-.9s-.8-1.4-.8-2.6v-1.9c0-1.1.3-2 .8-2.6s1.2-.9 2.1-.9c.9 0 1.6.3 2.1.9s.8 1.4.8 2.6v1.9zm-1.7-2.1c0-.7-.1-1.2-.3-1.5-.2-.3-.5-.5-.9-.5s-.7.2-.9.5-.3.8-.3 1.5v2.2c0 .7.1 1.2.3 1.5s.5.5.9.5.7-.2.9-.5.3-.8.3-1.5v-2.2zM359 49.5c0 1.1-.3 2-.8 2.6s-1.2.9-2.1.9c-.9 0-1.6-.3-2.1-.9s-.8-1.4-.8-2.6v-1.9c0-1.1.3-2 .8-2.6s1.2-.9 2.1-.9c.9 0 1.6.3 2.1.9s.8 1.4.8 2.6v1.9zm-1.7-2.1c0-.7-.1-1.2-.3-1.5-.2-.3-.5-.5-.9-.5s-.7.2-.9.5-.3.8-.3 1.5v2.2c0 .7.1 1.2.3 1.5s.5.5.9.5.7-.2.9-.5.3-.8.3-1.5v-2.2zM363.6 48h2.1v1.5h-2.1v2.4H362v-2.4h-2.1V48h2.1v-2.3h1.6V48z"/></g></g><path d="M189 197.9l-1.3-.4.2-.7 1.3.5v-1.5h.7v1.5l1.3-.5.2.7-1.4.5.8 1.2-.6.4-.8-1.2-.8 1.2-.6-.4 1-1.3zM195.7 200.5H193l-.6 1.6h-.9l2.4-6.3h.7l2.4 6.3h-.9l-.4-1.6zm-2.4-.7h2.1l-1-2.9-1.1 2.9zM198.8 202.2h-.9v-6.8h.9v6.8zM201 202.2h-.9v-6.8h.9v6.8zM208.5 200c0 .7-.2 1.2-.5 1.6-.3.4-.8.6-1.3.6-.3 0-.5 0-.8-.1-.2-.1-.4-.2-.6-.4v2.3h-.9v-6.5h.7l.1.6c.2-.2.3-.4.6-.5.2-.1.5-.2.8-.2.6 0 1 .2 1.4.7s.5 1.1.5 1.9zm-.8-.1c0-.5-.1-1-.3-1.3s-.5-.5-.9-.5c-.2 0-.5.1-.6.2s-.3.3-.4.5v2.3c.1.2.2.3.4.5s.4.2.6.2c.4 0 .7-.1.9-.4.2-.5.3-.9.3-1.5zM211.8 198.2h-.4c-.2 0-.4.1-.6.2-.2.1-.3.3-.4.5v3.4h-.9v-4.7h.8l.1.7c.1-.2.3-.4.5-.6s.4-.2.7-.2H211.9l-.1.7zM213.6 196.3h-.9v-.9h.9v.9zm0 5.9h-.9v-4.7h.9v4.7zM216.8 201.6c.3 0 .5-.1.7-.3.2-.2.3-.4.3-.6h.8c0 .4-.2.8-.5 1.1s-.8.5-1.3.5c-.7 0-1.2-.2-1.6-.7-.4-.4-.5-1-.5-1.7v-.2c0-.7.2-1.2.5-1.7s.9-.7 1.6-.7c.5 0 1 .2 1.3.5.3.3.5.7.5 1.2h-.8c0-.3-.1-.5-.3-.7s-.5-.3-.8-.3c-.4 0-.8.2-1 .5-.2.3-.3.7-.3 1.2v.2c0 .5.1.9.3 1.2.3.3.6.5 1.1.5zM221.5 202.3c-.7 0-1.2-.2-1.6-.7-.4-.4-.6-1-.6-1.7v-.2c0-.7.2-1.2.6-1.7s.9-.7 1.4-.7c.6 0 1.1.2 1.4.6s.5.9.5 1.5v.5h-3c0 .5.1.8.3 1.1.2.3.5.4.9.4.3 0 .5 0 .8-.1l.6-.3.3.6c-.2.2-.4.3-.7.4-.1.2-.5.3-.9.3zm-.1-4.2c-.3 0-.5.1-.7.4-.2.2-.3.5-.4.9h2.2v-.1c0-.3-.1-.6-.3-.8-.2-.3-.4-.4-.8-.4zM227 200.9c0-.2-.1-.3-.2-.5-.1-.1-.4-.2-.8-.3-.6-.1-1-.3-1.3-.5-.3-.2-.4-.5-.4-.9s.2-.7.5-1 .7-.4 1.3-.4c.5 0 1 .1 1.3.4.3.3.5.6.5 1h-.9c0-.2-.1-.4-.3-.6-.2-.2-.4-.2-.7-.2-.3 0-.5.1-.7.2-.1.1-.2.3-.2.5s.1.3.2.4c.1.1.4.2.8.3.6.1 1 .3 1.3.5s.4.5.4.9-.2.8-.5 1-.8.4-1.3.4c-.6 0-1.1-.2-1.4-.5-.3-.3-.5-.7-.5-1.1h.8c0 .3.1.5.3.7.2.1.5.2.7.2.3 0 .5-.1.7-.2s.4-.1.4-.3zM231 199.9c0-.8.2-1.4.5-1.8.3-.5.8-.7 1.4-.7.3 0 .5.1.7.2.2.1.4.2.5.4v-2.6h.9v6.8h-.7l-.1-.6c-.2.2-.3.4-.6.5-.2.1-.5.2-.8.2-.6 0-1-.2-1.3-.6-.4-.5-.5-1-.5-1.8zm.8.1c0 .5.1.9.3 1.1s.5.4.9.4c.3 0 .5-.1.6-.2.2-.1.3-.3.4-.5v-2.2c-.1-.2-.3-.3-.4-.5-.2-.1-.4-.2-.6-.2-.4 0-.7.2-.9.5-.2.5-.3 1-.3 1.6zM238.2 202.3c-.7 0-1.2-.2-1.6-.7-.4-.4-.6-1-.6-1.7v-.2c0-.7.2-1.2.6-1.7s.9-.7 1.4-.7c.6 0 1.1.2 1.4.6s.5.9.5 1.5v.5h-3c0 .5.1.8.3 1.1.2.3.5.4.9.4.3 0 .5 0 .8-.1l.6-.3.3.6c-.2.2-.4.3-.7.4-.2.2-.5.3-.9.3zm-.2-4.2c-.3 0-.5.1-.7.4-.2.2-.3.5-.4.9h2.2v-.1c0-.3-.1-.6-.3-.8-.1-.3-.4-.4-.8-.4zM244.9 200c0 .7-.2 1.2-.5 1.6-.3.4-.8.6-1.3.6-.3 0-.5 0-.8-.1-.2-.1-.4-.2-.6-.4v2.3h-.9v-6.5h.7l.1.6c.2-.2.3-.4.6-.5.2-.1.5-.2.8-.2.6 0 1 .2 1.4.7.4.4.5 1.1.5 1.9zm-.8-.1c0-.5-.1-1-.3-1.3s-.5-.5-.9-.5c-.2 0-.5.1-.6.2s-.3.3-.4.5v2.3c.1.2.2.3.4.5s.4.2.6.2c.4 0 .7-.1.9-.4.2-.5.3-.9.3-1.5zM247.9 202.3c-.7 0-1.2-.2-1.6-.7s-.6-1-.6-1.7v-.2c0-.7.2-1.2.6-1.7.4-.4.9-.7 1.4-.7.6 0 1.1.2 1.4.6s.5.9.5 1.5v.5h-3c0 .5.1.8.3 1.1.2.3.5.4.9.4.3 0 .5 0 .8-.1l.6-.3.3.6c-.2.2-.4.3-.7.4-.2.2-.5.3-.9.3zm-.1-4.2c-.3 0-.5.1-.7.4-.2.2-.3.5-.4.9h2.2v-.1c0-.3-.1-.6-.3-.8-.2-.3-.5-.4-.8-.4zM251.4 197.5l.1.7.6-.6c.2-.1.5-.2.8-.2.5 0 .9.1 1.2.4.3.3.4.8.4 1.4v3h-.9v-2.9c0-.4-.1-.7-.2-.9-.2-.2-.4-.3-.7-.3-.2 0-.5.1-.7.2-.2.1-.3.3-.5.5v3.4h-.9v-4.7h.8zM255.5 199.9c0-.8.2-1.4.5-1.8.3-.5.8-.7 1.4-.7.3 0 .5.1.7.2.2.1.4.2.5.4v-2.6h.9v6.8h-.7l-.1-.6c-.2.2-.3.4-.6.5s-.5.2-.8.2c-.6 0-1-.2-1.3-.6-.3-.5-.5-1-.5-1.8zm.9.1c0 .5.1.9.3 1.1.2.3.5.4.9.4.3 0 .5-.1.6-.2.2-.1.3-.3.4-.5v-2.2c-.1-.2-.3-.3-.4-.5s-.4-.2-.6-.2c-.4 0-.7.2-.9.5-.2.5-.3 1-.3 1.6zM262.8 199.8c0-.7.2-1.3.6-1.7.4-.4.9-.7 1.5-.7.7 0 1.2.2 1.5.7.4.4.6 1 .6 1.7v.1c0 .7-.2 1.3-.6 1.7-.4.4-.9.7-1.5.7s-1.2-.2-1.5-.7c-.4-.5-.6-1-.6-1.8zm.8.1c0 .5.1.9.3 1.2.2.3.5.5.9.5s.7-.2.9-.5c.2-.3.3-.7.3-1.2v-.1c0-.5-.1-.9-.3-1.2s-.5-.5-.9-.5-.7.2-.9.5-.3.7-.3 1.3zM268.8 197.5l.1.7.6-.6c.2-.1.5-.2.8-.2.5 0 .9.1 1.2.4s.4.8.4 1.4v3h-.9v-2.9c0-.4-.1-.7-.2-.9-.2-.2-.4-.3-.7-.3-.2 0-.5.1-.7.2-.2.1-.3.3-.5.5v3.4h-.9v-4.7h.8zM277.3 202.3c-.7 0-1.2-.2-1.6-.7s-.6-1-.6-1.7v-.2c0-.7.2-1.2.6-1.7.4-.4.9-.7 1.4-.7.6 0 1.1.2 1.4.6s.5.9.5 1.5v.5h-3c0 .5.1.8.3 1.1.2.3.5.4.9.4.3 0 .5 0 .8-.1l.6-.3.3.6c-.2.2-.4.3-.7.4-.2.2-.6.3-.9.3zm-.2-4.2c-.3 0-.5.1-.7.4-.2.2-.3.5-.4.9h2.2v-.1c0-.3-.1-.6-.3-.8-.2-.3-.4-.4-.8-.4zM282.9 202.2c0-.1-.1-.3-.1-.4v-.3l-.6.6c-.2.2-.5.2-.8.2-.5 0-.9-.1-1.1-.4-.3-.3-.4-.6-.4-1s.2-.8.5-1.1.9-.4 1.5-.4h.9v-.4c0-.3-.1-.5-.3-.7-.2-.2-.4-.2-.7-.2-.3 0-.5.1-.7.2-.2.1-.3.3-.3.5h-.8c0-.3.1-.7.5-.9.3-.3.8-.4 1.3-.4s1 .1 1.3.4.5.7.5 1.2v2.8c0 .2 0 .3.1.5h-.8zm-1.4-.7c.3 0 .6-.1.8-.2.2-.2.4-.3.5-.5v-.8h-1c-.3 0-.6.1-.8.3-.2.2-.3.4-.3.6 0 .2.1.4.2.5.1.1.3.1.6.1zM286.8 201.6c.3 0 .5-.1.7-.3.2-.2.3-.4.3-.6h.8c0 .4-.2.8-.5 1.1s-.8.5-1.3.5c-.7 0-1.2-.2-1.6-.7-.4-.4-.5-1-.5-1.7v-.2c0-.7.2-1.2.5-1.7s.9-.7 1.6-.7c.5 0 1 .2 1.3.5s.5.7.5 1.2h-.8c0-.3-.1-.5-.3-.7-.2-.2-.5-.3-.8-.3-.4 0-.8.2-1 .5-.2.3-.3.7-.3 1.2v.2c0 .5.1.9.3 1.2.3.3.7.5 1.1.5zM290.5 198.1c.2-.2.4-.4.6-.5.2-.1.5-.2.8-.2.5 0 .9.2 1.2.5.3.3.4.8.4 1.4v2.9h-.9v-3c0-.4-.1-.7-.2-.9-.2-.2-.4-.3-.7-.3-.2 0-.5.1-.6.2s-.4.3-.5.5v3.5h-.9v-6.8h.9v2.7zM297.8 196.3h-.8v-.9h.9v.9zm0 5.9h-.8v-4.7h.9v4.7zM299.9 197.5l.1.7.6-.6c.2-.1.5-.2.8-.2.5 0 .9.1 1.2.4s.4.8.4 1.4v3h-.9v-2.9c0-.4-.1-.7-.2-.9-.2-.2-.4-.3-.7-.3-.2 0-.5.1-.7.2-.2.1-.3.3-.5.5v3.4h-.9v-4.7h.8zM304 199.9c0-.8.2-1.4.5-1.8.3-.5.8-.7 1.4-.7.3 0 .5.1.7.2.2.1.4.2.5.4v-2.6h.9v6.8h-.7l-.1-.6c-.2.2-.3.4-.6.5s-.5.2-.8.2c-.6 0-1-.2-1.3-.6-.4-.5-.5-1-.5-1.8zm.8.1c0 .5.1.9.3 1.1.2.3.5.4.9.4.3 0 .5-.1.6-.2.2-.1.3-.3.4-.5v-2.2c-.1-.2-.3-.3-.4-.5-.2-.1-.4-.2-.6-.2-.4 0-.7.2-.9.5-.2.5-.3 1-.3 1.6zM310.2 196.3h-.9v-.9h.9v.9zm0 5.9h-.9v-4.7h.9v4.7zM313 200.8l.1.3.1-.3 1.1-3.3h.9l-1.7 4.7h-.6l-1.7-4.7h.9l.9 3.3zM316.9 196.3h-.9v-.9h.9v.9zm0 5.9h-.9v-4.7h.9v4.7zM318 199.9c0-.8.2-1.4.5-1.8.3-.5.8-.7 1.4-.7.3 0 .5.1.7.2.2.1.4.2.5.4v-2.6h.9v6.8h-.7l-.1-.6c-.2.2-.3.4-.6.5s-.5.2-.8.2c-.6 0-1-.2-1.3-.6-.3-.5-.5-1-.5-1.8zm.8.1c0 .5.1.9.3 1.1.2.3.5.4.9.4.3 0 .5-.1.6-.2.2-.1.3-.3.4-.5v-2.2c-.1-.2-.3-.3-.4-.5-.2-.1-.4-.2-.6-.2-.4 0-.7.2-.9.5-.2.5-.3 1-.3 1.6zM326.2 201.5c-.1.3-.3.4-.6.6-.2.1-.5.2-.8.2-.5 0-.9-.2-1.2-.5-.3-.3-.4-.8-.4-1.5v-2.8h.9v2.8c0 .5.1.8.2 1s.4.3.7.3c.3 0 .6-.1.8-.2s.3-.3.4-.5v-3.4h.9v4.7h-.8l-.1-.7zM331.2 202.2c0-.1-.1-.3-.1-.4v-.3l-.6.6c-.2.2-.5.2-.8.2-.5 0-.9-.1-1.1-.4-.3-.3-.4-.6-.4-1s.2-.8.5-1.1.9-.4 1.5-.4h.9v-.4c0-.3-.1-.5-.3-.7-.2-.2-.4-.2-.7-.2-.3 0-.5.1-.7.2-.2.1-.3.3-.3.5h-.8c0-.3.1-.7.5-.9.3-.3.8-.4 1.3-.4s1 .1 1.3.4.5.7.5 1.2v2.8c0 .2 0 .3.1.5h-.8zm-1.4-.7c.3 0 .6-.1.8-.2.2-.2.4-.3.5-.5v-.8h-1c-.3 0-.6.1-.8.3-.2.2-.3.4-.3.6 0 .2.1.4.2.5.1.1.3.1.6.1zM334.1 202.2h-.9v-6.8h.9v6.8zM341.6 200c0 .7-.2 1.2-.5 1.6-.3.4-.8.6-1.3.6-.3 0-.5 0-.8-.1-.2-.1-.4-.2-.6-.4v2.3h-.9v-6.5h.7l.1.6c.2-.2.3-.4.6-.5.2-.1.5-.2.8-.2.6 0 1 .2 1.4.7.4.4.5 1.1.5 1.9zm-.8-.1c0-.5-.1-1-.3-1.3s-.5-.5-.9-.5c-.2 0-.5.1-.6.2s-.3.3-.4.5v2.3c.1.2.2.3.4.5s.4.2.6.2c.4 0 .7-.1.9-.4.2-.5.3-.9.3-1.5zM344.9 198.2h-.4c-.2 0-.4.1-.6.2-.2.1-.3.3-.4.5v3.4h-.9v-4.7h.8l.1.7c.1-.2.3-.4.5-.6.2-.1.4-.2.7-.2H345l-.1.7zM345.5 199.8c0-.7.2-1.3.6-1.7.4-.4.9-.7 1.5-.7.7 0 1.2.2 1.5.7.4.4.6 1 .6 1.7v.1c0 .7-.2 1.3-.6 1.7-.4.4-.9.7-1.5.7s-1.2-.2-1.5-.7c-.5-.5-.6-1-.6-1.8zm.8.1c0 .5.1.9.3 1.2.2.3.5.5.9.5s.7-.2.9-.5c.2-.3.3-.7.3-1.2v-.1c0-.5-.1-.9-.3-1.2s-.5-.5-.9-.5-.7.2-.9.5-.3.7-.3 1.3zM351.7 197.5v5.1c0 .5-.1.9-.4 1.1-.2.3-.6.4-1 .4h-.2c-.1 0-.2 0-.2-.1l.1-.7h.4c.2 0 .3-.1.4-.2.1-.1.2-.3.2-.6v-5.1h.7zm0-1.2h-.9v-.9h.9v.9zM355 202.3c-.7 0-1.2-.2-1.6-.7s-.6-1-.6-1.7v-.2c0-.7.2-1.2.6-1.7.4-.4.9-.7 1.4-.7.6 0 1.1.2 1.4.6s.5.9.5 1.5v.5h-3c0 .5.1.8.3 1.1.2.3.5.4.9.4.3 0 .5 0 .8-.1l.6-.3.3.6c-.2.2-.4.3-.7.4-.2.2-.5.3-.9.3zm-.2-4.2c-.3 0-.5.1-.7.4-.2.2-.3.5-.4.9h2.2v-.1c0-.3-.1-.6-.3-.8-.2-.3-.4-.4-.8-.4zM359.6 201.6c.3 0 .5-.1.7-.3.2-.2.3-.4.3-.6h.8c0 .4-.2.8-.5 1.1s-.8.5-1.3.5c-.7 0-1.2-.2-1.6-.7-.4-.4-.5-1-.5-1.7v-.2c0-.7.2-1.2.5-1.7s.9-.7 1.6-.7c.5 0 1 .2 1.3.5s.5.7.5 1.2h-.8c0-.3-.1-.5-.3-.7-.2-.2-.5-.3-.8-.3-.4 0-.8.2-1 .5-.2.3-.3.7-.3 1.2v.2c0 .5.1.9.3 1.2.4.3.7.5 1.1.5zM363.6 196.3v1.1h.9v.6h-.9v2.9c0 .2 0 .4.1.5s.2.1.4.1h.4l.1.6c-.1.1-.2.1-.3.1h-.4c-.3 0-.6-.1-.8-.3-.2-.2-.3-.5-.3-1V198h-.8v-.6h.7v-1.1h.9zM366.4 202.2h-.9v-.9h.9v.9z"/></svg>