<svg xmlns="http://www.w3.org/2000/svg" viewBox="0 0 610.2 165.4"><style>.st0{fill:#6da2a3}.st1{fill:#3d3d3d}</style><g id="Website_Design"><g id="Lines"><g id="Lines_3_"><path class="st0" d="M348.7 18h26v1h-26zM348.7 68h26v1h-26zM348.7 96h26v1h-26zM348.7 129h26v1h-26zM348.7 159h26v1h-26z"/><path class="st0" d="M348.2 18.5h1v141h-1z"/></g></g><g id="Types_2_"><path class="st1" d="M396.1 98.4c-.1 1-.4 1.8-1.1 2.4-.6.6-1.5.9-2.5.9-1.1 0-2-.4-2.7-1.2s-1-1.8-1-3.1v-1.6c0-1.3.3-2.3 1-3.1.7-.8 1.6-1.2 2.7-1.2s1.9.3 2.5.8c.6.6 1 1.3 1.1 2.4h-.8c-.1-.8-.4-1.5-.8-1.9-.5-.4-1.1-.7-1.9-.7-.9 0-1.6.3-2.1 1s-.8 1.5-.8 2.6v1.6c0 1.1.3 1.9.8 2.6.5.7 1.2 1 2.1 1 .8 0 1.5-.2 1.9-.6s.7-1.1.8-1.9h.8zM402.9 100.3c-.2.4-.6.8-1 1-.4.2-.9.4-1.4.4-.8 0-1.4-.3-1.8-.8-.4-.5-.7-1.3-.7-2.5v-4.3h.8v4.3c0 .9.2 1.5.5 1.9.3.4.7.6 1.3.6.6 0 1.1-.1 1.5-.4s.6-.7.8-1.1v-5.3h.8v7.4h-.7l-.1-1.2zM410.2 99.6c0-.3-.1-.6-.4-.9-.3-.3-.8-.5-1.5-.6-.9-.2-1.5-.4-2-.8-.4-.3-.6-.8-.6-1.3 0-.6.2-1 .7-1.4.5-.4 1.1-.6 1.9-.6.8 0 1.5.2 2 .6.5.4.7.9.7 1.5h-.8c0-.4-.2-.8-.5-1.1-.3-.3-.8-.5-1.4-.5-.6 0-1 .1-1.3.4-.3.3-.4.6-.4.9 0 .3.1.6.4.8s.8.4 1.5.6c.9.2 1.5.5 2 .8s.7.8.7 1.4c0 .6-.2 1.1-.7 1.5-.5.4-1.2.6-2 .6-.9 0-1.6-.2-2.1-.6-.5-.4-.8-.9-.7-1.5h.8c0 .5.2.9.7 1.2.4.2.9.4 1.4.4.6 0 1.1-.1 1.4-.4.1-.3.2-.6.2-1zM414.2 92.2v1.9h1.6v.7h-1.6v4.8c0 .5.1.8.3 1 .2.2.4.3.7.3h.4c.1 0 .3 0 .4-.1l.1.6c-.1.1-.3.1-.5.1h-.6c-.5 0-.9-.2-1.2-.5-.3-.3-.4-.8-.4-1.6v-4.8h-1.3v-.7h1.3V92h.8zM417 97.7c0-1.1.3-2 .9-2.7.6-.7 1.4-1 2.4-1s1.8.3 2.4 1c.6.7.9 1.6.9 2.7v.2c0 1.1-.3 2-.9 2.7-.6.7-1.4 1-2.4 1s-1.8-.3-2.4-1c-.6-.7-.9-1.6-.9-2.7v-.2zm.8.2c0 .9.2 1.6.6 2.2.4.6 1 .9 1.8.9s1.4-.3 1.8-.9c.4-.6.7-1.3.7-2.2v-.2c0-.8-.2-1.6-.7-2.1s-1-.9-1.8-.9-1.4.3-1.8.9c-.4.6-.6 1.3-.6 2.1v.2zM425.9 94.1l.1 1.2c.2-.4.6-.8.9-1 .4-.2.9-.4 1.4-.4.6 0 1 .1 1.4.4.4.3.7.7.8 1.2.2-.5.5-.9 1-1.2.4-.3.9-.4 1.5-.4.8 0 1.4.3 1.8.8.4.5.6 1.3.6 2.4v4.3h-.8v-4.3c0-.9-.2-1.6-.5-1.9s-.8-.6-1.3-.6c-.6 0-1.1.2-1.5.6s-.6.9-.6 1.5V101.3h-.8V97c0-.9-.2-1.5-.5-1.9s-.8-.6-1.3-.6c-.6 0-1 .1-1.4.4s-.6.7-.7 1.2v5.2h-.8v-7.4h.7zM446.8 96.8H442v4.7h-.8v-9.9h6.3v.7H442v3.9h4.8v.6zM452.2 94.8h-.6c-.5 0-.9.1-1.3.4-.3.3-.6.7-.7 1.2v5.1h-.8v-7.4h.7l.1 1.2v.1c.2-.5.5-.8.9-1.1.4-.3.8-.4 1.3-.4h.3c.1 0 .2 0 .2.1l-.1.8zM458.3 101.5c-.1-.2-.1-.5-.1-.6v-.6c-.3.4-.6.7-1.1 1-.5.3-1 .4-1.5.4-.7 0-1.3-.2-1.7-.6-.4-.4-.6-.9-.6-1.5 0-.7.3-1.2.9-1.6s1.4-.6 2.4-.6h1.6v-.9c0-.5-.2-.9-.5-1.2-.3-.3-.8-.5-1.4-.5-.6 0-1 .1-1.4.4-.4.3-.6.6-.6 1.1h-.8c0-.5.2-1 .8-1.5.5-.4 1.2-.7 2-.7s1.5.2 2 .6c.5.4.7 1 .7 1.8v4.4c0 .2.1.5.1.7h-.8zm-2.7-.6c.6 0 1.1-.1 1.6-.4s.8-.6 1-1.1v-1.5h-1.6c-.7 0-1.3.2-1.8.5-.4.3-.7.7-.7 1.2 0 .4.1.7.4 1 .2.2.6.3 1.1.3zM461.8 94.1l.1 1.2c.2-.4.6-.8.9-1s.9-.4 1.4-.4c.6 0 1 .1 1.4.4.4.3.7.7.8 1.2.2-.5.5-.9 1-1.2.4-.3.9-.4 1.5-.4.8 0 1.4.3 1.8.8.4.5.6 1.3.6 2.4v4.3h-.8v-4.3c0-.9-.2-1.6-.5-1.9s-.8-.6-1.3-.6c-.6 0-1.1.2-1.5.6-.3.4-.6.9-.6 1.5V101.3h-.8V97c0-.9-.2-1.5-.5-1.9s-.8-.6-1.3-.6c-.6 0-1 .1-1.4.4-.3.3-.6.7-.7 1.2v5.2h-.8v-7.4h.7zM476.3 101.6c-.9 0-1.7-.3-2.3-1-.6-.7-.9-1.5-.9-2.6v-.4c0-1.1.3-1.9.9-2.6.6-.7 1.3-1 2.2-1 .9 0 1.6.3 2.1.9.5.6.8 1.3.8 2.3v.7h-5.2v.1c0 .8.2 1.5.7 2.1.4.6 1 .8 1.7.8.5 0 .9-.1 1.3-.2s.7-.3.9-.6l.3.6c-.3.3-.6.5-1.1.7-.4.2-.9.2-1.4.2zm-.1-6.9c-.6 0-1.1.2-1.5.7s-.6 1-.7 1.7h4.3v-.2c0-.6-.2-1.2-.6-1.6-.4-.4-.9-.6-1.5-.6zM482.3 99.1l.3 1.3.3-1.3 1.6-5h.7l1.6 5 .4 1.4.3-1.4 1.3-5h.8l-2.1 7.4h-.7l-1.6-5-.3-1.3-.3 1.3-1.6 5h-.7l-2.1-7.4h.8l1.3 5zM490.8 97.7c0-1.1.3-2 .9-2.7.6-.7 1.4-1 2.4-1s1.8.3 2.4 1c.6.7.9 1.6.9 2.7v.2c0 1.1-.3 2-.9 2.7-.6.7-1.4 1-2.4 1s-1.8-.3-2.4-1c-.6-.7-.9-1.6-.9-2.7v-.2zm.8.2c0 .9.2 1.6.6 2.2.4.6 1 .9 1.8.9s1.4-.3 1.8-.9c.4-.6.7-1.3.7-2.2v-.2c0-.8-.2-1.6-.7-2.1s-1-.9-1.8-.9-1.4.3-1.8.9c-.4.6-.6 1.3-.6 2.1v.2zM502.4 94.8h-.6c-.5 0-.9.1-1.3.4-.3.3-.6.7-.7 1.2v5.1h-.8v-7.4h.7l.1 1.2v.1c.2-.5.5-.8.9-1.1.4-.3.8-.4 1.3-.4h.3c.1 0 .2 0 .2.1l-.1.8zM505.5 97.9h-.9v3.6h-.8V90.9h.8v6.3h.9l2.7-3.1h1l-3 3.3 3.3 4h-.9l-3.1-3.5zM515.1 99.6c0-.3-.1-.6-.4-.9-.3-.3-.8-.5-1.5-.6-.9-.2-1.5-.4-2-.8-.4-.3-.6-.8-.6-1.3 0-.6.2-1 .7-1.4.5-.4 1.1-.6 1.9-.6.8 0 1.5.2 2 .6.5.4.7.9.7 1.5h-.9c0-.4-.2-.8-.5-1.1-.3-.3-.8-.5-1.4-.5-.6 0-1 .1-1.3.4-.3.3-.4.6-.4.9 0 .3.1.6.4.8.3.2.8.4 1.5.6.9.2 1.5.5 2 .8.4.3.7.8.7 1.4 0 .6-.2 1.1-.7 1.5s-1.2.6-2 .6c-.9 0-1.6-.2-2.1-.6-.5-.4-.8-.9-.7-1.5h.8c0 .5.2.9.7 1.2.4.2.9.4 1.4.4.6 0 1.1-.1 1.4-.4.1-.3.3-.6.3-1z"/><g><path class="st1" d="M390.1 67.4v4.1h-.8v-9.9h3.4c1 0 1.8.3 2.4.8.6.5.9 1.2.9 2.1 0 .9-.3 1.6-.9 2.1s-1.4.8-2.4.8h-2.6zm0-.7h2.6c.8 0 1.4-.2 1.8-.6.4-.4.6-.9.6-1.6 0-.6-.2-1.2-.6-1.6s-1-.6-1.8-.6h-2.6v4.4zM398.6 62h-.8v-1.1h.8V62zm0 9.5h-.8v-7.4h.8v7.4zM403.2 67.1l2-3h1l-2.5 3.6 2.6 3.8h-1l-2.1-3.1-2.1 3.1h-1l2.6-3.8-2.5-3.6h1l2 3zM410.4 71.6c-.9 0-1.7-.3-2.3-1-.6-.7-.9-1.5-.9-2.6v-.4c0-1.1.3-1.9.9-2.6.6-.7 1.3-1 2.2-1 .9 0 1.6.3 2.1.9.5.6.8 1.3.8 2.3v.7H408v.1c0 .8.2 1.5.7 2.1.4.6 1 .8 1.7.8.5 0 .9-.1 1.3-.2s.7-.3.9-.6l.3.6c-.3.3-.6.5-1.1.7-.4.2-.9.2-1.4.2zm-.1-6.9c-.6 0-1.1.2-1.5.7s-.6 1-.7 1.7h4.3v-.2c0-.6-.2-1.2-.6-1.6-.4-.4-.9-.6-1.5-.6zM415.7 71.5h-.8V60.9h.8v10.6zM422.4 67.4v4.1h-.8v-9.9h3.4c1 0 1.8.3 2.4.8.6.5.9 1.2.9 2.1 0 .9-.3 1.6-.9 2.1-.6.5-1.4.8-2.4.8h-2.6zm0-.7h2.6c.8 0 1.4-.2 1.8-.6.4-.4.6-.9.6-1.6 0-.6-.2-1.2-.6-1.6s-1-.6-1.8-.6h-2.6v4.4zM432.7 71.6c-.9 0-1.7-.3-2.3-1-.6-.7-.9-1.5-.9-2.6v-.4c0-1.1.3-1.9.9-2.6.6-.7 1.3-1 2.2-1 .9 0 1.6.3 2.1.9.5.6.8 1.3.8 2.3v.7h-5.2v.1c0 .8.2 1.5.7 2.1.4.6 1 .8 1.7.8.5 0 .9-.1 1.3-.2s.7-.3.9-.6l.3.6c-.3.3-.6.5-1.1.7-.3.2-.8.2-1.4.2zm-.1-6.9c-.6 0-1.1.2-1.5.7s-.6 1-.7 1.7h4.3v-.2c0-.6-.2-1.2-.6-1.6-.4-.4-.9-.6-1.5-.6zM440.5 64.8h-.6c-.5 0-.9.1-1.3.4-.3.3-.6.7-.7 1.2v5.1h-.8v-7.4h.7l.1 1.2v.1c.2-.5.5-.8.9-1.1.4-.3.8-.4 1.3-.4h.3c.1 0 .2 0 .2.1l-.1.8zM442.5 71.5v-6.7h-1.2v-.7h1.2V63c0-.7.2-1.3.6-1.7.4-.4.9-.6 1.6-.6h.5c.2 0 .3.1.5.1l-.1.7c-.1 0-.2 0-.3-.1h-.4c-.4 0-.8.1-1 .4s-.4.7-.4 1.2v1.1h1.8v.7h-1.8v6.7h-1zM449.1 71.6c-.9 0-1.7-.3-2.3-1-.6-.7-.9-1.5-.9-2.6v-.4c0-1.1.3-1.9.9-2.6.6-.7 1.3-1 2.2-1 .9 0 1.6.3 2.1.9.5.6.8 1.3.8 2.3v.7h-5.2v.1c0 .8.2 1.5.7 2.1.4.6 1 .8 1.7.8.5 0 .9-.1 1.3-.2s.7-.3.9-.6l.3.6c-.3.3-.6.5-1.1.7-.3.2-.8.2-1.4.2zm-.1-6.9c-.6 0-1.1.2-1.5.7s-.6 1-.7 1.7h4.3v-.2c0-.6-.2-1.2-.6-1.6-.3-.4-.8-.6-1.5-.6zM456.3 71c.5 0 1-.2 1.4-.5.4-.3.6-.7.6-1.3h.7c0 .7-.2 1.3-.8 1.7-.6.5-1.2.7-2 .7-1 0-1.8-.3-2.3-1-.5-.7-.8-1.6-.8-2.7v-.3c0-1.1.3-2 .8-2.6.5-.7 1.3-1 2.3-1 .8 0 1.5.2 2 .7s.8 1.1.8 1.9h-.7c0-.6-.2-1.1-.6-1.4-.4-.4-.9-.5-1.5-.5-.8 0-1.4.3-1.8.8s-.6 1.3-.6 2.1v.4c0 .9.2 1.6.6 2.2.5.5 1.1.8 1.9.8zM462.1 62.2v1.9h1.6v.7h-1.6v4.8c0 .5.1.8.3 1 .2.2.4.3.7.3h.4c.1 0 .3 0 .4-.1l.1.6c-.1.1-.3.1-.5.1h-.6c-.5 0-.9-.2-1.2-.5-.3-.3-.4-.8-.4-1.6v-4.8H460v-.7h1.3V62h.8zM469.1 71.5v-9.9h2.9c1.2 0 2.2.4 3 1.2.8.8 1.2 1.8 1.2 3.1v1.3c0 1.3-.4 2.3-1.2 3.1s-1.8 1.2-3 1.2h-2.9zm.8-9.2v8.5h2.1c1 0 1.8-.3 2.4-1 .6-.7 1-1.6 1-2.6v-1.3c0-1-.3-1.9-1-2.6s-1.4-1-2.4-1h-2.1zM480.8 71.6c-.9 0-1.7-.3-2.3-1-.6-.7-.9-1.5-.9-2.6v-.4c0-1.1.3-1.9.9-2.6.6-.7 1.3-1 2.2-1 .9 0 1.6.3 2.1.9.5.6.8 1.3.8 2.3v.7h-5.2v.1c0 .8.2 1.5.7 2.1.4.6 1 .8 1.7.8.5 0 .9-.1 1.3-.2s.7-.3.9-.6l.3.6c-.3.3-.6.5-1.1.7-.3.2-.8.2-1.4.2zm-.1-6.9c-.6 0-1.1.2-1.5.7s-.6 1-.7 1.7h4.3v-.2c0-.6-.2-1.2-.6-1.6-.4-.4-.9-.6-1.5-.6zM489.6 69.6c0-.3-.1-.6-.4-.9-.3-.3-.8-.5-1.5-.6-.9-.2-1.5-.4-2-.8-.4-.3-.6-.8-.6-1.3 0-.6.2-1 .7-1.4.5-.4 1.1-.6 1.9-.6.8 0 1.5.2 2 .6.5.4.7.9.7 1.5h-.8c0-.4-.2-.8-.5-1.1-.3-.3-.8-.5-1.4-.5-.6 0-1 .1-1.3.4-.3.3-.4.6-.4.9 0 .3.1.6.4.8.3.2.8.4 1.5.6.9.2 1.5.5 2 .8.4.3.7.8.7 1.4 0 .6-.2 1.1-.7 1.5s-1.2.6-2 .6c-.9 0-1.6-.2-2.1-.6-.5-.4-.8-.9-.7-1.5h.8c0 .5.2.9.7 1.2.4.2.9.4 1.4.4.6 0 1.1-.1 1.4-.4 0-.3.2-.6.2-1zM493.2 62h-.8v-1.1h.8V62zm0 9.5h-.8v-7.4h.8v7.4zM495.2 67.9c0-1.2.3-2.1.8-2.8.5-.7 1.2-1.1 2.1-1.1.5 0 1 .1 1.4.3s.7.6.9 1l.1-1.2h.7v7.3c0 1-.3 1.7-.8 2.3-.5.6-1.3.8-2.2.8-.4 0-.7 0-1.1-.1s-.8-.2-1-.4l.2-.7c.3.1.6.3.9.3.3.1.7.1 1 .1.7 0 1.3-.2 1.6-.6.4-.4.5-1 .5-1.7v-.9c-.2.4-.6.7-.9.9s-.8.3-1.3.3c-.9 0-1.6-.3-2.1-1s-.8-1.5-.8-2.6v-.2zm.8.1c0 .9.2 1.6.5 2.1.4.5.9.8 1.6.8.5 0 1-.1 1.3-.4.4-.2.6-.6.8-1v-3.4c-.2-.4-.4-.8-.8-1.1-.3-.3-.8-.4-1.3-.4-.7 0-1.3.3-1.6.9s-.6 1.4-.6 2.3v.2zM504 64.1l.1 1.3c.2-.5.6-.8 1-1.1.4-.2.9-.4 1.4-.4.8 0 1.4.2 1.8.7.4.5.6 1.3.6 2.3v4.5h-.8V67c0-.8-.2-1.4-.5-1.8-.3-.4-.8-.5-1.3-.5-.6 0-1 .2-1.4.5s-.6.7-.8 1.2v5.2h-.8v-7.4h.7z"/></g><g><path class="st1" d="M390.4 151.6l3.6 8.7 3.7-8.7h1.1v9.9h-.8v-4.4l.1-4.3-3.7 8.7h-.6l-3.7-8.7.1 4.3v4.4h-.8v-9.9h1zM404 161.7c-.9 0-1.7-.3-2.3-1s-.9-1.5-.9-2.6v-.4c0-1.1.3-1.9.9-2.6.6-.7 1.3-1 2.2-1 .9 0 1.6.3 2.1.9s.8 1.3.8 2.3v.7h-5.2v.2c0 .8.2 1.5.7 2.1.4.6 1 .8 1.7.8.5 0 .9-.1 1.3-.2s.7-.3.9-.6l.3.6c-.3.3-.6.5-1.1.7-.4 0-.9.1-1.4.1zm-.2-7c-.6 0-1.1.2-1.5.7s-.6 1-.7 1.7h4.3v-.2c0-.6-.2-1.2-.6-1.6-.3-.4-.8-.6-1.5-.6zM408.1 157.9c0-1.2.2-2.1.7-2.8.5-.7 1.2-1.1 2.1-1.1.5 0 1 .1 1.3.3.4.2.7.5.9.9v-4.4h.8v10.6h-.7l-.1-1.1c-.2.4-.6.7-.9.9-.4.2-.8.3-1.4.3-.9 0-1.6-.3-2.1-1s-.7-1.5-.7-2.6zm.8.1c0 .9.2 1.6.5 2.1.4.5.9.8 1.6.8.5 0 1-.1 1.3-.4.4-.2.6-.6.8-1V156c-.2-.4-.4-.8-.8-1-.3-.3-.8-.4-1.3-.4-.7 0-1.3.3-1.6.9-.4.6-.5 1.4-.5 2.3v.2zM417.1 152h-.8v-1.1h.8v1.1zm0 9.5h-.8v-7.4h.8v7.4zM424 161.5c-.1-.2-.1-.5-.1-.6v-.6c-.3.4-.6.7-1.1 1-.5.3-1 .4-1.5.4-.7 0-1.3-.2-1.7-.6-.4-.4-.6-.9-.6-1.5 0-.7.3-1.2.9-1.6s1.4-.6 2.4-.6h1.6v-.9c0-.5-.2-.9-.5-1.2-.3-.3-.8-.5-1.4-.5-.6 0-1 .1-1.4.4-.4.3-.6.6-.6 1.1h-.8c0-.5.2-1 .8-1.5.5-.4 1.2-.7 2-.7s1.5.2 2 .6c.5.4.7 1 .7 1.8v4.4c0 .2.1.5.1.7h-.8zm-2.7-.6c.6 0 1.1-.1 1.6-.4.5-.3.8-.6 1-1.1v-1.5h-1.6c-.7 0-1.3.2-1.8.5-.4.3-.7.7-.7 1.2 0 .4.1.7.4 1 .2.2.6.3 1.1.3zM430.5 161.5v-9.9h2.9c1.2 0 2.2.4 3 1.2s1.2 1.8 1.2 3.1v1.3c0 1.3-.4 2.3-1.2 3.1s-1.8 1.2-3 1.2h-2.9zm.8-9.2v8.5h2.1c1 0 1.8-.3 2.4-1 .6-.7 1-1.6 1-2.6v-1.3c0-1-.3-1.9-1-2.6-.6-.7-1.4-1-2.4-1h-2.1zM442.8 154.8h-.6c-.5 0-.9.1-1.3.4-.3.3-.6.7-.7 1.2v5.1h-.8v-7.4h.7l.1 1.2v.1c.2-.5.5-.8.9-1.1.4-.3.8-.4 1.3-.4h.3c.1 0 .2 0 .2.1l-.1.8zM445.1 152h-.8v-1.1h.8v1.1zm0 9.5h-.8v-7.4h.8v7.4zM449.4 159.7l.2.9.3-.9 2-5.5h.8l-2.8 7.4h-.7l-2.8-7.4h.8l2.2 5.5zM456.8 161.7c-.9 0-1.7-.3-2.3-1s-.9-1.5-.9-2.6v-.4c0-1.1.3-1.9.9-2.6.6-.7 1.3-1 2.2-1 .9 0 1.6.3 2.1.9s.8 1.3.8 2.3v.7h-5.2v.2c0 .8.2 1.5.7 2.1s1 .8 1.7.8c.5 0 .9-.1 1.3-.2s.7-.3.9-.6l.3.6c-.3.3-.6.5-1.1.7-.3 0-.8.1-1.4.1zm-.1-7c-.6 0-1.1.2-1.5.7s-.6 1-.7 1.7h4.3v-.2c0-.6-.2-1.2-.6-1.6-.3-.4-.8-.6-1.5-.6zM462 154.1l.1 1.3c.2-.5.6-.8 1-1.1.4-.2.9-.4 1.4-.4.8 0 1.4.2 1.8.7.4.5.6 1.3.6 2.3v4.5h-.8V157c0-.8-.2-1.4-.5-1.8s-.8-.5-1.3-.5c-.6 0-1 .2-1.4.5s-.6.7-.8 1.2v5.2h-.8v-7.4h.7z"/></g><g><path class="st1" d="M396.6 127.4c0 1.3-.4 2.3-1.1 3.1s-1.6 1.2-2.8 1.2c-1.2 0-2.1-.4-2.8-1.2s-1-1.8-1-3.1v-1.6c0-1.3.3-2.3 1-3.1.7-.8 1.6-1.2 2.8-1.2 1.2 0 2.1.4 2.8 1.2.7.8 1.1 1.8 1.1 3.1v1.6zm-.9-1.7c0-1.1-.3-1.9-.8-2.6-.5-.7-1.3-1-2.3-1-.9 0-1.7.3-2.2 1-.5.7-.8 1.5-.8 2.6v1.6c0 1.1.3 2 .8 2.6.5.7 1.3 1 2.2 1 1 0 1.7-.3 2.3-1 .5-.7.8-1.5.8-2.6v-1.6zM404.4 128c0 1.1-.2 2-.8 2.6-.5.7-1.2 1-2.1 1-.5 0-1-.1-1.4-.3s-.7-.5-1-.8v3.8h-.8v-10.2h.7l.1 1.1c.2-.4.6-.7 1-.9s.8-.3 1.4-.3c.9 0 1.6.4 2.1 1.1.5.7.8 1.6.8 2.8v.1zm-.8-.1c0-.9-.2-1.7-.6-2.3s-.9-.9-1.6-.9c-.5 0-1 .1-1.3.4-.3.3-.6.6-.8 1v3.6c.2.4.5.7.8 1 .4.2.8.3 1.3.3.7 0 1.3-.3 1.6-.8.4-.5.6-1.2.6-2.1v-.2zM407.5 122.3v1.9h1.6v.7h-1.6v4.8c0 .5.1.8.3 1 .2.2.4.3.7.3h.4c.1 0 .3 0 .4-.1l.1.6c-.1.1-.3.1-.5.1h-.6c-.5 0-.9-.2-1.2-.5-.3-.3-.4-.8-.4-1.6v-4.8h-1.3v-.7h1.3v-1.9h.8zM411.8 122h-.8v-1.1h.8v1.1zm0 9.5h-.8v-7.4h.8v7.4zM414.7 124.1l.1 1.2c.2-.4.6-.8.9-1 .4-.2.9-.4 1.4-.4.6 0 1 .1 1.4.4.4.3.7.7.8 1.2.2-.5.5-.9 1-1.2.4-.3.9-.4 1.5-.4.8 0 1.4.3 1.8.8.4.5.6 1.3.6 2.4v4.3h-.8v-4.3c0-.9-.2-1.6-.5-1.9s-.8-.6-1.3-.6c-.6 0-1.1.2-1.5.6s-.6.9-.6 1.5V131.3h-.8V127c0-.9-.2-1.5-.5-1.9s-.8-.6-1.3-.6c-.6 0-1 .1-1.4.4s-.6.7-.7 1.2v5.2h-.8v-7.4h.7zM427.3 122h-.8v-1.1h.8v1.1zm0 9.5h-.8v-7.4h.8v7.4zM430.2 130.8h4.8v.7h-5.8v-.6l4.4-6.1h-4.3v-.7h5.3v.6l-4.4 6.1zM439.1 131.7c-.9 0-1.7-.3-2.3-1-.6-.7-.9-1.5-.9-2.6v-.4c0-1.1.3-1.9.9-2.6.6-.7 1.3-1 2.2-1 .9 0 1.6.3 2.1.9.5.6.8 1.3.8 2.3v.7h-5.2v.2c0 .8.2 1.5.7 2.1.4.6 1 .8 1.7.8.5 0 .9-.1 1.3-.2s.7-.3.9-.6l.3.6c-.3.3-.6.5-1.1.7s-.8.1-1.4.1zm-.1-7c-.6 0-1.1.2-1.5.7s-.6 1-.7 1.7h4.3v-.2c0-.6-.2-1.2-.6-1.6-.3-.4-.9-.6-1.5-.6zM443.2 127.9c0-1.2.2-2.1.7-2.8s1.2-1.1 2.1-1.1c.5 0 1 .1 1.3.3.4.2.7.5.9.9v-4.4h.8v10.6h-.7l-.1-1.1c-.2.4-.6.7-.9.9s-.8.3-1.4.3c-.9 0-1.6-.3-2.1-1s-.7-1.5-.7-2.6zm.8.1c0 .9.2 1.6.5 2.1.4.5.9.8 1.6.8.5 0 1-.1 1.3-.4.4-.2.6-.6.8-1V126c-.2-.4-.5-.8-.8-1-.3-.3-.8-.4-1.3-.4-.7 0-1.3.3-1.6.9-.4.6-.5 1.4-.5 2.3v.2zM461.6 122.3h-3.4v9.2h-.8v-9.2H454v-.7h7.7v.7zM466.9 131.5c-.1-.2-.1-.5-.1-.6v-.6c-.3.4-.6.7-1.1 1-.5.3-1 .4-1.5.4-.7 0-1.3-.2-1.7-.6s-.6-.9-.6-1.5c0-.7.3-1.2.9-1.6s1.4-.6 2.4-.6h1.6v-.9c0-.5-.2-.9-.5-1.2-.3-.3-.8-.5-1.4-.5-.6 0-1 .1-1.4.4-.4.3-.6.6-.6 1.1h-.8c0-.5.2-1 .8-1.5s1.2-.7 2-.7 1.5.2 2 .6c.5.4.7 1 .7 1.8v4.4c0 .2.1.5.1.7h-.8zm-2.7-.6c.6 0 1.1-.1 1.6-.4.5-.3.8-.6 1-1.1v-1.5h-1.6c-.7 0-1.3.2-1.8.5-.4.3-.7.7-.7 1.2 0 .4.1.7.4 1 .2.2.6.3 1.1.3zM472.4 131c.5 0 1-.2 1.4-.5.4-.3.6-.7.6-1.3h.7c0 .7-.2 1.3-.8 1.7s-1.2.7-2 .7c-1 0-1.8-.3-2.3-1-.5-.7-.8-1.6-.8-2.7v-.3c0-1.1.3-2 .8-2.6.5-.7 1.3-1 2.3-1 .8 0 1.5.2 2 .7.5.5.8 1.1.8 1.9h-.7c0-.6-.2-1.1-.6-1.4-.4-.4-.9-.5-1.5-.5-.8 0-1.4.3-1.8.8-.4.6-.6 1.3-.6 2.1v.3c0 .9.2 1.6.6 2.2.6.6 1.1.9 1.9.9zM478.2 122.3v1.9h1.6v.7h-1.6v4.8c0 .5.1.8.3 1 .2.2.4.3.7.3h.4c.1 0 .3 0 .4-.1l.1.6c-.1.1-.3.1-.5.1h-.6c-.5 0-.9-.2-1.2-.5-.3-.3-.4-.8-.4-1.6v-4.8h-1.3v-.7h1.3v-1.9h.8zM482.5 122h-.8v-1.1h.8v1.1zm0 9.5h-.8v-7.4h.8v7.4zM487.5 131c.5 0 1-.2 1.4-.5s.6-.7.6-1.3h.7c0 .7-.2 1.3-.8 1.7s-1.2.7-2 .7c-1 0-1.8-.3-2.3-1-.5-.7-.8-1.6-.8-2.7v-.3c0-1.1.3-2 .8-2.6.5-.7 1.3-1 2.3-1 .8 0 1.5.2 2 .7s.8 1.1.8 1.9h-.7c0-.6-.2-1.1-.6-1.4-.4-.4-.9-.5-1.5-.5-.8 0-1.4.3-1.8.8s-.6 1.3-.6 2.1v.3c0 .9.2 1.6.6 2.2.5.6 1.1.9 1.9.9zM496.4 129.6c0-.3-.1-.6-.4-.9s-.8-.5-1.5-.6c-.9-.2-1.5-.4-2-.8-.4-.3-.6-.8-.6-1.3 0-.6.2-1 .7-1.4.5-.4 1.1-.6 1.9-.6.8 0 1.5.2 2 .6s.7.9.7 1.5h-.8c0-.4-.2-.8-.5-1.1-.3-.3-.8-.5-1.4-.5-.6 0-1 .1-1.3.4s-.4.6-.4.9c0 .3.1.6.4.8s.8.4 1.5.6c.9.2 1.5.5 2 .8s.7.8.7 1.4c0 .6-.2 1.1-.7 1.5-.5.4-1.2.6-2 .6-.9 0-1.6-.2-2.1-.6-.5-.4-.8-.9-.7-1.5h.8c0 .5.2.9.7 1.2.4.2.9.4 1.4.4.6 0 1.1-.1 1.4-.4 0-.3.2-.6.2-1z"/></g></g><g id="Website_Design_1_"><path class="st1" d="M395.2 18.5l.7 3.6h.1l.9-3.6 5-16.8h1.8l5 16.8.9 3.6h.1l.8-3.6 4.2-16.8h2l-6 23.5h-1.8l-5.3-18-.6-2.5h-.1l-.6 2.5-5.3 18h-2l-6-23.5h2l4.2 16.8zM426.2 25.5c-2.2 0-4-.8-5.4-2.4-1.4-1.6-2.2-3.7-2.2-6.1v-.9c0-2.5.7-4.6 2.2-6.2s3.2-2.5 5.2-2.5c2.1 0 3.8.7 5 2 1.2 1.4 1.8 3.2 1.8 5.4v1.6h-12.3v.6c0 2 .5 3.6 1.6 4.9s2.4 2 4.1 2c1.2 0 2.2-.2 3.1-.5s1.6-.8 2.2-1.4l.8 1.3c-.7.7-1.5 1.2-2.5 1.6-1 .4-2.2.6-3.6.6zM425.9 9c-1.4 0-2.6.5-3.6 1.6s-1.5 2.5-1.7 4.1v.1h10.2v-.5c0-1.5-.4-2.8-1.3-3.8-.8-1-2-1.5-3.6-1.5zM450.7 16.9c0 2.6-.6 4.7-1.8 6.3-1.2 1.6-2.8 2.3-4.9 2.3-1.3 0-2.4-.3-3.3-.8-.9-.5-1.7-1.2-2.2-2.2l-.2 2.6h-1.7V0h1.9v10.5c.6-1 1.3-1.7 2.2-2.3s2-.8 3.2-.8c2.1 0 3.7.8 4.9 2.5 1.2 1.7 1.8 3.9 1.8 6.7v.3zm-1.9-.3c0-2.2-.4-4.1-1.3-5.5S445.3 9 443.7 9c-1.3 0-2.4.3-3.3 1-.8.7-1.4 1.5-1.8 2.6v7.9c.4 1 1.1 1.8 1.9 2.4.9.6 1.9.9 3.2.9 1.7 0 3-.6 3.8-1.9.8-1.3 1.3-2.9 1.3-5.1v-.2zM465.5 20.7c0-.8-.3-1.5-1-2.1-.7-.6-1.9-1.1-3.6-1.5-2.1-.5-3.6-1-4.6-1.8s-1.5-1.8-1.5-3.1.6-2.5 1.7-3.4c1.1-.9 2.6-1.4 4.5-1.4 2 0 3.5.5 4.7 1.5 1.2 1 1.7 2.2 1.6 3.7v.1h-1.8c0-1-.4-1.8-1.2-2.5-.8-.7-1.9-1.1-3.3-1.1s-2.5.3-3.2.9c-.7.6-1.1 1.3-1.1 2.1s.3 1.5.9 2 1.8 1 3.6 1.4c2.1.5 3.6 1.1 4.7 1.9 1 .8 1.5 1.9 1.5 3.3 0 1.5-.6 2.6-1.8 3.5s-2.7 1.4-4.7 1.4c-2.1 0-3.8-.5-5-1.5-1.2-1-1.8-2.2-1.7-3.6v-.1h1.8c.1 1.3.6 2.2 1.5 2.7 1 .6 2.1.9 3.4.9 1.4 0 2.5-.3 3.3-.9.9-.8 1.3-1.5 1.3-2.4zM474 2.7h-1.9V0h1.9v2.7zm0 22.5h-1.9V7.7h1.9v17.5zM482.4 3.2v4.5h3.8v1.6h-3.8v11.4c0 1.1.2 1.9.6 2.4.4.5 1 .7 1.7.7h.9c.3 0 .6-.1 1-.1l.3 1.4c-.3.1-.7.2-1.2.3-.5.1-.9.1-1.4.1-1.2 0-2.2-.4-2.9-1.2-.7-.8-1-2-1-3.7V9.3h-3V7.7h3V3.2h2zM496.9 25.5c-2.2 0-4-.8-5.4-2.4s-2.2-3.7-2.2-6.1v-.9c0-2.5.7-4.6 2.2-6.2 1.4-1.6 3.2-2.5 5.2-2.5 2.1 0 3.8.7 5 2 1.2 1.4 1.8 3.2 1.8 5.4v1.6h-12.3v.6c0 2 .5 3.6 1.6 4.9 1 1.3 2.4 2 4.1 2 1.2 0 2.2-.2 3.1-.5s1.6-.8 2.2-1.4l.8 1.3c-.7.7-1.5 1.2-2.5 1.6-1 .4-2.2.6-3.6.6zM496.7 9c-1.4 0-2.6.5-3.6 1.6s-1.5 2.5-1.7 4.1v.1h10.2v-.5c0-1.5-.4-2.8-1.3-3.8S498.2 9 496.7 9zM515.9 25.2V1.7h6.8c2.9 0 5.2 1 7.1 2.9 1.9 1.9 2.8 4.4 2.8 7.4v3c0 3-.9 5.5-2.8 7.4-1.9 1.9-4.2 2.9-7.1 2.9h-6.8zm2-21.9v20.2h4.9c2.3 0 4.2-.8 5.7-2.4 1.5-1.6 2.3-3.7 2.3-6.2v-3.1c0-2.4-.8-4.5-2.3-6.1-1.5-1.6-3.4-2.4-5.7-2.4h-4.9zM543.6 25.5c-2.2 0-4-.8-5.4-2.4-1.4-1.6-2.2-3.7-2.2-6.1v-.9c0-2.5.7-4.6 2.2-6.2s3.2-2.5 5.2-2.5c2.1 0 3.8.7 5 2 1.2 1.4 1.8 3.2 1.8 5.4v1.6H538v.6c0 2 .5 3.6 1.6 4.9s2.4 2 4.1 2c1.2 0 2.2-.2 3.1-.5s1.6-.8 2.2-1.4l.8 1.3c-.7.7-1.5 1.2-2.5 1.6-1.1.4-2.3.6-3.7.6zM543.4 9c-1.4 0-2.6.5-3.6 1.6s-1.5 2.5-1.7 4.1v.1h10.2v-.5c0-1.5-.4-2.8-1.3-3.8S544.9 9 543.4 9zM564.6 20.7c0-.8-.3-1.5-1-2.1-.7-.6-1.9-1.1-3.6-1.5-2.1-.5-3.6-1-4.6-1.8-1-.7-1.5-1.8-1.5-3.1s.6-2.5 1.7-3.4c1.1-.9 2.6-1.4 4.5-1.4 2 0 3.5.5 4.7 1.5 1.2 1 1.7 2.2 1.6 3.7v.1h-1.8c0-1-.4-1.8-1.2-2.5-.8-.7-1.9-1.1-3.3-1.1s-2.5.3-3.2.9c-.7.6-1.1 1.3-1.1 2.1s.3 1.5.9 2c.6.5 1.8 1 3.6 1.4 2.1.5 3.6 1.1 4.7 1.9s1.5 1.9 1.5 3.3c0 1.5-.6 2.6-1.8 3.5s-2.7 1.4-4.7 1.4c-2.1 0-3.8-.5-5-1.5-1.2-1-1.8-2.2-1.7-3.6v-.1h1.8c.1 1.3.6 2.2 1.5 2.7 1 .6 2.1.9 3.4.9 1.4 0 2.5-.3 3.3-.9.9-.8 1.3-1.5 1.3-2.4zM573.1 2.7h-1.9V0h1.9v2.7zm0 22.5h-1.9V7.7h1.9v17.5zM577.7 16.6c0-2.8.6-5 1.8-6.7s2.8-2.5 5-2.5c1.2 0 2.3.3 3.2.8s1.7 1.3 2.2 2.3l.2-2.8h1.6v17.2c0 2.2-.6 4-1.9 5.3s-3 2-5.2 2c-.8 0-1.7-.1-2.7-.3-.9-.2-1.8-.5-2.5-.8l.5-1.6c.7.3 1.4.6 2.2.8.8.2 1.6.3 2.5.3 1.7 0 3-.5 3.8-1.5.9-1 1.3-2.3 1.3-4.1v-2.2c-.6.9-1.3 1.6-2.2 2-.9.5-2 .7-3.2.7-2.1 0-3.7-.8-4.9-2.3-1.2-1.6-1.8-3.6-1.8-6.2v-.4zm1.9.3c0 2.1.4 3.8 1.3 5s2.1 1.9 3.8 1.9c1.2 0 2.3-.3 3.1-.9.8-.6 1.5-1.4 1.9-2.4v-8.1c-.4-1-1-1.9-1.8-2.5-.8-.7-1.9-1-3.2-1-1.7 0-3 .7-3.9 2.1s-1.3 3.2-1.3 5.4v.5zM598.5 7.7l.2 3c.6-1.1 1.3-1.9 2.3-2.5 1-.6 2.1-.9 3.4-.9 1.9 0 3.3.6 4.3 1.7 1 1.2 1.5 3 1.5 5.4V25h-1.9V14.5c0-2-.4-3.4-1.1-4.3-.7-.8-1.8-1.2-3.2-1.2-1.4 0-2.5.4-3.3 1.1-.9.7-1.5 1.7-1.8 2.9v12.2H597V7.7h1.5z"/></g></g><g id="Motion_Graphics"><g id="Lines_2_"><path class="st0" d="M248.7 19h26v1h-26zM248.7 69h26v1h-26zM248.7 97h26v1h-26zM248.7 130h26v1h-26zM248.7 160h26v1h-26z"/><path class="st0" d="M274.2 19.5h1v141h-1z"/></g><g id="Types_3_"><path class="st1" d="M77.3 72.5h-.8v-9.9h.8v9.9zM80.6 65.1l.1 1.3c.2-.5.6-.8 1-1.1.3-.2.8-.3 1.3-.3.8 0 1.4.2 1.8.7.4.5.6 1.3.6 2.3v4.5h-.8V68c0-.8-.2-1.4-.5-1.8-.3-.4-.8-.5-1.3-.5-.6 0-1 .2-1.4.5s-.6.7-.8 1.2v5.2h-.8v-7.4h.8zM88.9 63.3v1.9h1.6v.7h-1.6v4.8c0 .5.1.8.3 1 .2.2.4.3.7.3h.4c.1 0 .3 0 .4-.1l.1.6c-.1.1-.3.1-.5.1h-.6c-.5 0-.9-.2-1.2-.5-.3-.3-.4-.8-.4-1.6v-4.8h-1.3V65h1.3v-1.9h.8zM95.7 65.9h-.6c-.5 0-.9.1-1.3.4-.3.3-.6.7-.7 1.2v5.1h-.8v-7.4h.7l.1 1.2v.1c.2-.5.5-.8.9-1.1.4-.3.8-.4 1.3-.4h.3c.1 0 .2 0 .2.1l-.1.8zM96.4 68.7c0-1.1.3-2 .9-2.7.6-.7 1.4-1 2.4-1s1.8.3 2.4 1c.6.7.9 1.6.9 2.7v.3c0 1.1-.3 2-.9 2.7-.6.7-1.4 1-2.4 1s-1.8-.3-2.4-1c-.6-.7-.9-1.6-.9-2.7v-.3zm.8.2c0 .9.2 1.6.6 2.2.4.6 1 .9 1.8.9s1.4-.3 1.8-.9.7-1.3.7-2.2v-.2c0-.8-.2-1.6-.7-2.1s-1-.9-1.8-.9-1.4.3-1.8.9c-.4.6-.6 1.3-.6 2.1v.2zM114.9 63.3h-3.4v9.2h-.8v-9.2h-3.4v-.7h7.7v.7zM117.2 63h-.8v-1.1h.8V63zm0 9.5h-.8v-7.4h.8v7.4zM120.8 63.3v1.9h1.6v.7h-1.6v4.8c0 .5.1.8.3 1 .2.2.4.3.7.3h.4c.1 0 .3 0 .4-.1l.1.6c-.1.1-.3.1-.5.1h-.6c-.5 0-.9-.2-1.2-.5-.3-.3-.4-.8-.4-1.6v-4.8h-1.3V65h1.3v-1.9h.8zM125 72.5h-.8V61.9h.8v10.6zM130.1 72.7c-.9 0-1.7-.3-2.3-1-.6-.7-.9-1.5-.9-2.6v-.4c0-1.1.3-1.9.9-2.6.6-.7 1.3-1 2.2-1 .9 0 1.6.3 2.1.9.5.6.8 1.3.8 2.3v.7h-5.2v.2c0 .8.2 1.5.7 2.1.4.6 1 .8 1.7.8.5 0 .9-.1 1.3-.2s.7-.3.9-.6l.3.6c-.3.3-.6.5-1.1.7-.3 0-.8.1-1.4.1zm-.1-7c-.6 0-1.1.2-1.5.7s-.6 1-.7 1.7h4.3V68c0-.6-.2-1.2-.6-1.6s-.9-.7-1.5-.7zM134.4 73.4h-.7l4.1-10.8h.7l-4.1 10.8zM141.1 71.8h4.9v.7h-5.7v-9.9h.8v9.2zM146.9 68.7c0-1.1.3-2 .9-2.7.6-.7 1.4-1 2.4-1s1.8.3 2.4 1c.6.7.9 1.6.9 2.7v.3c0 1.1-.3 2-.9 2.7-.6.7-1.4 1-2.4 1s-1.8-.3-2.4-1c-.6-.7-.9-1.6-.9-2.7v-.3zm.9.2c0 .9.2 1.6.6 2.2.4.6 1 .9 1.8.9s1.4-.3 1.8-.9.7-1.3.7-2.2v-.2c0-.8-.2-1.6-.7-2.1s-1-.9-1.8-.9-1.4.3-1.8.9c-.4.6-.6 1.3-.6 2.1v.2zM154.9 68.9c0-1.2.3-2.1.8-2.8.5-.7 1.2-1.1 2.1-1.1.5 0 1 .1 1.4.3s.7.6.9 1l.1-1.2h.7v7.3c0 1-.3 1.7-.8 2.3-.5.6-1.3.8-2.2.8-.4 0-.7 0-1.1-.1-.4-.1-.8-.2-1-.4l.2-.7c.3.1.6.3.9.3.3.1.7.1 1 .1.7 0 1.3-.2 1.6-.6.4-.4.5-1 .5-1.7v-.9c-.2.4-.6.7-.9.9s-.8.3-1.3.3c-.9 0-1.6-.3-2.1-1s-.8-1.5-.8-2.6v-.2zm.8.1c0 .9.2 1.6.5 2.1.4.5.9.8 1.6.8.5 0 1-.1 1.3-.4.4-.2.6-.6.8-1v-3.4c-.2-.4-.4-.8-.8-1.1s-.8-.4-1.3-.4c-.7 0-1.3.3-1.6.9-.4.6-.6 1.4-.6 2.3v.2zM162.5 68.7c0-1.1.3-2 .9-2.7.6-.7 1.4-1 2.4-1s1.8.3 2.4 1c.6.7.9 1.6.9 2.7v.3c0 1.1-.3 2-.9 2.7-.6.7-1.4 1-2.4 1s-1.8-.3-2.4-1c-.6-.7-.9-1.6-.9-2.7v-.3zm.8.2c0 .9.2 1.6.6 2.2.4.6 1 .9 1.8.9s1.4-.3 1.8-.9.7-1.3.7-2.2v-.2c0-.8-.2-1.6-.7-2.1s-1-.9-1.8-.9-1.4.3-1.8.9c-.4.6-.6 1.3-.6 2.1v.2zM179.7 69.8h-4.5l-1 2.8h-.8l3.8-9.9h.8l3.7 9.9h-.8l-1.2-2.8zm-4.3-.8h4l-2-5.4-2 5.4zM183.6 65.1l.1 1.3c.2-.5.6-.8 1-1.1.4-.2.9-.4 1.4-.4.8 0 1.4.2 1.8.7.4.5.6 1.3.6 2.3v4.5h-.8V68c0-.8-.2-1.4-.5-1.8-.3-.4-.8-.5-1.3-.5-.6 0-1 .2-1.4.5s-.6.7-.8 1.2v5.2h-.8v-7.4h.7zM191.5 63h-.8v-1.1h.8V63zm0 9.5h-.8v-7.4h.8v7.4zM194.5 65.1l.1 1.2c.2-.4.6-.8.9-1 .4-.2.9-.4 1.4-.4.6 0 1 .1 1.4.4.4.3.7.7.8 1.2.2-.5.5-.9 1-1.2.4-.3.9-.4 1.5-.4.8 0 1.4.3 1.8.8s.6 1.3.6 2.4v4.3h-.8v-4.3c0-.9-.2-1.6-.5-1.9s-.8-.6-1.3-.6c-.6 0-1.1.2-1.5.6-.3.4-.6.9-.6 1.5V72.3h-.8V68c0-.9-.2-1.5-.5-1.9s-.8-.6-1.3-.6c-.6 0-1 .1-1.4.4-.3.3-.6.7-.7 1.2v5.2h-.8v-7.4h.7zM210.8 72.5c-.1-.2-.1-.5-.1-.6v-.6c-.3.4-.6.7-1.1 1-.5.3-1 .4-1.5.4-.7 0-1.3-.2-1.7-.6-.4-.4-.6-.9-.6-1.5 0-.7.3-1.2.9-1.6s1.4-.6 2.4-.6h1.6v-.9c0-.5-.2-.9-.5-1.2-.3-.3-.8-.5-1.4-.5-.6 0-1 .1-1.4.4-.4.3-.6.6-.6 1.1h-.8c0-.5.2-1 .8-1.5.5-.4 1.2-.7 2-.7s1.5.2 2 .6c.5.4.7 1 .7 1.8v4.3c0 .2.1.5.1.7h-.8zm-2.6-.6c.6 0 1.1-.1 1.6-.4.5-.3.8-.6 1-1.1v-1.5h-1.6c-.7 0-1.3.2-1.8.5-.4.3-.7.7-.7 1.2 0 .4.1.7.4 1 .2.2.6.3 1.1.3zM215 63.3v1.9h1.6v.7H215v4.8c0 .5.1.8.3 1 .2.2.4.3.7.3h.4c.1 0 .3 0 .4-.1l.1.6c-.1.1-.3.1-.5.1h-.6c-.5 0-.9-.2-1.2-.5-.3-.3-.4-.8-.4-1.6v-4.8h-1.3V65h1.3v-1.9h.8zM219.2 63h-.8v-1.1h.8V63zm0 9.5h-.8v-7.4h.8v7.4zM221 68.7c0-1.1.3-2 .9-2.7.6-.7 1.4-1 2.4-1s1.8.3 2.4 1c.6.7.9 1.6.9 2.7v.3c0 1.1-.3 2-.9 2.7-.6.7-1.4 1-2.4 1s-1.8-.3-2.4-1c-.6-.7-.9-1.6-.9-2.7v-.3zm.9.2c0 .9.2 1.6.6 2.2.4.6 1 .9 1.8.9s1.4-.3 1.8-.9.7-1.3.7-2.2v-.2c0-.8-.2-1.6-.7-2.1s-1-.9-1.8-.9-1.4.3-1.8.9c-.4.6-.6 1.3-.6 2.1v.2zM230 65.1l.1 1.3c.2-.5.6-.8 1-1.1.4-.2.9-.4 1.4-.4.8 0 1.4.2 1.8.7.4.5.6 1.3.6 2.3v4.5h-.8V68c0-.8-.2-1.4-.5-1.8-.3-.4-.8-.5-1.3-.5-.6 0-1 .2-1.4.5s-.6.7-.8 1.2v5.2h-.8v-7.4h.7z"/><g><path class="st1" d="M147.9 157.7h-4.8v4.1h5.5v.7h-6.3v-9.9h6.3v.7h-5.4v3.7h4.8v.7zM152.4 158.2l2-3h1l-2.5 3.6 2.6 3.8h-1l-2.1-3.1-2.1 3.1h-1l2.6-3.8-2.5-3.6h1l2 3zM162.9 159c0 1.1-.2 2-.8 2.6-.5.7-1.2 1-2.1 1-.5 0-1-.1-1.4-.3s-.7-.5-1-.8v3.8h-.6v-10.2h.7l.1 1.1c.2-.4.6-.7 1-.9s.8-.3 1.4-.3c.9 0 1.6.4 2.1 1.1.5.7.8 1.6.8 2.8v.1zm-.8-.1c0-.9-.2-1.7-.6-2.3-.4-.6-.9-.9-1.6-.9-.5 0-1 .1-1.3.4s-.6.6-.8 1v3.6c.2.4.5.7.8 1 .4.2.8.3 1.3.3.7 0 1.3-.3 1.6-.8s.6-1.2.6-2.1v-.2zM165.6 162.5h-.8v-10.6h.8v10.6zM172.6 162.5c-.1-.2-.1-.5-.1-.6v-.6c-.3.4-.6.7-1.1 1-.5.3-1 .4-1.5.4-.7 0-1.3-.2-1.7-.6-.4-.4-.6-.9-.6-1.5 0-.7.3-1.2.9-1.6s1.4-.6 2.4-.6h1.6v-.9c0-.5-.2-.9-.5-1.2-.3-.3-.8-.5-1.4-.5-.6 0-1 .1-1.4.4-.4.3-.6.6-.6 1.1h-.8c0-.5.2-1 .8-1.5.5-.4 1.2-.7 2-.7s1.5.2 2 .6c.5.4.7 1 .7 1.8v4.4c0 .2.1.5.1.7h-.8zm-2.7-.6c.6 0 1.1-.1 1.6-.4.5-.3.8-.6 1-1.1v-1.5h-1.6c-.7 0-1.3.2-1.8.5-.4.3-.7.7-.7 1.2 0 .4.1.7.4 1 .2.2.6.3 1.1.3zM176.3 153h-.8v-1.1h.8v1.1zm0 9.5h-.8v-7.4h.8v7.4zM179.3 155.1l.1 1.3c.2-.5.6-.8 1-1.1.4-.2.9-.4 1.4-.4.8 0 1.4.2 1.8.7.4.5.6 1.3.6 2.3v4.5h-.8V158c0-.8-.2-1.4-.5-1.8-.3-.4-.8-.5-1.3-.5-.6 0-1 .2-1.4.5s-.6.7-.8 1.2v5.2h-.8v-7.4h.7zM189.1 162.7c-.9 0-1.7-.3-2.3-1-.6-.7-.9-1.5-.9-2.6v-.4c0-1.1.3-1.9.9-2.6.6-.7 1.3-1 2.2-1 .9 0 1.6.3 2.1.9.5.6.8 1.3.8 2.3v.7h-5.2v.2c0 .8.2 1.5.7 2.1.4.6 1 .8 1.7.8.5 0 .9-.1 1.3-.2s.7-.3.9-.6l.3.6c-.3.3-.6.5-1.1.7-.3 0-.8.1-1.4.1zm-.1-7c-.6 0-1.1.2-1.5.7s-.6 1-.7 1.7h4.3v-.1c0-.6-.2-1.2-.6-1.6s-.8-.7-1.5-.7zM196.9 155.9h-.6c-.5 0-.9.1-1.3.4-.3.3-.6.7-.7 1.2v5.1h-.8v-7.4h.7l.1 1.2v.1c.2-.5.5-.8.9-1.1.4-.3.8-.4 1.3-.4h.3c.1 0 .2 0 .2.1l-.1.8zM204.7 160.8l.2.7.2-.7 3-8.3h.9l-3.7 9.9h-.8l-3.7-9.9h.9l3 8.3zM211.2 153h-.8v-1.1h.8v1.1zm0 9.5h-.8v-7.4h.8v7.4zM213.2 158.9c0-1.2.2-2.1.7-2.8.5-.7 1.2-1.1 2.1-1.1.5 0 1 .1 1.3.3.4.2.7.5.9.9v-4.4h.8v10.6h-.7l-.1-1.1c-.2.4-.6.7-.9.9-.4.2-.8.3-1.4.3-.9 0-1.6-.3-2.1-1s-.7-1.5-.7-2.6zm.8.1c0 .9.2 1.6.5 2.1.4.5.9.8 1.6.8.5 0 1-.1 1.3-.4.4-.2.6-.6.8-1V157c-.2-.4-.4-.8-.8-1-.3-.3-.8-.4-1.3-.4-.7 0-1.3.3-1.6.9-.4.6-.5 1.4-.5 2.3v.2zM224 162.7c-.9 0-1.7-.3-2.3-1-.6-.7-.9-1.5-.9-2.6v-.4c0-1.1.3-1.9.9-2.6.6-.7 1.3-1 2.2-1 .9 0 1.6.3 2.1.9.5.6.8 1.3.8 2.3v.7h-5.2v.2c0 .8.2 1.5.7 2.1.4.6 1 .8 1.7.8.5 0 .9-.1 1.3-.2s.7-.3.9-.6l.3.6c-.3.3-.6.5-1.1.7-.3 0-.8.1-1.4.1zm-.1-7c-.6 0-1.1.2-1.5.7s-.6 1-.7 1.7h4.3v-.1c0-.6-.2-1.2-.6-1.6s-.8-.7-1.5-.7zM228 158.7c0-1.1.3-2 .9-2.7.6-.7 1.4-1 2.4-1s1.8.3 2.4 1c.6.7.9 1.6.9 2.7v.2c0 1.1-.3 2-.9 2.7-.6.7-1.4 1-2.4 1s-1.8-.3-2.4-1c-.6-.7-.9-1.6-.9-2.7v-.2zm.8.2c0 .9.2 1.6.6 2.2.4.6 1 .9 1.8.9s1.4-.3 1.8-.9c.4-.6.7-1.3.7-2.2v-.2c0-.8-.2-1.6-.7-2.1s-1-.9-1.8-.9-1.4.3-1.8.9c-.4.6-.6 1.3-.6 2.1v.2z"/></g><g><path class="st1" d="M88 100.1c0-.5-.2-1-.6-1.3s-1.1-.6-2.1-.9c-1.1-.3-1.9-.6-2.5-1.1-.6-.4-.8-1-.8-1.8s.3-1.4.9-1.9c.6-.5 1.4-.7 2.4-.7s1.8.3 2.5.9.9 1.3.9 2.1h-.8c0-.7-.2-1.2-.7-1.6-.5-.4-1.1-.6-1.9-.6-.8 0-1.4.2-1.9.5s-.7.8-.7 1.3.2.9.6 1.3c.4.3 1.1.6 2.1.9 1.1.3 1.9.6 2.4 1.1s.8 1.1.8 1.8c0 .8-.3 1.4-1 1.9-.6.5-1.5.7-2.5.7s-1.9-.2-2.6-.7c-.7-.5-1.1-1.2-1.1-2.2h.8c0 .8.3 1.3.9 1.7.6.4 1.3.6 2 .6.8 0 1.4-.2 1.9-.5.7-.5 1-.9 1-1.5zM90 98.7c0-1.1.3-2 .9-2.7.6-.7 1.4-1 2.4-1s1.8.3 2.4 1c.6.7.9 1.6.9 2.7v.3c0 1.1-.3 2-.9 2.7-.6.7-1.4 1-2.4 1s-1.8-.3-2.4-1c-.6-.8-.9-1.7-.9-2.7v-.3zm.8.2c0 .9.2 1.6.6 2.2.4.6 1 .9 1.8.9s1.4-.3 1.8-.9.7-1.3.7-2.2v-.2c0-.8-.2-1.6-.7-2.1s-1-.9-1.8-.9-1.4.3-1.8.9c-.4.6-.6 1.3-.6 2.1v.2zM101 102c.5 0 1-.2 1.4-.5.4-.3.6-.7.6-1.3h.7c0 .7-.2 1.3-.8 1.7-.6.5-1.2.7-2 .7-1 0-1.8-.3-2.3-1-.5-.7-.8-1.6-.8-2.7v-.3c0-1.1.3-2 .8-2.6.5-.7 1.3-1 2.3-1 .8 0 1.5.2 2 .7.5.5.8 1.1.8 1.9h-.7c0-.6-.2-1.1-.6-1.4-.4-.4-.9-.5-1.5-.5-.8 0-1.4.3-1.8.8-.4.6-.6 1.3-.6 2.1v.4c0 .9.2 1.6.6 2.2.5.5 1.1.8 1.9.8zM106.4 93h-.8v-1.1h.8V93zm0 9.5h-.8v-7.4h.8v7.4zM113.3 102.5c-.1-.2-.1-.5-.1-.6v-.6c-.3.4-.6.7-1.1 1-.5.3-1 .4-1.5.4-.7 0-1.3-.2-1.7-.6-.4-.4-.6-.9-.6-1.5 0-.7.3-1.2.9-1.6s1.4-.6 2.4-.6h1.6v-.9c0-.5-.2-.9-.5-1.2-.3-.3-.8-.5-1.4-.5-.6 0-1 .1-1.4.4-.4.3-.6.6-.6 1.1h-.8c0-.5.2-1 .8-1.5.5-.4 1.2-.7 2-.7s1.5.2 2 .6c.5.4.7 1 .7 1.8v4.4c0 .2.1.5.1.7h-.8zm-2.7-.6c.6 0 1.1-.1 1.6-.4.5-.3.8-.6 1-1.1v-1.5h-1.6c-.7 0-1.3.2-1.8.5-.4.3-.7.7-.7 1.2 0 .4.1.7.4 1 .3.2.7.3 1.1.3zM117.1 102.5h-.8V91.9h.8v10.6zM119.2 103.4h-.7l4.1-10.8h.7l-4.1 10.8zM131.9 99.4c-.1 1-.4 1.8-1.1 2.4-.6.6-1.5.9-2.5.9-1.1 0-2-.4-2.7-1.2-.7-.8-1-1.8-1-3.1v-1.6c0-1.3.3-2.3 1-3.1.7-.8 1.6-1.2 2.7-1.2s1.9.3 2.5.8c.6.6 1 1.3 1.1 2.4h-.8c-.1-.8-.4-1.5-.8-1.9-.5-.4-1.1-.7-1.9-.7-.9 0-1.6.3-2.1 1s-.8 1.5-.8 2.6v1.6c0 1.1.3 1.9.8 2.6.5.7 1.2 1 2.1 1 .8 0 1.5-.2 1.9-.6.5-.4.7-1.1.8-1.9h.8zM133.4 98.7c0-1.1.3-2 .9-2.7.6-.7 1.4-1 2.4-1s1.8.3 2.4 1c.6.7.9 1.6.9 2.7v.3c0 1.1-.3 2-.9 2.7-.6.7-1.4 1-2.4 1s-1.8-.3-2.4-1c-.6-.7-.9-1.6-.9-2.7v-.3zm.8.2c0 .9.2 1.6.6 2.2.4.6 1 .9 1.8.9s1.4-.3 1.8-.9.7-1.3.7-2.2v-.2c0-.8-.2-1.6-.7-2.1s-1-.9-1.8-.9-1.4.3-1.8.9c-.4.6-.6 1.3-.6 2.1v.2zM142.3 95.1l.1 1.2c.2-.4.6-.8.9-1 .4-.2.9-.4 1.4-.4.6 0 1 .1 1.4.4.4.3.7.7.8 1.2.2-.5.5-.9 1-1.2.4-.3.9-.4 1.5-.4.8 0 1.4.3 1.8.8s.6 1.3.6 2.4v4.3h-.8v-4.3c0-.9-.2-1.6-.5-1.9s-.8-.6-1.3-.6c-.6 0-1.1.2-1.5.6-.3.4-.6.9-.6 1.5V102.3h-.8V98c0-.9-.2-1.5-.5-1.9s-.8-.6-1.3-.6c-.6 0-1 .1-1.4.4-.3.3-.6.7-.7 1.2v5.2h-.8v-7.4h.7zM154.7 95.1l.1 1.2c.2-.4.6-.8.9-1 .4-.2.9-.4 1.4-.4.6 0 1 .1 1.4.4.4.3.7.7.8 1.2.2-.5.5-.9 1-1.2.4-.3.9-.4 1.5-.4.8 0 1.4.3 1.8.8s.6 1.3.6 2.4v4.3h-.8v-4.3c0-.9-.2-1.6-.5-1.9s-.8-.6-1.3-.6c-.6 0-1.1.2-1.5.6-.3.4-.6.9-.6 1.5V102.3h-.8V98c0-.9-.2-1.5-.5-1.9s-.8-.6-1.3-.6c-.6 0-1 .1-1.4.4-.3.3-.6.7-.7 1.2v5.2h-.8v-7.4h.7zM169.1 102.7c-.9 0-1.7-.3-2.3-1-.6-.7-.9-1.5-.9-2.6v-.4c0-1.1.3-1.9.9-2.6.6-.7 1.3-1 2.2-1 .9 0 1.6.3 2.1.9.5.6.8 1.3.8 2.3v.7h-5.2v.2c0 .8.2 1.5.7 2.1.4.6 1 .8 1.7.8.5 0 .9-.1 1.3-.2s.7-.3.9-.6l.3.6c-.3.3-.6.5-1.1.7-.3 0-.8.1-1.4.1zm-.1-7c-.6 0-1.1.2-1.5.7s-.6 1-.7 1.7h4.3V98c0-.6-.2-1.2-.6-1.6s-.8-.7-1.5-.7zM177 95.9h-.6c-.5 0-.9.1-1.3.4-.3.3-.6.7-.7 1.2v5.1h-.8v-7.4h.7l.1 1.2v.1c.2-.5.5-.8.9-1.1.4-.3.8-.4 1.3-.4h.3c.1 0 .2 0 .2.1l-.1.8zM180.9 102c.5 0 1-.2 1.4-.5.4-.3.6-.7.6-1.3h.7c0 .7-.2 1.3-.8 1.7-.6.5-1.2.7-2 .7-1 0-1.8-.3-2.3-1-.5-.7-.8-1.6-.8-2.7v-.3c0-1.1.3-2 .8-2.6.5-.7 1.3-1 2.3-1 .8 0 1.5.2 2 .7.5.5.8 1.1.8 1.9h-.6c0-.6-.2-1.1-.6-1.4-.4-.4-.9-.5-1.5-.5-.8 0-1.4.3-1.8.8-.4.6-.6 1.3-.6 2.1v.4c0 .9.2 1.6.6 2.2.4.5 1 .8 1.8.8zM186.3 93h-.8v-1.1h.8V93zm0 9.5h-.8v-7.4h.8v7.4zM193.3 102.5c-.1-.2-.1-.5-.1-.6v-.6c-.3.4-.6.7-1.1 1-.5.3-1 .4-1.5.4-.7 0-1.3-.2-1.7-.6-.4-.4-.6-.9-.6-1.5 0-.7.3-1.2.9-1.6s1.4-.6 2.4-.6h1.6v-.9c0-.5-.2-.9-.5-1.2-.3-.3-.8-.5-1.4-.5-.6 0-1 .1-1.4.4-.4.3-.6.6-.6 1.1h-.8c0-.5.2-1 .8-1.5.5-.4 1.2-.7 2-.7s1.5.2 2 .6c.5.4.7 1 .7 1.8v4.4c0 .2.1.5.1.7h-.8zm-2.7-.6c.6 0 1.1-.1 1.6-.4.5-.3.8-.6 1-1.1v-1.5h-1.6c-.7 0-1.3.2-1.8.5-.4.3-.7.7-.7 1.2 0 .4.1.7.4 1 .2.2.6.3 1.1.3zM197 102.5h-.8V91.9h.8v10.6zM205.7 100.8l.2.7.2-.7 3-8.3h.9l-3.7 9.9h-.8l-3.7-9.9h.9l3 8.3zM212.2 93h-.8v-1.1h.8V93zm0 9.5h-.8v-7.4h.8v7.4zM214.1 98.9c0-1.2.2-2.1.7-2.8.5-.7 1.2-1.1 2.1-1.1.5 0 1 .1 1.3.3s.7.5.9.9v-4.4h.8v10.6h-.7l-.1-1.1c-.2.4-.6.7-.9.9-.4.2-.8.3-1.4.3-.9 0-1.6-.3-2.1-1s-.7-1.5-.7-2.6zm.8.1c0 .9.2 1.6.5 2.1.4.5.9.8 1.6.8.5 0 1-.1 1.3-.4.4-.2.6-.6.8-1V97c-.2-.4-.4-.8-.8-1-.3-.3-.8-.4-1.3-.4-.7 0-1.3.3-1.6.9-.4.6-.5 1.4-.5 2.3v.2zM225 102.7c-.9 0-1.7-.3-2.3-1-.6-.7-.9-1.5-.9-2.6v-.4c0-1.1.3-1.9.9-2.6.6-.7 1.3-1 2.2-1 .9 0 1.6.3 2.1.9.5.6.8 1.3.8 2.3v.7h-5.2v.2c0 .8.2 1.5.7 2.1.4.6 1 .8 1.7.8.5 0 .9-.1 1.3-.2s.7-.3.9-.6l.3.6c-.3.3-.6.5-1.1.7-.3 0-.8.1-1.4.1zm-.1-7c-.6 0-1.1.2-1.5.7s-.6 1-.7 1.7h4.3V98c0-.6-.2-1.2-.6-1.6s-.9-.7-1.5-.7zM229 98.7c0-1.1.3-2 .9-2.7.6-.7 1.4-1 2.4-1s1.8.3 2.4 1c.6.7.9 1.6.9 2.7v.3c0 1.1-.3 2-.9 2.7-.6.7-1.4 1-2.4 1s-1.8-.3-2.4-1c-.6-.7-.9-1.6-.9-2.7v-.3zm.8.2c0 .9.2 1.6.6 2.2.4.6 1 .9 1.8.9s1.4-.3 1.8-.9.7-1.3.7-2.2v-.2c0-.8-.2-1.6-.7-2.1s-1-.9-1.8-.9-1.4.3-1.8.9c-.4.6-.6 1.3-.6 2.1v.2z"/></g><g><path class="st1" d="M137.1 132.5h-6.2v-.6l3.3-3.7c.6-.7 1-1.2 1.3-1.7.2-.5.4-.9.4-1.3 0-.6-.2-1.1-.5-1.5-.3-.4-.8-.6-1.5-.6-.8 0-1.3.2-1.7.6-.4.4-.6 1-.6 1.7h-.8c0-.8.2-1.5.8-2.1.6-.6 1.3-.9 2.3-.9.9 0 1.5.2 2.1.7.5.5.8 1.1.8 2 0 .5-.2 1.1-.5 1.7s-.8 1.2-1.4 1.9l-2.7 3.1h5.1v.7zM139 132.5v-9.9h2.9c1.2 0 2.2.4 3 1.2s1.2 1.8 1.2 3.1v1.3c0 1.3-.4 2.3-1.2 3.1s-1.8 1.2-3 1.2H139zm.9-9.2v8.5h2.1c1 0 1.8-.3 2.4-1 .6-.7 1-1.6 1-2.6v-1.3c0-1-.3-1.9-1-2.6-.6-.7-1.4-1-2.4-1h-2.1zM147.9 133.4h-.7l4.1-10.8h.7l-4.1 10.8zM155.2 127.1h.9c.7 0 1.3-.2 1.6-.5.4-.4.6-.8.6-1.4 0-.6-.2-1.1-.5-1.5s-.9-.6-1.6-.6c-.6 0-1.2.2-1.6.6s-.6.9-.6 1.5h-.8c0-.8.2-1.4.8-1.9.6-.5 1.3-.8 2.1-.8.9 0 1.6.2 2.1.7.5.5.8 1.2.8 2 0 .5-.1.9-.4 1.3s-.7.7-1.2.9c.6.2 1.1.5 1.4.9.3.4.5.9.5 1.5 0 .9-.3 1.6-.9 2.1-.6.5-1.3.8-2.2.8-.9 0-1.6-.2-2.2-.7s-.9-1.2-.9-2.1h.8c0 .6.2 1.1.7 1.5.4.4 1 .6 1.7.6s1.3-.2 1.7-.5.6-.9.6-1.6c0-.7-.2-1.2-.6-1.5-.4-.3-1-.5-1.8-.5h-.9v-.8zM161.5 132.5v-9.9h2.9c1.2 0 2.2.4 3 1.2s1.2 1.8 1.2 3.1v1.3c0 1.3-.4 2.3-1.2 3.1s-1.8 1.2-3 1.2h-2.9zm.8-9.2v8.5h2.1c1 0 1.8-.3 2.4-1 .6-.7 1-1.6 1-2.6v-1.3c0-1-.3-1.9-1-2.6-.6-.7-1.4-1-2.4-1h-2.1zM179.4 129.8h-4.5l-1 2.8h-.9l3.8-9.9h.8l3.7 9.9h-.8l-1.1-2.8zm-4.3-.8h4l-2-5.4-2 5.4zM183.3 125.1l.1 1.3c.2-.5.6-.8 1-1.1.4-.2.9-.4 1.4-.4.8 0 1.4.2 1.8.7.4.5.6 1.3.6 2.3v4.5h-.8V128c0-.8-.2-1.4-.5-1.8-.3-.4-.8-.5-1.3-.5-.6 0-1 .2-1.4.5s-.6.7-.8 1.2v5.2h-.8v-7.4h.7zM191.2 123h-.8v-1.1h.8v1.1zm0 9.5h-.8v-7.4h.8v7.4zM194.2 125.1l.1 1.2c.2-.4.6-.8.9-1 .4-.2.9-.4 1.4-.4.6 0 1 .1 1.4.4.4.3.7.7.8 1.2.2-.5.5-.9 1-1.2.4-.3.9-.4 1.5-.4.8 0 1.4.3 1.8.8.4.5.6 1.3.6 2.4v4.3h-.8v-4.3c0-.9-.2-1.6-.5-1.9s-.8-.6-1.3-.6c-.6 0-1.1.2-1.5.6-.3.4-.6.9-.6 1.5V132.3h-.8V128c0-.9-.2-1.5-.5-1.9s-.8-.6-1.3-.6c-.6 0-1 .1-1.4.4-.3.3-.6.7-.7 1.2v5.2h-.8v-7.4h.7zM210.5 132.5c-.1-.2-.1-.5-.1-.6v-.6c-.3.4-.6.7-1.1 1-.5.3-1 .4-1.5.4-.7 0-1.3-.2-1.7-.6-.4-.4-.6-.9-.6-1.5 0-.7.3-1.2.9-1.6s1.4-.6 2.4-.6h1.6v-.9c0-.5-.2-.9-.5-1.2-.3-.3-.8-.5-1.4-.5-.6 0-1 .1-1.4.4-.4.3-.6.6-.6 1.1h-.8c0-.5.2-1 .8-1.5.5-.4 1.2-.7 2-.7s1.5.2 2 .6c.5.4.7 1 .7 1.8v4.4c0 .2.1.5.1.7h-.8zm-2.6-.6c.6 0 1.1-.1 1.6-.4.5-.3.8-.6 1-1.1v-1.5h-1.6c-.7 0-1.3.2-1.8.5-.4.3-.7.7-.7 1.2 0 .4.1.7.4 1 .2.2.6.3 1.1.3zM214.7 123.3v1.9h1.6v.7h-1.6v4.8c0 .5.1.8.3 1 .2.2.4.3.7.3h.4c.1 0 .3 0 .4-.1l.1.6c-.1.1-.3.1-.5.1h-.6c-.5 0-.9-.2-1.2-.5-.3-.3-.4-.8-.4-1.6v-4.8h-1.3v-.7h1.3v-1.9h.8zM218.9 123h-.8v-1.1h.8v1.1zm0 9.5h-.8v-7.4h.8v7.4zM220.7 128.7c0-1.1.3-2 .9-2.7.6-.7 1.4-1 2.4-1s1.8.3 2.4 1c.6.7.9 1.6.9 2.7v.2c0 1.1-.3 2-.9 2.7-.6.7-1.4 1-2.4 1s-1.8-.3-2.4-1c-.6-.7-.9-1.6-.9-2.7v-.2zm.9.2c0 .9.2 1.6.6 2.2.4.6 1 .9 1.8.9s1.4-.3 1.8-.9c.4-.6.7-1.3.7-2.2v-.2c0-.8-.2-1.6-.7-2.1s-1-.9-1.8-.9-1.4.3-1.8.9c-.4.6-.6 1.3-.6 2.1v.2zM229.7 125.1l.1 1.3c.2-.5.6-.8 1-1.1.4-.2.9-.4 1.4-.4.8 0 1.4.2 1.8.7.4.5.6 1.3.6 2.3v4.5h-.8V128c0-.8-.2-1.4-.5-1.8-.3-.4-.8-.5-1.3-.5-.6 0-1 .2-1.4.5s-.6.7-.8 1.2v5.2h-.8v-7.4h.7z"/></g></g><g id="Motion_Graphics_1_"><path class="st1" d="M2.5 1.7l8.6 20.7h.1l8.7-20.7h2.5v23.5h-1.9V14.8l.2-10.3h-.1l-8.7 20.7h-1.3L1.8 4.6h-.1l.2 10.2v10.4H0V1.7h2.5zM27 16.2c0-2.6.7-4.7 2.1-6.3 1.4-1.6 3.3-2.5 5.6-2.5s4.2.8 5.6 2.5 2.1 3.8 2.1 6.3v.5c0 2.6-.7 4.7-2.1 6.3-1.4 1.6-3.3 2.5-5.6 2.5s-4.2-.8-5.6-2.5c-1.4-1.6-2.1-3.8-2.1-6.3v-.5zm2 .5c0 2 .5 3.7 1.5 5.1 1 1.4 2.4 2.1 4.3 2.1 1.8 0 3.2-.7 4.2-2.1 1-1.4 1.5-3.1 1.5-5.1v-.5c0-2-.5-3.7-1.5-5.1C38 9.7 36.5 9 34.7 9c-1.8 0-3.2.7-4.2 2.1-1 1.4-1.5 3.1-1.5 5.1v.5zM49.5 3.2v4.5h3.8v1.6h-3.8v11.4c0 1.1.2 1.9.6 2.4.4.5 1 .7 1.7.7h.9c.3 0 .6-.1 1-.1l.3 1.4c-.3.1-.7.2-1.2.3-.5.1-.9.1-1.4.1-1.2 0-2.2-.4-2.9-1.2-.7-.8-1-2-1-3.7V9.3h-3V7.7h3V3.2h2zM59.6 2.7h-1.9V0h1.9v2.7zm0 22.5h-1.9V7.7h1.9v17.5zM63.9 16.2c0-2.6.7-4.7 2.1-6.3 1.4-1.6 3.3-2.5 5.6-2.5s4.2.8 5.6 2.5 2.1 3.8 2.1 6.3v.5c0 2.6-.7 4.7-2.1 6.3-1.4 1.6-3.3 2.5-5.6 2.5s-4.2-.8-5.6-2.5c-1.4-1.6-2.1-3.8-2.1-6.3v-.5zm1.9.5c0 2 .5 3.7 1.5 5.1 1 1.4 2.4 2.1 4.3 2.1 1.8 0 3.2-.7 4.2-2.1 1-1.4 1.5-3.1 1.5-5.1v-.5c0-2-.5-3.7-1.5-5.1-1-1.4-2.5-2.1-4.3-2.1-1.8 0-3.2.7-4.2 2.1-1 1.4-1.5 3.1-1.5 5.1v.5zM85.1 7.7l.2 3c.6-1.1 1.3-1.9 2.3-2.5 1-.6 2.1-.9 3.4-.9 1.9 0 3.3.6 4.3 1.7 1 1.2 1.5 3 1.5 5.4V25h-1.9V14.5c0-2-.4-3.4-1.1-4.3-.9-.8-2-1.2-3.3-1.2-1.4 0-2.5.4-3.3 1.1-.9.7-1.5 1.7-1.8 2.9v12.2h-1.9V7.7h1.6zM127.1 22.4c-.5.8-1.5 1.5-2.9 2.1-1.4.7-3.1 1-5.3 1-2.7 0-5-.9-6.7-2.8-1.7-1.9-2.6-4.3-2.6-7.2v-4.3c0-2.9.8-5.3 2.5-7.1 1.7-1.8 3.8-2.7 6.5-2.7 2.5 0 4.5.6 5.9 1.9 1.4 1.3 2.3 2.9 2.5 4.9v.1h-1.8c-.3-1.6-.9-2.8-2-3.8-1-1-2.6-1.5-4.6-1.5-2.1 0-3.8.8-5.1 2.3-1.3 1.5-1.9 3.5-1.9 5.9v4.3c0 2.5.7 4.5 2 6 1.4 1.6 3.2 2.4 5.4 2.4 1.6 0 2.9-.2 4-.7 1.1-.4 1.8-.9 2.2-1.4v-6.1H119V14h8.2v8.4zM140.4 9.4l-1.4-.1c-1.2 0-2.2.3-3 1-.8.7-1.3 1.6-1.7 2.8v12.1h-1.9V7.7h1.7l.2 2.9v.2c.5-1.1 1.2-1.9 2-2.5.8-.6 1.9-.9 3-.9.2 0 .5 0 .7.1.2 0 .4.1.6.1l-.2 1.8zM154.7 25.2c-.1-.6-.2-1.1-.3-1.5-.1-.4-.1-.9-.1-1.3-.6.9-1.5 1.7-2.6 2.3-1.1.6-2.3.9-3.6.9-1.7 0-3-.5-4-1.4-.9-.9-1.4-2.1-1.4-3.6 0-1.6.7-2.9 2.1-3.9 1.4-1 3.3-1.5 5.6-1.5h3.9V13c0-1.2-.4-2.2-1.2-2.9S151.2 9 149.8 9c-1.3 0-2.5.3-3.3 1-.9.7-1.3 1.5-1.3 2.5h-1.8v-.1c-.1-1.3.5-2.5 1.8-3.5s2.8-1.5 4.8-1.5c1.9 0 3.5.5 4.6 1.5 1.2 1 1.8 2.4 1.8 4.2v8.6c0 .6 0 1.2.1 1.8.1.6.2 1.2.3 1.7h-2.1zm-6.4-1.4c1.4 0 2.6-.3 3.7-1s1.8-1.5 2.3-2.5v-3.6h-3.9c-1.8 0-3.2.4-4.2 1.1-1 .7-1.6 1.7-1.6 2.8 0 .9.3 1.7 1 2.3.7.6 1.6.9 2.7.9zM175.4 16.9c0 2.6-.6 4.7-1.8 6.3s-2.8 2.3-4.9 2.3c-1.2 0-2.3-.2-3.2-.7s-1.7-1.1-2.3-2v9.1h-1.9V7.7h1.6l.2 2.7c.6-1 1.3-1.7 2.3-2.2.9-.5 2-.8 3.3-.8 2.1 0 3.7.8 4.9 2.5s1.8 3.9 1.8 6.7v.3zm-1.9-.3c0-2.2-.4-4-1.3-5.4-.9-1.5-2.2-2.2-3.9-2.2-1.3 0-2.4.3-3.2.9s-1.4 1.4-1.8 2.4v8.4c.4 1 1.1 1.7 1.9 2.3.8.5 1.9.8 3.1.8 1.7 0 3-.6 3.8-1.9s1.3-3 1.3-5.1v-.2zM181.7 10.7c.6-1 1.4-1.9 2.3-2.4 1-.6 2.1-.9 3.4-.9 1.8 0 3.3.6 4.2 1.7 1 1.1 1.5 2.9 1.5 5.3v10.8h-1.9V14.4c0-1.9-.4-3.3-1.1-4.1-.8-.9-1.8-1.3-3.1-1.3s-2.4.3-3.3 1-1.5 1.6-2 2.8v12.3h-1.9V0h1.9v10.7zM200.3 2.7h-1.9V0h1.9v2.7zm0 22.5h-1.9V7.7h1.9v17.5zM212.1 23.9c1.3 0 2.4-.4 3.4-1.1s1.5-1.7 1.5-3h1.7v.1c.1 1.6-.6 3-1.9 4-1.3 1.1-2.9 1.6-4.7 1.6-2.4 0-4.2-.8-5.5-2.4s-1.9-3.7-1.9-6.3v-.7c0-2.5.7-4.6 2-6.3 1.3-1.6 3.1-2.5 5.5-2.5 1.9 0 3.5.6 4.8 1.7 1.3 1.1 1.9 2.6 1.8 4.5v.1H217c0-1.4-.5-2.5-1.4-3.3-.9-.8-2.1-1.3-3.5-1.3-1.9 0-3.3.7-4.2 2s-1.3 3-1.3 5.1v.7c0 2.1.4 3.8 1.3 5.1 1 1.3 2.4 2 4.2 2zM233.2 20.7c0-.8-.3-1.5-1-2.1-.7-.6-1.9-1.1-3.6-1.5-2.1-.5-3.6-1-4.6-1.8-1-.7-1.5-1.8-1.5-3.1s.6-2.5 1.7-3.4c1.1-.9 2.6-1.4 4.5-1.4 2 0 3.5.5 4.7 1.5 1.2 1 1.7 2.2 1.6 3.7v.1h-1.8c0-1-.4-1.8-1.2-2.5S230 9 228.6 9s-2.5.3-3.2.9-1.1 1.3-1.1 2.1.3 1.5.9 2c.6.5 1.8 1 3.6 1.4 2.1.5 3.6 1.1 4.7 1.9 1 .8 1.5 1.9 1.5 3.3 0 1.5-.6 2.6-1.8 3.5s-2.7 1.4-4.7 1.4c-2.1 0-3.8-.5-5-1.5-1.2-1-1.8-2.2-1.7-3.6v-.1h1.8c.1 1.3.6 2.2 1.5 2.7 1 .6 2.1.9 3.4.9 1.4 0 2.5-.3 3.3-.9 1-.7 1.4-1.4 1.4-2.3z"/></g></g></svg>