<svg xmlns="http://www.w3.org/2000/svg" viewBox="0 0 633.5 177.8"><style>.st0{fill:#3d3d3d}.st1{font-family:&apos;Comfortaa&apos;}.st2{font-size:59.5285px}.st3{fill:#353535}.st4{font-family:&apos;BebasNeue&apos;}.st5{font-size:30.5851px}.st6{font-family:&apos;Roboto-Regular&apos;}.st7{font-size:45.142px}</style><g id="Jackalope"><text transform="translate(338.412 157.532)" class="st0 st1 st2">Jackalope</text><path class="st0" d="M310.4 134.4c-3.8.1-7.5.5-11 2.3-4 1.9-6 6.5-7.9 10.4-.7 1.5-1.2 3.1-1.5 4.8-.2 1.7.2 3.5-.2 5-4.6-.7-2.3 11.3 1.2 7.8-.3 2.8 1.2 3.1 3.3 2.1 1.9-1 3.7-1.2 5.7-1.6 1.5-.3 1.4-.3 2.1-1.5.3-.5 1.1-1.9 2.1-1.4 1.2.6-.4 4.1-.3 5.3.3 2.2 2.3 1.4 4.2 1.6 1.7.1 3.5.3 5.2.2 1-.1 2.1 0 2.7-.8.6-.9.3-1.9-.4-2.4-1.4-1-3.7-.6-5.3-.4-2.3.2-3.7-.3-2.6-2.8.7-1.8 1.7-3.6 2.4-5.4.7-1.9.6-4.6 3.1-3.9 2.7.8 2.9 2.4 3.3 4.7.5 2.6 2.3 10.6 5.8 9.7.4-.1.7-1.3 1.1-1.4.4-.1 1.2.9 1.5.8 1.5-.4 1-1 .3-1.9-1.7-2-1.7-3.6-2-6.1-.3-2-1.7-4.5-1.6-6.5.1-1.8 2.5-3 3.8-4.2 1.7-1.5 2.7-3 3.3-5 .3-.9.4-2.3 1.2-2.8.8-.6 1.7-.1 2.5-.2 1.7-.2 3.6-1.2 3.8-3 .3-2-1-3.6-1-5.4 0-1.5.8-1.6-.6-2.6-.8-.6-1.8-.7-1.5-1.9.3-.9 1.6-2.4 2.2-3 .8-.7 1.4-1.6 2.1-2.3 1.8-1.9 3.8-.9 5.9-3.6-1.3-.4-3.4 2.7-4.3.9-.4-1 1.4-4.7 2-5.8 1-1.8 2.7-3.7-.1-7.3-.3 1.7.2 2.2-.1 4-.4 2.1-1.4 3.8-2.6 5.6-1.2 1.9-2.3 3.8-3.3 5.8-.6 1-2.3 5-3.6 5.1-1.9.3.1-4.4.4-5.5.7-2 1.5-3.9 1.8-6.1.3-1.7.9-4.3-.1-6-1-1.8-3.7-2-4.7.1-1.6 3.4 1.9 9-.3 12-1.9 2.6-1.9-1.9-1.7-3 .4-2.2-.9-3.3-1.3-5.5-.3-1.1-.3-2.4-.3-3.7-.8.7-.9 1.8-.8 2.7-1 .2-1.3-1.2-2.2-1.6-.9-.3-2 0-2.7.5-1.7 1.4-.8 3.9-.2 5.7.7 2 1.4 4 2.2 6 .9 2.1 2.3 4 3 6.1.5 1.8-1.1 4.3-3 4.3"/></g><g id="BTC"><text transform="translate(29.534 177.824)"><tspan x="0" y="0" class="st3 st4 st5">brake the </tspan><tspan x="105.8" y="0" class="st3 st4 st5">c</tspan><tspan x="117.3" y="0" class="st3 st4 st5">y</tspan><tspan x="128.9" y="0" class="st3 st4 st5">cle</tspan></text><g id="Chain_1_"><path class="st3" d="M199.8 97.6c-7.2-1.5-14.4 1.1-20.6 4.4-17.9 7.9-39.3 6.8-56.4-2.3-11.8-5.7-27.2-.6-33.4 10.8-6.6 11-3.3 26.4 7.1 33.7 8.1 6.2 20 6.7 28.6 1.6 18.5-9.3 41.4-8.8 59.6 1 3.3 1.5 7 2.3 10.7 2.3 13.2.3 25.2-11 25.9-24.1 1.2-12.7-8.7-25.4-21.5-27.4m-88 44.7c-10.3 0-18.6-8.3-18.6-18.5s8.3-18.5 18.6-18.5 18.6 8.3 18.6 18.5-8.3 18.5-18.6 18.5m83.7 0c-10.3 0-18.6-8.3-18.6-18.5s8.3-18.5 18.6-18.5 18.6 8.3 18.6 18.5-8.3 18.5-18.6 18.5"/><path class="st3" d="M94.6 102.2c-18.1 8-39.9 6.9-57.2-2.3-11.9-5.8-27.6-.7-33.9 11-6.7 11.1-3.3 26.7 7.2 34.2 8.2 6.3 20.2 6.8 29.1 1.7 17.9-9 39.8-8.9 57.8-.3-.8-.5-1.6-1-2.3-1.6-10.6-7.5-13.9-23.1-7.2-34.2 2.3-4.3 6-7.7 10.2-10v-.2c-1.3.4-2.5 1-3.7 1.7m-68.1 40c-10.3 0-18.6-8.3-18.6-18.5s8.3-18.5 18.6-18.5 18.6 8.3 18.6 18.5-8.3 18.5-18.6 18.5"/></g></g><text transform="translate(60.33 35.353)" class="st3 st6 st7" id="Check_Out">You can also find me here</text></svg>