<svg id="Layer_1" xmlns="http://www.w3.org/2000/svg" viewBox="0 0 235.8 76"><style>.st0{fill:#61c9b0}.st1{fill:#353535}</style><path class="st0" d="M222.7 75.3H13.3C6.4 75.3.8 69.7.8 62.8V14.2C.8 7.3 6.4 1.7 13.3 1.7h209.3c6.9 0 12.5 5.6 12.5 12.5v48.7c.1 6.8-5.5 12.4-12.4 12.4zM13.3 2.7C7 2.7 1.8 7.8 1.8 14.2v48.7c0 6.3 5.2 11.5 11.5 11.5h209.3c6.3 0 11.5-5.2 11.5-11.5V14.2c0-6.3-5.2-11.5-11.5-11.5H13.3z"/><path class="st1" d="M50.4 35.1c-.4.6-1.3 1.2-2.6 1.8-1.3.5-2.8.8-4.7.8-2.4 0-4.4-.9-5.9-2.6-1.5-1.7-2.3-4-2.3-6.7v-3.5c0-2.7.7-4.8 2.2-6.5 1.5-1.7 3.4-2.5 5.7-2.5 2.2 0 4 .6 5.3 1.7 1.3 1.2 2 2.7 2 4.5v.1h-.7c-.1-1.6-.7-3-1.8-4s-2.7-1.5-4.8-1.5c-2.1 0-3.9.8-5.2 2.3-1.3 1.5-2 3.5-2 5.9v3.5c0 2.5.7 4.6 2 6.2 1.3 1.6 3.1 2.4 5.3 2.4 1.6 0 2.9-.2 4.1-.7 1.2-.5 1.9-.9 2.3-1.5v-6.2h-6.5v-.8H50v7.3zM62.4 22.2l-1-.1c-1.4 0-2.5.5-3.4 1.4-.9.9-1.4 2.1-1.7 3.6v10.3h-.8V21.6h.6l.1 2.7v.5c.4-1.1 1.1-2 1.9-2.6.9-.6 1.9-.9 3.2-.9.2 0 .4 0 .6.1.2 0 .4.1.5.1v.7zM75.2 34.4c-.5.9-1.4 1.7-2.4 2.3-1.1.6-2.4.9-3.9.9s-2.6-.4-3.4-1.2c-.8-.8-1.2-1.9-1.2-3.2 0-1.3.6-2.4 1.9-3.3 1.2-.9 2.8-1.3 4.7-1.3h4.5v-2.3c0-1.3-.4-2.3-1.3-3.1-.8-.7-2-1.1-3.5-1.1-1.4 0-2.6.3-3.4 1-.9.7-1.3 1.6-1.3 2.7h-.7v-.1c-.1-1.2.4-2.3 1.4-3.1 1-.8 2.3-1.3 4-1.3 1.7 0 3 .4 4.1 1.3 1 .9 1.5 2.1 1.5 3.7v7.9c0 .6 0 1.1.1 1.6s.2 1 .3 1.6h-.9c-.1-.7-.2-1.2-.3-1.5 0-.3-.1-.7-.1-1.1v-.4zm-6.3 2.5c1.6 0 2.9-.3 4-1s1.9-1.7 2.4-2.9v-3.5h-4.4c-1.6 0-3 .4-4.1 1.1S65 32.2 65 33.3s.4 1.9 1.1 2.6 1.6 1 2.8 1zM93.1 29.8c0 2.4-.5 4.3-1.6 5.8-1 1.4-2.5 2.1-4.3 2.1-1.2 0-2.3-.2-3.2-.7-.9-.5-1.6-1.2-2.1-2l-.1 2.5H81V14.7h.8v9.7c.5-1 1.2-1.7 2.1-2.3s2-.8 3.2-.8c1.9 0 3.3.7 4.4 2.2s1.6 3.4 1.6 5.9v.4zm-.8-.3c0-2.2-.4-3.9-1.3-5.3s-2.1-2-3.8-2c-1.5 0-2.7.4-3.5 1.1-.8.8-1.4 1.7-1.8 2.8v7.4c.4 1 1 1.9 1.9 2.5s2.1.9 3.4.9c1.7 0 2.9-.6 3.8-1.9.9-1.3 1.3-3 1.3-5.2v-.3zM116 31h-10.3l-2.4 6.3h-.9l7.9-21.2h1l7.9 21.2h-.9L116 31zm-10-.8h9.8l-4.4-11.9-.4-1.2h-.1l-.4 1.2-4.5 11.9zM144.7 28.4c0 1.8-.3 3.3-.8 4.7-.6 1.3-1.4 2.4-2.4 3.2l3.7 3.6-.6.5-3.8-3.6c-.6.3-1.2.6-1.9.7-.7.2-1.4.3-2.2.3-2.5 0-4.4-.8-5.9-2.5s-2.1-3.9-2.1-6.8v-3.2c0-2.8.7-5.1 2.1-6.8s3.4-2.5 5.8-2.5c2.5 0 4.4.8 5.9 2.5s2.1 3.9 2.1 6.8v3.1zm-.7-3.2c0-2.6-.6-4.7-1.9-6.2-1.2-1.5-3-2.3-5.3-2.3s-4.1.8-5.3 2.3c-1.2 1.5-1.9 3.6-1.9 6.2v3.2c0 2.6.6 4.7 1.9 6.2 1.2 1.5 3 2.3 5.3 2.3s4.1-.8 5.3-2.3c1.2-1.5 1.9-3.6 1.9-6.2v-3.2zM159.7 34.5c-.5 1-1.2 1.8-2.1 2.3-.9.5-2 .8-3.3.8-1.6 0-2.9-.6-3.8-1.7-.9-1.1-1.4-2.9-1.4-5.3v-9h.8v9c0 2.1.4 3.7 1.2 4.7.8 1 1.8 1.5 3.2 1.5 1.6 0 2.9-.4 3.8-1.2.9-.8 1.4-1.9 1.7-3.2V21.6h.8v15.7h-.7l-.2-2.8zM164.2 29.2c0-2.3.6-4.2 1.9-5.7 1.3-1.5 2.9-2.2 5-2.2 2 0 3.7.7 5 2.2 1.3 1.5 1.9 3.3 1.9 5.7v.6c0 2.3-.6 4.2-1.9 5.7s-2.9 2.2-4.9 2.2c-2 0-3.7-.7-5-2.2s-1.9-3.4-1.9-5.7v-.6zm.8.6c0 2 .6 3.6 1.7 5s2.6 2.1 4.5 2.1c1.8 0 3.3-.7 4.4-2.1s1.7-3 1.7-5v-.6c0-1.9-.6-3.6-1.7-5s-2.6-2.1-4.4-2.1c-1.8 0-3.3.7-4.4 2.1-1.1 1.4-1.7 3-1.7 5v.6zM183.4 17.4v4.2h3.9v.8h-3.9v10.9c0 1.3.2 2.2.7 2.8.4.5 1 .8 1.7.8h.7c.2 0 .5-.1.8-.1l.1.7c-.2.1-.5.1-.8.2h-.9c-1.1 0-1.9-.3-2.4-1s-.8-1.8-.8-3.3v-11h-2.9v-.8h2.9v-4.2h.9zM196.3 37.7c-1.8 0-3.3-.7-4.6-2.2-1.3-1.4-2-3.2-2-5.4v-.9c0-2.3.6-4.1 1.9-5.6 1.3-1.5 2.8-2.2 4.7-2.2 1.8 0 3.2.6 4.3 1.7 1.1 1.2 1.7 2.7 1.7 4.7V29h-11.8v1.1c0 1.9.6 3.5 1.7 4.8 1.1 1.3 2.5 2 4.1 2 1.2 0 2.2-.2 2.9-.5.8-.3 1.5-.8 2-1.4l.4.6c-.6.7-1.4 1.2-2.3 1.6-.7.3-1.8.5-3 .5zm0-15.6c-1.6 0-2.9.6-3.9 1.7s-1.6 2.6-1.8 4.3v.1h10.8v-.5c0-1.6-.5-2.9-1.5-4s-2.1-1.6-3.6-1.6z"/><g><path d="M74.3 59.7c0 1-.3 1.7-.8 2.2-.6.5-1.4.8-2.3.8-1 0-1.8-.4-2.4-1.1s-.9-1.7-.9-2.9v-1.4c0-1.2.3-2.2.9-2.9s1.4-1.1 2.4-1.1 1.7.3 2.3.8.9 1.2.9 2.2H74c0-.8-.3-1.5-.8-1.9-.5-.5-1.2-.7-2.1-.7-.9 0-1.6.3-2.2 1s-.8 1.6-.8 2.7v1.4c0 1.1.3 2 .8 2.7.6.7 1.3 1 2.2 1 .9 0 1.6-.2 2.1-.7.5-.4.8-1.1.8-2h.3zM81.4 62.5h-.3v-9.9h.3v9.9zM88.7 53.5h-.3v-.9h.3v.9zm0 9h-.3v-6.9h.3v6.9zM97.9 62.3c.6 0 1.1-.2 1.5-.5.4-.3.7-.8.7-1.4h.3c0 .7-.2 1.2-.7 1.6-.5.4-1.1.6-1.8.6-.9 0-1.6-.3-2.1-.9s-.7-1.5-.7-2.5v-.3c0-1 .2-1.9.7-2.5.5-.6 1.2-.9 2-.9.7 0 1.3.2 1.8.6s.7 1 .7 1.8h-.3c0-.7-.2-1.2-.6-1.5s-1-.5-1.6-.5c-.8 0-1.4.3-1.8.9-.4.6-.6 1.3-.6 2.2v.3c0 .9.2 1.7.6 2.2.5.5 1.1.8 1.9.8zM108.1 59h-.9v3.5h-.3v-9.9h.3v6h.8l3.1-3h.4l-3.1 3.1 3.4 3.7h-.4l-3.3-3.4zM132.1 62.5h-.3v-4.4h-5.9v4.4h-.3v-9.2h.3v4.5h5.9v-4.5h.3v9.2zM141.4 62.6c-.8 0-1.5-.3-2-.9s-.9-1.4-.9-2.4v-.4c0-1 .3-1.8.8-2.4.6-.6 1.2-1 2-1s1.4.3 1.9.8.7 1.2.7 2v.5h-5.1v.5c0 .8.2 1.5.7 2.1s1.1.9 1.8.9c.5 0 .9-.1 1.3-.2s.6-.3.9-.6l.2.3c-.3.3-.6.5-1 .7-.3.1-.8.1-1.3.1zm0-6.8c-.7 0-1.2.2-1.7.7s-.7 1.1-.8 1.9h4.7v-.2c0-.7-.2-1.3-.6-1.7-.4-.4-.9-.7-1.6-.7zM153.2 55.9h-.4c-.6 0-1.1.2-1.5.6s-.6.9-.7 1.6v4.5h-.3v-6.9h.3l.1 1.2v.2c.2-.5.5-.9.9-1.1.4-.3.8-.4 1.4-.4h.5l-.3.3zM161.4 62.6c-.8 0-1.5-.3-2-.9s-.9-1.4-.9-2.4v-.4c0-1 .3-1.8.8-2.4.6-.6 1.2-1 2-1s1.4.3 1.9.8.7 1.2.7 2v.5h-5.1v.5c0 .8.2 1.5.7 2.1s1.1.9 1.8.9c.5 0 .9-.1 1.3-.2s.6-.3.9-.6l.2.3c-.3.3-.6.5-1 .7-.3.1-.8.1-1.3.1zm0-6.8c-.7 0-1.2.2-1.7.7s-.7 1.1-.8 1.9h4.7v-.2c0-.7-.2-1.3-.6-1.7-.4-.4-1-.7-1.6-.7z"/></g></svg>